<?xml version="1.0" encoding="utf-8" standalone="no"?>
<!DOCTYPE svg PUBLIC "-//W3C//DTD SVG 1.1//EN"
  "http://www.w3.org/Graphics/SVG/1.1/DTD/svg11.dtd">
<svg xmlns:xlink="http://www.w3.org/1999/xlink" width="720pt" height="288pt" viewBox="0 0 720 288" xmlns="http://www.w3.org/2000/svg" version="1.1">
 <metadata>
  <rdf:RDF xmlns:dc="http://purl.org/dc/elements/1.1/" xmlns:cc="http://creativecommons.org/ns#" xmlns:rdf="http://www.w3.org/1999/02/22-rdf-syntax-ns#">
   <cc:Work>
    <dc:type rdf:resource="http://purl.org/dc/dcmitype/StillImage"/>
    <dc:date>2023-11-20T08:43:11.945841</dc:date>
    <dc:format>image/svg+xml</dc:format>
    <dc:creator>
     <cc:Agent>
      <dc:title>Matplotlib v3.6.2, https://matplotlib.org/</dc:title>
     </cc:Agent>
    </dc:creator>
   </cc:Work>
  </rdf:RDF>
 </metadata>
 <defs>
  <style type="text/css">*{stroke-linejoin: round; stroke-linecap: butt}</style>
 </defs>
 <g id="figure_1">
  <g id="patch_1">
   <path d="M 0 288 
L 720 288 
L 720 0 
L 0 0 
z
" style="fill: #ffffff"/>
  </g>
  <g id="axes_1">
   <g id="patch_2">
    <path d="M 90 256.32 
L 648 256.32 
L 648 34.56 
L 90 34.56 
z
" style="fill: #ffffff"/>
   </g>
   <g id="matplotlib.axis_1">
    <g id="xtick_1">
     <g id="line2d_1">
      <defs>
       <path id="mb4bfccbe97" d="M 0 0 
L 0 3.5 
" style="stroke: #000000; stroke-width: 0.8"/>
      </defs>
      <g>
       <use xlink:href="#mb4bfccbe97" x="115.363636" y="256.32" style="stroke: #000000; stroke-width: 0.8"/>
      </g>
     </g>
     <g id="text_1">
      <!-- 0 -->
      <g transform="translate(112.182386 270.918437) scale(0.1 -0.1)">
       <defs>
        <path id="DejaVuSans-30" d="M 2034 4250 
Q 1547 4250 1301 3770 
Q 1056 3291 1056 2328 
Q 1056 1369 1301 889 
Q 1547 409 2034 409 
Q 2525 409 2770 889 
Q 3016 1369 3016 2328 
Q 3016 3291 2770 3770 
Q 2525 4250 2034 4250 
z
M 2034 4750 
Q 2819 4750 3233 4129 
Q 3647 3509 3647 2328 
Q 3647 1150 3233 529 
Q 2819 -91 2034 -91 
Q 1250 -91 836 529 
Q 422 1150 422 2328 
Q 422 3509 836 4129 
Q 1250 4750 2034 4750 
z
" transform="scale(0.015625)"/>
       </defs>
       <use xlink:href="#DejaVuSans-30"/>
      </g>
     </g>
    </g>
    <g id="xtick_2">
     <g id="line2d_2">
      <g>
       <use xlink:href="#mb4bfccbe97" x="214.634229" y="256.32" style="stroke: #000000; stroke-width: 0.8"/>
      </g>
     </g>
     <g id="text_2">
      <!-- 100 -->
      <g transform="translate(205.090479 270.918437) scale(0.1 -0.1)">
       <defs>
        <path id="DejaVuSans-31" d="M 794 531 
L 1825 531 
L 1825 4091 
L 703 3866 
L 703 4441 
L 1819 4666 
L 2450 4666 
L 2450 531 
L 3481 531 
L 3481 0 
L 794 0 
L 794 531 
z
" transform="scale(0.015625)"/>
       </defs>
       <use xlink:href="#DejaVuSans-31"/>
       <use xlink:href="#DejaVuSans-30" x="63.623047"/>
       <use xlink:href="#DejaVuSans-30" x="127.246094"/>
      </g>
     </g>
    </g>
    <g id="xtick_3">
     <g id="line2d_3">
      <g>
       <use xlink:href="#mb4bfccbe97" x="313.904821" y="256.32" style="stroke: #000000; stroke-width: 0.8"/>
      </g>
     </g>
     <g id="text_3">
      <!-- 200 -->
      <g transform="translate(304.361071 270.918437) scale(0.1 -0.1)">
       <defs>
        <path id="DejaVuSans-32" d="M 1228 531 
L 3431 531 
L 3431 0 
L 469 0 
L 469 531 
Q 828 903 1448 1529 
Q 2069 2156 2228 2338 
Q 2531 2678 2651 2914 
Q 2772 3150 2772 3378 
Q 2772 3750 2511 3984 
Q 2250 4219 1831 4219 
Q 1534 4219 1204 4116 
Q 875 4013 500 3803 
L 500 4441 
Q 881 4594 1212 4672 
Q 1544 4750 1819 4750 
Q 2544 4750 2975 4387 
Q 3406 4025 3406 3419 
Q 3406 3131 3298 2873 
Q 3191 2616 2906 2266 
Q 2828 2175 2409 1742 
Q 1991 1309 1228 531 
z
" transform="scale(0.015625)"/>
       </defs>
       <use xlink:href="#DejaVuSans-32"/>
       <use xlink:href="#DejaVuSans-30" x="63.623047"/>
       <use xlink:href="#DejaVuSans-30" x="127.246094"/>
      </g>
     </g>
    </g>
    <g id="xtick_4">
     <g id="line2d_4">
      <g>
       <use xlink:href="#mb4bfccbe97" x="413.175414" y="256.32" style="stroke: #000000; stroke-width: 0.8"/>
      </g>
     </g>
     <g id="text_4">
      <!-- 300 -->
      <g transform="translate(403.631664 270.918437) scale(0.1 -0.1)">
       <defs>
        <path id="DejaVuSans-33" d="M 2597 2516 
Q 3050 2419 3304 2112 
Q 3559 1806 3559 1356 
Q 3559 666 3084 287 
Q 2609 -91 1734 -91 
Q 1441 -91 1130 -33 
Q 819 25 488 141 
L 488 750 
Q 750 597 1062 519 
Q 1375 441 1716 441 
Q 2309 441 2620 675 
Q 2931 909 2931 1356 
Q 2931 1769 2642 2001 
Q 2353 2234 1838 2234 
L 1294 2234 
L 1294 2753 
L 1863 2753 
Q 2328 2753 2575 2939 
Q 2822 3125 2822 3475 
Q 2822 3834 2567 4026 
Q 2313 4219 1838 4219 
Q 1578 4219 1281 4162 
Q 984 4106 628 3988 
L 628 4550 
Q 988 4650 1302 4700 
Q 1616 4750 1894 4750 
Q 2613 4750 3031 4423 
Q 3450 4097 3450 3541 
Q 3450 3153 3228 2886 
Q 3006 2619 2597 2516 
z
" transform="scale(0.015625)"/>
       </defs>
       <use xlink:href="#DejaVuSans-33"/>
       <use xlink:href="#DejaVuSans-30" x="63.623047"/>
       <use xlink:href="#DejaVuSans-30" x="127.246094"/>
      </g>
     </g>
    </g>
    <g id="xtick_5">
     <g id="line2d_5">
      <g>
       <use xlink:href="#mb4bfccbe97" x="512.446006" y="256.32" style="stroke: #000000; stroke-width: 0.8"/>
      </g>
     </g>
     <g id="text_5">
      <!-- 400 -->
      <g transform="translate(502.902256 270.918437) scale(0.1 -0.1)">
       <defs>
        <path id="DejaVuSans-34" d="M 2419 4116 
L 825 1625 
L 2419 1625 
L 2419 4116 
z
M 2253 4666 
L 3047 4666 
L 3047 1625 
L 3713 1625 
L 3713 1100 
L 3047 1100 
L 3047 0 
L 2419 0 
L 2419 1100 
L 313 1100 
L 313 1709 
L 2253 4666 
z
" transform="scale(0.015625)"/>
       </defs>
       <use xlink:href="#DejaVuSans-34"/>
       <use xlink:href="#DejaVuSans-30" x="63.623047"/>
       <use xlink:href="#DejaVuSans-30" x="127.246094"/>
      </g>
     </g>
    </g>
    <g id="xtick_6">
     <g id="line2d_6">
      <g>
       <use xlink:href="#mb4bfccbe97" x="611.716598" y="256.32" style="stroke: #000000; stroke-width: 0.8"/>
      </g>
     </g>
     <g id="text_6">
      <!-- 500 -->
      <g transform="translate(602.172848 270.918437) scale(0.1 -0.1)">
       <defs>
        <path id="DejaVuSans-35" d="M 691 4666 
L 3169 4666 
L 3169 4134 
L 1269 4134 
L 1269 2991 
Q 1406 3038 1543 3061 
Q 1681 3084 1819 3084 
Q 2600 3084 3056 2656 
Q 3513 2228 3513 1497 
Q 3513 744 3044 326 
Q 2575 -91 1722 -91 
Q 1428 -91 1123 -41 
Q 819 9 494 109 
L 494 744 
Q 775 591 1075 516 
Q 1375 441 1709 441 
Q 2250 441 2565 725 
Q 2881 1009 2881 1497 
Q 2881 1984 2565 2268 
Q 2250 2553 1709 2553 
Q 1456 2553 1204 2497 
Q 953 2441 691 2322 
L 691 4666 
z
" transform="scale(0.015625)"/>
       </defs>
       <use xlink:href="#DejaVuSans-35"/>
       <use xlink:href="#DejaVuSans-30" x="63.623047"/>
       <use xlink:href="#DejaVuSans-30" x="127.246094"/>
      </g>
     </g>
    </g>
   </g>
   <g id="matplotlib.axis_2">
    <g id="ytick_1">
     <g id="line2d_7">
      <defs>
       <path id="m59a81e029b" d="M 0 0 
L -3.5 0 
" style="stroke: #000000; stroke-width: 0.8"/>
      </defs>
      <g>
       <use xlink:href="#m59a81e029b" x="90" y="247.58828" style="stroke: #000000; stroke-width: 0.8"/>
      </g>
     </g>
     <g id="text_7">
      <!-- 0.0506 -->
      <g transform="translate(48.009375 251.387499) scale(0.1 -0.1)">
       <defs>
        <path id="DejaVuSans-2e" d="M 684 794 
L 1344 794 
L 1344 0 
L 684 0 
L 684 794 
z
" transform="scale(0.015625)"/>
        <path id="DejaVuSans-36" d="M 2113 2584 
Q 1688 2584 1439 2293 
Q 1191 2003 1191 1497 
Q 1191 994 1439 701 
Q 1688 409 2113 409 
Q 2538 409 2786 701 
Q 3034 994 3034 1497 
Q 3034 2003 2786 2293 
Q 2538 2584 2113 2584 
z
M 3366 4563 
L 3366 3988 
Q 3128 4100 2886 4159 
Q 2644 4219 2406 4219 
Q 1781 4219 1451 3797 
Q 1122 3375 1075 2522 
Q 1259 2794 1537 2939 
Q 1816 3084 2150 3084 
Q 2853 3084 3261 2657 
Q 3669 2231 3669 1497 
Q 3669 778 3244 343 
Q 2819 -91 2113 -91 
Q 1303 -91 875 529 
Q 447 1150 447 2328 
Q 447 3434 972 4092 
Q 1497 4750 2381 4750 
Q 2619 4750 2861 4703 
Q 3103 4656 3366 4563 
z
" transform="scale(0.015625)"/>
       </defs>
       <use xlink:href="#DejaVuSans-30"/>
       <use xlink:href="#DejaVuSans-2e" x="63.623047"/>
       <use xlink:href="#DejaVuSans-30" x="95.410156"/>
       <use xlink:href="#DejaVuSans-35" x="159.033203"/>
       <use xlink:href="#DejaVuSans-30" x="222.65625"/>
       <use xlink:href="#DejaVuSans-36" x="286.279297"/>
      </g>
     </g>
    </g>
    <g id="ytick_2">
     <g id="line2d_8">
      <g>
       <use xlink:href="#m59a81e029b" x="90" y="219.492544" style="stroke: #000000; stroke-width: 0.8"/>
      </g>
     </g>
     <g id="text_8">
      <!-- 0.0508 -->
      <g transform="translate(48.009375 223.291763) scale(0.1 -0.1)">
       <defs>
        <path id="DejaVuSans-38" d="M 2034 2216 
Q 1584 2216 1326 1975 
Q 1069 1734 1069 1313 
Q 1069 891 1326 650 
Q 1584 409 2034 409 
Q 2484 409 2743 651 
Q 3003 894 3003 1313 
Q 3003 1734 2745 1975 
Q 2488 2216 2034 2216 
z
M 1403 2484 
Q 997 2584 770 2862 
Q 544 3141 544 3541 
Q 544 4100 942 4425 
Q 1341 4750 2034 4750 
Q 2731 4750 3128 4425 
Q 3525 4100 3525 3541 
Q 3525 3141 3298 2862 
Q 3072 2584 2669 2484 
Q 3125 2378 3379 2068 
Q 3634 1759 3634 1313 
Q 3634 634 3220 271 
Q 2806 -91 2034 -91 
Q 1263 -91 848 271 
Q 434 634 434 1313 
Q 434 1759 690 2068 
Q 947 2378 1403 2484 
z
M 1172 3481 
Q 1172 3119 1398 2916 
Q 1625 2713 2034 2713 
Q 2441 2713 2670 2916 
Q 2900 3119 2900 3481 
Q 2900 3844 2670 4047 
Q 2441 4250 2034 4250 
Q 1625 4250 1398 4047 
Q 1172 3844 1172 3481 
z
" transform="scale(0.015625)"/>
       </defs>
       <use xlink:href="#DejaVuSans-30"/>
       <use xlink:href="#DejaVuSans-2e" x="63.623047"/>
       <use xlink:href="#DejaVuSans-30" x="95.410156"/>
       <use xlink:href="#DejaVuSans-35" x="159.033203"/>
       <use xlink:href="#DejaVuSans-30" x="222.65625"/>
       <use xlink:href="#DejaVuSans-38" x="286.279297"/>
      </g>
     </g>
    </g>
    <g id="ytick_3">
     <g id="line2d_9">
      <g>
       <use xlink:href="#m59a81e029b" x="90" y="191.396808" style="stroke: #000000; stroke-width: 0.8"/>
      </g>
     </g>
     <g id="text_9">
      <!-- 0.0510 -->
      <g transform="translate(48.009375 195.196027) scale(0.1 -0.1)">
       <use xlink:href="#DejaVuSans-30"/>
       <use xlink:href="#DejaVuSans-2e" x="63.623047"/>
       <use xlink:href="#DejaVuSans-30" x="95.410156"/>
       <use xlink:href="#DejaVuSans-35" x="159.033203"/>
       <use xlink:href="#DejaVuSans-31" x="222.65625"/>
       <use xlink:href="#DejaVuSans-30" x="286.279297"/>
      </g>
     </g>
    </g>
    <g id="ytick_4">
     <g id="line2d_10">
      <g>
       <use xlink:href="#m59a81e029b" x="90" y="163.301072" style="stroke: #000000; stroke-width: 0.8"/>
      </g>
     </g>
     <g id="text_10">
      <!-- 0.0512 -->
      <g transform="translate(48.009375 167.10029) scale(0.1 -0.1)">
       <use xlink:href="#DejaVuSans-30"/>
       <use xlink:href="#DejaVuSans-2e" x="63.623047"/>
       <use xlink:href="#DejaVuSans-30" x="95.410156"/>
       <use xlink:href="#DejaVuSans-35" x="159.033203"/>
       <use xlink:href="#DejaVuSans-31" x="222.65625"/>
       <use xlink:href="#DejaVuSans-32" x="286.279297"/>
      </g>
     </g>
    </g>
    <g id="ytick_5">
     <g id="line2d_11">
      <g>
       <use xlink:href="#m59a81e029b" x="90" y="135.205335" style="stroke: #000000; stroke-width: 0.8"/>
      </g>
     </g>
     <g id="text_11">
      <!-- 0.0514 -->
      <g transform="translate(48.009375 139.004554) scale(0.1 -0.1)">
       <use xlink:href="#DejaVuSans-30"/>
       <use xlink:href="#DejaVuSans-2e" x="63.623047"/>
       <use xlink:href="#DejaVuSans-30" x="95.410156"/>
       <use xlink:href="#DejaVuSans-35" x="159.033203"/>
       <use xlink:href="#DejaVuSans-31" x="222.65625"/>
       <use xlink:href="#DejaVuSans-34" x="286.279297"/>
      </g>
     </g>
    </g>
    <g id="ytick_6">
     <g id="line2d_12">
      <g>
       <use xlink:href="#m59a81e029b" x="90" y="107.109599" style="stroke: #000000; stroke-width: 0.8"/>
      </g>
     </g>
     <g id="text_12">
      <!-- 0.0516 -->
      <g transform="translate(48.009375 110.908818) scale(0.1 -0.1)">
       <use xlink:href="#DejaVuSans-30"/>
       <use xlink:href="#DejaVuSans-2e" x="63.623047"/>
       <use xlink:href="#DejaVuSans-30" x="95.410156"/>
       <use xlink:href="#DejaVuSans-35" x="159.033203"/>
       <use xlink:href="#DejaVuSans-31" x="222.65625"/>
       <use xlink:href="#DejaVuSans-36" x="286.279297"/>
      </g>
     </g>
    </g>
    <g id="ytick_7">
     <g id="line2d_13">
      <g>
       <use xlink:href="#m59a81e029b" x="90" y="79.013863" style="stroke: #000000; stroke-width: 0.8"/>
      </g>
     </g>
     <g id="text_13">
      <!-- 0.0518 -->
      <g transform="translate(48.009375 82.813082) scale(0.1 -0.1)">
       <use xlink:href="#DejaVuSans-30"/>
       <use xlink:href="#DejaVuSans-2e" x="63.623047"/>
       <use xlink:href="#DejaVuSans-30" x="95.410156"/>
       <use xlink:href="#DejaVuSans-35" x="159.033203"/>
       <use xlink:href="#DejaVuSans-31" x="222.65625"/>
       <use xlink:href="#DejaVuSans-38" x="286.279297"/>
      </g>
     </g>
    </g>
    <g id="ytick_8">
     <g id="line2d_14">
      <g>
       <use xlink:href="#m59a81e029b" x="90" y="50.918127" style="stroke: #000000; stroke-width: 0.8"/>
      </g>
     </g>
     <g id="text_14">
      <!-- 0.0520 -->
      <g transform="translate(48.009375 54.717345) scale(0.1 -0.1)">
       <use xlink:href="#DejaVuSans-30"/>
       <use xlink:href="#DejaVuSans-2e" x="63.623047"/>
       <use xlink:href="#DejaVuSans-30" x="95.410156"/>
       <use xlink:href="#DejaVuSans-35" x="159.033203"/>
       <use xlink:href="#DejaVuSans-32" x="222.65625"/>
       <use xlink:href="#DejaVuSans-30" x="286.279297"/>
      </g>
     </g>
    </g>
   </g>
   <g id="line2d_15">
    <path d="M 115.363636 135.507431 
L 117.349048 135.829245 
L 118.341754 136.378474 
L 120.327166 138.468877 
L 123.305284 142.371347 
L 124.29799 143.676178 
L 125.290696 144.516995 
L 126.283402 144.912301 
L 127.276107 145.805213 
L 129.261519 148.129949 
L 131.246931 150.774902 
L 132.239637 150.803134 
L 134.225049 148.838707 
L 136.210461 146.745201 
L 137.203167 146.144523 
L 138.195873 147.062727 
L 139.188579 148.871908 
L 140.181284 151.145399 
L 141.17399 153.950845 
L 142.166696 157.646505 
L 143.159402 162.107022 
L 144.152108 167.360932 
L 146.13752 179.754044 
L 148.122932 194.023715 
L 149.115638 199.705808 
L 151.10105 209.119003 
L 152.093756 212.966383 
L 156.064579 226.203987 
L 158.049991 229.440637 
L 159.042697 230.368833 
L 161.028109 230.22738 
L 162.020815 229.57177 
L 163.013521 229.32665 
L 164.006227 228.195763 
L 164.998933 226.173428 
L 165.991638 223.563361 
L 166.984344 220.57099 
L 167.97705 217.186163 
L 168.969756 213.327111 
L 172.94058 195.039222 
L 179.889521 160.433153 
L 183.860345 137.19869 
L 185.845757 123.227876 
L 188.823875 103.687635 
L 190.809287 93.786056 
L 192.794698 85.266989 
L 193.787404 81.977959 
L 198.750934 68.106999 
L 201.729052 60.125394 
L 202.721758 58.436938 
L 203.714464 57.314216 
L 204.70717 56.476467 
L 205.699875 56.399673 
L 206.692581 57.007551 
L 208.677993 57.787245 
L 209.670699 59.071962 
L 210.663405 60.940193 
L 212.648817 65.595799 
L 215.626935 75.503057 
L 216.619641 78.267126 
L 217.612347 80.700139 
L 218.605052 82.365576 
L 220.590464 84.240375 
L 221.58317 85.394304 
L 224.561288 89.516722 
L 225.553994 91.04896 
L 226.5467 91.901407 
L 227.539406 92.468162 
L 228.532112 92.533843 
L 230.517524 90.817979 
L 232.502935 87.763119 
L 233.495641 85.787653 
L 235.481053 82.857382 
L 239.451877 72.494622 
L 243.422701 58.888175 
L 245.408112 51.570233 
L 246.400818 47.825075 
L 247.393524 45.623454 
L 248.38623 44.64 
L 249.378936 45.155697 
L 250.371642 46.528926 
L 251.364348 48.561803 
L 255.335172 60.332733 
L 256.327878 62.863516 
L 259.305995 71.16283 
L 260.298701 73.506763 
L 262.284113 79.378422 
L 265.262231 88.236869 
L 267.247643 93.449384 
L 268.240349 95.846971 
L 270.225761 101.119461 
L 272.211172 105.76259 
L 273.203878 107.915735 
L 274.196584 109.682425 
L 277.174702 114.249159 
L 278.167408 116.334597 
L 280.15282 119.440051 
L 281.145526 120.39722 
L 282.138232 121.744212 
L 284.123643 124.016798 
L 285.116349 125.62424 
L 287.101761 130.163085 
L 288.094467 131.841574 
L 290.079879 133.828828 
L 291.072585 133.966519 
L 293.057997 132.807904 
L 294.050703 132.48617 
L 295.043409 131.672375 
L 296.036115 131.109254 
L 297.02882 130.991396 
L 299.014232 131.252772 
L 300.006938 131.119314 
L 300.999644 131.663416 
L 302.985056 132.212421 
L 303.977762 132.742301 
L 305.963174 134.724021 
L 306.95588 136.148722 
L 307.948586 137.301774 
L 309.933998 140.500779 
L 310.926703 141.972938 
L 312.912115 146.258081 
L 313.904821 148.620298 
L 314.897527 150.454436 
L 316.882939 153.620256 
L 319.861057 159.555882 
L 321.846469 165.01447 
L 324.824586 173.72466 
L 326.809998 179.306965 
L 327.802704 181.61353 
L 329.788116 184.241278 
L 330.780822 185.402206 
L 331.773528 186.179025 
L 332.766234 186.457466 
L 333.75894 187.392029 
L 335.744352 190.116115 
L 336.737057 190.898882 
L 337.729763 192.039277 
L 339.715175 195.475206 
L 340.707881 196.422859 
L 341.700587 196.697413 
L 342.693293 196.489831 
L 343.685999 195.438297 
L 344.678705 194.035013 
L 345.671411 192.898209 
L 347.656823 191.748179 
L 348.649529 191.805241 
L 349.642234 192.740619 
L 351.627646 194.141919 
L 352.620352 193.915017 
L 353.613058 194.171616 
L 354.605764 194.259774 
L 355.59847 194.678206 
L 356.591176 194.944038 
L 357.583882 194.970127 
L 358.576588 194.843006 
L 361.554706 194.831477 
L 362.547411 194.113679 
L 363.540117 192.650668 
L 365.525529 190.374843 
L 368.503647 185.24327 
L 370.489059 182.856294 
L 371.481765 182.00723 
L 372.474471 180.602707 
L 374.459883 175.016871 
L 375.452589 172.001578 
L 382.40153 148.170087 
L 385.379648 134.659064 
L 389.350471 120.253392 
L 390.343177 117.550074 
L 392.328589 114.011685 
L 396.299413 109.127418 
L 397.292119 107.642614 
L 399.277531 103.577332 
L 400.270237 101.614002 
L 401.262943 99.375679 
L 403.248354 95.807672 
L 404.24106 94.709784 
L 405.233766 94.254778 
L 406.226472 94.568859 
L 407.219178 95.336837 
L 408.211884 96.685171 
L 409.20459 98.225157 
L 412.182708 100.828989 
L 415.160825 105.726879 
L 416.153531 108.276236 
L 418.138943 114.674133 
L 421.117061 123.287573 
L 422.109767 126.513793 
L 423.102473 128.792343 
L 426.080591 133.271584 
L 427.073297 134.085287 
L 429.058708 135.406232 
L 430.051414 136.755225 
L 431.04412 137.826776 
L 433.029532 141.318078 
L 435.014944 146.25966 
L 437.000356 151.478866 
L 437.993062 153.561789 
L 439.978474 156.327967 
L 440.97118 157.689239 
L 441.963885 158.619211 
L 442.956591 159.093875 
L 443.949297 160.127144 
L 444.942003 161.964522 
L 445.934709 163.39048 
L 446.927415 164.263808 
L 449.905533 168.931246 
L 450.898239 170.048578 
L 451.890945 171.81928 
L 453.876357 176.304617 
L 454.869062 177.861428 
L 456.854474 180.060803 
L 457.84718 180.467623 
L 458.839886 181.057171 
L 459.832592 181.396082 
L 460.825298 183.25408 
L 461.818004 185.741812 
L 462.81071 187.919291 
L 463.803416 190.551112 
L 465.788828 194.794278 
L 469.759651 201.037892 
L 470.752357 201.621486 
L 471.745063 202.679743 
L 472.737769 203.420017 
L 473.730475 203.712256 
L 474.723181 204.294211 
L 475.715887 205.084722 
L 478.694005 208.321724 
L 483.657534 216.493101 
L 484.65024 217.619016 
L 485.642946 218.346248 
L 486.635652 218.544564 
L 487.628358 219.210771 
L 489.61377 220.033999 
L 490.606476 221.223944 
L 491.599182 222.622962 
L 494.577299 227.389645 
L 495.570005 228.845706 
L 496.562711 229.635565 
L 497.555417 230.012409 
L 501.526241 230.518409 
L 502.518947 230.926271 
L 503.511653 232.071654 
L 504.504359 233.459075 
L 505.497065 234.321674 
L 506.489771 235.902461 
L 507.482476 238.073871 
L 508.475182 239.720853 
L 509.467888 240.258426 
L 510.460594 240.388514 
L 512.446006 241.595888 
L 513.438712 241.604111 
L 514.431418 241.381545 
L 517.409536 244.829372 
L 518.402242 245.283656 
L 519.394948 245.18632 
L 520.387653 245.862574 
L 522.373065 246.24 
L 523.365771 246.135434 
L 524.358477 245.775567 
L 527.336595 245.884178 
L 529.322007 245.572443 
L 530.314713 245.54256 
L 531.307419 245.690282 
L 535.278242 245.667968 
L 536.270948 245.796527 
L 537.263654 245.711674 
L 538.25636 244.537592 
L 540.241772 242.84307 
L 541.234478 241.743285 
L 542.227184 240.379284 
L 543.21989 240.070776 
L 544.212596 240.788788 
L 545.205302 241.09937 
L 546.198007 240.377176 
L 547.190713 240.141489 
L 548.183419 240.272843 
L 549.176125 239.813669 
L 550.168831 239.115364 
L 551.161537 238.731843 
L 552.154243 239.15385 
L 553.146949 239.774376 
L 555.132361 238.809263 
L 556.125067 237.66765 
L 557.117773 236.28489 
L 559.103184 232.866637 
L 560.09589 231.716582 
L 561.088596 230.114969 
L 563.074008 226.551036 
L 564.066714 224.845272 
L 566.052126 220.105056 
L 567.044832 218.35112 
L 568.037538 217.083085 
L 569.030244 215.586332 
L 570.02295 213.816739 
L 573.001067 210.216928 
L 573.993773 208.775552 
L 574.986479 207.542742 
L 576.971891 205.831705 
L 580.942715 200.501165 
L 582.928127 197.569215 
L 583.920833 197.313242 
L 584.913539 196.808396 
L 587.891656 195.963985 
L 588.884362 194.929792 
L 589.877068 193.329117 
L 590.869774 192.186813 
L 591.86248 191.453904 
L 592.855186 190.437185 
L 593.847892 189.172715 
L 594.840598 188.181317 
L 595.833304 187.415947 
L 596.82601 186.827629 
L 597.818716 185.910298 
L 598.811421 185.45209 
L 599.804127 186.150242 
L 601.789539 188.586294 
L 602.782245 189.209526 
L 603.774951 190.09793 
L 606.753069 191.609025 
L 607.745775 192.839751 
L 608.738481 194.54895 
L 609.731187 197.073974 
L 612.709304 206.448298 
L 613.70201 208.764779 
L 615.687422 212.73393 
L 616.680128 213.922359 
L 617.672834 214.710999 
L 618.66554 215.864472 
L 619.658246 216.637497 
L 620.650952 216.729179 
L 621.643658 216.647233 
L 622.636364 216.981062 
L 622.636364 216.981062 
" clip-path="url(#pae8840ec81)" style="fill: none; stroke: #1f77b4; stroke-width: 1.5; stroke-linecap: square"/>
   </g>
   <g id="patch_3">
    <path d="M 90 256.32 
L 90 34.56 
" style="fill: none; stroke: #000000; stroke-width: 0.8; stroke-linejoin: miter; stroke-linecap: square"/>
   </g>
   <g id="patch_4">
    <path d="M 648 256.32 
L 648 34.56 
" style="fill: none; stroke: #000000; stroke-width: 0.8; stroke-linejoin: miter; stroke-linecap: square"/>
   </g>
   <g id="patch_5">
    <path d="M 90 256.32 
L 648 256.32 
" style="fill: none; stroke: #000000; stroke-width: 0.8; stroke-linejoin: miter; stroke-linecap: square"/>
   </g>
   <g id="patch_6">
    <path d="M 90 34.56 
L 648 34.56 
" style="fill: none; stroke: #000000; stroke-width: 0.8; stroke-linejoin: miter; stroke-linecap: square"/>
   </g>
   <g id="text_15">
    <!-- K is now at 1 -->
    <g transform="translate(330.418125 28.56) scale(0.12 -0.12)">
     <defs>
      <path id="DejaVuSans-4b" d="M 628 4666 
L 1259 4666 
L 1259 2694 
L 3353 4666 
L 4166 4666 
L 1850 2491 
L 4331 0 
L 3500 0 
L 1259 2247 
L 1259 0 
L 628 0 
L 628 4666 
z
" transform="scale(0.015625)"/>
      <path id="DejaVuSans-20" transform="scale(0.015625)"/>
      <path id="DejaVuSans-69" d="M 603 3500 
L 1178 3500 
L 1178 0 
L 603 0 
L 603 3500 
z
M 603 4863 
L 1178 4863 
L 1178 4134 
L 603 4134 
L 603 4863 
z
" transform="scale(0.015625)"/>
      <path id="DejaVuSans-73" d="M 2834 3397 
L 2834 2853 
Q 2591 2978 2328 3040 
Q 2066 3103 1784 3103 
Q 1356 3103 1142 2972 
Q 928 2841 928 2578 
Q 928 2378 1081 2264 
Q 1234 2150 1697 2047 
L 1894 2003 
Q 2506 1872 2764 1633 
Q 3022 1394 3022 966 
Q 3022 478 2636 193 
Q 2250 -91 1575 -91 
Q 1294 -91 989 -36 
Q 684 19 347 128 
L 347 722 
Q 666 556 975 473 
Q 1284 391 1588 391 
Q 1994 391 2212 530 
Q 2431 669 2431 922 
Q 2431 1156 2273 1281 
Q 2116 1406 1581 1522 
L 1381 1569 
Q 847 1681 609 1914 
Q 372 2147 372 2553 
Q 372 3047 722 3315 
Q 1072 3584 1716 3584 
Q 2034 3584 2315 3537 
Q 2597 3491 2834 3397 
z
" transform="scale(0.015625)"/>
      <path id="DejaVuSans-6e" d="M 3513 2113 
L 3513 0 
L 2938 0 
L 2938 2094 
Q 2938 2591 2744 2837 
Q 2550 3084 2163 3084 
Q 1697 3084 1428 2787 
Q 1159 2491 1159 1978 
L 1159 0 
L 581 0 
L 581 3500 
L 1159 3500 
L 1159 2956 
Q 1366 3272 1645 3428 
Q 1925 3584 2291 3584 
Q 2894 3584 3203 3211 
Q 3513 2838 3513 2113 
z
" transform="scale(0.015625)"/>
      <path id="DejaVuSans-6f" d="M 1959 3097 
Q 1497 3097 1228 2736 
Q 959 2375 959 1747 
Q 959 1119 1226 758 
Q 1494 397 1959 397 
Q 2419 397 2687 759 
Q 2956 1122 2956 1747 
Q 2956 2369 2687 2733 
Q 2419 3097 1959 3097 
z
M 1959 3584 
Q 2709 3584 3137 3096 
Q 3566 2609 3566 1747 
Q 3566 888 3137 398 
Q 2709 -91 1959 -91 
Q 1206 -91 779 398 
Q 353 888 353 1747 
Q 353 2609 779 3096 
Q 1206 3584 1959 3584 
z
" transform="scale(0.015625)"/>
      <path id="DejaVuSans-77" d="M 269 3500 
L 844 3500 
L 1563 769 
L 2278 3500 
L 2956 3500 
L 3675 769 
L 4391 3500 
L 4966 3500 
L 4050 0 
L 3372 0 
L 2619 2869 
L 1863 0 
L 1184 0 
L 269 3500 
z
" transform="scale(0.015625)"/>
      <path id="DejaVuSans-61" d="M 2194 1759 
Q 1497 1759 1228 1600 
Q 959 1441 959 1056 
Q 959 750 1161 570 
Q 1363 391 1709 391 
Q 2188 391 2477 730 
Q 2766 1069 2766 1631 
L 2766 1759 
L 2194 1759 
z
M 3341 1997 
L 3341 0 
L 2766 0 
L 2766 531 
Q 2569 213 2275 61 
Q 1981 -91 1556 -91 
Q 1019 -91 701 211 
Q 384 513 384 1019 
Q 384 1609 779 1909 
Q 1175 2209 1959 2209 
L 2766 2209 
L 2766 2266 
Q 2766 2663 2505 2880 
Q 2244 3097 1772 3097 
Q 1472 3097 1187 3025 
Q 903 2953 641 2809 
L 641 3341 
Q 956 3463 1253 3523 
Q 1550 3584 1831 3584 
Q 2591 3584 2966 3190 
Q 3341 2797 3341 1997 
z
" transform="scale(0.015625)"/>
      <path id="DejaVuSans-74" d="M 1172 4494 
L 1172 3500 
L 2356 3500 
L 2356 3053 
L 1172 3053 
L 1172 1153 
Q 1172 725 1289 603 
Q 1406 481 1766 481 
L 2356 481 
L 2356 0 
L 1766 0 
Q 1100 0 847 248 
Q 594 497 594 1153 
L 594 3053 
L 172 3053 
L 172 3500 
L 594 3500 
L 594 4494 
L 1172 4494 
z
" transform="scale(0.015625)"/>
     </defs>
     <use xlink:href="#DejaVuSans-4b"/>
     <use xlink:href="#DejaVuSans-20" x="65.576172"/>
     <use xlink:href="#DejaVuSans-69" x="97.363281"/>
     <use xlink:href="#DejaVuSans-73" x="125.146484"/>
     <use xlink:href="#DejaVuSans-20" x="177.246094"/>
     <use xlink:href="#DejaVuSans-6e" x="209.033203"/>
     <use xlink:href="#DejaVuSans-6f" x="272.412109"/>
     <use xlink:href="#DejaVuSans-77" x="333.59375"/>
     <use xlink:href="#DejaVuSans-20" x="415.380859"/>
     <use xlink:href="#DejaVuSans-61" x="447.167969"/>
     <use xlink:href="#DejaVuSans-74" x="508.447266"/>
     <use xlink:href="#DejaVuSans-20" x="547.65625"/>
     <use xlink:href="#DejaVuSans-31" x="579.443359"/>
    </g>
   </g>
  </g>
 </g>
 <defs>
  <clipPath id="pae8840ec81">
   <rect x="90" y="34.56" width="558" height="221.76"/>
  </clipPath>
 </defs>
</svg>
