<?xml version="1.0" encoding="utf-8" standalone="no"?>
<!DOCTYPE svg PUBLIC "-//W3C//DTD SVG 1.1//EN"
  "http://www.w3.org/Graphics/SVG/1.1/DTD/svg11.dtd">
<svg xmlns:xlink="http://www.w3.org/1999/xlink" width="720pt" height="288pt" viewBox="0 0 720 288" xmlns="http://www.w3.org/2000/svg" version="1.1">
 <metadata>
  <rdf:RDF xmlns:dc="http://purl.org/dc/elements/1.1/" xmlns:cc="http://creativecommons.org/ns#" xmlns:rdf="http://www.w3.org/1999/02/22-rdf-syntax-ns#">
   <cc:Work>
    <dc:type rdf:resource="http://purl.org/dc/dcmitype/StillImage"/>
    <dc:date>2023-12-05T23:15:36.531178</dc:date>
    <dc:format>image/svg+xml</dc:format>
    <dc:creator>
     <cc:Agent>
      <dc:title>Matplotlib v3.6.2, https://matplotlib.org/</dc:title>
     </cc:Agent>
    </dc:creator>
   </cc:Work>
  </rdf:RDF>
 </metadata>
 <defs>
  <style type="text/css">*{stroke-linejoin: round; stroke-linecap: butt}</style>
 </defs>
 <g id="figure_1">
  <g id="patch_1">
   <path d="M 0 288 
L 720 288 
L 720 0 
L 0 0 
z
" style="fill: #ffffff"/>
  </g>
  <g id="axes_1">
   <g id="patch_2">
    <path d="M 90 256.32 
L 648 256.32 
L 648 34.56 
L 90 34.56 
z
" style="fill: #ffffff"/>
   </g>
   <g id="matplotlib.axis_1">
    <g id="xtick_1">
     <g id="line2d_1">
      <defs>
       <path id="mabb83d2162" d="M 0 0 
L 0 3.5 
" style="stroke: #000000; stroke-width: 0.8"/>
      </defs>
      <g>
       <use xlink:href="#mabb83d2162" x="115.363636" y="256.32" style="stroke: #000000; stroke-width: 0.8"/>
      </g>
     </g>
     <g id="text_1">
      <!-- 0 -->
      <g transform="translate(112.182386 270.918437) scale(0.1 -0.1)">
       <defs>
        <path id="DejaVuSans-30" d="M 2034 4250 
Q 1547 4250 1301 3770 
Q 1056 3291 1056 2328 
Q 1056 1369 1301 889 
Q 1547 409 2034 409 
Q 2525 409 2770 889 
Q 3016 1369 3016 2328 
Q 3016 3291 2770 3770 
Q 2525 4250 2034 4250 
z
M 2034 4750 
Q 2819 4750 3233 4129 
Q 3647 3509 3647 2328 
Q 3647 1150 3233 529 
Q 2819 -91 2034 -91 
Q 1250 -91 836 529 
Q 422 1150 422 2328 
Q 422 3509 836 4129 
Q 1250 4750 2034 4750 
z
" transform="scale(0.015625)"/>
       </defs>
       <use xlink:href="#DejaVuSans-30"/>
      </g>
     </g>
    </g>
    <g id="xtick_2">
     <g id="line2d_2">
      <g>
       <use xlink:href="#mabb83d2162" x="214.634229" y="256.32" style="stroke: #000000; stroke-width: 0.8"/>
      </g>
     </g>
     <g id="text_2">
      <!-- 100 -->
      <g transform="translate(205.090479 270.918437) scale(0.1 -0.1)">
       <defs>
        <path id="DejaVuSans-31" d="M 794 531 
L 1825 531 
L 1825 4091 
L 703 3866 
L 703 4441 
L 1819 4666 
L 2450 4666 
L 2450 531 
L 3481 531 
L 3481 0 
L 794 0 
L 794 531 
z
" transform="scale(0.015625)"/>
       </defs>
       <use xlink:href="#DejaVuSans-31"/>
       <use xlink:href="#DejaVuSans-30" x="63.623047"/>
       <use xlink:href="#DejaVuSans-30" x="127.246094"/>
      </g>
     </g>
    </g>
    <g id="xtick_3">
     <g id="line2d_3">
      <g>
       <use xlink:href="#mabb83d2162" x="313.904821" y="256.32" style="stroke: #000000; stroke-width: 0.8"/>
      </g>
     </g>
     <g id="text_3">
      <!-- 200 -->
      <g transform="translate(304.361071 270.918437) scale(0.1 -0.1)">
       <defs>
        <path id="DejaVuSans-32" d="M 1228 531 
L 3431 531 
L 3431 0 
L 469 0 
L 469 531 
Q 828 903 1448 1529 
Q 2069 2156 2228 2338 
Q 2531 2678 2651 2914 
Q 2772 3150 2772 3378 
Q 2772 3750 2511 3984 
Q 2250 4219 1831 4219 
Q 1534 4219 1204 4116 
Q 875 4013 500 3803 
L 500 4441 
Q 881 4594 1212 4672 
Q 1544 4750 1819 4750 
Q 2544 4750 2975 4387 
Q 3406 4025 3406 3419 
Q 3406 3131 3298 2873 
Q 3191 2616 2906 2266 
Q 2828 2175 2409 1742 
Q 1991 1309 1228 531 
z
" transform="scale(0.015625)"/>
       </defs>
       <use xlink:href="#DejaVuSans-32"/>
       <use xlink:href="#DejaVuSans-30" x="63.623047"/>
       <use xlink:href="#DejaVuSans-30" x="127.246094"/>
      </g>
     </g>
    </g>
    <g id="xtick_4">
     <g id="line2d_4">
      <g>
       <use xlink:href="#mabb83d2162" x="413.175414" y="256.32" style="stroke: #000000; stroke-width: 0.8"/>
      </g>
     </g>
     <g id="text_4">
      <!-- 300 -->
      <g transform="translate(403.631664 270.918437) scale(0.1 -0.1)">
       <defs>
        <path id="DejaVuSans-33" d="M 2597 2516 
Q 3050 2419 3304 2112 
Q 3559 1806 3559 1356 
Q 3559 666 3084 287 
Q 2609 -91 1734 -91 
Q 1441 -91 1130 -33 
Q 819 25 488 141 
L 488 750 
Q 750 597 1062 519 
Q 1375 441 1716 441 
Q 2309 441 2620 675 
Q 2931 909 2931 1356 
Q 2931 1769 2642 2001 
Q 2353 2234 1838 2234 
L 1294 2234 
L 1294 2753 
L 1863 2753 
Q 2328 2753 2575 2939 
Q 2822 3125 2822 3475 
Q 2822 3834 2567 4026 
Q 2313 4219 1838 4219 
Q 1578 4219 1281 4162 
Q 984 4106 628 3988 
L 628 4550 
Q 988 4650 1302 4700 
Q 1616 4750 1894 4750 
Q 2613 4750 3031 4423 
Q 3450 4097 3450 3541 
Q 3450 3153 3228 2886 
Q 3006 2619 2597 2516 
z
" transform="scale(0.015625)"/>
       </defs>
       <use xlink:href="#DejaVuSans-33"/>
       <use xlink:href="#DejaVuSans-30" x="63.623047"/>
       <use xlink:href="#DejaVuSans-30" x="127.246094"/>
      </g>
     </g>
    </g>
    <g id="xtick_5">
     <g id="line2d_5">
      <g>
       <use xlink:href="#mabb83d2162" x="512.446006" y="256.32" style="stroke: #000000; stroke-width: 0.8"/>
      </g>
     </g>
     <g id="text_5">
      <!-- 400 -->
      <g transform="translate(502.902256 270.918437) scale(0.1 -0.1)">
       <defs>
        <path id="DejaVuSans-34" d="M 2419 4116 
L 825 1625 
L 2419 1625 
L 2419 4116 
z
M 2253 4666 
L 3047 4666 
L 3047 1625 
L 3713 1625 
L 3713 1100 
L 3047 1100 
L 3047 0 
L 2419 0 
L 2419 1100 
L 313 1100 
L 313 1709 
L 2253 4666 
z
" transform="scale(0.015625)"/>
       </defs>
       <use xlink:href="#DejaVuSans-34"/>
       <use xlink:href="#DejaVuSans-30" x="63.623047"/>
       <use xlink:href="#DejaVuSans-30" x="127.246094"/>
      </g>
     </g>
    </g>
    <g id="xtick_6">
     <g id="line2d_6">
      <g>
       <use xlink:href="#mabb83d2162" x="611.716598" y="256.32" style="stroke: #000000; stroke-width: 0.8"/>
      </g>
     </g>
     <g id="text_6">
      <!-- 500 -->
      <g transform="translate(602.172848 270.918437) scale(0.1 -0.1)">
       <defs>
        <path id="DejaVuSans-35" d="M 691 4666 
L 3169 4666 
L 3169 4134 
L 1269 4134 
L 1269 2991 
Q 1406 3038 1543 3061 
Q 1681 3084 1819 3084 
Q 2600 3084 3056 2656 
Q 3513 2228 3513 1497 
Q 3513 744 3044 326 
Q 2575 -91 1722 -91 
Q 1428 -91 1123 -41 
Q 819 9 494 109 
L 494 744 
Q 775 591 1075 516 
Q 1375 441 1709 441 
Q 2250 441 2565 725 
Q 2881 1009 2881 1497 
Q 2881 1984 2565 2268 
Q 2250 2553 1709 2553 
Q 1456 2553 1204 2497 
Q 953 2441 691 2322 
L 691 4666 
z
" transform="scale(0.015625)"/>
       </defs>
       <use xlink:href="#DejaVuSans-35"/>
       <use xlink:href="#DejaVuSans-30" x="63.623047"/>
       <use xlink:href="#DejaVuSans-30" x="127.246094"/>
      </g>
     </g>
    </g>
   </g>
   <g id="matplotlib.axis_2">
    <g id="ytick_1">
     <g id="line2d_7">
      <defs>
       <path id="mda48be7080" d="M 0 0 
L -3.5 0 
" style="stroke: #000000; stroke-width: 0.8"/>
      </defs>
      <g>
       <use xlink:href="#mda48be7080" x="90" y="240.137677" style="stroke: #000000; stroke-width: 0.8"/>
      </g>
     </g>
     <g id="text_7">
      <!-- −1.5 -->
      <g transform="translate(58.717187 243.936895) scale(0.1 -0.1)">
       <defs>
        <path id="DejaVuSans-2212" d="M 678 2272 
L 4684 2272 
L 4684 1741 
L 678 1741 
L 678 2272 
z
" transform="scale(0.015625)"/>
        <path id="DejaVuSans-2e" d="M 684 794 
L 1344 794 
L 1344 0 
L 684 0 
L 684 794 
z
" transform="scale(0.015625)"/>
       </defs>
       <use xlink:href="#DejaVuSans-2212"/>
       <use xlink:href="#DejaVuSans-31" x="83.789062"/>
       <use xlink:href="#DejaVuSans-2e" x="147.412109"/>
       <use xlink:href="#DejaVuSans-35" x="179.199219"/>
      </g>
     </g>
    </g>
    <g id="ytick_2">
     <g id="line2d_8">
      <g>
       <use xlink:href="#mda48be7080" x="90" y="206.409457" style="stroke: #000000; stroke-width: 0.8"/>
      </g>
     </g>
     <g id="text_8">
      <!-- −1.0 -->
      <g transform="translate(58.717187 210.208676) scale(0.1 -0.1)">
       <use xlink:href="#DejaVuSans-2212"/>
       <use xlink:href="#DejaVuSans-31" x="83.789062"/>
       <use xlink:href="#DejaVuSans-2e" x="147.412109"/>
       <use xlink:href="#DejaVuSans-30" x="179.199219"/>
      </g>
     </g>
    </g>
    <g id="ytick_3">
     <g id="line2d_9">
      <g>
       <use xlink:href="#mda48be7080" x="90" y="172.681237" style="stroke: #000000; stroke-width: 0.8"/>
      </g>
     </g>
     <g id="text_9">
      <!-- −0.5 -->
      <g transform="translate(58.717187 176.480456) scale(0.1 -0.1)">
       <use xlink:href="#DejaVuSans-2212"/>
       <use xlink:href="#DejaVuSans-30" x="83.789062"/>
       <use xlink:href="#DejaVuSans-2e" x="147.412109"/>
       <use xlink:href="#DejaVuSans-35" x="179.199219"/>
      </g>
     </g>
    </g>
    <g id="ytick_4">
     <g id="line2d_10">
      <g>
       <use xlink:href="#mda48be7080" x="90" y="138.953017" style="stroke: #000000; stroke-width: 0.8"/>
      </g>
     </g>
     <g id="text_10">
      <!-- 0.0 -->
      <g transform="translate(67.096875 142.752236) scale(0.1 -0.1)">
       <use xlink:href="#DejaVuSans-30"/>
       <use xlink:href="#DejaVuSans-2e" x="63.623047"/>
       <use xlink:href="#DejaVuSans-30" x="95.410156"/>
      </g>
     </g>
    </g>
    <g id="ytick_5">
     <g id="line2d_11">
      <g>
       <use xlink:href="#mda48be7080" x="90" y="105.224798" style="stroke: #000000; stroke-width: 0.8"/>
      </g>
     </g>
     <g id="text_11">
      <!-- 0.5 -->
      <g transform="translate(67.096875 109.024017) scale(0.1 -0.1)">
       <use xlink:href="#DejaVuSans-30"/>
       <use xlink:href="#DejaVuSans-2e" x="63.623047"/>
       <use xlink:href="#DejaVuSans-35" x="95.410156"/>
      </g>
     </g>
    </g>
    <g id="ytick_6">
     <g id="line2d_12">
      <g>
       <use xlink:href="#mda48be7080" x="90" y="71.496578" style="stroke: #000000; stroke-width: 0.8"/>
      </g>
     </g>
     <g id="text_12">
      <!-- 1.0 -->
      <g transform="translate(67.096875 75.295797) scale(0.1 -0.1)">
       <use xlink:href="#DejaVuSans-31"/>
       <use xlink:href="#DejaVuSans-2e" x="63.623047"/>
       <use xlink:href="#DejaVuSans-30" x="95.410156"/>
      </g>
     </g>
    </g>
    <g id="ytick_7">
     <g id="line2d_13">
      <g>
       <use xlink:href="#mda48be7080" x="90" y="37.768358" style="stroke: #000000; stroke-width: 0.8"/>
      </g>
     </g>
     <g id="text_13">
      <!-- 1.5 -->
      <g transform="translate(67.096875 41.567577) scale(0.1 -0.1)">
       <use xlink:href="#DejaVuSans-31"/>
       <use xlink:href="#DejaVuSans-2e" x="63.623047"/>
       <use xlink:href="#DejaVuSans-35" x="95.410156"/>
      </g>
     </g>
    </g>
    <g id="text_14">
     <!-- 1e−5 -->
     <g transform="translate(90 31.56) scale(0.1 -0.1)">
      <defs>
       <path id="DejaVuSans-65" d="M 3597 1894 
L 3597 1613 
L 953 1613 
Q 991 1019 1311 708 
Q 1631 397 2203 397 
Q 2534 397 2845 478 
Q 3156 559 3463 722 
L 3463 178 
Q 3153 47 2828 -22 
Q 2503 -91 2169 -91 
Q 1331 -91 842 396 
Q 353 884 353 1716 
Q 353 2575 817 3079 
Q 1281 3584 2069 3584 
Q 2775 3584 3186 3129 
Q 3597 2675 3597 1894 
z
M 3022 2063 
Q 3016 2534 2758 2815 
Q 2500 3097 2075 3097 
Q 1594 3097 1305 2825 
Q 1016 2553 972 2059 
L 3022 2063 
z
" transform="scale(0.015625)"/>
      </defs>
      <use xlink:href="#DejaVuSans-31"/>
      <use xlink:href="#DejaVuSans-65" x="63.623047"/>
      <use xlink:href="#DejaVuSans-2212" x="125.146484"/>
      <use xlink:href="#DejaVuSans-35" x="208.935547"/>
     </g>
    </g>
   </g>
   <g id="line2d_14">
    <path d="M 115.363636 160.964336 
L 116.356342 98.996575 
L 117.349048 157.509039 
L 118.341754 163.566805 
L 119.33446 102.966614 
L 120.327166 155.252285 
L 121.319872 152.087535 
L 122.312578 117.342989 
L 123.305284 148.486148 
L 124.29799 141.098295 
L 125.290696 114.753514 
L 126.283402 160.992722 
L 127.276107 132.041082 
L 128.268813 115.474126 
L 129.261519 173.560455 
L 130.254225 124.837736 
L 131.246931 124.267562 
L 132.239637 178.711451 
L 133.232343 103.862476 
L 134.225049 136.292014 
L 135.217755 185.831897 
L 136.210461 95.199652 
L 137.203167 129.772629 
L 138.195873 196.573514 
L 139.188579 93.265334 
L 140.181284 125.760697 
L 141.17399 200.438386 
L 142.166696 84.166244 
L 143.159402 127.05561 
L 144.152108 201.690326 
L 145.144814 79.839974 
L 146.13752 134.611835 
L 147.130226 206.664213 
L 148.122932 66.419844 
L 149.115638 137.66302 
L 150.108344 226.79686 
L 151.10105 52.712425 
L 152.093756 127.710678 
L 153.086461 246.24 
L 154.079167 46.829509 
L 155.071873 128.016411 
L 156.064579 244.533386 
L 157.057285 44.64 
L 159.042697 232.177824 
L 160.035403 54.981061 
L 161.028109 140.602607 
L 162.020815 214.437758 
L 163.013521 66.164147 
L 164.006227 143.059719 
L 164.998933 196.85379 
L 165.991638 82.276342 
L 167.97705 190.196254 
L 168.969756 92.662499 
L 170.955168 184.37577 
L 171.947874 100.221608 
L 172.94058 129.5782 
L 173.933286 181.283759 
L 174.925992 111.760602 
L 175.918698 124.113248 
L 176.911404 175.950838 
L 177.90411 119.581239 
L 178.896816 125.817604 
L 179.889521 165.68975 
L 180.882227 130.049538 
L 181.874933 126.282782 
L 182.867639 150.958251 
L 183.860345 141.729495 
L 184.853051 129.739522 
L 185.845757 137.867163 
L 186.838463 149.898302 
L 187.831169 131.465174 
L 188.823875 131.396163 
L 189.816581 154.458415 
L 190.809287 131.612328 
L 191.801993 130.804122 
L 192.794698 153.958445 
L 193.787404 131.135638 
L 194.78011 135.710594 
L 195.772816 148.321961 
L 196.765522 132.850004 
L 197.758228 139.101089 
L 198.750934 142.259902 
L 199.74364 135.392632 
L 200.736346 139.335334 
L 201.729052 142.146532 
L 202.721758 134.89111 
L 203.714464 137.152103 
L 204.70717 148.480732 
L 205.699875 129.61272 
L 206.692581 137.466099 
L 207.685287 150.248129 
L 208.677993 132.500973 
L 209.670699 132.772532 
L 210.663405 152.819862 
L 211.656111 133.054333 
L 212.648817 127.335536 
L 213.641523 157.183948 
L 214.634229 136.532292 
L 215.626935 120.546653 
L 216.619641 158.346012 
L 217.612347 141.464758 
L 218.605052 118.590058 
L 219.597758 152.803463 
L 220.590464 145.32957 
L 221.58317 123.043406 
L 222.575876 141.895308 
L 223.568582 150.867445 
L 224.561288 127.881004 
L 225.553994 139.251479 
L 226.5467 146.036707 
L 227.539406 133.282792 
L 228.532112 138.80993 
L 229.524818 143.067799 
L 231.510229 132.404998 
L 232.502935 147.677608 
L 233.495641 140.193296 
L 234.488347 124.955405 
L 235.481053 153.975673 
L 237.466465 121.569576 
L 238.459171 156.64385 
L 239.451877 138.149645 
L 240.444583 122.315423 
L 241.437289 159.01579 
L 242.429995 136.926463 
L 243.422701 120.763866 
L 244.415407 158.588599 
L 245.408112 141.142468 
L 246.400818 114.835407 
L 247.393524 157.248052 
L 248.38623 144.589059 
L 249.378936 115.473973 
L 250.371642 155.953905 
L 251.364348 137.858896 
L 252.357054 130.274162 
L 253.34976 152.063865 
L 254.342466 123.885991 
L 255.335172 144.085923 
L 256.327878 157.419446 
L 257.320584 108.294171 
L 258.313289 150.953145 
L 259.305995 156.718228 
L 260.298701 111.251787 
L 261.291407 150.969567 
L 262.284113 153.392958 
L 263.276819 111.342089 
L 264.269525 155.910865 
L 265.262231 149.775337 
L 266.254937 103.699946 
L 267.247643 169.725175 
L 268.240349 140.17613 
L 269.233055 103.580264 
L 270.225761 178.64849 
L 271.218466 133.835298 
L 272.211172 102.371396 
L 273.203878 183.085764 
L 274.196584 129.60115 
L 275.18929 106.042558 
L 276.181996 182.503212 
L 277.174702 121.686397 
L 278.167408 120.514447 
L 279.160114 175.384781 
L 280.15282 109.540914 
L 281.145526 143.337036 
L 282.138232 161.640242 
L 283.130938 108.949647 
L 284.123643 152.674398 
L 285.116349 149.126867 
L 286.109055 119.960204 
L 287.101761 148.519026 
L 288.094467 140.716771 
L 289.087173 131.143831 
L 290.079879 149.109046 
L 291.072585 132.56384 
L 292.065291 135.295673 
L 293.057997 150.744908 
L 294.050703 130.857606 
L 295.043409 134.197828 
L 296.036115 149.784644 
L 297.02882 136.944125 
L 298.021526 127.07875 
L 299.014232 151.183651 
L 300.006938 143.251396 
L 300.999644 121.917974 
L 301.99235 152.016556 
L 303.977762 128.994794 
L 304.970468 150.279045 
L 305.963174 126.520906 
L 306.95588 148.500355 
L 307.948586 140.515936 
L 308.941292 124.100843 
L 309.933998 154.158786 
L 310.926703 137.197309 
L 311.919409 126.507042 
L 312.912115 150.824725 
L 314.897527 129.530388 
L 315.890233 144.616115 
L 316.882939 144.517741 
L 317.875645 130.08426 
L 318.868351 138.769615 
L 319.861057 146.463105 
L 320.853763 131.92982 
L 321.846469 140.49423 
L 322.839175 143.915857 
L 323.83188 132.642904 
L 324.824586 142.671307 
L 325.817292 141.024882 
L 326.809998 130.918047 
L 327.802704 146.848772 
L 328.79541 133.893144 
L 330.780822 145.562712 
L 331.773528 124.756508 
L 332.766234 153.108458 
L 333.75894 136.493912 
L 334.751646 125.224292 
L 335.744352 163.333128 
L 336.737057 118.436604 
L 337.729763 134.166418 
L 338.722469 176.300807 
L 339.715175 96.568153 
L 341.700587 188.461137 
L 342.693293 84.44108 
L 343.685999 141.922941 
L 344.678705 190.764174 
L 345.671411 86.634565 
L 346.664117 140.045229 
L 347.656823 184.212443 
L 348.649529 97.365093 
L 349.642234 139.673315 
L 350.63494 171.464095 
L 351.627646 106.56687 
L 352.620352 142.80755 
L 353.613058 163.585697 
L 354.605764 110.682767 
L 355.59847 144.604795 
L 356.591176 162.227986 
L 357.583882 110.984431 
L 358.576588 148.237089 
L 359.569294 158.085428 
L 360.562 110.836384 
L 361.554706 150.916051 
L 362.547411 154.213109 
L 363.540117 110.272794 
L 364.532823 155.844712 
L 365.525529 146.834693 
L 366.518235 108.957745 
L 367.510941 165.700511 
L 368.503647 141.633477 
L 369.496353 105.579708 
L 370.489059 171.13489 
L 371.481765 137.285293 
L 372.474471 116.045773 
L 373.467177 158.465331 
L 374.459883 136.978285 
L 375.452589 130.387141 
L 376.445294 144.590266 
L 377.438 137.457408 
L 378.430706 144.077491 
L 379.423412 131.285047 
L 380.416118 137.710718 
L 381.408824 152.5135 
L 382.40153 123.887941 
L 383.394236 140.283107 
L 384.386942 151.567818 
L 385.379648 125.916834 
L 386.372354 139.446716 
L 387.36506 149.068192 
L 388.357766 133.237834 
L 389.350471 131.768986 
L 390.343177 148.755956 
L 391.335883 137.106628 
L 392.328589 135.006619 
L 393.321295 147.180703 
L 394.314001 127.220507 
L 395.306707 145.367143 
L 396.299413 149.204313 
L 397.292119 120.283425 
L 398.284825 145.024551 
L 399.277531 150.577919 
L 400.270237 122.899998 
L 401.262943 145.706662 
L 402.255648 145.065368 
L 403.248354 127.2936 
L 404.24106 145.427328 
L 405.233766 145.463907 
L 406.226472 123.949987 
L 407.219178 148.154545 
L 408.211884 145.238386 
L 409.20459 119.90064 
L 410.197296 150.51762 
L 411.190002 150.52122 
L 412.182708 110.011899 
L 413.175414 157.786283 
L 414.16812 149.293431 
L 415.160825 105.638783 
L 416.153531 167.886727 
L 417.146237 141.526442 
L 418.138943 105.575526 
L 419.131649 175.125592 
L 420.124355 135.935011 
L 421.117061 103.42672 
L 422.109767 179.703039 
L 423.102473 135.176702 
L 424.095179 101.05329 
L 425.087885 179.062516 
L 426.080591 137.073217 
L 427.073297 106.049253 
L 428.066002 169.865881 
L 429.058708 137.164675 
L 430.051414 114.748942 
L 431.04412 163.579116 
L 432.036826 136.707672 
L 433.029532 116.785393 
L 434.022238 163.658568 
L 435.014944 137.068126 
L 436.00765 114.08533 
L 437.000356 168.656831 
L 437.993062 132.241726 
L 438.985768 112.817569 
L 439.978474 172.842312 
L 440.97118 133.677466 
L 441.963885 108.556154 
L 442.956591 177.153064 
L 443.949297 127.790976 
L 444.942003 112.085924 
L 445.934709 179.528734 
L 446.927415 125.24063 
L 447.920121 111.855985 
L 448.912827 179.308296 
L 449.905533 126.351858 
L 450.898239 114.310423 
L 451.890945 175.340042 
L 452.883651 118.103969 
L 453.876357 128.153857 
L 454.869062 172.805475 
L 455.861768 114.010017 
L 456.854474 129.408854 
L 457.84718 178.011249 
L 458.839886 105.268791 
L 459.832592 133.226501 
L 460.825298 179.426432 
L 461.818004 102.511888 
L 463.803416 173.169948 
L 464.796122 105.658091 
L 465.788828 142.13572 
L 466.781534 166.921275 
L 467.774239 106.661231 
L 468.766945 148.499154 
L 469.759651 155.824927 
L 470.752357 117.727825 
L 471.745063 148.747743 
L 472.737769 141.168938 
L 473.730475 124.06196 
L 474.723181 156.692921 
L 475.715887 133.791142 
L 476.708593 120.012898 
L 477.701299 162.586705 
L 478.694005 141.013983 
L 479.686711 114.224657 
L 480.679416 157.479627 
L 481.672122 149.046814 
L 482.664828 110.256334 
L 483.657534 154.148992 
L 484.65024 153.170589 
L 485.642946 111.095282 
L 486.635652 150.796042 
L 487.628358 153.806076 
L 488.621064 118.795015 
L 489.61377 144.58683 
L 490.606476 146.317763 
L 491.599182 131.686128 
L 492.591888 136.188533 
L 493.584593 146.750667 
L 494.577299 136.049568 
L 495.570005 136.715755 
L 496.562711 142.048755 
L 497.555417 136.495726 
L 498.548123 144.127807 
L 499.540829 133.813617 
L 500.533535 138.598299 
L 501.526241 145.099451 
L 502.518947 132.700647 
L 503.511653 139.940167 
L 504.504359 142.284696 
L 505.497065 136.520978 
L 506.489771 135.400753 
L 507.482476 144.972245 
L 508.475182 141.141709 
L 509.467888 122.975232 
L 510.460594 158.547629 
L 511.4533 137.223117 
L 512.446006 112.125478 
L 513.438712 174.180031 
L 514.431418 128.852897 
L 515.424124 110.995921 
L 516.41683 180.159332 
L 517.409536 123.246992 
L 518.402242 118.376299 
L 519.394948 171.322185 
L 520.387653 127.57069 
L 521.380359 126.57134 
L 522.373065 157.745758 
L 523.365771 127.750748 
L 524.358477 139.713116 
L 525.351183 148.056228 
L 526.343889 123.596649 
L 527.336595 151.169637 
L 528.329301 137.919739 
L 529.322007 128.462517 
L 530.314713 154.780223 
L 531.307419 128.18133 
L 532.300125 132.259528 
L 533.29283 156.477272 
L 534.285536 128.484531 
L 535.278242 131.931977 
L 536.270948 151.990561 
L 537.263654 137.519001 
L 538.25636 130.910303 
L 539.249066 144.629145 
L 540.241772 144.145841 
L 541.234478 130.679144 
L 542.227184 137.485049 
L 543.21989 147.8626 
L 544.212596 136.075863 
L 545.205302 126.992935 
L 546.198007 151.895369 
L 547.190713 145.48365 
L 548.183419 116.47942 
L 549.176125 149.841243 
L 550.168831 153.195228 
L 551.161537 120.168344 
L 552.154243 138.253486 
L 553.146949 154.196911 
L 554.139655 135.829561 
L 555.132361 124.198472 
L 556.125067 153.521711 
L 557.117773 144.76872 
L 558.110479 120.98249 
L 559.103184 147.530681 
L 560.09589 152.201243 
L 561.088596 119.228501 
L 562.081302 144.334074 
L 563.074008 152.564053 
L 564.066714 120.893198 
L 565.05942 138.976561 
L 566.052126 151.755281 
L 567.044832 130.708404 
L 569.030244 144.087155 
L 570.02295 133.356062 
L 571.015656 144.780071 
L 572.008362 139.392802 
L 573.001067 128.050727 
L 573.993773 148.213595 
L 574.986479 141.94844 
L 575.979185 126.039127 
L 576.971891 151.108332 
L 577.964597 145.008322 
L 578.957303 109.745123 
L 579.950009 157.402337 
L 580.942715 155.419873 
L 581.935421 105.424068 
L 582.928127 149.270277 
L 583.920833 163.903446 
L 584.913539 109.619269 
L 585.906244 138.074173 
L 586.89895 177.968344 
L 587.891656 107.583111 
L 588.884362 118.640558 
L 589.877068 192.025008 
L 590.869774 123.529297 
L 591.86248 94.703098 
L 592.855186 183.257122 
L 593.847892 152.052978 
L 594.840598 74.963612 
L 595.833304 188.409544 
L 596.82601 147.043183 
L 597.818716 85.366235 
L 598.811421 187.514389 
L 599.804127 139.559311 
L 600.796833 102.541216 
L 601.789539 168.084607 
L 602.782245 151.245726 
L 603.774951 103.055575 
L 604.767657 161.269591 
L 605.760363 140.82224 
L 606.753069 117.315444 
L 607.745775 158.323535 
L 608.738481 132.547636 
L 610.723893 143.211513 
L 611.716598 129.345698 
L 612.709304 148.662304 
L 613.70201 140.28761 
L 614.694716 126.092299 
L 615.687422 142.963384 
L 616.680128 144.163594 
L 617.672834 133.905584 
L 618.66554 142.416486 
L 619.658246 139.290686 
L 620.650952 138.514979 
L 621.643658 138.993901 
L 622.636364 139.264486 
L 622.636364 139.264486 
" clip-path="url(#p48321b276c)" style="fill: none; stroke: #1f77b4; stroke-width: 1.5; stroke-linecap: square"/>
   </g>
   <g id="patch_3">
    <path d="M 90 256.32 
L 90 34.56 
" style="fill: none; stroke: #000000; stroke-width: 0.8; stroke-linejoin: miter; stroke-linecap: square"/>
   </g>
   <g id="patch_4">
    <path d="M 648 256.32 
L 648 34.56 
" style="fill: none; stroke: #000000; stroke-width: 0.8; stroke-linejoin: miter; stroke-linecap: square"/>
   </g>
   <g id="patch_5">
    <path d="M 90 256.32 
L 648 256.32 
" style="fill: none; stroke: #000000; stroke-width: 0.8; stroke-linejoin: miter; stroke-linecap: square"/>
   </g>
   <g id="patch_6">
    <path d="M 90 34.56 
L 648 34.56 
" style="fill: none; stroke: #000000; stroke-width: 0.8; stroke-linejoin: miter; stroke-linecap: square"/>
   </g>
   <g id="text_15">
    <!-- K is now at 3 -->
    <g transform="translate(330.418125 28.56) scale(0.12 -0.12)">
     <defs>
      <path id="DejaVuSans-4b" d="M 628 4666 
L 1259 4666 
L 1259 2694 
L 3353 4666 
L 4166 4666 
L 1850 2491 
L 4331 0 
L 3500 0 
L 1259 2247 
L 1259 0 
L 628 0 
L 628 4666 
z
" transform="scale(0.015625)"/>
      <path id="DejaVuSans-20" transform="scale(0.015625)"/>
      <path id="DejaVuSans-69" d="M 603 3500 
L 1178 3500 
L 1178 0 
L 603 0 
L 603 3500 
z
M 603 4863 
L 1178 4863 
L 1178 4134 
L 603 4134 
L 603 4863 
z
" transform="scale(0.015625)"/>
      <path id="DejaVuSans-73" d="M 2834 3397 
L 2834 2853 
Q 2591 2978 2328 3040 
Q 2066 3103 1784 3103 
Q 1356 3103 1142 2972 
Q 928 2841 928 2578 
Q 928 2378 1081 2264 
Q 1234 2150 1697 2047 
L 1894 2003 
Q 2506 1872 2764 1633 
Q 3022 1394 3022 966 
Q 3022 478 2636 193 
Q 2250 -91 1575 -91 
Q 1294 -91 989 -36 
Q 684 19 347 128 
L 347 722 
Q 666 556 975 473 
Q 1284 391 1588 391 
Q 1994 391 2212 530 
Q 2431 669 2431 922 
Q 2431 1156 2273 1281 
Q 2116 1406 1581 1522 
L 1381 1569 
Q 847 1681 609 1914 
Q 372 2147 372 2553 
Q 372 3047 722 3315 
Q 1072 3584 1716 3584 
Q 2034 3584 2315 3537 
Q 2597 3491 2834 3397 
z
" transform="scale(0.015625)"/>
      <path id="DejaVuSans-6e" d="M 3513 2113 
L 3513 0 
L 2938 0 
L 2938 2094 
Q 2938 2591 2744 2837 
Q 2550 3084 2163 3084 
Q 1697 3084 1428 2787 
Q 1159 2491 1159 1978 
L 1159 0 
L 581 0 
L 581 3500 
L 1159 3500 
L 1159 2956 
Q 1366 3272 1645 3428 
Q 1925 3584 2291 3584 
Q 2894 3584 3203 3211 
Q 3513 2838 3513 2113 
z
" transform="scale(0.015625)"/>
      <path id="DejaVuSans-6f" d="M 1959 3097 
Q 1497 3097 1228 2736 
Q 959 2375 959 1747 
Q 959 1119 1226 758 
Q 1494 397 1959 397 
Q 2419 397 2687 759 
Q 2956 1122 2956 1747 
Q 2956 2369 2687 2733 
Q 2419 3097 1959 3097 
z
M 1959 3584 
Q 2709 3584 3137 3096 
Q 3566 2609 3566 1747 
Q 3566 888 3137 398 
Q 2709 -91 1959 -91 
Q 1206 -91 779 398 
Q 353 888 353 1747 
Q 353 2609 779 3096 
Q 1206 3584 1959 3584 
z
" transform="scale(0.015625)"/>
      <path id="DejaVuSans-77" d="M 269 3500 
L 844 3500 
L 1563 769 
L 2278 3500 
L 2956 3500 
L 3675 769 
L 4391 3500 
L 4966 3500 
L 4050 0 
L 3372 0 
L 2619 2869 
L 1863 0 
L 1184 0 
L 269 3500 
z
" transform="scale(0.015625)"/>
      <path id="DejaVuSans-61" d="M 2194 1759 
Q 1497 1759 1228 1600 
Q 959 1441 959 1056 
Q 959 750 1161 570 
Q 1363 391 1709 391 
Q 2188 391 2477 730 
Q 2766 1069 2766 1631 
L 2766 1759 
L 2194 1759 
z
M 3341 1997 
L 3341 0 
L 2766 0 
L 2766 531 
Q 2569 213 2275 61 
Q 1981 -91 1556 -91 
Q 1019 -91 701 211 
Q 384 513 384 1019 
Q 384 1609 779 1909 
Q 1175 2209 1959 2209 
L 2766 2209 
L 2766 2266 
Q 2766 2663 2505 2880 
Q 2244 3097 1772 3097 
Q 1472 3097 1187 3025 
Q 903 2953 641 2809 
L 641 3341 
Q 956 3463 1253 3523 
Q 1550 3584 1831 3584 
Q 2591 3584 2966 3190 
Q 3341 2797 3341 1997 
z
" transform="scale(0.015625)"/>
      <path id="DejaVuSans-74" d="M 1172 4494 
L 1172 3500 
L 2356 3500 
L 2356 3053 
L 1172 3053 
L 1172 1153 
Q 1172 725 1289 603 
Q 1406 481 1766 481 
L 2356 481 
L 2356 0 
L 1766 0 
Q 1100 0 847 248 
Q 594 497 594 1153 
L 594 3053 
L 172 3053 
L 172 3500 
L 594 3500 
L 594 4494 
L 1172 4494 
z
" transform="scale(0.015625)"/>
     </defs>
     <use xlink:href="#DejaVuSans-4b"/>
     <use xlink:href="#DejaVuSans-20" x="65.576172"/>
     <use xlink:href="#DejaVuSans-69" x="97.363281"/>
     <use xlink:href="#DejaVuSans-73" x="125.146484"/>
     <use xlink:href="#DejaVuSans-20" x="177.246094"/>
     <use xlink:href="#DejaVuSans-6e" x="209.033203"/>
     <use xlink:href="#DejaVuSans-6f" x="272.412109"/>
     <use xlink:href="#DejaVuSans-77" x="333.59375"/>
     <use xlink:href="#DejaVuSans-20" x="415.380859"/>
     <use xlink:href="#DejaVuSans-61" x="447.167969"/>
     <use xlink:href="#DejaVuSans-74" x="508.447266"/>
     <use xlink:href="#DejaVuSans-20" x="547.65625"/>
     <use xlink:href="#DejaVuSans-33" x="579.443359"/>
    </g>
   </g>
  </g>
 </g>
 <defs>
  <clipPath id="p48321b276c">
   <rect x="90" y="34.56" width="558" height="221.76"/>
  </clipPath>
 </defs>
</svg>
