<?xml version="1.0" encoding="utf-8" standalone="no"?>
<!DOCTYPE svg PUBLIC "-//W3C//DTD SVG 1.1//EN"
  "http://www.w3.org/Graphics/SVG/1.1/DTD/svg11.dtd">
<svg xmlns:xlink="http://www.w3.org/1999/xlink" width="720pt" height="288pt" viewBox="0 0 720 288" xmlns="http://www.w3.org/2000/svg" version="1.1">
 <metadata>
  <rdf:RDF xmlns:dc="http://purl.org/dc/elements/1.1/" xmlns:cc="http://creativecommons.org/ns#" xmlns:rdf="http://www.w3.org/1999/02/22-rdf-syntax-ns#">
   <cc:Work>
    <dc:type rdf:resource="http://purl.org/dc/dcmitype/StillImage"/>
    <dc:date>2023-11-20T08:43:12.076826</dc:date>
    <dc:format>image/svg+xml</dc:format>
    <dc:creator>
     <cc:Agent>
      <dc:title>Matplotlib v3.6.2, https://matplotlib.org/</dc:title>
     </cc:Agent>
    </dc:creator>
   </cc:Work>
  </rdf:RDF>
 </metadata>
 <defs>
  <style type="text/css">*{stroke-linejoin: round; stroke-linecap: butt}</style>
 </defs>
 <g id="figure_1">
  <g id="patch_1">
   <path d="M 0 288 
L 720 288 
L 720 0 
L 0 0 
z
" style="fill: #ffffff"/>
  </g>
  <g id="axes_1">
   <g id="patch_2">
    <path d="M 90 256.32 
L 648 256.32 
L 648 34.56 
L 90 34.56 
z
" style="fill: #ffffff"/>
   </g>
   <g id="matplotlib.axis_1">
    <g id="xtick_1">
     <g id="line2d_1">
      <defs>
       <path id="m70a72bb89d" d="M 0 0 
L 0 3.5 
" style="stroke: #000000; stroke-width: 0.8"/>
      </defs>
      <g>
       <use xlink:href="#m70a72bb89d" x="115.363636" y="256.32" style="stroke: #000000; stroke-width: 0.8"/>
      </g>
     </g>
     <g id="text_1">
      <!-- 0 -->
      <g transform="translate(112.182386 270.918437) scale(0.1 -0.1)">
       <defs>
        <path id="DejaVuSans-30" d="M 2034 4250 
Q 1547 4250 1301 3770 
Q 1056 3291 1056 2328 
Q 1056 1369 1301 889 
Q 1547 409 2034 409 
Q 2525 409 2770 889 
Q 3016 1369 3016 2328 
Q 3016 3291 2770 3770 
Q 2525 4250 2034 4250 
z
M 2034 4750 
Q 2819 4750 3233 4129 
Q 3647 3509 3647 2328 
Q 3647 1150 3233 529 
Q 2819 -91 2034 -91 
Q 1250 -91 836 529 
Q 422 1150 422 2328 
Q 422 3509 836 4129 
Q 1250 4750 2034 4750 
z
" transform="scale(0.015625)"/>
       </defs>
       <use xlink:href="#DejaVuSans-30"/>
      </g>
     </g>
    </g>
    <g id="xtick_2">
     <g id="line2d_2">
      <g>
       <use xlink:href="#m70a72bb89d" x="214.634229" y="256.32" style="stroke: #000000; stroke-width: 0.8"/>
      </g>
     </g>
     <g id="text_2">
      <!-- 100 -->
      <g transform="translate(205.090479 270.918437) scale(0.1 -0.1)">
       <defs>
        <path id="DejaVuSans-31" d="M 794 531 
L 1825 531 
L 1825 4091 
L 703 3866 
L 703 4441 
L 1819 4666 
L 2450 4666 
L 2450 531 
L 3481 531 
L 3481 0 
L 794 0 
L 794 531 
z
" transform="scale(0.015625)"/>
       </defs>
       <use xlink:href="#DejaVuSans-31"/>
       <use xlink:href="#DejaVuSans-30" x="63.623047"/>
       <use xlink:href="#DejaVuSans-30" x="127.246094"/>
      </g>
     </g>
    </g>
    <g id="xtick_3">
     <g id="line2d_3">
      <g>
       <use xlink:href="#m70a72bb89d" x="313.904821" y="256.32" style="stroke: #000000; stroke-width: 0.8"/>
      </g>
     </g>
     <g id="text_3">
      <!-- 200 -->
      <g transform="translate(304.361071 270.918437) scale(0.1 -0.1)">
       <defs>
        <path id="DejaVuSans-32" d="M 1228 531 
L 3431 531 
L 3431 0 
L 469 0 
L 469 531 
Q 828 903 1448 1529 
Q 2069 2156 2228 2338 
Q 2531 2678 2651 2914 
Q 2772 3150 2772 3378 
Q 2772 3750 2511 3984 
Q 2250 4219 1831 4219 
Q 1534 4219 1204 4116 
Q 875 4013 500 3803 
L 500 4441 
Q 881 4594 1212 4672 
Q 1544 4750 1819 4750 
Q 2544 4750 2975 4387 
Q 3406 4025 3406 3419 
Q 3406 3131 3298 2873 
Q 3191 2616 2906 2266 
Q 2828 2175 2409 1742 
Q 1991 1309 1228 531 
z
" transform="scale(0.015625)"/>
       </defs>
       <use xlink:href="#DejaVuSans-32"/>
       <use xlink:href="#DejaVuSans-30" x="63.623047"/>
       <use xlink:href="#DejaVuSans-30" x="127.246094"/>
      </g>
     </g>
    </g>
    <g id="xtick_4">
     <g id="line2d_4">
      <g>
       <use xlink:href="#m70a72bb89d" x="413.175414" y="256.32" style="stroke: #000000; stroke-width: 0.8"/>
      </g>
     </g>
     <g id="text_4">
      <!-- 300 -->
      <g transform="translate(403.631664 270.918437) scale(0.1 -0.1)">
       <defs>
        <path id="DejaVuSans-33" d="M 2597 2516 
Q 3050 2419 3304 2112 
Q 3559 1806 3559 1356 
Q 3559 666 3084 287 
Q 2609 -91 1734 -91 
Q 1441 -91 1130 -33 
Q 819 25 488 141 
L 488 750 
Q 750 597 1062 519 
Q 1375 441 1716 441 
Q 2309 441 2620 675 
Q 2931 909 2931 1356 
Q 2931 1769 2642 2001 
Q 2353 2234 1838 2234 
L 1294 2234 
L 1294 2753 
L 1863 2753 
Q 2328 2753 2575 2939 
Q 2822 3125 2822 3475 
Q 2822 3834 2567 4026 
Q 2313 4219 1838 4219 
Q 1578 4219 1281 4162 
Q 984 4106 628 3988 
L 628 4550 
Q 988 4650 1302 4700 
Q 1616 4750 1894 4750 
Q 2613 4750 3031 4423 
Q 3450 4097 3450 3541 
Q 3450 3153 3228 2886 
Q 3006 2619 2597 2516 
z
" transform="scale(0.015625)"/>
       </defs>
       <use xlink:href="#DejaVuSans-33"/>
       <use xlink:href="#DejaVuSans-30" x="63.623047"/>
       <use xlink:href="#DejaVuSans-30" x="127.246094"/>
      </g>
     </g>
    </g>
    <g id="xtick_5">
     <g id="line2d_5">
      <g>
       <use xlink:href="#m70a72bb89d" x="512.446006" y="256.32" style="stroke: #000000; stroke-width: 0.8"/>
      </g>
     </g>
     <g id="text_5">
      <!-- 400 -->
      <g transform="translate(502.902256 270.918437) scale(0.1 -0.1)">
       <defs>
        <path id="DejaVuSans-34" d="M 2419 4116 
L 825 1625 
L 2419 1625 
L 2419 4116 
z
M 2253 4666 
L 3047 4666 
L 3047 1625 
L 3713 1625 
L 3713 1100 
L 3047 1100 
L 3047 0 
L 2419 0 
L 2419 1100 
L 313 1100 
L 313 1709 
L 2253 4666 
z
" transform="scale(0.015625)"/>
       </defs>
       <use xlink:href="#DejaVuSans-34"/>
       <use xlink:href="#DejaVuSans-30" x="63.623047"/>
       <use xlink:href="#DejaVuSans-30" x="127.246094"/>
      </g>
     </g>
    </g>
    <g id="xtick_6">
     <g id="line2d_6">
      <g>
       <use xlink:href="#m70a72bb89d" x="611.716598" y="256.32" style="stroke: #000000; stroke-width: 0.8"/>
      </g>
     </g>
     <g id="text_6">
      <!-- 500 -->
      <g transform="translate(602.172848 270.918437) scale(0.1 -0.1)">
       <defs>
        <path id="DejaVuSans-35" d="M 691 4666 
L 3169 4666 
L 3169 4134 
L 1269 4134 
L 1269 2991 
Q 1406 3038 1543 3061 
Q 1681 3084 1819 3084 
Q 2600 3084 3056 2656 
Q 3513 2228 3513 1497 
Q 3513 744 3044 326 
Q 2575 -91 1722 -91 
Q 1428 -91 1123 -41 
Q 819 9 494 109 
L 494 744 
Q 775 591 1075 516 
Q 1375 441 1709 441 
Q 2250 441 2565 725 
Q 2881 1009 2881 1497 
Q 2881 1984 2565 2268 
Q 2250 2553 1709 2553 
Q 1456 2553 1204 2497 
Q 953 2441 691 2322 
L 691 4666 
z
" transform="scale(0.015625)"/>
       </defs>
       <use xlink:href="#DejaVuSans-35"/>
       <use xlink:href="#DejaVuSans-30" x="63.623047"/>
       <use xlink:href="#DejaVuSans-30" x="127.246094"/>
      </g>
     </g>
    </g>
   </g>
   <g id="matplotlib.axis_2">
    <g id="ytick_1">
     <g id="line2d_7">
      <defs>
       <path id="m7b42136855" d="M 0 0 
L -3.5 0 
" style="stroke: #000000; stroke-width: 0.8"/>
      </defs>
      <g>
       <use xlink:href="#m7b42136855" x="90" y="234.931916" style="stroke: #000000; stroke-width: 0.8"/>
      </g>
     </g>
     <g id="text_7">
      <!-- −0.00020 -->
      <g transform="translate(33.267187 238.731135) scale(0.1 -0.1)">
       <defs>
        <path id="DejaVuSans-2212" d="M 678 2272 
L 4684 2272 
L 4684 1741 
L 678 1741 
L 678 2272 
z
" transform="scale(0.015625)"/>
        <path id="DejaVuSans-2e" d="M 684 794 
L 1344 794 
L 1344 0 
L 684 0 
L 684 794 
z
" transform="scale(0.015625)"/>
       </defs>
       <use xlink:href="#DejaVuSans-2212"/>
       <use xlink:href="#DejaVuSans-30" x="83.789062"/>
       <use xlink:href="#DejaVuSans-2e" x="147.412109"/>
       <use xlink:href="#DejaVuSans-30" x="179.199219"/>
       <use xlink:href="#DejaVuSans-30" x="242.822266"/>
       <use xlink:href="#DejaVuSans-30" x="306.445312"/>
       <use xlink:href="#DejaVuSans-32" x="370.068359"/>
       <use xlink:href="#DejaVuSans-30" x="433.691406"/>
      </g>
     </g>
    </g>
    <g id="ytick_2">
     <g id="line2d_8">
      <g>
       <use xlink:href="#m7b42136855" x="90" y="210.005089" style="stroke: #000000; stroke-width: 0.8"/>
      </g>
     </g>
     <g id="text_8">
      <!-- −0.00015 -->
      <g transform="translate(33.267187 213.804308) scale(0.1 -0.1)">
       <use xlink:href="#DejaVuSans-2212"/>
       <use xlink:href="#DejaVuSans-30" x="83.789062"/>
       <use xlink:href="#DejaVuSans-2e" x="147.412109"/>
       <use xlink:href="#DejaVuSans-30" x="179.199219"/>
       <use xlink:href="#DejaVuSans-30" x="242.822266"/>
       <use xlink:href="#DejaVuSans-30" x="306.445312"/>
       <use xlink:href="#DejaVuSans-31" x="370.068359"/>
       <use xlink:href="#DejaVuSans-35" x="433.691406"/>
      </g>
     </g>
    </g>
    <g id="ytick_3">
     <g id="line2d_9">
      <g>
       <use xlink:href="#m7b42136855" x="90" y="185.078261" style="stroke: #000000; stroke-width: 0.8"/>
      </g>
     </g>
     <g id="text_9">
      <!-- −0.00010 -->
      <g transform="translate(33.267187 188.87748) scale(0.1 -0.1)">
       <use xlink:href="#DejaVuSans-2212"/>
       <use xlink:href="#DejaVuSans-30" x="83.789062"/>
       <use xlink:href="#DejaVuSans-2e" x="147.412109"/>
       <use xlink:href="#DejaVuSans-30" x="179.199219"/>
       <use xlink:href="#DejaVuSans-30" x="242.822266"/>
       <use xlink:href="#DejaVuSans-30" x="306.445312"/>
       <use xlink:href="#DejaVuSans-31" x="370.068359"/>
       <use xlink:href="#DejaVuSans-30" x="433.691406"/>
      </g>
     </g>
    </g>
    <g id="ytick_4">
     <g id="line2d_10">
      <g>
       <use xlink:href="#m7b42136855" x="90" y="160.151434" style="stroke: #000000; stroke-width: 0.8"/>
      </g>
     </g>
     <g id="text_10">
      <!-- −0.00005 -->
      <g transform="translate(33.267187 163.950653) scale(0.1 -0.1)">
       <use xlink:href="#DejaVuSans-2212"/>
       <use xlink:href="#DejaVuSans-30" x="83.789062"/>
       <use xlink:href="#DejaVuSans-2e" x="147.412109"/>
       <use xlink:href="#DejaVuSans-30" x="179.199219"/>
       <use xlink:href="#DejaVuSans-30" x="242.822266"/>
       <use xlink:href="#DejaVuSans-30" x="306.445312"/>
       <use xlink:href="#DejaVuSans-30" x="370.068359"/>
       <use xlink:href="#DejaVuSans-35" x="433.691406"/>
      </g>
     </g>
    </g>
    <g id="ytick_5">
     <g id="line2d_11">
      <g>
       <use xlink:href="#m7b42136855" x="90" y="135.224606" style="stroke: #000000; stroke-width: 0.8"/>
      </g>
     </g>
     <g id="text_11">
      <!-- 0.00000 -->
      <g transform="translate(41.646875 139.023825) scale(0.1 -0.1)">
       <use xlink:href="#DejaVuSans-30"/>
       <use xlink:href="#DejaVuSans-2e" x="63.623047"/>
       <use xlink:href="#DejaVuSans-30" x="95.410156"/>
       <use xlink:href="#DejaVuSans-30" x="159.033203"/>
       <use xlink:href="#DejaVuSans-30" x="222.65625"/>
       <use xlink:href="#DejaVuSans-30" x="286.279297"/>
       <use xlink:href="#DejaVuSans-30" x="349.902344"/>
      </g>
     </g>
    </g>
    <g id="ytick_6">
     <g id="line2d_12">
      <g>
       <use xlink:href="#m7b42136855" x="90" y="110.297779" style="stroke: #000000; stroke-width: 0.8"/>
      </g>
     </g>
     <g id="text_12">
      <!-- 0.00005 -->
      <g transform="translate(41.646875 114.096998) scale(0.1 -0.1)">
       <use xlink:href="#DejaVuSans-30"/>
       <use xlink:href="#DejaVuSans-2e" x="63.623047"/>
       <use xlink:href="#DejaVuSans-30" x="95.410156"/>
       <use xlink:href="#DejaVuSans-30" x="159.033203"/>
       <use xlink:href="#DejaVuSans-30" x="222.65625"/>
       <use xlink:href="#DejaVuSans-30" x="286.279297"/>
       <use xlink:href="#DejaVuSans-35" x="349.902344"/>
      </g>
     </g>
    </g>
    <g id="ytick_7">
     <g id="line2d_13">
      <g>
       <use xlink:href="#m7b42136855" x="90" y="85.370952" style="stroke: #000000; stroke-width: 0.8"/>
      </g>
     </g>
     <g id="text_13">
      <!-- 0.00010 -->
      <g transform="translate(41.646875 89.17017) scale(0.1 -0.1)">
       <use xlink:href="#DejaVuSans-30"/>
       <use xlink:href="#DejaVuSans-2e" x="63.623047"/>
       <use xlink:href="#DejaVuSans-30" x="95.410156"/>
       <use xlink:href="#DejaVuSans-30" x="159.033203"/>
       <use xlink:href="#DejaVuSans-30" x="222.65625"/>
       <use xlink:href="#DejaVuSans-31" x="286.279297"/>
       <use xlink:href="#DejaVuSans-30" x="349.902344"/>
      </g>
     </g>
    </g>
    <g id="ytick_8">
     <g id="line2d_14">
      <g>
       <use xlink:href="#m7b42136855" x="90" y="60.444124" style="stroke: #000000; stroke-width: 0.8"/>
      </g>
     </g>
     <g id="text_14">
      <!-- 0.00015 -->
      <g transform="translate(41.646875 64.243343) scale(0.1 -0.1)">
       <use xlink:href="#DejaVuSans-30"/>
       <use xlink:href="#DejaVuSans-2e" x="63.623047"/>
       <use xlink:href="#DejaVuSans-30" x="95.410156"/>
       <use xlink:href="#DejaVuSans-30" x="159.033203"/>
       <use xlink:href="#DejaVuSans-30" x="222.65625"/>
       <use xlink:href="#DejaVuSans-31" x="286.279297"/>
       <use xlink:href="#DejaVuSans-35" x="349.902344"/>
      </g>
     </g>
    </g>
    <g id="ytick_9">
     <g id="line2d_15">
      <g>
       <use xlink:href="#m7b42136855" x="90" y="35.517297" style="stroke: #000000; stroke-width: 0.8"/>
      </g>
     </g>
     <g id="text_15">
      <!-- 0.00020 -->
      <g transform="translate(41.646875 39.316515) scale(0.1 -0.1)">
       <use xlink:href="#DejaVuSans-30"/>
       <use xlink:href="#DejaVuSans-2e" x="63.623047"/>
       <use xlink:href="#DejaVuSans-30" x="95.410156"/>
       <use xlink:href="#DejaVuSans-30" x="159.033203"/>
       <use xlink:href="#DejaVuSans-30" x="222.65625"/>
       <use xlink:href="#DejaVuSans-32" x="286.279297"/>
       <use xlink:href="#DejaVuSans-30" x="349.902344"/>
      </g>
     </g>
    </g>
   </g>
   <g id="line2d_16">
    <path d="M 115.363636 92.913923 
L 116.356342 222.773243 
L 117.349048 82.885924 
L 118.341754 105.079137 
L 119.33446 216.51284 
L 120.327166 75.8464 
L 121.319872 122.525184 
L 122.312578 204.366486 
L 123.305284 72.852418 
L 125.290696 201.110208 
L 126.283402 70.447668 
L 127.276107 137.732769 
L 128.268813 186.872874 
L 129.261519 84.772229 
L 130.254225 139.953845 
L 131.246931 167.764715 
L 132.239637 105.060046 
L 133.232343 154.525881 
L 134.225049 129.085049 
L 135.217755 117.240321 
L 136.210461 180.833771 
L 137.203167 93.171448 
L 138.195873 120.719645 
L 139.188579 199.290371 
L 140.181284 80.561184 
L 141.17399 122.261955 
L 142.166696 208.417108 
L 143.159402 64.034867 
L 144.152108 132.337578 
L 145.144814 213.366105 
L 146.13752 49.917294 
L 147.130226 146.572725 
L 148.122932 199.592565 
L 149.115638 72.262155 
L 150.108344 145.616659 
L 151.10105 171.902417 
L 152.093756 92.171759 
L 153.086461 161.700017 
L 155.071873 103.929438 
L 156.064579 188.116158 
L 157.057285 103.094787 
L 158.049991 122.774517 
L 159.042697 180.620369 
L 160.035403 98.190052 
L 161.028109 140.905377 
L 162.020815 153.268812 
L 163.013521 116.02156 
L 164.006227 137.341474 
L 164.998933 155.408465 
L 165.991638 119.649952 
L 166.984344 124.568967 
L 167.97705 163.699543 
L 168.969756 122.965002 
L 169.962462 116.045963 
L 170.955168 170.702426 
L 171.947874 112.470802 
L 172.94058 129.879351 
L 173.933286 164.055937 
L 174.925992 103.010257 
L 175.918698 143.787372 
L 176.911404 163.218314 
L 177.90411 94.786341 
L 178.896816 143.690618 
L 179.889521 167.782952 
L 180.882227 106.380504 
L 181.874933 124.085493 
L 182.867639 167.264097 
L 183.860345 127.313303 
L 184.853051 115.911323 
L 185.845757 155.994921 
L 186.838463 128.814279 
L 187.831169 130.175773 
L 188.823875 143.379427 
L 189.816581 125.102656 
L 190.809287 132.67343 
L 191.801993 157.863545 
L 192.794698 107.09961 
L 193.787404 137.857982 
L 194.78011 162.584583 
L 195.772816 101.548298 
L 196.765522 145.944749 
L 197.758228 153.838823 
L 198.750934 109.336794 
L 199.74364 143.519964 
L 200.736346 149.319784 
L 201.729052 120.45667 
L 202.721758 124.230682 
L 203.714464 157.799999 
L 204.70717 134.026424 
L 205.699875 105.819702 
L 206.692581 156.056324 
L 207.685287 153.833049 
L 208.677993 101.200043 
L 209.670699 137.321342 
L 210.663405 165.076681 
L 211.656111 112.465975 
L 212.648817 119.240521 
L 213.641523 173.58704 
L 214.634229 109.068434 
L 215.626935 128.535339 
L 216.619641 169.116597 
L 217.612347 105.425404 
L 218.605052 135.472706 
L 219.597758 171.550302 
L 220.590464 96.939717 
L 221.58317 129.488581 
L 222.575876 185.736603 
L 223.568582 89.367915 
L 224.561288 125.75614 
L 225.553994 191.785031 
L 226.5467 90.522288 
L 227.539406 128.622337 
L 228.532112 180.072912 
L 229.524818 103.304141 
L 230.517524 132.194052 
L 231.510229 150.749194 
L 232.502935 140.675313 
L 233.495641 113.959422 
L 234.488347 139.09695 
L 235.481053 155.335491 
L 236.473759 120.128956 
L 237.466465 132.776968 
L 239.451877 145.487565 
L 240.444583 118.178791 
L 241.437289 142.516817 
L 242.429995 146.382858 
L 243.422701 114.491589 
L 244.415407 147.148368 
L 245.408112 144.400416 
L 246.400818 118.413762 
L 247.393524 139.661569 
L 248.38623 129.122485 
L 249.378936 146.629422 
L 250.371642 123.270501 
L 251.364348 126.34515 
L 252.357054 167.111472 
L 253.34976 100.451238 
L 254.342466 145.012426 
L 255.335172 158.935084 
L 256.327878 102.274609 
L 257.320584 149.362001 
L 258.313289 143.900573 
L 259.305995 119.542352 
L 260.298701 145.521421 
L 261.291407 135.604574 
L 262.284113 120.279019 
L 263.276819 155.165462 
L 264.269525 130.159023 
L 265.262231 117.688969 
L 266.254937 158.62379 
L 268.240349 108.860555 
L 269.233055 161.886589 
L 270.225761 134.533417 
L 271.218466 111.472733 
L 272.211172 159.019437 
L 273.203878 136.397849 
L 274.196584 109.116324 
L 275.18929 164.589355 
L 276.181996 131.955422 
L 277.174702 105.05176 
L 278.167408 169.680005 
L 279.160114 127.69686 
L 280.15282 117.100292 
L 281.145526 154.697626 
L 282.138232 138.835045 
L 283.130938 108.443639 
L 284.123643 159.625191 
L 285.116349 141.586539 
L 286.109055 92.331588 
L 287.101761 171.856838 
L 288.094467 151.018819 
L 289.087173 81.837726 
L 290.079879 171.058727 
L 291.072585 155.010881 
L 292.065291 87.723199 
L 293.057997 161.692184 
L 294.050703 146.062132 
L 295.043409 105.499188 
L 296.036115 164.070004 
L 297.02882 115.732003 
L 298.021526 130.842188 
L 299.014232 171.10161 
L 300.006938 87.673946 
L 300.999644 155.008342 
L 301.99235 162.207712 
L 302.985056 85.180977 
L 303.977762 165.076746 
L 304.970468 147.606095 
L 305.963174 89.294964 
L 306.95588 180.28719 
L 307.948586 123.922763 
L 308.941292 106.889944 
L 309.933998 175.869157 
L 310.926703 118.102146 
L 311.919409 118.127238 
L 312.912115 159.31542 
L 313.904821 130.795597 
L 314.897527 121.086468 
L 315.890233 152.447425 
L 316.882939 133.1126 
L 317.875645 118.741629 
L 318.868351 150.313639 
L 319.861057 144.390718 
L 320.853763 101.796868 
L 321.846469 156.052543 
L 322.839175 158.157826 
L 323.83188 83.067077 
L 324.824586 166.305324 
L 325.817292 161.083516 
L 326.809998 69.372199 
L 327.802704 181.921102 
L 328.79541 160.1676 
L 329.788116 62.677337 
L 330.780822 177.708886 
L 331.773528 170.097629 
L 332.766234 63.416725 
L 333.75894 168.101109 
L 334.751646 163.794328 
L 335.744352 80.845103 
L 336.737057 166.738447 
L 337.729763 153.169012 
L 338.722469 80.506746 
L 339.715175 172.9909 
L 340.707881 155.906211 
L 341.700587 80.641595 
L 342.693293 168.10491 
L 343.685999 158.340692 
L 344.678705 89.576256 
L 345.671411 150.40233 
L 346.664117 158.044131 
L 347.656823 104.865025 
L 348.649529 143.15637 
L 349.642234 143.034794 
L 350.63494 124.072356 
L 351.627646 151.046308 
L 352.620352 114.992128 
L 353.613058 153.437144 
L 355.59847 111.46772 
L 356.591176 170.31065 
L 357.583882 122.99642 
L 358.576588 107.498794 
L 359.569294 182.071911 
L 360.562 112.041293 
L 361.554706 108.078906 
L 362.547411 193.227583 
L 363.540117 107.08818 
L 364.532823 104.015407 
L 365.525529 186.911156 
L 366.518235 123.623604 
L 367.510941 101.743454 
L 368.503647 163.823984 
L 369.496353 148.792329 
L 370.489059 94.056591 
L 371.481765 154.11267 
L 372.474471 158.997208 
L 373.467177 105.264887 
L 374.459883 144.154611 
L 375.452589 139.496501 
L 376.445294 137.218125 
L 377.438 135.726488 
L 378.430706 109.218669 
L 379.423412 172.69838 
L 380.416118 136.201606 
L 381.408824 76.921441 
L 382.40153 198.109314 
L 383.394236 142.792225 
L 384.386942 60.719248 
L 385.379648 198.727752 
L 386.372354 144.180775 
L 387.36506 61.438099 
L 388.357766 208.140496 
L 389.350471 129.561947 
L 390.343177 61.71658 
L 391.335883 221.470849 
L 392.328589 112.009703 
L 393.321295 76.559394 
L 394.314001 217.958335 
L 395.306707 107.499236 
L 396.299413 80.933951 
L 397.292119 221.494844 
L 398.284825 101.534585 
L 399.277531 85.655539 
L 400.270237 219.14678 
L 401.262943 94.872933 
L 402.255648 101.222173 
L 403.248354 201.952054 
L 404.24106 100.92207 
L 405.233766 105.913804 
L 406.226472 190.433895 
L 407.219178 107.612564 
L 408.211884 114.09088 
L 409.20459 172.332203 
L 410.197296 122.65845 
L 412.182708 135.787804 
L 414.16812 142.015684 
L 415.160825 116.306042 
L 416.153531 148.648793 
L 417.146237 134.932951 
L 418.138943 118.305617 
L 419.131649 165.134207 
L 420.124355 118.49393 
L 421.117061 114.680252 
L 422.109767 176.745243 
L 423.102473 113.958631 
L 424.095179 123.839765 
L 425.087885 167.927416 
L 426.080591 100.404434 
L 427.073297 155.716258 
L 428.066002 149.376885 
L 429.058708 85.422186 
L 430.051414 183.818541 
L 431.04412 131.028999 
L 432.036826 87.776685 
L 433.029532 189.173311 
L 434.022238 128.300932 
L 435.014944 79.831104 
L 436.00765 204.870701 
L 437.000356 119.766909 
L 437.993062 76.454716 
L 438.985768 220.901601 
L 439.978474 109.074921 
L 440.97118 64.012997 
L 441.963885 240.97925 
L 442.956591 109.403291 
L 443.949297 44.64 
L 444.942003 246.24 
L 445.934709 119.173174 
L 446.927415 48.746832 
L 447.920121 232.250615 
L 448.912827 111.223577 
L 449.905533 81.75887 
L 450.898239 208.357742 
L 451.890945 106.617422 
L 452.883651 96.071306 
L 453.876357 198.740875 
L 454.869062 108.791548 
L 455.861768 114.042991 
L 456.854474 173.638799 
L 457.84718 111.291816 
L 458.839886 145.12342 
L 459.832592 129.814363 
L 460.825298 130.075237 
L 461.818004 145.732301 
L 462.81071 123.328754 
L 463.803416 149.604764 
L 464.796122 120.258575 
L 465.788828 140.59738 
L 466.781534 155.242015 
L 467.774239 98.716098 
L 468.766945 149.851354 
L 469.759651 169.955313 
L 470.752357 79.127446 
L 471.745063 159.075315 
L 472.737769 164.364434 
L 473.730475 86.443935 
L 474.723181 160.47271 
L 475.715887 143.91688 
L 476.708593 108.182653 
L 477.701299 157.46456 
L 478.694005 130.975177 
L 479.686711 124.444377 
L 480.679416 143.929908 
L 481.672122 136.795995 
L 482.664828 133.053372 
L 483.657534 126.63539 
L 484.65024 144.655882 
L 485.642946 152.233079 
L 486.635652 97.526319 
L 487.628358 155.329147 
L 488.621064 157.557842 
L 489.61377 91.475273 
L 490.606476 156.332279 
L 491.599182 147.92834 
L 492.591888 110.151129 
L 493.584593 146.308778 
L 494.577299 140.381438 
L 495.570005 133.335268 
L 496.562711 124.383375 
L 497.555417 148.895279 
L 498.548123 144.20834 
L 499.540829 101.396442 
L 500.533535 159.742547 
L 501.526241 155.259542 
L 502.518947 81.67223 
L 503.511653 163.85694 
L 504.504359 164.013712 
L 505.497065 77.25225 
L 506.489771 170.491463 
L 507.482476 142.484171 
L 508.475182 92.318286 
L 509.467888 193.304661 
L 510.460594 112.782635 
L 511.4533 89.322577 
L 512.446006 213.450463 
L 513.438712 101.784507 
L 514.431418 91.183866 
L 515.424124 215.650621 
L 516.41683 77.133665 
L 517.409536 131.790105 
L 518.402242 198.62411 
L 519.394948 64.648624 
L 520.387653 158.067468 
L 521.380359 165.679568 
L 522.373065 89.989336 
L 523.365771 159.23335 
L 524.358477 141.887218 
L 525.351183 113.440178 
L 526.343889 150.105538 
L 527.336595 134.033408 
L 528.329301 129.800648 
L 529.322007 144.125606 
L 530.314713 120.507184 
L 531.307419 148.458464 
L 532.300125 138.306678 
L 533.29283 112.853073 
L 534.285536 160.634541 
L 535.278242 127.423133 
L 536.270948 117.877769 
L 537.263654 161.691354 
L 538.25636 127.386613 
L 539.249066 128.499584 
L 540.241772 130.975516 
L 541.234478 151.321606 
L 542.227184 142.182068 
L 543.21989 92.664154 
L 544.212596 158.36909 
L 545.205302 171.598826 
L 546.198007 77.962736 
L 547.190713 151.957867 
L 548.183419 170.207275 
L 549.176125 87.35541 
L 550.168831 158.934351 
L 551.161537 147.973151 
L 552.154243 95.263089 
L 553.146949 164.902012 
L 554.139655 144.278127 
L 555.132361 109.358672 
L 556.125067 140.10188 
L 557.117773 161.28727 
L 558.110479 113.969553 
L 559.103184 120.305799 
L 560.09589 168.691308 
L 561.088596 121.617761 
L 562.081302 119.324093 
L 563.074008 159.781465 
L 564.066714 123.712675 
L 565.05942 129.97719 
L 566.052126 155.464694 
L 567.044832 111.262812 
L 568.037538 134.643852 
L 569.030244 166.262431 
L 570.02295 107.494248 
L 571.015656 127.267289 
L 572.008362 165.411479 
L 573.001067 122.017549 
L 573.993773 116.603056 
L 574.986479 162.7836 
L 575.979185 129.829202 
L 576.971891 107.740874 
L 577.964597 171.289329 
L 578.957303 134.37424 
L 579.950009 89.167484 
L 580.942715 185.221422 
L 581.935421 138.178971 
L 582.928127 77.124204 
L 583.920833 187.288878 
L 584.913539 134.563044 
L 585.906244 97.448882 
L 586.89895 165.271259 
L 587.891656 136.4382 
L 588.884362 117.980216 
L 589.877068 154.189075 
L 590.869774 124.902302 
L 591.86248 124.676137 
L 592.855186 160.062129 
L 593.847892 123.257881 
L 594.840598 120.123304 
L 595.833304 159.156616 
L 596.82601 129.183859 
L 597.818716 116.156573 
L 598.811421 165.290768 
L 599.804127 115.439879 
L 600.796833 114.595995 
L 601.789539 189.264659 
L 602.782245 99.48426 
L 603.774951 114.062147 
L 604.767657 194.206925 
L 605.760363 102.52342 
L 606.753069 104.400719 
L 607.745775 197.651039 
L 608.738481 101.783238 
L 609.731187 104.334891 
L 610.723893 195.23882 
L 611.716598 103.492955 
L 612.709304 111.475627 
L 613.70201 197.955034 
L 614.694716 89.777231 
L 615.687422 120.855621 
L 616.680128 194.536754 
L 617.672834 98.663454 
L 618.66554 108.578098 
L 619.658246 185.82693 
L 620.650952 131.991915 
L 621.643658 89.03862 
L 622.636364 164.249288 
L 622.636364 164.249288 
" clip-path="url(#p7c86e26aa3)" style="fill: none; stroke: #1f77b4; stroke-width: 1.5; stroke-linecap: square"/>
   </g>
   <g id="patch_3">
    <path d="M 90 256.32 
L 90 34.56 
" style="fill: none; stroke: #000000; stroke-width: 0.8; stroke-linejoin: miter; stroke-linecap: square"/>
   </g>
   <g id="patch_4">
    <path d="M 648 256.32 
L 648 34.56 
" style="fill: none; stroke: #000000; stroke-width: 0.8; stroke-linejoin: miter; stroke-linecap: square"/>
   </g>
   <g id="patch_5">
    <path d="M 90 256.32 
L 648 256.32 
" style="fill: none; stroke: #000000; stroke-width: 0.8; stroke-linejoin: miter; stroke-linecap: square"/>
   </g>
   <g id="patch_6">
    <path d="M 90 34.56 
L 648 34.56 
" style="fill: none; stroke: #000000; stroke-width: 0.8; stroke-linejoin: miter; stroke-linecap: square"/>
   </g>
   <g id="text_16">
    <!-- K is now at 3 -->
    <g transform="translate(330.418125 28.56) scale(0.12 -0.12)">
     <defs>
      <path id="DejaVuSans-4b" d="M 628 4666 
L 1259 4666 
L 1259 2694 
L 3353 4666 
L 4166 4666 
L 1850 2491 
L 4331 0 
L 3500 0 
L 1259 2247 
L 1259 0 
L 628 0 
L 628 4666 
z
" transform="scale(0.015625)"/>
      <path id="DejaVuSans-20" transform="scale(0.015625)"/>
      <path id="DejaVuSans-69" d="M 603 3500 
L 1178 3500 
L 1178 0 
L 603 0 
L 603 3500 
z
M 603 4863 
L 1178 4863 
L 1178 4134 
L 603 4134 
L 603 4863 
z
" transform="scale(0.015625)"/>
      <path id="DejaVuSans-73" d="M 2834 3397 
L 2834 2853 
Q 2591 2978 2328 3040 
Q 2066 3103 1784 3103 
Q 1356 3103 1142 2972 
Q 928 2841 928 2578 
Q 928 2378 1081 2264 
Q 1234 2150 1697 2047 
L 1894 2003 
Q 2506 1872 2764 1633 
Q 3022 1394 3022 966 
Q 3022 478 2636 193 
Q 2250 -91 1575 -91 
Q 1294 -91 989 -36 
Q 684 19 347 128 
L 347 722 
Q 666 556 975 473 
Q 1284 391 1588 391 
Q 1994 391 2212 530 
Q 2431 669 2431 922 
Q 2431 1156 2273 1281 
Q 2116 1406 1581 1522 
L 1381 1569 
Q 847 1681 609 1914 
Q 372 2147 372 2553 
Q 372 3047 722 3315 
Q 1072 3584 1716 3584 
Q 2034 3584 2315 3537 
Q 2597 3491 2834 3397 
z
" transform="scale(0.015625)"/>
      <path id="DejaVuSans-6e" d="M 3513 2113 
L 3513 0 
L 2938 0 
L 2938 2094 
Q 2938 2591 2744 2837 
Q 2550 3084 2163 3084 
Q 1697 3084 1428 2787 
Q 1159 2491 1159 1978 
L 1159 0 
L 581 0 
L 581 3500 
L 1159 3500 
L 1159 2956 
Q 1366 3272 1645 3428 
Q 1925 3584 2291 3584 
Q 2894 3584 3203 3211 
Q 3513 2838 3513 2113 
z
" transform="scale(0.015625)"/>
      <path id="DejaVuSans-6f" d="M 1959 3097 
Q 1497 3097 1228 2736 
Q 959 2375 959 1747 
Q 959 1119 1226 758 
Q 1494 397 1959 397 
Q 2419 397 2687 759 
Q 2956 1122 2956 1747 
Q 2956 2369 2687 2733 
Q 2419 3097 1959 3097 
z
M 1959 3584 
Q 2709 3584 3137 3096 
Q 3566 2609 3566 1747 
Q 3566 888 3137 398 
Q 2709 -91 1959 -91 
Q 1206 -91 779 398 
Q 353 888 353 1747 
Q 353 2609 779 3096 
Q 1206 3584 1959 3584 
z
" transform="scale(0.015625)"/>
      <path id="DejaVuSans-77" d="M 269 3500 
L 844 3500 
L 1563 769 
L 2278 3500 
L 2956 3500 
L 3675 769 
L 4391 3500 
L 4966 3500 
L 4050 0 
L 3372 0 
L 2619 2869 
L 1863 0 
L 1184 0 
L 269 3500 
z
" transform="scale(0.015625)"/>
      <path id="DejaVuSans-61" d="M 2194 1759 
Q 1497 1759 1228 1600 
Q 959 1441 959 1056 
Q 959 750 1161 570 
Q 1363 391 1709 391 
Q 2188 391 2477 730 
Q 2766 1069 2766 1631 
L 2766 1759 
L 2194 1759 
z
M 3341 1997 
L 3341 0 
L 2766 0 
L 2766 531 
Q 2569 213 2275 61 
Q 1981 -91 1556 -91 
Q 1019 -91 701 211 
Q 384 513 384 1019 
Q 384 1609 779 1909 
Q 1175 2209 1959 2209 
L 2766 2209 
L 2766 2266 
Q 2766 2663 2505 2880 
Q 2244 3097 1772 3097 
Q 1472 3097 1187 3025 
Q 903 2953 641 2809 
L 641 3341 
Q 956 3463 1253 3523 
Q 1550 3584 1831 3584 
Q 2591 3584 2966 3190 
Q 3341 2797 3341 1997 
z
" transform="scale(0.015625)"/>
      <path id="DejaVuSans-74" d="M 1172 4494 
L 1172 3500 
L 2356 3500 
L 2356 3053 
L 1172 3053 
L 1172 1153 
Q 1172 725 1289 603 
Q 1406 481 1766 481 
L 2356 481 
L 2356 0 
L 1766 0 
Q 1100 0 847 248 
Q 594 497 594 1153 
L 594 3053 
L 172 3053 
L 172 3500 
L 594 3500 
L 594 4494 
L 1172 4494 
z
" transform="scale(0.015625)"/>
     </defs>
     <use xlink:href="#DejaVuSans-4b"/>
     <use xlink:href="#DejaVuSans-20" x="65.576172"/>
     <use xlink:href="#DejaVuSans-69" x="97.363281"/>
     <use xlink:href="#DejaVuSans-73" x="125.146484"/>
     <use xlink:href="#DejaVuSans-20" x="177.246094"/>
     <use xlink:href="#DejaVuSans-6e" x="209.033203"/>
     <use xlink:href="#DejaVuSans-6f" x="272.412109"/>
     <use xlink:href="#DejaVuSans-77" x="333.59375"/>
     <use xlink:href="#DejaVuSans-20" x="415.380859"/>
     <use xlink:href="#DejaVuSans-61" x="447.167969"/>
     <use xlink:href="#DejaVuSans-74" x="508.447266"/>
     <use xlink:href="#DejaVuSans-20" x="547.65625"/>
     <use xlink:href="#DejaVuSans-33" x="579.443359"/>
    </g>
   </g>
  </g>
 </g>
 <defs>
  <clipPath id="p7c86e26aa3">
   <rect x="90" y="34.56" width="558" height="221.76"/>
  </clipPath>
 </defs>
</svg>
