<?xml version="1.0" encoding="utf-8" standalone="no"?>
<!DOCTYPE svg PUBLIC "-//W3C//DTD SVG 1.1//EN"
  "http://www.w3.org/Graphics/SVG/1.1/DTD/svg11.dtd">
<svg xmlns:xlink="http://www.w3.org/1999/xlink" width="720pt" height="288pt" viewBox="0 0 720 288" xmlns="http://www.w3.org/2000/svg" version="1.1">
 <metadata>
  <rdf:RDF xmlns:dc="http://purl.org/dc/elements/1.1/" xmlns:cc="http://creativecommons.org/ns#" xmlns:rdf="http://www.w3.org/1999/02/22-rdf-syntax-ns#">
   <cc:Work>
    <dc:type rdf:resource="http://purl.org/dc/dcmitype/StillImage"/>
    <dc:date>2023-11-20T08:43:12.005597</dc:date>
    <dc:format>image/svg+xml</dc:format>
    <dc:creator>
     <cc:Agent>
      <dc:title>Matplotlib v3.6.2, https://matplotlib.org/</dc:title>
     </cc:Agent>
    </dc:creator>
   </cc:Work>
  </rdf:RDF>
 </metadata>
 <defs>
  <style type="text/css">*{stroke-linejoin: round; stroke-linecap: butt}</style>
 </defs>
 <g id="figure_1">
  <g id="patch_1">
   <path d="M 0 288 
L 720 288 
L 720 0 
L 0 0 
z
" style="fill: #ffffff"/>
  </g>
  <g id="axes_1">
   <g id="patch_2">
    <path d="M 90 256.32 
L 648 256.32 
L 648 34.56 
L 90 34.56 
z
" style="fill: #ffffff"/>
   </g>
   <g id="matplotlib.axis_1">
    <g id="xtick_1">
     <g id="line2d_1">
      <defs>
       <path id="mefcc43e412" d="M 0 0 
L 0 3.5 
" style="stroke: #000000; stroke-width: 0.8"/>
      </defs>
      <g>
       <use xlink:href="#mefcc43e412" x="115.363636" y="256.32" style="stroke: #000000; stroke-width: 0.8"/>
      </g>
     </g>
     <g id="text_1">
      <!-- 0 -->
      <g transform="translate(112.182386 270.918437) scale(0.1 -0.1)">
       <defs>
        <path id="DejaVuSans-30" d="M 2034 4250 
Q 1547 4250 1301 3770 
Q 1056 3291 1056 2328 
Q 1056 1369 1301 889 
Q 1547 409 2034 409 
Q 2525 409 2770 889 
Q 3016 1369 3016 2328 
Q 3016 3291 2770 3770 
Q 2525 4250 2034 4250 
z
M 2034 4750 
Q 2819 4750 3233 4129 
Q 3647 3509 3647 2328 
Q 3647 1150 3233 529 
Q 2819 -91 2034 -91 
Q 1250 -91 836 529 
Q 422 1150 422 2328 
Q 422 3509 836 4129 
Q 1250 4750 2034 4750 
z
" transform="scale(0.015625)"/>
       </defs>
       <use xlink:href="#DejaVuSans-30"/>
      </g>
     </g>
    </g>
    <g id="xtick_2">
     <g id="line2d_2">
      <g>
       <use xlink:href="#mefcc43e412" x="214.634229" y="256.32" style="stroke: #000000; stroke-width: 0.8"/>
      </g>
     </g>
     <g id="text_2">
      <!-- 100 -->
      <g transform="translate(205.090479 270.918437) scale(0.1 -0.1)">
       <defs>
        <path id="DejaVuSans-31" d="M 794 531 
L 1825 531 
L 1825 4091 
L 703 3866 
L 703 4441 
L 1819 4666 
L 2450 4666 
L 2450 531 
L 3481 531 
L 3481 0 
L 794 0 
L 794 531 
z
" transform="scale(0.015625)"/>
       </defs>
       <use xlink:href="#DejaVuSans-31"/>
       <use xlink:href="#DejaVuSans-30" x="63.623047"/>
       <use xlink:href="#DejaVuSans-30" x="127.246094"/>
      </g>
     </g>
    </g>
    <g id="xtick_3">
     <g id="line2d_3">
      <g>
       <use xlink:href="#mefcc43e412" x="313.904821" y="256.32" style="stroke: #000000; stroke-width: 0.8"/>
      </g>
     </g>
     <g id="text_3">
      <!-- 200 -->
      <g transform="translate(304.361071 270.918437) scale(0.1 -0.1)">
       <defs>
        <path id="DejaVuSans-32" d="M 1228 531 
L 3431 531 
L 3431 0 
L 469 0 
L 469 531 
Q 828 903 1448 1529 
Q 2069 2156 2228 2338 
Q 2531 2678 2651 2914 
Q 2772 3150 2772 3378 
Q 2772 3750 2511 3984 
Q 2250 4219 1831 4219 
Q 1534 4219 1204 4116 
Q 875 4013 500 3803 
L 500 4441 
Q 881 4594 1212 4672 
Q 1544 4750 1819 4750 
Q 2544 4750 2975 4387 
Q 3406 4025 3406 3419 
Q 3406 3131 3298 2873 
Q 3191 2616 2906 2266 
Q 2828 2175 2409 1742 
Q 1991 1309 1228 531 
z
" transform="scale(0.015625)"/>
       </defs>
       <use xlink:href="#DejaVuSans-32"/>
       <use xlink:href="#DejaVuSans-30" x="63.623047"/>
       <use xlink:href="#DejaVuSans-30" x="127.246094"/>
      </g>
     </g>
    </g>
    <g id="xtick_4">
     <g id="line2d_4">
      <g>
       <use xlink:href="#mefcc43e412" x="413.175414" y="256.32" style="stroke: #000000; stroke-width: 0.8"/>
      </g>
     </g>
     <g id="text_4">
      <!-- 300 -->
      <g transform="translate(403.631664 270.918437) scale(0.1 -0.1)">
       <defs>
        <path id="DejaVuSans-33" d="M 2597 2516 
Q 3050 2419 3304 2112 
Q 3559 1806 3559 1356 
Q 3559 666 3084 287 
Q 2609 -91 1734 -91 
Q 1441 -91 1130 -33 
Q 819 25 488 141 
L 488 750 
Q 750 597 1062 519 
Q 1375 441 1716 441 
Q 2309 441 2620 675 
Q 2931 909 2931 1356 
Q 2931 1769 2642 2001 
Q 2353 2234 1838 2234 
L 1294 2234 
L 1294 2753 
L 1863 2753 
Q 2328 2753 2575 2939 
Q 2822 3125 2822 3475 
Q 2822 3834 2567 4026 
Q 2313 4219 1838 4219 
Q 1578 4219 1281 4162 
Q 984 4106 628 3988 
L 628 4550 
Q 988 4650 1302 4700 
Q 1616 4750 1894 4750 
Q 2613 4750 3031 4423 
Q 3450 4097 3450 3541 
Q 3450 3153 3228 2886 
Q 3006 2619 2597 2516 
z
" transform="scale(0.015625)"/>
       </defs>
       <use xlink:href="#DejaVuSans-33"/>
       <use xlink:href="#DejaVuSans-30" x="63.623047"/>
       <use xlink:href="#DejaVuSans-30" x="127.246094"/>
      </g>
     </g>
    </g>
    <g id="xtick_5">
     <g id="line2d_5">
      <g>
       <use xlink:href="#mefcc43e412" x="512.446006" y="256.32" style="stroke: #000000; stroke-width: 0.8"/>
      </g>
     </g>
     <g id="text_5">
      <!-- 400 -->
      <g transform="translate(502.902256 270.918437) scale(0.1 -0.1)">
       <defs>
        <path id="DejaVuSans-34" d="M 2419 4116 
L 825 1625 
L 2419 1625 
L 2419 4116 
z
M 2253 4666 
L 3047 4666 
L 3047 1625 
L 3713 1625 
L 3713 1100 
L 3047 1100 
L 3047 0 
L 2419 0 
L 2419 1100 
L 313 1100 
L 313 1709 
L 2253 4666 
z
" transform="scale(0.015625)"/>
       </defs>
       <use xlink:href="#DejaVuSans-34"/>
       <use xlink:href="#DejaVuSans-30" x="63.623047"/>
       <use xlink:href="#DejaVuSans-30" x="127.246094"/>
      </g>
     </g>
    </g>
    <g id="xtick_6">
     <g id="line2d_6">
      <g>
       <use xlink:href="#mefcc43e412" x="611.716598" y="256.32" style="stroke: #000000; stroke-width: 0.8"/>
      </g>
     </g>
     <g id="text_6">
      <!-- 500 -->
      <g transform="translate(602.172848 270.918437) scale(0.1 -0.1)">
       <defs>
        <path id="DejaVuSans-35" d="M 691 4666 
L 3169 4666 
L 3169 4134 
L 1269 4134 
L 1269 2991 
Q 1406 3038 1543 3061 
Q 1681 3084 1819 3084 
Q 2600 3084 3056 2656 
Q 3513 2228 3513 1497 
Q 3513 744 3044 326 
Q 2575 -91 1722 -91 
Q 1428 -91 1123 -41 
Q 819 9 494 109 
L 494 744 
Q 775 591 1075 516 
Q 1375 441 1709 441 
Q 2250 441 2565 725 
Q 2881 1009 2881 1497 
Q 2881 1984 2565 2268 
Q 2250 2553 1709 2553 
Q 1456 2553 1204 2497 
Q 953 2441 691 2322 
L 691 4666 
z
" transform="scale(0.015625)"/>
       </defs>
       <use xlink:href="#DejaVuSans-35"/>
       <use xlink:href="#DejaVuSans-30" x="63.623047"/>
       <use xlink:href="#DejaVuSans-30" x="127.246094"/>
      </g>
     </g>
    </g>
   </g>
   <g id="matplotlib.axis_2">
    <g id="ytick_1">
     <g id="line2d_7">
      <defs>
       <path id="maed9eaec9b" d="M 0 0 
L -3.5 0 
" style="stroke: #000000; stroke-width: 0.8"/>
      </defs>
      <g>
       <use xlink:href="#maed9eaec9b" x="90" y="245.341402" style="stroke: #000000; stroke-width: 0.8"/>
      </g>
     </g>
     <g id="text_7">
      <!-- −0.00020 -->
      <g transform="translate(33.267187 249.140621) scale(0.1 -0.1)">
       <defs>
        <path id="DejaVuSans-2212" d="M 678 2272 
L 4684 2272 
L 4684 1741 
L 678 1741 
L 678 2272 
z
" transform="scale(0.015625)"/>
        <path id="DejaVuSans-2e" d="M 684 794 
L 1344 794 
L 1344 0 
L 684 0 
L 684 794 
z
" transform="scale(0.015625)"/>
       </defs>
       <use xlink:href="#DejaVuSans-2212"/>
       <use xlink:href="#DejaVuSans-30" x="83.789062"/>
       <use xlink:href="#DejaVuSans-2e" x="147.412109"/>
       <use xlink:href="#DejaVuSans-30" x="179.199219"/>
       <use xlink:href="#DejaVuSans-30" x="242.822266"/>
       <use xlink:href="#DejaVuSans-30" x="306.445312"/>
       <use xlink:href="#DejaVuSans-32" x="370.068359"/>
       <use xlink:href="#DejaVuSans-30" x="433.691406"/>
      </g>
     </g>
    </g>
    <g id="ytick_2">
     <g id="line2d_8">
      <g>
       <use xlink:href="#maed9eaec9b" x="90" y="220.473338" style="stroke: #000000; stroke-width: 0.8"/>
      </g>
     </g>
     <g id="text_8">
      <!-- −0.00015 -->
      <g transform="translate(33.267187 224.272557) scale(0.1 -0.1)">
       <use xlink:href="#DejaVuSans-2212"/>
       <use xlink:href="#DejaVuSans-30" x="83.789062"/>
       <use xlink:href="#DejaVuSans-2e" x="147.412109"/>
       <use xlink:href="#DejaVuSans-30" x="179.199219"/>
       <use xlink:href="#DejaVuSans-30" x="242.822266"/>
       <use xlink:href="#DejaVuSans-30" x="306.445312"/>
       <use xlink:href="#DejaVuSans-31" x="370.068359"/>
       <use xlink:href="#DejaVuSans-35" x="433.691406"/>
      </g>
     </g>
    </g>
    <g id="ytick_3">
     <g id="line2d_9">
      <g>
       <use xlink:href="#maed9eaec9b" x="90" y="195.605274" style="stroke: #000000; stroke-width: 0.8"/>
      </g>
     </g>
     <g id="text_9">
      <!-- −0.00010 -->
      <g transform="translate(33.267187 199.404493) scale(0.1 -0.1)">
       <use xlink:href="#DejaVuSans-2212"/>
       <use xlink:href="#DejaVuSans-30" x="83.789062"/>
       <use xlink:href="#DejaVuSans-2e" x="147.412109"/>
       <use xlink:href="#DejaVuSans-30" x="179.199219"/>
       <use xlink:href="#DejaVuSans-30" x="242.822266"/>
       <use xlink:href="#DejaVuSans-30" x="306.445312"/>
       <use xlink:href="#DejaVuSans-31" x="370.068359"/>
       <use xlink:href="#DejaVuSans-30" x="433.691406"/>
      </g>
     </g>
    </g>
    <g id="ytick_4">
     <g id="line2d_10">
      <g>
       <use xlink:href="#maed9eaec9b" x="90" y="170.73721" style="stroke: #000000; stroke-width: 0.8"/>
      </g>
     </g>
     <g id="text_10">
      <!-- −0.00005 -->
      <g transform="translate(33.267187 174.536429) scale(0.1 -0.1)">
       <use xlink:href="#DejaVuSans-2212"/>
       <use xlink:href="#DejaVuSans-30" x="83.789062"/>
       <use xlink:href="#DejaVuSans-2e" x="147.412109"/>
       <use xlink:href="#DejaVuSans-30" x="179.199219"/>
       <use xlink:href="#DejaVuSans-30" x="242.822266"/>
       <use xlink:href="#DejaVuSans-30" x="306.445312"/>
       <use xlink:href="#DejaVuSans-30" x="370.068359"/>
       <use xlink:href="#DejaVuSans-35" x="433.691406"/>
      </g>
     </g>
    </g>
    <g id="ytick_5">
     <g id="line2d_11">
      <g>
       <use xlink:href="#maed9eaec9b" x="90" y="145.869146" style="stroke: #000000; stroke-width: 0.8"/>
      </g>
     </g>
     <g id="text_11">
      <!-- 0.00000 -->
      <g transform="translate(41.646875 149.668365) scale(0.1 -0.1)">
       <use xlink:href="#DejaVuSans-30"/>
       <use xlink:href="#DejaVuSans-2e" x="63.623047"/>
       <use xlink:href="#DejaVuSans-30" x="95.410156"/>
       <use xlink:href="#DejaVuSans-30" x="159.033203"/>
       <use xlink:href="#DejaVuSans-30" x="222.65625"/>
       <use xlink:href="#DejaVuSans-30" x="286.279297"/>
       <use xlink:href="#DejaVuSans-30" x="349.902344"/>
      </g>
     </g>
    </g>
    <g id="ytick_6">
     <g id="line2d_12">
      <g>
       <use xlink:href="#maed9eaec9b" x="90" y="121.001082" style="stroke: #000000; stroke-width: 0.8"/>
      </g>
     </g>
     <g id="text_12">
      <!-- 0.00005 -->
      <g transform="translate(41.646875 124.800301) scale(0.1 -0.1)">
       <use xlink:href="#DejaVuSans-30"/>
       <use xlink:href="#DejaVuSans-2e" x="63.623047"/>
       <use xlink:href="#DejaVuSans-30" x="95.410156"/>
       <use xlink:href="#DejaVuSans-30" x="159.033203"/>
       <use xlink:href="#DejaVuSans-30" x="222.65625"/>
       <use xlink:href="#DejaVuSans-30" x="286.279297"/>
       <use xlink:href="#DejaVuSans-35" x="349.902344"/>
      </g>
     </g>
    </g>
    <g id="ytick_7">
     <g id="line2d_13">
      <g>
       <use xlink:href="#maed9eaec9b" x="90" y="96.133018" style="stroke: #000000; stroke-width: 0.8"/>
      </g>
     </g>
     <g id="text_13">
      <!-- 0.00010 -->
      <g transform="translate(41.646875 99.932237) scale(0.1 -0.1)">
       <use xlink:href="#DejaVuSans-30"/>
       <use xlink:href="#DejaVuSans-2e" x="63.623047"/>
       <use xlink:href="#DejaVuSans-30" x="95.410156"/>
       <use xlink:href="#DejaVuSans-30" x="159.033203"/>
       <use xlink:href="#DejaVuSans-30" x="222.65625"/>
       <use xlink:href="#DejaVuSans-31" x="286.279297"/>
       <use xlink:href="#DejaVuSans-30" x="349.902344"/>
      </g>
     </g>
    </g>
    <g id="ytick_8">
     <g id="line2d_14">
      <g>
       <use xlink:href="#maed9eaec9b" x="90" y="71.264954" style="stroke: #000000; stroke-width: 0.8"/>
      </g>
     </g>
     <g id="text_14">
      <!-- 0.00015 -->
      <g transform="translate(41.646875 75.064173) scale(0.1 -0.1)">
       <use xlink:href="#DejaVuSans-30"/>
       <use xlink:href="#DejaVuSans-2e" x="63.623047"/>
       <use xlink:href="#DejaVuSans-30" x="95.410156"/>
       <use xlink:href="#DejaVuSans-30" x="159.033203"/>
       <use xlink:href="#DejaVuSans-30" x="222.65625"/>
       <use xlink:href="#DejaVuSans-31" x="286.279297"/>
       <use xlink:href="#DejaVuSans-35" x="349.902344"/>
      </g>
     </g>
    </g>
    <g id="ytick_9">
     <g id="line2d_15">
      <g>
       <use xlink:href="#maed9eaec9b" x="90" y="46.39689" style="stroke: #000000; stroke-width: 0.8"/>
      </g>
     </g>
     <g id="text_15">
      <!-- 0.00020 -->
      <g transform="translate(41.646875 50.196109) scale(0.1 -0.1)">
       <use xlink:href="#DejaVuSans-30"/>
       <use xlink:href="#DejaVuSans-2e" x="63.623047"/>
       <use xlink:href="#DejaVuSans-30" x="95.410156"/>
       <use xlink:href="#DejaVuSans-30" x="159.033203"/>
       <use xlink:href="#DejaVuSans-30" x="222.65625"/>
       <use xlink:href="#DejaVuSans-32" x="286.279297"/>
       <use xlink:href="#DejaVuSans-30" x="349.902344"/>
      </g>
     </g>
    </g>
   </g>
   <g id="line2d_16">
    <path d="M 115.363636 155.085724 
L 116.356342 134.545246 
L 117.349048 125.137717 
L 118.341754 149.27877 
L 119.33446 179.810641 
L 120.327166 168.501398 
L 121.319872 119.011065 
L 122.312578 87.721092 
L 123.305284 124.242913 
L 124.29799 195.487977 
L 125.290696 220.953729 
L 126.283402 167.381932 
L 127.276107 91.145781 
L 128.268813 63.888203 
L 129.261519 113.116835 
L 130.254225 195.883565 
L 131.246931 231.74248 
L 132.239637 180.326891 
L 133.232343 104.021051 
L 134.225049 88.812718 
L 136.210461 177.960379 
L 137.203167 172.488054 
L 138.195873 140.858284 
L 139.188579 113.860946 
L 140.181284 114.134217 
L 141.17399 143.849359 
L 142.166696 177.750205 
L 143.159402 177.594731 
L 145.144814 98.019589 
L 146.13752 98.957895 
L 147.130226 153.647396 
L 148.122932 195.171364 
L 149.115638 184.101698 
L 150.108344 148.495809 
L 151.10105 132.735373 
L 152.093756 131.993173 
L 153.086461 131.808557 
L 154.079167 136.920396 
L 156.064579 162.38663 
L 157.057285 161.743818 
L 158.049991 162.856454 
L 159.042697 153.054164 
L 160.035403 126.318128 
L 161.028109 115.113605 
L 162.020815 132.85315 
L 163.013521 173.93336 
L 164.006227 185.779227 
L 164.998933 155.206391 
L 165.991638 121.181499 
L 166.984344 121.52036 
L 167.97705 149.641341 
L 168.969756 167.982118 
L 169.962462 157.640647 
L 170.955168 142.799382 
L 171.947874 135.236737 
L 172.94058 141.241451 
L 173.933286 150.346174 
L 174.925992 150.74628 
L 175.918698 140.169925 
L 176.911404 134.577465 
L 177.90411 151.729834 
L 178.896816 171.063867 
L 179.889521 151.908911 
L 180.882227 116.062893 
L 181.874933 117.973171 
L 182.867639 161.463993 
L 183.860345 189.899232 
L 184.853051 169.321801 
L 185.845757 131.806297 
L 186.838463 109.572186 
L 187.831169 118.251007 
L 189.816581 180.980795 
L 190.809287 170.306613 
L 191.801993 128.003945 
L 192.794698 101.659751 
L 193.787404 127.332124 
L 194.78011 172.275235 
L 195.772816 180.854668 
L 197.758228 114.271911 
L 198.750934 121.310735 
L 199.74364 161.622293 
L 200.736346 183.958572 
L 201.729052 164.670349 
L 202.721758 118.188777 
L 203.714464 90.746696 
L 204.70717 115.863219 
L 205.699875 180.018132 
L 206.692581 214.882397 
L 207.685287 168.915206 
L 208.677993 91.476219 
L 209.670699 76.62067 
L 211.656111 200.718264 
L 212.648817 197.621005 
L 214.634229 85.417225 
L 215.626935 92.15104 
L 217.612347 221.709703 
L 218.605052 207.506714 
L 219.597758 129.648994 
L 220.590464 74.809307 
L 221.58317 94.805666 
L 222.575876 160.520954 
L 223.568582 200.92929 
L 224.561288 183.918165 
L 225.553994 132.099336 
L 226.5467 97.204934 
L 227.539406 119.400595 
L 228.532112 171.338152 
L 229.524818 194.249981 
L 230.517524 172.791597 
L 231.510229 123.173462 
L 232.502935 101.288006 
L 233.495641 124.120276 
L 234.488347 172.7069 
L 235.481053 186.032377 
L 236.473759 146.016044 
L 237.466465 117.826973 
L 238.459171 135.63715 
L 239.451877 171.370987 
L 240.444583 163.26788 
L 241.437289 125.586064 
L 242.429995 111.616201 
L 243.422701 147.535839 
L 244.415407 193.491035 
L 245.408112 186.568183 
L 246.400818 128.881941 
L 247.393524 89.109611 
L 248.38623 101.121137 
L 249.378936 147.412979 
L 250.371642 176.249577 
L 251.364348 168.736389 
L 253.34976 128.714981 
L 254.342466 131.764198 
L 256.327878 149.229961 
L 257.320584 162.596412 
L 258.313289 165.497657 
L 259.305995 149.716823 
L 260.298701 123.020809 
L 261.291407 119.459261 
L 263.276819 166.050009 
L 264.269525 168.106529 
L 265.262231 152.636166 
L 266.254937 132.325617 
L 267.247643 126.54454 
L 268.240349 139.905056 
L 269.233055 160.144631 
L 270.225761 161.107853 
L 271.218466 144.020484 
L 272.211172 130.921784 
L 273.203878 140.592007 
L 274.196584 158.128756 
L 275.18929 162.072264 
L 276.181996 148.514005 
L 277.174702 132.175247 
L 278.167408 129.350327 
L 279.160114 134.593409 
L 281.145526 169.759755 
L 282.138232 175.795761 
L 283.130938 150.283027 
L 284.123643 109.780634 
L 285.116349 99.013655 
L 286.109055 134.803211 
L 287.101761 180.670667 
L 288.094467 188.477993 
L 290.079879 131.115002 
L 291.072585 119.74736 
L 292.065291 130.132262 
L 293.057997 157.680631 
L 294.050703 174.768141 
L 295.043409 157.250891 
L 296.036115 131.033972 
L 297.02882 124.5918 
L 299.014232 147.922736 
L 300.006938 152.170331 
L 300.999644 161.352906 
L 301.99235 159.328935 
L 303.977762 126.276577 
L 304.970468 124.592516 
L 305.963174 138.040407 
L 306.95588 161.367967 
L 307.948586 171.286945 
L 308.941292 163.118163 
L 309.933998 134.964053 
L 310.926703 110.486848 
L 311.919409 121.651488 
L 312.912115 155.514442 
L 313.904821 179.292873 
L 314.897527 166.976427 
L 315.890233 138.835396 
L 316.882939 128.695926 
L 317.875645 139.198462 
L 318.868351 143.852365 
L 319.861057 140.792303 
L 320.853763 141.764804 
L 321.846469 152.262268 
L 322.839175 161.044262 
L 323.83188 152.198643 
L 324.824586 134.262456 
L 325.817292 125.912351 
L 326.809998 135.599302 
L 327.802704 158.374754 
L 328.79541 173.229777 
L 329.788116 174.059057 
L 330.780822 150.852332 
L 331.773528 111.226723 
L 332.766234 95.256053 
L 333.75894 139.398732 
L 334.751646 199.887787 
L 335.744352 199.989468 
L 336.737057 132.195507 
L 337.729763 80.867101 
L 338.722469 106.02798 
L 339.715175 170.386194 
L 340.707881 197.305735 
L 341.700587 169.307957 
L 342.693293 131.522736 
L 343.685999 124.499578 
L 344.678705 149.608913 
L 345.671411 167.662116 
L 346.664117 145.692506 
L 347.656823 103.815919 
L 348.649529 106.9983 
L 349.642234 167.722061 
L 350.63494 210.470133 
L 351.627646 178.983441 
L 352.620352 99.452002 
L 353.613058 75.529526 
L 354.605764 135.293351 
L 355.59847 213.518242 
L 356.591176 212.791472 
L 357.583882 128.170357 
L 358.576588 59.166171 
L 359.569294 93.252102 
L 360.562 194.551741 
L 361.554706 243.87888 
L 362.547411 176.029884 
L 363.540117 68.903333 
L 364.532823 58.640463 
L 365.525529 154.676848 
L 366.518235 238.338292 
L 367.510941 216.235704 
L 368.503647 112.060944 
L 369.496353 44.64 
L 370.489059 85.446236 
L 371.481765 194.316907 
L 372.474471 246.24 
L 373.467177 185.919694 
L 374.459883 99.75597 
L 375.452589 79.075822 
L 376.445294 128.829669 
L 377.438 184.930286 
L 378.430706 187.173744 
L 379.423412 139.529713 
L 380.416118 106.296807 
L 381.408824 133.544196 
L 382.40153 181.478325 
L 383.394236 175.580755 
L 384.386942 129.220821 
L 385.379648 111.449022 
L 387.36506 168.148643 
L 388.357766 161.568842 
L 389.350471 135.785704 
L 390.343177 124.928257 
L 391.335883 140.792293 
L 392.328589 152.728971 
L 393.321295 148.842418 
L 394.314001 136.275381 
L 395.306707 141.137128 
L 396.299413 160.235673 
L 397.292119 167.443465 
L 398.284825 147.629419 
L 399.277531 123.224863 
L 400.270237 126.080011 
L 402.255648 175.942872 
L 403.248354 165.863799 
L 404.24106 130.586252 
L 405.233766 104.811486 
L 406.226472 116.626091 
L 407.219178 154.965553 
L 408.211884 184.856802 
L 409.20459 173.451724 
L 410.197296 129.024165 
L 411.190002 109.351353 
L 412.182708 141.049409 
L 413.175414 182.239968 
L 414.16812 167.414085 
L 415.160825 110.972709 
L 416.153531 97.517647 
L 418.138943 195.683789 
L 419.131649 181.846278 
L 420.124355 126.393981 
L 421.117061 98.97836 
L 422.109767 124.935638 
L 423.102473 164.550012 
L 424.095179 184.310711 
L 425.087885 179.152787 
L 426.080591 146.406816 
L 427.073297 109.273685 
L 428.066002 103.220347 
L 429.058708 140.885864 
L 430.051414 188.947657 
L 431.04412 188.858985 
L 433.029532 96.710425 
L 434.022238 98.442328 
L 436.00765 191.505123 
L 437.000356 190.530393 
L 437.993062 145.990657 
L 438.985768 107.171634 
L 439.978474 118.355894 
L 440.97118 160.796068 
L 441.963885 176.449885 
L 442.956591 151.553218 
L 443.949297 131.243571 
L 444.942003 137.750922 
L 445.934709 141.381634 
L 446.927415 135.567042 
L 447.920121 147.532435 
L 448.912827 165.119279 
L 449.905533 165.889072 
L 450.898239 141.38525 
L 451.890945 122.796435 
L 452.883651 124.883991 
L 454.869062 152.109328 
L 455.861768 170.133522 
L 456.854474 185.321975 
L 457.84718 165.814449 
L 458.839886 119.186181 
L 459.832592 83.08056 
L 460.825298 111.566826 
L 461.818004 171.610702 
L 462.81071 197.222086 
L 463.803416 175.668309 
L 464.796122 128.10514 
L 465.788828 104.144593 
L 466.781534 123.423175 
L 467.774239 166.362112 
L 468.766945 183.25794 
L 469.759651 156.926071 
L 470.752357 121.567457 
L 471.745063 128.145337 
L 472.737769 155.78701 
L 473.730475 163.198905 
L 474.723181 147.362233 
L 475.715887 129.270762 
L 476.708593 131.888117 
L 477.701299 149.393664 
L 478.694005 162.230742 
L 479.686711 160.44607 
L 480.679416 137.572714 
L 481.672122 117.629098 
L 482.664828 128.264639 
L 483.657534 163.749244 
L 484.65024 180.651323 
L 485.642946 162.768538 
L 486.635652 130.79614 
L 487.628358 123.363909 
L 488.621064 134.624136 
L 489.61377 148.416277 
L 490.606476 160.314355 
L 491.599182 155.043664 
L 492.591888 138.372593 
L 493.584593 128.29791 
L 494.577299 135.20953 
L 495.570005 158.239258 
L 496.562711 169.816248 
L 497.555417 160.362823 
L 498.548123 140.88648 
L 499.540829 128.696075 
L 500.533535 130.946309 
L 501.526241 142.156663 
L 502.518947 157.107538 
L 503.511653 164.957015 
L 504.504359 148.292992 
L 505.497065 118.559466 
L 506.489771 124.24889 
L 507.482476 159.301889 
L 508.475182 170.414674 
L 509.467888 145.16413 
L 510.460594 133.736999 
L 511.4533 161.779532 
L 512.446006 176.330615 
L 513.438712 134.187146 
L 514.431418 86.011878 
L 515.424124 113.094563 
L 516.41683 184.784596 
L 517.409536 217.211508 
L 518.402242 162.969237 
L 519.394948 87.294934 
L 520.387653 89.045405 
L 521.380359 153.745688 
L 522.373065 206.487987 
L 523.365771 186.602153 
L 524.358477 121.521215 
L 525.351183 92.469614 
L 526.343889 125.070327 
L 527.336595 176.527113 
L 528.329301 185.848525 
L 530.314713 115.626717 
L 531.307419 120.284929 
L 532.300125 150.845748 
L 533.29283 171.014005 
L 534.285536 162.611589 
L 535.278242 134.428655 
L 536.270948 121.054723 
L 537.263654 134.793112 
L 539.249066 182.249313 
L 540.241772 173.662765 
L 541.234478 126.655196 
L 542.227184 89.180629 
L 543.21989 117.763472 
L 544.212596 180.165094 
L 545.205302 190.271821 
L 546.198007 140.797943 
L 547.190713 116.612335 
L 548.183419 145.443751 
L 549.176125 169.893748 
L 550.168831 152.061722 
L 551.161537 118.960897 
L 552.154243 119.650939 
L 553.146949 150.779604 
L 554.139655 170.545748 
L 555.132361 171.256069 
L 557.117773 134.040958 
L 558.110479 126.069551 
L 559.103184 136.343927 
L 560.09589 152.184927 
L 561.088596 150.856319 
L 562.081302 145.798747 
L 563.074008 156.338516 
L 564.066714 164.467196 
L 565.05942 144.72461 
L 566.052126 117.992822 
L 567.044832 123.851858 
L 568.037538 154.584778 
L 569.030244 168.778035 
L 571.015656 141.895886 
L 572.008362 136.657611 
L 573.001067 135.504741 
L 573.993773 137.225773 
L 574.986479 149.490656 
L 575.979185 165.183605 
L 576.971891 160.387228 
L 577.964597 134.130313 
L 578.957303 120.071196 
L 579.950009 138.389041 
L 580.942715 169.568767 
L 581.935421 173.929696 
L 583.920833 120.760877 
L 584.913539 107.152286 
L 585.906244 127.646401 
L 586.89895 171.886368 
L 587.891656 199.625653 
L 588.884362 173.082155 
L 589.877068 119.422597 
L 590.869774 100.412688 
L 591.86248 126.061815 
L 592.855186 156.46566 
L 593.847892 168.387245 
L 594.840598 169.869274 
L 595.833304 162.642515 
L 596.82601 138.931271 
L 597.818716 104.978727 
L 598.811421 104.203325 
L 600.796833 195.283208 
L 601.789539 180.571062 
L 602.782245 122.042795 
L 603.774951 97.684134 
L 604.767657 133.241204 
L 605.760363 187.737036 
L 606.753069 195.690407 
L 607.745775 144.613926 
L 608.738481 83.69138 
L 609.731187 83.189768 
L 611.716598 210.234116 
L 612.709304 199.568679 
L 613.70201 139.022557 
L 614.694716 98.588015 
L 615.687422 117.868742 
L 616.680128 155.19439 
L 617.672834 173.236519 
L 618.66554 167.893723 
L 619.658246 143.791997 
L 620.650952 124.311277 
L 621.643658 134.115585 
L 622.636364 161.304402 
L 622.636364 161.304402 
" clip-path="url(#pa3ecdbed4c)" style="fill: none; stroke: #1f77b4; stroke-width: 1.5; stroke-linecap: square"/>
   </g>
   <g id="patch_3">
    <path d="M 90 256.32 
L 90 34.56 
" style="fill: none; stroke: #000000; stroke-width: 0.8; stroke-linejoin: miter; stroke-linecap: square"/>
   </g>
   <g id="patch_4">
    <path d="M 648 256.32 
L 648 34.56 
" style="fill: none; stroke: #000000; stroke-width: 0.8; stroke-linejoin: miter; stroke-linecap: square"/>
   </g>
   <g id="patch_5">
    <path d="M 90 256.32 
L 648 256.32 
" style="fill: none; stroke: #000000; stroke-width: 0.8; stroke-linejoin: miter; stroke-linecap: square"/>
   </g>
   <g id="patch_6">
    <path d="M 90 34.56 
L 648 34.56 
" style="fill: none; stroke: #000000; stroke-width: 0.8; stroke-linejoin: miter; stroke-linecap: square"/>
   </g>
   <g id="text_16">
    <!-- K is now at 2 -->
    <g transform="translate(330.418125 28.56) scale(0.12 -0.12)">
     <defs>
      <path id="DejaVuSans-4b" d="M 628 4666 
L 1259 4666 
L 1259 2694 
L 3353 4666 
L 4166 4666 
L 1850 2491 
L 4331 0 
L 3500 0 
L 1259 2247 
L 1259 0 
L 628 0 
L 628 4666 
z
" transform="scale(0.015625)"/>
      <path id="DejaVuSans-20" transform="scale(0.015625)"/>
      <path id="DejaVuSans-69" d="M 603 3500 
L 1178 3500 
L 1178 0 
L 603 0 
L 603 3500 
z
M 603 4863 
L 1178 4863 
L 1178 4134 
L 603 4134 
L 603 4863 
z
" transform="scale(0.015625)"/>
      <path id="DejaVuSans-73" d="M 2834 3397 
L 2834 2853 
Q 2591 2978 2328 3040 
Q 2066 3103 1784 3103 
Q 1356 3103 1142 2972 
Q 928 2841 928 2578 
Q 928 2378 1081 2264 
Q 1234 2150 1697 2047 
L 1894 2003 
Q 2506 1872 2764 1633 
Q 3022 1394 3022 966 
Q 3022 478 2636 193 
Q 2250 -91 1575 -91 
Q 1294 -91 989 -36 
Q 684 19 347 128 
L 347 722 
Q 666 556 975 473 
Q 1284 391 1588 391 
Q 1994 391 2212 530 
Q 2431 669 2431 922 
Q 2431 1156 2273 1281 
Q 2116 1406 1581 1522 
L 1381 1569 
Q 847 1681 609 1914 
Q 372 2147 372 2553 
Q 372 3047 722 3315 
Q 1072 3584 1716 3584 
Q 2034 3584 2315 3537 
Q 2597 3491 2834 3397 
z
" transform="scale(0.015625)"/>
      <path id="DejaVuSans-6e" d="M 3513 2113 
L 3513 0 
L 2938 0 
L 2938 2094 
Q 2938 2591 2744 2837 
Q 2550 3084 2163 3084 
Q 1697 3084 1428 2787 
Q 1159 2491 1159 1978 
L 1159 0 
L 581 0 
L 581 3500 
L 1159 3500 
L 1159 2956 
Q 1366 3272 1645 3428 
Q 1925 3584 2291 3584 
Q 2894 3584 3203 3211 
Q 3513 2838 3513 2113 
z
" transform="scale(0.015625)"/>
      <path id="DejaVuSans-6f" d="M 1959 3097 
Q 1497 3097 1228 2736 
Q 959 2375 959 1747 
Q 959 1119 1226 758 
Q 1494 397 1959 397 
Q 2419 397 2687 759 
Q 2956 1122 2956 1747 
Q 2956 2369 2687 2733 
Q 2419 3097 1959 3097 
z
M 1959 3584 
Q 2709 3584 3137 3096 
Q 3566 2609 3566 1747 
Q 3566 888 3137 398 
Q 2709 -91 1959 -91 
Q 1206 -91 779 398 
Q 353 888 353 1747 
Q 353 2609 779 3096 
Q 1206 3584 1959 3584 
z
" transform="scale(0.015625)"/>
      <path id="DejaVuSans-77" d="M 269 3500 
L 844 3500 
L 1563 769 
L 2278 3500 
L 2956 3500 
L 3675 769 
L 4391 3500 
L 4966 3500 
L 4050 0 
L 3372 0 
L 2619 2869 
L 1863 0 
L 1184 0 
L 269 3500 
z
" transform="scale(0.015625)"/>
      <path id="DejaVuSans-61" d="M 2194 1759 
Q 1497 1759 1228 1600 
Q 959 1441 959 1056 
Q 959 750 1161 570 
Q 1363 391 1709 391 
Q 2188 391 2477 730 
Q 2766 1069 2766 1631 
L 2766 1759 
L 2194 1759 
z
M 3341 1997 
L 3341 0 
L 2766 0 
L 2766 531 
Q 2569 213 2275 61 
Q 1981 -91 1556 -91 
Q 1019 -91 701 211 
Q 384 513 384 1019 
Q 384 1609 779 1909 
Q 1175 2209 1959 2209 
L 2766 2209 
L 2766 2266 
Q 2766 2663 2505 2880 
Q 2244 3097 1772 3097 
Q 1472 3097 1187 3025 
Q 903 2953 641 2809 
L 641 3341 
Q 956 3463 1253 3523 
Q 1550 3584 1831 3584 
Q 2591 3584 2966 3190 
Q 3341 2797 3341 1997 
z
" transform="scale(0.015625)"/>
      <path id="DejaVuSans-74" d="M 1172 4494 
L 1172 3500 
L 2356 3500 
L 2356 3053 
L 1172 3053 
L 1172 1153 
Q 1172 725 1289 603 
Q 1406 481 1766 481 
L 2356 481 
L 2356 0 
L 1766 0 
Q 1100 0 847 248 
Q 594 497 594 1153 
L 594 3053 
L 172 3053 
L 172 3500 
L 594 3500 
L 594 4494 
L 1172 4494 
z
" transform="scale(0.015625)"/>
     </defs>
     <use xlink:href="#DejaVuSans-4b"/>
     <use xlink:href="#DejaVuSans-20" x="65.576172"/>
     <use xlink:href="#DejaVuSans-69" x="97.363281"/>
     <use xlink:href="#DejaVuSans-73" x="125.146484"/>
     <use xlink:href="#DejaVuSans-20" x="177.246094"/>
     <use xlink:href="#DejaVuSans-6e" x="209.033203"/>
     <use xlink:href="#DejaVuSans-6f" x="272.412109"/>
     <use xlink:href="#DejaVuSans-77" x="333.59375"/>
     <use xlink:href="#DejaVuSans-20" x="415.380859"/>
     <use xlink:href="#DejaVuSans-61" x="447.167969"/>
     <use xlink:href="#DejaVuSans-74" x="508.447266"/>
     <use xlink:href="#DejaVuSans-20" x="547.65625"/>
     <use xlink:href="#DejaVuSans-32" x="579.443359"/>
    </g>
   </g>
  </g>
 </g>
 <defs>
  <clipPath id="pa3ecdbed4c">
   <rect x="90" y="34.56" width="558" height="221.76"/>
  </clipPath>
 </defs>
</svg>
