<?xml version="1.0" encoding="utf-8" standalone="no"?>
<!DOCTYPE svg PUBLIC "-//W3C//DTD SVG 1.1//EN"
  "http://www.w3.org/Graphics/SVG/1.1/DTD/svg11.dtd">
<svg xmlns:xlink="http://www.w3.org/1999/xlink" width="720pt" height="288pt" viewBox="0 0 720 288" xmlns="http://www.w3.org/2000/svg" version="1.1">
 <metadata>
  <rdf:RDF xmlns:dc="http://purl.org/dc/elements/1.1/" xmlns:cc="http://creativecommons.org/ns#" xmlns:rdf="http://www.w3.org/1999/02/22-rdf-syntax-ns#">
   <cc:Work>
    <dc:type rdf:resource="http://purl.org/dc/dcmitype/StillImage"/>
    <dc:date>2023-12-05T23:15:36.373784</dc:date>
    <dc:format>image/svg+xml</dc:format>
    <dc:creator>
     <cc:Agent>
      <dc:title>Matplotlib v3.6.2, https://matplotlib.org/</dc:title>
     </cc:Agent>
    </dc:creator>
   </cc:Work>
  </rdf:RDF>
 </metadata>
 <defs>
  <style type="text/css">*{stroke-linejoin: round; stroke-linecap: butt}</style>
 </defs>
 <g id="figure_1">
  <g id="patch_1">
   <path d="M 0 288 
L 720 288 
L 720 0 
L 0 0 
z
" style="fill: #ffffff"/>
  </g>
  <g id="axes_1">
   <g id="patch_2">
    <path d="M 90 256.32 
L 648 256.32 
L 648 34.56 
L 90 34.56 
z
" style="fill: #ffffff"/>
   </g>
   <g id="matplotlib.axis_1">
    <g id="xtick_1">
     <g id="line2d_1">
      <defs>
       <path id="m4315cecf0b" d="M 0 0 
L 0 3.5 
" style="stroke: #000000; stroke-width: 0.8"/>
      </defs>
      <g>
       <use xlink:href="#m4315cecf0b" x="115.363636" y="256.32" style="stroke: #000000; stroke-width: 0.8"/>
      </g>
     </g>
     <g id="text_1">
      <!-- 0 -->
      <g transform="translate(112.182386 270.918437) scale(0.1 -0.1)">
       <defs>
        <path id="DejaVuSans-30" d="M 2034 4250 
Q 1547 4250 1301 3770 
Q 1056 3291 1056 2328 
Q 1056 1369 1301 889 
Q 1547 409 2034 409 
Q 2525 409 2770 889 
Q 3016 1369 3016 2328 
Q 3016 3291 2770 3770 
Q 2525 4250 2034 4250 
z
M 2034 4750 
Q 2819 4750 3233 4129 
Q 3647 3509 3647 2328 
Q 3647 1150 3233 529 
Q 2819 -91 2034 -91 
Q 1250 -91 836 529 
Q 422 1150 422 2328 
Q 422 3509 836 4129 
Q 1250 4750 2034 4750 
z
" transform="scale(0.015625)"/>
       </defs>
       <use xlink:href="#DejaVuSans-30"/>
      </g>
     </g>
    </g>
    <g id="xtick_2">
     <g id="line2d_2">
      <g>
       <use xlink:href="#m4315cecf0b" x="214.634229" y="256.32" style="stroke: #000000; stroke-width: 0.8"/>
      </g>
     </g>
     <g id="text_2">
      <!-- 100 -->
      <g transform="translate(205.090479 270.918437) scale(0.1 -0.1)">
       <defs>
        <path id="DejaVuSans-31" d="M 794 531 
L 1825 531 
L 1825 4091 
L 703 3866 
L 703 4441 
L 1819 4666 
L 2450 4666 
L 2450 531 
L 3481 531 
L 3481 0 
L 794 0 
L 794 531 
z
" transform="scale(0.015625)"/>
       </defs>
       <use xlink:href="#DejaVuSans-31"/>
       <use xlink:href="#DejaVuSans-30" x="63.623047"/>
       <use xlink:href="#DejaVuSans-30" x="127.246094"/>
      </g>
     </g>
    </g>
    <g id="xtick_3">
     <g id="line2d_3">
      <g>
       <use xlink:href="#m4315cecf0b" x="313.904821" y="256.32" style="stroke: #000000; stroke-width: 0.8"/>
      </g>
     </g>
     <g id="text_3">
      <!-- 200 -->
      <g transform="translate(304.361071 270.918437) scale(0.1 -0.1)">
       <defs>
        <path id="DejaVuSans-32" d="M 1228 531 
L 3431 531 
L 3431 0 
L 469 0 
L 469 531 
Q 828 903 1448 1529 
Q 2069 2156 2228 2338 
Q 2531 2678 2651 2914 
Q 2772 3150 2772 3378 
Q 2772 3750 2511 3984 
Q 2250 4219 1831 4219 
Q 1534 4219 1204 4116 
Q 875 4013 500 3803 
L 500 4441 
Q 881 4594 1212 4672 
Q 1544 4750 1819 4750 
Q 2544 4750 2975 4387 
Q 3406 4025 3406 3419 
Q 3406 3131 3298 2873 
Q 3191 2616 2906 2266 
Q 2828 2175 2409 1742 
Q 1991 1309 1228 531 
z
" transform="scale(0.015625)"/>
       </defs>
       <use xlink:href="#DejaVuSans-32"/>
       <use xlink:href="#DejaVuSans-30" x="63.623047"/>
       <use xlink:href="#DejaVuSans-30" x="127.246094"/>
      </g>
     </g>
    </g>
    <g id="xtick_4">
     <g id="line2d_4">
      <g>
       <use xlink:href="#m4315cecf0b" x="413.175414" y="256.32" style="stroke: #000000; stroke-width: 0.8"/>
      </g>
     </g>
     <g id="text_4">
      <!-- 300 -->
      <g transform="translate(403.631664 270.918437) scale(0.1 -0.1)">
       <defs>
        <path id="DejaVuSans-33" d="M 2597 2516 
Q 3050 2419 3304 2112 
Q 3559 1806 3559 1356 
Q 3559 666 3084 287 
Q 2609 -91 1734 -91 
Q 1441 -91 1130 -33 
Q 819 25 488 141 
L 488 750 
Q 750 597 1062 519 
Q 1375 441 1716 441 
Q 2309 441 2620 675 
Q 2931 909 2931 1356 
Q 2931 1769 2642 2001 
Q 2353 2234 1838 2234 
L 1294 2234 
L 1294 2753 
L 1863 2753 
Q 2328 2753 2575 2939 
Q 2822 3125 2822 3475 
Q 2822 3834 2567 4026 
Q 2313 4219 1838 4219 
Q 1578 4219 1281 4162 
Q 984 4106 628 3988 
L 628 4550 
Q 988 4650 1302 4700 
Q 1616 4750 1894 4750 
Q 2613 4750 3031 4423 
Q 3450 4097 3450 3541 
Q 3450 3153 3228 2886 
Q 3006 2619 2597 2516 
z
" transform="scale(0.015625)"/>
       </defs>
       <use xlink:href="#DejaVuSans-33"/>
       <use xlink:href="#DejaVuSans-30" x="63.623047"/>
       <use xlink:href="#DejaVuSans-30" x="127.246094"/>
      </g>
     </g>
    </g>
    <g id="xtick_5">
     <g id="line2d_5">
      <g>
       <use xlink:href="#m4315cecf0b" x="512.446006" y="256.32" style="stroke: #000000; stroke-width: 0.8"/>
      </g>
     </g>
     <g id="text_5">
      <!-- 400 -->
      <g transform="translate(502.902256 270.918437) scale(0.1 -0.1)">
       <defs>
        <path id="DejaVuSans-34" d="M 2419 4116 
L 825 1625 
L 2419 1625 
L 2419 4116 
z
M 2253 4666 
L 3047 4666 
L 3047 1625 
L 3713 1625 
L 3713 1100 
L 3047 1100 
L 3047 0 
L 2419 0 
L 2419 1100 
L 313 1100 
L 313 1709 
L 2253 4666 
z
" transform="scale(0.015625)"/>
       </defs>
       <use xlink:href="#DejaVuSans-34"/>
       <use xlink:href="#DejaVuSans-30" x="63.623047"/>
       <use xlink:href="#DejaVuSans-30" x="127.246094"/>
      </g>
     </g>
    </g>
    <g id="xtick_6">
     <g id="line2d_6">
      <g>
       <use xlink:href="#m4315cecf0b" x="611.716598" y="256.32" style="stroke: #000000; stroke-width: 0.8"/>
      </g>
     </g>
     <g id="text_6">
      <!-- 500 -->
      <g transform="translate(602.172848 270.918437) scale(0.1 -0.1)">
       <defs>
        <path id="DejaVuSans-35" d="M 691 4666 
L 3169 4666 
L 3169 4134 
L 1269 4134 
L 1269 2991 
Q 1406 3038 1543 3061 
Q 1681 3084 1819 3084 
Q 2600 3084 3056 2656 
Q 3513 2228 3513 1497 
Q 3513 744 3044 326 
Q 2575 -91 1722 -91 
Q 1428 -91 1123 -41 
Q 819 9 494 109 
L 494 744 
Q 775 591 1075 516 
Q 1375 441 1709 441 
Q 2250 441 2565 725 
Q 2881 1009 2881 1497 
Q 2881 1984 2565 2268 
Q 2250 2553 1709 2553 
Q 1456 2553 1204 2497 
Q 953 2441 691 2322 
L 691 4666 
z
" transform="scale(0.015625)"/>
       </defs>
       <use xlink:href="#DejaVuSans-35"/>
       <use xlink:href="#DejaVuSans-30" x="63.623047"/>
       <use xlink:href="#DejaVuSans-30" x="127.246094"/>
      </g>
     </g>
    </g>
   </g>
   <g id="matplotlib.axis_2">
    <g id="ytick_1">
     <g id="line2d_7">
      <defs>
       <path id="ma919c3e4f8" d="M 0 0 
L -3.5 0 
" style="stroke: #000000; stroke-width: 0.8"/>
      </defs>
      <g>
       <use xlink:href="#ma919c3e4f8" x="90" y="228.116092" style="stroke: #000000; stroke-width: 0.8"/>
      </g>
     </g>
     <g id="text_7">
      <!-- −0.00081 -->
      <g transform="translate(33.267187 231.915311) scale(0.1 -0.1)">
       <defs>
        <path id="DejaVuSans-2212" d="M 678 2272 
L 4684 2272 
L 4684 1741 
L 678 1741 
L 678 2272 
z
" transform="scale(0.015625)"/>
        <path id="DejaVuSans-2e" d="M 684 794 
L 1344 794 
L 1344 0 
L 684 0 
L 684 794 
z
" transform="scale(0.015625)"/>
        <path id="DejaVuSans-38" d="M 2034 2216 
Q 1584 2216 1326 1975 
Q 1069 1734 1069 1313 
Q 1069 891 1326 650 
Q 1584 409 2034 409 
Q 2484 409 2743 651 
Q 3003 894 3003 1313 
Q 3003 1734 2745 1975 
Q 2488 2216 2034 2216 
z
M 1403 2484 
Q 997 2584 770 2862 
Q 544 3141 544 3541 
Q 544 4100 942 4425 
Q 1341 4750 2034 4750 
Q 2731 4750 3128 4425 
Q 3525 4100 3525 3541 
Q 3525 3141 3298 2862 
Q 3072 2584 2669 2484 
Q 3125 2378 3379 2068 
Q 3634 1759 3634 1313 
Q 3634 634 3220 271 
Q 2806 -91 2034 -91 
Q 1263 -91 848 271 
Q 434 634 434 1313 
Q 434 1759 690 2068 
Q 947 2378 1403 2484 
z
M 1172 3481 
Q 1172 3119 1398 2916 
Q 1625 2713 2034 2713 
Q 2441 2713 2670 2916 
Q 2900 3119 2900 3481 
Q 2900 3844 2670 4047 
Q 2441 4250 2034 4250 
Q 1625 4250 1398 4047 
Q 1172 3844 1172 3481 
z
" transform="scale(0.015625)"/>
       </defs>
       <use xlink:href="#DejaVuSans-2212"/>
       <use xlink:href="#DejaVuSans-30" x="83.789062"/>
       <use xlink:href="#DejaVuSans-2e" x="147.412109"/>
       <use xlink:href="#DejaVuSans-30" x="179.199219"/>
       <use xlink:href="#DejaVuSans-30" x="242.822266"/>
       <use xlink:href="#DejaVuSans-30" x="306.445312"/>
       <use xlink:href="#DejaVuSans-38" x="370.068359"/>
       <use xlink:href="#DejaVuSans-31" x="433.691406"/>
      </g>
     </g>
    </g>
    <g id="ytick_2">
     <g id="line2d_8">
      <g>
       <use xlink:href="#ma919c3e4f8" x="90" y="197.900582" style="stroke: #000000; stroke-width: 0.8"/>
      </g>
     </g>
     <g id="text_8">
      <!-- −0.00080 -->
      <g transform="translate(33.267187 201.699801) scale(0.1 -0.1)">
       <use xlink:href="#DejaVuSans-2212"/>
       <use xlink:href="#DejaVuSans-30" x="83.789062"/>
       <use xlink:href="#DejaVuSans-2e" x="147.412109"/>
       <use xlink:href="#DejaVuSans-30" x="179.199219"/>
       <use xlink:href="#DejaVuSans-30" x="242.822266"/>
       <use xlink:href="#DejaVuSans-30" x="306.445312"/>
       <use xlink:href="#DejaVuSans-38" x="370.068359"/>
       <use xlink:href="#DejaVuSans-30" x="433.691406"/>
      </g>
     </g>
    </g>
    <g id="ytick_3">
     <g id="line2d_9">
      <g>
       <use xlink:href="#ma919c3e4f8" x="90" y="167.685072" style="stroke: #000000; stroke-width: 0.8"/>
      </g>
     </g>
     <g id="text_9">
      <!-- −0.00079 -->
      <g transform="translate(33.267187 171.484291) scale(0.1 -0.1)">
       <defs>
        <path id="DejaVuSans-37" d="M 525 4666 
L 3525 4666 
L 3525 4397 
L 1831 0 
L 1172 0 
L 2766 4134 
L 525 4134 
L 525 4666 
z
" transform="scale(0.015625)"/>
        <path id="DejaVuSans-39" d="M 703 97 
L 703 672 
Q 941 559 1184 500 
Q 1428 441 1663 441 
Q 2288 441 2617 861 
Q 2947 1281 2994 2138 
Q 2813 1869 2534 1725 
Q 2256 1581 1919 1581 
Q 1219 1581 811 2004 
Q 403 2428 403 3163 
Q 403 3881 828 4315 
Q 1253 4750 1959 4750 
Q 2769 4750 3195 4129 
Q 3622 3509 3622 2328 
Q 3622 1225 3098 567 
Q 2575 -91 1691 -91 
Q 1453 -91 1209 -44 
Q 966 3 703 97 
z
M 1959 2075 
Q 2384 2075 2632 2365 
Q 2881 2656 2881 3163 
Q 2881 3666 2632 3958 
Q 2384 4250 1959 4250 
Q 1534 4250 1286 3958 
Q 1038 3666 1038 3163 
Q 1038 2656 1286 2365 
Q 1534 2075 1959 2075 
z
" transform="scale(0.015625)"/>
       </defs>
       <use xlink:href="#DejaVuSans-2212"/>
       <use xlink:href="#DejaVuSans-30" x="83.789062"/>
       <use xlink:href="#DejaVuSans-2e" x="147.412109"/>
       <use xlink:href="#DejaVuSans-30" x="179.199219"/>
       <use xlink:href="#DejaVuSans-30" x="242.822266"/>
       <use xlink:href="#DejaVuSans-30" x="306.445312"/>
       <use xlink:href="#DejaVuSans-37" x="370.068359"/>
       <use xlink:href="#DejaVuSans-39" x="433.691406"/>
      </g>
     </g>
    </g>
    <g id="ytick_4">
     <g id="line2d_10">
      <g>
       <use xlink:href="#ma919c3e4f8" x="90" y="137.469562" style="stroke: #000000; stroke-width: 0.8"/>
      </g>
     </g>
     <g id="text_10">
      <!-- −0.00078 -->
      <g transform="translate(33.267187 141.268781) scale(0.1 -0.1)">
       <use xlink:href="#DejaVuSans-2212"/>
       <use xlink:href="#DejaVuSans-30" x="83.789062"/>
       <use xlink:href="#DejaVuSans-2e" x="147.412109"/>
       <use xlink:href="#DejaVuSans-30" x="179.199219"/>
       <use xlink:href="#DejaVuSans-30" x="242.822266"/>
       <use xlink:href="#DejaVuSans-30" x="306.445312"/>
       <use xlink:href="#DejaVuSans-37" x="370.068359"/>
       <use xlink:href="#DejaVuSans-38" x="433.691406"/>
      </g>
     </g>
    </g>
    <g id="ytick_5">
     <g id="line2d_11">
      <g>
       <use xlink:href="#ma919c3e4f8" x="90" y="107.254052" style="stroke: #000000; stroke-width: 0.8"/>
      </g>
     </g>
     <g id="text_11">
      <!-- −0.00077 -->
      <g transform="translate(33.267187 111.053271) scale(0.1 -0.1)">
       <use xlink:href="#DejaVuSans-2212"/>
       <use xlink:href="#DejaVuSans-30" x="83.789062"/>
       <use xlink:href="#DejaVuSans-2e" x="147.412109"/>
       <use xlink:href="#DejaVuSans-30" x="179.199219"/>
       <use xlink:href="#DejaVuSans-30" x="242.822266"/>
       <use xlink:href="#DejaVuSans-30" x="306.445312"/>
       <use xlink:href="#DejaVuSans-37" x="370.068359"/>
       <use xlink:href="#DejaVuSans-37" x="433.691406"/>
      </g>
     </g>
    </g>
    <g id="ytick_6">
     <g id="line2d_12">
      <g>
       <use xlink:href="#ma919c3e4f8" x="90" y="77.038542" style="stroke: #000000; stroke-width: 0.8"/>
      </g>
     </g>
     <g id="text_12">
      <!-- −0.00076 -->
      <g transform="translate(33.267187 80.837761) scale(0.1 -0.1)">
       <defs>
        <path id="DejaVuSans-36" d="M 2113 2584 
Q 1688 2584 1439 2293 
Q 1191 2003 1191 1497 
Q 1191 994 1439 701 
Q 1688 409 2113 409 
Q 2538 409 2786 701 
Q 3034 994 3034 1497 
Q 3034 2003 2786 2293 
Q 2538 2584 2113 2584 
z
M 3366 4563 
L 3366 3988 
Q 3128 4100 2886 4159 
Q 2644 4219 2406 4219 
Q 1781 4219 1451 3797 
Q 1122 3375 1075 2522 
Q 1259 2794 1537 2939 
Q 1816 3084 2150 3084 
Q 2853 3084 3261 2657 
Q 3669 2231 3669 1497 
Q 3669 778 3244 343 
Q 2819 -91 2113 -91 
Q 1303 -91 875 529 
Q 447 1150 447 2328 
Q 447 3434 972 4092 
Q 1497 4750 2381 4750 
Q 2619 4750 2861 4703 
Q 3103 4656 3366 4563 
z
" transform="scale(0.015625)"/>
       </defs>
       <use xlink:href="#DejaVuSans-2212"/>
       <use xlink:href="#DejaVuSans-30" x="83.789062"/>
       <use xlink:href="#DejaVuSans-2e" x="147.412109"/>
       <use xlink:href="#DejaVuSans-30" x="179.199219"/>
       <use xlink:href="#DejaVuSans-30" x="242.822266"/>
       <use xlink:href="#DejaVuSans-30" x="306.445312"/>
       <use xlink:href="#DejaVuSans-37" x="370.068359"/>
       <use xlink:href="#DejaVuSans-36" x="433.691406"/>
      </g>
     </g>
    </g>
    <g id="ytick_7">
     <g id="line2d_13">
      <g>
       <use xlink:href="#ma919c3e4f8" x="90" y="46.823032" style="stroke: #000000; stroke-width: 0.8"/>
      </g>
     </g>
     <g id="text_13">
      <!-- −0.00075 -->
      <g transform="translate(33.267187 50.622251) scale(0.1 -0.1)">
       <use xlink:href="#DejaVuSans-2212"/>
       <use xlink:href="#DejaVuSans-30" x="83.789062"/>
       <use xlink:href="#DejaVuSans-2e" x="147.412109"/>
       <use xlink:href="#DejaVuSans-30" x="179.199219"/>
       <use xlink:href="#DejaVuSans-30" x="242.822266"/>
       <use xlink:href="#DejaVuSans-30" x="306.445312"/>
       <use xlink:href="#DejaVuSans-37" x="370.068359"/>
       <use xlink:href="#DejaVuSans-35" x="433.691406"/>
      </g>
     </g>
    </g>
   </g>
   <g id="line2d_14">
    <path d="M 115.363636 106.394171 
L 116.356342 104.714778 
L 117.349048 101.396852 
L 118.341754 96.25787 
L 119.33446 88.801062 
L 120.327166 80.370629 
L 123.305284 52.60319 
L 124.29799 46.923009 
L 125.290696 44.64 
L 126.283402 45.907559 
L 127.276107 50.023487 
L 128.268813 56.323817 
L 130.254225 70.466761 
L 131.246931 75.553111 
L 132.239637 79.684644 
L 134.225049 86.051388 
L 135.217755 87.463923 
L 136.210461 88.324642 
L 137.203167 89.023757 
L 138.195873 89.490014 
L 139.188579 89.297474 
L 140.181284 88.831026 
L 141.17399 89.289685 
L 142.166696 91.31073 
L 143.159402 95.803353 
L 144.152108 102.97566 
L 145.144814 112.332102 
L 147.130226 134.556426 
L 150.108344 173.453032 
L 152.093756 196.300223 
L 153.086461 206.461199 
L 154.079167 214.037444 
L 155.071873 219.777537 
L 156.064579 224.065463 
L 157.057285 226.717765 
L 158.049991 228.69196 
L 159.042697 229.517247 
L 160.035403 228.799354 
L 161.028109 226.609203 
L 162.020815 223.106627 
L 165.991638 205.993294 
L 166.984344 203.116784 
L 167.97705 201.533244 
L 171.947874 197.695401 
L 172.94058 197.352477 
L 175.918698 197.477041 
L 176.911404 197.661964 
L 177.90411 197.506449 
L 178.896816 197.108078 
L 179.889521 196.223605 
L 182.867639 192.16439 
L 184.853051 190.357602 
L 185.845757 189.762842 
L 186.838463 189.783124 
L 187.831169 190.050744 
L 188.823875 190.572903 
L 192.794698 194.182764 
L 193.787404 194.832679 
L 194.78011 195.280037 
L 195.772816 195.378432 
L 196.765522 195.219721 
L 198.750934 194.556213 
L 200.736346 194.45477 
L 201.729052 194.497202 
L 205.699875 196.247009 
L 206.692581 196.897768 
L 207.685287 197.14467 
L 208.677993 197.060343 
L 209.670699 196.48184 
L 212.648817 193.98945 
L 213.641523 192.992696 
L 215.626935 190.300474 
L 216.619641 188.888732 
L 219.597758 183.470315 
L 220.590464 181.85886 
L 221.58317 180.650585 
L 222.575876 179.831184 
L 223.568582 179.531704 
L 227.539406 176.596178 
L 228.532112 175.777062 
L 229.524818 174.730505 
L 236.473759 169.753349 
L 237.466465 169.466302 
L 239.451877 169.732635 
L 240.444583 169.550494 
L 241.437289 168.810752 
L 243.422701 166.033182 
L 245.408112 162.339471 
L 246.400818 160.843973 
L 247.393524 160.159634 
L 248.38623 160.099112 
L 249.378936 160.302811 
L 250.371642 161.575295 
L 252.357054 164.42556 
L 253.34976 165.796233 
L 255.335172 169.368964 
L 257.320584 171.80449 
L 259.305995 175.712585 
L 260.298701 177.265621 
L 262.284113 179.530069 
L 263.276819 180.475573 
L 264.269525 181.093852 
L 266.254937 183.397055 
L 268.240349 187.108446 
L 270.225761 191.048656 
L 274.196584 197.236835 
L 275.18929 198.4475 
L 276.181996 199.973471 
L 277.174702 201.229704 
L 278.167408 202.231428 
L 281.145526 206.113632 
L 282.138232 206.771007 
L 283.130938 207.229614 
L 284.123643 207.877338 
L 286.109055 208.042727 
L 287.101761 208.357434 
L 289.087173 209.780491 
L 294.050703 211.441054 
L 299.014232 214.332043 
L 300.006938 214.603409 
L 300.999644 214.324988 
L 301.99235 214.250441 
L 302.985056 213.956558 
L 303.977762 213.163571 
L 305.963174 212.608736 
L 306.95588 212.889046 
L 307.948586 212.822462 
L 308.941292 213.214988 
L 310.926703 214.66293 
L 312.912115 216.65415 
L 313.904821 217.307463 
L 314.897527 217.570544 
L 315.890233 217.340685 
L 318.868351 215.9413 
L 320.853763 216.323511 
L 321.846469 216.263111 
L 322.839175 215.920467 
L 323.83188 215.317031 
L 325.817292 213.610105 
L 326.809998 212.889674 
L 328.79541 212.700299 
L 330.780822 212.166329 
L 331.773528 211.552578 
L 332.766234 211.160996 
L 333.75894 210.526657 
L 334.751646 209.525514 
L 335.744352 208.921264 
L 337.729763 208.244557 
L 338.722469 207.806799 
L 339.715175 207.595763 
L 341.700587 208.3591 
L 342.693293 208.505484 
L 344.678705 209.970438 
L 345.671411 210.365026 
L 347.656823 211.799467 
L 349.642234 212.574425 
L 350.63494 213.284454 
L 352.620352 215.432447 
L 354.605764 217.423343 
L 355.59847 217.927907 
L 356.591176 217.809426 
L 357.583882 216.679352 
L 358.576588 214.595902 
L 359.569294 211.598405 
L 360.562 207.960772 
L 365.525529 187.868607 
L 367.510941 182.837691 
L 368.503647 180.658134 
L 369.496353 178.854032 
L 370.489059 177.758786 
L 372.474471 174.469062 
L 373.467177 173.216643 
L 374.459883 172.234347 
L 376.445294 170.782204 
L 378.430706 169.489382 
L 379.423412 168.724408 
L 380.416118 168.345854 
L 382.40153 168.087492 
L 384.386942 168.896807 
L 385.379648 169.417425 
L 386.372354 170.131781 
L 388.357766 171.145882 
L 389.350471 171.814267 
L 390.343177 173.021025 
L 391.335883 174.027897 
L 393.321295 174.460631 
L 395.306707 175.092374 
L 397.292119 174.280477 
L 398.284825 174.36425 
L 399.277531 174.663354 
L 401.262943 174.516877 
L 402.255648 174.285009 
L 403.248354 174.177675 
L 406.226472 172.544721 
L 407.219178 172.229266 
L 408.211884 172.240687 
L 409.20459 172.913034 
L 410.197296 173.764413 
L 412.182708 176.636663 
L 413.175414 178.71294 
L 415.160825 183.30678 
L 416.153531 185.467358 
L 417.146237 187.268501 
L 418.138943 188.770788 
L 419.131649 189.786379 
L 421.117061 190.899897 
L 422.109767 191.18045 
L 424.095179 191.090093 
L 425.087885 191.246492 
L 426.080591 190.934047 
L 427.073297 190.449257 
L 428.066002 190.211306 
L 431.04412 190.513373 
L 432.036826 190.923198 
L 437.000356 194.040342 
L 437.993062 195.034303 
L 439.978474 198.033753 
L 440.97118 199.385667 
L 441.963885 200.33103 
L 444.942003 204.166552 
L 445.934709 205.151109 
L 448.912827 207.163996 
L 449.905533 207.473973 
L 450.898239 207.48612 
L 451.890945 208.369155 
L 452.883651 209.820085 
L 453.876357 211.65589 
L 456.854474 215.234758 
L 458.839886 217.379807 
L 461.818004 221.602238 
L 462.81071 222.834029 
L 463.803416 223.767387 
L 464.796122 224.426064 
L 465.788828 224.66077 
L 466.781534 224.758515 
L 467.774239 224.481857 
L 468.766945 224.323096 
L 469.759651 223.539354 
L 471.745063 220.866012 
L 472.737769 220.319183 
L 473.730475 220.710865 
L 474.723181 221.395751 
L 475.715887 222.68191 
L 477.701299 227.499368 
L 478.694005 229.154076 
L 479.686711 230.362462 
L 482.664828 233.412404 
L 484.65024 236.181078 
L 486.635652 239.04178 
L 487.628358 240.055798 
L 490.606476 241.042968 
L 494.577299 244.600358 
L 496.562711 245.458062 
L 497.555417 245.544104 
L 498.548123 245.391401 
L 499.540829 244.814965 
L 501.526241 244.025058 
L 502.518947 243.519349 
L 504.504359 242.832651 
L 505.497065 242.765986 
L 506.489771 242.831837 
L 507.482476 242.678504 
L 508.475182 242.894342 
L 510.460594 242.790418 
L 512.446006 243.151272 
L 513.438712 243.851504 
L 514.431418 244.365205 
L 515.424124 245.011432 
L 516.41683 245.863964 
L 518.402242 246.24 
L 519.394948 246.115945 
L 520.387653 245.35156 
L 524.358477 239.897593 
L 526.343889 236.606952 
L 527.336595 235.420785 
L 530.314713 231.245236 
L 531.307419 230.382781 
L 532.300125 230.415943 
L 534.285536 231.137461 
L 536.270948 232.797634 
L 537.263654 233.129467 
L 538.25636 232.872718 
L 539.249066 232.212969 
L 542.227184 229.564302 
L 543.21989 229.006917 
L 544.212596 228.781288 
L 547.190713 229.248762 
L 548.183419 229.31879 
L 549.176125 229.921416 
L 550.168831 230.07094 
L 551.161537 229.725114 
L 552.154243 229.590751 
L 553.146949 229.013371 
L 554.139655 227.804405 
L 556.125067 223.429036 
L 557.117773 220.325368 
L 558.110479 216.55353 
L 560.09589 207.437091 
L 563.074008 191.246018 
L 564.066714 186.602121 
L 565.05942 183.08006 
L 569.030244 172.053911 
L 570.02295 169.858034 
L 572.008362 164.806307 
L 573.001067 162.892525 
L 575.979185 158.895978 
L 576.971891 156.797918 
L 577.964597 155.29833 
L 578.957303 155.061294 
L 581.935421 158.378652 
L 582.928127 159.877401 
L 583.920833 161.126685 
L 584.913539 161.875545 
L 585.906244 161.305626 
L 586.89895 159.343395 
L 588.884362 154.33033 
L 589.877068 151.132983 
L 590.869774 146.508224 
L 591.86248 142.542597 
L 592.855186 139.509279 
L 593.847892 137.861275 
L 594.840598 135.84557 
L 595.833304 135.720859 
L 597.818716 136.352726 
L 598.811421 136.272396 
L 599.804127 134.604155 
L 600.796833 132.534364 
L 601.789539 128.768943 
L 602.782245 124.522517 
L 603.774951 119.104278 
L 604.767657 114.726696 
L 605.760363 111.678916 
L 606.753069 110.008594 
L 607.745775 109.333556 
L 610.723893 106.902122 
L 611.716598 106.625496 
L 612.709304 106.552934 
L 613.70201 106.32461 
L 614.694716 107.238992 
L 615.687422 109.747718 
L 616.680128 113.210694 
L 617.672834 116.249546 
L 618.66554 118.530794 
L 619.658246 119.962112 
L 620.650952 120.979999 
L 621.643658 121.43459 
L 622.636364 121.701219 
L 622.636364 121.701219 
" clip-path="url(#p152c681988)" style="fill: none; stroke: #1f77b4; stroke-width: 1.5; stroke-linecap: square"/>
   </g>
   <g id="patch_3">
    <path d="M 90 256.32 
L 90 34.56 
" style="fill: none; stroke: #000000; stroke-width: 0.8; stroke-linejoin: miter; stroke-linecap: square"/>
   </g>
   <g id="patch_4">
    <path d="M 648 256.32 
L 648 34.56 
" style="fill: none; stroke: #000000; stroke-width: 0.8; stroke-linejoin: miter; stroke-linecap: square"/>
   </g>
   <g id="patch_5">
    <path d="M 90 256.32 
L 648 256.32 
" style="fill: none; stroke: #000000; stroke-width: 0.8; stroke-linejoin: miter; stroke-linecap: square"/>
   </g>
   <g id="patch_6">
    <path d="M 90 34.56 
L 648 34.56 
" style="fill: none; stroke: #000000; stroke-width: 0.8; stroke-linejoin: miter; stroke-linecap: square"/>
   </g>
   <g id="text_14">
    <!-- K is now at 1 -->
    <g transform="translate(330.418125 28.56) scale(0.12 -0.12)">
     <defs>
      <path id="DejaVuSans-4b" d="M 628 4666 
L 1259 4666 
L 1259 2694 
L 3353 4666 
L 4166 4666 
L 1850 2491 
L 4331 0 
L 3500 0 
L 1259 2247 
L 1259 0 
L 628 0 
L 628 4666 
z
" transform="scale(0.015625)"/>
      <path id="DejaVuSans-20" transform="scale(0.015625)"/>
      <path id="DejaVuSans-69" d="M 603 3500 
L 1178 3500 
L 1178 0 
L 603 0 
L 603 3500 
z
M 603 4863 
L 1178 4863 
L 1178 4134 
L 603 4134 
L 603 4863 
z
" transform="scale(0.015625)"/>
      <path id="DejaVuSans-73" d="M 2834 3397 
L 2834 2853 
Q 2591 2978 2328 3040 
Q 2066 3103 1784 3103 
Q 1356 3103 1142 2972 
Q 928 2841 928 2578 
Q 928 2378 1081 2264 
Q 1234 2150 1697 2047 
L 1894 2003 
Q 2506 1872 2764 1633 
Q 3022 1394 3022 966 
Q 3022 478 2636 193 
Q 2250 -91 1575 -91 
Q 1294 -91 989 -36 
Q 684 19 347 128 
L 347 722 
Q 666 556 975 473 
Q 1284 391 1588 391 
Q 1994 391 2212 530 
Q 2431 669 2431 922 
Q 2431 1156 2273 1281 
Q 2116 1406 1581 1522 
L 1381 1569 
Q 847 1681 609 1914 
Q 372 2147 372 2553 
Q 372 3047 722 3315 
Q 1072 3584 1716 3584 
Q 2034 3584 2315 3537 
Q 2597 3491 2834 3397 
z
" transform="scale(0.015625)"/>
      <path id="DejaVuSans-6e" d="M 3513 2113 
L 3513 0 
L 2938 0 
L 2938 2094 
Q 2938 2591 2744 2837 
Q 2550 3084 2163 3084 
Q 1697 3084 1428 2787 
Q 1159 2491 1159 1978 
L 1159 0 
L 581 0 
L 581 3500 
L 1159 3500 
L 1159 2956 
Q 1366 3272 1645 3428 
Q 1925 3584 2291 3584 
Q 2894 3584 3203 3211 
Q 3513 2838 3513 2113 
z
" transform="scale(0.015625)"/>
      <path id="DejaVuSans-6f" d="M 1959 3097 
Q 1497 3097 1228 2736 
Q 959 2375 959 1747 
Q 959 1119 1226 758 
Q 1494 397 1959 397 
Q 2419 397 2687 759 
Q 2956 1122 2956 1747 
Q 2956 2369 2687 2733 
Q 2419 3097 1959 3097 
z
M 1959 3584 
Q 2709 3584 3137 3096 
Q 3566 2609 3566 1747 
Q 3566 888 3137 398 
Q 2709 -91 1959 -91 
Q 1206 -91 779 398 
Q 353 888 353 1747 
Q 353 2609 779 3096 
Q 1206 3584 1959 3584 
z
" transform="scale(0.015625)"/>
      <path id="DejaVuSans-77" d="M 269 3500 
L 844 3500 
L 1563 769 
L 2278 3500 
L 2956 3500 
L 3675 769 
L 4391 3500 
L 4966 3500 
L 4050 0 
L 3372 0 
L 2619 2869 
L 1863 0 
L 1184 0 
L 269 3500 
z
" transform="scale(0.015625)"/>
      <path id="DejaVuSans-61" d="M 2194 1759 
Q 1497 1759 1228 1600 
Q 959 1441 959 1056 
Q 959 750 1161 570 
Q 1363 391 1709 391 
Q 2188 391 2477 730 
Q 2766 1069 2766 1631 
L 2766 1759 
L 2194 1759 
z
M 3341 1997 
L 3341 0 
L 2766 0 
L 2766 531 
Q 2569 213 2275 61 
Q 1981 -91 1556 -91 
Q 1019 -91 701 211 
Q 384 513 384 1019 
Q 384 1609 779 1909 
Q 1175 2209 1959 2209 
L 2766 2209 
L 2766 2266 
Q 2766 2663 2505 2880 
Q 2244 3097 1772 3097 
Q 1472 3097 1187 3025 
Q 903 2953 641 2809 
L 641 3341 
Q 956 3463 1253 3523 
Q 1550 3584 1831 3584 
Q 2591 3584 2966 3190 
Q 3341 2797 3341 1997 
z
" transform="scale(0.015625)"/>
      <path id="DejaVuSans-74" d="M 1172 4494 
L 1172 3500 
L 2356 3500 
L 2356 3053 
L 1172 3053 
L 1172 1153 
Q 1172 725 1289 603 
Q 1406 481 1766 481 
L 2356 481 
L 2356 0 
L 1766 0 
Q 1100 0 847 248 
Q 594 497 594 1153 
L 594 3053 
L 172 3053 
L 172 3500 
L 594 3500 
L 594 4494 
L 1172 4494 
z
" transform="scale(0.015625)"/>
     </defs>
     <use xlink:href="#DejaVuSans-4b"/>
     <use xlink:href="#DejaVuSans-20" x="65.576172"/>
     <use xlink:href="#DejaVuSans-69" x="97.363281"/>
     <use xlink:href="#DejaVuSans-73" x="125.146484"/>
     <use xlink:href="#DejaVuSans-20" x="177.246094"/>
     <use xlink:href="#DejaVuSans-6e" x="209.033203"/>
     <use xlink:href="#DejaVuSans-6f" x="272.412109"/>
     <use xlink:href="#DejaVuSans-77" x="333.59375"/>
     <use xlink:href="#DejaVuSans-20" x="415.380859"/>
     <use xlink:href="#DejaVuSans-61" x="447.167969"/>
     <use xlink:href="#DejaVuSans-74" x="508.447266"/>
     <use xlink:href="#DejaVuSans-20" x="547.65625"/>
     <use xlink:href="#DejaVuSans-31" x="579.443359"/>
    </g>
   </g>
  </g>
 </g>
 <defs>
  <clipPath id="p152c681988">
   <rect x="90" y="34.56" width="558" height="221.76"/>
  </clipPath>
 </defs>
</svg>
