<?xml version="1.0" encoding="utf-8" standalone="no"?>
<!DOCTYPE svg PUBLIC "-//W3C//DTD SVG 1.1//EN"
  "http://www.w3.org/Graphics/SVG/1.1/DTD/svg11.dtd">
<svg xmlns:xlink="http://www.w3.org/1999/xlink" width="720pt" height="288pt" viewBox="0 0 720 288" xmlns="http://www.w3.org/2000/svg" version="1.1">
 <metadata>
  <rdf:RDF xmlns:dc="http://purl.org/dc/elements/1.1/" xmlns:cc="http://creativecommons.org/ns#" xmlns:rdf="http://www.w3.org/1999/02/22-rdf-syntax-ns#">
   <cc:Work>
    <dc:type rdf:resource="http://purl.org/dc/dcmitype/StillImage"/>
    <dc:date>2023-12-05T23:15:36.452791</dc:date>
    <dc:format>image/svg+xml</dc:format>
    <dc:creator>
     <cc:Agent>
      <dc:title>Matplotlib v3.6.2, https://matplotlib.org/</dc:title>
     </cc:Agent>
    </dc:creator>
   </cc:Work>
  </rdf:RDF>
 </metadata>
 <defs>
  <style type="text/css">*{stroke-linejoin: round; stroke-linecap: butt}</style>
 </defs>
 <g id="figure_1">
  <g id="patch_1">
   <path d="M 0 288 
L 720 288 
L 720 0 
L 0 0 
z
" style="fill: #ffffff"/>
  </g>
  <g id="axes_1">
   <g id="patch_2">
    <path d="M 90 256.32 
L 648 256.32 
L 648 34.56 
L 90 34.56 
z
" style="fill: #ffffff"/>
   </g>
   <g id="matplotlib.axis_1">
    <g id="xtick_1">
     <g id="line2d_1">
      <defs>
       <path id="mfba840667b" d="M 0 0 
L 0 3.5 
" style="stroke: #000000; stroke-width: 0.8"/>
      </defs>
      <g>
       <use xlink:href="#mfba840667b" x="115.363636" y="256.32" style="stroke: #000000; stroke-width: 0.8"/>
      </g>
     </g>
     <g id="text_1">
      <!-- 0 -->
      <g transform="translate(112.182386 270.918437) scale(0.1 -0.1)">
       <defs>
        <path id="DejaVuSans-30" d="M 2034 4250 
Q 1547 4250 1301 3770 
Q 1056 3291 1056 2328 
Q 1056 1369 1301 889 
Q 1547 409 2034 409 
Q 2525 409 2770 889 
Q 3016 1369 3016 2328 
Q 3016 3291 2770 3770 
Q 2525 4250 2034 4250 
z
M 2034 4750 
Q 2819 4750 3233 4129 
Q 3647 3509 3647 2328 
Q 3647 1150 3233 529 
Q 2819 -91 2034 -91 
Q 1250 -91 836 529 
Q 422 1150 422 2328 
Q 422 3509 836 4129 
Q 1250 4750 2034 4750 
z
" transform="scale(0.015625)"/>
       </defs>
       <use xlink:href="#DejaVuSans-30"/>
      </g>
     </g>
    </g>
    <g id="xtick_2">
     <g id="line2d_2">
      <g>
       <use xlink:href="#mfba840667b" x="214.634229" y="256.32" style="stroke: #000000; stroke-width: 0.8"/>
      </g>
     </g>
     <g id="text_2">
      <!-- 100 -->
      <g transform="translate(205.090479 270.918437) scale(0.1 -0.1)">
       <defs>
        <path id="DejaVuSans-31" d="M 794 531 
L 1825 531 
L 1825 4091 
L 703 3866 
L 703 4441 
L 1819 4666 
L 2450 4666 
L 2450 531 
L 3481 531 
L 3481 0 
L 794 0 
L 794 531 
z
" transform="scale(0.015625)"/>
       </defs>
       <use xlink:href="#DejaVuSans-31"/>
       <use xlink:href="#DejaVuSans-30" x="63.623047"/>
       <use xlink:href="#DejaVuSans-30" x="127.246094"/>
      </g>
     </g>
    </g>
    <g id="xtick_3">
     <g id="line2d_3">
      <g>
       <use xlink:href="#mfba840667b" x="313.904821" y="256.32" style="stroke: #000000; stroke-width: 0.8"/>
      </g>
     </g>
     <g id="text_3">
      <!-- 200 -->
      <g transform="translate(304.361071 270.918437) scale(0.1 -0.1)">
       <defs>
        <path id="DejaVuSans-32" d="M 1228 531 
L 3431 531 
L 3431 0 
L 469 0 
L 469 531 
Q 828 903 1448 1529 
Q 2069 2156 2228 2338 
Q 2531 2678 2651 2914 
Q 2772 3150 2772 3378 
Q 2772 3750 2511 3984 
Q 2250 4219 1831 4219 
Q 1534 4219 1204 4116 
Q 875 4013 500 3803 
L 500 4441 
Q 881 4594 1212 4672 
Q 1544 4750 1819 4750 
Q 2544 4750 2975 4387 
Q 3406 4025 3406 3419 
Q 3406 3131 3298 2873 
Q 3191 2616 2906 2266 
Q 2828 2175 2409 1742 
Q 1991 1309 1228 531 
z
" transform="scale(0.015625)"/>
       </defs>
       <use xlink:href="#DejaVuSans-32"/>
       <use xlink:href="#DejaVuSans-30" x="63.623047"/>
       <use xlink:href="#DejaVuSans-30" x="127.246094"/>
      </g>
     </g>
    </g>
    <g id="xtick_4">
     <g id="line2d_4">
      <g>
       <use xlink:href="#mfba840667b" x="413.175414" y="256.32" style="stroke: #000000; stroke-width: 0.8"/>
      </g>
     </g>
     <g id="text_4">
      <!-- 300 -->
      <g transform="translate(403.631664 270.918437) scale(0.1 -0.1)">
       <defs>
        <path id="DejaVuSans-33" d="M 2597 2516 
Q 3050 2419 3304 2112 
Q 3559 1806 3559 1356 
Q 3559 666 3084 287 
Q 2609 -91 1734 -91 
Q 1441 -91 1130 -33 
Q 819 25 488 141 
L 488 750 
Q 750 597 1062 519 
Q 1375 441 1716 441 
Q 2309 441 2620 675 
Q 2931 909 2931 1356 
Q 2931 1769 2642 2001 
Q 2353 2234 1838 2234 
L 1294 2234 
L 1294 2753 
L 1863 2753 
Q 2328 2753 2575 2939 
Q 2822 3125 2822 3475 
Q 2822 3834 2567 4026 
Q 2313 4219 1838 4219 
Q 1578 4219 1281 4162 
Q 984 4106 628 3988 
L 628 4550 
Q 988 4650 1302 4700 
Q 1616 4750 1894 4750 
Q 2613 4750 3031 4423 
Q 3450 4097 3450 3541 
Q 3450 3153 3228 2886 
Q 3006 2619 2597 2516 
z
" transform="scale(0.015625)"/>
       </defs>
       <use xlink:href="#DejaVuSans-33"/>
       <use xlink:href="#DejaVuSans-30" x="63.623047"/>
       <use xlink:href="#DejaVuSans-30" x="127.246094"/>
      </g>
     </g>
    </g>
    <g id="xtick_5">
     <g id="line2d_5">
      <g>
       <use xlink:href="#mfba840667b" x="512.446006" y="256.32" style="stroke: #000000; stroke-width: 0.8"/>
      </g>
     </g>
     <g id="text_5">
      <!-- 400 -->
      <g transform="translate(502.902256 270.918437) scale(0.1 -0.1)">
       <defs>
        <path id="DejaVuSans-34" d="M 2419 4116 
L 825 1625 
L 2419 1625 
L 2419 4116 
z
M 2253 4666 
L 3047 4666 
L 3047 1625 
L 3713 1625 
L 3713 1100 
L 3047 1100 
L 3047 0 
L 2419 0 
L 2419 1100 
L 313 1100 
L 313 1709 
L 2253 4666 
z
" transform="scale(0.015625)"/>
       </defs>
       <use xlink:href="#DejaVuSans-34"/>
       <use xlink:href="#DejaVuSans-30" x="63.623047"/>
       <use xlink:href="#DejaVuSans-30" x="127.246094"/>
      </g>
     </g>
    </g>
    <g id="xtick_6">
     <g id="line2d_6">
      <g>
       <use xlink:href="#mfba840667b" x="611.716598" y="256.32" style="stroke: #000000; stroke-width: 0.8"/>
      </g>
     </g>
     <g id="text_6">
      <!-- 500 -->
      <g transform="translate(602.172848 270.918437) scale(0.1 -0.1)">
       <defs>
        <path id="DejaVuSans-35" d="M 691 4666 
L 3169 4666 
L 3169 4134 
L 1269 4134 
L 1269 2991 
Q 1406 3038 1543 3061 
Q 1681 3084 1819 3084 
Q 2600 3084 3056 2656 
Q 3513 2228 3513 1497 
Q 3513 744 3044 326 
Q 2575 -91 1722 -91 
Q 1428 -91 1123 -41 
Q 819 9 494 109 
L 494 744 
Q 775 591 1075 516 
Q 1375 441 1709 441 
Q 2250 441 2565 725 
Q 2881 1009 2881 1497 
Q 2881 1984 2565 2268 
Q 2250 2553 1709 2553 
Q 1456 2553 1204 2497 
Q 953 2441 691 2322 
L 691 4666 
z
" transform="scale(0.015625)"/>
       </defs>
       <use xlink:href="#DejaVuSans-35"/>
       <use xlink:href="#DejaVuSans-30" x="63.623047"/>
       <use xlink:href="#DejaVuSans-30" x="127.246094"/>
      </g>
     </g>
    </g>
   </g>
   <g id="matplotlib.axis_2">
    <g id="ytick_1">
     <g id="line2d_7">
      <defs>
       <path id="m44e2d755ac" d="M 0 0 
L -3.5 0 
" style="stroke: #000000; stroke-width: 0.8"/>
      </defs>
      <g>
       <use xlink:href="#m44e2d755ac" x="90" y="246.212811" style="stroke: #000000; stroke-width: 0.8"/>
      </g>
     </g>
     <g id="text_7">
      <!-- −1.5 -->
      <g transform="translate(58.717187 250.01203) scale(0.1 -0.1)">
       <defs>
        <path id="DejaVuSans-2212" d="M 678 2272 
L 4684 2272 
L 4684 1741 
L 678 1741 
L 678 2272 
z
" transform="scale(0.015625)"/>
        <path id="DejaVuSans-2e" d="M 684 794 
L 1344 794 
L 1344 0 
L 684 0 
L 684 794 
z
" transform="scale(0.015625)"/>
       </defs>
       <use xlink:href="#DejaVuSans-2212"/>
       <use xlink:href="#DejaVuSans-31" x="83.789062"/>
       <use xlink:href="#DejaVuSans-2e" x="147.412109"/>
       <use xlink:href="#DejaVuSans-35" x="179.199219"/>
      </g>
     </g>
    </g>
    <g id="ytick_2">
     <g id="line2d_8">
      <g>
       <use xlink:href="#m44e2d755ac" x="90" y="213.520401" style="stroke: #000000; stroke-width: 0.8"/>
      </g>
     </g>
     <g id="text_8">
      <!-- −1.0 -->
      <g transform="translate(58.717187 217.319619) scale(0.1 -0.1)">
       <use xlink:href="#DejaVuSans-2212"/>
       <use xlink:href="#DejaVuSans-31" x="83.789062"/>
       <use xlink:href="#DejaVuSans-2e" x="147.412109"/>
       <use xlink:href="#DejaVuSans-30" x="179.199219"/>
      </g>
     </g>
    </g>
    <g id="ytick_3">
     <g id="line2d_9">
      <g>
       <use xlink:href="#m44e2d755ac" x="90" y="180.82799" style="stroke: #000000; stroke-width: 0.8"/>
      </g>
     </g>
     <g id="text_9">
      <!-- −0.5 -->
      <g transform="translate(58.717187 184.627209) scale(0.1 -0.1)">
       <use xlink:href="#DejaVuSans-2212"/>
       <use xlink:href="#DejaVuSans-30" x="83.789062"/>
       <use xlink:href="#DejaVuSans-2e" x="147.412109"/>
       <use xlink:href="#DejaVuSans-35" x="179.199219"/>
      </g>
     </g>
    </g>
    <g id="ytick_4">
     <g id="line2d_10">
      <g>
       <use xlink:href="#m44e2d755ac" x="90" y="148.13558" style="stroke: #000000; stroke-width: 0.8"/>
      </g>
     </g>
     <g id="text_10">
      <!-- 0.0 -->
      <g transform="translate(67.096875 151.934798) scale(0.1 -0.1)">
       <use xlink:href="#DejaVuSans-30"/>
       <use xlink:href="#DejaVuSans-2e" x="63.623047"/>
       <use xlink:href="#DejaVuSans-30" x="95.410156"/>
      </g>
     </g>
    </g>
    <g id="ytick_5">
     <g id="line2d_11">
      <g>
       <use xlink:href="#m44e2d755ac" x="90" y="115.443169" style="stroke: #000000; stroke-width: 0.8"/>
      </g>
     </g>
     <g id="text_11">
      <!-- 0.5 -->
      <g transform="translate(67.096875 119.242388) scale(0.1 -0.1)">
       <use xlink:href="#DejaVuSans-30"/>
       <use xlink:href="#DejaVuSans-2e" x="63.623047"/>
       <use xlink:href="#DejaVuSans-35" x="95.410156"/>
      </g>
     </g>
    </g>
    <g id="ytick_6">
     <g id="line2d_12">
      <g>
       <use xlink:href="#m44e2d755ac" x="90" y="82.750759" style="stroke: #000000; stroke-width: 0.8"/>
      </g>
     </g>
     <g id="text_12">
      <!-- 1.0 -->
      <g transform="translate(67.096875 86.549977) scale(0.1 -0.1)">
       <use xlink:href="#DejaVuSans-31"/>
       <use xlink:href="#DejaVuSans-2e" x="63.623047"/>
       <use xlink:href="#DejaVuSans-30" x="95.410156"/>
      </g>
     </g>
    </g>
    <g id="ytick_7">
     <g id="line2d_13">
      <g>
       <use xlink:href="#m44e2d755ac" x="90" y="50.058348" style="stroke: #000000; stroke-width: 0.8"/>
      </g>
     </g>
     <g id="text_13">
      <!-- 1.5 -->
      <g transform="translate(67.096875 53.857567) scale(0.1 -0.1)">
       <use xlink:href="#DejaVuSans-31"/>
       <use xlink:href="#DejaVuSans-2e" x="63.623047"/>
       <use xlink:href="#DejaVuSans-35" x="95.410156"/>
      </g>
     </g>
    </g>
    <g id="text_14">
     <!-- 1e−5 -->
     <g transform="translate(90 31.56) scale(0.1 -0.1)">
      <defs>
       <path id="DejaVuSans-65" d="M 3597 1894 
L 3597 1613 
L 953 1613 
Q 991 1019 1311 708 
Q 1631 397 2203 397 
Q 2534 397 2845 478 
Q 3156 559 3463 722 
L 3463 178 
Q 3153 47 2828 -22 
Q 2503 -91 2169 -91 
Q 1331 -91 842 396 
Q 353 884 353 1716 
Q 353 2575 817 3079 
Q 1281 3584 2069 3584 
Q 2775 3584 3186 3129 
Q 3597 2675 3597 1894 
z
M 3022 2063 
Q 3016 2534 2758 2815 
Q 2500 3097 2075 3097 
Q 1594 3097 1305 2825 
Q 1016 2553 972 2059 
L 3022 2063 
z
" transform="scale(0.015625)"/>
      </defs>
      <use xlink:href="#DejaVuSans-31"/>
      <use xlink:href="#DejaVuSans-65" x="63.623047"/>
      <use xlink:href="#DejaVuSans-2212" x="125.146484"/>
      <use xlink:href="#DejaVuSans-35" x="208.935547"/>
     </g>
    </g>
   </g>
   <g id="line2d_14">
    <path d="M 115.363636 160.995625 
L 116.356342 160.389586 
L 117.349048 151.995994 
L 118.341754 135.295179 
L 119.33446 127.600387 
L 120.327166 153.081418 
L 121.319872 190.200647 
L 122.312578 194.761651 
L 123.305284 146.272382 
L 124.29799 87.883277 
L 125.290696 67.715598 
L 126.283402 105.506924 
L 127.276107 172.193753 
L 128.268813 214.443747 
L 129.261519 195.869056 
L 130.254225 130.538814 
L 131.246931 83.961672 
L 132.239637 113.208088 
L 133.232343 190.647084 
L 134.225049 229.050511 
L 135.217755 173.951466 
L 136.210461 87.833865 
L 137.203167 70.023986 
L 138.195873 141.908701 
L 139.188579 223.680029 
L 140.181284 227.392008 
L 142.166696 67.379165 
L 143.159402 60.429043 
L 145.144814 199.625801 
L 146.13752 205.27092 
L 147.130226 157.517212 
L 148.122932 115.464828 
L 149.115638 108.398214 
L 150.108344 127.590123 
L 152.093756 187.283918 
L 153.086461 190.765705 
L 155.071873 121.690486 
L 156.064579 116.687175 
L 157.057285 143.775353 
L 158.049991 178.111474 
L 159.042697 181.640801 
L 161.028109 122.064858 
L 162.020815 131.198566 
L 163.013521 168.232249 
L 164.006227 187.627822 
L 164.998933 157.531603 
L 165.991638 108.720701 
L 166.984344 92.882148 
L 167.97705 133.761944 
L 168.969756 189.493549 
L 169.962462 200.944952 
L 171.947874 108.876106 
L 172.94058 105.554836 
L 173.933286 142.749584 
L 174.925992 175.753291 
L 175.918698 174.230808 
L 176.911404 150.738881 
L 177.90411 132.856725 
L 178.896816 136.907307 
L 179.889521 150.761511 
L 180.882227 156.237486 
L 182.867639 149.01278 
L 183.860345 148.339482 
L 184.853051 145.241085 
L 185.845757 139.941389 
L 186.838463 139.655432 
L 187.831169 145.853433 
L 188.823875 155.763858 
L 189.816581 161.079334 
L 190.809287 152.241876 
L 191.801993 136.695363 
L 192.794698 131.505342 
L 193.787404 142.372295 
L 194.78011 162.115232 
L 195.772816 171.735059 
L 196.765522 160.210843 
L 197.758228 136.228015 
L 198.750934 121.614409 
L 199.74364 132.331912 
L 200.736346 157.485045 
L 201.729052 173.647574 
L 202.721758 166.518074 
L 203.714464 139.460677 
L 204.70717 118.974332 
L 205.699875 125.739681 
L 206.692581 156.912652 
L 207.685287 179.595588 
L 208.677993 171.955117 
L 209.670699 142.240539 
L 210.663405 121.606676 
L 211.656111 129.771927 
L 212.648817 154.737612 
L 213.641523 167.739379 
L 214.634229 158.317826 
L 215.626935 143.121956 
L 216.619641 139.979724 
L 218.605052 152.140577 
L 219.597758 151.340554 
L 220.590464 143.976203 
L 221.58317 141.562166 
L 223.568582 154.04546 
L 224.561288 147.703105 
L 225.553994 140.219871 
L 226.5467 146.11585 
L 227.539406 160.347863 
L 228.532112 162.433532 
L 230.517524 127.746726 
L 231.510229 130.104114 
L 233.495641 174.028913 
L 234.488347 170.665069 
L 236.473759 118.883026 
L 237.466465 120.685439 
L 239.451877 174.848672 
L 240.444583 172.525984 
L 241.437289 147.908094 
L 242.429995 129.716852 
L 243.422701 137.075645 
L 244.415407 155.567214 
L 245.408112 162.297882 
L 246.400818 151.07453 
L 247.393524 136.334922 
L 248.38623 131.935947 
L 249.378936 140.7937 
L 250.371642 157.68491 
L 251.364348 160.963087 
L 252.357054 147.042848 
L 253.34976 136.83472 
L 254.342466 145.618299 
L 255.335172 157.395456 
L 256.327878 154.171717 
L 257.320584 142.375444 
L 258.313289 142.005176 
L 259.305995 146.918149 
L 260.298701 148.942567 
L 261.291407 148.909065 
L 263.276819 158.121382 
L 264.269525 153.651088 
L 266.254937 130.884886 
L 267.247643 132.468038 
L 268.240349 147.317039 
L 269.233055 165.865388 
L 270.225761 170.320532 
L 271.218466 154.707564 
L 272.211172 133.357236 
L 273.203878 124.944974 
L 274.196584 135.184353 
L 275.18929 158.088804 
L 276.181996 176.79349 
L 277.174702 168.717071 
L 278.167408 138.776387 
L 279.160114 117.270591 
L 280.15282 123.182575 
L 281.145526 153.592771 
L 282.138232 177.431754 
L 283.130938 177.785666 
L 284.123643 155.710988 
L 285.116349 123.575857 
L 286.109055 112.137471 
L 287.101761 133.943891 
L 288.094467 170.044421 
L 289.087173 183.857659 
L 290.079879 161.565521 
L 291.072585 129.282695 
L 292.065291 119.590122 
L 293.057997 136.267768 
L 294.050703 160.902423 
L 295.043409 172.149798 
L 296.036115 159.115692 
L 297.02882 137.407593 
L 298.021526 127.754485 
L 299.014232 137.166424 
L 300.006938 154.367802 
L 300.999644 165.033241 
L 301.99235 166.111895 
L 302.985056 152.766494 
L 303.977762 132.356962 
L 304.970468 126.76053 
L 305.963174 138.432952 
L 306.95588 158.970976 
L 307.948586 166.708841 
L 308.941292 160.190568 
L 310.926703 128.213912 
L 311.919409 127.71782 
L 312.912115 144.531012 
L 313.904821 165.704826 
L 314.897527 175.220882 
L 315.890233 164.185565 
L 316.882939 140.280818 
L 317.875645 121.909923 
L 318.868351 124.991569 
L 319.861057 146.894474 
L 320.853763 165.986025 
L 321.846469 168.960181 
L 322.839175 157.980779 
L 323.83188 143.467731 
L 324.824586 134.091583 
L 325.817292 134.926424 
L 326.809998 143.664208 
L 327.802704 155.994811 
L 328.79541 159.237826 
L 329.788116 152.616998 
L 330.780822 145.169049 
L 331.773528 142.353973 
L 332.766234 146.545549 
L 333.75894 148.470194 
L 334.751646 146.820907 
L 335.744352 150.942934 
L 336.737057 156.187896 
L 337.729763 150.81181 
L 338.722469 137.75222 
L 339.715175 134.08319 
L 341.700587 161.280903 
L 342.693293 159.190012 
L 343.685999 147.913803 
L 344.678705 134.991372 
L 345.671411 132.719542 
L 347.656823 166.549014 
L 348.649529 164.174519 
L 349.642234 145.213988 
L 350.63494 130.947935 
L 351.627646 133.589576 
L 353.613058 156.854069 
L 354.605764 161.30531 
L 355.59847 155.46726 
L 356.591176 145.571746 
L 357.583882 139.905829 
L 358.576588 145.07644 
L 359.569294 157.340388 
L 360.562 165.12016 
L 361.554706 158.326461 
L 362.547411 140.50168 
L 363.540117 126.744065 
L 364.532823 133.098428 
L 365.525529 155.677762 
L 366.518235 169.114464 
L 367.510941 155.603611 
L 368.503647 130.389653 
L 369.496353 125.376149 
L 370.489059 148.501735 
L 371.481765 167.915045 
L 372.474471 166.754386 
L 374.459883 129.678175 
L 375.452589 127.541104 
L 376.445294 143.280232 
L 377.438 163.010144 
L 378.430706 169.746657 
L 379.423412 158.250462 
L 380.416118 140.095534 
L 381.408824 127.155127 
L 382.40153 127.324955 
L 383.394236 146.34261 
L 384.386942 168.722927 
L 385.379648 174.659981 
L 386.372354 156.988514 
L 387.36506 127.300366 
L 388.357766 115.463389 
L 389.350471 135.658513 
L 390.343177 170.93355 
L 391.335883 181.358832 
L 393.321295 127.600112 
L 394.314001 127.511049 
L 395.306707 147.543223 
L 396.299413 160.050274 
L 397.292119 158.855869 
L 398.284825 153.429379 
L 399.277531 146.187575 
L 400.270237 136.367687 
L 401.262943 133.756532 
L 402.255648 145.168872 
L 403.248354 164.586606 
L 404.24106 170.714112 
L 405.233766 156.435465 
L 406.226472 132.018095 
L 407.219178 120.381014 
L 408.211884 134.238395 
L 409.20459 162.334953 
L 410.197296 174.866687 
L 411.190002 160.301416 
L 412.182708 131.641806 
L 413.175414 119.490623 
L 414.16812 134.245017 
L 415.160825 159.31161 
L 416.153531 173.850986 
L 417.146237 165.940697 
L 418.138943 144.85743 
L 419.131649 128.800009 
L 420.124355 131.466258 
L 421.117061 150.516941 
L 422.109767 166.148759 
L 423.102473 163.753363 
L 425.087885 136.019114 
L 426.080591 130.923813 
L 427.073297 140.854509 
L 428.066002 161.216589 
L 429.058708 171.755862 
L 430.051414 156.632003 
L 431.04412 127.740352 
L 432.036826 118.32235 
L 433.029532 140.200557 
L 434.022238 171.415814 
L 435.014944 181.134268 
L 436.00765 156.446086 
L 437.000356 122.647568 
L 437.993062 113.67871 
L 438.985768 138.790287 
L 439.978474 169.442439 
L 440.97118 176.679411 
L 442.956591 137.378464 
L 443.949297 130.239673 
L 444.942003 135.544228 
L 445.934709 144.153064 
L 446.927415 155.354994 
L 447.920121 169.050246 
L 448.912827 171.733598 
L 449.905533 150.675943 
L 450.898239 119.488583 
L 451.890945 113.504498 
L 452.883651 139.415432 
L 453.876357 172.028902 
L 454.869062 178.67098 
L 455.861768 160.946488 
L 456.854474 136.392816 
L 457.84718 126.146485 
L 458.839886 133.3596 
L 459.832592 149.329423 
L 460.825298 159.123178 
L 461.818004 158.031995 
L 462.81071 155.5299 
L 463.803416 152.140344 
L 464.796122 144.254616 
L 465.788828 133.9908 
L 466.781534 134.267715 
L 467.774239 150.355442 
L 468.766945 172.270724 
L 469.759651 172.581056 
L 471.745063 122.271416 
L 472.737769 126.024823 
L 473.730475 149.680739 
L 474.723181 161.407981 
L 475.715887 153.660902 
L 476.708593 143.004189 
L 477.701299 138.101193 
L 478.694005 141.577989 
L 480.679416 170.499636 
L 481.672122 166.435507 
L 483.657534 113.387129 
L 484.65024 116.778322 
L 486.635652 192.057412 
L 487.628358 191.540738 
L 489.61377 103.222472 
L 490.606476 104.132348 
L 492.591888 188.220114 
L 493.584593 186.418473 
L 494.577299 145.507171 
L 495.570005 110.510206 
L 496.562711 119.512481 
L 497.555417 158.137406 
L 498.548123 183.507639 
L 499.540829 169.636774 
L 500.533535 136.910987 
L 501.526241 119.05269 
L 502.518947 131.404693 
L 503.511653 159.363895 
L 504.504359 171.921332 
L 505.497065 159.307551 
L 506.489771 135.738849 
L 507.482476 125.392237 
L 508.475182 141.447311 
L 509.467888 162.867186 
L 510.460594 168.087441 
L 511.4533 152.749565 
L 512.446006 132.614832 
L 513.438712 129.072135 
L 514.431418 141.515448 
L 515.424124 159.633406 
L 516.41683 167.056892 
L 517.409536 154.083429 
L 518.402242 139.374988 
L 519.394948 135.834434 
L 520.387653 143.698934 
L 521.380359 156.250032 
L 522.373065 165.142549 
L 523.365771 159.365179 
L 524.358477 138.491207 
L 525.351183 123.342828 
L 526.343889 133.860215 
L 527.336595 163.262957 
L 528.329301 177.118831 
L 529.322007 160.253832 
L 530.314713 130.297434 
L 531.307419 119.128824 
L 532.300125 137.691684 
L 533.29283 160.458761 
L 534.285536 164.063851 
L 536.270948 140.487463 
L 537.263654 138.863559 
L 538.25636 148.501296 
L 539.249066 159.856085 
L 540.241772 160.911252 
L 542.227184 136.509397 
L 543.21989 132.133112 
L 544.212596 140.949384 
L 545.205302 155.906051 
L 546.198007 162.192654 
L 547.190713 154.43305 
L 548.183419 144.026464 
L 549.176125 141.45895 
L 550.168831 139.527654 
L 551.161537 140.502848 
L 553.146949 165.586605 
L 554.139655 163.499568 
L 555.132361 146.290649 
L 556.125067 133.17396 
L 557.117773 133.83274 
L 558.110479 149.481675 
L 559.103184 167.845109 
L 560.09589 171.342053 
L 561.088596 152.78203 
L 562.081302 130.444581 
L 563.074008 124.707124 
L 564.066714 140.570147 
L 565.05942 160.938639 
L 566.052126 160.63642 
L 567.044832 139.41387 
L 568.037538 129.127344 
L 569.030244 151.572937 
L 570.02295 177.749892 
L 571.015656 166.310781 
L 572.008362 125.447721 
L 573.001067 105.709596 
L 573.993773 133.75294 
L 574.986479 179.701471 
L 575.979185 192.512654 
L 577.964597 118.465062 
L 578.957303 115.42805 
L 579.950009 138.737893 
L 580.942715 150.275139 
L 581.935421 149.531694 
L 582.928127 158.876151 
L 583.920833 175.280267 
L 584.913539 171.994346 
L 586.89895 99.734514 
L 587.891656 119.743504 
L 588.884362 187.204892 
L 589.877068 221.901722 
L 590.869774 173.894548 
L 591.86248 97.443956 
L 592.855186 71.604177 
L 593.847892 120.172474 
L 594.840598 185.524092 
L 595.833304 215.503721 
L 596.82601 175.749158 
L 597.818716 103.672975 
L 598.811421 74.343016 
L 599.804127 121.45326 
L 600.796833 210.772722 
L 601.789539 246.24 
L 602.782245 187.956904 
L 603.774951 83.778259 
L 604.767657 44.64 
L 605.760363 107.674085 
L 606.753069 202.816313 
L 607.745775 230.092099 
L 608.738481 165.5119 
L 609.731187 91.562873 
L 610.723893 91.304439 
L 611.716598 161.338317 
L 612.709304 209.234137 
L 613.70201 173.762944 
L 614.694716 105.094758 
L 615.687422 88.138994 
L 617.672834 190.59573 
L 618.66554 191.341182 
L 619.658246 150.90967 
L 620.650952 123.459047 
L 621.643658 134.325058 
L 622.636364 159.627671 
L 622.636364 159.627671 
" clip-path="url(#p155e5ddec8)" style="fill: none; stroke: #1f77b4; stroke-width: 1.5; stroke-linecap: square"/>
   </g>
   <g id="patch_3">
    <path d="M 90 256.32 
L 90 34.56 
" style="fill: none; stroke: #000000; stroke-width: 0.8; stroke-linejoin: miter; stroke-linecap: square"/>
   </g>
   <g id="patch_4">
    <path d="M 648 256.32 
L 648 34.56 
" style="fill: none; stroke: #000000; stroke-width: 0.8; stroke-linejoin: miter; stroke-linecap: square"/>
   </g>
   <g id="patch_5">
    <path d="M 90 256.32 
L 648 256.32 
" style="fill: none; stroke: #000000; stroke-width: 0.8; stroke-linejoin: miter; stroke-linecap: square"/>
   </g>
   <g id="patch_6">
    <path d="M 90 34.56 
L 648 34.56 
" style="fill: none; stroke: #000000; stroke-width: 0.8; stroke-linejoin: miter; stroke-linecap: square"/>
   </g>
   <g id="text_15">
    <!-- K is now at 2 -->
    <g transform="translate(330.418125 28.56) scale(0.12 -0.12)">
     <defs>
      <path id="DejaVuSans-4b" d="M 628 4666 
L 1259 4666 
L 1259 2694 
L 3353 4666 
L 4166 4666 
L 1850 2491 
L 4331 0 
L 3500 0 
L 1259 2247 
L 1259 0 
L 628 0 
L 628 4666 
z
" transform="scale(0.015625)"/>
      <path id="DejaVuSans-20" transform="scale(0.015625)"/>
      <path id="DejaVuSans-69" d="M 603 3500 
L 1178 3500 
L 1178 0 
L 603 0 
L 603 3500 
z
M 603 4863 
L 1178 4863 
L 1178 4134 
L 603 4134 
L 603 4863 
z
" transform="scale(0.015625)"/>
      <path id="DejaVuSans-73" d="M 2834 3397 
L 2834 2853 
Q 2591 2978 2328 3040 
Q 2066 3103 1784 3103 
Q 1356 3103 1142 2972 
Q 928 2841 928 2578 
Q 928 2378 1081 2264 
Q 1234 2150 1697 2047 
L 1894 2003 
Q 2506 1872 2764 1633 
Q 3022 1394 3022 966 
Q 3022 478 2636 193 
Q 2250 -91 1575 -91 
Q 1294 -91 989 -36 
Q 684 19 347 128 
L 347 722 
Q 666 556 975 473 
Q 1284 391 1588 391 
Q 1994 391 2212 530 
Q 2431 669 2431 922 
Q 2431 1156 2273 1281 
Q 2116 1406 1581 1522 
L 1381 1569 
Q 847 1681 609 1914 
Q 372 2147 372 2553 
Q 372 3047 722 3315 
Q 1072 3584 1716 3584 
Q 2034 3584 2315 3537 
Q 2597 3491 2834 3397 
z
" transform="scale(0.015625)"/>
      <path id="DejaVuSans-6e" d="M 3513 2113 
L 3513 0 
L 2938 0 
L 2938 2094 
Q 2938 2591 2744 2837 
Q 2550 3084 2163 3084 
Q 1697 3084 1428 2787 
Q 1159 2491 1159 1978 
L 1159 0 
L 581 0 
L 581 3500 
L 1159 3500 
L 1159 2956 
Q 1366 3272 1645 3428 
Q 1925 3584 2291 3584 
Q 2894 3584 3203 3211 
Q 3513 2838 3513 2113 
z
" transform="scale(0.015625)"/>
      <path id="DejaVuSans-6f" d="M 1959 3097 
Q 1497 3097 1228 2736 
Q 959 2375 959 1747 
Q 959 1119 1226 758 
Q 1494 397 1959 397 
Q 2419 397 2687 759 
Q 2956 1122 2956 1747 
Q 2956 2369 2687 2733 
Q 2419 3097 1959 3097 
z
M 1959 3584 
Q 2709 3584 3137 3096 
Q 3566 2609 3566 1747 
Q 3566 888 3137 398 
Q 2709 -91 1959 -91 
Q 1206 -91 779 398 
Q 353 888 353 1747 
Q 353 2609 779 3096 
Q 1206 3584 1959 3584 
z
" transform="scale(0.015625)"/>
      <path id="DejaVuSans-77" d="M 269 3500 
L 844 3500 
L 1563 769 
L 2278 3500 
L 2956 3500 
L 3675 769 
L 4391 3500 
L 4966 3500 
L 4050 0 
L 3372 0 
L 2619 2869 
L 1863 0 
L 1184 0 
L 269 3500 
z
" transform="scale(0.015625)"/>
      <path id="DejaVuSans-61" d="M 2194 1759 
Q 1497 1759 1228 1600 
Q 959 1441 959 1056 
Q 959 750 1161 570 
Q 1363 391 1709 391 
Q 2188 391 2477 730 
Q 2766 1069 2766 1631 
L 2766 1759 
L 2194 1759 
z
M 3341 1997 
L 3341 0 
L 2766 0 
L 2766 531 
Q 2569 213 2275 61 
Q 1981 -91 1556 -91 
Q 1019 -91 701 211 
Q 384 513 384 1019 
Q 384 1609 779 1909 
Q 1175 2209 1959 2209 
L 2766 2209 
L 2766 2266 
Q 2766 2663 2505 2880 
Q 2244 3097 1772 3097 
Q 1472 3097 1187 3025 
Q 903 2953 641 2809 
L 641 3341 
Q 956 3463 1253 3523 
Q 1550 3584 1831 3584 
Q 2591 3584 2966 3190 
Q 3341 2797 3341 1997 
z
" transform="scale(0.015625)"/>
      <path id="DejaVuSans-74" d="M 1172 4494 
L 1172 3500 
L 2356 3500 
L 2356 3053 
L 1172 3053 
L 1172 1153 
Q 1172 725 1289 603 
Q 1406 481 1766 481 
L 2356 481 
L 2356 0 
L 1766 0 
Q 1100 0 847 248 
Q 594 497 594 1153 
L 594 3053 
L 172 3053 
L 172 3500 
L 594 3500 
L 594 4494 
L 1172 4494 
z
" transform="scale(0.015625)"/>
     </defs>
     <use xlink:href="#DejaVuSans-4b"/>
     <use xlink:href="#DejaVuSans-20" x="65.576172"/>
     <use xlink:href="#DejaVuSans-69" x="97.363281"/>
     <use xlink:href="#DejaVuSans-73" x="125.146484"/>
     <use xlink:href="#DejaVuSans-20" x="177.246094"/>
     <use xlink:href="#DejaVuSans-6e" x="209.033203"/>
     <use xlink:href="#DejaVuSans-6f" x="272.412109"/>
     <use xlink:href="#DejaVuSans-77" x="333.59375"/>
     <use xlink:href="#DejaVuSans-20" x="415.380859"/>
     <use xlink:href="#DejaVuSans-61" x="447.167969"/>
     <use xlink:href="#DejaVuSans-74" x="508.447266"/>
     <use xlink:href="#DejaVuSans-20" x="547.65625"/>
     <use xlink:href="#DejaVuSans-32" x="579.443359"/>
    </g>
   </g>
  </g>
 </g>
 <defs>
  <clipPath id="p155e5ddec8">
   <rect x="90" y="34.56" width="558" height="221.76"/>
  </clipPath>
 </defs>
</svg>
