<?xml version="1.0" encoding="utf-8" standalone="no"?>
<!DOCTYPE svg PUBLIC "-//W3C//DTD SVG 1.1//EN"
  "http://www.w3.org/Graphics/SVG/1.1/DTD/svg11.dtd">
<svg xmlns:xlink="http://www.w3.org/1999/xlink" width="720pt" height="288pt" viewBox="0 0 720 288" xmlns="http://www.w3.org/2000/svg" version="1.1">
 <metadata>
  <rdf:RDF xmlns:dc="http://purl.org/dc/elements/1.1/" xmlns:cc="http://creativecommons.org/ns#" xmlns:rdf="http://www.w3.org/1999/02/22-rdf-syntax-ns#">
   <cc:Work>
    <dc:type rdf:resource="http://purl.org/dc/dcmitype/StillImage"/>
    <dc:date>2023-11-20T08:43:12.874732</dc:date>
    <dc:format>image/svg+xml</dc:format>
    <dc:creator>
     <cc:Agent>
      <dc:title>Matplotlib v3.6.2, https://matplotlib.org/</dc:title>
     </cc:Agent>
    </dc:creator>
   </cc:Work>
  </rdf:RDF>
 </metadata>
 <defs>
  <style type="text/css">*{stroke-linejoin: round; stroke-linecap: butt}</style>
 </defs>
 <g id="figure_1">
  <g id="patch_1">
   <path d="M 0 288 
L 720 288 
L 720 0 
L 0 0 
z
" style="fill: #ffffff"/>
  </g>
  <g id="axes_1">
   <g id="patch_2">
    <path d="M 90 256.32 
L 648 256.32 
L 648 34.56 
L 90 34.56 
z
" style="fill: #ffffff"/>
   </g>
   <g id="matplotlib.axis_1">
    <g id="xtick_1">
     <g id="line2d_1">
      <defs>
       <path id="m8c7c6ffd0b" d="M 0 0 
L 0 3.5 
" style="stroke: #000000; stroke-width: 0.8"/>
      </defs>
      <g>
       <use xlink:href="#m8c7c6ffd0b" x="115.363636" y="256.32" style="stroke: #000000; stroke-width: 0.8"/>
      </g>
     </g>
     <g id="text_1">
      <!-- 0 -->
      <g transform="translate(112.182386 270.918437) scale(0.1 -0.1)">
       <defs>
        <path id="DejaVuSans-30" d="M 2034 4250 
Q 1547 4250 1301 3770 
Q 1056 3291 1056 2328 
Q 1056 1369 1301 889 
Q 1547 409 2034 409 
Q 2525 409 2770 889 
Q 3016 1369 3016 2328 
Q 3016 3291 2770 3770 
Q 2525 4250 2034 4250 
z
M 2034 4750 
Q 2819 4750 3233 4129 
Q 3647 3509 3647 2328 
Q 3647 1150 3233 529 
Q 2819 -91 2034 -91 
Q 1250 -91 836 529 
Q 422 1150 422 2328 
Q 422 3509 836 4129 
Q 1250 4750 2034 4750 
z
" transform="scale(0.015625)"/>
       </defs>
       <use xlink:href="#DejaVuSans-30"/>
      </g>
     </g>
    </g>
    <g id="xtick_2">
     <g id="line2d_2">
      <g>
       <use xlink:href="#m8c7c6ffd0b" x="214.634229" y="256.32" style="stroke: #000000; stroke-width: 0.8"/>
      </g>
     </g>
     <g id="text_2">
      <!-- 100 -->
      <g transform="translate(205.090479 270.918437) scale(0.1 -0.1)">
       <defs>
        <path id="DejaVuSans-31" d="M 794 531 
L 1825 531 
L 1825 4091 
L 703 3866 
L 703 4441 
L 1819 4666 
L 2450 4666 
L 2450 531 
L 3481 531 
L 3481 0 
L 794 0 
L 794 531 
z
" transform="scale(0.015625)"/>
       </defs>
       <use xlink:href="#DejaVuSans-31"/>
       <use xlink:href="#DejaVuSans-30" x="63.623047"/>
       <use xlink:href="#DejaVuSans-30" x="127.246094"/>
      </g>
     </g>
    </g>
    <g id="xtick_3">
     <g id="line2d_3">
      <g>
       <use xlink:href="#m8c7c6ffd0b" x="313.904821" y="256.32" style="stroke: #000000; stroke-width: 0.8"/>
      </g>
     </g>
     <g id="text_3">
      <!-- 200 -->
      <g transform="translate(304.361071 270.918437) scale(0.1 -0.1)">
       <defs>
        <path id="DejaVuSans-32" d="M 1228 531 
L 3431 531 
L 3431 0 
L 469 0 
L 469 531 
Q 828 903 1448 1529 
Q 2069 2156 2228 2338 
Q 2531 2678 2651 2914 
Q 2772 3150 2772 3378 
Q 2772 3750 2511 3984 
Q 2250 4219 1831 4219 
Q 1534 4219 1204 4116 
Q 875 4013 500 3803 
L 500 4441 
Q 881 4594 1212 4672 
Q 1544 4750 1819 4750 
Q 2544 4750 2975 4387 
Q 3406 4025 3406 3419 
Q 3406 3131 3298 2873 
Q 3191 2616 2906 2266 
Q 2828 2175 2409 1742 
Q 1991 1309 1228 531 
z
" transform="scale(0.015625)"/>
       </defs>
       <use xlink:href="#DejaVuSans-32"/>
       <use xlink:href="#DejaVuSans-30" x="63.623047"/>
       <use xlink:href="#DejaVuSans-30" x="127.246094"/>
      </g>
     </g>
    </g>
    <g id="xtick_4">
     <g id="line2d_4">
      <g>
       <use xlink:href="#m8c7c6ffd0b" x="413.175414" y="256.32" style="stroke: #000000; stroke-width: 0.8"/>
      </g>
     </g>
     <g id="text_4">
      <!-- 300 -->
      <g transform="translate(403.631664 270.918437) scale(0.1 -0.1)">
       <defs>
        <path id="DejaVuSans-33" d="M 2597 2516 
Q 3050 2419 3304 2112 
Q 3559 1806 3559 1356 
Q 3559 666 3084 287 
Q 2609 -91 1734 -91 
Q 1441 -91 1130 -33 
Q 819 25 488 141 
L 488 750 
Q 750 597 1062 519 
Q 1375 441 1716 441 
Q 2309 441 2620 675 
Q 2931 909 2931 1356 
Q 2931 1769 2642 2001 
Q 2353 2234 1838 2234 
L 1294 2234 
L 1294 2753 
L 1863 2753 
Q 2328 2753 2575 2939 
Q 2822 3125 2822 3475 
Q 2822 3834 2567 4026 
Q 2313 4219 1838 4219 
Q 1578 4219 1281 4162 
Q 984 4106 628 3988 
L 628 4550 
Q 988 4650 1302 4700 
Q 1616 4750 1894 4750 
Q 2613 4750 3031 4423 
Q 3450 4097 3450 3541 
Q 3450 3153 3228 2886 
Q 3006 2619 2597 2516 
z
" transform="scale(0.015625)"/>
       </defs>
       <use xlink:href="#DejaVuSans-33"/>
       <use xlink:href="#DejaVuSans-30" x="63.623047"/>
       <use xlink:href="#DejaVuSans-30" x="127.246094"/>
      </g>
     </g>
    </g>
    <g id="xtick_5">
     <g id="line2d_5">
      <g>
       <use xlink:href="#m8c7c6ffd0b" x="512.446006" y="256.32" style="stroke: #000000; stroke-width: 0.8"/>
      </g>
     </g>
     <g id="text_5">
      <!-- 400 -->
      <g transform="translate(502.902256 270.918437) scale(0.1 -0.1)">
       <defs>
        <path id="DejaVuSans-34" d="M 2419 4116 
L 825 1625 
L 2419 1625 
L 2419 4116 
z
M 2253 4666 
L 3047 4666 
L 3047 1625 
L 3713 1625 
L 3713 1100 
L 3047 1100 
L 3047 0 
L 2419 0 
L 2419 1100 
L 313 1100 
L 313 1709 
L 2253 4666 
z
" transform="scale(0.015625)"/>
       </defs>
       <use xlink:href="#DejaVuSans-34"/>
       <use xlink:href="#DejaVuSans-30" x="63.623047"/>
       <use xlink:href="#DejaVuSans-30" x="127.246094"/>
      </g>
     </g>
    </g>
    <g id="xtick_6">
     <g id="line2d_6">
      <g>
       <use xlink:href="#m8c7c6ffd0b" x="611.716598" y="256.32" style="stroke: #000000; stroke-width: 0.8"/>
      </g>
     </g>
     <g id="text_6">
      <!-- 500 -->
      <g transform="translate(602.172848 270.918437) scale(0.1 -0.1)">
       <defs>
        <path id="DejaVuSans-35" d="M 691 4666 
L 3169 4666 
L 3169 4134 
L 1269 4134 
L 1269 2991 
Q 1406 3038 1543 3061 
Q 1681 3084 1819 3084 
Q 2600 3084 3056 2656 
Q 3513 2228 3513 1497 
Q 3513 744 3044 326 
Q 2575 -91 1722 -91 
Q 1428 -91 1123 -41 
Q 819 9 494 109 
L 494 744 
Q 775 591 1075 516 
Q 1375 441 1709 441 
Q 2250 441 2565 725 
Q 2881 1009 2881 1497 
Q 2881 1984 2565 2268 
Q 2250 2553 1709 2553 
Q 1456 2553 1204 2497 
Q 953 2441 691 2322 
L 691 4666 
z
" transform="scale(0.015625)"/>
       </defs>
       <use xlink:href="#DejaVuSans-35"/>
       <use xlink:href="#DejaVuSans-30" x="63.623047"/>
       <use xlink:href="#DejaVuSans-30" x="127.246094"/>
      </g>
     </g>
    </g>
   </g>
   <g id="matplotlib.axis_2">
    <g id="ytick_1">
     <g id="line2d_7">
      <defs>
       <path id="m4ef77da41c" d="M 0 0 
L -3.5 0 
" style="stroke: #000000; stroke-width: 0.8"/>
      </defs>
      <g>
       <use xlink:href="#m4ef77da41c" x="90" y="255.019556" style="stroke: #000000; stroke-width: 0.8"/>
      </g>
     </g>
     <g id="text_7">
      <!-- −0.0003 -->
      <g transform="translate(39.629687 258.818775) scale(0.1 -0.1)">
       <defs>
        <path id="DejaVuSans-2212" d="M 678 2272 
L 4684 2272 
L 4684 1741 
L 678 1741 
L 678 2272 
z
" transform="scale(0.015625)"/>
        <path id="DejaVuSans-2e" d="M 684 794 
L 1344 794 
L 1344 0 
L 684 0 
L 684 794 
z
" transform="scale(0.015625)"/>
       </defs>
       <use xlink:href="#DejaVuSans-2212"/>
       <use xlink:href="#DejaVuSans-30" x="83.789062"/>
       <use xlink:href="#DejaVuSans-2e" x="147.412109"/>
       <use xlink:href="#DejaVuSans-30" x="179.199219"/>
       <use xlink:href="#DejaVuSans-30" x="242.822266"/>
       <use xlink:href="#DejaVuSans-30" x="306.445312"/>
       <use xlink:href="#DejaVuSans-33" x="370.068359"/>
      </g>
     </g>
    </g>
    <g id="ytick_2">
     <g id="line2d_8">
      <g>
       <use xlink:href="#m4ef77da41c" x="90" y="219.937006" style="stroke: #000000; stroke-width: 0.8"/>
      </g>
     </g>
     <g id="text_8">
      <!-- −0.0002 -->
      <g transform="translate(39.629687 223.736224) scale(0.1 -0.1)">
       <use xlink:href="#DejaVuSans-2212"/>
       <use xlink:href="#DejaVuSans-30" x="83.789062"/>
       <use xlink:href="#DejaVuSans-2e" x="147.412109"/>
       <use xlink:href="#DejaVuSans-30" x="179.199219"/>
       <use xlink:href="#DejaVuSans-30" x="242.822266"/>
       <use xlink:href="#DejaVuSans-30" x="306.445312"/>
       <use xlink:href="#DejaVuSans-32" x="370.068359"/>
      </g>
     </g>
    </g>
    <g id="ytick_3">
     <g id="line2d_9">
      <g>
       <use xlink:href="#m4ef77da41c" x="90" y="184.854455" style="stroke: #000000; stroke-width: 0.8"/>
      </g>
     </g>
     <g id="text_9">
      <!-- −0.0001 -->
      <g transform="translate(39.629687 188.653674) scale(0.1 -0.1)">
       <use xlink:href="#DejaVuSans-2212"/>
       <use xlink:href="#DejaVuSans-30" x="83.789062"/>
       <use xlink:href="#DejaVuSans-2e" x="147.412109"/>
       <use xlink:href="#DejaVuSans-30" x="179.199219"/>
       <use xlink:href="#DejaVuSans-30" x="242.822266"/>
       <use xlink:href="#DejaVuSans-30" x="306.445312"/>
       <use xlink:href="#DejaVuSans-31" x="370.068359"/>
      </g>
     </g>
    </g>
    <g id="ytick_4">
     <g id="line2d_10">
      <g>
       <use xlink:href="#m4ef77da41c" x="90" y="149.771905" style="stroke: #000000; stroke-width: 0.8"/>
      </g>
     </g>
     <g id="text_10">
      <!-- 0.0000 -->
      <g transform="translate(48.009375 153.571123) scale(0.1 -0.1)">
       <use xlink:href="#DejaVuSans-30"/>
       <use xlink:href="#DejaVuSans-2e" x="63.623047"/>
       <use xlink:href="#DejaVuSans-30" x="95.410156"/>
       <use xlink:href="#DejaVuSans-30" x="159.033203"/>
       <use xlink:href="#DejaVuSans-30" x="222.65625"/>
       <use xlink:href="#DejaVuSans-30" x="286.279297"/>
      </g>
     </g>
    </g>
    <g id="ytick_5">
     <g id="line2d_11">
      <g>
       <use xlink:href="#m4ef77da41c" x="90" y="114.689354" style="stroke: #000000; stroke-width: 0.8"/>
      </g>
     </g>
     <g id="text_11">
      <!-- 0.0001 -->
      <g transform="translate(48.009375 118.488573) scale(0.1 -0.1)">
       <use xlink:href="#DejaVuSans-30"/>
       <use xlink:href="#DejaVuSans-2e" x="63.623047"/>
       <use xlink:href="#DejaVuSans-30" x="95.410156"/>
       <use xlink:href="#DejaVuSans-30" x="159.033203"/>
       <use xlink:href="#DejaVuSans-30" x="222.65625"/>
       <use xlink:href="#DejaVuSans-31" x="286.279297"/>
      </g>
     </g>
    </g>
    <g id="ytick_6">
     <g id="line2d_12">
      <g>
       <use xlink:href="#m4ef77da41c" x="90" y="79.606804" style="stroke: #000000; stroke-width: 0.8"/>
      </g>
     </g>
     <g id="text_12">
      <!-- 0.0002 -->
      <g transform="translate(48.009375 83.406023) scale(0.1 -0.1)">
       <use xlink:href="#DejaVuSans-30"/>
       <use xlink:href="#DejaVuSans-2e" x="63.623047"/>
       <use xlink:href="#DejaVuSans-30" x="95.410156"/>
       <use xlink:href="#DejaVuSans-30" x="159.033203"/>
       <use xlink:href="#DejaVuSans-30" x="222.65625"/>
       <use xlink:href="#DejaVuSans-32" x="286.279297"/>
      </g>
     </g>
    </g>
    <g id="ytick_7">
     <g id="line2d_13">
      <g>
       <use xlink:href="#m4ef77da41c" x="90" y="44.524253" style="stroke: #000000; stroke-width: 0.8"/>
      </g>
     </g>
     <g id="text_13">
      <!-- 0.0003 -->
      <g transform="translate(48.009375 48.323472) scale(0.1 -0.1)">
       <use xlink:href="#DejaVuSans-30"/>
       <use xlink:href="#DejaVuSans-2e" x="63.623047"/>
       <use xlink:href="#DejaVuSans-30" x="95.410156"/>
       <use xlink:href="#DejaVuSans-30" x="159.033203"/>
       <use xlink:href="#DejaVuSans-30" x="222.65625"/>
       <use xlink:href="#DejaVuSans-33" x="286.279297"/>
      </g>
     </g>
    </g>
   </g>
   <g id="line2d_14">
    <path d="M 115.363636 176.519467 
L 116.356342 153.42591 
L 117.349048 125.731659 
L 118.341754 121.077191 
L 119.33446 137.034016 
L 120.327166 160.906219 
L 121.319872 173.514302 
L 122.312578 172.017908 
L 123.305284 152.262393 
L 124.29799 124.661179 
L 125.290696 116.198739 
L 126.283402 142.875616 
L 127.276107 182.502807 
L 128.268813 188.546027 
L 129.261519 157.530748 
L 130.254225 118.486575 
L 131.246931 109.644749 
L 132.239637 136.85272 
L 133.232343 178.578611 
L 134.225049 194.398144 
L 135.217755 165.463177 
L 136.210461 120.417723 
L 137.203167 109.075856 
L 139.188579 175.658581 
L 140.181284 170.698315 
L 141.17399 143.798437 
L 142.166696 134.094961 
L 143.159402 140.172419 
L 144.152108 148.596875 
L 145.144814 161.198669 
L 146.13752 170.126555 
L 147.130226 163.224129 
L 148.122932 134.059978 
L 149.115638 121.424908 
L 150.108344 142.368909 
L 151.10105 168.67586 
L 152.093756 171.314204 
L 153.086461 145.776816 
L 154.079167 127.50413 
L 155.071873 142.521703 
L 156.064579 172.125288 
L 157.057285 170.765157 
L 158.049991 133.365588 
L 159.042697 108.9676 
L 160.035403 138.074646 
L 161.028109 188.212748 
L 162.020815 191.244587 
L 163.013521 143.996216 
L 164.006227 108.852677 
L 164.998933 125.284439 
L 165.991638 164.765375 
L 166.984344 177.887034 
L 168.969756 125.585078 
L 169.962462 130.587304 
L 170.955168 163.278725 
L 171.947874 182.721721 
L 172.94058 161.888029 
L 173.933286 130.604187 
L 174.925992 122.565987 
L 175.918698 138.579209 
L 176.911404 160.917844 
L 177.90411 172.662741 
L 178.896816 167.41884 
L 179.889521 145.113591 
L 180.882227 128.170651 
L 181.874933 135.53105 
L 182.867639 159.281502 
L 183.860345 173.466348 
L 184.853051 161.434336 
L 185.845757 141.347554 
L 186.838463 132.332938 
L 187.831169 138.249823 
L 189.816581 162.016371 
L 190.809287 160.169281 
L 191.801993 144.154711 
L 192.794698 132.282797 
L 193.787404 148.402093 
L 194.78011 172.69186 
L 195.772816 166.230333 
L 196.765522 133.974497 
L 197.758228 120.638444 
L 198.750934 142.372775 
L 199.74364 167.231241 
L 200.736346 169.458946 
L 201.729052 159.995729 
L 202.721758 154.148998 
L 204.70717 134.919158 
L 205.699875 134.174682 
L 206.692581 147.556276 
L 207.685287 164.007024 
L 208.677993 166.961299 
L 209.670699 157.803701 
L 210.663405 146.253886 
L 211.656111 142.715763 
L 212.648817 144.903134 
L 213.641523 144.406133 
L 214.634229 146.363896 
L 215.626935 151.413952 
L 216.619641 152.231329 
L 217.612347 145.526632 
L 218.605052 140.713316 
L 219.597758 145.273385 
L 220.590464 156.660915 
L 221.58317 165.556992 
L 222.575876 152.639369 
L 223.568582 131.916583 
L 224.561288 128.195437 
L 225.553994 158.30963 
L 226.5467 192.8046 
L 227.539406 184.642482 
L 228.532112 125.805271 
L 229.524818 75.693351 
L 230.517524 104.080248 
L 231.510229 186.522467 
L 232.502935 232.678386 
L 233.495641 189.608695 
L 234.488347 117.017819 
L 235.481053 91.888967 
L 236.473759 114.37344 
L 237.466465 158.114831 
L 238.459171 188.571103 
L 239.451877 184.436586 
L 241.437289 110.052625 
L 242.429995 117.800033 
L 243.422701 159.288784 
L 244.415407 184.013176 
L 245.408112 172.608178 
L 246.400818 141.585491 
L 247.393524 127.965028 
L 248.38623 138.954454 
L 249.378936 160.208316 
L 250.371642 169.137841 
L 251.364348 155.33176 
L 252.357054 132.435002 
L 253.34976 127.644091 
L 255.335172 172.638931 
L 256.327878 176.273847 
L 257.320584 154.570274 
L 258.313289 127.082555 
L 259.305995 114.764253 
L 260.298701 133.879364 
L 261.291407 165.500593 
L 262.284113 185.087449 
L 263.276819 172.258528 
L 265.262231 119.67309 
L 266.254937 121.332521 
L 267.247643 147.767115 
L 268.240349 178.16027 
L 269.233055 185.842958 
L 270.225761 159.767043 
L 271.218466 116.224639 
L 272.211172 100.035032 
L 273.203878 141.696146 
L 274.196584 200.40703 
L 275.18929 202.755748 
L 277.174702 93.420689 
L 278.167408 96.945345 
L 280.15282 212.583806 
L 281.145526 215.491465 
L 283.130938 70.148504 
L 284.123643 84.88523 
L 285.116349 170.806754 
L 286.109055 230.981736 
L 287.101761 200.93749 
L 288.094467 118.298977 
L 289.087173 74.271401 
L 290.079879 107.992794 
L 291.072585 181.050988 
L 292.065291 212.730013 
L 293.057997 179.16558 
L 294.050703 124.121809 
L 295.043409 102.573671 
L 296.036115 125.814666 
L 297.02882 165.320317 
L 298.021526 191.069623 
L 299.014232 178.727754 
L 300.006938 139.249713 
L 300.999644 107.681534 
L 301.99235 122.399379 
L 302.985056 166.171856 
L 303.977762 189.453318 
L 304.970468 171.01867 
L 305.963174 131.152199 
L 306.95588 111.448332 
L 307.948586 130.155574 
L 308.941292 172.642482 
L 309.933998 199.092339 
L 310.926703 173.26999 
L 311.919409 122.82934 
L 312.912115 100.055247 
L 313.904821 126.543199 
L 314.897527 171.310565 
L 315.890233 185.551269 
L 316.882939 161.760452 
L 317.875645 126.317744 
L 318.868351 117.94773 
L 319.861057 145.784057 
L 320.853763 182.514912 
L 321.846469 189.055068 
L 322.839175 152.89291 
L 323.83188 105.306936 
L 324.824586 100.709181 
L 326.809998 196.57205 
L 327.802704 195.453162 
L 328.79541 147.373797 
L 329.788116 106.723498 
L 330.780822 111.438939 
L 331.773528 155.84794 
L 332.766234 194.554333 
L 333.75894 188.07021 
L 334.751646 143.239468 
L 335.744352 107.128396 
L 336.737057 111.794687 
L 338.722469 192.286037 
L 339.715175 198.094539 
L 340.707881 160.104404 
L 341.700587 104.85708 
L 342.693293 86.851045 
L 343.685999 128.409397 
L 344.678705 185.356039 
L 345.671411 201.330388 
L 346.664117 164.470792 
L 347.656823 119.506427 
L 348.649529 111.203403 
L 350.63494 181.784854 
L 351.627646 183.398871 
L 352.620352 153.632945 
L 353.613058 130.004717 
L 354.605764 126.108492 
L 355.59847 134.829054 
L 356.591176 155.427079 
L 357.583882 173.685904 
L 358.576588 170.29379 
L 359.569294 141.478481 
L 360.562 119.329499 
L 361.554706 130.591506 
L 362.547411 160.240486 
L 363.540117 172.68016 
L 364.532823 165.286256 
L 365.525529 154.864176 
L 366.518235 140.984225 
L 367.510941 128.720015 
L 368.503647 133.862855 
L 369.496353 163.649423 
L 370.489059 183.936304 
L 371.481765 160.281496 
L 372.474471 125.899153 
L 373.467177 122.596367 
L 374.459883 152.246163 
L 375.452589 178.064234 
L 376.445294 173.396645 
L 377.438 142.135055 
L 378.430706 115.172619 
L 379.423412 122.615184 
L 380.416118 163.27817 
L 381.408824 193.028593 
L 382.40153 169.242476 
L 383.394236 121.943656 
L 384.386942 111.499899 
L 385.379648 150.985318 
L 386.372354 185.605352 
L 387.36506 169.221232 
L 388.357766 126.637252 
L 389.350471 121.571076 
L 390.343177 155.707255 
L 391.335883 182.315187 
L 392.328589 170.85864 
L 393.321295 138.420937 
L 394.314001 116.28389 
L 395.306707 125.498482 
L 397.292119 186.017195 
L 398.284825 175.466807 
L 399.277531 134.050155 
L 400.270237 114.651306 
L 401.262943 133.520302 
L 402.255648 166.212042 
L 403.248354 179.353476 
L 404.24106 166.221515 
L 405.233766 143.116347 
L 406.226472 126.483222 
L 407.219178 127.120153 
L 408.211884 145.086932 
L 409.20459 167.75543 
L 410.197296 178.111484 
L 411.190002 161.410327 
L 412.182708 133.603856 
L 413.175414 123.908229 
L 415.160825 158.080269 
L 416.153531 163.299466 
L 417.146237 156.297265 
L 418.138943 147.114459 
L 419.131649 139.092445 
L 420.124355 144.937849 
L 421.117061 156.50834 
L 422.109767 159.5367 
L 424.095179 134.863827 
L 425.087885 138.248577 
L 426.080591 157.421996 
L 427.073297 165.983604 
L 428.066002 154.691595 
L 429.058708 134.951132 
L 430.051414 132.510644 
L 432.036826 179.013535 
L 433.029532 173.733077 
L 435.014944 104.912137 
L 436.00765 116.613434 
L 437.000356 168.879115 
L 437.993062 203.03863 
L 438.985768 179.556973 
L 439.978474 123.75101 
L 440.97118 101.260447 
L 441.963885 136.711506 
L 442.956591 176.633938 
L 443.949297 175.684939 
L 444.942003 144.559403 
L 445.934709 127.253762 
L 446.927415 142.860876 
L 447.920121 167.759877 
L 448.912827 172.770322 
L 450.898239 133.778733 
L 451.890945 132.150269 
L 452.883651 147.791395 
L 453.876357 158.551129 
L 454.869062 159.075488 
L 455.861768 152.504106 
L 456.854474 147.650094 
L 457.84718 139.044364 
L 458.839886 135.296202 
L 459.832592 149.789767 
L 460.825298 168.896079 
L 461.818004 164.716724 
L 462.81071 133.680051 
L 463.803416 118.64186 
L 464.796122 148.153619 
L 465.788828 182.169825 
L 466.781534 178.218798 
L 467.774239 139.49154 
L 468.766945 113.853684 
L 469.759651 137.365837 
L 470.752357 176.700698 
L 471.745063 181.527364 
L 473.730475 117.313021 
L 474.723181 116.319371 
L 475.715887 146.355183 
L 476.708593 180.489599 
L 477.701299 194.385968 
L 478.694005 165.412551 
L 479.686711 118.416009 
L 480.679416 99.145011 
L 481.672122 127.453717 
L 482.664828 175.150116 
L 483.657534 191.4709 
L 484.65024 161.706355 
L 485.642946 124.732951 
L 486.635652 122.009803 
L 488.621064 175.096546 
L 489.61377 170.673916 
L 490.606476 137.882772 
L 491.599182 112.279654 
L 492.591888 127.944933 
L 493.584593 172.489205 
L 494.577299 195.671012 
L 495.570005 170.620938 
L 496.562711 128.096158 
L 497.555417 109.731013 
L 498.548123 125.371825 
L 499.540829 162.442997 
L 500.533535 189.066872 
L 501.526241 184.582694 
L 503.511653 102.851345 
L 504.504359 108.568271 
L 506.489771 211.809622 
L 507.482476 197.122237 
L 508.475182 134.932595 
L 509.467888 94.199365 
L 510.460594 111.161944 
L 511.4533 154.698265 
L 512.446006 179.899948 
L 513.438712 185.338592 
L 514.431418 175.682567 
L 515.424124 147.844429 
L 516.41683 109.859894 
L 517.409536 90.436918 
L 518.402242 120.926273 
L 519.394948 186.172096 
L 520.387653 229.639557 
L 521.380359 200.154947 
L 522.373065 113.897746 
L 523.365771 60.098648 
L 524.358477 95.725146 
L 525.351183 189.043461 
L 526.343889 246.24 
L 527.336595 206.200822 
L 528.329301 102.325808 
L 529.322007 44.64 
L 530.314713 95.727935 
L 531.307419 196.197747 
L 532.300125 242.17466 
L 533.29283 187.671643 
L 534.285536 100.311299 
L 535.278242 73.650532 
L 536.270948 133.165117 
L 537.263654 210.098712 
L 538.25636 214.935578 
L 540.241772 90.679258 
L 541.234478 97.842994 
L 542.227184 152.065819 
L 543.21989 198.638921 
L 544.212596 194.381209 
L 545.205302 147.114994 
L 546.198007 105.731082 
L 547.190713 111.737586 
L 548.183419 153.932057 
L 549.176125 188.865267 
L 550.168831 176.480555 
L 551.161537 137.792573 
L 552.154243 120.197036 
L 553.146949 142.668652 
L 554.139655 178.739899 
L 555.132361 178.882015 
L 556.125067 141.114944 
L 557.117773 113.657203 
L 558.110479 131.822886 
L 559.103184 172.638565 
L 560.09589 183.666924 
L 561.088596 154.550663 
L 562.081302 122.148038 
L 563.074008 121.299311 
L 564.066714 149.057172 
L 565.05942 172.39855 
L 566.052126 172.176461 
L 567.044832 153.258317 
L 568.037538 137.708748 
L 569.030244 133.590562 
L 570.02295 136.690077 
L 571.015656 148.235075 
L 572.008362 162.841404 
L 573.001067 169.466259 
L 573.993773 159.396123 
L 574.986479 138.868631 
L 575.979185 127.308285 
L 576.971891 140.095602 
L 577.964597 162.66152 
L 578.957303 168.230085 
L 580.942715 134.376372 
L 581.935421 139.450483 
L 582.928127 157.567172 
L 583.920833 166.534297 
L 584.913539 154.493973 
L 585.906244 131.553086 
L 586.89895 123.359357 
L 587.891656 144.496142 
L 588.884362 172.729412 
L 589.877068 173.367708 
L 590.869774 148.213252 
L 591.86248 130.955111 
L 592.855186 142.737231 
L 593.847892 160.426457 
L 594.840598 152.206813 
L 595.833304 138.000055 
L 596.82601 143.071147 
L 597.818716 162.203783 
L 598.811421 160.666474 
L 599.804127 140.927892 
L 600.796833 141.604984 
L 601.789539 166.200577 
L 602.782245 178.674766 
L 603.774951 152.690363 
L 604.767657 113.605384 
L 605.760363 104.963835 
L 606.753069 143.46997 
L 607.745775 193.082903 
L 608.738481 205.111952 
L 610.723893 97.828247 
L 611.716598 106.757334 
L 612.709304 162.942186 
L 613.70201 199.251814 
L 614.694716 176.415223 
L 615.687422 134.787015 
L 616.680128 112.076913 
L 617.672834 118.752172 
L 618.66554 149.847256 
L 619.658246 187.284984 
L 620.650952 191.516565 
L 621.643658 151.759194 
L 622.636364 104.795131 
L 622.636364 104.795131 
" clip-path="url(#p38c83db27f)" style="fill: none; stroke: #1f77b4; stroke-width: 1.5; stroke-linecap: square"/>
   </g>
   <g id="patch_3">
    <path d="M 90 256.32 
L 90 34.56 
" style="fill: none; stroke: #000000; stroke-width: 0.8; stroke-linejoin: miter; stroke-linecap: square"/>
   </g>
   <g id="patch_4">
    <path d="M 648 256.32 
L 648 34.56 
" style="fill: none; stroke: #000000; stroke-width: 0.8; stroke-linejoin: miter; stroke-linecap: square"/>
   </g>
   <g id="patch_5">
    <path d="M 90 256.32 
L 648 256.32 
" style="fill: none; stroke: #000000; stroke-width: 0.8; stroke-linejoin: miter; stroke-linecap: square"/>
   </g>
   <g id="patch_6">
    <path d="M 90 34.56 
L 648 34.56 
" style="fill: none; stroke: #000000; stroke-width: 0.8; stroke-linejoin: miter; stroke-linecap: square"/>
   </g>
   <g id="text_14">
    <!-- K is now at 2 -->
    <g transform="translate(330.418125 28.56) scale(0.12 -0.12)">
     <defs>
      <path id="DejaVuSans-4b" d="M 628 4666 
L 1259 4666 
L 1259 2694 
L 3353 4666 
L 4166 4666 
L 1850 2491 
L 4331 0 
L 3500 0 
L 1259 2247 
L 1259 0 
L 628 0 
L 628 4666 
z
" transform="scale(0.015625)"/>
      <path id="DejaVuSans-20" transform="scale(0.015625)"/>
      <path id="DejaVuSans-69" d="M 603 3500 
L 1178 3500 
L 1178 0 
L 603 0 
L 603 3500 
z
M 603 4863 
L 1178 4863 
L 1178 4134 
L 603 4134 
L 603 4863 
z
" transform="scale(0.015625)"/>
      <path id="DejaVuSans-73" d="M 2834 3397 
L 2834 2853 
Q 2591 2978 2328 3040 
Q 2066 3103 1784 3103 
Q 1356 3103 1142 2972 
Q 928 2841 928 2578 
Q 928 2378 1081 2264 
Q 1234 2150 1697 2047 
L 1894 2003 
Q 2506 1872 2764 1633 
Q 3022 1394 3022 966 
Q 3022 478 2636 193 
Q 2250 -91 1575 -91 
Q 1294 -91 989 -36 
Q 684 19 347 128 
L 347 722 
Q 666 556 975 473 
Q 1284 391 1588 391 
Q 1994 391 2212 530 
Q 2431 669 2431 922 
Q 2431 1156 2273 1281 
Q 2116 1406 1581 1522 
L 1381 1569 
Q 847 1681 609 1914 
Q 372 2147 372 2553 
Q 372 3047 722 3315 
Q 1072 3584 1716 3584 
Q 2034 3584 2315 3537 
Q 2597 3491 2834 3397 
z
" transform="scale(0.015625)"/>
      <path id="DejaVuSans-6e" d="M 3513 2113 
L 3513 0 
L 2938 0 
L 2938 2094 
Q 2938 2591 2744 2837 
Q 2550 3084 2163 3084 
Q 1697 3084 1428 2787 
Q 1159 2491 1159 1978 
L 1159 0 
L 581 0 
L 581 3500 
L 1159 3500 
L 1159 2956 
Q 1366 3272 1645 3428 
Q 1925 3584 2291 3584 
Q 2894 3584 3203 3211 
Q 3513 2838 3513 2113 
z
" transform="scale(0.015625)"/>
      <path id="DejaVuSans-6f" d="M 1959 3097 
Q 1497 3097 1228 2736 
Q 959 2375 959 1747 
Q 959 1119 1226 758 
Q 1494 397 1959 397 
Q 2419 397 2687 759 
Q 2956 1122 2956 1747 
Q 2956 2369 2687 2733 
Q 2419 3097 1959 3097 
z
M 1959 3584 
Q 2709 3584 3137 3096 
Q 3566 2609 3566 1747 
Q 3566 888 3137 398 
Q 2709 -91 1959 -91 
Q 1206 -91 779 398 
Q 353 888 353 1747 
Q 353 2609 779 3096 
Q 1206 3584 1959 3584 
z
" transform="scale(0.015625)"/>
      <path id="DejaVuSans-77" d="M 269 3500 
L 844 3500 
L 1563 769 
L 2278 3500 
L 2956 3500 
L 3675 769 
L 4391 3500 
L 4966 3500 
L 4050 0 
L 3372 0 
L 2619 2869 
L 1863 0 
L 1184 0 
L 269 3500 
z
" transform="scale(0.015625)"/>
      <path id="DejaVuSans-61" d="M 2194 1759 
Q 1497 1759 1228 1600 
Q 959 1441 959 1056 
Q 959 750 1161 570 
Q 1363 391 1709 391 
Q 2188 391 2477 730 
Q 2766 1069 2766 1631 
L 2766 1759 
L 2194 1759 
z
M 3341 1997 
L 3341 0 
L 2766 0 
L 2766 531 
Q 2569 213 2275 61 
Q 1981 -91 1556 -91 
Q 1019 -91 701 211 
Q 384 513 384 1019 
Q 384 1609 779 1909 
Q 1175 2209 1959 2209 
L 2766 2209 
L 2766 2266 
Q 2766 2663 2505 2880 
Q 2244 3097 1772 3097 
Q 1472 3097 1187 3025 
Q 903 2953 641 2809 
L 641 3341 
Q 956 3463 1253 3523 
Q 1550 3584 1831 3584 
Q 2591 3584 2966 3190 
Q 3341 2797 3341 1997 
z
" transform="scale(0.015625)"/>
      <path id="DejaVuSans-74" d="M 1172 4494 
L 1172 3500 
L 2356 3500 
L 2356 3053 
L 1172 3053 
L 1172 1153 
Q 1172 725 1289 603 
Q 1406 481 1766 481 
L 2356 481 
L 2356 0 
L 1766 0 
Q 1100 0 847 248 
Q 594 497 594 1153 
L 594 3053 
L 172 3053 
L 172 3500 
L 594 3500 
L 594 4494 
L 1172 4494 
z
" transform="scale(0.015625)"/>
     </defs>
     <use xlink:href="#DejaVuSans-4b"/>
     <use xlink:href="#DejaVuSans-20" x="65.576172"/>
     <use xlink:href="#DejaVuSans-69" x="97.363281"/>
     <use xlink:href="#DejaVuSans-73" x="125.146484"/>
     <use xlink:href="#DejaVuSans-20" x="177.246094"/>
     <use xlink:href="#DejaVuSans-6e" x="209.033203"/>
     <use xlink:href="#DejaVuSans-6f" x="272.412109"/>
     <use xlink:href="#DejaVuSans-77" x="333.59375"/>
     <use xlink:href="#DejaVuSans-20" x="415.380859"/>
     <use xlink:href="#DejaVuSans-61" x="447.167969"/>
     <use xlink:href="#DejaVuSans-74" x="508.447266"/>
     <use xlink:href="#DejaVuSans-20" x="547.65625"/>
     <use xlink:href="#DejaVuSans-32" x="579.443359"/>
    </g>
   </g>
  </g>
 </g>
 <defs>
  <clipPath id="p38c83db27f">
   <rect x="90" y="34.56" width="558" height="221.76"/>
  </clipPath>
 </defs>
</svg>
