<?xml version="1.0" encoding="utf-8" standalone="no"?>
<!DOCTYPE svg PUBLIC "-//W3C//DTD SVG 1.1//EN"
  "http://www.w3.org/Graphics/SVG/1.1/DTD/svg11.dtd">
<svg xmlns:xlink="http://www.w3.org/1999/xlink" width="720pt" height="288pt" viewBox="0 0 720 288" xmlns="http://www.w3.org/2000/svg" version="1.1">
 <metadata>
  <rdf:RDF xmlns:dc="http://purl.org/dc/elements/1.1/" xmlns:cc="http://creativecommons.org/ns#" xmlns:rdf="http://www.w3.org/1999/02/22-rdf-syntax-ns#">
   <cc:Work>
    <dc:type rdf:resource="http://purl.org/dc/dcmitype/StillImage"/>
    <dc:date>2023-12-05T23:15:40.883253</dc:date>
    <dc:format>image/svg+xml</dc:format>
    <dc:creator>
     <cc:Agent>
      <dc:title>Matplotlib v3.6.2, https://matplotlib.org/</dc:title>
     </cc:Agent>
    </dc:creator>
   </cc:Work>
  </rdf:RDF>
 </metadata>
 <defs>
  <style type="text/css">*{stroke-linejoin: round; stroke-linecap: butt}</style>
 </defs>
 <g id="figure_1">
  <g id="patch_1">
   <path d="M 0 288 
L 720 288 
L 720 0 
L 0 0 
z
" style="fill: #ffffff"/>
  </g>
  <g id="axes_1">
   <g id="patch_2">
    <path d="M 90 256.32 
L 648 256.32 
L 648 34.56 
L 90 34.56 
z
" style="fill: #ffffff"/>
   </g>
   <g id="matplotlib.axis_1">
    <g id="xtick_1">
     <g id="line2d_1">
      <defs>
       <path id="m2a4f08aaa5" d="M 0 0 
L 0 3.5 
" style="stroke: #000000; stroke-width: 0.8"/>
      </defs>
      <g>
       <use xlink:href="#m2a4f08aaa5" x="115.363636" y="256.32" style="stroke: #000000; stroke-width: 0.8"/>
      </g>
     </g>
     <g id="text_1">
      <!-- 0 -->
      <g transform="translate(112.182386 270.918437) scale(0.1 -0.1)">
       <defs>
        <path id="DejaVuSans-30" d="M 2034 4250 
Q 1547 4250 1301 3770 
Q 1056 3291 1056 2328 
Q 1056 1369 1301 889 
Q 1547 409 2034 409 
Q 2525 409 2770 889 
Q 3016 1369 3016 2328 
Q 3016 3291 2770 3770 
Q 2525 4250 2034 4250 
z
M 2034 4750 
Q 2819 4750 3233 4129 
Q 3647 3509 3647 2328 
Q 3647 1150 3233 529 
Q 2819 -91 2034 -91 
Q 1250 -91 836 529 
Q 422 1150 422 2328 
Q 422 3509 836 4129 
Q 1250 4750 2034 4750 
z
" transform="scale(0.015625)"/>
       </defs>
       <use xlink:href="#DejaVuSans-30"/>
      </g>
     </g>
    </g>
    <g id="xtick_2">
     <g id="line2d_2">
      <g>
       <use xlink:href="#m2a4f08aaa5" x="214.634229" y="256.32" style="stroke: #000000; stroke-width: 0.8"/>
      </g>
     </g>
     <g id="text_2">
      <!-- 100 -->
      <g transform="translate(205.090479 270.918437) scale(0.1 -0.1)">
       <defs>
        <path id="DejaVuSans-31" d="M 794 531 
L 1825 531 
L 1825 4091 
L 703 3866 
L 703 4441 
L 1819 4666 
L 2450 4666 
L 2450 531 
L 3481 531 
L 3481 0 
L 794 0 
L 794 531 
z
" transform="scale(0.015625)"/>
       </defs>
       <use xlink:href="#DejaVuSans-31"/>
       <use xlink:href="#DejaVuSans-30" x="63.623047"/>
       <use xlink:href="#DejaVuSans-30" x="127.246094"/>
      </g>
     </g>
    </g>
    <g id="xtick_3">
     <g id="line2d_3">
      <g>
       <use xlink:href="#m2a4f08aaa5" x="313.904821" y="256.32" style="stroke: #000000; stroke-width: 0.8"/>
      </g>
     </g>
     <g id="text_3">
      <!-- 200 -->
      <g transform="translate(304.361071 270.918437) scale(0.1 -0.1)">
       <defs>
        <path id="DejaVuSans-32" d="M 1228 531 
L 3431 531 
L 3431 0 
L 469 0 
L 469 531 
Q 828 903 1448 1529 
Q 2069 2156 2228 2338 
Q 2531 2678 2651 2914 
Q 2772 3150 2772 3378 
Q 2772 3750 2511 3984 
Q 2250 4219 1831 4219 
Q 1534 4219 1204 4116 
Q 875 4013 500 3803 
L 500 4441 
Q 881 4594 1212 4672 
Q 1544 4750 1819 4750 
Q 2544 4750 2975 4387 
Q 3406 4025 3406 3419 
Q 3406 3131 3298 2873 
Q 3191 2616 2906 2266 
Q 2828 2175 2409 1742 
Q 1991 1309 1228 531 
z
" transform="scale(0.015625)"/>
       </defs>
       <use xlink:href="#DejaVuSans-32"/>
       <use xlink:href="#DejaVuSans-30" x="63.623047"/>
       <use xlink:href="#DejaVuSans-30" x="127.246094"/>
      </g>
     </g>
    </g>
    <g id="xtick_4">
     <g id="line2d_4">
      <g>
       <use xlink:href="#m2a4f08aaa5" x="413.175414" y="256.32" style="stroke: #000000; stroke-width: 0.8"/>
      </g>
     </g>
     <g id="text_4">
      <!-- 300 -->
      <g transform="translate(403.631664 270.918437) scale(0.1 -0.1)">
       <defs>
        <path id="DejaVuSans-33" d="M 2597 2516 
Q 3050 2419 3304 2112 
Q 3559 1806 3559 1356 
Q 3559 666 3084 287 
Q 2609 -91 1734 -91 
Q 1441 -91 1130 -33 
Q 819 25 488 141 
L 488 750 
Q 750 597 1062 519 
Q 1375 441 1716 441 
Q 2309 441 2620 675 
Q 2931 909 2931 1356 
Q 2931 1769 2642 2001 
Q 2353 2234 1838 2234 
L 1294 2234 
L 1294 2753 
L 1863 2753 
Q 2328 2753 2575 2939 
Q 2822 3125 2822 3475 
Q 2822 3834 2567 4026 
Q 2313 4219 1838 4219 
Q 1578 4219 1281 4162 
Q 984 4106 628 3988 
L 628 4550 
Q 988 4650 1302 4700 
Q 1616 4750 1894 4750 
Q 2613 4750 3031 4423 
Q 3450 4097 3450 3541 
Q 3450 3153 3228 2886 
Q 3006 2619 2597 2516 
z
" transform="scale(0.015625)"/>
       </defs>
       <use xlink:href="#DejaVuSans-33"/>
       <use xlink:href="#DejaVuSans-30" x="63.623047"/>
       <use xlink:href="#DejaVuSans-30" x="127.246094"/>
      </g>
     </g>
    </g>
    <g id="xtick_5">
     <g id="line2d_5">
      <g>
       <use xlink:href="#m2a4f08aaa5" x="512.446006" y="256.32" style="stroke: #000000; stroke-width: 0.8"/>
      </g>
     </g>
     <g id="text_5">
      <!-- 400 -->
      <g transform="translate(502.902256 270.918437) scale(0.1 -0.1)">
       <defs>
        <path id="DejaVuSans-34" d="M 2419 4116 
L 825 1625 
L 2419 1625 
L 2419 4116 
z
M 2253 4666 
L 3047 4666 
L 3047 1625 
L 3713 1625 
L 3713 1100 
L 3047 1100 
L 3047 0 
L 2419 0 
L 2419 1100 
L 313 1100 
L 313 1709 
L 2253 4666 
z
" transform="scale(0.015625)"/>
       </defs>
       <use xlink:href="#DejaVuSans-34"/>
       <use xlink:href="#DejaVuSans-30" x="63.623047"/>
       <use xlink:href="#DejaVuSans-30" x="127.246094"/>
      </g>
     </g>
    </g>
    <g id="xtick_6">
     <g id="line2d_6">
      <g>
       <use xlink:href="#m2a4f08aaa5" x="611.716598" y="256.32" style="stroke: #000000; stroke-width: 0.8"/>
      </g>
     </g>
     <g id="text_6">
      <!-- 500 -->
      <g transform="translate(602.172848 270.918437) scale(0.1 -0.1)">
       <defs>
        <path id="DejaVuSans-35" d="M 691 4666 
L 3169 4666 
L 3169 4134 
L 1269 4134 
L 1269 2991 
Q 1406 3038 1543 3061 
Q 1681 3084 1819 3084 
Q 2600 3084 3056 2656 
Q 3513 2228 3513 1497 
Q 3513 744 3044 326 
Q 2575 -91 1722 -91 
Q 1428 -91 1123 -41 
Q 819 9 494 109 
L 494 744 
Q 775 591 1075 516 
Q 1375 441 1709 441 
Q 2250 441 2565 725 
Q 2881 1009 2881 1497 
Q 2881 1984 2565 2268 
Q 2250 2553 1709 2553 
Q 1456 2553 1204 2497 
Q 953 2441 691 2322 
L 691 4666 
z
" transform="scale(0.015625)"/>
       </defs>
       <use xlink:href="#DejaVuSans-35"/>
       <use xlink:href="#DejaVuSans-30" x="63.623047"/>
       <use xlink:href="#DejaVuSans-30" x="127.246094"/>
      </g>
     </g>
    </g>
   </g>
   <g id="matplotlib.axis_2">
    <g id="ytick_1">
     <g id="line2d_7">
      <defs>
       <path id="medae4c9ace" d="M 0 0 
L -3.5 0 
" style="stroke: #000000; stroke-width: 0.8"/>
      </defs>
      <g>
       <use xlink:href="#medae4c9ace" x="90" y="230.176647" style="stroke: #000000; stroke-width: 0.8"/>
      </g>
     </g>
     <g id="text_7">
      <!-- −2 -->
      <g transform="translate(68.257812 233.975865) scale(0.1 -0.1)">
       <defs>
        <path id="DejaVuSans-2212" d="M 678 2272 
L 4684 2272 
L 4684 1741 
L 678 1741 
L 678 2272 
z
" transform="scale(0.015625)"/>
       </defs>
       <use xlink:href="#DejaVuSans-2212"/>
       <use xlink:href="#DejaVuSans-32" x="83.789062"/>
      </g>
     </g>
    </g>
    <g id="ytick_2">
     <g id="line2d_8">
      <g>
       <use xlink:href="#medae4c9ace" x="90" y="187.976344" style="stroke: #000000; stroke-width: 0.8"/>
      </g>
     </g>
     <g id="text_8">
      <!-- −1 -->
      <g transform="translate(68.257812 191.775563) scale(0.1 -0.1)">
       <use xlink:href="#DejaVuSans-2212"/>
       <use xlink:href="#DejaVuSans-31" x="83.789062"/>
      </g>
     </g>
    </g>
    <g id="ytick_3">
     <g id="line2d_9">
      <g>
       <use xlink:href="#medae4c9ace" x="90" y="145.776042" style="stroke: #000000; stroke-width: 0.8"/>
      </g>
     </g>
     <g id="text_9">
      <!-- 0 -->
      <g transform="translate(76.6375 149.575261) scale(0.1 -0.1)">
       <use xlink:href="#DejaVuSans-30"/>
      </g>
     </g>
    </g>
    <g id="ytick_4">
     <g id="line2d_10">
      <g>
       <use xlink:href="#medae4c9ace" x="90" y="103.57574" style="stroke: #000000; stroke-width: 0.8"/>
      </g>
     </g>
     <g id="text_10">
      <!-- 1 -->
      <g transform="translate(76.6375 107.374959) scale(0.1 -0.1)">
       <use xlink:href="#DejaVuSans-31"/>
      </g>
     </g>
    </g>
    <g id="ytick_5">
     <g id="line2d_11">
      <g>
       <use xlink:href="#medae4c9ace" x="90" y="61.375438" style="stroke: #000000; stroke-width: 0.8"/>
      </g>
     </g>
     <g id="text_11">
      <!-- 2 -->
      <g transform="translate(76.6375 65.174657) scale(0.1 -0.1)">
       <use xlink:href="#DejaVuSans-32"/>
      </g>
     </g>
    </g>
    <g id="text_12">
     <!-- 1e−5 -->
     <g transform="translate(90 31.56) scale(0.1 -0.1)">
      <defs>
       <path id="DejaVuSans-65" d="M 3597 1894 
L 3597 1613 
L 953 1613 
Q 991 1019 1311 708 
Q 1631 397 2203 397 
Q 2534 397 2845 478 
Q 3156 559 3463 722 
L 3463 178 
Q 3153 47 2828 -22 
Q 2503 -91 2169 -91 
Q 1331 -91 842 396 
Q 353 884 353 1716 
Q 353 2575 817 3079 
Q 1281 3584 2069 3584 
Q 2775 3584 3186 3129 
Q 3597 2675 3597 1894 
z
M 3022 2063 
Q 3016 2534 2758 2815 
Q 2500 3097 2075 3097 
Q 1594 3097 1305 2825 
Q 1016 2553 972 2059 
L 3022 2063 
z
" transform="scale(0.015625)"/>
      </defs>
      <use xlink:href="#DejaVuSans-31"/>
      <use xlink:href="#DejaVuSans-65" x="63.623047"/>
      <use xlink:href="#DejaVuSans-2212" x="125.146484"/>
      <use xlink:href="#DejaVuSans-35" x="208.935547"/>
     </g>
    </g>
   </g>
   <g id="line2d_12">
    <path d="M 115.363636 183.291294 
L 116.356342 142.931679 
L 117.349048 110.827061 
L 118.341754 119.893821 
L 119.33446 156.861167 
L 120.327166 179.16075 
L 121.319872 163.541474 
L 122.312578 139.421996 
L 123.305284 135.30529 
L 124.29799 147.68042 
L 125.290696 146.185807 
L 126.283402 130.032628 
L 127.276107 128.223152 
L 128.268813 152.211876 
L 129.261519 171.059093 
L 130.254225 158.368531 
L 131.246931 135.805639 
L 132.239637 125.920182 
L 133.232343 135.835639 
L 134.225049 147.882389 
L 135.217755 153.362613 
L 136.210461 152.26157 
L 137.203167 141.252887 
L 138.195873 128.065209 
L 139.188579 132.759175 
L 140.181284 156.652905 
L 141.17399 174.520807 
L 142.166696 158.539376 
L 143.159402 120.93953 
L 144.152108 105.738024 
L 145.144814 129.212489 
L 146.13752 170.103857 
L 147.130226 193.244258 
L 148.122932 182.762859 
L 149.115638 146.05717 
L 150.108344 103.659132 
L 151.10105 88.449469 
L 152.093756 119.719183 
L 153.086461 181.303166 
L 154.079167 220.070245 
L 155.071873 194.593636 
L 156.064579 122.385341 
L 157.057285 68.289017 
L 158.049991 84.79281 
L 159.042697 151.941347 
L 160.035403 201.904127 
L 161.028109 197.227618 
L 162.020815 156.115317 
L 163.013521 124.986679 
L 164.006227 118.6035 
L 164.998933 122.488169 
L 165.991638 130.559834 
L 166.984344 150.746023 
L 167.97705 177.079217 
L 168.969756 183.224803 
L 169.962462 145.271287 
L 170.955168 91.867204 
L 171.947874 83.513636 
L 172.94058 131.536081 
L 173.933286 192.765017 
L 174.925992 212.819497 
L 175.918698 180.089739 
L 176.911404 129.959754 
L 177.90411 100.428535 
L 178.896816 115.534879 
L 179.889521 158.613562 
L 180.882227 186.519848 
L 181.874933 169.076346 
L 182.867639 131.0461 
L 183.860345 116.169501 
L 184.853051 132.349049 
L 185.845757 155.788326 
L 186.838463 164.021472 
L 187.831169 154.611045 
L 188.823875 134.773731 
L 189.816581 117.279756 
L 190.809287 123.730081 
L 192.794698 185.132131 
L 193.787404 194.11341 
L 194.78011 165.948525 
L 195.772816 119.532299 
L 196.765522 88.443066 
L 197.758228 101.862355 
L 198.750934 141.936561 
L 199.74364 171.428848 
L 200.736346 166.675529 
L 201.729052 149.448789 
L 202.721758 141.439103 
L 203.714464 151.990143 
L 204.70717 161.272091 
L 205.699875 154.648469 
L 206.692581 139.851403 
L 207.685287 121.482081 
L 208.677993 116.258813 
L 209.670699 133.594615 
L 210.663405 164.888704 
L 211.656111 179.273368 
L 212.648817 164.247093 
L 213.641523 139.15238 
L 214.634229 128.440656 
L 216.619641 133.902599 
L 217.612347 140.028007 
L 219.597758 176.660008 
L 220.590464 167.59578 
L 221.58317 126.04256 
L 222.575876 96.102899 
L 223.568582 114.797087 
L 224.561288 165.922165 
L 225.553994 196.638589 
L 226.5467 171.916196 
L 227.539406 113.16119 
L 228.532112 86.323007 
L 229.524818 124.114001 
L 230.517524 187.9504 
L 231.510229 210.525176 
L 232.502935 169.182835 
L 233.495641 100.5739 
L 234.488347 70.279551 
L 235.481053 114.555057 
L 236.473759 198.984972 
L 237.466465 241.958374 
L 238.459171 195.999536 
L 239.451877 99.676425 
L 240.444583 44.64 
L 241.437289 86.71712 
L 242.429995 189.662143 
L 243.422701 246.24 
L 244.415407 206.067037 
L 245.408112 116.556105 
L 246.400818 66.572013 
L 247.393524 96.706583 
L 248.38623 168.481964 
L 249.378936 210.763814 
L 250.371642 187.728658 
L 251.364348 123.480953 
L 252.357054 91.248348 
L 253.34976 120.682637 
L 254.342466 182.413324 
L 255.335172 210.011084 
L 256.327878 171.474186 
L 257.320584 107.504118 
L 258.313289 87.667068 
L 259.305995 131.724961 
L 260.298701 183.719328 
L 261.291407 193.46781 
L 263.276819 112.834781 
L 264.269525 113.350257 
L 265.262231 149.454912 
L 266.254937 180.610745 
L 267.247643 168.583476 
L 268.240349 134.390944 
L 269.233055 113.576863 
L 270.225761 120.585501 
L 271.218466 135.278736 
L 273.203878 155.984323 
L 274.196584 164.080151 
L 275.18929 158.809845 
L 277.174702 121.69353 
L 278.167408 120.632193 
L 279.160114 134.81088 
L 280.15282 158.001299 
L 281.145526 178.228289 
L 282.138232 179.997142 
L 283.130938 155.787042 
L 284.123643 119.104021 
L 285.116349 100.505232 
L 286.109055 121.394283 
L 287.101761 166.003046 
L 288.094467 197.138772 
L 289.087173 185.761762 
L 291.072585 98.800743 
L 292.065291 98.600702 
L 294.050703 190.143129 
L 295.043409 200.573089 
L 296.036115 164.740482 
L 297.02882 118.679646 
L 298.021526 92.989257 
L 299.014232 103.173131 
L 300.999644 196.184037 
L 301.99235 201.277881 
L 302.985056 151.794389 
L 303.977762 95.826559 
L 304.970468 86.757624 
L 306.95588 184.872893 
L 307.948586 188.743334 
L 309.933998 108.023305 
L 310.926703 106.832143 
L 312.912115 176.475818 
L 313.904821 180.505968 
L 315.890233 119.05907 
L 316.882939 115.141508 
L 317.875645 137.883766 
L 318.868351 167.357328 
L 319.861057 171.861237 
L 321.846469 117.84294 
L 322.839175 119.640083 
L 324.824586 186.575379 
L 325.817292 177.316151 
L 326.809998 137.240997 
L 327.802704 111.450505 
L 328.79541 121.184389 
L 329.788116 151.847439 
L 330.780822 169.933636 
L 331.773528 163.721964 
L 333.75894 125.191178 
L 334.751646 126.111807 
L 335.744352 145.31912 
L 336.737057 167.882652 
L 337.729763 174.139756 
L 338.722469 153.676926 
L 339.715175 118.73872 
L 340.707881 109.590386 
L 341.700587 129.597665 
L 342.693293 161.159054 
L 343.685999 179.989073 
L 344.678705 175.47158 
L 345.671411 154.959289 
L 346.664117 128.724026 
L 347.656823 123.284474 
L 348.649529 142.106472 
L 349.642234 157.060771 
L 350.63494 147.20094 
L 351.627646 133.256062 
L 352.620352 136.936192 
L 353.613058 159.616496 
L 354.605764 172.299926 
L 355.59847 161.00033 
L 356.591176 135.466341 
L 357.583882 118.438275 
L 358.576588 120.135184 
L 359.569294 140.888996 
L 360.562 164.527903 
L 361.554706 173.536555 
L 362.547411 165.104174 
L 364.532823 114.515639 
L 365.525529 108.157407 
L 366.518235 131.724092 
L 367.510941 172.929023 
L 368.503647 194.496274 
L 369.496353 170.902589 
L 370.489059 128.256452 
L 371.481765 98.470048 
L 372.474471 109.390815 
L 374.459883 189.532442 
L 375.452589 188.596724 
L 376.445294 147.514445 
L 377.438 99.780391 
L 378.430706 95.790282 
L 379.423412 140.038478 
L 380.416118 190.457732 
L 381.408824 200.185883 
L 382.40153 160.832043 
L 383.394236 108.92638 
L 384.386942 95.042402 
L 385.379648 128.823035 
L 386.372354 178.942169 
L 387.36506 198.407448 
L 388.357766 164.167136 
L 389.350471 111.67119 
L 390.343177 97.866999 
L 391.335883 130.108576 
L 392.328589 171.620215 
L 393.321295 176.072228 
L 394.314001 148.436731 
L 395.306707 131.223011 
L 396.299413 141.032449 
L 397.292119 163.82801 
L 398.284825 165.783056 
L 399.277531 143.900213 
L 400.270237 116.400242 
L 401.262943 111.749246 
L 402.255648 141.744245 
L 403.248354 177.238424 
L 404.24106 179.571829 
L 406.226472 110.923513 
L 407.219178 110.240184 
L 408.211884 136.039695 
L 409.20459 166.011021 
L 410.197296 178.212403 
L 411.190002 166.26961 
L 412.182708 143.035966 
L 413.175414 123.95464 
L 414.16812 117.593921 
L 415.160825 131.136604 
L 416.153531 153.926769 
L 417.146237 171.552375 
L 418.138943 167.63847 
L 419.131649 140.94015 
L 420.124355 120.047409 
L 421.117061 133.019469 
L 422.109767 160.226563 
L 423.102473 168.010725 
L 424.095179 150.759815 
L 425.087885 130.835282 
L 426.080591 124.216822 
L 427.073297 138.127166 
L 428.066002 166.971559 
L 429.058708 175.368503 
L 430.051414 148.482747 
L 431.04412 118.413185 
L 432.036826 128.765628 
L 433.029532 162.021615 
L 434.022238 173.047124 
L 435.014944 152.343136 
L 436.00765 126.501277 
L 437.000356 125.588995 
L 437.993062 151.86558 
L 438.985768 171.806001 
L 439.978474 161.317556 
L 440.97118 126.312865 
L 441.963885 108.030019 
L 442.956591 124.740162 
L 443.949297 161.147047 
L 444.942003 183.661797 
L 445.934709 172.471207 
L 446.927415 141.49897 
L 447.920121 120.510364 
L 448.912827 131.950196 
L 449.905533 158.811364 
L 450.898239 169.648635 
L 451.890945 148.712391 
L 452.883651 118.43891 
L 453.876357 116.286419 
L 454.869062 150.281564 
L 455.861768 180.136977 
L 456.854474 172.879663 
L 457.84718 139.712568 
L 458.839886 115.83062 
L 459.832592 121.788111 
L 461.818004 173.315884 
L 462.81071 171.940653 
L 463.803416 141.7463 
L 464.796122 118.49338 
L 465.788828 123.163808 
L 466.781534 149.566104 
L 467.774239 165.994411 
L 468.766945 156.457078 
L 469.759651 136.902271 
L 470.752357 129.542782 
L 472.737769 160.602375 
L 473.730475 155.881171 
L 474.723181 136.958841 
L 475.715887 128.453419 
L 476.708593 139.438925 
L 477.701299 152.241613 
L 478.694005 152.405196 
L 479.686711 145.703237 
L 480.679416 144.062475 
L 481.672122 145.109952 
L 482.664828 144.496823 
L 483.657534 142.590818 
L 484.65024 141.176439 
L 485.642946 143.847645 
L 486.635652 150.310732 
L 487.628358 151.767737 
L 488.621064 147.762765 
L 489.61377 146.132698 
L 490.606476 149.800134 
L 491.599182 145.311067 
L 492.591888 128.436617 
L 493.584593 122.078044 
L 494.577299 141.074047 
L 495.570005 173.971351 
L 496.562711 182.77694 
L 497.555417 149.972557 
L 498.548123 106.118744 
L 499.540829 97.851832 
L 500.533535 140.10363 
L 501.526241 191.460762 
L 502.518947 204.126295 
L 503.511653 170.297397 
L 504.504359 119.78683 
L 505.497065 93.687774 
L 506.489771 108.386079 
L 507.482476 151.258821 
L 508.475182 187.815569 
L 509.467888 185.730427 
L 511.4533 113.975434 
L 512.446006 110.62658 
L 514.431418 175.681512 
L 515.424124 181.246639 
L 516.41683 152.579268 
L 517.409536 119.488567 
L 518.402242 116.466271 
L 520.387653 172.652812 
L 521.380359 177.208793 
L 522.373065 156.635385 
L 523.365771 127.866252 
L 524.358477 112.920059 
L 525.351183 120.721601 
L 527.336595 167.170597 
L 528.329301 169.812791 
L 529.322007 151.181141 
L 530.314713 130.043988 
L 531.307419 126.295231 
L 532.300125 140.662336 
L 533.29283 158.673794 
L 534.285536 163.583239 
L 535.278242 152.381821 
L 536.270948 134.856531 
L 537.263654 125.52122 
L 538.25636 130.80695 
L 539.249066 144.21074 
L 540.241772 153.852817 
L 541.234478 154.866602 
L 542.227184 152.072434 
L 543.21989 150.438102 
L 544.212596 149.782632 
L 545.205302 147.829516 
L 546.198007 143.266618 
L 547.190713 140.667845 
L 548.183419 143.890242 
L 550.168831 154.632543 
L 551.161537 154.632509 
L 553.146949 138.164045 
L 554.139655 138.6316 
L 555.132361 148.067271 
L 556.125067 156.291337 
L 557.117773 151.97165 
L 558.110479 143.355746 
L 559.103184 137.040891 
L 560.09589 138.077782 
L 561.088596 144.801889 
L 562.081302 149.842735 
L 563.074008 147.986187 
L 564.066714 142.967937 
L 565.05942 141.504973 
L 566.052126 142.458462 
L 567.044832 141.096233 
L 568.037538 141.033291 
L 570.02295 151.533234 
L 571.015656 149.15609 
L 572.008362 144.736909 
L 573.001067 141.589248 
L 573.993773 139.082591 
L 574.986479 140.851271 
L 575.979185 147.469569 
L 576.971891 156.108716 
L 577.964597 156.191905 
L 578.957303 144.278713 
L 579.950009 134.089424 
L 580.942715 135.934477 
L 581.935421 147.106313 
L 582.928127 154.226466 
L 583.920833 148.982303 
L 584.913539 138.498251 
L 585.906244 134.678053 
L 586.89895 144.067528 
L 587.891656 160.558486 
L 588.884362 162.76075 
L 590.869774 123.89699 
L 591.86248 126.037365 
L 592.855186 149.707204 
L 593.847892 169.1487 
L 594.840598 165.692798 
L 595.833304 143.182565 
L 596.82601 128.042504 
L 597.818716 134.198455 
L 598.811421 152.422615 
L 599.804127 162.128308 
L 600.796833 156.484632 
L 601.789539 140.128538 
L 602.782245 132.558791 
L 603.774951 140.679888 
L 604.767657 154.365578 
L 605.760363 154.253344 
L 606.753069 141.791597 
L 607.745775 135.052937 
L 608.738481 143.832057 
L 609.731187 156.0285 
L 610.723893 155.176024 
L 611.716598 141.596401 
L 612.709304 130.686016 
L 613.70201 139.014087 
L 614.694716 157.985042 
L 615.687422 162.290929 
L 617.672834 131.996672 
L 618.66554 135.631374 
L 619.658246 152.779295 
L 620.650952 160.698001 
L 621.643658 148.051204 
L 622.636364 130.938245 
L 622.636364 130.938245 
" clip-path="url(#p6db66b0ab5)" style="fill: none; stroke: #1f77b4; stroke-width: 1.5; stroke-linecap: square"/>
   </g>
   <g id="patch_3">
    <path d="M 90 256.32 
L 90 34.56 
" style="fill: none; stroke: #000000; stroke-width: 0.8; stroke-linejoin: miter; stroke-linecap: square"/>
   </g>
   <g id="patch_4">
    <path d="M 648 256.32 
L 648 34.56 
" style="fill: none; stroke: #000000; stroke-width: 0.8; stroke-linejoin: miter; stroke-linecap: square"/>
   </g>
   <g id="patch_5">
    <path d="M 90 256.32 
L 648 256.32 
" style="fill: none; stroke: #000000; stroke-width: 0.8; stroke-linejoin: miter; stroke-linecap: square"/>
   </g>
   <g id="patch_6">
    <path d="M 90 34.56 
L 648 34.56 
" style="fill: none; stroke: #000000; stroke-width: 0.8; stroke-linejoin: miter; stroke-linecap: square"/>
   </g>
   <g id="text_13">
    <!-- K is now at 2 -->
    <g transform="translate(330.418125 28.56) scale(0.12 -0.12)">
     <defs>
      <path id="DejaVuSans-4b" d="M 628 4666 
L 1259 4666 
L 1259 2694 
L 3353 4666 
L 4166 4666 
L 1850 2491 
L 4331 0 
L 3500 0 
L 1259 2247 
L 1259 0 
L 628 0 
L 628 4666 
z
" transform="scale(0.015625)"/>
      <path id="DejaVuSans-20" transform="scale(0.015625)"/>
      <path id="DejaVuSans-69" d="M 603 3500 
L 1178 3500 
L 1178 0 
L 603 0 
L 603 3500 
z
M 603 4863 
L 1178 4863 
L 1178 4134 
L 603 4134 
L 603 4863 
z
" transform="scale(0.015625)"/>
      <path id="DejaVuSans-73" d="M 2834 3397 
L 2834 2853 
Q 2591 2978 2328 3040 
Q 2066 3103 1784 3103 
Q 1356 3103 1142 2972 
Q 928 2841 928 2578 
Q 928 2378 1081 2264 
Q 1234 2150 1697 2047 
L 1894 2003 
Q 2506 1872 2764 1633 
Q 3022 1394 3022 966 
Q 3022 478 2636 193 
Q 2250 -91 1575 -91 
Q 1294 -91 989 -36 
Q 684 19 347 128 
L 347 722 
Q 666 556 975 473 
Q 1284 391 1588 391 
Q 1994 391 2212 530 
Q 2431 669 2431 922 
Q 2431 1156 2273 1281 
Q 2116 1406 1581 1522 
L 1381 1569 
Q 847 1681 609 1914 
Q 372 2147 372 2553 
Q 372 3047 722 3315 
Q 1072 3584 1716 3584 
Q 2034 3584 2315 3537 
Q 2597 3491 2834 3397 
z
" transform="scale(0.015625)"/>
      <path id="DejaVuSans-6e" d="M 3513 2113 
L 3513 0 
L 2938 0 
L 2938 2094 
Q 2938 2591 2744 2837 
Q 2550 3084 2163 3084 
Q 1697 3084 1428 2787 
Q 1159 2491 1159 1978 
L 1159 0 
L 581 0 
L 581 3500 
L 1159 3500 
L 1159 2956 
Q 1366 3272 1645 3428 
Q 1925 3584 2291 3584 
Q 2894 3584 3203 3211 
Q 3513 2838 3513 2113 
z
" transform="scale(0.015625)"/>
      <path id="DejaVuSans-6f" d="M 1959 3097 
Q 1497 3097 1228 2736 
Q 959 2375 959 1747 
Q 959 1119 1226 758 
Q 1494 397 1959 397 
Q 2419 397 2687 759 
Q 2956 1122 2956 1747 
Q 2956 2369 2687 2733 
Q 2419 3097 1959 3097 
z
M 1959 3584 
Q 2709 3584 3137 3096 
Q 3566 2609 3566 1747 
Q 3566 888 3137 398 
Q 2709 -91 1959 -91 
Q 1206 -91 779 398 
Q 353 888 353 1747 
Q 353 2609 779 3096 
Q 1206 3584 1959 3584 
z
" transform="scale(0.015625)"/>
      <path id="DejaVuSans-77" d="M 269 3500 
L 844 3500 
L 1563 769 
L 2278 3500 
L 2956 3500 
L 3675 769 
L 4391 3500 
L 4966 3500 
L 4050 0 
L 3372 0 
L 2619 2869 
L 1863 0 
L 1184 0 
L 269 3500 
z
" transform="scale(0.015625)"/>
      <path id="DejaVuSans-61" d="M 2194 1759 
Q 1497 1759 1228 1600 
Q 959 1441 959 1056 
Q 959 750 1161 570 
Q 1363 391 1709 391 
Q 2188 391 2477 730 
Q 2766 1069 2766 1631 
L 2766 1759 
L 2194 1759 
z
M 3341 1997 
L 3341 0 
L 2766 0 
L 2766 531 
Q 2569 213 2275 61 
Q 1981 -91 1556 -91 
Q 1019 -91 701 211 
Q 384 513 384 1019 
Q 384 1609 779 1909 
Q 1175 2209 1959 2209 
L 2766 2209 
L 2766 2266 
Q 2766 2663 2505 2880 
Q 2244 3097 1772 3097 
Q 1472 3097 1187 3025 
Q 903 2953 641 2809 
L 641 3341 
Q 956 3463 1253 3523 
Q 1550 3584 1831 3584 
Q 2591 3584 2966 3190 
Q 3341 2797 3341 1997 
z
" transform="scale(0.015625)"/>
      <path id="DejaVuSans-74" d="M 1172 4494 
L 1172 3500 
L 2356 3500 
L 2356 3053 
L 1172 3053 
L 1172 1153 
Q 1172 725 1289 603 
Q 1406 481 1766 481 
L 2356 481 
L 2356 0 
L 1766 0 
Q 1100 0 847 248 
Q 594 497 594 1153 
L 594 3053 
L 172 3053 
L 172 3500 
L 594 3500 
L 594 4494 
L 1172 4494 
z
" transform="scale(0.015625)"/>
     </defs>
     <use xlink:href="#DejaVuSans-4b"/>
     <use xlink:href="#DejaVuSans-20" x="65.576172"/>
     <use xlink:href="#DejaVuSans-69" x="97.363281"/>
     <use xlink:href="#DejaVuSans-73" x="125.146484"/>
     <use xlink:href="#DejaVuSans-20" x="177.246094"/>
     <use xlink:href="#DejaVuSans-6e" x="209.033203"/>
     <use xlink:href="#DejaVuSans-6f" x="272.412109"/>
     <use xlink:href="#DejaVuSans-77" x="333.59375"/>
     <use xlink:href="#DejaVuSans-20" x="415.380859"/>
     <use xlink:href="#DejaVuSans-61" x="447.167969"/>
     <use xlink:href="#DejaVuSans-74" x="508.447266"/>
     <use xlink:href="#DejaVuSans-20" x="547.65625"/>
     <use xlink:href="#DejaVuSans-32" x="579.443359"/>
    </g>
   </g>
  </g>
 </g>
 <defs>
  <clipPath id="p6db66b0ab5">
   <rect x="90" y="34.56" width="558" height="221.76"/>
  </clipPath>
 </defs>
</svg>
