<?xml version="1.0" encoding="utf-8" standalone="no"?>
<!DOCTYPE svg PUBLIC "-//W3C//DTD SVG 1.1//EN"
  "http://www.w3.org/Graphics/SVG/1.1/DTD/svg11.dtd">
<svg xmlns:xlink="http://www.w3.org/1999/xlink" width="720pt" height="288pt" viewBox="0 0 720 288" xmlns="http://www.w3.org/2000/svg" version="1.1">
 <metadata>
  <rdf:RDF xmlns:dc="http://purl.org/dc/elements/1.1/" xmlns:cc="http://creativecommons.org/ns#" xmlns:rdf="http://www.w3.org/1999/02/22-rdf-syntax-ns#">
   <cc:Work>
    <dc:type rdf:resource="http://purl.org/dc/dcmitype/StillImage"/>
    <dc:date>2023-11-20T08:43:12.802652</dc:date>
    <dc:format>image/svg+xml</dc:format>
    <dc:creator>
     <cc:Agent>
      <dc:title>Matplotlib v3.6.2, https://matplotlib.org/</dc:title>
     </cc:Agent>
    </dc:creator>
   </cc:Work>
  </rdf:RDF>
 </metadata>
 <defs>
  <style type="text/css">*{stroke-linejoin: round; stroke-linecap: butt}</style>
 </defs>
 <g id="figure_1">
  <g id="patch_1">
   <path d="M 0 288 
L 720 288 
L 720 0 
L 0 0 
z
" style="fill: #ffffff"/>
  </g>
  <g id="axes_1">
   <g id="patch_2">
    <path d="M 90 256.32 
L 648 256.32 
L 648 34.56 
L 90 34.56 
z
" style="fill: #ffffff"/>
   </g>
   <g id="matplotlib.axis_1">
    <g id="xtick_1">
     <g id="line2d_1">
      <defs>
       <path id="mbab453d403" d="M 0 0 
L 0 3.5 
" style="stroke: #000000; stroke-width: 0.8"/>
      </defs>
      <g>
       <use xlink:href="#mbab453d403" x="115.363636" y="256.32" style="stroke: #000000; stroke-width: 0.8"/>
      </g>
     </g>
     <g id="text_1">
      <!-- 0 -->
      <g transform="translate(112.182386 270.918437) scale(0.1 -0.1)">
       <defs>
        <path id="DejaVuSans-30" d="M 2034 4250 
Q 1547 4250 1301 3770 
Q 1056 3291 1056 2328 
Q 1056 1369 1301 889 
Q 1547 409 2034 409 
Q 2525 409 2770 889 
Q 3016 1369 3016 2328 
Q 3016 3291 2770 3770 
Q 2525 4250 2034 4250 
z
M 2034 4750 
Q 2819 4750 3233 4129 
Q 3647 3509 3647 2328 
Q 3647 1150 3233 529 
Q 2819 -91 2034 -91 
Q 1250 -91 836 529 
Q 422 1150 422 2328 
Q 422 3509 836 4129 
Q 1250 4750 2034 4750 
z
" transform="scale(0.015625)"/>
       </defs>
       <use xlink:href="#DejaVuSans-30"/>
      </g>
     </g>
    </g>
    <g id="xtick_2">
     <g id="line2d_2">
      <g>
       <use xlink:href="#mbab453d403" x="214.634229" y="256.32" style="stroke: #000000; stroke-width: 0.8"/>
      </g>
     </g>
     <g id="text_2">
      <!-- 100 -->
      <g transform="translate(205.090479 270.918437) scale(0.1 -0.1)">
       <defs>
        <path id="DejaVuSans-31" d="M 794 531 
L 1825 531 
L 1825 4091 
L 703 3866 
L 703 4441 
L 1819 4666 
L 2450 4666 
L 2450 531 
L 3481 531 
L 3481 0 
L 794 0 
L 794 531 
z
" transform="scale(0.015625)"/>
       </defs>
       <use xlink:href="#DejaVuSans-31"/>
       <use xlink:href="#DejaVuSans-30" x="63.623047"/>
       <use xlink:href="#DejaVuSans-30" x="127.246094"/>
      </g>
     </g>
    </g>
    <g id="xtick_3">
     <g id="line2d_3">
      <g>
       <use xlink:href="#mbab453d403" x="313.904821" y="256.32" style="stroke: #000000; stroke-width: 0.8"/>
      </g>
     </g>
     <g id="text_3">
      <!-- 200 -->
      <g transform="translate(304.361071 270.918437) scale(0.1 -0.1)">
       <defs>
        <path id="DejaVuSans-32" d="M 1228 531 
L 3431 531 
L 3431 0 
L 469 0 
L 469 531 
Q 828 903 1448 1529 
Q 2069 2156 2228 2338 
Q 2531 2678 2651 2914 
Q 2772 3150 2772 3378 
Q 2772 3750 2511 3984 
Q 2250 4219 1831 4219 
Q 1534 4219 1204 4116 
Q 875 4013 500 3803 
L 500 4441 
Q 881 4594 1212 4672 
Q 1544 4750 1819 4750 
Q 2544 4750 2975 4387 
Q 3406 4025 3406 3419 
Q 3406 3131 3298 2873 
Q 3191 2616 2906 2266 
Q 2828 2175 2409 1742 
Q 1991 1309 1228 531 
z
" transform="scale(0.015625)"/>
       </defs>
       <use xlink:href="#DejaVuSans-32"/>
       <use xlink:href="#DejaVuSans-30" x="63.623047"/>
       <use xlink:href="#DejaVuSans-30" x="127.246094"/>
      </g>
     </g>
    </g>
    <g id="xtick_4">
     <g id="line2d_4">
      <g>
       <use xlink:href="#mbab453d403" x="413.175414" y="256.32" style="stroke: #000000; stroke-width: 0.8"/>
      </g>
     </g>
     <g id="text_4">
      <!-- 300 -->
      <g transform="translate(403.631664 270.918437) scale(0.1 -0.1)">
       <defs>
        <path id="DejaVuSans-33" d="M 2597 2516 
Q 3050 2419 3304 2112 
Q 3559 1806 3559 1356 
Q 3559 666 3084 287 
Q 2609 -91 1734 -91 
Q 1441 -91 1130 -33 
Q 819 25 488 141 
L 488 750 
Q 750 597 1062 519 
Q 1375 441 1716 441 
Q 2309 441 2620 675 
Q 2931 909 2931 1356 
Q 2931 1769 2642 2001 
Q 2353 2234 1838 2234 
L 1294 2234 
L 1294 2753 
L 1863 2753 
Q 2328 2753 2575 2939 
Q 2822 3125 2822 3475 
Q 2822 3834 2567 4026 
Q 2313 4219 1838 4219 
Q 1578 4219 1281 4162 
Q 984 4106 628 3988 
L 628 4550 
Q 988 4650 1302 4700 
Q 1616 4750 1894 4750 
Q 2613 4750 3031 4423 
Q 3450 4097 3450 3541 
Q 3450 3153 3228 2886 
Q 3006 2619 2597 2516 
z
" transform="scale(0.015625)"/>
       </defs>
       <use xlink:href="#DejaVuSans-33"/>
       <use xlink:href="#DejaVuSans-30" x="63.623047"/>
       <use xlink:href="#DejaVuSans-30" x="127.246094"/>
      </g>
     </g>
    </g>
    <g id="xtick_5">
     <g id="line2d_5">
      <g>
       <use xlink:href="#mbab453d403" x="512.446006" y="256.32" style="stroke: #000000; stroke-width: 0.8"/>
      </g>
     </g>
     <g id="text_5">
      <!-- 400 -->
      <g transform="translate(502.902256 270.918437) scale(0.1 -0.1)">
       <defs>
        <path id="DejaVuSans-34" d="M 2419 4116 
L 825 1625 
L 2419 1625 
L 2419 4116 
z
M 2253 4666 
L 3047 4666 
L 3047 1625 
L 3713 1625 
L 3713 1100 
L 3047 1100 
L 3047 0 
L 2419 0 
L 2419 1100 
L 313 1100 
L 313 1709 
L 2253 4666 
z
" transform="scale(0.015625)"/>
       </defs>
       <use xlink:href="#DejaVuSans-34"/>
       <use xlink:href="#DejaVuSans-30" x="63.623047"/>
       <use xlink:href="#DejaVuSans-30" x="127.246094"/>
      </g>
     </g>
    </g>
    <g id="xtick_6">
     <g id="line2d_6">
      <g>
       <use xlink:href="#mbab453d403" x="611.716598" y="256.32" style="stroke: #000000; stroke-width: 0.8"/>
      </g>
     </g>
     <g id="text_6">
      <!-- 500 -->
      <g transform="translate(602.172848 270.918437) scale(0.1 -0.1)">
       <defs>
        <path id="DejaVuSans-35" d="M 691 4666 
L 3169 4666 
L 3169 4134 
L 1269 4134 
L 1269 2991 
Q 1406 3038 1543 3061 
Q 1681 3084 1819 3084 
Q 2600 3084 3056 2656 
Q 3513 2228 3513 1497 
Q 3513 744 3044 326 
Q 2575 -91 1722 -91 
Q 1428 -91 1123 -41 
Q 819 9 494 109 
L 494 744 
Q 775 591 1075 516 
Q 1375 441 1709 441 
Q 2250 441 2565 725 
Q 2881 1009 2881 1497 
Q 2881 1984 2565 2268 
Q 2250 2553 1709 2553 
Q 1456 2553 1204 2497 
Q 953 2441 691 2322 
L 691 4666 
z
" transform="scale(0.015625)"/>
       </defs>
       <use xlink:href="#DejaVuSans-35"/>
       <use xlink:href="#DejaVuSans-30" x="63.623047"/>
       <use xlink:href="#DejaVuSans-30" x="127.246094"/>
      </g>
     </g>
    </g>
   </g>
   <g id="matplotlib.axis_2">
    <g id="ytick_1">
     <g id="line2d_7">
      <defs>
       <path id="m8b68be5d7f" d="M 0 0 
L -3.5 0 
" style="stroke: #000000; stroke-width: 0.8"/>
      </defs>
      <g>
       <use xlink:href="#m8b68be5d7f" x="90" y="252.847299" style="stroke: #000000; stroke-width: 0.8"/>
      </g>
     </g>
     <g id="text_7">
      <!-- 0.0492 -->
      <g transform="translate(48.009375 256.646518) scale(0.1 -0.1)">
       <defs>
        <path id="DejaVuSans-2e" d="M 684 794 
L 1344 794 
L 1344 0 
L 684 0 
L 684 794 
z
" transform="scale(0.015625)"/>
        <path id="DejaVuSans-39" d="M 703 97 
L 703 672 
Q 941 559 1184 500 
Q 1428 441 1663 441 
Q 2288 441 2617 861 
Q 2947 1281 2994 2138 
Q 2813 1869 2534 1725 
Q 2256 1581 1919 1581 
Q 1219 1581 811 2004 
Q 403 2428 403 3163 
Q 403 3881 828 4315 
Q 1253 4750 1959 4750 
Q 2769 4750 3195 4129 
Q 3622 3509 3622 2328 
Q 3622 1225 3098 567 
Q 2575 -91 1691 -91 
Q 1453 -91 1209 -44 
Q 966 3 703 97 
z
M 1959 2075 
Q 2384 2075 2632 2365 
Q 2881 2656 2881 3163 
Q 2881 3666 2632 3958 
Q 2384 4250 1959 4250 
Q 1534 4250 1286 3958 
Q 1038 3666 1038 3163 
Q 1038 2656 1286 2365 
Q 1534 2075 1959 2075 
z
" transform="scale(0.015625)"/>
       </defs>
       <use xlink:href="#DejaVuSans-30"/>
       <use xlink:href="#DejaVuSans-2e" x="63.623047"/>
       <use xlink:href="#DejaVuSans-30" x="95.410156"/>
       <use xlink:href="#DejaVuSans-34" x="159.033203"/>
       <use xlink:href="#DejaVuSans-39" x="222.65625"/>
       <use xlink:href="#DejaVuSans-32" x="286.279297"/>
      </g>
     </g>
    </g>
    <g id="ytick_2">
     <g id="line2d_8">
      <g>
       <use xlink:href="#m8b68be5d7f" x="90" y="227.851409" style="stroke: #000000; stroke-width: 0.8"/>
      </g>
     </g>
     <g id="text_8">
      <!-- 0.0494 -->
      <g transform="translate(48.009375 231.650628) scale(0.1 -0.1)">
       <use xlink:href="#DejaVuSans-30"/>
       <use xlink:href="#DejaVuSans-2e" x="63.623047"/>
       <use xlink:href="#DejaVuSans-30" x="95.410156"/>
       <use xlink:href="#DejaVuSans-34" x="159.033203"/>
       <use xlink:href="#DejaVuSans-39" x="222.65625"/>
       <use xlink:href="#DejaVuSans-34" x="286.279297"/>
      </g>
     </g>
    </g>
    <g id="ytick_3">
     <g id="line2d_9">
      <g>
       <use xlink:href="#m8b68be5d7f" x="90" y="202.855519" style="stroke: #000000; stroke-width: 0.8"/>
      </g>
     </g>
     <g id="text_9">
      <!-- 0.0496 -->
      <g transform="translate(48.009375 206.654738) scale(0.1 -0.1)">
       <defs>
        <path id="DejaVuSans-36" d="M 2113 2584 
Q 1688 2584 1439 2293 
Q 1191 2003 1191 1497 
Q 1191 994 1439 701 
Q 1688 409 2113 409 
Q 2538 409 2786 701 
Q 3034 994 3034 1497 
Q 3034 2003 2786 2293 
Q 2538 2584 2113 2584 
z
M 3366 4563 
L 3366 3988 
Q 3128 4100 2886 4159 
Q 2644 4219 2406 4219 
Q 1781 4219 1451 3797 
Q 1122 3375 1075 2522 
Q 1259 2794 1537 2939 
Q 1816 3084 2150 3084 
Q 2853 3084 3261 2657 
Q 3669 2231 3669 1497 
Q 3669 778 3244 343 
Q 2819 -91 2113 -91 
Q 1303 -91 875 529 
Q 447 1150 447 2328 
Q 447 3434 972 4092 
Q 1497 4750 2381 4750 
Q 2619 4750 2861 4703 
Q 3103 4656 3366 4563 
z
" transform="scale(0.015625)"/>
       </defs>
       <use xlink:href="#DejaVuSans-30"/>
       <use xlink:href="#DejaVuSans-2e" x="63.623047"/>
       <use xlink:href="#DejaVuSans-30" x="95.410156"/>
       <use xlink:href="#DejaVuSans-34" x="159.033203"/>
       <use xlink:href="#DejaVuSans-39" x="222.65625"/>
       <use xlink:href="#DejaVuSans-36" x="286.279297"/>
      </g>
     </g>
    </g>
    <g id="ytick_4">
     <g id="line2d_10">
      <g>
       <use xlink:href="#m8b68be5d7f" x="90" y="177.859629" style="stroke: #000000; stroke-width: 0.8"/>
      </g>
     </g>
     <g id="text_10">
      <!-- 0.0498 -->
      <g transform="translate(48.009375 181.658848) scale(0.1 -0.1)">
       <defs>
        <path id="DejaVuSans-38" d="M 2034 2216 
Q 1584 2216 1326 1975 
Q 1069 1734 1069 1313 
Q 1069 891 1326 650 
Q 1584 409 2034 409 
Q 2484 409 2743 651 
Q 3003 894 3003 1313 
Q 3003 1734 2745 1975 
Q 2488 2216 2034 2216 
z
M 1403 2484 
Q 997 2584 770 2862 
Q 544 3141 544 3541 
Q 544 4100 942 4425 
Q 1341 4750 2034 4750 
Q 2731 4750 3128 4425 
Q 3525 4100 3525 3541 
Q 3525 3141 3298 2862 
Q 3072 2584 2669 2484 
Q 3125 2378 3379 2068 
Q 3634 1759 3634 1313 
Q 3634 634 3220 271 
Q 2806 -91 2034 -91 
Q 1263 -91 848 271 
Q 434 634 434 1313 
Q 434 1759 690 2068 
Q 947 2378 1403 2484 
z
M 1172 3481 
Q 1172 3119 1398 2916 
Q 1625 2713 2034 2713 
Q 2441 2713 2670 2916 
Q 2900 3119 2900 3481 
Q 2900 3844 2670 4047 
Q 2441 4250 2034 4250 
Q 1625 4250 1398 4047 
Q 1172 3844 1172 3481 
z
" transform="scale(0.015625)"/>
       </defs>
       <use xlink:href="#DejaVuSans-30"/>
       <use xlink:href="#DejaVuSans-2e" x="63.623047"/>
       <use xlink:href="#DejaVuSans-30" x="95.410156"/>
       <use xlink:href="#DejaVuSans-34" x="159.033203"/>
       <use xlink:href="#DejaVuSans-39" x="222.65625"/>
       <use xlink:href="#DejaVuSans-38" x="286.279297"/>
      </g>
     </g>
    </g>
    <g id="ytick_5">
     <g id="line2d_11">
      <g>
       <use xlink:href="#m8b68be5d7f" x="90" y="152.863739" style="stroke: #000000; stroke-width: 0.8"/>
      </g>
     </g>
     <g id="text_11">
      <!-- 0.0500 -->
      <g transform="translate(48.009375 156.662957) scale(0.1 -0.1)">
       <use xlink:href="#DejaVuSans-30"/>
       <use xlink:href="#DejaVuSans-2e" x="63.623047"/>
       <use xlink:href="#DejaVuSans-30" x="95.410156"/>
       <use xlink:href="#DejaVuSans-35" x="159.033203"/>
       <use xlink:href="#DejaVuSans-30" x="222.65625"/>
       <use xlink:href="#DejaVuSans-30" x="286.279297"/>
      </g>
     </g>
    </g>
    <g id="ytick_6">
     <g id="line2d_12">
      <g>
       <use xlink:href="#m8b68be5d7f" x="90" y="127.867849" style="stroke: #000000; stroke-width: 0.8"/>
      </g>
     </g>
     <g id="text_12">
      <!-- 0.0502 -->
      <g transform="translate(48.009375 131.667067) scale(0.1 -0.1)">
       <use xlink:href="#DejaVuSans-30"/>
       <use xlink:href="#DejaVuSans-2e" x="63.623047"/>
       <use xlink:href="#DejaVuSans-30" x="95.410156"/>
       <use xlink:href="#DejaVuSans-35" x="159.033203"/>
       <use xlink:href="#DejaVuSans-30" x="222.65625"/>
       <use xlink:href="#DejaVuSans-32" x="286.279297"/>
      </g>
     </g>
    </g>
    <g id="ytick_7">
     <g id="line2d_13">
      <g>
       <use xlink:href="#m8b68be5d7f" x="90" y="102.871958" style="stroke: #000000; stroke-width: 0.8"/>
      </g>
     </g>
     <g id="text_13">
      <!-- 0.0504 -->
      <g transform="translate(48.009375 106.671177) scale(0.1 -0.1)">
       <use xlink:href="#DejaVuSans-30"/>
       <use xlink:href="#DejaVuSans-2e" x="63.623047"/>
       <use xlink:href="#DejaVuSans-30" x="95.410156"/>
       <use xlink:href="#DejaVuSans-35" x="159.033203"/>
       <use xlink:href="#DejaVuSans-30" x="222.65625"/>
       <use xlink:href="#DejaVuSans-34" x="286.279297"/>
      </g>
     </g>
    </g>
    <g id="ytick_8">
     <g id="line2d_14">
      <g>
       <use xlink:href="#m8b68be5d7f" x="90" y="77.876068" style="stroke: #000000; stroke-width: 0.8"/>
      </g>
     </g>
     <g id="text_14">
      <!-- 0.0506 -->
      <g transform="translate(48.009375 81.675287) scale(0.1 -0.1)">
       <use xlink:href="#DejaVuSans-30"/>
       <use xlink:href="#DejaVuSans-2e" x="63.623047"/>
       <use xlink:href="#DejaVuSans-30" x="95.410156"/>
       <use xlink:href="#DejaVuSans-35" x="159.033203"/>
       <use xlink:href="#DejaVuSans-30" x="222.65625"/>
       <use xlink:href="#DejaVuSans-36" x="286.279297"/>
      </g>
     </g>
    </g>
    <g id="ytick_9">
     <g id="line2d_15">
      <g>
       <use xlink:href="#m8b68be5d7f" x="90" y="52.880178" style="stroke: #000000; stroke-width: 0.8"/>
      </g>
     </g>
     <g id="text_15">
      <!-- 0.0508 -->
      <g transform="translate(48.009375 56.679397) scale(0.1 -0.1)">
       <use xlink:href="#DejaVuSans-30"/>
       <use xlink:href="#DejaVuSans-2e" x="63.623047"/>
       <use xlink:href="#DejaVuSans-30" x="95.410156"/>
       <use xlink:href="#DejaVuSans-35" x="159.033203"/>
       <use xlink:href="#DejaVuSans-30" x="222.65625"/>
       <use xlink:href="#DejaVuSans-38" x="286.279297"/>
      </g>
     </g>
    </g>
   </g>
   <g id="line2d_16">
    <path d="M 115.363636 44.64 
L 117.349048 45.003744 
L 119.33446 47.017542 
L 120.327166 48.471046 
L 121.319872 49.721286 
L 123.305284 53.101767 
L 124.29799 54.475745 
L 126.283402 56.886972 
L 127.276107 58.442601 
L 130.254225 61.268915 
L 131.246931 62.414611 
L 132.239637 63.254988 
L 134.225049 65.320731 
L 135.217755 66.080212 
L 136.210461 66.442613 
L 137.203167 66.929351 
L 138.195873 68.139994 
L 141.17399 72.602056 
L 142.166696 75.165569 
L 143.159402 77.414165 
L 145.144814 79.973313 
L 146.13752 81.099514 
L 147.130226 82.41059 
L 148.122932 82.651064 
L 149.115638 83.162415 
L 151.10105 85.285592 
L 152.093756 86.610447 
L 154.079167 88.359599 
L 155.071873 89.23611 
L 159.042697 94.345159 
L 160.035403 96.259065 
L 161.028109 98.552955 
L 162.020815 100.07955 
L 163.013521 101.02273 
L 164.006227 102.310467 
L 165.991638 106.263622 
L 167.97705 110.965634 
L 169.962462 116.222069 
L 170.955168 118.644828 
L 171.947874 120.755382 
L 172.94058 122.077564 
L 173.933286 123.686177 
L 175.918698 127.613428 
L 178.896816 132.410774 
L 179.889521 133.371 
L 180.882227 133.829549 
L 181.874933 134.012536 
L 182.867639 133.939808 
L 183.860345 133.671027 
L 184.853051 132.851372 
L 185.845757 132.234288 
L 186.838463 131.786088 
L 188.823875 131.174724 
L 189.816581 131.664821 
L 191.801993 133.069963 
L 192.794698 133.142534 
L 193.787404 133.529628 
L 194.78011 134.16021 
L 195.772816 134.379957 
L 196.765522 134.28287 
L 197.758228 134.7176 
L 198.750934 135.643522 
L 199.74364 135.99304 
L 200.736346 135.333014 
L 202.721758 133.138284 
L 204.70717 129.216276 
L 205.699875 127.200166 
L 207.685287 123.731431 
L 208.677993 121.424429 
L 209.670699 118.696727 
L 213.641523 105.673072 
L 214.634229 103.229812 
L 215.626935 101.647599 
L 216.619641 100.729594 
L 217.612347 100.189999 
L 218.605052 100.083791 
L 220.590464 100.410225 
L 221.58317 101.228192 
L 223.568582 102.036773 
L 224.561288 101.592222 
L 226.5467 100.30725 
L 227.539406 99.962479 
L 229.524818 99.572827 
L 230.517524 100.49491 
L 231.510229 101.814918 
L 232.502935 102.802412 
L 234.488347 101.836965 
L 235.481053 102.393032 
L 236.473759 102.439331 
L 237.466465 102.808413 
L 238.459171 103.901226 
L 240.444583 107.915099 
L 241.437289 109.32194 
L 244.415407 114.651171 
L 245.408112 116.008101 
L 247.393524 117.658552 
L 248.38623 117.806755 
L 250.371642 117.670551 
L 254.342466 118.163683 
L 257.320584 116.839619 
L 259.305995 117.096433 
L 262.284113 119.778374 
L 263.276819 120.16561 
L 264.269525 120.890448 
L 269.233055 121.843157 
L 270.225761 122.357869 
L 271.218466 122.523068 
L 272.211172 122.170336 
L 273.203878 122.181614 
L 274.196584 122.650517 
L 276.181996 122.335628 
L 278.167408 122.762179 
L 280.15282 122.118868 
L 281.145526 122.40689 
L 282.138232 121.998624 
L 283.130938 121.327758 
L 284.123643 121.343811 
L 288.094467 123.230796 
L 290.079879 125.721598 
L 291.072585 127.487684 
L 294.050703 132.038779 
L 295.043409 133.790433 
L 296.036115 135.248586 
L 297.02882 136.114894 
L 299.014232 138.454631 
L 300.006938 139.527255 
L 300.999644 139.891922 
L 303.977762 141.677251 
L 306.95588 143.267303 
L 307.948586 143.167896 
L 308.941292 142.65275 
L 309.933998 142.291397 
L 311.919409 140.270118 
L 312.912115 139.709857 
L 313.904821 139.819384 
L 314.897527 140.66877 
L 315.890233 141.802184 
L 318.868351 147.204337 
L 319.861057 148.438562 
L 321.846469 150.390185 
L 323.83188 152.773935 
L 324.824586 154.426209 
L 327.802704 161.149177 
L 329.788116 164.914351 
L 330.780822 166.382521 
L 331.773528 167.549828 
L 332.766234 168.480376 
L 333.75894 169.226667 
L 334.751646 169.772041 
L 335.744352 170.533757 
L 336.737057 171.11143 
L 337.729763 171.287588 
L 339.715175 171.136002 
L 341.700587 171.882664 
L 342.693293 172.999167 
L 343.685999 175.454274 
L 344.678705 178.661644 
L 347.656823 189.336435 
L 349.642234 194.767942 
L 350.63494 196.387896 
L 351.627646 197.683199 
L 352.620352 198.321538 
L 354.605764 200.569292 
L 355.59847 201.254979 
L 356.591176 202.394246 
L 357.583882 204.064801 
L 358.576588 206.176928 
L 360.562 209.987365 
L 362.547411 214.971036 
L 363.540117 216.733946 
L 364.532823 218.089206 
L 365.525529 219.746302 
L 366.518235 220.902843 
L 367.510941 221.385867 
L 368.503647 221.326484 
L 369.496353 221.711951 
L 370.489059 222.308479 
L 372.474471 221.035506 
L 373.467177 220.270524 
L 374.459883 219.344903 
L 376.445294 216.701884 
L 379.423412 213.592311 
L 380.416118 212.848428 
L 381.408824 212.56995 
L 382.40153 211.59162 
L 384.386942 209.060311 
L 386.372354 207.541724 
L 387.36506 206.296494 
L 388.357766 204.524087 
L 389.350471 203.316312 
L 390.343177 201.813981 
L 391.335883 199.598069 
L 392.328589 196.957093 
L 394.314001 192.894455 
L 396.299413 189.290063 
L 397.292119 188.21182 
L 398.284825 186.930367 
L 399.277531 185.094951 
L 401.262943 182.354762 
L 402.255648 180.63328 
L 406.226472 172.159224 
L 408.211884 168.271685 
L 409.20459 166.428366 
L 410.197296 164.861362 
L 412.182708 160.691915 
L 413.175414 158.64515 
L 416.153531 154.614268 
L 417.146237 153.714809 
L 418.138943 153.189644 
L 419.131649 152.063264 
L 421.117061 150.457553 
L 423.102473 149.802921 
L 424.095179 149.901215 
L 425.087885 150.184968 
L 428.066002 152.896087 
L 429.058708 153.627788 
L 430.051414 154.020687 
L 431.04412 154.21498 
L 433.029532 153.948143 
L 435.014944 154.034814 
L 436.00765 154.344881 
L 437.993062 155.977742 
L 438.985768 156.368963 
L 440.97118 156.270483 
L 442.956591 157.935825 
L 444.942003 159.564093 
L 445.934709 160.499567 
L 446.927415 161.138374 
L 447.920121 160.976131 
L 448.912827 160.218336 
L 451.890945 156.757865 
L 452.883651 155.987428 
L 453.876357 154.987841 
L 454.869062 154.349189 
L 455.861768 153.886611 
L 456.854474 154.176044 
L 458.839886 154.409184 
L 459.832592 155.093949 
L 460.825298 156.432807 
L 461.818004 158.134222 
L 463.803416 160.556355 
L 464.796122 162.461198 
L 465.788828 163.971557 
L 466.781534 165.082457 
L 467.774239 165.657265 
L 468.766945 165.775077 
L 469.759651 166.228129 
L 470.752357 166.440106 
L 471.745063 166.200879 
L 472.737769 166.322999 
L 473.730475 166.955238 
L 474.723181 167.880865 
L 475.715887 168.61396 
L 476.708593 168.750354 
L 477.701299 169.299945 
L 479.686711 169.51884 
L 480.679416 170.03541 
L 481.672122 171.248243 
L 482.664828 173.313505 
L 486.635652 183.007404 
L 488.621064 187.539414 
L 489.61377 190.432177 
L 492.591888 200.602959 
L 493.584593 204.166171 
L 494.577299 207.274319 
L 496.562711 212.212369 
L 497.555417 215.028646 
L 499.540829 219.711927 
L 500.533535 221.750318 
L 501.526241 224.194799 
L 502.518947 226.181881 
L 503.511653 227.606984 
L 504.504359 228.596769 
L 505.497065 229.163202 
L 506.489771 229.552017 
L 507.482476 228.797218 
L 508.475182 227.435359 
L 509.467888 226.348085 
L 510.460594 225.820354 
L 511.4533 225.149702 
L 513.438712 221.907972 
L 515.424124 219.120097 
L 516.41683 218.104598 
L 517.409536 217.454844 
L 518.402242 217.553596 
L 521.380359 218.654935 
L 524.358477 216.559412 
L 525.351183 215.984006 
L 526.343889 215.550975 
L 527.336595 215.489602 
L 528.329301 215.312247 
L 529.322007 215.690042 
L 530.314713 217.205285 
L 531.307419 219.178431 
L 533.29283 223.93285 
L 534.285536 226.132434 
L 535.278242 227.845146 
L 537.263654 230.386139 
L 539.249066 231.457007 
L 540.241772 232.274358 
L 541.234478 233.699198 
L 543.21989 235.808156 
L 548.183419 242.194477 
L 549.176125 243.898823 
L 550.168831 245.082969 
L 551.161537 245.923071 
L 552.154243 246.24 
L 553.146949 245.825727 
L 554.139655 245.207584 
L 555.132361 243.936552 
L 558.110479 238.745455 
L 559.103184 237.23888 
L 561.088596 233.351633 
L 562.081302 231.745379 
L 565.05942 227.751855 
L 568.037538 223.13099 
L 571.015656 219.551426 
L 573.993773 216.753136 
L 574.986479 215.497617 
L 575.979185 214.027932 
L 576.971891 212.900235 
L 580.942715 209.655726 
L 583.920833 207.582436 
L 584.913539 207.455286 
L 585.906244 207.752052 
L 586.89895 208.369407 
L 587.891656 209.574131 
L 588.884362 211.159079 
L 589.877068 212.419902 
L 590.869774 213.266994 
L 591.86248 213.947528 
L 592.855186 214.991043 
L 593.847892 216.311294 
L 594.840598 216.951347 
L 595.833304 217.9506 
L 596.82601 219.35019 
L 597.818716 221.251017 
L 598.811421 222.260987 
L 599.804127 222.071676 
L 600.796833 221.659709 
L 601.789539 220.953236 
L 602.782245 219.935508 
L 603.774951 218.653274 
L 604.767657 217.8756 
L 605.760363 217.473496 
L 606.753069 217.470723 
L 607.745775 217.312369 
L 608.738481 217.538148 
L 609.731187 216.602716 
L 610.723893 214.951765 
L 611.716598 213.785645 
L 612.709304 212.390266 
L 613.70201 210.784165 
L 614.694716 208.489639 
L 615.687422 207.306046 
L 616.680128 206.644439 
L 617.672834 205.734158 
L 618.66554 204.59849 
L 619.658246 204.196956 
L 621.643658 203.662498 
L 622.636364 203.137911 
L 622.636364 203.137911 
" clip-path="url(#p8227ae4fa9)" style="fill: none; stroke: #1f77b4; stroke-width: 1.5; stroke-linecap: square"/>
   </g>
   <g id="patch_3">
    <path d="M 90 256.32 
L 90 34.56 
" style="fill: none; stroke: #000000; stroke-width: 0.8; stroke-linejoin: miter; stroke-linecap: square"/>
   </g>
   <g id="patch_4">
    <path d="M 648 256.32 
L 648 34.56 
" style="fill: none; stroke: #000000; stroke-width: 0.8; stroke-linejoin: miter; stroke-linecap: square"/>
   </g>
   <g id="patch_5">
    <path d="M 90 256.32 
L 648 256.32 
" style="fill: none; stroke: #000000; stroke-width: 0.8; stroke-linejoin: miter; stroke-linecap: square"/>
   </g>
   <g id="patch_6">
    <path d="M 90 34.56 
L 648 34.56 
" style="fill: none; stroke: #000000; stroke-width: 0.8; stroke-linejoin: miter; stroke-linecap: square"/>
   </g>
   <g id="text_16">
    <!-- K is now at 1 -->
    <g transform="translate(330.418125 28.56) scale(0.12 -0.12)">
     <defs>
      <path id="DejaVuSans-4b" d="M 628 4666 
L 1259 4666 
L 1259 2694 
L 3353 4666 
L 4166 4666 
L 1850 2491 
L 4331 0 
L 3500 0 
L 1259 2247 
L 1259 0 
L 628 0 
L 628 4666 
z
" transform="scale(0.015625)"/>
      <path id="DejaVuSans-20" transform="scale(0.015625)"/>
      <path id="DejaVuSans-69" d="M 603 3500 
L 1178 3500 
L 1178 0 
L 603 0 
L 603 3500 
z
M 603 4863 
L 1178 4863 
L 1178 4134 
L 603 4134 
L 603 4863 
z
" transform="scale(0.015625)"/>
      <path id="DejaVuSans-73" d="M 2834 3397 
L 2834 2853 
Q 2591 2978 2328 3040 
Q 2066 3103 1784 3103 
Q 1356 3103 1142 2972 
Q 928 2841 928 2578 
Q 928 2378 1081 2264 
Q 1234 2150 1697 2047 
L 1894 2003 
Q 2506 1872 2764 1633 
Q 3022 1394 3022 966 
Q 3022 478 2636 193 
Q 2250 -91 1575 -91 
Q 1294 -91 989 -36 
Q 684 19 347 128 
L 347 722 
Q 666 556 975 473 
Q 1284 391 1588 391 
Q 1994 391 2212 530 
Q 2431 669 2431 922 
Q 2431 1156 2273 1281 
Q 2116 1406 1581 1522 
L 1381 1569 
Q 847 1681 609 1914 
Q 372 2147 372 2553 
Q 372 3047 722 3315 
Q 1072 3584 1716 3584 
Q 2034 3584 2315 3537 
Q 2597 3491 2834 3397 
z
" transform="scale(0.015625)"/>
      <path id="DejaVuSans-6e" d="M 3513 2113 
L 3513 0 
L 2938 0 
L 2938 2094 
Q 2938 2591 2744 2837 
Q 2550 3084 2163 3084 
Q 1697 3084 1428 2787 
Q 1159 2491 1159 1978 
L 1159 0 
L 581 0 
L 581 3500 
L 1159 3500 
L 1159 2956 
Q 1366 3272 1645 3428 
Q 1925 3584 2291 3584 
Q 2894 3584 3203 3211 
Q 3513 2838 3513 2113 
z
" transform="scale(0.015625)"/>
      <path id="DejaVuSans-6f" d="M 1959 3097 
Q 1497 3097 1228 2736 
Q 959 2375 959 1747 
Q 959 1119 1226 758 
Q 1494 397 1959 397 
Q 2419 397 2687 759 
Q 2956 1122 2956 1747 
Q 2956 2369 2687 2733 
Q 2419 3097 1959 3097 
z
M 1959 3584 
Q 2709 3584 3137 3096 
Q 3566 2609 3566 1747 
Q 3566 888 3137 398 
Q 2709 -91 1959 -91 
Q 1206 -91 779 398 
Q 353 888 353 1747 
Q 353 2609 779 3096 
Q 1206 3584 1959 3584 
z
" transform="scale(0.015625)"/>
      <path id="DejaVuSans-77" d="M 269 3500 
L 844 3500 
L 1563 769 
L 2278 3500 
L 2956 3500 
L 3675 769 
L 4391 3500 
L 4966 3500 
L 4050 0 
L 3372 0 
L 2619 2869 
L 1863 0 
L 1184 0 
L 269 3500 
z
" transform="scale(0.015625)"/>
      <path id="DejaVuSans-61" d="M 2194 1759 
Q 1497 1759 1228 1600 
Q 959 1441 959 1056 
Q 959 750 1161 570 
Q 1363 391 1709 391 
Q 2188 391 2477 730 
Q 2766 1069 2766 1631 
L 2766 1759 
L 2194 1759 
z
M 3341 1997 
L 3341 0 
L 2766 0 
L 2766 531 
Q 2569 213 2275 61 
Q 1981 -91 1556 -91 
Q 1019 -91 701 211 
Q 384 513 384 1019 
Q 384 1609 779 1909 
Q 1175 2209 1959 2209 
L 2766 2209 
L 2766 2266 
Q 2766 2663 2505 2880 
Q 2244 3097 1772 3097 
Q 1472 3097 1187 3025 
Q 903 2953 641 2809 
L 641 3341 
Q 956 3463 1253 3523 
Q 1550 3584 1831 3584 
Q 2591 3584 2966 3190 
Q 3341 2797 3341 1997 
z
" transform="scale(0.015625)"/>
      <path id="DejaVuSans-74" d="M 1172 4494 
L 1172 3500 
L 2356 3500 
L 2356 3053 
L 1172 3053 
L 1172 1153 
Q 1172 725 1289 603 
Q 1406 481 1766 481 
L 2356 481 
L 2356 0 
L 1766 0 
Q 1100 0 847 248 
Q 594 497 594 1153 
L 594 3053 
L 172 3053 
L 172 3500 
L 594 3500 
L 594 4494 
L 1172 4494 
z
" transform="scale(0.015625)"/>
     </defs>
     <use xlink:href="#DejaVuSans-4b"/>
     <use xlink:href="#DejaVuSans-20" x="65.576172"/>
     <use xlink:href="#DejaVuSans-69" x="97.363281"/>
     <use xlink:href="#DejaVuSans-73" x="125.146484"/>
     <use xlink:href="#DejaVuSans-20" x="177.246094"/>
     <use xlink:href="#DejaVuSans-6e" x="209.033203"/>
     <use xlink:href="#DejaVuSans-6f" x="272.412109"/>
     <use xlink:href="#DejaVuSans-77" x="333.59375"/>
     <use xlink:href="#DejaVuSans-20" x="415.380859"/>
     <use xlink:href="#DejaVuSans-61" x="447.167969"/>
     <use xlink:href="#DejaVuSans-74" x="508.447266"/>
     <use xlink:href="#DejaVuSans-20" x="547.65625"/>
     <use xlink:href="#DejaVuSans-31" x="579.443359"/>
    </g>
   </g>
  </g>
 </g>
 <defs>
  <clipPath id="p8227ae4fa9">
   <rect x="90" y="34.56" width="558" height="221.76"/>
  </clipPath>
 </defs>
</svg>
