<?xml version="1.0" encoding="utf-8" standalone="no"?>
<!DOCTYPE svg PUBLIC "-//W3C//DTD SVG 1.1//EN"
  "http://www.w3.org/Graphics/SVG/1.1/DTD/svg11.dtd">
<svg xmlns:xlink="http://www.w3.org/1999/xlink" width="720pt" height="288pt" viewBox="0 0 720 288" xmlns="http://www.w3.org/2000/svg" version="1.1">
 <metadata>
  <rdf:RDF xmlns:dc="http://purl.org/dc/elements/1.1/" xmlns:cc="http://creativecommons.org/ns#" xmlns:rdf="http://www.w3.org/1999/02/22-rdf-syntax-ns#">
   <cc:Work>
    <dc:type rdf:resource="http://purl.org/dc/dcmitype/StillImage"/>
    <dc:date>2023-12-05T23:15:40.974614</dc:date>
    <dc:format>image/svg+xml</dc:format>
    <dc:creator>
     <cc:Agent>
      <dc:title>Matplotlib v3.6.2, https://matplotlib.org/</dc:title>
     </cc:Agent>
    </dc:creator>
   </cc:Work>
  </rdf:RDF>
 </metadata>
 <defs>
  <style type="text/css">*{stroke-linejoin: round; stroke-linecap: butt}</style>
 </defs>
 <g id="figure_1">
  <g id="patch_1">
   <path d="M 0 288 
L 720 288 
L 720 0 
L 0 0 
z
" style="fill: #ffffff"/>
  </g>
  <g id="axes_1">
   <g id="patch_2">
    <path d="M 90 256.32 
L 648 256.32 
L 648 34.56 
L 90 34.56 
z
" style="fill: #ffffff"/>
   </g>
   <g id="matplotlib.axis_1">
    <g id="xtick_1">
     <g id="line2d_1">
      <defs>
       <path id="mf3f3a9d5d2" d="M 0 0 
L 0 3.5 
" style="stroke: #000000; stroke-width: 0.8"/>
      </defs>
      <g>
       <use xlink:href="#mf3f3a9d5d2" x="115.363636" y="256.32" style="stroke: #000000; stroke-width: 0.8"/>
      </g>
     </g>
     <g id="text_1">
      <!-- 0 -->
      <g transform="translate(112.182386 270.918437) scale(0.1 -0.1)">
       <defs>
        <path id="DejaVuSans-30" d="M 2034 4250 
Q 1547 4250 1301 3770 
Q 1056 3291 1056 2328 
Q 1056 1369 1301 889 
Q 1547 409 2034 409 
Q 2525 409 2770 889 
Q 3016 1369 3016 2328 
Q 3016 3291 2770 3770 
Q 2525 4250 2034 4250 
z
M 2034 4750 
Q 2819 4750 3233 4129 
Q 3647 3509 3647 2328 
Q 3647 1150 3233 529 
Q 2819 -91 2034 -91 
Q 1250 -91 836 529 
Q 422 1150 422 2328 
Q 422 3509 836 4129 
Q 1250 4750 2034 4750 
z
" transform="scale(0.015625)"/>
       </defs>
       <use xlink:href="#DejaVuSans-30"/>
      </g>
     </g>
    </g>
    <g id="xtick_2">
     <g id="line2d_2">
      <g>
       <use xlink:href="#mf3f3a9d5d2" x="214.634229" y="256.32" style="stroke: #000000; stroke-width: 0.8"/>
      </g>
     </g>
     <g id="text_2">
      <!-- 100 -->
      <g transform="translate(205.090479 270.918437) scale(0.1 -0.1)">
       <defs>
        <path id="DejaVuSans-31" d="M 794 531 
L 1825 531 
L 1825 4091 
L 703 3866 
L 703 4441 
L 1819 4666 
L 2450 4666 
L 2450 531 
L 3481 531 
L 3481 0 
L 794 0 
L 794 531 
z
" transform="scale(0.015625)"/>
       </defs>
       <use xlink:href="#DejaVuSans-31"/>
       <use xlink:href="#DejaVuSans-30" x="63.623047"/>
       <use xlink:href="#DejaVuSans-30" x="127.246094"/>
      </g>
     </g>
    </g>
    <g id="xtick_3">
     <g id="line2d_3">
      <g>
       <use xlink:href="#mf3f3a9d5d2" x="313.904821" y="256.32" style="stroke: #000000; stroke-width: 0.8"/>
      </g>
     </g>
     <g id="text_3">
      <!-- 200 -->
      <g transform="translate(304.361071 270.918437) scale(0.1 -0.1)">
       <defs>
        <path id="DejaVuSans-32" d="M 1228 531 
L 3431 531 
L 3431 0 
L 469 0 
L 469 531 
Q 828 903 1448 1529 
Q 2069 2156 2228 2338 
Q 2531 2678 2651 2914 
Q 2772 3150 2772 3378 
Q 2772 3750 2511 3984 
Q 2250 4219 1831 4219 
Q 1534 4219 1204 4116 
Q 875 4013 500 3803 
L 500 4441 
Q 881 4594 1212 4672 
Q 1544 4750 1819 4750 
Q 2544 4750 2975 4387 
Q 3406 4025 3406 3419 
Q 3406 3131 3298 2873 
Q 3191 2616 2906 2266 
Q 2828 2175 2409 1742 
Q 1991 1309 1228 531 
z
" transform="scale(0.015625)"/>
       </defs>
       <use xlink:href="#DejaVuSans-32"/>
       <use xlink:href="#DejaVuSans-30" x="63.623047"/>
       <use xlink:href="#DejaVuSans-30" x="127.246094"/>
      </g>
     </g>
    </g>
    <g id="xtick_4">
     <g id="line2d_4">
      <g>
       <use xlink:href="#mf3f3a9d5d2" x="413.175414" y="256.32" style="stroke: #000000; stroke-width: 0.8"/>
      </g>
     </g>
     <g id="text_4">
      <!-- 300 -->
      <g transform="translate(403.631664 270.918437) scale(0.1 -0.1)">
       <defs>
        <path id="DejaVuSans-33" d="M 2597 2516 
Q 3050 2419 3304 2112 
Q 3559 1806 3559 1356 
Q 3559 666 3084 287 
Q 2609 -91 1734 -91 
Q 1441 -91 1130 -33 
Q 819 25 488 141 
L 488 750 
Q 750 597 1062 519 
Q 1375 441 1716 441 
Q 2309 441 2620 675 
Q 2931 909 2931 1356 
Q 2931 1769 2642 2001 
Q 2353 2234 1838 2234 
L 1294 2234 
L 1294 2753 
L 1863 2753 
Q 2328 2753 2575 2939 
Q 2822 3125 2822 3475 
Q 2822 3834 2567 4026 
Q 2313 4219 1838 4219 
Q 1578 4219 1281 4162 
Q 984 4106 628 3988 
L 628 4550 
Q 988 4650 1302 4700 
Q 1616 4750 1894 4750 
Q 2613 4750 3031 4423 
Q 3450 4097 3450 3541 
Q 3450 3153 3228 2886 
Q 3006 2619 2597 2516 
z
" transform="scale(0.015625)"/>
       </defs>
       <use xlink:href="#DejaVuSans-33"/>
       <use xlink:href="#DejaVuSans-30" x="63.623047"/>
       <use xlink:href="#DejaVuSans-30" x="127.246094"/>
      </g>
     </g>
    </g>
    <g id="xtick_5">
     <g id="line2d_5">
      <g>
       <use xlink:href="#mf3f3a9d5d2" x="512.446006" y="256.32" style="stroke: #000000; stroke-width: 0.8"/>
      </g>
     </g>
     <g id="text_5">
      <!-- 400 -->
      <g transform="translate(502.902256 270.918437) scale(0.1 -0.1)">
       <defs>
        <path id="DejaVuSans-34" d="M 2419 4116 
L 825 1625 
L 2419 1625 
L 2419 4116 
z
M 2253 4666 
L 3047 4666 
L 3047 1625 
L 3713 1625 
L 3713 1100 
L 3047 1100 
L 3047 0 
L 2419 0 
L 2419 1100 
L 313 1100 
L 313 1709 
L 2253 4666 
z
" transform="scale(0.015625)"/>
       </defs>
       <use xlink:href="#DejaVuSans-34"/>
       <use xlink:href="#DejaVuSans-30" x="63.623047"/>
       <use xlink:href="#DejaVuSans-30" x="127.246094"/>
      </g>
     </g>
    </g>
    <g id="xtick_6">
     <g id="line2d_6">
      <g>
       <use xlink:href="#mf3f3a9d5d2" x="611.716598" y="256.32" style="stroke: #000000; stroke-width: 0.8"/>
      </g>
     </g>
     <g id="text_6">
      <!-- 500 -->
      <g transform="translate(602.172848 270.918437) scale(0.1 -0.1)">
       <defs>
        <path id="DejaVuSans-35" d="M 691 4666 
L 3169 4666 
L 3169 4134 
L 1269 4134 
L 1269 2991 
Q 1406 3038 1543 3061 
Q 1681 3084 1819 3084 
Q 2600 3084 3056 2656 
Q 3513 2228 3513 1497 
Q 3513 744 3044 326 
Q 2575 -91 1722 -91 
Q 1428 -91 1123 -41 
Q 819 9 494 109 
L 494 744 
Q 775 591 1075 516 
Q 1375 441 1709 441 
Q 2250 441 2565 725 
Q 2881 1009 2881 1497 
Q 2881 1984 2565 2268 
Q 2250 2553 1709 2553 
Q 1456 2553 1204 2497 
Q 953 2441 691 2322 
L 691 4666 
z
" transform="scale(0.015625)"/>
       </defs>
       <use xlink:href="#DejaVuSans-35"/>
       <use xlink:href="#DejaVuSans-30" x="63.623047"/>
       <use xlink:href="#DejaVuSans-30" x="127.246094"/>
      </g>
     </g>
    </g>
   </g>
   <g id="matplotlib.axis_2">
    <g id="ytick_1">
     <g id="line2d_7">
      <defs>
       <path id="m395654c9d2" d="M 0 0 
L -3.5 0 
" style="stroke: #000000; stroke-width: 0.8"/>
      </defs>
      <g>
       <use xlink:href="#m395654c9d2" x="90" y="250.152009" style="stroke: #000000; stroke-width: 0.8"/>
      </g>
     </g>
     <g id="text_7">
      <!-- −1.5 -->
      <g transform="translate(58.717187 253.951228) scale(0.1 -0.1)">
       <defs>
        <path id="DejaVuSans-2212" d="M 678 2272 
L 4684 2272 
L 4684 1741 
L 678 1741 
L 678 2272 
z
" transform="scale(0.015625)"/>
        <path id="DejaVuSans-2e" d="M 684 794 
L 1344 794 
L 1344 0 
L 684 0 
L 684 794 
z
" transform="scale(0.015625)"/>
       </defs>
       <use xlink:href="#DejaVuSans-2212"/>
       <use xlink:href="#DejaVuSans-31" x="83.789062"/>
       <use xlink:href="#DejaVuSans-2e" x="147.412109"/>
       <use xlink:href="#DejaVuSans-35" x="179.199219"/>
      </g>
     </g>
    </g>
    <g id="ytick_2">
     <g id="line2d_8">
      <g>
       <use xlink:href="#m395654c9d2" x="90" y="218.491974" style="stroke: #000000; stroke-width: 0.8"/>
      </g>
     </g>
     <g id="text_8">
      <!-- −1.0 -->
      <g transform="translate(58.717187 222.291193) scale(0.1 -0.1)">
       <use xlink:href="#DejaVuSans-2212"/>
       <use xlink:href="#DejaVuSans-31" x="83.789062"/>
       <use xlink:href="#DejaVuSans-2e" x="147.412109"/>
       <use xlink:href="#DejaVuSans-30" x="179.199219"/>
      </g>
     </g>
    </g>
    <g id="ytick_3">
     <g id="line2d_9">
      <g>
       <use xlink:href="#m395654c9d2" x="90" y="186.831939" style="stroke: #000000; stroke-width: 0.8"/>
      </g>
     </g>
     <g id="text_9">
      <!-- −0.5 -->
      <g transform="translate(58.717187 190.631158) scale(0.1 -0.1)">
       <use xlink:href="#DejaVuSans-2212"/>
       <use xlink:href="#DejaVuSans-30" x="83.789062"/>
       <use xlink:href="#DejaVuSans-2e" x="147.412109"/>
       <use xlink:href="#DejaVuSans-35" x="179.199219"/>
      </g>
     </g>
    </g>
    <g id="ytick_4">
     <g id="line2d_10">
      <g>
       <use xlink:href="#m395654c9d2" x="90" y="155.171903" style="stroke: #000000; stroke-width: 0.8"/>
      </g>
     </g>
     <g id="text_10">
      <!-- 0.0 -->
      <g transform="translate(67.096875 158.971122) scale(0.1 -0.1)">
       <use xlink:href="#DejaVuSans-30"/>
       <use xlink:href="#DejaVuSans-2e" x="63.623047"/>
       <use xlink:href="#DejaVuSans-30" x="95.410156"/>
      </g>
     </g>
    </g>
    <g id="ytick_5">
     <g id="line2d_11">
      <g>
       <use xlink:href="#m395654c9d2" x="90" y="123.511868" style="stroke: #000000; stroke-width: 0.8"/>
      </g>
     </g>
     <g id="text_11">
      <!-- 0.5 -->
      <g transform="translate(67.096875 127.311087) scale(0.1 -0.1)">
       <use xlink:href="#DejaVuSans-30"/>
       <use xlink:href="#DejaVuSans-2e" x="63.623047"/>
       <use xlink:href="#DejaVuSans-35" x="95.410156"/>
      </g>
     </g>
    </g>
    <g id="ytick_6">
     <g id="line2d_12">
      <g>
       <use xlink:href="#m395654c9d2" x="90" y="91.851833" style="stroke: #000000; stroke-width: 0.8"/>
      </g>
     </g>
     <g id="text_12">
      <!-- 1.0 -->
      <g transform="translate(67.096875 95.651052) scale(0.1 -0.1)">
       <use xlink:href="#DejaVuSans-31"/>
       <use xlink:href="#DejaVuSans-2e" x="63.623047"/>
       <use xlink:href="#DejaVuSans-30" x="95.410156"/>
      </g>
     </g>
    </g>
    <g id="ytick_7">
     <g id="line2d_13">
      <g>
       <use xlink:href="#m395654c9d2" x="90" y="60.191798" style="stroke: #000000; stroke-width: 0.8"/>
      </g>
     </g>
     <g id="text_13">
      <!-- 1.5 -->
      <g transform="translate(67.096875 63.991016) scale(0.1 -0.1)">
       <use xlink:href="#DejaVuSans-31"/>
       <use xlink:href="#DejaVuSans-2e" x="63.623047"/>
       <use xlink:href="#DejaVuSans-35" x="95.410156"/>
      </g>
     </g>
    </g>
    <g id="text_14">
     <!-- 1e−5 -->
     <g transform="translate(90 31.56) scale(0.1 -0.1)">
      <defs>
       <path id="DejaVuSans-65" d="M 3597 1894 
L 3597 1613 
L 953 1613 
Q 991 1019 1311 708 
Q 1631 397 2203 397 
Q 2534 397 2845 478 
Q 3156 559 3463 722 
L 3463 178 
Q 3153 47 2828 -22 
Q 2503 -91 2169 -91 
Q 1331 -91 842 396 
Q 353 884 353 1716 
Q 353 2575 817 3079 
Q 1281 3584 2069 3584 
Q 2775 3584 3186 3129 
Q 3597 2675 3597 1894 
z
M 3022 2063 
Q 3016 2534 2758 2815 
Q 2500 3097 2075 3097 
Q 1594 3097 1305 2825 
Q 1016 2553 972 2059 
L 3022 2063 
z
" transform="scale(0.015625)"/>
      </defs>
      <use xlink:href="#DejaVuSans-31"/>
      <use xlink:href="#DejaVuSans-65" x="63.623047"/>
      <use xlink:href="#DejaVuSans-2212" x="125.146484"/>
      <use xlink:href="#DejaVuSans-35" x="208.935547"/>
     </g>
    </g>
   </g>
   <g id="line2d_14">
    <path d="M 115.363636 173.009384 
L 116.356342 119.746097 
L 117.349048 183.481351 
L 118.341754 150.743243 
L 119.33446 135.068833 
L 120.327166 190.272081 
L 121.319872 132.717098 
L 122.312578 157.215186 
L 123.305284 171.447283 
L 124.29799 126.562428 
L 125.290696 177.399354 
L 126.283402 167.363231 
L 127.276107 107.188656 
L 128.268813 189.751759 
L 129.261519 168.04281 
L 130.254225 110.172638 
L 131.246931 198.456171 
L 132.239637 135.749457 
L 133.232343 137.173775 
L 134.225049 199.938143 
L 135.217755 116.642512 
L 136.210461 147.817347 
L 137.203167 197.463589 
L 138.195873 119.433526 
L 139.188579 156.389476 
L 140.181284 180.823218 
L 141.17399 125.10879 
L 142.166696 164.489926 
L 143.159402 174.80405 
L 144.152108 123.197691 
L 145.144814 160.676762 
L 146.13752 191.140898 
L 147.130226 120.156827 
L 148.122932 152.387311 
L 149.115638 194.832743 
L 150.108344 115.96375 
L 151.10105 157.201564 
L 152.093756 192.976873 
L 153.086461 113.015777 
L 155.071873 200.366254 
L 156.064579 110.146829 
L 157.057285 150.92511 
L 158.049991 205.028464 
L 159.042697 97.956677 
L 161.028109 221.725206 
L 162.020815 73.423015 
L 163.013521 172.440331 
L 164.006227 224.137844 
L 164.998933 60.457793 
L 165.991638 189.04573 
L 166.984344 215.028673 
L 167.97705 44.64 
L 168.969756 212.840244 
L 169.962462 203.929485 
L 170.955168 45.398137 
L 171.947874 221.257623 
L 172.94058 176.594638 
L 173.933286 76.517488 
L 174.925992 228.403317 
L 175.918698 150.096352 
L 176.911404 97.927189 
L 177.90411 226.758713 
L 178.896816 140.892854 
L 179.889521 98.743075 
L 180.882227 225.428169 
L 181.874933 137.451435 
L 182.867639 114.361607 
L 183.860345 207.45014 
L 184.853051 131.769589 
L 185.845757 144.909112 
L 186.838463 185.176146 
L 187.831169 118.500129 
L 188.823875 169.038028 
L 189.816581 175.88213 
L 190.809287 117.768938 
L 191.801993 175.699773 
L 192.794698 178.130276 
L 193.787404 118.414123 
L 194.78011 164.448194 
L 195.772816 191.767108 
L 196.765522 103.635487 
L 197.758228 160.243078 
L 198.750934 191.271851 
L 199.74364 109.950235 
L 201.729052 203.793051 
L 202.721758 95.910609 
L 203.714464 178.01017 
L 204.70717 195.788268 
L 205.699875 91.00865 
L 206.692581 184.231704 
L 207.685287 170.894452 
L 208.677993 118.809856 
L 209.670699 177.747914 
L 210.663405 150.928918 
L 211.656111 143.475081 
L 212.648817 186.808774 
L 213.641523 123.73308 
L 215.626935 190.934981 
L 216.619641 108.234838 
L 217.612347 175.717214 
L 218.605052 182.797903 
L 219.597758 91.229369 
L 220.590464 198.016119 
L 221.58317 183.004868 
L 222.575876 78.297278 
L 223.568582 198.252086 
L 224.561288 189.446728 
L 225.553994 74.944813 
L 226.5467 195.624581 
L 227.539406 197.82298 
L 228.532112 76.747074 
L 229.524818 180.114717 
L 230.517524 211.820461 
L 231.510229 83.961627 
L 232.502935 161.420162 
L 233.495641 214.309672 
L 234.488347 101.644327 
L 235.481053 148.471591 
L 236.473759 211.662572 
L 237.466465 116.141631 
L 238.459171 139.130791 
L 239.451877 208.328333 
L 240.444583 125.518442 
L 241.437289 130.454728 
L 242.429995 204.398792 
L 243.422701 129.169784 
L 244.415407 151.545204 
L 245.408112 178.386529 
L 246.400818 129.419984 
L 247.393524 175.580296 
L 249.378936 132.448798 
L 250.371642 192.077 
L 251.364348 129.444765 
L 253.34976 182.688533 
L 254.342466 127.175665 
L 255.335172 161.473407 
L 256.327878 178.862199 
L 257.320584 129.004796 
L 258.313289 160.6889 
L 259.305995 168.821862 
L 260.298701 134.43933 
L 261.291407 179.922521 
L 262.284113 132.615315 
L 263.276819 164.478042 
L 264.269525 169.786355 
L 265.262231 124.403284 
L 266.254937 180.197122 
L 267.247643 155.13423 
L 268.240349 135.141318 
L 269.233055 163.842023 
L 270.225761 156.200715 
L 271.218466 146.404392 
L 272.211172 164.022523 
L 273.203878 145.101971 
L 274.196584 151.174404 
L 275.18929 175.254667 
L 276.181996 137.674283 
L 277.174702 147.487586 
L 278.167408 179.616101 
L 279.160114 132.493885 
L 280.15282 160.078275 
L 281.145526 175.428925 
L 282.138232 125.611174 
L 283.130938 172.869401 
L 284.123643 169.311503 
L 285.116349 118.342503 
L 286.109055 182.819662 
L 287.101761 161.515162 
L 288.094467 121.980578 
L 289.087173 187.839062 
L 291.072585 120.791634 
L 292.065291 195.466954 
L 293.057997 148.440657 
L 294.050703 113.881294 
L 295.043409 221.977254 
L 296.036115 121.759972 
L 297.02882 120.98758 
L 298.021526 222.517543 
L 299.014232 120.662169 
L 300.006938 129.003734 
L 300.999644 200.396918 
L 301.99235 140.212609 
L 302.985056 129.559996 
L 303.977762 195.015182 
L 304.970468 136.360229 
L 305.963174 135.698199 
L 306.95588 180.059501 
L 307.948586 157.599661 
L 308.941292 127.379854 
L 309.933998 162.794087 
L 310.926703 190.654095 
L 311.919409 105.267686 
L 312.912115 164.419627 
L 313.904821 203.801648 
L 314.897527 92.901823 
L 315.890233 164.290883 
L 316.882939 215.838892 
L 317.875645 78.056367 
L 318.868351 174.970428 
L 319.861057 207.056194 
L 320.853763 79.627785 
L 321.846469 187.760632 
L 322.839175 190.539398 
L 323.83188 92.305158 
L 324.824586 186.813442 
L 325.817292 180.489563 
L 326.809998 113.733451 
L 327.802704 169.734377 
L 328.79541 164.256211 
L 329.788116 151.755273 
L 330.780822 145.269292 
L 331.773528 156.915109 
L 332.766234 176.506207 
L 333.75894 121.126687 
L 334.751646 173.109827 
L 335.744352 176.549676 
L 336.737057 110.842428 
L 337.729763 181.888766 
L 338.722469 170.637044 
L 339.715175 109.880429 
L 340.707881 196.7695 
L 341.700587 134.284751 
L 342.693293 147.577357 
L 343.685999 198.071182 
L 344.678705 99.862853 
L 345.671411 184.322007 
L 346.664117 191.25708 
L 347.656823 85.436658 
L 348.649529 189.491343 
L 349.642234 185.704707 
L 350.63494 89.728056 
L 351.627646 198.881493 
L 352.620352 162.5477 
L 353.613058 111.181449 
L 354.605764 199.964406 
L 355.59847 151.906303 
L 356.591176 114.568856 
L 357.583882 198.836803 
L 358.576588 142.970147 
L 359.569294 131.215475 
L 360.562 186.834503 
L 361.554706 143.502844 
L 362.547411 147.957174 
L 363.540117 159.742259 
L 364.532823 157.741836 
L 365.525529 160.065495 
L 366.518235 130.466138 
L 367.510941 179.340387 
L 368.503647 161.372151 
L 369.496353 115.000724 
L 370.489059 205.205908 
L 371.481765 131.713001 
L 372.474471 129.051163 
L 373.467177 214.313344 
L 374.459883 112.107771 
L 375.452589 132.726106 
L 376.445294 235.814943 
L 377.438 83.791974 
L 378.430706 149.711586 
L 379.423412 237.089795 
L 380.416118 68.730158 
L 381.408824 169.056886 
L 382.40153 231.436755 
L 383.394236 55.844155 
L 384.386942 190.215816 
L 385.379648 216.631172 
L 386.372354 55.139429 
L 387.36506 200.952416 
L 388.357766 200.183249 
L 389.350471 72.486232 
L 390.343177 197.399297 
L 391.335883 173.569776 
L 392.328589 108.8954 
L 393.321295 181.916121 
L 394.314001 167.049421 
L 395.306707 131.948632 
L 397.292119 181.191077 
L 398.284825 135.538656 
L 399.277531 143.548153 
L 400.270237 175.113593 
L 401.262943 157.19258 
L 402.255648 130.744811 
L 403.248354 158.355374 
L 404.24106 192.167383 
L 405.233766 116.979324 
L 406.226472 135.714638 
L 407.219178 226.036832 
L 408.211884 95.408374 
L 409.20459 140.582117 
L 410.197296 241.232224 
L 411.190002 75.163177 
L 412.182708 150.607666 
L 413.175414 246.24 
L 414.16812 59.053744 
L 415.160825 165.12589 
L 416.153531 237.836644 
L 417.146237 58.174533 
L 418.138943 170.367377 
L 419.131649 237.111501 
L 420.124355 67.953171 
L 421.117061 159.444952 
L 422.109767 223.177184 
L 423.102473 101.516954 
L 424.095179 143.364945 
L 425.087885 199.671587 
L 426.080591 132.802017 
L 427.073297 148.184933 
L 428.066002 167.539043 
L 429.058708 143.472175 
L 430.051414 179.889495 
L 431.04412 135.707899 
L 432.036826 143.309752 
L 433.029532 191.269733 
L 434.022238 134.677432 
L 435.014944 144.302222 
L 436.00765 181.349883 
L 437.000356 142.275428 
L 437.993062 147.419367 
L 438.985768 166.500529 
L 439.978474 157.742569 
L 440.97118 138.680906 
L 441.963885 164.510058 
L 442.956591 156.524011 
L 443.949297 150.119722 
L 444.942003 159.377703 
L 445.934709 153.841989 
L 446.927415 162.508666 
L 447.920121 149.854106 
L 448.912827 156.343008 
L 449.905533 159.235417 
L 450.898239 150.139272 
L 451.890945 152.58593 
L 452.883651 163.604376 
L 453.876357 151.153301 
L 454.869062 144.812027 
L 455.861768 165.718763 
L 456.854474 169.674542 
L 457.84718 126.369647 
L 459.832592 192.411379 
L 460.825298 113.608088 
L 462.81071 194.752901 
L 463.803416 117.758755 
L 464.796122 158.5937 
L 465.788828 174.493898 
L 466.781534 140.406658 
L 467.774239 149.682463 
L 468.766945 166.177247 
L 469.759651 159.642003 
L 470.752357 134.139575 
L 471.745063 169.550839 
L 472.737769 165.250437 
L 473.730475 128.207751 
L 474.723181 174.074959 
L 475.715887 161.996635 
L 476.708593 120.576684 
L 477.701299 183.578959 
L 478.694005 168.479318 
L 479.686711 107.209579 
L 480.679416 186.014675 
L 481.672122 175.050695 
L 482.664828 105.818951 
L 483.657534 180.929353 
L 484.65024 177.356641 
L 485.642946 110.937254 
L 486.635652 172.857885 
L 487.628358 178.765453 
L 488.621064 125.528401 
L 489.61377 157.975211 
L 490.606476 174.89287 
L 491.599182 133.4517 
L 492.591888 157.630904 
L 493.584593 174.43225 
L 494.577299 127.14711 
L 495.570005 168.160227 
L 496.562711 165.630482 
L 497.555417 131.504065 
L 498.548123 176.153737 
L 499.540829 148.995619 
L 500.533535 141.231236 
L 501.526241 181.035344 
L 502.518947 148.232085 
L 503.511653 141.109904 
L 504.504359 173.948373 
L 505.497065 152.443523 
L 506.489771 138.180075 
L 507.482476 174.88996 
L 508.475182 149.209402 
L 509.467888 137.213371 
L 510.460594 188.497151 
L 511.4533 137.694073 
L 512.446006 137.579745 
L 513.438712 200.314237 
L 514.431418 121.494123 
L 515.424124 144.519058 
L 516.41683 204.764057 
L 517.409536 115.623675 
L 518.402242 145.830579 
L 519.394948 205.307324 
L 520.387653 118.851015 
L 521.380359 142.521742 
L 522.373065 205.31219 
L 523.365771 113.714101 
L 524.358477 146.165383 
L 525.351183 203.829498 
L 526.343889 111.544913 
L 527.336595 146.848202 
L 528.329301 206.797625 
L 529.322007 110.463358 
L 530.314713 151.910326 
L 531.307419 203.050726 
L 532.300125 107.310176 
L 533.29283 160.747185 
L 534.285536 195.306682 
L 535.278242 105.641468 
L 536.270948 166.90586 
L 537.263654 189.98848 
L 538.25636 102.844491 
L 539.249066 173.108839 
L 540.241772 186.992717 
L 541.234478 103.549196 
L 542.227184 180.259247 
L 543.21989 181.791043 
L 544.212596 105.255021 
L 545.205302 185.837909 
L 546.198007 172.054882 
L 547.190713 109.364764 
L 548.183419 188.005188 
L 549.176125 163.885557 
L 550.168831 120.455233 
L 551.161537 181.935799 
L 552.154243 157.671087 
L 553.146949 138.3214 
L 554.139655 165.361397 
L 555.132361 157.486387 
L 556.125067 151.964199 
L 557.117773 150.705245 
L 558.110479 165.246045 
L 559.103184 147.732499 
L 560.09589 150.950531 
L 561.088596 168.303548 
L 562.081302 141.373512 
L 563.074008 154.708398 
L 564.066714 172.119442 
L 565.05942 132.611811 
L 567.044832 180.776105 
L 568.037538 126.889732 
L 569.030244 151.122772 
L 570.02295 188.740339 
L 571.015656 126.91701 
L 572.008362 150.778268 
L 573.001067 180.435028 
L 573.993773 136.166438 
L 574.986479 155.250345 
L 575.979185 164.329305 
L 576.971891 150.515158 
L 577.964597 152.56432 
L 578.957303 156.394026 
L 579.950009 165.839282 
L 580.942715 137.975153 
L 581.935421 155.410778 
L 582.928127 179.865373 
L 583.920833 124.725129 
L 585.906244 190.570515 
L 586.89895 117.494847 
L 588.884362 192.401828 
L 589.877068 121.660111 
L 590.869774 150.78841 
L 591.86248 189.434073 
L 592.855186 126.752999 
L 593.847892 149.208528 
L 594.840598 191.97409 
L 595.833304 125.122687 
L 596.82601 152.194412 
L 597.818716 185.670605 
L 598.811421 129.492251 
L 600.796833 178.79417 
L 601.789539 126.859264 
L 602.782245 171.541401 
L 603.774951 160.321095 
L 604.767657 129.156397 
L 605.760363 184.09667 
L 606.753069 150.861541 
L 607.745775 125.435454 
L 608.738481 194.064795 
L 609.731187 143.215372 
L 610.723893 126.503644 
L 611.716598 202.27878 
L 612.709304 131.817741 
L 613.70201 132.993594 
L 614.694716 201.079149 
L 615.687422 126.830408 
L 616.680128 147.940025 
L 617.672834 188.686014 
L 618.66554 123.918031 
L 619.658246 158.498915 
L 620.650952 181.353906 
L 621.643658 122.436328 
L 622.636364 168.594021 
L 622.636364 168.594021 
" clip-path="url(#pff25d2059d)" style="fill: none; stroke: #1f77b4; stroke-width: 1.5; stroke-linecap: square"/>
   </g>
   <g id="patch_3">
    <path d="M 90 256.32 
L 90 34.56 
" style="fill: none; stroke: #000000; stroke-width: 0.8; stroke-linejoin: miter; stroke-linecap: square"/>
   </g>
   <g id="patch_4">
    <path d="M 648 256.32 
L 648 34.56 
" style="fill: none; stroke: #000000; stroke-width: 0.8; stroke-linejoin: miter; stroke-linecap: square"/>
   </g>
   <g id="patch_5">
    <path d="M 90 256.32 
L 648 256.32 
" style="fill: none; stroke: #000000; stroke-width: 0.8; stroke-linejoin: miter; stroke-linecap: square"/>
   </g>
   <g id="patch_6">
    <path d="M 90 34.56 
L 648 34.56 
" style="fill: none; stroke: #000000; stroke-width: 0.8; stroke-linejoin: miter; stroke-linecap: square"/>
   </g>
   <g id="text_15">
    <!-- K is now at 3 -->
    <g transform="translate(330.418125 28.56) scale(0.12 -0.12)">
     <defs>
      <path id="DejaVuSans-4b" d="M 628 4666 
L 1259 4666 
L 1259 2694 
L 3353 4666 
L 4166 4666 
L 1850 2491 
L 4331 0 
L 3500 0 
L 1259 2247 
L 1259 0 
L 628 0 
L 628 4666 
z
" transform="scale(0.015625)"/>
      <path id="DejaVuSans-20" transform="scale(0.015625)"/>
      <path id="DejaVuSans-69" d="M 603 3500 
L 1178 3500 
L 1178 0 
L 603 0 
L 603 3500 
z
M 603 4863 
L 1178 4863 
L 1178 4134 
L 603 4134 
L 603 4863 
z
" transform="scale(0.015625)"/>
      <path id="DejaVuSans-73" d="M 2834 3397 
L 2834 2853 
Q 2591 2978 2328 3040 
Q 2066 3103 1784 3103 
Q 1356 3103 1142 2972 
Q 928 2841 928 2578 
Q 928 2378 1081 2264 
Q 1234 2150 1697 2047 
L 1894 2003 
Q 2506 1872 2764 1633 
Q 3022 1394 3022 966 
Q 3022 478 2636 193 
Q 2250 -91 1575 -91 
Q 1294 -91 989 -36 
Q 684 19 347 128 
L 347 722 
Q 666 556 975 473 
Q 1284 391 1588 391 
Q 1994 391 2212 530 
Q 2431 669 2431 922 
Q 2431 1156 2273 1281 
Q 2116 1406 1581 1522 
L 1381 1569 
Q 847 1681 609 1914 
Q 372 2147 372 2553 
Q 372 3047 722 3315 
Q 1072 3584 1716 3584 
Q 2034 3584 2315 3537 
Q 2597 3491 2834 3397 
z
" transform="scale(0.015625)"/>
      <path id="DejaVuSans-6e" d="M 3513 2113 
L 3513 0 
L 2938 0 
L 2938 2094 
Q 2938 2591 2744 2837 
Q 2550 3084 2163 3084 
Q 1697 3084 1428 2787 
Q 1159 2491 1159 1978 
L 1159 0 
L 581 0 
L 581 3500 
L 1159 3500 
L 1159 2956 
Q 1366 3272 1645 3428 
Q 1925 3584 2291 3584 
Q 2894 3584 3203 3211 
Q 3513 2838 3513 2113 
z
" transform="scale(0.015625)"/>
      <path id="DejaVuSans-6f" d="M 1959 3097 
Q 1497 3097 1228 2736 
Q 959 2375 959 1747 
Q 959 1119 1226 758 
Q 1494 397 1959 397 
Q 2419 397 2687 759 
Q 2956 1122 2956 1747 
Q 2956 2369 2687 2733 
Q 2419 3097 1959 3097 
z
M 1959 3584 
Q 2709 3584 3137 3096 
Q 3566 2609 3566 1747 
Q 3566 888 3137 398 
Q 2709 -91 1959 -91 
Q 1206 -91 779 398 
Q 353 888 353 1747 
Q 353 2609 779 3096 
Q 1206 3584 1959 3584 
z
" transform="scale(0.015625)"/>
      <path id="DejaVuSans-77" d="M 269 3500 
L 844 3500 
L 1563 769 
L 2278 3500 
L 2956 3500 
L 3675 769 
L 4391 3500 
L 4966 3500 
L 4050 0 
L 3372 0 
L 2619 2869 
L 1863 0 
L 1184 0 
L 269 3500 
z
" transform="scale(0.015625)"/>
      <path id="DejaVuSans-61" d="M 2194 1759 
Q 1497 1759 1228 1600 
Q 959 1441 959 1056 
Q 959 750 1161 570 
Q 1363 391 1709 391 
Q 2188 391 2477 730 
Q 2766 1069 2766 1631 
L 2766 1759 
L 2194 1759 
z
M 3341 1997 
L 3341 0 
L 2766 0 
L 2766 531 
Q 2569 213 2275 61 
Q 1981 -91 1556 -91 
Q 1019 -91 701 211 
Q 384 513 384 1019 
Q 384 1609 779 1909 
Q 1175 2209 1959 2209 
L 2766 2209 
L 2766 2266 
Q 2766 2663 2505 2880 
Q 2244 3097 1772 3097 
Q 1472 3097 1187 3025 
Q 903 2953 641 2809 
L 641 3341 
Q 956 3463 1253 3523 
Q 1550 3584 1831 3584 
Q 2591 3584 2966 3190 
Q 3341 2797 3341 1997 
z
" transform="scale(0.015625)"/>
      <path id="DejaVuSans-74" d="M 1172 4494 
L 1172 3500 
L 2356 3500 
L 2356 3053 
L 1172 3053 
L 1172 1153 
Q 1172 725 1289 603 
Q 1406 481 1766 481 
L 2356 481 
L 2356 0 
L 1766 0 
Q 1100 0 847 248 
Q 594 497 594 1153 
L 594 3053 
L 172 3053 
L 172 3500 
L 594 3500 
L 594 4494 
L 1172 4494 
z
" transform="scale(0.015625)"/>
     </defs>
     <use xlink:href="#DejaVuSans-4b"/>
     <use xlink:href="#DejaVuSans-20" x="65.576172"/>
     <use xlink:href="#DejaVuSans-69" x="97.363281"/>
     <use xlink:href="#DejaVuSans-73" x="125.146484"/>
     <use xlink:href="#DejaVuSans-20" x="177.246094"/>
     <use xlink:href="#DejaVuSans-6e" x="209.033203"/>
     <use xlink:href="#DejaVuSans-6f" x="272.412109"/>
     <use xlink:href="#DejaVuSans-77" x="333.59375"/>
     <use xlink:href="#DejaVuSans-20" x="415.380859"/>
     <use xlink:href="#DejaVuSans-61" x="447.167969"/>
     <use xlink:href="#DejaVuSans-74" x="508.447266"/>
     <use xlink:href="#DejaVuSans-20" x="547.65625"/>
     <use xlink:href="#DejaVuSans-33" x="579.443359"/>
    </g>
   </g>
  </g>
 </g>
 <defs>
  <clipPath id="pff25d2059d">
   <rect x="90" y="34.56" width="558" height="221.76"/>
  </clipPath>
 </defs>
</svg>
