<?xml version="1.0" encoding="utf-8" standalone="no"?>
<!DOCTYPE svg PUBLIC "-//W3C//DTD SVG 1.1//EN"
  "http://www.w3.org/Graphics/SVG/1.1/DTD/svg11.dtd">
<svg xmlns:xlink="http://www.w3.org/1999/xlink" width="720pt" height="288pt" viewBox="0 0 720 288" xmlns="http://www.w3.org/2000/svg" version="1.1">
 <metadata>
  <rdf:RDF xmlns:dc="http://purl.org/dc/elements/1.1/" xmlns:cc="http://creativecommons.org/ns#" xmlns:rdf="http://www.w3.org/1999/02/22-rdf-syntax-ns#">
   <cc:Work>
    <dc:type rdf:resource="http://purl.org/dc/dcmitype/StillImage"/>
    <dc:date>2023-12-05T23:15:40.826460</dc:date>
    <dc:format>image/svg+xml</dc:format>
    <dc:creator>
     <cc:Agent>
      <dc:title>Matplotlib v3.6.2, https://matplotlib.org/</dc:title>
     </cc:Agent>
    </dc:creator>
   </cc:Work>
  </rdf:RDF>
 </metadata>
 <defs>
  <style type="text/css">*{stroke-linejoin: round; stroke-linecap: butt}</style>
 </defs>
 <g id="figure_1">
  <g id="patch_1">
   <path d="M 0 288 
L 720 288 
L 720 0 
L 0 0 
z
" style="fill: #ffffff"/>
  </g>
  <g id="axes_1">
   <g id="patch_2">
    <path d="M 90 256.32 
L 648 256.32 
L 648 34.56 
L 90 34.56 
z
" style="fill: #ffffff"/>
   </g>
   <g id="matplotlib.axis_1">
    <g id="xtick_1">
     <g id="line2d_1">
      <defs>
       <path id="m73ce8fadc0" d="M 0 0 
L 0 3.5 
" style="stroke: #000000; stroke-width: 0.8"/>
      </defs>
      <g>
       <use xlink:href="#m73ce8fadc0" x="115.363636" y="256.32" style="stroke: #000000; stroke-width: 0.8"/>
      </g>
     </g>
     <g id="text_1">
      <!-- 0 -->
      <g transform="translate(112.182386 270.918437) scale(0.1 -0.1)">
       <defs>
        <path id="DejaVuSans-30" d="M 2034 4250 
Q 1547 4250 1301 3770 
Q 1056 3291 1056 2328 
Q 1056 1369 1301 889 
Q 1547 409 2034 409 
Q 2525 409 2770 889 
Q 3016 1369 3016 2328 
Q 3016 3291 2770 3770 
Q 2525 4250 2034 4250 
z
M 2034 4750 
Q 2819 4750 3233 4129 
Q 3647 3509 3647 2328 
Q 3647 1150 3233 529 
Q 2819 -91 2034 -91 
Q 1250 -91 836 529 
Q 422 1150 422 2328 
Q 422 3509 836 4129 
Q 1250 4750 2034 4750 
z
" transform="scale(0.015625)"/>
       </defs>
       <use xlink:href="#DejaVuSans-30"/>
      </g>
     </g>
    </g>
    <g id="xtick_2">
     <g id="line2d_2">
      <g>
       <use xlink:href="#m73ce8fadc0" x="214.634229" y="256.32" style="stroke: #000000; stroke-width: 0.8"/>
      </g>
     </g>
     <g id="text_2">
      <!-- 100 -->
      <g transform="translate(205.090479 270.918437) scale(0.1 -0.1)">
       <defs>
        <path id="DejaVuSans-31" d="M 794 531 
L 1825 531 
L 1825 4091 
L 703 3866 
L 703 4441 
L 1819 4666 
L 2450 4666 
L 2450 531 
L 3481 531 
L 3481 0 
L 794 0 
L 794 531 
z
" transform="scale(0.015625)"/>
       </defs>
       <use xlink:href="#DejaVuSans-31"/>
       <use xlink:href="#DejaVuSans-30" x="63.623047"/>
       <use xlink:href="#DejaVuSans-30" x="127.246094"/>
      </g>
     </g>
    </g>
    <g id="xtick_3">
     <g id="line2d_3">
      <g>
       <use xlink:href="#m73ce8fadc0" x="313.904821" y="256.32" style="stroke: #000000; stroke-width: 0.8"/>
      </g>
     </g>
     <g id="text_3">
      <!-- 200 -->
      <g transform="translate(304.361071 270.918437) scale(0.1 -0.1)">
       <defs>
        <path id="DejaVuSans-32" d="M 1228 531 
L 3431 531 
L 3431 0 
L 469 0 
L 469 531 
Q 828 903 1448 1529 
Q 2069 2156 2228 2338 
Q 2531 2678 2651 2914 
Q 2772 3150 2772 3378 
Q 2772 3750 2511 3984 
Q 2250 4219 1831 4219 
Q 1534 4219 1204 4116 
Q 875 4013 500 3803 
L 500 4441 
Q 881 4594 1212 4672 
Q 1544 4750 1819 4750 
Q 2544 4750 2975 4387 
Q 3406 4025 3406 3419 
Q 3406 3131 3298 2873 
Q 3191 2616 2906 2266 
Q 2828 2175 2409 1742 
Q 1991 1309 1228 531 
z
" transform="scale(0.015625)"/>
       </defs>
       <use xlink:href="#DejaVuSans-32"/>
       <use xlink:href="#DejaVuSans-30" x="63.623047"/>
       <use xlink:href="#DejaVuSans-30" x="127.246094"/>
      </g>
     </g>
    </g>
    <g id="xtick_4">
     <g id="line2d_4">
      <g>
       <use xlink:href="#m73ce8fadc0" x="413.175414" y="256.32" style="stroke: #000000; stroke-width: 0.8"/>
      </g>
     </g>
     <g id="text_4">
      <!-- 300 -->
      <g transform="translate(403.631664 270.918437) scale(0.1 -0.1)">
       <defs>
        <path id="DejaVuSans-33" d="M 2597 2516 
Q 3050 2419 3304 2112 
Q 3559 1806 3559 1356 
Q 3559 666 3084 287 
Q 2609 -91 1734 -91 
Q 1441 -91 1130 -33 
Q 819 25 488 141 
L 488 750 
Q 750 597 1062 519 
Q 1375 441 1716 441 
Q 2309 441 2620 675 
Q 2931 909 2931 1356 
Q 2931 1769 2642 2001 
Q 2353 2234 1838 2234 
L 1294 2234 
L 1294 2753 
L 1863 2753 
Q 2328 2753 2575 2939 
Q 2822 3125 2822 3475 
Q 2822 3834 2567 4026 
Q 2313 4219 1838 4219 
Q 1578 4219 1281 4162 
Q 984 4106 628 3988 
L 628 4550 
Q 988 4650 1302 4700 
Q 1616 4750 1894 4750 
Q 2613 4750 3031 4423 
Q 3450 4097 3450 3541 
Q 3450 3153 3228 2886 
Q 3006 2619 2597 2516 
z
" transform="scale(0.015625)"/>
       </defs>
       <use xlink:href="#DejaVuSans-33"/>
       <use xlink:href="#DejaVuSans-30" x="63.623047"/>
       <use xlink:href="#DejaVuSans-30" x="127.246094"/>
      </g>
     </g>
    </g>
    <g id="xtick_5">
     <g id="line2d_5">
      <g>
       <use xlink:href="#m73ce8fadc0" x="512.446006" y="256.32" style="stroke: #000000; stroke-width: 0.8"/>
      </g>
     </g>
     <g id="text_5">
      <!-- 400 -->
      <g transform="translate(502.902256 270.918437) scale(0.1 -0.1)">
       <defs>
        <path id="DejaVuSans-34" d="M 2419 4116 
L 825 1625 
L 2419 1625 
L 2419 4116 
z
M 2253 4666 
L 3047 4666 
L 3047 1625 
L 3713 1625 
L 3713 1100 
L 3047 1100 
L 3047 0 
L 2419 0 
L 2419 1100 
L 313 1100 
L 313 1709 
L 2253 4666 
z
" transform="scale(0.015625)"/>
       </defs>
       <use xlink:href="#DejaVuSans-34"/>
       <use xlink:href="#DejaVuSans-30" x="63.623047"/>
       <use xlink:href="#DejaVuSans-30" x="127.246094"/>
      </g>
     </g>
    </g>
    <g id="xtick_6">
     <g id="line2d_6">
      <g>
       <use xlink:href="#m73ce8fadc0" x="611.716598" y="256.32" style="stroke: #000000; stroke-width: 0.8"/>
      </g>
     </g>
     <g id="text_6">
      <!-- 500 -->
      <g transform="translate(602.172848 270.918437) scale(0.1 -0.1)">
       <defs>
        <path id="DejaVuSans-35" d="M 691 4666 
L 3169 4666 
L 3169 4134 
L 1269 4134 
L 1269 2991 
Q 1406 3038 1543 3061 
Q 1681 3084 1819 3084 
Q 2600 3084 3056 2656 
Q 3513 2228 3513 1497 
Q 3513 744 3044 326 
Q 2575 -91 1722 -91 
Q 1428 -91 1123 -41 
Q 819 9 494 109 
L 494 744 
Q 775 591 1075 516 
Q 1375 441 1709 441 
Q 2250 441 2565 725 
Q 2881 1009 2881 1497 
Q 2881 1984 2565 2268 
Q 2250 2553 1709 2553 
Q 1456 2553 1204 2497 
Q 953 2441 691 2322 
L 691 4666 
z
" transform="scale(0.015625)"/>
       </defs>
       <use xlink:href="#DejaVuSans-35"/>
       <use xlink:href="#DejaVuSans-30" x="63.623047"/>
       <use xlink:href="#DejaVuSans-30" x="127.246094"/>
      </g>
     </g>
    </g>
   </g>
   <g id="matplotlib.axis_2">
    <g id="ytick_1">
     <g id="line2d_7">
      <defs>
       <path id="m0881671777" d="M 0 0 
L -3.5 0 
" style="stroke: #000000; stroke-width: 0.8"/>
      </defs>
      <g>
       <use xlink:href="#m0881671777" x="90" y="219.055205" style="stroke: #000000; stroke-width: 0.8"/>
      </g>
     </g>
     <g id="text_7">
      <!-- −0.00090 -->
      <g transform="translate(33.267187 222.854423) scale(0.1 -0.1)">
       <defs>
        <path id="DejaVuSans-2212" d="M 678 2272 
L 4684 2272 
L 4684 1741 
L 678 1741 
L 678 2272 
z
" transform="scale(0.015625)"/>
        <path id="DejaVuSans-2e" d="M 684 794 
L 1344 794 
L 1344 0 
L 684 0 
L 684 794 
z
" transform="scale(0.015625)"/>
        <path id="DejaVuSans-39" d="M 703 97 
L 703 672 
Q 941 559 1184 500 
Q 1428 441 1663 441 
Q 2288 441 2617 861 
Q 2947 1281 2994 2138 
Q 2813 1869 2534 1725 
Q 2256 1581 1919 1581 
Q 1219 1581 811 2004 
Q 403 2428 403 3163 
Q 403 3881 828 4315 
Q 1253 4750 1959 4750 
Q 2769 4750 3195 4129 
Q 3622 3509 3622 2328 
Q 3622 1225 3098 567 
Q 2575 -91 1691 -91 
Q 1453 -91 1209 -44 
Q 966 3 703 97 
z
M 1959 2075 
Q 2384 2075 2632 2365 
Q 2881 2656 2881 3163 
Q 2881 3666 2632 3958 
Q 2384 4250 1959 4250 
Q 1534 4250 1286 3958 
Q 1038 3666 1038 3163 
Q 1038 2656 1286 2365 
Q 1534 2075 1959 2075 
z
" transform="scale(0.015625)"/>
       </defs>
       <use xlink:href="#DejaVuSans-2212"/>
       <use xlink:href="#DejaVuSans-30" x="83.789062"/>
       <use xlink:href="#DejaVuSans-2e" x="147.412109"/>
       <use xlink:href="#DejaVuSans-30" x="179.199219"/>
       <use xlink:href="#DejaVuSans-30" x="242.822266"/>
       <use xlink:href="#DejaVuSans-30" x="306.445312"/>
       <use xlink:href="#DejaVuSans-39" x="370.068359"/>
       <use xlink:href="#DejaVuSans-30" x="433.691406"/>
      </g>
     </g>
    </g>
    <g id="ytick_2">
     <g id="line2d_8">
      <g>
       <use xlink:href="#m0881671777" x="90" y="174.881312" style="stroke: #000000; stroke-width: 0.8"/>
      </g>
     </g>
     <g id="text_8">
      <!-- −0.00085 -->
      <g transform="translate(33.267187 178.680531) scale(0.1 -0.1)">
       <defs>
        <path id="DejaVuSans-38" d="M 2034 2216 
Q 1584 2216 1326 1975 
Q 1069 1734 1069 1313 
Q 1069 891 1326 650 
Q 1584 409 2034 409 
Q 2484 409 2743 651 
Q 3003 894 3003 1313 
Q 3003 1734 2745 1975 
Q 2488 2216 2034 2216 
z
M 1403 2484 
Q 997 2584 770 2862 
Q 544 3141 544 3541 
Q 544 4100 942 4425 
Q 1341 4750 2034 4750 
Q 2731 4750 3128 4425 
Q 3525 4100 3525 3541 
Q 3525 3141 3298 2862 
Q 3072 2584 2669 2484 
Q 3125 2378 3379 2068 
Q 3634 1759 3634 1313 
Q 3634 634 3220 271 
Q 2806 -91 2034 -91 
Q 1263 -91 848 271 
Q 434 634 434 1313 
Q 434 1759 690 2068 
Q 947 2378 1403 2484 
z
M 1172 3481 
Q 1172 3119 1398 2916 
Q 1625 2713 2034 2713 
Q 2441 2713 2670 2916 
Q 2900 3119 2900 3481 
Q 2900 3844 2670 4047 
Q 2441 4250 2034 4250 
Q 1625 4250 1398 4047 
Q 1172 3844 1172 3481 
z
" transform="scale(0.015625)"/>
       </defs>
       <use xlink:href="#DejaVuSans-2212"/>
       <use xlink:href="#DejaVuSans-30" x="83.789062"/>
       <use xlink:href="#DejaVuSans-2e" x="147.412109"/>
       <use xlink:href="#DejaVuSans-30" x="179.199219"/>
       <use xlink:href="#DejaVuSans-30" x="242.822266"/>
       <use xlink:href="#DejaVuSans-30" x="306.445312"/>
       <use xlink:href="#DejaVuSans-38" x="370.068359"/>
       <use xlink:href="#DejaVuSans-35" x="433.691406"/>
      </g>
     </g>
    </g>
    <g id="ytick_3">
     <g id="line2d_9">
      <g>
       <use xlink:href="#m0881671777" x="90" y="130.70742" style="stroke: #000000; stroke-width: 0.8"/>
      </g>
     </g>
     <g id="text_9">
      <!-- −0.00080 -->
      <g transform="translate(33.267187 134.506638) scale(0.1 -0.1)">
       <use xlink:href="#DejaVuSans-2212"/>
       <use xlink:href="#DejaVuSans-30" x="83.789062"/>
       <use xlink:href="#DejaVuSans-2e" x="147.412109"/>
       <use xlink:href="#DejaVuSans-30" x="179.199219"/>
       <use xlink:href="#DejaVuSans-30" x="242.822266"/>
       <use xlink:href="#DejaVuSans-30" x="306.445312"/>
       <use xlink:href="#DejaVuSans-38" x="370.068359"/>
       <use xlink:href="#DejaVuSans-30" x="433.691406"/>
      </g>
     </g>
    </g>
    <g id="ytick_4">
     <g id="line2d_10">
      <g>
       <use xlink:href="#m0881671777" x="90" y="86.533527" style="stroke: #000000; stroke-width: 0.8"/>
      </g>
     </g>
     <g id="text_10">
      <!-- −0.00075 -->
      <g transform="translate(33.267187 90.332746) scale(0.1 -0.1)">
       <defs>
        <path id="DejaVuSans-37" d="M 525 4666 
L 3525 4666 
L 3525 4397 
L 1831 0 
L 1172 0 
L 2766 4134 
L 525 4134 
L 525 4666 
z
" transform="scale(0.015625)"/>
       </defs>
       <use xlink:href="#DejaVuSans-2212"/>
       <use xlink:href="#DejaVuSans-30" x="83.789062"/>
       <use xlink:href="#DejaVuSans-2e" x="147.412109"/>
       <use xlink:href="#DejaVuSans-30" x="179.199219"/>
       <use xlink:href="#DejaVuSans-30" x="242.822266"/>
       <use xlink:href="#DejaVuSans-30" x="306.445312"/>
       <use xlink:href="#DejaVuSans-37" x="370.068359"/>
       <use xlink:href="#DejaVuSans-35" x="433.691406"/>
      </g>
     </g>
    </g>
    <g id="ytick_5">
     <g id="line2d_11">
      <g>
       <use xlink:href="#m0881671777" x="90" y="42.359635" style="stroke: #000000; stroke-width: 0.8"/>
      </g>
     </g>
     <g id="text_11">
      <!-- −0.00070 -->
      <g transform="translate(33.267187 46.158853) scale(0.1 -0.1)">
       <use xlink:href="#DejaVuSans-2212"/>
       <use xlink:href="#DejaVuSans-30" x="83.789062"/>
       <use xlink:href="#DejaVuSans-2e" x="147.412109"/>
       <use xlink:href="#DejaVuSans-30" x="179.199219"/>
       <use xlink:href="#DejaVuSans-30" x="242.822266"/>
       <use xlink:href="#DejaVuSans-30" x="306.445312"/>
       <use xlink:href="#DejaVuSans-37" x="370.068359"/>
       <use xlink:href="#DejaVuSans-30" x="433.691406"/>
      </g>
     </g>
    </g>
   </g>
   <g id="line2d_12">
    <path d="M 115.363636 79.115881 
L 116.356342 78.593353 
L 117.349048 77.913217 
L 118.341754 76.997176 
L 119.33446 75.816323 
L 120.327166 74.266063 
L 122.312578 69.445312 
L 126.283402 58.830589 
L 127.276107 56.508845 
L 129.261519 53.026892 
L 130.254225 50.915617 
L 132.239637 47.608263 
L 134.225049 45.395667 
L 135.217755 44.683115 
L 136.210461 44.64 
L 138.195873 45.253794 
L 139.188579 45.728597 
L 140.181284 46.426729 
L 143.159402 49.559955 
L 145.144814 52.503429 
L 146.13752 53.593954 
L 147.130226 54.087694 
L 149.115638 54.373451 
L 153.086461 54.384499 
L 154.079167 54.319496 
L 155.071873 53.972499 
L 157.057285 53.03138 
L 158.049991 53.189404 
L 160.035403 54.513694 
L 161.028109 54.97296 
L 163.013521 55.245415 
L 164.998933 55.670295 
L 165.991638 56.047794 
L 166.984344 56.904567 
L 167.97705 58.265436 
L 169.962462 62.404894 
L 170.955168 64.851226 
L 172.94058 71.758942 
L 173.933286 75.240278 
L 174.925992 78.067064 
L 175.918698 80.090501 
L 176.911404 81.524559 
L 177.90411 82.011438 
L 178.896816 81.989791 
L 180.882227 81.610729 
L 183.860345 80.175811 
L 186.838463 79.171463 
L 187.831169 79.460583 
L 190.809287 81.652087 
L 191.801993 82.070654 
L 192.794698 81.77474 
L 193.787404 81.099614 
L 195.772816 78.953261 
L 196.765522 78.317395 
L 197.758228 78.917582 
L 198.750934 80.599579 
L 200.736346 86.13133 
L 201.729052 89.204825 
L 202.721758 91.753567 
L 203.714464 93.889724 
L 204.70717 95.40969 
L 205.699875 96.599962 
L 206.692581 98.325219 
L 207.685287 100.32106 
L 208.677993 102.78133 
L 209.670699 105.593599 
L 211.656111 111.948058 
L 217.612347 128.578322 
L 219.597758 135.176919 
L 222.575876 146.163843 
L 224.561288 155.352379 
L 226.5467 166.037156 
L 229.524818 183.067509 
L 233.495641 205.42 
L 235.481053 215.742664 
L 237.466465 224.434862 
L 238.459171 228.006774 
L 240.444583 234.045998 
L 242.429995 239.568908 
L 243.422701 241.78054 
L 244.415407 243.424668 
L 245.408112 244.599334 
L 246.400818 245.432162 
L 247.393524 245.917304 
L 248.38623 246.11957 
L 250.371642 246.24 
L 251.364348 245.653092 
L 252.357054 244.729655 
L 253.34976 242.96899 
L 254.342466 240.667036 
L 255.335172 237.824461 
L 256.327878 234.391497 
L 259.305995 222.457986 
L 262.284113 209.00937 
L 264.269525 199.505887 
L 267.247643 184.775514 
L 268.240349 180.463862 
L 269.233055 176.922044 
L 270.225761 174.401163 
L 271.218466 172.452584 
L 272.211172 171.102493 
L 273.203878 170.469465 
L 274.196584 170.351413 
L 275.18929 170.387781 
L 276.181996 170.587806 
L 277.174702 171.148926 
L 280.15282 174.40743 
L 281.145526 175.192027 
L 282.138232 175.650201 
L 283.130938 175.767576 
L 284.123643 175.619492 
L 287.101761 174.651129 
L 288.094467 173.980689 
L 289.087173 172.955891 
L 290.079879 171.650111 
L 291.072585 170.100336 
L 293.057997 166.501321 
L 295.043409 161.797881 
L 297.02882 156.34962 
L 300.006938 149.256866 
L 300.999644 147.35796 
L 301.99235 145.788731 
L 303.977762 142.334862 
L 304.970468 140.929544 
L 305.963174 140.269117 
L 306.95588 139.933951 
L 307.948586 139.981887 
L 308.941292 140.556111 
L 309.933998 141.366467 
L 311.919409 143.862158 
L 313.904821 146.950684 
L 315.890233 150.474818 
L 317.875645 154.482644 
L 319.861057 159.505709 
L 322.839175 167.501953 
L 324.824586 172.011351 
L 325.817292 173.600067 
L 331.773528 180.693793 
L 332.766234 182.160054 
L 334.751646 184.530369 
L 336.737057 186.26361 
L 339.715175 188.702633 
L 341.700587 191.128181 
L 342.693293 192.158777 
L 343.685999 192.771004 
L 344.678705 192.82271 
L 345.671411 192.431127 
L 346.664117 191.08177 
L 348.649529 187.97071 
L 352.620352 182.743061 
L 353.613058 181.347546 
L 355.59847 177.241007 
L 356.591176 175.080199 
L 358.576588 171.551164 
L 361.554706 167.368779 
L 363.540117 165.024621 
L 364.532823 164.078915 
L 365.525529 163.378884 
L 366.518235 162.826206 
L 368.503647 162.227494 
L 369.496353 161.501796 
L 372.474471 160.21963 
L 373.467177 159.899635 
L 375.452589 159.966756 
L 376.445294 160.221344 
L 377.438 160.279113 
L 379.423412 160.741477 
L 380.416118 160.808447 
L 381.408824 160.660928 
L 382.40153 160.317385 
L 384.386942 158.94968 
L 388.357766 155.07304 
L 389.350471 153.902154 
L 391.335883 152.394734 
L 392.328589 152.035659 
L 393.321295 151.496365 
L 395.306707 149.776096 
L 396.299413 148.311581 
L 397.292119 146.57224 
L 398.284825 144.44624 
L 399.277531 142.635043 
L 400.270237 141.103447 
L 401.262943 139.824324 
L 402.255648 139.037546 
L 403.248354 138.615473 
L 404.24106 138.354587 
L 405.233766 138.356258 
L 406.226472 138.661037 
L 408.211884 140.643454 
L 411.190002 143.890501 
L 413.175414 145.995345 
L 414.16812 147.094647 
L 416.153531 150.179155 
L 419.131649 155.682135 
L 423.102473 160.518178 
L 424.095179 161.465658 
L 425.087885 162.659576 
L 426.080591 163.657689 
L 427.073297 164.288548 
L 428.066002 165.1439 
L 429.058708 165.815094 
L 430.051414 165.976548 
L 431.04412 165.582634 
L 432.036826 165.349193 
L 433.029532 164.903772 
L 434.022238 163.935075 
L 436.00765 161.457151 
L 439.978474 155.711644 
L 440.97118 154.527425 
L 441.963885 153.879645 
L 443.949297 152.886888 
L 444.942003 152.168733 
L 445.934709 151.03244 
L 446.927415 149.45762 
L 448.912827 144.770209 
L 450.898239 139.532207 
L 453.876357 132.399581 
L 455.861768 128.237332 
L 461.818004 113.952134 
L 465.788828 105.257465 
L 467.774239 102.054112 
L 468.766945 100.634554 
L 471.745063 97.164827 
L 474.723181 94.476146 
L 475.715887 94.043216 
L 476.708593 94.037645 
L 478.694005 94.336688 
L 479.686711 94.693562 
L 481.672122 96.104426 
L 482.664828 96.886603 
L 484.65024 98.913451 
L 486.635652 101.411703 
L 488.621064 103.641161 
L 489.61377 104.655106 
L 490.606476 106.038661 
L 492.591888 109.436552 
L 494.577299 113.628002 
L 500.533535 127.993392 
L 501.526241 129.802018 
L 502.518947 130.911541 
L 503.511653 131.59469 
L 507.482476 133.200904 
L 509.467888 134.540751 
L 510.460594 134.970439 
L 511.4533 135.123053 
L 512.446006 134.968018 
L 513.438712 134.645117 
L 515.424124 133.376558 
L 516.41683 132.388354 
L 518.402242 129.665648 
L 519.394948 127.903957 
L 520.387653 125.840982 
L 523.365771 118.966816 
L 524.358477 117.090052 
L 525.351183 115.544303 
L 526.343889 114.462263 
L 527.336595 113.746827 
L 530.314713 112.253759 
L 534.285536 110.051302 
L 535.278242 109.743107 
L 536.270948 109.674344 
L 537.263654 109.943733 
L 538.25636 110.620763 
L 539.249066 111.669803 
L 541.234478 114.121585 
L 542.227184 115.132931 
L 543.21989 115.781803 
L 544.212596 115.974814 
L 545.205302 115.787976 
L 546.198007 115.240953 
L 547.190713 114.452271 
L 548.183419 113.488623 
L 549.176125 112.195503 
L 551.161537 108.947699 
L 553.146949 104.605883 
L 556.125067 97.012682 
L 558.110479 91.608524 
L 560.09589 86.674237 
L 561.088596 84.53106 
L 563.074008 81.044217 
L 564.066714 79.70211 
L 565.05942 78.76462 
L 566.052126 78.196852 
L 567.044832 77.830874 
L 568.037538 77.75656 
L 569.030244 78.025194 
L 571.015656 79.021574 
L 572.008362 79.753446 
L 573.993773 81.702557 
L 576.971891 85.08407 
L 578.957303 87.367497 
L 580.942715 89.834256 
L 582.928127 93.014116 
L 584.913539 96.877047 
L 593.847892 115.144678 
L 594.840598 116.940307 
L 596.82601 119.694825 
L 597.818716 120.766147 
L 598.811421 121.626571 
L 600.796833 122.764501 
L 602.782245 123.298171 
L 603.774951 123.468343 
L 605.760363 123.958561 
L 607.745775 124.333715 
L 610.723893 125.135212 
L 611.716598 125.349557 
L 613.70201 125.614966 
L 614.694716 125.838777 
L 615.687422 125.820852 
L 616.680128 125.651715 
L 621.643658 124.13549 
L 622.636364 123.927405 
L 622.636364 123.927405 
" clip-path="url(#pfbf1450f8b)" style="fill: none; stroke: #1f77b4; stroke-width: 1.5; stroke-linecap: square"/>
   </g>
   <g id="patch_3">
    <path d="M 90 256.32 
L 90 34.56 
" style="fill: none; stroke: #000000; stroke-width: 0.8; stroke-linejoin: miter; stroke-linecap: square"/>
   </g>
   <g id="patch_4">
    <path d="M 648 256.32 
L 648 34.56 
" style="fill: none; stroke: #000000; stroke-width: 0.8; stroke-linejoin: miter; stroke-linecap: square"/>
   </g>
   <g id="patch_5">
    <path d="M 90 256.32 
L 648 256.32 
" style="fill: none; stroke: #000000; stroke-width: 0.8; stroke-linejoin: miter; stroke-linecap: square"/>
   </g>
   <g id="patch_6">
    <path d="M 90 34.56 
L 648 34.56 
" style="fill: none; stroke: #000000; stroke-width: 0.8; stroke-linejoin: miter; stroke-linecap: square"/>
   </g>
   <g id="text_12">
    <!-- K is now at 1 -->
    <g transform="translate(330.418125 28.56) scale(0.12 -0.12)">
     <defs>
      <path id="DejaVuSans-4b" d="M 628 4666 
L 1259 4666 
L 1259 2694 
L 3353 4666 
L 4166 4666 
L 1850 2491 
L 4331 0 
L 3500 0 
L 1259 2247 
L 1259 0 
L 628 0 
L 628 4666 
z
" transform="scale(0.015625)"/>
      <path id="DejaVuSans-20" transform="scale(0.015625)"/>
      <path id="DejaVuSans-69" d="M 603 3500 
L 1178 3500 
L 1178 0 
L 603 0 
L 603 3500 
z
M 603 4863 
L 1178 4863 
L 1178 4134 
L 603 4134 
L 603 4863 
z
" transform="scale(0.015625)"/>
      <path id="DejaVuSans-73" d="M 2834 3397 
L 2834 2853 
Q 2591 2978 2328 3040 
Q 2066 3103 1784 3103 
Q 1356 3103 1142 2972 
Q 928 2841 928 2578 
Q 928 2378 1081 2264 
Q 1234 2150 1697 2047 
L 1894 2003 
Q 2506 1872 2764 1633 
Q 3022 1394 3022 966 
Q 3022 478 2636 193 
Q 2250 -91 1575 -91 
Q 1294 -91 989 -36 
Q 684 19 347 128 
L 347 722 
Q 666 556 975 473 
Q 1284 391 1588 391 
Q 1994 391 2212 530 
Q 2431 669 2431 922 
Q 2431 1156 2273 1281 
Q 2116 1406 1581 1522 
L 1381 1569 
Q 847 1681 609 1914 
Q 372 2147 372 2553 
Q 372 3047 722 3315 
Q 1072 3584 1716 3584 
Q 2034 3584 2315 3537 
Q 2597 3491 2834 3397 
z
" transform="scale(0.015625)"/>
      <path id="DejaVuSans-6e" d="M 3513 2113 
L 3513 0 
L 2938 0 
L 2938 2094 
Q 2938 2591 2744 2837 
Q 2550 3084 2163 3084 
Q 1697 3084 1428 2787 
Q 1159 2491 1159 1978 
L 1159 0 
L 581 0 
L 581 3500 
L 1159 3500 
L 1159 2956 
Q 1366 3272 1645 3428 
Q 1925 3584 2291 3584 
Q 2894 3584 3203 3211 
Q 3513 2838 3513 2113 
z
" transform="scale(0.015625)"/>
      <path id="DejaVuSans-6f" d="M 1959 3097 
Q 1497 3097 1228 2736 
Q 959 2375 959 1747 
Q 959 1119 1226 758 
Q 1494 397 1959 397 
Q 2419 397 2687 759 
Q 2956 1122 2956 1747 
Q 2956 2369 2687 2733 
Q 2419 3097 1959 3097 
z
M 1959 3584 
Q 2709 3584 3137 3096 
Q 3566 2609 3566 1747 
Q 3566 888 3137 398 
Q 2709 -91 1959 -91 
Q 1206 -91 779 398 
Q 353 888 353 1747 
Q 353 2609 779 3096 
Q 1206 3584 1959 3584 
z
" transform="scale(0.015625)"/>
      <path id="DejaVuSans-77" d="M 269 3500 
L 844 3500 
L 1563 769 
L 2278 3500 
L 2956 3500 
L 3675 769 
L 4391 3500 
L 4966 3500 
L 4050 0 
L 3372 0 
L 2619 2869 
L 1863 0 
L 1184 0 
L 269 3500 
z
" transform="scale(0.015625)"/>
      <path id="DejaVuSans-61" d="M 2194 1759 
Q 1497 1759 1228 1600 
Q 959 1441 959 1056 
Q 959 750 1161 570 
Q 1363 391 1709 391 
Q 2188 391 2477 730 
Q 2766 1069 2766 1631 
L 2766 1759 
L 2194 1759 
z
M 3341 1997 
L 3341 0 
L 2766 0 
L 2766 531 
Q 2569 213 2275 61 
Q 1981 -91 1556 -91 
Q 1019 -91 701 211 
Q 384 513 384 1019 
Q 384 1609 779 1909 
Q 1175 2209 1959 2209 
L 2766 2209 
L 2766 2266 
Q 2766 2663 2505 2880 
Q 2244 3097 1772 3097 
Q 1472 3097 1187 3025 
Q 903 2953 641 2809 
L 641 3341 
Q 956 3463 1253 3523 
Q 1550 3584 1831 3584 
Q 2591 3584 2966 3190 
Q 3341 2797 3341 1997 
z
" transform="scale(0.015625)"/>
      <path id="DejaVuSans-74" d="M 1172 4494 
L 1172 3500 
L 2356 3500 
L 2356 3053 
L 1172 3053 
L 1172 1153 
Q 1172 725 1289 603 
Q 1406 481 1766 481 
L 2356 481 
L 2356 0 
L 1766 0 
Q 1100 0 847 248 
Q 594 497 594 1153 
L 594 3053 
L 172 3053 
L 172 3500 
L 594 3500 
L 594 4494 
L 1172 4494 
z
" transform="scale(0.015625)"/>
     </defs>
     <use xlink:href="#DejaVuSans-4b"/>
     <use xlink:href="#DejaVuSans-20" x="65.576172"/>
     <use xlink:href="#DejaVuSans-69" x="97.363281"/>
     <use xlink:href="#DejaVuSans-73" x="125.146484"/>
     <use xlink:href="#DejaVuSans-20" x="177.246094"/>
     <use xlink:href="#DejaVuSans-6e" x="209.033203"/>
     <use xlink:href="#DejaVuSans-6f" x="272.412109"/>
     <use xlink:href="#DejaVuSans-77" x="333.59375"/>
     <use xlink:href="#DejaVuSans-20" x="415.380859"/>
     <use xlink:href="#DejaVuSans-61" x="447.167969"/>
     <use xlink:href="#DejaVuSans-74" x="508.447266"/>
     <use xlink:href="#DejaVuSans-20" x="547.65625"/>
     <use xlink:href="#DejaVuSans-31" x="579.443359"/>
    </g>
   </g>
  </g>
 </g>
 <defs>
  <clipPath id="pfbf1450f8b">
   <rect x="90" y="34.56" width="558" height="221.76"/>
  </clipPath>
 </defs>
</svg>
