<?xml version="1.0" encoding="utf-8" standalone="no"?>
<!DOCTYPE svg PUBLIC "-//W3C//DTD SVG 1.1//EN"
  "http://www.w3.org/Graphics/SVG/1.1/DTD/svg11.dtd">
<svg xmlns:xlink="http://www.w3.org/1999/xlink" width="720pt" height="288pt" viewBox="0 0 720 288" xmlns="http://www.w3.org/2000/svg" version="1.1">
 <metadata>
  <rdf:RDF xmlns:dc="http://purl.org/dc/elements/1.1/" xmlns:cc="http://creativecommons.org/ns#" xmlns:rdf="http://www.w3.org/1999/02/22-rdf-syntax-ns#">
   <cc:Work>
    <dc:type rdf:resource="http://purl.org/dc/dcmitype/StillImage"/>
    <dc:date>2023-11-20T08:43:12.925104</dc:date>
    <dc:format>image/svg+xml</dc:format>
    <dc:creator>
     <cc:Agent>
      <dc:title>Matplotlib v3.6.2, https://matplotlib.org/</dc:title>
     </cc:Agent>
    </dc:creator>
   </cc:Work>
  </rdf:RDF>
 </metadata>
 <defs>
  <style type="text/css">*{stroke-linejoin: round; stroke-linecap: butt}</style>
 </defs>
 <g id="figure_1">
  <g id="patch_1">
   <path d="M 0 288 
L 720 288 
L 720 0 
L 0 0 
z
" style="fill: #ffffff"/>
  </g>
  <g id="axes_1">
   <g id="patch_2">
    <path d="M 90 256.32 
L 648 256.32 
L 648 34.56 
L 90 34.56 
z
" style="fill: #ffffff"/>
   </g>
   <g id="matplotlib.axis_1">
    <g id="xtick_1">
     <g id="line2d_1">
      <defs>
       <path id="m48387fd99e" d="M 0 0 
L 0 3.5 
" style="stroke: #000000; stroke-width: 0.8"/>
      </defs>
      <g>
       <use xlink:href="#m48387fd99e" x="115.363636" y="256.32" style="stroke: #000000; stroke-width: 0.8"/>
      </g>
     </g>
     <g id="text_1">
      <!-- 0 -->
      <g transform="translate(112.182386 270.918437) scale(0.1 -0.1)">
       <defs>
        <path id="DejaVuSans-30" d="M 2034 4250 
Q 1547 4250 1301 3770 
Q 1056 3291 1056 2328 
Q 1056 1369 1301 889 
Q 1547 409 2034 409 
Q 2525 409 2770 889 
Q 3016 1369 3016 2328 
Q 3016 3291 2770 3770 
Q 2525 4250 2034 4250 
z
M 2034 4750 
Q 2819 4750 3233 4129 
Q 3647 3509 3647 2328 
Q 3647 1150 3233 529 
Q 2819 -91 2034 -91 
Q 1250 -91 836 529 
Q 422 1150 422 2328 
Q 422 3509 836 4129 
Q 1250 4750 2034 4750 
z
" transform="scale(0.015625)"/>
       </defs>
       <use xlink:href="#DejaVuSans-30"/>
      </g>
     </g>
    </g>
    <g id="xtick_2">
     <g id="line2d_2">
      <g>
       <use xlink:href="#m48387fd99e" x="214.634229" y="256.32" style="stroke: #000000; stroke-width: 0.8"/>
      </g>
     </g>
     <g id="text_2">
      <!-- 100 -->
      <g transform="translate(205.090479 270.918437) scale(0.1 -0.1)">
       <defs>
        <path id="DejaVuSans-31" d="M 794 531 
L 1825 531 
L 1825 4091 
L 703 3866 
L 703 4441 
L 1819 4666 
L 2450 4666 
L 2450 531 
L 3481 531 
L 3481 0 
L 794 0 
L 794 531 
z
" transform="scale(0.015625)"/>
       </defs>
       <use xlink:href="#DejaVuSans-31"/>
       <use xlink:href="#DejaVuSans-30" x="63.623047"/>
       <use xlink:href="#DejaVuSans-30" x="127.246094"/>
      </g>
     </g>
    </g>
    <g id="xtick_3">
     <g id="line2d_3">
      <g>
       <use xlink:href="#m48387fd99e" x="313.904821" y="256.32" style="stroke: #000000; stroke-width: 0.8"/>
      </g>
     </g>
     <g id="text_3">
      <!-- 200 -->
      <g transform="translate(304.361071 270.918437) scale(0.1 -0.1)">
       <defs>
        <path id="DejaVuSans-32" d="M 1228 531 
L 3431 531 
L 3431 0 
L 469 0 
L 469 531 
Q 828 903 1448 1529 
Q 2069 2156 2228 2338 
Q 2531 2678 2651 2914 
Q 2772 3150 2772 3378 
Q 2772 3750 2511 3984 
Q 2250 4219 1831 4219 
Q 1534 4219 1204 4116 
Q 875 4013 500 3803 
L 500 4441 
Q 881 4594 1212 4672 
Q 1544 4750 1819 4750 
Q 2544 4750 2975 4387 
Q 3406 4025 3406 3419 
Q 3406 3131 3298 2873 
Q 3191 2616 2906 2266 
Q 2828 2175 2409 1742 
Q 1991 1309 1228 531 
z
" transform="scale(0.015625)"/>
       </defs>
       <use xlink:href="#DejaVuSans-32"/>
       <use xlink:href="#DejaVuSans-30" x="63.623047"/>
       <use xlink:href="#DejaVuSans-30" x="127.246094"/>
      </g>
     </g>
    </g>
    <g id="xtick_4">
     <g id="line2d_4">
      <g>
       <use xlink:href="#m48387fd99e" x="413.175414" y="256.32" style="stroke: #000000; stroke-width: 0.8"/>
      </g>
     </g>
     <g id="text_4">
      <!-- 300 -->
      <g transform="translate(403.631664 270.918437) scale(0.1 -0.1)">
       <defs>
        <path id="DejaVuSans-33" d="M 2597 2516 
Q 3050 2419 3304 2112 
Q 3559 1806 3559 1356 
Q 3559 666 3084 287 
Q 2609 -91 1734 -91 
Q 1441 -91 1130 -33 
Q 819 25 488 141 
L 488 750 
Q 750 597 1062 519 
Q 1375 441 1716 441 
Q 2309 441 2620 675 
Q 2931 909 2931 1356 
Q 2931 1769 2642 2001 
Q 2353 2234 1838 2234 
L 1294 2234 
L 1294 2753 
L 1863 2753 
Q 2328 2753 2575 2939 
Q 2822 3125 2822 3475 
Q 2822 3834 2567 4026 
Q 2313 4219 1838 4219 
Q 1578 4219 1281 4162 
Q 984 4106 628 3988 
L 628 4550 
Q 988 4650 1302 4700 
Q 1616 4750 1894 4750 
Q 2613 4750 3031 4423 
Q 3450 4097 3450 3541 
Q 3450 3153 3228 2886 
Q 3006 2619 2597 2516 
z
" transform="scale(0.015625)"/>
       </defs>
       <use xlink:href="#DejaVuSans-33"/>
       <use xlink:href="#DejaVuSans-30" x="63.623047"/>
       <use xlink:href="#DejaVuSans-30" x="127.246094"/>
      </g>
     </g>
    </g>
    <g id="xtick_5">
     <g id="line2d_5">
      <g>
       <use xlink:href="#m48387fd99e" x="512.446006" y="256.32" style="stroke: #000000; stroke-width: 0.8"/>
      </g>
     </g>
     <g id="text_5">
      <!-- 400 -->
      <g transform="translate(502.902256 270.918437) scale(0.1 -0.1)">
       <defs>
        <path id="DejaVuSans-34" d="M 2419 4116 
L 825 1625 
L 2419 1625 
L 2419 4116 
z
M 2253 4666 
L 3047 4666 
L 3047 1625 
L 3713 1625 
L 3713 1100 
L 3047 1100 
L 3047 0 
L 2419 0 
L 2419 1100 
L 313 1100 
L 313 1709 
L 2253 4666 
z
" transform="scale(0.015625)"/>
       </defs>
       <use xlink:href="#DejaVuSans-34"/>
       <use xlink:href="#DejaVuSans-30" x="63.623047"/>
       <use xlink:href="#DejaVuSans-30" x="127.246094"/>
      </g>
     </g>
    </g>
    <g id="xtick_6">
     <g id="line2d_6">
      <g>
       <use xlink:href="#m48387fd99e" x="611.716598" y="256.32" style="stroke: #000000; stroke-width: 0.8"/>
      </g>
     </g>
     <g id="text_6">
      <!-- 500 -->
      <g transform="translate(602.172848 270.918437) scale(0.1 -0.1)">
       <defs>
        <path id="DejaVuSans-35" d="M 691 4666 
L 3169 4666 
L 3169 4134 
L 1269 4134 
L 1269 2991 
Q 1406 3038 1543 3061 
Q 1681 3084 1819 3084 
Q 2600 3084 3056 2656 
Q 3513 2228 3513 1497 
Q 3513 744 3044 326 
Q 2575 -91 1722 -91 
Q 1428 -91 1123 -41 
Q 819 9 494 109 
L 494 744 
Q 775 591 1075 516 
Q 1375 441 1709 441 
Q 2250 441 2565 725 
Q 2881 1009 2881 1497 
Q 2881 1984 2565 2268 
Q 2250 2553 1709 2553 
Q 1456 2553 1204 2497 
Q 953 2441 691 2322 
L 691 4666 
z
" transform="scale(0.015625)"/>
       </defs>
       <use xlink:href="#DejaVuSans-35"/>
       <use xlink:href="#DejaVuSans-30" x="63.623047"/>
       <use xlink:href="#DejaVuSans-30" x="127.246094"/>
      </g>
     </g>
    </g>
   </g>
   <g id="matplotlib.axis_2">
    <g id="ytick_1">
     <g id="line2d_7">
      <defs>
       <path id="m824ea6be15" d="M 0 0 
L -3.5 0 
" style="stroke: #000000; stroke-width: 0.8"/>
      </defs>
      <g>
       <use xlink:href="#m824ea6be15" x="90" y="254.845344" style="stroke: #000000; stroke-width: 0.8"/>
      </g>
     </g>
     <g id="text_7">
      <!-- −0.00020 -->
      <g transform="translate(33.267187 258.644563) scale(0.1 -0.1)">
       <defs>
        <path id="DejaVuSans-2212" d="M 678 2272 
L 4684 2272 
L 4684 1741 
L 678 1741 
L 678 2272 
z
" transform="scale(0.015625)"/>
        <path id="DejaVuSans-2e" d="M 684 794 
L 1344 794 
L 1344 0 
L 684 0 
L 684 794 
z
" transform="scale(0.015625)"/>
       </defs>
       <use xlink:href="#DejaVuSans-2212"/>
       <use xlink:href="#DejaVuSans-30" x="83.789062"/>
       <use xlink:href="#DejaVuSans-2e" x="147.412109"/>
       <use xlink:href="#DejaVuSans-30" x="179.199219"/>
       <use xlink:href="#DejaVuSans-30" x="242.822266"/>
       <use xlink:href="#DejaVuSans-30" x="306.445312"/>
       <use xlink:href="#DejaVuSans-32" x="370.068359"/>
       <use xlink:href="#DejaVuSans-30" x="433.691406"/>
      </g>
     </g>
    </g>
    <g id="ytick_2">
     <g id="line2d_8">
      <g>
       <use xlink:href="#m824ea6be15" x="90" y="226.745861" style="stroke: #000000; stroke-width: 0.8"/>
      </g>
     </g>
     <g id="text_8">
      <!-- −0.00015 -->
      <g transform="translate(33.267187 230.545079) scale(0.1 -0.1)">
       <use xlink:href="#DejaVuSans-2212"/>
       <use xlink:href="#DejaVuSans-30" x="83.789062"/>
       <use xlink:href="#DejaVuSans-2e" x="147.412109"/>
       <use xlink:href="#DejaVuSans-30" x="179.199219"/>
       <use xlink:href="#DejaVuSans-30" x="242.822266"/>
       <use xlink:href="#DejaVuSans-30" x="306.445312"/>
       <use xlink:href="#DejaVuSans-31" x="370.068359"/>
       <use xlink:href="#DejaVuSans-35" x="433.691406"/>
      </g>
     </g>
    </g>
    <g id="ytick_3">
     <g id="line2d_9">
      <g>
       <use xlink:href="#m824ea6be15" x="90" y="198.646377" style="stroke: #000000; stroke-width: 0.8"/>
      </g>
     </g>
     <g id="text_9">
      <!-- −0.00010 -->
      <g transform="translate(33.267187 202.445596) scale(0.1 -0.1)">
       <use xlink:href="#DejaVuSans-2212"/>
       <use xlink:href="#DejaVuSans-30" x="83.789062"/>
       <use xlink:href="#DejaVuSans-2e" x="147.412109"/>
       <use xlink:href="#DejaVuSans-30" x="179.199219"/>
       <use xlink:href="#DejaVuSans-30" x="242.822266"/>
       <use xlink:href="#DejaVuSans-30" x="306.445312"/>
       <use xlink:href="#DejaVuSans-31" x="370.068359"/>
       <use xlink:href="#DejaVuSans-30" x="433.691406"/>
      </g>
     </g>
    </g>
    <g id="ytick_4">
     <g id="line2d_10">
      <g>
       <use xlink:href="#m824ea6be15" x="90" y="170.546893" style="stroke: #000000; stroke-width: 0.8"/>
      </g>
     </g>
     <g id="text_10">
      <!-- −0.00005 -->
      <g transform="translate(33.267187 174.346112) scale(0.1 -0.1)">
       <use xlink:href="#DejaVuSans-2212"/>
       <use xlink:href="#DejaVuSans-30" x="83.789062"/>
       <use xlink:href="#DejaVuSans-2e" x="147.412109"/>
       <use xlink:href="#DejaVuSans-30" x="179.199219"/>
       <use xlink:href="#DejaVuSans-30" x="242.822266"/>
       <use xlink:href="#DejaVuSans-30" x="306.445312"/>
       <use xlink:href="#DejaVuSans-30" x="370.068359"/>
       <use xlink:href="#DejaVuSans-35" x="433.691406"/>
      </g>
     </g>
    </g>
    <g id="ytick_5">
     <g id="line2d_11">
      <g>
       <use xlink:href="#m824ea6be15" x="90" y="142.44741" style="stroke: #000000; stroke-width: 0.8"/>
      </g>
     </g>
     <g id="text_11">
      <!-- 0.00000 -->
      <g transform="translate(41.646875 146.246628) scale(0.1 -0.1)">
       <use xlink:href="#DejaVuSans-30"/>
       <use xlink:href="#DejaVuSans-2e" x="63.623047"/>
       <use xlink:href="#DejaVuSans-30" x="95.410156"/>
       <use xlink:href="#DejaVuSans-30" x="159.033203"/>
       <use xlink:href="#DejaVuSans-30" x="222.65625"/>
       <use xlink:href="#DejaVuSans-30" x="286.279297"/>
       <use xlink:href="#DejaVuSans-30" x="349.902344"/>
      </g>
     </g>
    </g>
    <g id="ytick_6">
     <g id="line2d_12">
      <g>
       <use xlink:href="#m824ea6be15" x="90" y="114.347926" style="stroke: #000000; stroke-width: 0.8"/>
      </g>
     </g>
     <g id="text_12">
      <!-- 0.00005 -->
      <g transform="translate(41.646875 118.147145) scale(0.1 -0.1)">
       <use xlink:href="#DejaVuSans-30"/>
       <use xlink:href="#DejaVuSans-2e" x="63.623047"/>
       <use xlink:href="#DejaVuSans-30" x="95.410156"/>
       <use xlink:href="#DejaVuSans-30" x="159.033203"/>
       <use xlink:href="#DejaVuSans-30" x="222.65625"/>
       <use xlink:href="#DejaVuSans-30" x="286.279297"/>
       <use xlink:href="#DejaVuSans-35" x="349.902344"/>
      </g>
     </g>
    </g>
    <g id="ytick_7">
     <g id="line2d_13">
      <g>
       <use xlink:href="#m824ea6be15" x="90" y="86.248442" style="stroke: #000000; stroke-width: 0.8"/>
      </g>
     </g>
     <g id="text_13">
      <!-- 0.00010 -->
      <g transform="translate(41.646875 90.047661) scale(0.1 -0.1)">
       <use xlink:href="#DejaVuSans-30"/>
       <use xlink:href="#DejaVuSans-2e" x="63.623047"/>
       <use xlink:href="#DejaVuSans-30" x="95.410156"/>
       <use xlink:href="#DejaVuSans-30" x="159.033203"/>
       <use xlink:href="#DejaVuSans-30" x="222.65625"/>
       <use xlink:href="#DejaVuSans-31" x="286.279297"/>
       <use xlink:href="#DejaVuSans-30" x="349.902344"/>
      </g>
     </g>
    </g>
    <g id="ytick_8">
     <g id="line2d_14">
      <g>
       <use xlink:href="#m824ea6be15" x="90" y="58.148959" style="stroke: #000000; stroke-width: 0.8"/>
      </g>
     </g>
     <g id="text_14">
      <!-- 0.00015 -->
      <g transform="translate(41.646875 61.948177) scale(0.1 -0.1)">
       <use xlink:href="#DejaVuSans-30"/>
       <use xlink:href="#DejaVuSans-2e" x="63.623047"/>
       <use xlink:href="#DejaVuSans-30" x="95.410156"/>
       <use xlink:href="#DejaVuSans-30" x="159.033203"/>
       <use xlink:href="#DejaVuSans-30" x="222.65625"/>
       <use xlink:href="#DejaVuSans-31" x="286.279297"/>
       <use xlink:href="#DejaVuSans-35" x="349.902344"/>
      </g>
     </g>
    </g>
   </g>
   <g id="line2d_15">
    <path d="M 115.363636 130.875262 
L 116.356342 168.795812 
L 117.349048 119.970374 
L 118.341754 145.128589 
L 119.33446 151.54609 
L 120.327166 133.427026 
L 121.319872 146.166092 
L 122.312578 145.37422 
L 123.305284 127.727931 
L 124.29799 164.790324 
L 125.290696 137.835564 
L 126.283402 114.79553 
L 127.276107 178.727842 
L 128.268813 134.330579 
L 129.261519 120.751911 
L 130.254225 164.206261 
L 132.239637 123.164333 
L 133.232343 160.533984 
L 134.225049 137.230166 
L 135.217755 134.138437 
L 136.210461 163.217727 
L 137.203167 125.80451 
L 138.195873 133.654273 
L 139.188579 164.606712 
L 140.181284 134.079692 
L 141.17399 130.302449 
L 142.166696 153.38455 
L 143.159402 134.395989 
L 144.152108 164.570971 
L 145.144814 128.394987 
L 146.13752 109.552798 
L 147.130226 213.324802 
L 148.122932 101.221365 
L 149.115638 110.983425 
L 150.108344 215.864287 
L 151.10105 90.906829 
L 152.093756 130.308899 
L 153.086461 201.220908 
L 154.079167 97.730735 
L 155.071873 134.921071 
L 156.064579 184.863836 
L 157.057285 104.048164 
L 158.049991 151.518444 
L 159.042697 165.616153 
L 160.035403 103.150019 
L 161.028109 160.832624 
L 162.020815 161.205493 
L 163.013521 119.42143 
L 164.006227 145.429015 
L 164.998933 143.18838 
L 165.991638 149.977063 
L 166.984344 140.510782 
L 167.97705 117.623469 
L 168.969756 179.261673 
L 169.962462 135.651423 
L 170.955168 98.813345 
L 171.947874 203.200032 
L 172.94058 133.264352 
L 173.933286 85.781085 
L 174.925992 199.281691 
L 175.918698 147.646733 
L 176.911404 86.540344 
L 177.90411 185.695259 
L 178.896816 157.349156 
L 179.889521 85.179782 
L 180.882227 191.555892 
L 181.874933 149.87955 
L 182.867639 82.37824 
L 183.860345 201.202756 
L 185.845757 85.279977 
L 186.838463 193.012073 
L 187.831169 148.067806 
L 188.823875 91.903386 
L 189.816581 185.147263 
L 190.809287 133.549077 
L 191.801993 123.088226 
L 192.794698 175.102745 
L 193.787404 121.229092 
L 194.78011 129.025713 
L 195.772816 181.106571 
L 196.765522 123.263231 
L 197.758228 118.604758 
L 198.750934 173.430756 
L 199.74364 141.36499 
L 200.736346 127.018361 
L 201.729052 154.874809 
L 202.721758 139.194006 
L 203.714464 140.472891 
L 204.70717 158.876694 
L 205.699875 111.104052 
L 206.692581 161.119765 
L 207.685287 162.082147 
L 208.677993 91.586221 
L 209.670699 188.566281 
L 210.663405 150.623862 
L 211.656111 77.50601 
L 212.648817 207.762371 
L 214.634229 71.027366 
L 215.626935 211.447188 
L 217.612347 70.824979 
L 218.605052 215.836884 
L 219.597758 135.89259 
L 220.590464 77.421884 
L 221.58317 217.430274 
L 222.575876 117.252009 
L 223.568582 109.747501 
L 224.561288 199.559676 
L 225.553994 114.226791 
L 226.5467 122.019904 
L 227.539406 185.885286 
L 228.532112 111.255059 
L 229.524818 143.369358 
L 230.517524 168.147261 
L 231.510229 89.311103 
L 232.502935 193.608896 
L 233.495641 153.405978 
L 234.488347 74.36111 
L 235.481053 195.540858 
L 236.473759 148.192308 
L 237.466465 108.078985 
L 238.459171 152.836502 
L 239.451877 148.841459 
L 240.444583 148.607097 
L 241.437289 122.887787 
L 242.429995 154.410402 
L 243.422701 150.091549 
L 244.415407 119.51831 
L 245.408112 170.622136 
L 246.400818 127.877193 
L 247.393524 131.501377 
L 248.38623 174.472864 
L 249.378936 121.523715 
L 250.371642 128.858413 
L 251.364348 176.087617 
L 252.357054 122.01996 
L 253.34976 131.244579 
L 254.342466 171.978581 
L 255.335172 123.499581 
L 256.327878 143.289416 
L 257.320584 151.415659 
L 258.313289 129.556497 
L 259.305995 151.366556 
L 260.298701 143.13348 
L 261.291407 121.41905 
L 262.284113 178.25909 
L 263.276819 121.278963 
L 264.269525 128.409173 
L 265.262231 178.425155 
L 266.254937 125.724326 
L 267.247643 116.425205 
L 268.240349 188.540114 
L 269.233055 126.733601 
L 270.225761 101.010247 
L 271.218466 201.383607 
L 273.203878 79.216566 
L 274.196584 192.542604 
L 275.18929 170.326191 
L 276.181996 76.88561 
L 277.174702 153.017985 
L 278.167408 204.530204 
L 279.160114 89.446829 
L 280.15282 116.828872 
L 281.145526 217.808656 
L 282.138232 100.455967 
L 283.130938 117.251814 
L 284.123643 199.785114 
L 285.116349 99.857771 
L 287.101761 184.590919 
L 288.094467 93.712345 
L 289.087173 156.062103 
L 290.079879 168.919734 
L 291.072585 103.823641 
L 292.065291 154.907369 
L 293.057997 172.447148 
L 294.050703 96.649289 
L 295.043409 154.092196 
L 296.036115 181.437401 
L 297.02882 96.639846 
L 298.021526 148.927117 
L 299.014232 170.563623 
L 300.006938 118.476203 
L 300.999644 140.1939 
L 301.99235 167.802635 
L 302.985056 113.177619 
L 303.977762 150.794128 
L 304.970468 169.828398 
L 305.963174 92.971623 
L 306.95588 171.14629 
L 307.948586 169.700887 
L 308.941292 83.278331 
L 309.933998 176.558826 
L 310.926703 164.30447 
L 311.919409 99.254925 
L 312.912115 153.691407 
L 313.904821 166.068284 
L 314.897527 116.902015 
L 315.890233 133.488371 
L 316.882939 176.284098 
L 317.875645 118.799041 
L 318.868351 131.200091 
L 319.861057 181.065587 
L 320.853763 120.140636 
L 321.846469 122.325127 
L 322.839175 182.194487 
L 323.83188 125.832952 
L 324.824586 121.353512 
L 325.817292 167.6838 
L 326.809998 139.428561 
L 327.802704 131.861216 
L 328.79541 145.186493 
L 329.788116 154.757594 
L 330.780822 131.003571 
L 331.773528 139.66576 
L 332.766234 159.642297 
L 333.75894 128.854477 
L 334.751646 137.773938 
L 335.744352 163.129979 
L 336.737057 120.197661 
L 337.729763 150.018862 
L 338.722469 164.073668 
L 339.715175 104.837504 
L 340.707881 159.627201 
L 341.700587 164.55831 
L 342.693293 102.543492 
L 343.685999 150.449595 
L 344.678705 164.955025 
L 345.671411 120.800728 
L 346.664117 137.663918 
L 347.656823 165.964222 
L 348.649529 132.386976 
L 349.642234 131.892925 
L 350.63494 152.808889 
L 351.627646 163.623574 
L 352.620352 104.518618 
L 353.613058 153.767146 
L 354.605764 172.071311 
L 355.59847 102.078854 
L 356.591176 159.400239 
L 357.583882 151.752235 
L 358.576588 115.082268 
L 359.569294 169.804023 
L 361.554706 109.393957 
L 362.547411 178.385508 
L 363.540117 143.126439 
L 364.532823 115.635901 
L 365.525529 160.519424 
L 366.518235 141.359362 
L 367.510941 149.929533 
L 368.503647 131.701344 
L 369.496353 133.773794 
L 370.489059 167.234762 
L 371.481765 127.130308 
L 372.474471 146.460319 
L 373.467177 140.0949 
L 374.459883 139.121938 
L 375.452589 166.043239 
L 376.445294 112.622807 
L 377.438 138.005041 
L 378.430706 192.355233 
L 379.423412 91.413913 
L 380.416118 136.926771 
L 381.408824 204.753509 
L 382.40153 77.588045 
L 383.394236 159.358725 
L 384.386942 190.57303 
L 385.379648 60.137008 
L 386.372354 185.37069 
L 387.36506 189.493903 
L 388.357766 44.64 
L 389.350471 200.952811 
L 390.343177 170.237502 
L 391.335883 63.268691 
L 392.328589 211.778899 
L 393.321295 132.732448 
L 394.314001 75.855747 
L 395.306707 240.742732 
L 396.299413 94.264403 
L 397.292119 90.763191 
L 398.284825 246.24 
L 399.277531 91.832088 
L 400.270237 94.534074 
L 401.262943 224.06933 
L 402.255648 120.938942 
L 403.248354 92.193817 
L 404.24106 198.936764 
L 406.226472 88.596935 
L 407.219178 185.422841 
L 408.211884 160.225573 
L 409.20459 83.379079 
L 410.197296 173.859466 
L 411.190002 174.006907 
L 412.182708 92.318255 
L 413.175414 149.838068 
L 414.16812 180.440382 
L 415.160825 103.389224 
L 416.153531 144.461377 
L 417.146237 168.166613 
L 418.138943 120.534673 
L 419.131649 139.868405 
L 420.124355 170.670598 
L 421.117061 109.043713 
L 422.109767 149.663245 
L 423.102473 170.220806 
L 424.095179 102.107771 
L 425.087885 155.735643 
L 426.080591 171.657292 
L 427.073297 88.206622 
L 428.066002 179.372499 
L 429.058708 156.558088 
L 430.051414 86.090955 
L 431.04412 199.0094 
L 432.036826 135.465776 
L 433.029532 91.425644 
L 434.022238 207.116935 
L 435.014944 120.369808 
L 436.00765 103.307974 
L 437.000356 204.502886 
L 437.993062 105.318291 
L 438.985768 133.488241 
L 439.978474 192.787286 
L 440.97118 90.075916 
L 441.963885 149.688264 
L 442.956591 177.866725 
L 443.949297 106.847559 
L 444.942003 146.363157 
L 445.934709 160.79914 
L 446.927415 127.311658 
L 447.920121 149.037582 
L 448.912827 145.878172 
L 449.905533 136.460712 
L 450.898239 150.742644 
L 451.890945 128.820467 
L 452.883651 152.521482 
L 453.876357 147.499408 
L 454.869062 125.335141 
L 455.861768 151.276168 
L 456.854474 153.074545 
L 457.84718 112.489533 
L 458.839886 174.279898 
L 459.832592 142.869293 
L 460.825298 86.201852 
L 461.818004 210.03267 
L 463.803416 71.694391 
L 464.796122 221.163676 
L 465.788828 125.67678 
L 466.781534 92.529803 
L 467.774239 211.71324 
L 468.766945 116.048809 
L 469.759651 110.936276 
L 470.752357 188.070862 
L 471.745063 133.508748 
L 472.737769 121.8673 
L 474.723181 165.625801 
L 476.708593 106.748621 
L 477.701299 193.508638 
L 478.694005 127.842667 
L 479.686711 103.201025 
L 480.679416 200.097347 
L 481.672122 117.515742 
L 482.664828 103.411882 
L 483.657534 206.522156 
L 484.65024 119.075229 
L 485.642946 103.465337 
L 486.635652 201.879502 
L 487.628358 121.971012 
L 488.621064 113.030325 
L 489.61377 181.543393 
L 490.606476 124.927038 
L 491.599182 134.138071 
L 492.591888 162.165388 
L 493.584593 121.678856 
L 494.577299 157.596346 
L 495.570005 150.419898 
L 496.562711 114.631826 
L 497.555417 160.771123 
L 498.548123 151.783867 
L 499.540829 122.962095 
L 500.533535 145.829279 
L 501.526241 160.101981 
L 502.518947 118.061888 
L 503.511653 156.712436 
L 504.504359 156.495249 
L 505.497065 107.135918 
L 506.489771 170.215295 
L 507.482476 149.947779 
L 508.475182 118.642211 
L 509.467888 156.882196 
L 510.460594 135.355719 
L 511.4533 141.249281 
L 512.446006 162.621829 
L 513.438712 122.267106 
L 514.431418 130.487558 
L 515.424124 185.272496 
L 516.41683 112.838181 
L 517.409536 112.860578 
L 518.402242 211.938997 
L 519.394948 96.660455 
L 520.387653 110.901723 
L 521.380359 232.18433 
L 522.373065 84.984239 
L 523.365771 111.956409 
L 524.358477 226.282197 
L 525.351183 90.875239 
L 526.343889 111.678591 
L 527.336595 219.494523 
L 528.329301 95.390235 
L 529.322007 123.532568 
L 530.314713 191.07592 
L 531.307419 102.317765 
L 532.300125 156.181165 
L 533.29283 149.252417 
L 534.285536 124.799186 
L 535.278242 170.354412 
L 536.270948 119.705875 
L 537.263654 138.031387 
L 538.25636 181.475572 
L 539.249066 106.206615 
L 540.241772 128.154432 
L 541.234478 200.773537 
L 542.227184 93.00341 
L 543.21989 138.99916 
L 544.212596 194.373262 
L 545.205302 85.470316 
L 546.198007 157.180461 
L 547.190713 184.974829 
L 548.183419 73.88774 
L 549.176125 179.936049 
L 550.168831 164.652284 
L 551.161537 87.100299 
L 552.154243 184.187015 
L 553.146949 149.37838 
L 554.139655 102.356964 
L 555.132361 173.547932 
L 556.125067 153.324486 
L 557.117773 107.416394 
L 558.110479 156.862867 
L 559.103184 161.477695 
L 560.09589 118.170685 
L 561.088596 147.450688 
L 562.081302 153.95509 
L 563.074008 127.626897 
L 564.066714 146.59196 
L 565.05942 149.024529 
L 567.044832 133.378581 
L 568.037538 150.733187 
L 569.030244 144.477943 
L 570.02295 130.420054 
L 571.015656 156.480637 
L 572.008362 133.673636 
L 573.001067 137.20284 
L 573.993773 163.018162 
L 574.986479 122.992813 
L 575.979185 143.369952 
L 576.971891 166.967064 
L 577.964597 103.153611 
L 578.957303 160.240603 
L 579.950009 173.990282 
L 580.942715 82.191943 
L 581.935421 172.984336 
L 582.928127 179.248737 
L 583.920833 68.851757 
L 584.913539 177.208309 
L 585.906244 182.648127 
L 586.89895 63.161599 
L 587.891656 181.584922 
L 588.884362 178.078022 
L 589.877068 66.214382 
L 590.869774 195.443231 
L 591.86248 162.18 
L 592.855186 64.172752 
L 593.847892 202.212724 
L 594.840598 160.911945 
L 595.833304 75.581039 
L 596.82601 174.267154 
L 597.818716 174.288017 
L 598.811421 88.431406 
L 599.804127 171.895392 
L 600.796833 169.238397 
L 601.789539 77.189811 
L 602.782245 190.202327 
L 603.774951 164.87784 
L 604.767657 61.588917 
L 605.760363 198.647676 
L 606.753069 172.823476 
L 607.745775 47.375978 
L 608.738481 212.064007 
L 609.731187 163.414928 
L 610.723893 70.965862 
L 611.716598 189.323767 
L 612.709304 140.780955 
L 613.70201 129.379942 
L 614.694716 156.287036 
L 615.687422 122.530234 
L 616.680128 150.186404 
L 617.672834 162.015949 
L 618.66554 114.093078 
L 619.658246 149.629506 
L 620.650952 154.486974 
L 621.643658 131.484275 
L 622.636364 144.924969 
L 622.636364 144.924969 
" clip-path="url(#p0d9c14fe43)" style="fill: none; stroke: #1f77b4; stroke-width: 1.5; stroke-linecap: square"/>
   </g>
   <g id="patch_3">
    <path d="M 90 256.32 
L 90 34.56 
" style="fill: none; stroke: #000000; stroke-width: 0.8; stroke-linejoin: miter; stroke-linecap: square"/>
   </g>
   <g id="patch_4">
    <path d="M 648 256.32 
L 648 34.56 
" style="fill: none; stroke: #000000; stroke-width: 0.8; stroke-linejoin: miter; stroke-linecap: square"/>
   </g>
   <g id="patch_5">
    <path d="M 90 256.32 
L 648 256.32 
" style="fill: none; stroke: #000000; stroke-width: 0.8; stroke-linejoin: miter; stroke-linecap: square"/>
   </g>
   <g id="patch_6">
    <path d="M 90 34.56 
L 648 34.56 
" style="fill: none; stroke: #000000; stroke-width: 0.8; stroke-linejoin: miter; stroke-linecap: square"/>
   </g>
   <g id="text_15">
    <!-- K is now at 3 -->
    <g transform="translate(330.418125 28.56) scale(0.12 -0.12)">
     <defs>
      <path id="DejaVuSans-4b" d="M 628 4666 
L 1259 4666 
L 1259 2694 
L 3353 4666 
L 4166 4666 
L 1850 2491 
L 4331 0 
L 3500 0 
L 1259 2247 
L 1259 0 
L 628 0 
L 628 4666 
z
" transform="scale(0.015625)"/>
      <path id="DejaVuSans-20" transform="scale(0.015625)"/>
      <path id="DejaVuSans-69" d="M 603 3500 
L 1178 3500 
L 1178 0 
L 603 0 
L 603 3500 
z
M 603 4863 
L 1178 4863 
L 1178 4134 
L 603 4134 
L 603 4863 
z
" transform="scale(0.015625)"/>
      <path id="DejaVuSans-73" d="M 2834 3397 
L 2834 2853 
Q 2591 2978 2328 3040 
Q 2066 3103 1784 3103 
Q 1356 3103 1142 2972 
Q 928 2841 928 2578 
Q 928 2378 1081 2264 
Q 1234 2150 1697 2047 
L 1894 2003 
Q 2506 1872 2764 1633 
Q 3022 1394 3022 966 
Q 3022 478 2636 193 
Q 2250 -91 1575 -91 
Q 1294 -91 989 -36 
Q 684 19 347 128 
L 347 722 
Q 666 556 975 473 
Q 1284 391 1588 391 
Q 1994 391 2212 530 
Q 2431 669 2431 922 
Q 2431 1156 2273 1281 
Q 2116 1406 1581 1522 
L 1381 1569 
Q 847 1681 609 1914 
Q 372 2147 372 2553 
Q 372 3047 722 3315 
Q 1072 3584 1716 3584 
Q 2034 3584 2315 3537 
Q 2597 3491 2834 3397 
z
" transform="scale(0.015625)"/>
      <path id="DejaVuSans-6e" d="M 3513 2113 
L 3513 0 
L 2938 0 
L 2938 2094 
Q 2938 2591 2744 2837 
Q 2550 3084 2163 3084 
Q 1697 3084 1428 2787 
Q 1159 2491 1159 1978 
L 1159 0 
L 581 0 
L 581 3500 
L 1159 3500 
L 1159 2956 
Q 1366 3272 1645 3428 
Q 1925 3584 2291 3584 
Q 2894 3584 3203 3211 
Q 3513 2838 3513 2113 
z
" transform="scale(0.015625)"/>
      <path id="DejaVuSans-6f" d="M 1959 3097 
Q 1497 3097 1228 2736 
Q 959 2375 959 1747 
Q 959 1119 1226 758 
Q 1494 397 1959 397 
Q 2419 397 2687 759 
Q 2956 1122 2956 1747 
Q 2956 2369 2687 2733 
Q 2419 3097 1959 3097 
z
M 1959 3584 
Q 2709 3584 3137 3096 
Q 3566 2609 3566 1747 
Q 3566 888 3137 398 
Q 2709 -91 1959 -91 
Q 1206 -91 779 398 
Q 353 888 353 1747 
Q 353 2609 779 3096 
Q 1206 3584 1959 3584 
z
" transform="scale(0.015625)"/>
      <path id="DejaVuSans-77" d="M 269 3500 
L 844 3500 
L 1563 769 
L 2278 3500 
L 2956 3500 
L 3675 769 
L 4391 3500 
L 4966 3500 
L 4050 0 
L 3372 0 
L 2619 2869 
L 1863 0 
L 1184 0 
L 269 3500 
z
" transform="scale(0.015625)"/>
      <path id="DejaVuSans-61" d="M 2194 1759 
Q 1497 1759 1228 1600 
Q 959 1441 959 1056 
Q 959 750 1161 570 
Q 1363 391 1709 391 
Q 2188 391 2477 730 
Q 2766 1069 2766 1631 
L 2766 1759 
L 2194 1759 
z
M 3341 1997 
L 3341 0 
L 2766 0 
L 2766 531 
Q 2569 213 2275 61 
Q 1981 -91 1556 -91 
Q 1019 -91 701 211 
Q 384 513 384 1019 
Q 384 1609 779 1909 
Q 1175 2209 1959 2209 
L 2766 2209 
L 2766 2266 
Q 2766 2663 2505 2880 
Q 2244 3097 1772 3097 
Q 1472 3097 1187 3025 
Q 903 2953 641 2809 
L 641 3341 
Q 956 3463 1253 3523 
Q 1550 3584 1831 3584 
Q 2591 3584 2966 3190 
Q 3341 2797 3341 1997 
z
" transform="scale(0.015625)"/>
      <path id="DejaVuSans-74" d="M 1172 4494 
L 1172 3500 
L 2356 3500 
L 2356 3053 
L 1172 3053 
L 1172 1153 
Q 1172 725 1289 603 
Q 1406 481 1766 481 
L 2356 481 
L 2356 0 
L 1766 0 
Q 1100 0 847 248 
Q 594 497 594 1153 
L 594 3053 
L 172 3053 
L 172 3500 
L 594 3500 
L 594 4494 
L 1172 4494 
z
" transform="scale(0.015625)"/>
     </defs>
     <use xlink:href="#DejaVuSans-4b"/>
     <use xlink:href="#DejaVuSans-20" x="65.576172"/>
     <use xlink:href="#DejaVuSans-69" x="97.363281"/>
     <use xlink:href="#DejaVuSans-73" x="125.146484"/>
     <use xlink:href="#DejaVuSans-20" x="177.246094"/>
     <use xlink:href="#DejaVuSans-6e" x="209.033203"/>
     <use xlink:href="#DejaVuSans-6f" x="272.412109"/>
     <use xlink:href="#DejaVuSans-77" x="333.59375"/>
     <use xlink:href="#DejaVuSans-20" x="415.380859"/>
     <use xlink:href="#DejaVuSans-61" x="447.167969"/>
     <use xlink:href="#DejaVuSans-74" x="508.447266"/>
     <use xlink:href="#DejaVuSans-20" x="547.65625"/>
     <use xlink:href="#DejaVuSans-33" x="579.443359"/>
    </g>
   </g>
  </g>
 </g>
 <defs>
  <clipPath id="p0d9c14fe43">
   <rect x="90" y="34.56" width="558" height="221.76"/>
  </clipPath>
 </defs>
</svg>
