<?xml version="1.0" encoding="utf-8" standalone="no"?>
<!DOCTYPE svg PUBLIC "-//W3C//DTD SVG 1.1//EN"
  "http://www.w3.org/Graphics/SVG/1.1/DTD/svg11.dtd">
<svg xmlns:xlink="http://www.w3.org/1999/xlink" width="720pt" height="288pt" viewBox="0 0 720 288" xmlns="http://www.w3.org/2000/svg" version="1.1">
 <metadata>
  <rdf:RDF xmlns:dc="http://purl.org/dc/elements/1.1/" xmlns:cc="http://creativecommons.org/ns#" xmlns:rdf="http://www.w3.org/1999/02/22-rdf-syntax-ns#">
   <cc:Work>
    <dc:type rdf:resource="http://purl.org/dc/dcmitype/StillImage"/>
    <dc:date>2023-11-20T08:43:13.989093</dc:date>
    <dc:format>image/svg+xml</dc:format>
    <dc:creator>
     <cc:Agent>
      <dc:title>Matplotlib v3.6.2, https://matplotlib.org/</dc:title>
     </cc:Agent>
    </dc:creator>
   </cc:Work>
  </rdf:RDF>
 </metadata>
 <defs>
  <style type="text/css">*{stroke-linejoin: round; stroke-linecap: butt}</style>
 </defs>
 <g id="figure_1">
  <g id="patch_1">
   <path d="M 0 288 
L 720 288 
L 720 0 
L 0 0 
z
" style="fill: #ffffff"/>
  </g>
  <g id="axes_1">
   <g id="patch_2">
    <path d="M 90 256.32 
L 648 256.32 
L 648 34.56 
L 90 34.56 
z
" style="fill: #ffffff"/>
   </g>
   <g id="matplotlib.axis_1">
    <g id="xtick_1">
     <g id="line2d_1">
      <defs>
       <path id="m7a0b36a0cd" d="M 0 0 
L 0 3.5 
" style="stroke: #000000; stroke-width: 0.8"/>
      </defs>
      <g>
       <use xlink:href="#m7a0b36a0cd" x="115.363636" y="256.32" style="stroke: #000000; stroke-width: 0.8"/>
      </g>
     </g>
     <g id="text_1">
      <!-- 0 -->
      <g transform="translate(112.182386 270.918437) scale(0.1 -0.1)">
       <defs>
        <path id="DejaVuSans-30" d="M 2034 4250 
Q 1547 4250 1301 3770 
Q 1056 3291 1056 2328 
Q 1056 1369 1301 889 
Q 1547 409 2034 409 
Q 2525 409 2770 889 
Q 3016 1369 3016 2328 
Q 3016 3291 2770 3770 
Q 2525 4250 2034 4250 
z
M 2034 4750 
Q 2819 4750 3233 4129 
Q 3647 3509 3647 2328 
Q 3647 1150 3233 529 
Q 2819 -91 2034 -91 
Q 1250 -91 836 529 
Q 422 1150 422 2328 
Q 422 3509 836 4129 
Q 1250 4750 2034 4750 
z
" transform="scale(0.015625)"/>
       </defs>
       <use xlink:href="#DejaVuSans-30"/>
      </g>
     </g>
    </g>
    <g id="xtick_2">
     <g id="line2d_2">
      <g>
       <use xlink:href="#m7a0b36a0cd" x="214.634229" y="256.32" style="stroke: #000000; stroke-width: 0.8"/>
      </g>
     </g>
     <g id="text_2">
      <!-- 100 -->
      <g transform="translate(205.090479 270.918437) scale(0.1 -0.1)">
       <defs>
        <path id="DejaVuSans-31" d="M 794 531 
L 1825 531 
L 1825 4091 
L 703 3866 
L 703 4441 
L 1819 4666 
L 2450 4666 
L 2450 531 
L 3481 531 
L 3481 0 
L 794 0 
L 794 531 
z
" transform="scale(0.015625)"/>
       </defs>
       <use xlink:href="#DejaVuSans-31"/>
       <use xlink:href="#DejaVuSans-30" x="63.623047"/>
       <use xlink:href="#DejaVuSans-30" x="127.246094"/>
      </g>
     </g>
    </g>
    <g id="xtick_3">
     <g id="line2d_3">
      <g>
       <use xlink:href="#m7a0b36a0cd" x="313.904821" y="256.32" style="stroke: #000000; stroke-width: 0.8"/>
      </g>
     </g>
     <g id="text_3">
      <!-- 200 -->
      <g transform="translate(304.361071 270.918437) scale(0.1 -0.1)">
       <defs>
        <path id="DejaVuSans-32" d="M 1228 531 
L 3431 531 
L 3431 0 
L 469 0 
L 469 531 
Q 828 903 1448 1529 
Q 2069 2156 2228 2338 
Q 2531 2678 2651 2914 
Q 2772 3150 2772 3378 
Q 2772 3750 2511 3984 
Q 2250 4219 1831 4219 
Q 1534 4219 1204 4116 
Q 875 4013 500 3803 
L 500 4441 
Q 881 4594 1212 4672 
Q 1544 4750 1819 4750 
Q 2544 4750 2975 4387 
Q 3406 4025 3406 3419 
Q 3406 3131 3298 2873 
Q 3191 2616 2906 2266 
Q 2828 2175 2409 1742 
Q 1991 1309 1228 531 
z
" transform="scale(0.015625)"/>
       </defs>
       <use xlink:href="#DejaVuSans-32"/>
       <use xlink:href="#DejaVuSans-30" x="63.623047"/>
       <use xlink:href="#DejaVuSans-30" x="127.246094"/>
      </g>
     </g>
    </g>
    <g id="xtick_4">
     <g id="line2d_4">
      <g>
       <use xlink:href="#m7a0b36a0cd" x="413.175414" y="256.32" style="stroke: #000000; stroke-width: 0.8"/>
      </g>
     </g>
     <g id="text_4">
      <!-- 300 -->
      <g transform="translate(403.631664 270.918437) scale(0.1 -0.1)">
       <defs>
        <path id="DejaVuSans-33" d="M 2597 2516 
Q 3050 2419 3304 2112 
Q 3559 1806 3559 1356 
Q 3559 666 3084 287 
Q 2609 -91 1734 -91 
Q 1441 -91 1130 -33 
Q 819 25 488 141 
L 488 750 
Q 750 597 1062 519 
Q 1375 441 1716 441 
Q 2309 441 2620 675 
Q 2931 909 2931 1356 
Q 2931 1769 2642 2001 
Q 2353 2234 1838 2234 
L 1294 2234 
L 1294 2753 
L 1863 2753 
Q 2328 2753 2575 2939 
Q 2822 3125 2822 3475 
Q 2822 3834 2567 4026 
Q 2313 4219 1838 4219 
Q 1578 4219 1281 4162 
Q 984 4106 628 3988 
L 628 4550 
Q 988 4650 1302 4700 
Q 1616 4750 1894 4750 
Q 2613 4750 3031 4423 
Q 3450 4097 3450 3541 
Q 3450 3153 3228 2886 
Q 3006 2619 2597 2516 
z
" transform="scale(0.015625)"/>
       </defs>
       <use xlink:href="#DejaVuSans-33"/>
       <use xlink:href="#DejaVuSans-30" x="63.623047"/>
       <use xlink:href="#DejaVuSans-30" x="127.246094"/>
      </g>
     </g>
    </g>
    <g id="xtick_5">
     <g id="line2d_5">
      <g>
       <use xlink:href="#m7a0b36a0cd" x="512.446006" y="256.32" style="stroke: #000000; stroke-width: 0.8"/>
      </g>
     </g>
     <g id="text_5">
      <!-- 400 -->
      <g transform="translate(502.902256 270.918437) scale(0.1 -0.1)">
       <defs>
        <path id="DejaVuSans-34" d="M 2419 4116 
L 825 1625 
L 2419 1625 
L 2419 4116 
z
M 2253 4666 
L 3047 4666 
L 3047 1625 
L 3713 1625 
L 3713 1100 
L 3047 1100 
L 3047 0 
L 2419 0 
L 2419 1100 
L 313 1100 
L 313 1709 
L 2253 4666 
z
" transform="scale(0.015625)"/>
       </defs>
       <use xlink:href="#DejaVuSans-34"/>
       <use xlink:href="#DejaVuSans-30" x="63.623047"/>
       <use xlink:href="#DejaVuSans-30" x="127.246094"/>
      </g>
     </g>
    </g>
    <g id="xtick_6">
     <g id="line2d_6">
      <g>
       <use xlink:href="#m7a0b36a0cd" x="611.716598" y="256.32" style="stroke: #000000; stroke-width: 0.8"/>
      </g>
     </g>
     <g id="text_6">
      <!-- 500 -->
      <g transform="translate(602.172848 270.918437) scale(0.1 -0.1)">
       <defs>
        <path id="DejaVuSans-35" d="M 691 4666 
L 3169 4666 
L 3169 4134 
L 1269 4134 
L 1269 2991 
Q 1406 3038 1543 3061 
Q 1681 3084 1819 3084 
Q 2600 3084 3056 2656 
Q 3513 2228 3513 1497 
Q 3513 744 3044 326 
Q 2575 -91 1722 -91 
Q 1428 -91 1123 -41 
Q 819 9 494 109 
L 494 744 
Q 775 591 1075 516 
Q 1375 441 1709 441 
Q 2250 441 2565 725 
Q 2881 1009 2881 1497 
Q 2881 1984 2565 2268 
Q 2250 2553 1709 2553 
Q 1456 2553 1204 2497 
Q 953 2441 691 2322 
L 691 4666 
z
" transform="scale(0.015625)"/>
       </defs>
       <use xlink:href="#DejaVuSans-35"/>
       <use xlink:href="#DejaVuSans-30" x="63.623047"/>
       <use xlink:href="#DejaVuSans-30" x="127.246094"/>
      </g>
     </g>
    </g>
   </g>
   <g id="matplotlib.axis_2">
    <g id="ytick_1">
     <g id="line2d_7">
      <defs>
       <path id="mba09a6b024" d="M 0 0 
L -3.5 0 
" style="stroke: #000000; stroke-width: 0.8"/>
      </defs>
      <g>
       <use xlink:href="#mba09a6b024" x="90" y="248.799153" style="stroke: #000000; stroke-width: 0.8"/>
      </g>
     </g>
     <g id="text_7">
      <!-- −0.00020 -->
      <g transform="translate(33.267187 252.598371) scale(0.1 -0.1)">
       <defs>
        <path id="DejaVuSans-2212" d="M 678 2272 
L 4684 2272 
L 4684 1741 
L 678 1741 
L 678 2272 
z
" transform="scale(0.015625)"/>
        <path id="DejaVuSans-2e" d="M 684 794 
L 1344 794 
L 1344 0 
L 684 0 
L 684 794 
z
" transform="scale(0.015625)"/>
       </defs>
       <use xlink:href="#DejaVuSans-2212"/>
       <use xlink:href="#DejaVuSans-30" x="83.789062"/>
       <use xlink:href="#DejaVuSans-2e" x="147.412109"/>
       <use xlink:href="#DejaVuSans-30" x="179.199219"/>
       <use xlink:href="#DejaVuSans-30" x="242.822266"/>
       <use xlink:href="#DejaVuSans-30" x="306.445312"/>
       <use xlink:href="#DejaVuSans-32" x="370.068359"/>
       <use xlink:href="#DejaVuSans-30" x="433.691406"/>
      </g>
     </g>
    </g>
    <g id="ytick_2">
     <g id="line2d_8">
      <g>
       <use xlink:href="#mba09a6b024" x="90" y="221.315022" style="stroke: #000000; stroke-width: 0.8"/>
      </g>
     </g>
     <g id="text_8">
      <!-- −0.00015 -->
      <g transform="translate(33.267187 225.114241) scale(0.1 -0.1)">
       <use xlink:href="#DejaVuSans-2212"/>
       <use xlink:href="#DejaVuSans-30" x="83.789062"/>
       <use xlink:href="#DejaVuSans-2e" x="147.412109"/>
       <use xlink:href="#DejaVuSans-30" x="179.199219"/>
       <use xlink:href="#DejaVuSans-30" x="242.822266"/>
       <use xlink:href="#DejaVuSans-30" x="306.445312"/>
       <use xlink:href="#DejaVuSans-31" x="370.068359"/>
       <use xlink:href="#DejaVuSans-35" x="433.691406"/>
      </g>
     </g>
    </g>
    <g id="ytick_3">
     <g id="line2d_9">
      <g>
       <use xlink:href="#mba09a6b024" x="90" y="193.830892" style="stroke: #000000; stroke-width: 0.8"/>
      </g>
     </g>
     <g id="text_9">
      <!-- −0.00010 -->
      <g transform="translate(33.267187 197.630111) scale(0.1 -0.1)">
       <use xlink:href="#DejaVuSans-2212"/>
       <use xlink:href="#DejaVuSans-30" x="83.789062"/>
       <use xlink:href="#DejaVuSans-2e" x="147.412109"/>
       <use xlink:href="#DejaVuSans-30" x="179.199219"/>
       <use xlink:href="#DejaVuSans-30" x="242.822266"/>
       <use xlink:href="#DejaVuSans-30" x="306.445312"/>
       <use xlink:href="#DejaVuSans-31" x="370.068359"/>
       <use xlink:href="#DejaVuSans-30" x="433.691406"/>
      </g>
     </g>
    </g>
    <g id="ytick_4">
     <g id="line2d_10">
      <g>
       <use xlink:href="#mba09a6b024" x="90" y="166.346762" style="stroke: #000000; stroke-width: 0.8"/>
      </g>
     </g>
     <g id="text_10">
      <!-- −0.00005 -->
      <g transform="translate(33.267187 170.145981) scale(0.1 -0.1)">
       <use xlink:href="#DejaVuSans-2212"/>
       <use xlink:href="#DejaVuSans-30" x="83.789062"/>
       <use xlink:href="#DejaVuSans-2e" x="147.412109"/>
       <use xlink:href="#DejaVuSans-30" x="179.199219"/>
       <use xlink:href="#DejaVuSans-30" x="242.822266"/>
       <use xlink:href="#DejaVuSans-30" x="306.445312"/>
       <use xlink:href="#DejaVuSans-30" x="370.068359"/>
       <use xlink:href="#DejaVuSans-35" x="433.691406"/>
      </g>
     </g>
    </g>
    <g id="ytick_5">
     <g id="line2d_11">
      <g>
       <use xlink:href="#mba09a6b024" x="90" y="138.862632" style="stroke: #000000; stroke-width: 0.8"/>
      </g>
     </g>
     <g id="text_11">
      <!-- 0.00000 -->
      <g transform="translate(41.646875 142.661851) scale(0.1 -0.1)">
       <use xlink:href="#DejaVuSans-30"/>
       <use xlink:href="#DejaVuSans-2e" x="63.623047"/>
       <use xlink:href="#DejaVuSans-30" x="95.410156"/>
       <use xlink:href="#DejaVuSans-30" x="159.033203"/>
       <use xlink:href="#DejaVuSans-30" x="222.65625"/>
       <use xlink:href="#DejaVuSans-30" x="286.279297"/>
       <use xlink:href="#DejaVuSans-30" x="349.902344"/>
      </g>
     </g>
    </g>
    <g id="ytick_6">
     <g id="line2d_12">
      <g>
       <use xlink:href="#mba09a6b024" x="90" y="111.378502" style="stroke: #000000; stroke-width: 0.8"/>
      </g>
     </g>
     <g id="text_12">
      <!-- 0.00005 -->
      <g transform="translate(41.646875 115.17772) scale(0.1 -0.1)">
       <use xlink:href="#DejaVuSans-30"/>
       <use xlink:href="#DejaVuSans-2e" x="63.623047"/>
       <use xlink:href="#DejaVuSans-30" x="95.410156"/>
       <use xlink:href="#DejaVuSans-30" x="159.033203"/>
       <use xlink:href="#DejaVuSans-30" x="222.65625"/>
       <use xlink:href="#DejaVuSans-30" x="286.279297"/>
       <use xlink:href="#DejaVuSans-35" x="349.902344"/>
      </g>
     </g>
    </g>
    <g id="ytick_7">
     <g id="line2d_13">
      <g>
       <use xlink:href="#mba09a6b024" x="90" y="83.894372" style="stroke: #000000; stroke-width: 0.8"/>
      </g>
     </g>
     <g id="text_13">
      <!-- 0.00010 -->
      <g transform="translate(41.646875 87.69359) scale(0.1 -0.1)">
       <use xlink:href="#DejaVuSans-30"/>
       <use xlink:href="#DejaVuSans-2e" x="63.623047"/>
       <use xlink:href="#DejaVuSans-30" x="95.410156"/>
       <use xlink:href="#DejaVuSans-30" x="159.033203"/>
       <use xlink:href="#DejaVuSans-30" x="222.65625"/>
       <use xlink:href="#DejaVuSans-31" x="286.279297"/>
       <use xlink:href="#DejaVuSans-30" x="349.902344"/>
      </g>
     </g>
    </g>
    <g id="ytick_8">
     <g id="line2d_14">
      <g>
       <use xlink:href="#mba09a6b024" x="90" y="56.410241" style="stroke: #000000; stroke-width: 0.8"/>
      </g>
     </g>
     <g id="text_14">
      <!-- 0.00015 -->
      <g transform="translate(41.646875 60.20946) scale(0.1 -0.1)">
       <use xlink:href="#DejaVuSans-30"/>
       <use xlink:href="#DejaVuSans-2e" x="63.623047"/>
       <use xlink:href="#DejaVuSans-30" x="95.410156"/>
       <use xlink:href="#DejaVuSans-30" x="159.033203"/>
       <use xlink:href="#DejaVuSans-30" x="222.65625"/>
       <use xlink:href="#DejaVuSans-31" x="286.279297"/>
       <use xlink:href="#DejaVuSans-35" x="349.902344"/>
      </g>
     </g>
    </g>
   </g>
   <g id="line2d_15">
    <path d="M 115.363636 133.968101 
L 116.356342 160.768546 
L 117.349048 105.76878 
L 118.341754 147.218964 
L 119.33446 176.271397 
L 120.327166 78.40404 
L 121.319872 158.061799 
L 122.312578 193.651947 
L 123.305284 68.524029 
L 124.29799 142.891518 
L 125.290696 207.670381 
L 126.283402 77.932018 
L 127.276107 128.850166 
L 128.268813 195.018268 
L 129.261519 98.405698 
L 130.254225 126.922494 
L 131.246931 188.641124 
L 132.239637 102.370012 
L 133.232343 117.678403 
L 134.225049 199.013831 
L 135.217755 102.787283 
L 136.210461 118.039629 
L 137.203167 187.13415 
L 138.195873 120.259929 
L 139.188579 114.616032 
L 140.181284 158.637043 
L 141.17399 156.118965 
L 142.166696 105.639074 
L 143.159402 140.613554 
L 144.152108 169.930018 
L 145.144814 116.378025 
L 146.13752 131.891808 
L 147.130226 160.296057 
L 148.122932 129.666205 
L 149.115638 126.822966 
L 150.108344 164.880964 
L 151.10105 126.560046 
L 152.093756 119.649587 
L 153.086461 184.839046 
L 154.079167 109.642763 
L 155.071873 116.664525 
L 156.064579 199.844055 
L 157.057285 96.485998 
L 158.049991 115.956495 
L 159.042697 203.487176 
L 160.035403 101.646388 
L 161.028109 115.009762 
L 162.020815 196.537219 
L 163.013521 106.069932 
L 164.006227 111.310939 
L 164.998933 196.656188 
L 165.991638 123.91888 
L 166.984344 91.721412 
L 167.97705 188.049864 
L 168.969756 153.58439 
L 169.962462 87.796206 
L 170.955168 163.81053 
L 171.947874 159.784663 
L 172.94058 96.40673 
L 173.933286 161.846471 
L 174.925992 163.652792 
L 175.918698 90.310883 
L 176.911404 148.938741 
L 177.90411 174.200987 
L 178.896816 110.567644 
L 179.889521 123.542413 
L 180.882227 163.32442 
L 181.874933 147.067901 
L 182.867639 112.031387 
L 183.860345 135.908916 
L 184.853051 174.423706 
L 185.845757 117.329279 
L 186.838463 110.799672 
L 187.831169 172.781746 
L 188.823875 158.942278 
L 189.816581 85.451764 
L 190.809287 151.176758 
L 191.801993 192.241837 
L 192.794698 72.620473 
L 193.787404 148.854599 
L 194.78011 201.39789 
L 195.772816 59.375036 
L 196.765522 149.655745 
L 197.758228 212.195814 
L 198.750934 63.476289 
L 199.74364 129.650812 
L 200.736346 212.653495 
L 201.729052 89.386884 
L 202.721758 118.599187 
L 203.714464 199.278865 
L 204.70717 103.17188 
L 205.699875 116.920959 
L 206.692581 193.087108 
L 207.685287 105.607848 
L 208.677993 121.876247 
L 209.670699 178.856487 
L 210.663405 118.676201 
L 211.656111 131.178575 
L 212.648817 159.64536 
L 213.641523 123.890861 
L 214.634229 140.987708 
L 215.626935 137.547261 
L 216.619641 143.169721 
L 217.612347 144.196901 
L 218.605052 110.683207 
L 219.597758 167.733548 
L 220.590464 150.359618 
L 221.58317 101.222298 
L 222.575876 152.576758 
L 223.568582 167.037921 
L 224.561288 117.12066 
L 225.553994 116.150126 
L 226.5467 183.094056 
L 227.539406 117.600243 
L 228.532112 117.438929 
L 229.524818 182.480526 
L 230.517524 110.681529 
L 231.510229 127.595729 
L 232.502935 175.408826 
L 233.495641 115.025438 
L 234.488347 124.142176 
L 235.481053 184.649798 
L 236.473759 104.008197 
L 237.466465 126.950418 
L 238.459171 201.271155 
L 239.451877 85.692057 
L 240.444583 118.683782 
L 241.437289 209.309488 
L 242.429995 102.628265 
L 243.422701 99.655355 
L 244.415407 204.421543 
L 245.408112 124.40745 
L 246.400818 96.327009 
L 247.393524 186.307133 
L 248.38623 126.000835 
L 249.378936 103.876337 
L 250.371642 185.533233 
L 251.364348 121.178242 
L 252.357054 119.424787 
L 253.34976 176.848526 
L 254.342466 119.098948 
L 255.335172 125.295888 
L 256.327878 174.507486 
L 257.320584 116.669377 
L 258.313289 123.874719 
L 259.305995 171.935303 
L 260.298701 118.134963 
L 262.284113 156.07119 
L 263.276819 117.871119 
L 264.269525 145.139474 
L 265.262231 156.480643 
L 266.254937 122.283137 
L 267.247643 132.467955 
L 268.240349 155.390733 
L 269.233055 132.13393 
L 270.225761 128.693959 
L 271.218466 151.758354 
L 272.211172 130.994625 
L 273.203878 143.755342 
L 274.196584 138.747868 
L 275.18929 126.41669 
L 276.181996 159.861546 
L 277.174702 127.158044 
L 278.167408 126.861223 
L 279.160114 161.602401 
L 280.15282 126.569995 
L 281.145526 126.843439 
L 282.138232 168.349811 
L 283.130938 115.194034 
L 284.123643 124.598694 
L 285.116349 182.990153 
L 286.109055 113.725924 
L 287.101761 116.722666 
L 288.094467 187.22571 
L 289.087173 116.610732 
L 290.079879 119.276682 
L 291.072585 170.43535 
L 292.065291 127.192991 
L 293.057997 126.554751 
L 294.050703 152.344727 
L 295.043409 138.99592 
L 296.036115 131.991068 
L 297.02882 140.362857 
L 298.021526 141.04707 
L 299.014232 143.282503 
L 300.006938 124.973298 
L 300.999644 150.211566 
L 301.99235 152.132052 
L 302.985056 108.341828 
L 303.977762 150.679138 
L 304.970468 170.639379 
L 305.963174 96.603003 
L 306.95588 129.762166 
L 307.948586 199.059136 
L 308.941292 102.294406 
L 309.933998 96.505759 
L 310.926703 219.150942 
L 311.919409 111.73613 
L 312.912115 82.959742 
L 313.904821 227.605189 
L 314.897527 90.695628 
L 315.890233 106.325197 
L 316.882939 221.597989 
L 317.875645 82.841635 
L 318.868351 114.74454 
L 319.861057 207.632259 
L 320.853763 103.452857 
L 321.846469 113.495327 
L 322.839175 180.258515 
L 323.83188 136.669399 
L 324.824586 99.05042 
L 325.817292 170.977378 
L 326.809998 159.884059 
L 327.802704 78.835177 
L 328.79541 181.592564 
L 329.788116 159.125189 
L 330.780822 65.403545 
L 331.773528 199.674543 
L 332.766234 157.817085 
L 333.75894 44.64 
L 334.751646 222.717874 
L 336.737057 58.758582 
L 337.729763 231.779662 
L 338.722469 106.970729 
L 339.715175 77.588994 
L 340.707881 246.24 
L 341.700587 85.745806 
L 342.693293 85.376556 
L 343.685999 240.447614 
L 344.678705 88.898947 
L 345.671411 102.373764 
L 346.664117 211.935393 
L 347.656823 99.981566 
L 348.649529 112.674969 
L 349.642234 196.475013 
L 350.63494 110.409567 
L 351.627646 114.3307 
L 352.620352 189.137121 
L 353.613058 111.669051 
L 354.605764 115.120471 
L 355.59847 191.296816 
L 356.591176 110.392338 
L 357.583882 108.274066 
L 358.576588 201.196061 
L 359.569294 107.472745 
L 360.562 115.319654 
L 361.554706 190.661875 
L 362.547411 98.048342 
L 363.540117 133.527415 
L 364.532823 193.471012 
L 365.525529 74.773978 
L 366.518235 152.719816 
L 367.510941 184.654281 
L 368.503647 90.353628 
L 369.496353 156.619359 
L 370.489059 148.605853 
L 371.481765 119.037892 
L 372.474471 157.534005 
L 373.467177 126.891181 
L 374.459883 139.95594 
L 375.452589 150.587905 
L 376.445294 107.373163 
L 377.438 174.531405 
L 378.430706 138.418961 
L 379.423412 97.466318 
L 380.416118 182.085496 
L 381.408824 134.115855 
L 382.40153 107.90459 
L 383.394236 175.482412 
L 384.386942 129.284556 
L 385.379648 114.149441 
L 386.372354 172.124922 
L 387.36506 124.832011 
L 388.357766 131.654325 
L 389.350471 145.230292 
L 390.343177 147.132393 
L 391.335883 126.490864 
L 392.328589 128.824158 
L 393.321295 169.427731 
L 394.314001 122.638046 
L 395.306707 116.373158 
L 396.299413 169.650735 
L 397.292119 150.970952 
L 398.284825 101.474435 
L 399.277531 147.712044 
L 400.270237 178.728459 
L 401.262943 97.10605 
L 403.248354 176.522483 
L 404.24106 110.918456 
L 406.226472 155.818205 
L 407.219178 142.273281 
L 408.211884 109.50952 
L 409.20459 156.538821 
L 410.197296 163.3809 
L 411.190002 88.589151 
L 412.182708 164.814831 
L 413.175414 172.132216 
L 414.16812 81.473724 
L 416.153531 207.718127 
L 417.146237 74.874331 
L 418.138943 119.532852 
L 419.131649 223.959337 
L 420.124355 79.567041 
L 421.117061 117.904908 
L 422.109767 214.329941 
L 423.102473 73.778969 
L 424.095179 140.674784 
L 425.087885 195.664171 
L 426.080591 68.432057 
L 427.073297 168.943058 
L 428.066002 171.290448 
L 429.058708 78.943039 
L 430.051414 171.949054 
L 431.04412 161.811272 
L 432.036826 91.700236 
L 433.029532 163.44311 
L 434.022238 151.326065 
L 435.014944 93.628514 
L 436.00765 177.487164 
L 437.000356 142.792312 
L 437.993062 85.326248 
L 438.985768 191.461458 
L 440.97118 87.809618 
L 441.963885 188.432793 
L 442.956591 141.995554 
L 443.949297 88.955824 
L 444.942003 188.820017 
L 445.934709 132.535356 
L 446.927415 95.16288 
L 447.920121 190.598331 
L 448.912827 124.677817 
L 449.905533 110.284091 
L 450.898239 168.069771 
L 451.890945 131.498374 
L 452.883651 139.244541 
L 453.876357 139.054566 
L 454.869062 118.4246 
L 455.861768 175.817671 
L 456.854474 123.088382 
L 457.84718 102.578262 
L 458.839886 197.989067 
L 459.832592 115.199928 
L 460.825298 94.780974 
L 461.818004 216.726176 
L 462.81071 106.635123 
L 463.803416 87.854207 
L 464.796122 227.959989 
L 465.788828 96.448148 
L 466.781534 103.33475 
L 467.774239 209.359064 
L 468.766945 98.218313 
L 469.759651 125.660163 
L 470.752357 183.044982 
L 471.745063 92.644897 
L 472.737769 159.04298 
L 473.730475 166.896971 
L 474.723181 75.264683 
L 475.715887 182.67123 
L 476.708593 162.709765 
L 477.701299 74.945855 
L 478.694005 174.730506 
L 479.686711 160.911028 
L 480.679416 97.364233 
L 481.672122 152.540892 
L 482.664828 156.220455 
L 483.657534 122.518715 
L 484.65024 130.083968 
L 485.642946 153.545306 
L 486.635652 150.974658 
L 487.628358 106.379844 
L 488.621064 150.802925 
L 489.61377 166.695369 
L 490.606476 105.725616 
L 491.599182 133.908612 
L 492.591888 169.654215 
L 493.584593 131.930567 
L 494.577299 104.732886 
L 495.570005 165.963166 
L 496.562711 173.524759 
L 497.555417 69.940937 
L 498.548123 153.202627 
L 499.540829 201.399528 
L 500.533535 73.580084 
L 501.526241 126.806756 
L 502.518947 207.98421 
L 503.511653 94.448673 
L 504.504359 119.824011 
L 505.497065 187.147495 
L 506.489771 112.50548 
L 507.482476 128.162559 
L 508.475182 160.535467 
L 509.467888 135.198001 
L 510.460594 124.964426 
L 511.4533 145.509242 
L 512.446006 156.776041 
L 513.438712 119.483276 
L 514.431418 124.479448 
L 515.424124 175.407817 
L 516.41683 133.459407 
L 517.409536 104.019675 
L 518.402242 164.705945 
L 519.394948 164.816738 
L 520.387653 100.840301 
L 521.380359 137.997196 
L 522.373065 167.686127 
L 523.365771 122.717236 
L 524.358477 122.293423 
L 525.351183 164.997852 
L 526.343889 130.640889 
L 527.336595 124.327779 
L 528.329301 164.628225 
L 529.322007 120.813531 
L 530.314713 135.495441 
L 531.307419 157.267095 
L 532.300125 122.935678 
L 533.29283 139.182618 
L 534.285536 151.762613 
L 535.278242 136.18245 
L 536.270948 123.000277 
L 537.263654 165.515295 
L 538.25636 128.554732 
L 539.249066 113.822882 
L 540.241772 182.675035 
L 541.234478 120.660236 
L 542.227184 101.268669 
L 543.21989 197.733679 
L 544.212596 124.714229 
L 545.205302 89.581733 
L 546.198007 202.142223 
L 547.190713 126.469632 
L 548.183419 88.734586 
L 549.176125 202.03558 
L 550.168831 117.965638 
L 551.161537 104.366865 
L 552.154243 185.028665 
L 553.146949 126.040714 
L 554.139655 109.696457 
L 555.132361 175.147672 
L 556.125067 133.301848 
L 557.117773 114.151794 
L 558.110479 163.039598 
L 559.103184 142.521762 
L 560.09589 117.312281 
L 561.088596 149.255104 
L 562.081302 141.247805 
L 563.074008 146.086353 
L 564.066714 120.263794 
L 565.05942 144.179665 
L 566.052126 173.153002 
L 567.044832 93.898964 
L 568.037538 149.088321 
L 569.030244 176.536732 
L 570.02295 90.145185 
L 571.015656 143.355423 
L 572.008362 185.696825 
L 573.001067 87.321885 
L 573.993773 133.984439 
L 574.986479 196.784708 
L 575.979185 99.972123 
L 576.971891 122.620052 
L 577.964597 180.687993 
L 578.957303 124.68029 
L 579.950009 119.213624 
L 580.942715 165.341403 
L 581.935421 118.794846 
L 582.928127 138.648582 
L 583.920833 163.202118 
L 584.913539 111.918633 
L 585.906244 133.729325 
L 586.89895 177.815188 
L 587.891656 110.496085 
L 588.884362 118.303348 
L 589.877068 187.565381 
L 590.869774 114.170858 
L 591.86248 114.411884 
L 592.855186 186.744037 
L 593.847892 115.51436 
L 594.840598 120.673088 
L 595.833304 178.77493 
L 596.82601 102.13646 
L 597.818716 146.109831 
L 598.811421 170.010629 
L 599.804127 96.421923 
L 600.796833 143.235815 
L 601.789539 174.381746 
L 602.782245 116.180384 
L 603.774951 121.278425 
L 604.767657 175.149999 
L 605.760363 120.35088 
L 606.753069 121.033316 
L 607.745775 178.679536 
L 608.738481 112.782106 
L 609.731187 122.893908 
L 610.723893 167.766558 
L 611.716598 139.909546 
L 612.709304 108.569845 
L 613.70201 151.789739 
L 614.694716 163.380599 
L 615.687422 103.205836 
L 616.680128 146.959383 
L 617.672834 172.628616 
L 618.66554 97.965348 
L 619.658246 145.205383 
L 620.650952 185.888917 
L 621.643658 70.75755 
L 622.636364 170.878734 
L 622.636364 170.878734 
" clip-path="url(#p1ce95855af)" style="fill: none; stroke: #1f77b4; stroke-width: 1.5; stroke-linecap: square"/>
   </g>
   <g id="patch_3">
    <path d="M 90 256.32 
L 90 34.56 
" style="fill: none; stroke: #000000; stroke-width: 0.8; stroke-linejoin: miter; stroke-linecap: square"/>
   </g>
   <g id="patch_4">
    <path d="M 648 256.32 
L 648 34.56 
" style="fill: none; stroke: #000000; stroke-width: 0.8; stroke-linejoin: miter; stroke-linecap: square"/>
   </g>
   <g id="patch_5">
    <path d="M 90 256.32 
L 648 256.32 
" style="fill: none; stroke: #000000; stroke-width: 0.8; stroke-linejoin: miter; stroke-linecap: square"/>
   </g>
   <g id="patch_6">
    <path d="M 90 34.56 
L 648 34.56 
" style="fill: none; stroke: #000000; stroke-width: 0.8; stroke-linejoin: miter; stroke-linecap: square"/>
   </g>
   <g id="text_15">
    <!-- K is now at 3 -->
    <g transform="translate(330.418125 28.56) scale(0.12 -0.12)">
     <defs>
      <path id="DejaVuSans-4b" d="M 628 4666 
L 1259 4666 
L 1259 2694 
L 3353 4666 
L 4166 4666 
L 1850 2491 
L 4331 0 
L 3500 0 
L 1259 2247 
L 1259 0 
L 628 0 
L 628 4666 
z
" transform="scale(0.015625)"/>
      <path id="DejaVuSans-20" transform="scale(0.015625)"/>
      <path id="DejaVuSans-69" d="M 603 3500 
L 1178 3500 
L 1178 0 
L 603 0 
L 603 3500 
z
M 603 4863 
L 1178 4863 
L 1178 4134 
L 603 4134 
L 603 4863 
z
" transform="scale(0.015625)"/>
      <path id="DejaVuSans-73" d="M 2834 3397 
L 2834 2853 
Q 2591 2978 2328 3040 
Q 2066 3103 1784 3103 
Q 1356 3103 1142 2972 
Q 928 2841 928 2578 
Q 928 2378 1081 2264 
Q 1234 2150 1697 2047 
L 1894 2003 
Q 2506 1872 2764 1633 
Q 3022 1394 3022 966 
Q 3022 478 2636 193 
Q 2250 -91 1575 -91 
Q 1294 -91 989 -36 
Q 684 19 347 128 
L 347 722 
Q 666 556 975 473 
Q 1284 391 1588 391 
Q 1994 391 2212 530 
Q 2431 669 2431 922 
Q 2431 1156 2273 1281 
Q 2116 1406 1581 1522 
L 1381 1569 
Q 847 1681 609 1914 
Q 372 2147 372 2553 
Q 372 3047 722 3315 
Q 1072 3584 1716 3584 
Q 2034 3584 2315 3537 
Q 2597 3491 2834 3397 
z
" transform="scale(0.015625)"/>
      <path id="DejaVuSans-6e" d="M 3513 2113 
L 3513 0 
L 2938 0 
L 2938 2094 
Q 2938 2591 2744 2837 
Q 2550 3084 2163 3084 
Q 1697 3084 1428 2787 
Q 1159 2491 1159 1978 
L 1159 0 
L 581 0 
L 581 3500 
L 1159 3500 
L 1159 2956 
Q 1366 3272 1645 3428 
Q 1925 3584 2291 3584 
Q 2894 3584 3203 3211 
Q 3513 2838 3513 2113 
z
" transform="scale(0.015625)"/>
      <path id="DejaVuSans-6f" d="M 1959 3097 
Q 1497 3097 1228 2736 
Q 959 2375 959 1747 
Q 959 1119 1226 758 
Q 1494 397 1959 397 
Q 2419 397 2687 759 
Q 2956 1122 2956 1747 
Q 2956 2369 2687 2733 
Q 2419 3097 1959 3097 
z
M 1959 3584 
Q 2709 3584 3137 3096 
Q 3566 2609 3566 1747 
Q 3566 888 3137 398 
Q 2709 -91 1959 -91 
Q 1206 -91 779 398 
Q 353 888 353 1747 
Q 353 2609 779 3096 
Q 1206 3584 1959 3584 
z
" transform="scale(0.015625)"/>
      <path id="DejaVuSans-77" d="M 269 3500 
L 844 3500 
L 1563 769 
L 2278 3500 
L 2956 3500 
L 3675 769 
L 4391 3500 
L 4966 3500 
L 4050 0 
L 3372 0 
L 2619 2869 
L 1863 0 
L 1184 0 
L 269 3500 
z
" transform="scale(0.015625)"/>
      <path id="DejaVuSans-61" d="M 2194 1759 
Q 1497 1759 1228 1600 
Q 959 1441 959 1056 
Q 959 750 1161 570 
Q 1363 391 1709 391 
Q 2188 391 2477 730 
Q 2766 1069 2766 1631 
L 2766 1759 
L 2194 1759 
z
M 3341 1997 
L 3341 0 
L 2766 0 
L 2766 531 
Q 2569 213 2275 61 
Q 1981 -91 1556 -91 
Q 1019 -91 701 211 
Q 384 513 384 1019 
Q 384 1609 779 1909 
Q 1175 2209 1959 2209 
L 2766 2209 
L 2766 2266 
Q 2766 2663 2505 2880 
Q 2244 3097 1772 3097 
Q 1472 3097 1187 3025 
Q 903 2953 641 2809 
L 641 3341 
Q 956 3463 1253 3523 
Q 1550 3584 1831 3584 
Q 2591 3584 2966 3190 
Q 3341 2797 3341 1997 
z
" transform="scale(0.015625)"/>
      <path id="DejaVuSans-74" d="M 1172 4494 
L 1172 3500 
L 2356 3500 
L 2356 3053 
L 1172 3053 
L 1172 1153 
Q 1172 725 1289 603 
Q 1406 481 1766 481 
L 2356 481 
L 2356 0 
L 1766 0 
Q 1100 0 847 248 
Q 594 497 594 1153 
L 594 3053 
L 172 3053 
L 172 3500 
L 594 3500 
L 594 4494 
L 1172 4494 
z
" transform="scale(0.015625)"/>
     </defs>
     <use xlink:href="#DejaVuSans-4b"/>
     <use xlink:href="#DejaVuSans-20" x="65.576172"/>
     <use xlink:href="#DejaVuSans-69" x="97.363281"/>
     <use xlink:href="#DejaVuSans-73" x="125.146484"/>
     <use xlink:href="#DejaVuSans-20" x="177.246094"/>
     <use xlink:href="#DejaVuSans-6e" x="209.033203"/>
     <use xlink:href="#DejaVuSans-6f" x="272.412109"/>
     <use xlink:href="#DejaVuSans-77" x="333.59375"/>
     <use xlink:href="#DejaVuSans-20" x="415.380859"/>
     <use xlink:href="#DejaVuSans-61" x="447.167969"/>
     <use xlink:href="#DejaVuSans-74" x="508.447266"/>
     <use xlink:href="#DejaVuSans-20" x="547.65625"/>
     <use xlink:href="#DejaVuSans-33" x="579.443359"/>
    </g>
   </g>
  </g>
 </g>
 <defs>
  <clipPath id="p1ce95855af">
   <rect x="90" y="34.56" width="558" height="221.76"/>
  </clipPath>
 </defs>
</svg>
