<?xml version="1.0" encoding="utf-8" standalone="no"?>
<!DOCTYPE svg PUBLIC "-//W3C//DTD SVG 1.1//EN"
  "http://www.w3.org/Graphics/SVG/1.1/DTD/svg11.dtd">
<svg xmlns:xlink="http://www.w3.org/1999/xlink" width="720pt" height="288pt" viewBox="0 0 720 288" xmlns="http://www.w3.org/2000/svg" version="1.1">
 <metadata>
  <rdf:RDF xmlns:dc="http://purl.org/dc/elements/1.1/" xmlns:cc="http://creativecommons.org/ns#" xmlns:rdf="http://www.w3.org/1999/02/22-rdf-syntax-ns#">
   <cc:Work>
    <dc:type rdf:resource="http://purl.org/dc/dcmitype/StillImage"/>
    <dc:date>2023-11-20T08:43:13.926156</dc:date>
    <dc:format>image/svg+xml</dc:format>
    <dc:creator>
     <cc:Agent>
      <dc:title>Matplotlib v3.6.2, https://matplotlib.org/</dc:title>
     </cc:Agent>
    </dc:creator>
   </cc:Work>
  </rdf:RDF>
 </metadata>
 <defs>
  <style type="text/css">*{stroke-linejoin: round; stroke-linecap: butt}</style>
 </defs>
 <g id="figure_1">
  <g id="patch_1">
   <path d="M 0 288 
L 720 288 
L 720 0 
L 0 0 
z
" style="fill: #ffffff"/>
  </g>
  <g id="axes_1">
   <g id="patch_2">
    <path d="M 90 256.32 
L 648 256.32 
L 648 34.56 
L 90 34.56 
z
" style="fill: #ffffff"/>
   </g>
   <g id="matplotlib.axis_1">
    <g id="xtick_1">
     <g id="line2d_1">
      <defs>
       <path id="mdba61a7e5f" d="M 0 0 
L 0 3.5 
" style="stroke: #000000; stroke-width: 0.8"/>
      </defs>
      <g>
       <use xlink:href="#mdba61a7e5f" x="115.363636" y="256.32" style="stroke: #000000; stroke-width: 0.8"/>
      </g>
     </g>
     <g id="text_1">
      <!-- 0 -->
      <g transform="translate(112.182386 270.918437) scale(0.1 -0.1)">
       <defs>
        <path id="DejaVuSans-30" d="M 2034 4250 
Q 1547 4250 1301 3770 
Q 1056 3291 1056 2328 
Q 1056 1369 1301 889 
Q 1547 409 2034 409 
Q 2525 409 2770 889 
Q 3016 1369 3016 2328 
Q 3016 3291 2770 3770 
Q 2525 4250 2034 4250 
z
M 2034 4750 
Q 2819 4750 3233 4129 
Q 3647 3509 3647 2328 
Q 3647 1150 3233 529 
Q 2819 -91 2034 -91 
Q 1250 -91 836 529 
Q 422 1150 422 2328 
Q 422 3509 836 4129 
Q 1250 4750 2034 4750 
z
" transform="scale(0.015625)"/>
       </defs>
       <use xlink:href="#DejaVuSans-30"/>
      </g>
     </g>
    </g>
    <g id="xtick_2">
     <g id="line2d_2">
      <g>
       <use xlink:href="#mdba61a7e5f" x="214.634229" y="256.32" style="stroke: #000000; stroke-width: 0.8"/>
      </g>
     </g>
     <g id="text_2">
      <!-- 100 -->
      <g transform="translate(205.090479 270.918437) scale(0.1 -0.1)">
       <defs>
        <path id="DejaVuSans-31" d="M 794 531 
L 1825 531 
L 1825 4091 
L 703 3866 
L 703 4441 
L 1819 4666 
L 2450 4666 
L 2450 531 
L 3481 531 
L 3481 0 
L 794 0 
L 794 531 
z
" transform="scale(0.015625)"/>
       </defs>
       <use xlink:href="#DejaVuSans-31"/>
       <use xlink:href="#DejaVuSans-30" x="63.623047"/>
       <use xlink:href="#DejaVuSans-30" x="127.246094"/>
      </g>
     </g>
    </g>
    <g id="xtick_3">
     <g id="line2d_3">
      <g>
       <use xlink:href="#mdba61a7e5f" x="313.904821" y="256.32" style="stroke: #000000; stroke-width: 0.8"/>
      </g>
     </g>
     <g id="text_3">
      <!-- 200 -->
      <g transform="translate(304.361071 270.918437) scale(0.1 -0.1)">
       <defs>
        <path id="DejaVuSans-32" d="M 1228 531 
L 3431 531 
L 3431 0 
L 469 0 
L 469 531 
Q 828 903 1448 1529 
Q 2069 2156 2228 2338 
Q 2531 2678 2651 2914 
Q 2772 3150 2772 3378 
Q 2772 3750 2511 3984 
Q 2250 4219 1831 4219 
Q 1534 4219 1204 4116 
Q 875 4013 500 3803 
L 500 4441 
Q 881 4594 1212 4672 
Q 1544 4750 1819 4750 
Q 2544 4750 2975 4387 
Q 3406 4025 3406 3419 
Q 3406 3131 3298 2873 
Q 3191 2616 2906 2266 
Q 2828 2175 2409 1742 
Q 1991 1309 1228 531 
z
" transform="scale(0.015625)"/>
       </defs>
       <use xlink:href="#DejaVuSans-32"/>
       <use xlink:href="#DejaVuSans-30" x="63.623047"/>
       <use xlink:href="#DejaVuSans-30" x="127.246094"/>
      </g>
     </g>
    </g>
    <g id="xtick_4">
     <g id="line2d_4">
      <g>
       <use xlink:href="#mdba61a7e5f" x="413.175414" y="256.32" style="stroke: #000000; stroke-width: 0.8"/>
      </g>
     </g>
     <g id="text_4">
      <!-- 300 -->
      <g transform="translate(403.631664 270.918437) scale(0.1 -0.1)">
       <defs>
        <path id="DejaVuSans-33" d="M 2597 2516 
Q 3050 2419 3304 2112 
Q 3559 1806 3559 1356 
Q 3559 666 3084 287 
Q 2609 -91 1734 -91 
Q 1441 -91 1130 -33 
Q 819 25 488 141 
L 488 750 
Q 750 597 1062 519 
Q 1375 441 1716 441 
Q 2309 441 2620 675 
Q 2931 909 2931 1356 
Q 2931 1769 2642 2001 
Q 2353 2234 1838 2234 
L 1294 2234 
L 1294 2753 
L 1863 2753 
Q 2328 2753 2575 2939 
Q 2822 3125 2822 3475 
Q 2822 3834 2567 4026 
Q 2313 4219 1838 4219 
Q 1578 4219 1281 4162 
Q 984 4106 628 3988 
L 628 4550 
Q 988 4650 1302 4700 
Q 1616 4750 1894 4750 
Q 2613 4750 3031 4423 
Q 3450 4097 3450 3541 
Q 3450 3153 3228 2886 
Q 3006 2619 2597 2516 
z
" transform="scale(0.015625)"/>
       </defs>
       <use xlink:href="#DejaVuSans-33"/>
       <use xlink:href="#DejaVuSans-30" x="63.623047"/>
       <use xlink:href="#DejaVuSans-30" x="127.246094"/>
      </g>
     </g>
    </g>
    <g id="xtick_5">
     <g id="line2d_5">
      <g>
       <use xlink:href="#mdba61a7e5f" x="512.446006" y="256.32" style="stroke: #000000; stroke-width: 0.8"/>
      </g>
     </g>
     <g id="text_5">
      <!-- 400 -->
      <g transform="translate(502.902256 270.918437) scale(0.1 -0.1)">
       <defs>
        <path id="DejaVuSans-34" d="M 2419 4116 
L 825 1625 
L 2419 1625 
L 2419 4116 
z
M 2253 4666 
L 3047 4666 
L 3047 1625 
L 3713 1625 
L 3713 1100 
L 3047 1100 
L 3047 0 
L 2419 0 
L 2419 1100 
L 313 1100 
L 313 1709 
L 2253 4666 
z
" transform="scale(0.015625)"/>
       </defs>
       <use xlink:href="#DejaVuSans-34"/>
       <use xlink:href="#DejaVuSans-30" x="63.623047"/>
       <use xlink:href="#DejaVuSans-30" x="127.246094"/>
      </g>
     </g>
    </g>
    <g id="xtick_6">
     <g id="line2d_6">
      <g>
       <use xlink:href="#mdba61a7e5f" x="611.716598" y="256.32" style="stroke: #000000; stroke-width: 0.8"/>
      </g>
     </g>
     <g id="text_6">
      <!-- 500 -->
      <g transform="translate(602.172848 270.918437) scale(0.1 -0.1)">
       <defs>
        <path id="DejaVuSans-35" d="M 691 4666 
L 3169 4666 
L 3169 4134 
L 1269 4134 
L 1269 2991 
Q 1406 3038 1543 3061 
Q 1681 3084 1819 3084 
Q 2600 3084 3056 2656 
Q 3513 2228 3513 1497 
Q 3513 744 3044 326 
Q 2575 -91 1722 -91 
Q 1428 -91 1123 -41 
Q 819 9 494 109 
L 494 744 
Q 775 591 1075 516 
Q 1375 441 1709 441 
Q 2250 441 2565 725 
Q 2881 1009 2881 1497 
Q 2881 1984 2565 2268 
Q 2250 2553 1709 2553 
Q 1456 2553 1204 2497 
Q 953 2441 691 2322 
L 691 4666 
z
" transform="scale(0.015625)"/>
       </defs>
       <use xlink:href="#DejaVuSans-35"/>
       <use xlink:href="#DejaVuSans-30" x="63.623047"/>
       <use xlink:href="#DejaVuSans-30" x="127.246094"/>
      </g>
     </g>
    </g>
   </g>
   <g id="matplotlib.axis_2">
    <g id="ytick_1">
     <g id="line2d_7">
      <defs>
       <path id="m2ecc665018" d="M 0 0 
L -3.5 0 
" style="stroke: #000000; stroke-width: 0.8"/>
      </defs>
      <g>
       <use xlink:href="#m2ecc665018" x="90" y="231.6112" style="stroke: #000000; stroke-width: 0.8"/>
      </g>
     </g>
     <g id="text_7">
      <!-- −0.0002 -->
      <g transform="translate(39.629687 235.410419) scale(0.1 -0.1)">
       <defs>
        <path id="DejaVuSans-2212" d="M 678 2272 
L 4684 2272 
L 4684 1741 
L 678 1741 
L 678 2272 
z
" transform="scale(0.015625)"/>
        <path id="DejaVuSans-2e" d="M 684 794 
L 1344 794 
L 1344 0 
L 684 0 
L 684 794 
z
" transform="scale(0.015625)"/>
       </defs>
       <use xlink:href="#DejaVuSans-2212"/>
       <use xlink:href="#DejaVuSans-30" x="83.789062"/>
       <use xlink:href="#DejaVuSans-2e" x="147.412109"/>
       <use xlink:href="#DejaVuSans-30" x="179.199219"/>
       <use xlink:href="#DejaVuSans-30" x="242.822266"/>
       <use xlink:href="#DejaVuSans-30" x="306.445312"/>
       <use xlink:href="#DejaVuSans-32" x="370.068359"/>
      </g>
     </g>
    </g>
    <g id="ytick_2">
     <g id="line2d_8">
      <g>
       <use xlink:href="#m2ecc665018" x="90" y="189.52962" style="stroke: #000000; stroke-width: 0.8"/>
      </g>
     </g>
     <g id="text_8">
      <!-- −0.0001 -->
      <g transform="translate(39.629687 193.328838) scale(0.1 -0.1)">
       <use xlink:href="#DejaVuSans-2212"/>
       <use xlink:href="#DejaVuSans-30" x="83.789062"/>
       <use xlink:href="#DejaVuSans-2e" x="147.412109"/>
       <use xlink:href="#DejaVuSans-30" x="179.199219"/>
       <use xlink:href="#DejaVuSans-30" x="242.822266"/>
       <use xlink:href="#DejaVuSans-30" x="306.445312"/>
       <use xlink:href="#DejaVuSans-31" x="370.068359"/>
      </g>
     </g>
    </g>
    <g id="ytick_3">
     <g id="line2d_9">
      <g>
       <use xlink:href="#m2ecc665018" x="90" y="147.448039" style="stroke: #000000; stroke-width: 0.8"/>
      </g>
     </g>
     <g id="text_9">
      <!-- 0.0000 -->
      <g transform="translate(48.009375 151.247258) scale(0.1 -0.1)">
       <use xlink:href="#DejaVuSans-30"/>
       <use xlink:href="#DejaVuSans-2e" x="63.623047"/>
       <use xlink:href="#DejaVuSans-30" x="95.410156"/>
       <use xlink:href="#DejaVuSans-30" x="159.033203"/>
       <use xlink:href="#DejaVuSans-30" x="222.65625"/>
       <use xlink:href="#DejaVuSans-30" x="286.279297"/>
      </g>
     </g>
    </g>
    <g id="ytick_4">
     <g id="line2d_10">
      <g>
       <use xlink:href="#m2ecc665018" x="90" y="105.366458" style="stroke: #000000; stroke-width: 0.8"/>
      </g>
     </g>
     <g id="text_10">
      <!-- 0.0001 -->
      <g transform="translate(48.009375 109.165677) scale(0.1 -0.1)">
       <use xlink:href="#DejaVuSans-30"/>
       <use xlink:href="#DejaVuSans-2e" x="63.623047"/>
       <use xlink:href="#DejaVuSans-30" x="95.410156"/>
       <use xlink:href="#DejaVuSans-30" x="159.033203"/>
       <use xlink:href="#DejaVuSans-30" x="222.65625"/>
       <use xlink:href="#DejaVuSans-31" x="286.279297"/>
      </g>
     </g>
    </g>
    <g id="ytick_5">
     <g id="line2d_11">
      <g>
       <use xlink:href="#m2ecc665018" x="90" y="63.284877" style="stroke: #000000; stroke-width: 0.8"/>
      </g>
     </g>
     <g id="text_11">
      <!-- 0.0002 -->
      <g transform="translate(48.009375 67.084096) scale(0.1 -0.1)">
       <use xlink:href="#DejaVuSans-30"/>
       <use xlink:href="#DejaVuSans-2e" x="63.623047"/>
       <use xlink:href="#DejaVuSans-30" x="95.410156"/>
       <use xlink:href="#DejaVuSans-30" x="159.033203"/>
       <use xlink:href="#DejaVuSans-30" x="222.65625"/>
       <use xlink:href="#DejaVuSans-32" x="286.279297"/>
      </g>
     </g>
    </g>
   </g>
   <g id="line2d_12">
    <path d="M 115.363636 246.24 
L 116.356342 141.60203 
L 117.349048 49.275863 
L 118.341754 61.296823 
L 119.33446 156.277029 
L 120.327166 230.881812 
L 121.319872 212.61234 
L 122.312578 126.486674 
L 123.305284 78.869903 
L 124.29799 121.04127 
L 125.290696 186.618701 
L 126.283402 189.865622 
L 127.276107 142.891272 
L 128.268813 111.939334 
L 129.261519 128.135595 
L 130.254225 159.115756 
L 131.246931 168.511052 
L 132.239637 155.025929 
L 133.232343 135.014216 
L 134.225049 129.575405 
L 135.217755 139.400889 
L 136.210461 161.092108 
L 137.203167 171.154384 
L 138.195873 157.905275 
L 139.188579 138.019738 
L 140.181284 123.015523 
L 141.17399 124.275572 
L 142.166696 140.341054 
L 143.159402 169.379838 
L 144.152108 181.735013 
L 145.144814 155.444128 
L 146.13752 120.889129 
L 147.130226 117.867245 
L 148.122932 148.553708 
L 149.115638 172.955602 
L 150.108344 170.068474 
L 152.093756 133.976852 
L 153.086461 135.498968 
L 154.079167 149.968021 
L 155.071873 161.486834 
L 156.064579 157.515434 
L 157.057285 141.895617 
L 158.049991 134.476301 
L 159.042697 136.671631 
L 160.035403 143.871771 
L 162.020815 172.045141 
L 163.013521 169.047067 
L 164.006227 136.728591 
L 164.998933 96.388604 
L 165.991638 105.036535 
L 166.984344 177.734497 
L 167.97705 239.081923 
L 168.969756 201.391123 
L 169.962462 93.841962 
L 170.955168 44.64 
L 171.947874 114.714204 
L 172.94058 218.219878 
L 173.933286 235.272412 
L 175.918698 81.564854 
L 176.911404 86.904777 
L 177.90411 141.046516 
L 178.896816 179.051467 
L 179.889521 182.72814 
L 180.882227 164.386582 
L 181.874933 137.293468 
L 182.867639 119.072273 
L 183.860345 122.042256 
L 184.853051 139.177498 
L 186.838463 179.284187 
L 187.831169 170.58952 
L 188.823875 127.86845 
L 189.816581 100.087167 
L 190.809287 130.537929 
L 191.801993 187.265656 
L 192.794698 194.223196 
L 194.78011 99.54839 
L 195.772816 112.699361 
L 196.765522 164.641065 
L 197.758228 186.370685 
L 198.750934 160.310653 
L 199.74364 128.708608 
L 200.736346 121.947328 
L 201.729052 134.384125 
L 203.714464 174.700739 
L 204.70717 179.069731 
L 205.699875 151.845689 
L 206.692581 113.03656 
L 207.685287 99.758405 
L 208.677993 135.073455 
L 209.670699 186.924507 
L 210.663405 200.351506 
L 211.656111 160.237117 
L 212.648817 110.806606 
L 213.641523 102.874168 
L 215.626935 175.615525 
L 216.619641 172.676337 
L 217.612347 145.991309 
L 218.605052 127.867501 
L 219.597758 132.487188 
L 220.590464 144.290303 
L 221.58317 165.179316 
L 222.575876 180.713352 
L 223.568582 161.431862 
L 224.561288 123.775945 
L 225.553994 109.750861 
L 227.539406 175.248112 
L 228.532112 168.739955 
L 229.524818 138.641408 
L 230.517524 123.035045 
L 231.510229 140.431886 
L 232.502935 162.115361 
L 233.495641 162.231957 
L 234.488347 139.054619 
L 235.481053 129.339558 
L 236.473759 149.858014 
L 237.466465 174.053806 
L 238.459171 171.321351 
L 239.451877 144.772712 
L 240.444583 124.042607 
L 241.437289 115.585471 
L 242.429995 128.086583 
L 244.415407 199.818003 
L 245.408112 186.358711 
L 246.400818 129.994757 
L 247.393524 90.937073 
L 248.38623 106.965858 
L 249.378936 151.130519 
L 250.371642 178.925293 
L 251.364348 170.691926 
L 252.357054 150.91437 
L 253.34976 143.74427 
L 254.342466 149.275055 
L 255.335172 145.783054 
L 256.327878 131.284442 
L 257.320584 132.89199 
L 258.313289 161.780443 
L 259.305995 184.864777 
L 260.298701 158.861779 
L 261.291407 106.707367 
L 262.284113 94.622009 
L 264.269525 211.764724 
L 265.262231 199.834757 
L 266.254937 128.595378 
L 267.247643 80.94565 
L 268.240349 108.375434 
L 269.233055 172.954991 
L 270.225761 200.348574 
L 271.218466 167.931454 
L 272.211172 112.823824 
L 273.203878 99.630647 
L 275.18929 193.728238 
L 276.181996 187.464266 
L 277.174702 128.811994 
L 278.167408 91.083953 
L 279.160114 118.908196 
L 280.15282 179.866918 
L 281.145526 200.493193 
L 282.138232 159.539569 
L 283.130938 105.425249 
L 284.123643 95.680482 
L 285.116349 135.405249 
L 286.109055 185.05585 
L 287.101761 202.437664 
L 288.094467 172.744366 
L 289.087173 118.257318 
L 290.079879 94.457169 
L 291.072585 122.994329 
L 292.065291 172.007537 
L 293.057997 192.548771 
L 294.050703 166.721601 
L 295.043409 124.239965 
L 296.036115 106.078492 
L 297.02882 130.993666 
L 298.021526 170.730478 
L 299.014232 184.809687 
L 300.006938 158.182769 
L 300.999644 122.125739 
L 301.99235 118.080436 
L 302.985056 152.69167 
L 303.977762 182.073903 
L 304.970468 167.45276 
L 305.963174 131.61974 
L 306.95588 115.713904 
L 307.948586 129.591413 
L 308.941292 159.086166 
L 309.933998 180.085944 
L 310.926703 171.66717 
L 311.919409 133.006079 
L 312.912115 105.54192 
L 313.904821 135.271669 
L 314.897527 181.582411 
L 315.890233 185.555969 
L 316.882939 133.877398 
L 317.875645 92.985874 
L 318.868351 122.264253 
L 319.861057 182.733192 
L 320.853763 199.393452 
L 321.846469 155.535066 
L 322.839175 100.716888 
L 323.83188 102.604422 
L 324.824586 155.080278 
L 325.817292 198.366478 
L 326.809998 186.070732 
L 327.802704 127.093514 
L 328.79541 94.935267 
L 329.788116 127.175994 
L 330.780822 181.882511 
L 331.773528 191.799456 
L 333.75894 105.586585 
L 334.751646 116.456784 
L 335.744352 155.858375 
L 336.737057 178.253903 
L 337.729763 172.665369 
L 340.707881 115.388965 
L 341.700587 120.017049 
L 343.685999 198.56017 
L 344.678705 179.734669 
L 345.671411 122.106916 
L 346.664117 86.896481 
L 347.656823 117.609581 
L 348.649529 180.229965 
L 349.642234 205.862536 
L 350.63494 170.324223 
L 351.627646 112.187906 
L 352.620352 96.249802 
L 353.613058 137.671396 
L 354.605764 184.277834 
L 355.59847 183.609537 
L 356.591176 143.905734 
L 357.583882 111.438242 
L 358.576588 120.858065 
L 359.569294 154.294066 
L 360.562 181.979855 
L 361.554706 181.145086 
L 362.547411 146.008575 
L 363.540117 98.384353 
L 364.532823 91.561398 
L 365.525529 145.4614 
L 366.518235 216.091286 
L 367.510941 212.680036 
L 368.503647 132.174173 
L 369.496353 75.630366 
L 370.489059 110.581083 
L 371.481765 193.440654 
L 372.474471 215.475713 
L 374.459883 77.3702 
L 375.452589 94.156929 
L 376.445294 174.985758 
L 377.438 221.559737 
L 378.430706 175.335634 
L 379.423412 101.760743 
L 380.416118 91.098518 
L 382.40153 196.807992 
L 383.394236 189.167975 
L 384.386942 138.355866 
L 385.379648 103.820639 
L 386.372354 120.524538 
L 387.36506 158.970063 
L 388.357766 181.418027 
L 389.350471 161.513035 
L 390.343177 131.571876 
L 391.335883 124.375187 
L 393.321295 156.151612 
L 394.314001 152.7983 
L 395.306707 148.873462 
L 396.299413 146.666746 
L 397.292119 145.973122 
L 398.284825 155.592338 
L 399.277531 168.481245 
L 400.270237 160.79398 
L 401.262943 127.223042 
L 402.255648 112.975678 
L 403.248354 139.388691 
L 404.24106 175.902214 
L 405.233766 184.791669 
L 407.219178 109.996373 
L 408.211884 105.892821 
L 409.20459 143.630145 
L 410.197296 185.636578 
L 411.190002 186.336858 
L 413.175414 112.913404 
L 414.16812 120.792974 
L 415.160825 153.788321 
L 416.153531 169.790578 
L 417.146237 159.015423 
L 418.138943 152.466271 
L 419.131649 156.531535 
L 420.124355 143.37078 
L 421.117061 121.152684 
L 422.109767 126.202186 
L 423.102473 157.838513 
L 424.095179 183.221666 
L 425.087885 168.577921 
L 426.080591 120.827569 
L 427.073297 93.934776 
L 428.066002 122.387705 
L 429.058708 193.382392 
L 430.051414 229.696137 
L 431.04412 178.332378 
L 432.036826 86.653939 
L 433.029532 55.099187 
L 434.022238 126.590462 
L 435.014944 217.572062 
L 436.00765 220.929738 
L 437.000356 135.48758 
L 437.993062 61.925581 
L 438.985768 83.634033 
L 439.978474 173.450903 
L 440.97118 239.161396 
L 441.963885 213.790257 
L 442.956591 124.834589 
L 443.949297 62.035232 
L 444.942003 90.429041 
L 445.934709 176.54596 
L 446.927415 226.806887 
L 447.920121 188.888417 
L 448.912827 104.251579 
L 449.905533 73.355873 
L 450.898239 123.711972 
L 451.890945 187.351722 
L 452.883651 196.32711 
L 454.869062 127.616637 
L 455.861768 117.670616 
L 456.854474 124.292155 
L 457.84718 142.307408 
L 458.839886 163.678347 
L 459.832592 173.687271 
L 460.825298 163.112995 
L 461.818004 137.475321 
L 462.81071 118.220811 
L 463.803416 127.964891 
L 464.796122 162.543827 
L 465.788828 180.904498 
L 466.781534 170.8015 
L 467.774239 139.735561 
L 468.766945 112.274688 
L 469.759651 116.372533 
L 470.752357 154.108372 
L 471.745063 185.581355 
L 472.737769 172.245717 
L 473.730475 131.425069 
L 474.723181 114.241636 
L 475.715887 136.10652 
L 476.708593 162.504306 
L 477.701299 174.239521 
L 478.694005 167.448289 
L 479.686711 141.030898 
L 480.679416 118.298614 
L 481.672122 123.964872 
L 482.664828 155.240485 
L 483.657534 180.60183 
L 484.65024 170.366085 
L 485.642946 130.709487 
L 486.635652 104.954658 
L 487.628358 125.815327 
L 488.621064 179.536391 
L 489.61377 200.128712 
L 490.606476 160.780609 
L 491.599182 106.064497 
L 492.591888 88.982818 
L 493.584593 131.770607 
L 494.577299 196.948639 
L 495.570005 212.402871 
L 496.562711 159.322264 
L 497.555417 94.642266 
L 498.548123 90.042544 
L 500.533535 178.96145 
L 501.526241 194.885768 
L 502.518947 170.81996 
L 503.511653 119.644002 
L 504.504359 94.550125 
L 505.497065 126.487661 
L 506.489771 179.662696 
L 507.482476 197.627131 
L 508.475182 160.303489 
L 509.467888 112.367854 
L 510.460594 102.351472 
L 511.4533 138.62854 
L 512.446006 183.971866 
L 513.438712 195.003645 
L 514.431418 160.161518 
L 515.424124 105.381449 
L 516.41683 85.399804 
L 517.409536 140.143803 
L 518.402242 217.005633 
L 519.394948 222.496149 
L 520.387653 145.476605 
L 521.380359 78.348627 
L 522.373065 86.186483 
L 523.365771 146.581096 
L 524.358477 193.213114 
L 525.351183 192.731662 
L 527.336595 113.722217 
L 528.329301 113.367206 
L 530.314713 172.488554 
L 531.307419 168.042663 
L 532.300125 143.319205 
L 533.29283 129.956394 
L 534.285536 137.248704 
L 535.278242 159.335737 
L 536.270948 167.290828 
L 537.263654 159.017713 
L 538.25636 143.780323 
L 539.249066 132.739226 
L 540.241772 132.004287 
L 541.234478 142.94152 
L 542.227184 158.158995 
L 543.21989 160.748743 
L 544.212596 147.333287 
L 545.205302 137.927217 
L 546.198007 145.654606 
L 547.190713 155.488133 
L 548.183419 151.232344 
L 549.176125 141.26967 
L 550.168831 135.290121 
L 552.154243 155.910164 
L 553.146949 153.161942 
L 554.139655 137.871316 
L 555.132361 130.13045 
L 556.125067 144.334937 
L 557.117773 169.692739 
L 558.110479 175.313803 
L 559.103184 149.545476 
L 560.09589 116.813362 
L 561.088596 117.096064 
L 563.074008 175.598698 
L 564.066714 179.951622 
L 565.05942 156.211081 
L 566.052126 127.921932 
L 567.044832 121.916778 
L 568.037538 151.126494 
L 569.030244 176.925646 
L 570.02295 166.813886 
L 571.015656 127.583024 
L 572.008362 103.731881 
L 573.001067 127.679722 
L 573.993773 175.852869 
L 574.986479 189.56729 
L 575.979185 153.881984 
L 576.971891 124.325511 
L 577.964597 135.451152 
L 578.957303 162.223227 
L 579.950009 161.570297 
L 580.942715 142.782187 
L 581.935421 127.294947 
L 582.928127 127.178485 
L 583.920833 142.164506 
L 584.913539 170.599283 
L 585.906244 182.508802 
L 586.89895 155.231344 
L 587.891656 113.246825 
L 588.884362 105.261651 
L 590.869774 184.700251 
L 591.86248 186.621505 
L 593.847892 110.661416 
L 594.840598 111.787672 
L 595.833304 156.393008 
L 596.82601 187.514811 
L 597.818716 165.035404 
L 598.811421 113.880643 
L 599.804127 108.439156 
L 600.796833 157.739761 
L 601.789539 188.654935 
L 602.782245 162.357232 
L 603.774951 119.327972 
L 604.767657 125.823303 
L 605.760363 167.609385 
L 606.753069 178.151333 
L 608.738481 99.558068 
L 609.731187 123.338531 
L 610.723893 177.337023 
L 611.716598 195.468818 
L 612.709304 154.471061 
L 613.70201 102.129629 
L 614.694716 96.668899 
L 615.687422 142.407311 
L 616.680128 197.393217 
L 617.672834 207.457275 
L 618.66554 159.933214 
L 619.658246 98.11465 
L 620.650952 91.924441 
L 621.643658 141.478785 
L 622.636364 200.759472 
L 622.636364 200.759472 
" clip-path="url(#pa21c33f644)" style="fill: none; stroke: #1f77b4; stroke-width: 1.5; stroke-linecap: square"/>
   </g>
   <g id="patch_3">
    <path d="M 90 256.32 
L 90 34.56 
" style="fill: none; stroke: #000000; stroke-width: 0.8; stroke-linejoin: miter; stroke-linecap: square"/>
   </g>
   <g id="patch_4">
    <path d="M 648 256.32 
L 648 34.56 
" style="fill: none; stroke: #000000; stroke-width: 0.8; stroke-linejoin: miter; stroke-linecap: square"/>
   </g>
   <g id="patch_5">
    <path d="M 90 256.32 
L 648 256.32 
" style="fill: none; stroke: #000000; stroke-width: 0.8; stroke-linejoin: miter; stroke-linecap: square"/>
   </g>
   <g id="patch_6">
    <path d="M 90 34.56 
L 648 34.56 
" style="fill: none; stroke: #000000; stroke-width: 0.8; stroke-linejoin: miter; stroke-linecap: square"/>
   </g>
   <g id="text_12">
    <!-- K is now at 2 -->
    <g transform="translate(330.418125 28.56) scale(0.12 -0.12)">
     <defs>
      <path id="DejaVuSans-4b" d="M 628 4666 
L 1259 4666 
L 1259 2694 
L 3353 4666 
L 4166 4666 
L 1850 2491 
L 4331 0 
L 3500 0 
L 1259 2247 
L 1259 0 
L 628 0 
L 628 4666 
z
" transform="scale(0.015625)"/>
      <path id="DejaVuSans-20" transform="scale(0.015625)"/>
      <path id="DejaVuSans-69" d="M 603 3500 
L 1178 3500 
L 1178 0 
L 603 0 
L 603 3500 
z
M 603 4863 
L 1178 4863 
L 1178 4134 
L 603 4134 
L 603 4863 
z
" transform="scale(0.015625)"/>
      <path id="DejaVuSans-73" d="M 2834 3397 
L 2834 2853 
Q 2591 2978 2328 3040 
Q 2066 3103 1784 3103 
Q 1356 3103 1142 2972 
Q 928 2841 928 2578 
Q 928 2378 1081 2264 
Q 1234 2150 1697 2047 
L 1894 2003 
Q 2506 1872 2764 1633 
Q 3022 1394 3022 966 
Q 3022 478 2636 193 
Q 2250 -91 1575 -91 
Q 1294 -91 989 -36 
Q 684 19 347 128 
L 347 722 
Q 666 556 975 473 
Q 1284 391 1588 391 
Q 1994 391 2212 530 
Q 2431 669 2431 922 
Q 2431 1156 2273 1281 
Q 2116 1406 1581 1522 
L 1381 1569 
Q 847 1681 609 1914 
Q 372 2147 372 2553 
Q 372 3047 722 3315 
Q 1072 3584 1716 3584 
Q 2034 3584 2315 3537 
Q 2597 3491 2834 3397 
z
" transform="scale(0.015625)"/>
      <path id="DejaVuSans-6e" d="M 3513 2113 
L 3513 0 
L 2938 0 
L 2938 2094 
Q 2938 2591 2744 2837 
Q 2550 3084 2163 3084 
Q 1697 3084 1428 2787 
Q 1159 2491 1159 1978 
L 1159 0 
L 581 0 
L 581 3500 
L 1159 3500 
L 1159 2956 
Q 1366 3272 1645 3428 
Q 1925 3584 2291 3584 
Q 2894 3584 3203 3211 
Q 3513 2838 3513 2113 
z
" transform="scale(0.015625)"/>
      <path id="DejaVuSans-6f" d="M 1959 3097 
Q 1497 3097 1228 2736 
Q 959 2375 959 1747 
Q 959 1119 1226 758 
Q 1494 397 1959 397 
Q 2419 397 2687 759 
Q 2956 1122 2956 1747 
Q 2956 2369 2687 2733 
Q 2419 3097 1959 3097 
z
M 1959 3584 
Q 2709 3584 3137 3096 
Q 3566 2609 3566 1747 
Q 3566 888 3137 398 
Q 2709 -91 1959 -91 
Q 1206 -91 779 398 
Q 353 888 353 1747 
Q 353 2609 779 3096 
Q 1206 3584 1959 3584 
z
" transform="scale(0.015625)"/>
      <path id="DejaVuSans-77" d="M 269 3500 
L 844 3500 
L 1563 769 
L 2278 3500 
L 2956 3500 
L 3675 769 
L 4391 3500 
L 4966 3500 
L 4050 0 
L 3372 0 
L 2619 2869 
L 1863 0 
L 1184 0 
L 269 3500 
z
" transform="scale(0.015625)"/>
      <path id="DejaVuSans-61" d="M 2194 1759 
Q 1497 1759 1228 1600 
Q 959 1441 959 1056 
Q 959 750 1161 570 
Q 1363 391 1709 391 
Q 2188 391 2477 730 
Q 2766 1069 2766 1631 
L 2766 1759 
L 2194 1759 
z
M 3341 1997 
L 3341 0 
L 2766 0 
L 2766 531 
Q 2569 213 2275 61 
Q 1981 -91 1556 -91 
Q 1019 -91 701 211 
Q 384 513 384 1019 
Q 384 1609 779 1909 
Q 1175 2209 1959 2209 
L 2766 2209 
L 2766 2266 
Q 2766 2663 2505 2880 
Q 2244 3097 1772 3097 
Q 1472 3097 1187 3025 
Q 903 2953 641 2809 
L 641 3341 
Q 956 3463 1253 3523 
Q 1550 3584 1831 3584 
Q 2591 3584 2966 3190 
Q 3341 2797 3341 1997 
z
" transform="scale(0.015625)"/>
      <path id="DejaVuSans-74" d="M 1172 4494 
L 1172 3500 
L 2356 3500 
L 2356 3053 
L 1172 3053 
L 1172 1153 
Q 1172 725 1289 603 
Q 1406 481 1766 481 
L 2356 481 
L 2356 0 
L 1766 0 
Q 1100 0 847 248 
Q 594 497 594 1153 
L 594 3053 
L 172 3053 
L 172 3500 
L 594 3500 
L 594 4494 
L 1172 4494 
z
" transform="scale(0.015625)"/>
     </defs>
     <use xlink:href="#DejaVuSans-4b"/>
     <use xlink:href="#DejaVuSans-20" x="65.576172"/>
     <use xlink:href="#DejaVuSans-69" x="97.363281"/>
     <use xlink:href="#DejaVuSans-73" x="125.146484"/>
     <use xlink:href="#DejaVuSans-20" x="177.246094"/>
     <use xlink:href="#DejaVuSans-6e" x="209.033203"/>
     <use xlink:href="#DejaVuSans-6f" x="272.412109"/>
     <use xlink:href="#DejaVuSans-77" x="333.59375"/>
     <use xlink:href="#DejaVuSans-20" x="415.380859"/>
     <use xlink:href="#DejaVuSans-61" x="447.167969"/>
     <use xlink:href="#DejaVuSans-74" x="508.447266"/>
     <use xlink:href="#DejaVuSans-20" x="547.65625"/>
     <use xlink:href="#DejaVuSans-32" x="579.443359"/>
    </g>
   </g>
  </g>
 </g>
 <defs>
  <clipPath id="pa21c33f644">
   <rect x="90" y="34.56" width="558" height="221.76"/>
  </clipPath>
 </defs>
</svg>
