<?xml version="1.0" encoding="utf-8" standalone="no"?>
<!DOCTYPE svg PUBLIC "-//W3C//DTD SVG 1.1//EN"
  "http://www.w3.org/Graphics/SVG/1.1/DTD/svg11.dtd">
<svg xmlns:xlink="http://www.w3.org/1999/xlink" width="720pt" height="288pt" viewBox="0 0 720 288" xmlns="http://www.w3.org/2000/svg" version="1.1">
 <metadata>
  <rdf:RDF xmlns:dc="http://purl.org/dc/elements/1.1/" xmlns:cc="http://creativecommons.org/ns#" xmlns:rdf="http://www.w3.org/1999/02/22-rdf-syntax-ns#">
   <cc:Work>
    <dc:type rdf:resource="http://purl.org/dc/dcmitype/StillImage"/>
    <dc:date>2023-12-05T23:15:45.175454</dc:date>
    <dc:format>image/svg+xml</dc:format>
    <dc:creator>
     <cc:Agent>
      <dc:title>Matplotlib v3.6.2, https://matplotlib.org/</dc:title>
     </cc:Agent>
    </dc:creator>
   </cc:Work>
  </rdf:RDF>
 </metadata>
 <defs>
  <style type="text/css">*{stroke-linejoin: round; stroke-linecap: butt}</style>
 </defs>
 <g id="figure_1">
  <g id="patch_1">
   <path d="M 0 288 
L 720 288 
L 720 0 
L 0 0 
z
" style="fill: #ffffff"/>
  </g>
  <g id="axes_1">
   <g id="patch_2">
    <path d="M 90 256.32 
L 648 256.32 
L 648 34.56 
L 90 34.56 
z
" style="fill: #ffffff"/>
   </g>
   <g id="matplotlib.axis_1">
    <g id="xtick_1">
     <g id="line2d_1">
      <defs>
       <path id="mf224450cf5" d="M 0 0 
L 0 3.5 
" style="stroke: #000000; stroke-width: 0.8"/>
      </defs>
      <g>
       <use xlink:href="#mf224450cf5" x="115.363636" y="256.32" style="stroke: #000000; stroke-width: 0.8"/>
      </g>
     </g>
     <g id="text_1">
      <!-- 0 -->
      <g transform="translate(112.182386 270.918437) scale(0.1 -0.1)">
       <defs>
        <path id="DejaVuSans-30" d="M 2034 4250 
Q 1547 4250 1301 3770 
Q 1056 3291 1056 2328 
Q 1056 1369 1301 889 
Q 1547 409 2034 409 
Q 2525 409 2770 889 
Q 3016 1369 3016 2328 
Q 3016 3291 2770 3770 
Q 2525 4250 2034 4250 
z
M 2034 4750 
Q 2819 4750 3233 4129 
Q 3647 3509 3647 2328 
Q 3647 1150 3233 529 
Q 2819 -91 2034 -91 
Q 1250 -91 836 529 
Q 422 1150 422 2328 
Q 422 3509 836 4129 
Q 1250 4750 2034 4750 
z
" transform="scale(0.015625)"/>
       </defs>
       <use xlink:href="#DejaVuSans-30"/>
      </g>
     </g>
    </g>
    <g id="xtick_2">
     <g id="line2d_2">
      <g>
       <use xlink:href="#mf224450cf5" x="214.634229" y="256.32" style="stroke: #000000; stroke-width: 0.8"/>
      </g>
     </g>
     <g id="text_2">
      <!-- 100 -->
      <g transform="translate(205.090479 270.918437) scale(0.1 -0.1)">
       <defs>
        <path id="DejaVuSans-31" d="M 794 531 
L 1825 531 
L 1825 4091 
L 703 3866 
L 703 4441 
L 1819 4666 
L 2450 4666 
L 2450 531 
L 3481 531 
L 3481 0 
L 794 0 
L 794 531 
z
" transform="scale(0.015625)"/>
       </defs>
       <use xlink:href="#DejaVuSans-31"/>
       <use xlink:href="#DejaVuSans-30" x="63.623047"/>
       <use xlink:href="#DejaVuSans-30" x="127.246094"/>
      </g>
     </g>
    </g>
    <g id="xtick_3">
     <g id="line2d_3">
      <g>
       <use xlink:href="#mf224450cf5" x="313.904821" y="256.32" style="stroke: #000000; stroke-width: 0.8"/>
      </g>
     </g>
     <g id="text_3">
      <!-- 200 -->
      <g transform="translate(304.361071 270.918437) scale(0.1 -0.1)">
       <defs>
        <path id="DejaVuSans-32" d="M 1228 531 
L 3431 531 
L 3431 0 
L 469 0 
L 469 531 
Q 828 903 1448 1529 
Q 2069 2156 2228 2338 
Q 2531 2678 2651 2914 
Q 2772 3150 2772 3378 
Q 2772 3750 2511 3984 
Q 2250 4219 1831 4219 
Q 1534 4219 1204 4116 
Q 875 4013 500 3803 
L 500 4441 
Q 881 4594 1212 4672 
Q 1544 4750 1819 4750 
Q 2544 4750 2975 4387 
Q 3406 4025 3406 3419 
Q 3406 3131 3298 2873 
Q 3191 2616 2906 2266 
Q 2828 2175 2409 1742 
Q 1991 1309 1228 531 
z
" transform="scale(0.015625)"/>
       </defs>
       <use xlink:href="#DejaVuSans-32"/>
       <use xlink:href="#DejaVuSans-30" x="63.623047"/>
       <use xlink:href="#DejaVuSans-30" x="127.246094"/>
      </g>
     </g>
    </g>
    <g id="xtick_4">
     <g id="line2d_4">
      <g>
       <use xlink:href="#mf224450cf5" x="413.175414" y="256.32" style="stroke: #000000; stroke-width: 0.8"/>
      </g>
     </g>
     <g id="text_4">
      <!-- 300 -->
      <g transform="translate(403.631664 270.918437) scale(0.1 -0.1)">
       <defs>
        <path id="DejaVuSans-33" d="M 2597 2516 
Q 3050 2419 3304 2112 
Q 3559 1806 3559 1356 
Q 3559 666 3084 287 
Q 2609 -91 1734 -91 
Q 1441 -91 1130 -33 
Q 819 25 488 141 
L 488 750 
Q 750 597 1062 519 
Q 1375 441 1716 441 
Q 2309 441 2620 675 
Q 2931 909 2931 1356 
Q 2931 1769 2642 2001 
Q 2353 2234 1838 2234 
L 1294 2234 
L 1294 2753 
L 1863 2753 
Q 2328 2753 2575 2939 
Q 2822 3125 2822 3475 
Q 2822 3834 2567 4026 
Q 2313 4219 1838 4219 
Q 1578 4219 1281 4162 
Q 984 4106 628 3988 
L 628 4550 
Q 988 4650 1302 4700 
Q 1616 4750 1894 4750 
Q 2613 4750 3031 4423 
Q 3450 4097 3450 3541 
Q 3450 3153 3228 2886 
Q 3006 2619 2597 2516 
z
" transform="scale(0.015625)"/>
       </defs>
       <use xlink:href="#DejaVuSans-33"/>
       <use xlink:href="#DejaVuSans-30" x="63.623047"/>
       <use xlink:href="#DejaVuSans-30" x="127.246094"/>
      </g>
     </g>
    </g>
    <g id="xtick_5">
     <g id="line2d_5">
      <g>
       <use xlink:href="#mf224450cf5" x="512.446006" y="256.32" style="stroke: #000000; stroke-width: 0.8"/>
      </g>
     </g>
     <g id="text_5">
      <!-- 400 -->
      <g transform="translate(502.902256 270.918437) scale(0.1 -0.1)">
       <defs>
        <path id="DejaVuSans-34" d="M 2419 4116 
L 825 1625 
L 2419 1625 
L 2419 4116 
z
M 2253 4666 
L 3047 4666 
L 3047 1625 
L 3713 1625 
L 3713 1100 
L 3047 1100 
L 3047 0 
L 2419 0 
L 2419 1100 
L 313 1100 
L 313 1709 
L 2253 4666 
z
" transform="scale(0.015625)"/>
       </defs>
       <use xlink:href="#DejaVuSans-34"/>
       <use xlink:href="#DejaVuSans-30" x="63.623047"/>
       <use xlink:href="#DejaVuSans-30" x="127.246094"/>
      </g>
     </g>
    </g>
    <g id="xtick_6">
     <g id="line2d_6">
      <g>
       <use xlink:href="#mf224450cf5" x="611.716598" y="256.32" style="stroke: #000000; stroke-width: 0.8"/>
      </g>
     </g>
     <g id="text_6">
      <!-- 500 -->
      <g transform="translate(602.172848 270.918437) scale(0.1 -0.1)">
       <defs>
        <path id="DejaVuSans-35" d="M 691 4666 
L 3169 4666 
L 3169 4134 
L 1269 4134 
L 1269 2991 
Q 1406 3038 1543 3061 
Q 1681 3084 1819 3084 
Q 2600 3084 3056 2656 
Q 3513 2228 3513 1497 
Q 3513 744 3044 326 
Q 2575 -91 1722 -91 
Q 1428 -91 1123 -41 
Q 819 9 494 109 
L 494 744 
Q 775 591 1075 516 
Q 1375 441 1709 441 
Q 2250 441 2565 725 
Q 2881 1009 2881 1497 
Q 2881 1984 2565 2268 
Q 2250 2553 1709 2553 
Q 1456 2553 1204 2497 
Q 953 2441 691 2322 
L 691 4666 
z
" transform="scale(0.015625)"/>
       </defs>
       <use xlink:href="#DejaVuSans-35"/>
       <use xlink:href="#DejaVuSans-30" x="63.623047"/>
       <use xlink:href="#DejaVuSans-30" x="127.246094"/>
      </g>
     </g>
    </g>
   </g>
   <g id="matplotlib.axis_2">
    <g id="ytick_1">
     <g id="line2d_7">
      <defs>
       <path id="m9c3e98202c" d="M 0 0 
L -3.5 0 
" style="stroke: #000000; stroke-width: 0.8"/>
      </defs>
      <g>
       <use xlink:href="#m9c3e98202c" x="90" y="242.966229" style="stroke: #000000; stroke-width: 0.8"/>
      </g>
     </g>
     <g id="text_7">
      <!-- −2 -->
      <g transform="translate(68.257812 246.765447) scale(0.1 -0.1)">
       <defs>
        <path id="DejaVuSans-2212" d="M 678 2272 
L 4684 2272 
L 4684 1741 
L 678 1741 
L 678 2272 
z
" transform="scale(0.015625)"/>
       </defs>
       <use xlink:href="#DejaVuSans-2212"/>
       <use xlink:href="#DejaVuSans-32" x="83.789062"/>
      </g>
     </g>
    </g>
    <g id="ytick_2">
     <g id="line2d_8">
      <g>
       <use xlink:href="#m9c3e98202c" x="90" y="194.938312" style="stroke: #000000; stroke-width: 0.8"/>
      </g>
     </g>
     <g id="text_8">
      <!-- −1 -->
      <g transform="translate(68.257812 198.737531) scale(0.1 -0.1)">
       <use xlink:href="#DejaVuSans-2212"/>
       <use xlink:href="#DejaVuSans-31" x="83.789062"/>
      </g>
     </g>
    </g>
    <g id="ytick_3">
     <g id="line2d_9">
      <g>
       <use xlink:href="#m9c3e98202c" x="90" y="146.910395" style="stroke: #000000; stroke-width: 0.8"/>
      </g>
     </g>
     <g id="text_9">
      <!-- 0 -->
      <g transform="translate(76.6375 150.709614) scale(0.1 -0.1)">
       <use xlink:href="#DejaVuSans-30"/>
      </g>
     </g>
    </g>
    <g id="ytick_4">
     <g id="line2d_10">
      <g>
       <use xlink:href="#m9c3e98202c" x="90" y="98.882478" style="stroke: #000000; stroke-width: 0.8"/>
      </g>
     </g>
     <g id="text_10">
      <!-- 1 -->
      <g transform="translate(76.6375 102.681697) scale(0.1 -0.1)">
       <use xlink:href="#DejaVuSans-31"/>
      </g>
     </g>
    </g>
    <g id="ytick_5">
     <g id="line2d_11">
      <g>
       <use xlink:href="#m9c3e98202c" x="90" y="50.854561" style="stroke: #000000; stroke-width: 0.8"/>
      </g>
     </g>
     <g id="text_11">
      <!-- 2 -->
      <g transform="translate(76.6375 54.65378) scale(0.1 -0.1)">
       <use xlink:href="#DejaVuSans-32"/>
      </g>
     </g>
    </g>
    <g id="text_12">
     <!-- 1e−5 -->
     <g transform="translate(90 31.56) scale(0.1 -0.1)">
      <defs>
       <path id="DejaVuSans-65" d="M 3597 1894 
L 3597 1613 
L 953 1613 
Q 991 1019 1311 708 
Q 1631 397 2203 397 
Q 2534 397 2845 478 
Q 3156 559 3463 722 
L 3463 178 
Q 3153 47 2828 -22 
Q 2503 -91 2169 -91 
Q 1331 -91 842 396 
Q 353 884 353 1716 
Q 353 2575 817 3079 
Q 1281 3584 2069 3584 
Q 2775 3584 3186 3129 
Q 3597 2675 3597 1894 
z
M 3022 2063 
Q 3016 2534 2758 2815 
Q 2500 3097 2075 3097 
Q 1594 3097 1305 2825 
Q 1016 2553 972 2059 
L 3022 2063 
z
" transform="scale(0.015625)"/>
      </defs>
      <use xlink:href="#DejaVuSans-31"/>
      <use xlink:href="#DejaVuSans-65" x="63.623047"/>
      <use xlink:href="#DejaVuSans-2212" x="125.146484"/>
      <use xlink:href="#DejaVuSans-35" x="208.935547"/>
     </g>
    </g>
   </g>
   <g id="line2d_12">
    <path d="M 115.363636 140.142474 
L 116.356342 161.258536 
L 117.349048 137.849643 
L 118.341754 142.455039 
L 119.33446 160.013072 
L 120.327166 138.126818 
L 121.319872 143.268401 
L 122.312578 157.225186 
L 123.305284 141.269959 
L 124.29799 144.590955 
L 125.290696 150.114521 
L 126.283402 149.914634 
L 127.276107 139.559108 
L 128.268813 149.912128 
L 129.261519 155.159301 
L 130.254225 136.466985 
L 131.246931 145.461639 
L 132.239637 161.352401 
L 133.232343 137.780081 
L 134.225049 136.218709 
L 135.217755 165.806915 
L 136.210461 140.053658 
L 137.203167 135.281058 
L 138.195873 162.135571 
L 139.188579 139.171898 
L 140.181284 145.152334 
L 141.17399 156.610401 
L 142.166696 134.124241 
L 143.159402 156.969529 
L 144.152108 152.46644 
L 145.144814 130.723221 
L 146.13752 161.195564 
L 147.130226 150.641286 
L 148.122932 130.364091 
L 149.115638 155.393338 
L 151.10105 143.168988 
L 152.093756 143.797178 
L 153.086461 150.575281 
L 154.079167 151.542686 
L 155.071873 143.586775 
L 156.064579 143.900048 
L 157.057285 150.346888 
L 158.049991 143.423161 
L 159.042697 146.085336 
L 160.035403 148.258992 
L 161.028109 139.784702 
L 162.020815 156.631501 
L 163.013521 143.610926 
L 164.006227 140.636333 
L 164.998933 158.113734 
L 165.991638 140.167231 
L 166.984344 144.411948 
L 167.97705 156.994918 
L 168.969756 140.649771 
L 169.962462 144.977958 
L 170.955168 155.336695 
L 171.947874 141.593109 
L 172.94058 148.307358 
L 173.933286 145.888192 
L 174.925992 147.145374 
L 175.918698 151.307274 
L 176.911404 136.693471 
L 177.90411 151.913579 
L 178.896816 151.713928 
L 179.889521 135.479444 
L 180.882227 155.050558 
L 181.874933 148.837613 
L 182.867639 138.164969 
L 183.860345 152.008836 
L 184.853051 154.133495 
L 185.845757 133.603288 
L 186.838463 150.542805 
L 187.831169 158.266309 
L 188.823875 130.977368 
L 189.816581 151.603076 
L 190.809287 152.297889 
L 191.801993 138.075405 
L 192.794698 151.154325 
L 193.787404 147.099063 
L 194.78011 145.66353 
L 195.772816 149.181957 
L 196.765522 147.034065 
L 197.758228 142.862808 
L 198.750934 151.097731 
L 199.74364 145.646107 
L 200.736346 145.4646 
L 201.729052 149.742216 
L 202.721758 144.214782 
L 204.70717 151.084703 
L 205.699875 140.678483 
L 206.692581 149.149602 
L 207.685287 153.975661 
L 208.677993 139.667926 
L 209.670699 151.017344 
L 210.663405 153.075936 
L 211.656111 138.328294 
L 212.648817 150.018276 
L 213.641523 153.761317 
L 214.634229 136.355662 
L 216.619641 158.264307 
L 217.612347 134.230607 
L 218.605052 144.651104 
L 219.597758 162.597324 
L 220.590464 132.445476 
L 221.58317 142.118013 
L 222.575876 168.640843 
L 223.568582 129.471107 
L 224.561288 140.471348 
L 225.553994 169.488249 
L 226.5467 128.740991 
L 228.532112 162.551387 
L 229.524818 125.750931 
L 230.517524 157.461152 
L 231.510229 153.295718 
L 232.502935 126.735896 
L 233.495641 164.743976 
L 234.488347 145.433484 
L 235.481053 131.594084 
L 236.473759 164.903021 
L 237.466465 144.408296 
L 238.459171 135.396744 
L 239.451877 157.670343 
L 240.444583 150.744042 
L 241.437289 134.990302 
L 242.429995 153.319664 
L 243.422701 158.218098 
L 244.415407 132.509065 
L 246.400818 164.647691 
L 247.393524 130.346072 
L 248.38623 144.790252 
L 249.378936 167.313291 
L 250.371642 129.585417 
L 251.364348 138.064807 
L 252.357054 170.209344 
L 253.34976 136.21811 
L 254.342466 134.780809 
L 255.335172 165.155002 
L 256.327878 139.856456 
L 257.320584 137.475736 
L 258.313289 162.000583 
L 259.305995 136.200206 
L 260.298701 140.260446 
L 261.291407 162.335683 
L 262.284113 136.316549 
L 263.276819 141.123377 
L 264.269525 160.866469 
L 265.262231 138.801184 
L 266.254937 140.118742 
L 267.247643 159.839306 
L 268.240349 144.368589 
L 269.233055 138.316773 
L 270.225761 155.234336 
L 271.218466 151.004953 
L 272.211172 138.743766 
L 273.203878 149.403758 
L 274.196584 155.910722 
L 275.18929 135.438497 
L 276.181996 149.814344 
L 277.174702 162.064413 
L 278.167408 127.937498 
L 279.160114 146.209996 
L 280.15282 175.247685 
L 281.145526 118.886887 
L 282.138232 141.277157 
L 283.130938 183.878049 
L 284.123643 115.756421 
L 285.116349 137.823608 
L 286.109055 184.732326 
L 287.101761 122.608131 
L 288.094467 130.134893 
L 289.087173 188.012309 
L 290.079879 123.652981 
L 291.072585 128.350105 
L 292.065291 188.430985 
L 293.057997 123.092756 
L 294.050703 130.381447 
L 295.043409 186.977778 
L 296.036115 122.906705 
L 297.02882 133.15065 
L 298.021526 183.087742 
L 299.014232 124.413163 
L 300.006938 137.212513 
L 300.999644 174.838314 
L 301.99235 129.351343 
L 302.985056 139.060991 
L 303.977762 168.851139 
L 304.970468 133.392397 
L 305.963174 139.608191 
L 306.95588 160.592349 
L 307.948586 142.802999 
L 308.941292 140.496669 
L 309.933998 153.711275 
L 310.926703 145.996972 
L 311.919409 144.802659 
L 312.912115 148.559464 
L 313.904821 143.65476 
L 314.897527 149.912047 
L 315.890233 148.050511 
L 316.882939 140.669133 
L 317.875645 149.891377 
L 318.868351 152.447067 
L 319.861057 138.467366 
L 320.853763 150.344131 
L 321.846469 150.650843 
L 322.839175 138.011442 
L 323.83188 154.024644 
L 324.824586 147.101914 
L 325.817292 137.57006 
L 326.809998 157.144308 
L 328.79541 134.774695 
L 329.788116 163.081827 
L 331.773528 127.626146 
L 332.766234 168.024138 
L 333.75894 148.631543 
L 334.751646 121.847708 
L 335.744352 169.350447 
L 336.737057 152.493285 
L 337.729763 118.890765 
L 338.722469 165.310141 
L 339.715175 157.329283 
L 340.707881 120.846136 
L 341.700587 161.600806 
L 342.693293 155.152021 
L 343.685999 123.213745 
L 344.678705 164.316359 
L 345.671411 153.710587 
L 346.664117 120.771354 
L 347.656823 164.488654 
L 348.649529 158.163869 
L 349.642234 118.407032 
L 350.63494 165.561874 
L 351.627646 160.71333 
L 352.620352 113.96402 
L 353.613058 166.339966 
L 354.605764 162.935181 
L 355.59847 115.796927 
L 356.591176 164.154841 
L 357.583882 158.238261 
L 358.576588 124.85445 
L 359.569294 159.972665 
L 360.562 154.885314 
L 361.554706 122.961624 
L 362.547411 158.743398 
L 363.540117 153.333269 
L 364.532823 125.513738 
L 365.525529 161.749674 
L 366.518235 153.294731 
L 367.510941 129.600365 
L 368.503647 154.794838 
L 369.496353 163.696235 
L 370.489059 125.099733 
L 371.481765 149.336617 
L 372.474471 168.472339 
L 373.467177 121.166989 
L 375.452589 171.951387 
L 376.445294 122.951781 
L 378.430706 169.338722 
L 379.423412 128.970627 
L 380.416118 144.608314 
L 381.408824 166.346465 
L 382.40153 129.873264 
L 383.394236 141.678115 
L 384.386942 167.082734 
L 385.379648 134.636584 
L 386.372354 141.876063 
L 387.36506 169.029083 
L 388.357766 124.931932 
L 390.343177 167.961896 
L 391.335883 124.705877 
L 392.328589 152.216871 
L 393.321295 157.124268 
L 394.314001 132.424785 
L 395.306707 161.854369 
L 396.299413 146.815023 
L 397.292119 123.925996 
L 398.284825 171.785125 
L 399.277531 148.802061 
L 400.270237 121.809278 
L 401.262943 163.658156 
L 402.255648 152.147614 
L 403.248354 130.388641 
L 404.24106 158.776361 
L 405.233766 145.151725 
L 406.226472 135.758065 
L 407.219178 161.906249 
L 408.211884 142.499571 
L 409.20459 137.061087 
L 410.197296 155.076607 
L 411.190002 150.953387 
L 412.182708 140.139178 
L 413.175414 141.14319 
L 414.16812 159.488691 
L 415.160825 142.317266 
L 416.153531 142.777409 
L 417.146237 148.984568 
L 418.138943 150.379265 
L 419.131649 141.845326 
L 420.124355 153.137815 
L 421.117061 140.739683 
L 422.109767 149.955072 
L 423.102473 150.672909 
L 424.095179 135.898661 
L 425.087885 162.519299 
L 426.080591 132.554565 
L 427.073297 145.21678 
L 428.066002 171.491296 
L 429.058708 119.705953 
L 430.051414 141.580091 
L 431.04412 193.041517 
L 432.036826 110.625147 
L 433.029532 119.938882 
L 434.022238 221.702763 
L 435.014944 107.627335 
L 436.00765 98.604663 
L 437.000356 237.730697 
L 437.993062 111.933594 
L 438.985768 91.589255 
L 439.978474 231.126524 
L 440.97118 119.072888 
L 441.963885 95.667118 
L 442.956591 218.860284 
L 443.949297 133.437273 
L 444.942003 84.481713 
L 445.934709 216.015524 
L 447.920121 81.357836 
L 448.912827 194.551836 
L 449.905533 171.618418 
L 450.898239 80.203255 
L 451.890945 174.196864 
L 452.883651 192.864657 
L 453.876357 78.791017 
L 454.869062 160.065414 
L 455.861768 205.481991 
L 456.854474 82.236565 
L 457.84718 143.332261 
L 458.839886 217.117419 
L 459.832592 86.694136 
L 460.825298 118.977332 
L 461.818004 238.719573 
L 462.81071 100.589855 
L 463.803416 88.685495 
L 464.796122 246.24 
L 465.788828 123.009554 
L 466.781534 72.42016 
L 467.774239 233.530467 
L 468.766945 133.988968 
L 469.759651 83.767336 
L 470.752357 217.613298 
L 471.745063 134.810788 
L 472.737769 96.62897 
L 473.730475 206.924207 
L 474.723181 130.88689 
L 475.715887 109.159675 
L 476.708593 203.787689 
L 477.701299 115.379841 
L 478.694005 129.997133 
L 479.686711 200.078846 
L 480.679416 102.873746 
L 481.672122 143.587526 
L 482.664828 190.636857 
L 483.657534 104.817875 
L 484.65024 154.003667 
L 485.642946 172.710244 
L 486.635652 111.396569 
L 487.628358 164.686794 
L 488.621064 159.879497 
L 489.61377 107.159904 
L 490.606476 189.937944 
L 491.599182 133.119748 
L 492.591888 114.559591 
L 493.584593 214.465262 
L 494.577299 93.878967 
L 495.570005 133.965851 
L 496.562711 218.568432 
L 497.555417 83.858694 
L 498.548123 135.043095 
L 499.540829 214.853727 
L 500.533535 103.418282 
L 501.526241 121.262404 
L 502.518947 208.355166 
L 503.511653 121.404279 
L 504.504359 108.177259 
L 505.497065 216.913653 
L 506.489771 112.262374 
L 507.482476 103.590614 
L 508.475182 235.074887 
L 509.467888 98.011697 
L 510.460594 111.683878 
L 511.4533 225.844512 
L 512.446006 105.988547 
L 513.438712 125.21361 
L 514.431418 198.733404 
L 515.424124 111.560961 
L 517.409536 178.290898 
L 518.402242 107.813801 
L 519.394948 163.8609 
L 520.387653 170.86467 
L 521.380359 85.814745 
L 522.373065 197.778176 
L 523.365771 164.802285 
L 524.358477 69.72679 
L 525.351183 202.753227 
L 526.343889 177.912817 
L 527.336595 61.346398 
L 528.329301 199.828471 
L 529.322007 182.667664 
L 530.314713 48.962597 
L 531.307419 214.859645 
L 532.300125 178.84251 
L 533.29283 44.64 
L 534.285536 218.008476 
L 535.278242 176.467093 
L 536.270948 47.222827 
L 537.263654 226.041226 
L 539.249066 75.448704 
L 540.241772 211.35591 
L 541.234478 134.764633 
L 542.227184 120.991349 
L 543.21989 172.982582 
L 544.212596 128.395224 
L 545.205302 164.648181 
L 546.198007 141.005466 
L 547.190713 124.451012 
L 548.183419 188.530458 
L 549.176125 126.443984 
L 550.168831 123.451817 
L 551.161537 193.042773 
L 552.154243 119.714302 
L 553.146949 137.083579 
L 554.139655 181.235561 
L 555.132361 115.767735 
L 556.125067 152.304799 
L 557.117773 177.150049 
L 558.110479 100.963317 
L 559.103184 164.304308 
L 560.09589 176.682444 
L 561.088596 94.486464 
L 562.081302 181.498145 
L 563.074008 150.580813 
L 564.066714 106.171767 
L 565.05942 198.278481 
L 566.052126 129.151339 
L 567.044832 107.686488 
L 568.037538 209.352645 
L 569.030244 118.728555 
L 570.02295 117.874622 
L 571.015656 206.937635 
L 572.008362 104.178479 
L 573.001067 140.992836 
L 573.993773 199.487585 
L 574.986479 85.331362 
L 575.979185 160.669921 
L 576.971891 193.987563 
L 577.964597 84.944238 
L 578.957303 156.518726 
L 579.950009 193.084922 
L 580.942715 106.136663 
L 581.935421 139.811119 
L 582.928127 189.030278 
L 583.920833 119.677093 
L 584.913539 133.202789 
L 585.906244 183.424502 
L 586.89895 128.662541 
L 587.891656 132.375085 
L 588.884362 169.517197 
L 589.877068 142.6672 
L 590.869774 138.928364 
L 591.86248 154.116602 
L 592.855186 145.707663 
L 593.847892 143.983931 
L 594.840598 155.205489 
L 595.833304 138.744178 
L 596.82601 144.911773 
L 597.818716 159.753854 
L 598.811421 130.238263 
L 599.804127 152.925067 
L 600.796833 160.864281 
L 601.789539 115.701633 
L 602.782245 170.003624 
L 603.774951 153.55754 
L 604.767657 122.974853 
L 605.760363 160.876535 
L 606.753069 153.925167 
L 607.745775 134.246455 
L 608.738481 144.087551 
L 609.731187 162.745728 
L 610.723893 134.28805 
L 611.716598 136.561805 
L 612.709304 177.752543 
L 613.70201 124.752572 
L 614.694716 134.074448 
L 615.687422 183.947571 
L 616.680128 124.177238 
L 617.672834 133.533915 
L 618.66554 179.865305 
L 619.658246 127.245948 
L 621.643658 161.1718 
L 622.636364 139.58894 
L 622.636364 139.58894 
" clip-path="url(#pa3618b34d5)" style="fill: none; stroke: #1f77b4; stroke-width: 1.5; stroke-linecap: square"/>
   </g>
   <g id="patch_3">
    <path d="M 90 256.32 
L 90 34.56 
" style="fill: none; stroke: #000000; stroke-width: 0.8; stroke-linejoin: miter; stroke-linecap: square"/>
   </g>
   <g id="patch_4">
    <path d="M 648 256.32 
L 648 34.56 
" style="fill: none; stroke: #000000; stroke-width: 0.8; stroke-linejoin: miter; stroke-linecap: square"/>
   </g>
   <g id="patch_5">
    <path d="M 90 256.32 
L 648 256.32 
" style="fill: none; stroke: #000000; stroke-width: 0.8; stroke-linejoin: miter; stroke-linecap: square"/>
   </g>
   <g id="patch_6">
    <path d="M 90 34.56 
L 648 34.56 
" style="fill: none; stroke: #000000; stroke-width: 0.8; stroke-linejoin: miter; stroke-linecap: square"/>
   </g>
   <g id="text_13">
    <!-- K is now at 3 -->
    <g transform="translate(330.418125 28.56) scale(0.12 -0.12)">
     <defs>
      <path id="DejaVuSans-4b" d="M 628 4666 
L 1259 4666 
L 1259 2694 
L 3353 4666 
L 4166 4666 
L 1850 2491 
L 4331 0 
L 3500 0 
L 1259 2247 
L 1259 0 
L 628 0 
L 628 4666 
z
" transform="scale(0.015625)"/>
      <path id="DejaVuSans-20" transform="scale(0.015625)"/>
      <path id="DejaVuSans-69" d="M 603 3500 
L 1178 3500 
L 1178 0 
L 603 0 
L 603 3500 
z
M 603 4863 
L 1178 4863 
L 1178 4134 
L 603 4134 
L 603 4863 
z
" transform="scale(0.015625)"/>
      <path id="DejaVuSans-73" d="M 2834 3397 
L 2834 2853 
Q 2591 2978 2328 3040 
Q 2066 3103 1784 3103 
Q 1356 3103 1142 2972 
Q 928 2841 928 2578 
Q 928 2378 1081 2264 
Q 1234 2150 1697 2047 
L 1894 2003 
Q 2506 1872 2764 1633 
Q 3022 1394 3022 966 
Q 3022 478 2636 193 
Q 2250 -91 1575 -91 
Q 1294 -91 989 -36 
Q 684 19 347 128 
L 347 722 
Q 666 556 975 473 
Q 1284 391 1588 391 
Q 1994 391 2212 530 
Q 2431 669 2431 922 
Q 2431 1156 2273 1281 
Q 2116 1406 1581 1522 
L 1381 1569 
Q 847 1681 609 1914 
Q 372 2147 372 2553 
Q 372 3047 722 3315 
Q 1072 3584 1716 3584 
Q 2034 3584 2315 3537 
Q 2597 3491 2834 3397 
z
" transform="scale(0.015625)"/>
      <path id="DejaVuSans-6e" d="M 3513 2113 
L 3513 0 
L 2938 0 
L 2938 2094 
Q 2938 2591 2744 2837 
Q 2550 3084 2163 3084 
Q 1697 3084 1428 2787 
Q 1159 2491 1159 1978 
L 1159 0 
L 581 0 
L 581 3500 
L 1159 3500 
L 1159 2956 
Q 1366 3272 1645 3428 
Q 1925 3584 2291 3584 
Q 2894 3584 3203 3211 
Q 3513 2838 3513 2113 
z
" transform="scale(0.015625)"/>
      <path id="DejaVuSans-6f" d="M 1959 3097 
Q 1497 3097 1228 2736 
Q 959 2375 959 1747 
Q 959 1119 1226 758 
Q 1494 397 1959 397 
Q 2419 397 2687 759 
Q 2956 1122 2956 1747 
Q 2956 2369 2687 2733 
Q 2419 3097 1959 3097 
z
M 1959 3584 
Q 2709 3584 3137 3096 
Q 3566 2609 3566 1747 
Q 3566 888 3137 398 
Q 2709 -91 1959 -91 
Q 1206 -91 779 398 
Q 353 888 353 1747 
Q 353 2609 779 3096 
Q 1206 3584 1959 3584 
z
" transform="scale(0.015625)"/>
      <path id="DejaVuSans-77" d="M 269 3500 
L 844 3500 
L 1563 769 
L 2278 3500 
L 2956 3500 
L 3675 769 
L 4391 3500 
L 4966 3500 
L 4050 0 
L 3372 0 
L 2619 2869 
L 1863 0 
L 1184 0 
L 269 3500 
z
" transform="scale(0.015625)"/>
      <path id="DejaVuSans-61" d="M 2194 1759 
Q 1497 1759 1228 1600 
Q 959 1441 959 1056 
Q 959 750 1161 570 
Q 1363 391 1709 391 
Q 2188 391 2477 730 
Q 2766 1069 2766 1631 
L 2766 1759 
L 2194 1759 
z
M 3341 1997 
L 3341 0 
L 2766 0 
L 2766 531 
Q 2569 213 2275 61 
Q 1981 -91 1556 -91 
Q 1019 -91 701 211 
Q 384 513 384 1019 
Q 384 1609 779 1909 
Q 1175 2209 1959 2209 
L 2766 2209 
L 2766 2266 
Q 2766 2663 2505 2880 
Q 2244 3097 1772 3097 
Q 1472 3097 1187 3025 
Q 903 2953 641 2809 
L 641 3341 
Q 956 3463 1253 3523 
Q 1550 3584 1831 3584 
Q 2591 3584 2966 3190 
Q 3341 2797 3341 1997 
z
" transform="scale(0.015625)"/>
      <path id="DejaVuSans-74" d="M 1172 4494 
L 1172 3500 
L 2356 3500 
L 2356 3053 
L 1172 3053 
L 1172 1153 
Q 1172 725 1289 603 
Q 1406 481 1766 481 
L 2356 481 
L 2356 0 
L 1766 0 
Q 1100 0 847 248 
Q 594 497 594 1153 
L 594 3053 
L 172 3053 
L 172 3500 
L 594 3500 
L 594 4494 
L 1172 4494 
z
" transform="scale(0.015625)"/>
     </defs>
     <use xlink:href="#DejaVuSans-4b"/>
     <use xlink:href="#DejaVuSans-20" x="65.576172"/>
     <use xlink:href="#DejaVuSans-69" x="97.363281"/>
     <use xlink:href="#DejaVuSans-73" x="125.146484"/>
     <use xlink:href="#DejaVuSans-20" x="177.246094"/>
     <use xlink:href="#DejaVuSans-6e" x="209.033203"/>
     <use xlink:href="#DejaVuSans-6f" x="272.412109"/>
     <use xlink:href="#DejaVuSans-77" x="333.59375"/>
     <use xlink:href="#DejaVuSans-20" x="415.380859"/>
     <use xlink:href="#DejaVuSans-61" x="447.167969"/>
     <use xlink:href="#DejaVuSans-74" x="508.447266"/>
     <use xlink:href="#DejaVuSans-20" x="547.65625"/>
     <use xlink:href="#DejaVuSans-33" x="579.443359"/>
    </g>
   </g>
  </g>
 </g>
 <defs>
  <clipPath id="pa3618b34d5">
   <rect x="90" y="34.56" width="558" height="221.76"/>
  </clipPath>
 </defs>
</svg>
