<?xml version="1.0" encoding="utf-8" standalone="no"?>
<!DOCTYPE svg PUBLIC "-//W3C//DTD SVG 1.1//EN"
  "http://www.w3.org/Graphics/SVG/1.1/DTD/svg11.dtd">
<svg xmlns:xlink="http://www.w3.org/1999/xlink" width="720pt" height="288pt" viewBox="0 0 720 288" xmlns="http://www.w3.org/2000/svg" version="1.1">
 <metadata>
  <rdf:RDF xmlns:dc="http://purl.org/dc/elements/1.1/" xmlns:cc="http://creativecommons.org/ns#" xmlns:rdf="http://www.w3.org/1999/02/22-rdf-syntax-ns#">
   <cc:Work>
    <dc:type rdf:resource="http://purl.org/dc/dcmitype/StillImage"/>
    <dc:date>2023-12-05T23:15:44.991807</dc:date>
    <dc:format>image/svg+xml</dc:format>
    <dc:creator>
     <cc:Agent>
      <dc:title>Matplotlib v3.6.2, https://matplotlib.org/</dc:title>
     </cc:Agent>
    </dc:creator>
   </cc:Work>
  </rdf:RDF>
 </metadata>
 <defs>
  <style type="text/css">*{stroke-linejoin: round; stroke-linecap: butt}</style>
 </defs>
 <g id="figure_1">
  <g id="patch_1">
   <path d="M 0 288 
L 720 288 
L 720 0 
L 0 0 
z
" style="fill: #ffffff"/>
  </g>
  <g id="axes_1">
   <g id="patch_2">
    <path d="M 90 256.32 
L 648 256.32 
L 648 34.56 
L 90 34.56 
z
" style="fill: #ffffff"/>
   </g>
   <g id="matplotlib.axis_1">
    <g id="xtick_1">
     <g id="line2d_1">
      <defs>
       <path id="m670c3dd76e" d="M 0 0 
L 0 3.5 
" style="stroke: #000000; stroke-width: 0.8"/>
      </defs>
      <g>
       <use xlink:href="#m670c3dd76e" x="115.363636" y="256.32" style="stroke: #000000; stroke-width: 0.8"/>
      </g>
     </g>
     <g id="text_1">
      <!-- 0 -->
      <g transform="translate(112.182386 270.918437) scale(0.1 -0.1)">
       <defs>
        <path id="DejaVuSans-30" d="M 2034 4250 
Q 1547 4250 1301 3770 
Q 1056 3291 1056 2328 
Q 1056 1369 1301 889 
Q 1547 409 2034 409 
Q 2525 409 2770 889 
Q 3016 1369 3016 2328 
Q 3016 3291 2770 3770 
Q 2525 4250 2034 4250 
z
M 2034 4750 
Q 2819 4750 3233 4129 
Q 3647 3509 3647 2328 
Q 3647 1150 3233 529 
Q 2819 -91 2034 -91 
Q 1250 -91 836 529 
Q 422 1150 422 2328 
Q 422 3509 836 4129 
Q 1250 4750 2034 4750 
z
" transform="scale(0.015625)"/>
       </defs>
       <use xlink:href="#DejaVuSans-30"/>
      </g>
     </g>
    </g>
    <g id="xtick_2">
     <g id="line2d_2">
      <g>
       <use xlink:href="#m670c3dd76e" x="214.634229" y="256.32" style="stroke: #000000; stroke-width: 0.8"/>
      </g>
     </g>
     <g id="text_2">
      <!-- 100 -->
      <g transform="translate(205.090479 270.918437) scale(0.1 -0.1)">
       <defs>
        <path id="DejaVuSans-31" d="M 794 531 
L 1825 531 
L 1825 4091 
L 703 3866 
L 703 4441 
L 1819 4666 
L 2450 4666 
L 2450 531 
L 3481 531 
L 3481 0 
L 794 0 
L 794 531 
z
" transform="scale(0.015625)"/>
       </defs>
       <use xlink:href="#DejaVuSans-31"/>
       <use xlink:href="#DejaVuSans-30" x="63.623047"/>
       <use xlink:href="#DejaVuSans-30" x="127.246094"/>
      </g>
     </g>
    </g>
    <g id="xtick_3">
     <g id="line2d_3">
      <g>
       <use xlink:href="#m670c3dd76e" x="313.904821" y="256.32" style="stroke: #000000; stroke-width: 0.8"/>
      </g>
     </g>
     <g id="text_3">
      <!-- 200 -->
      <g transform="translate(304.361071 270.918437) scale(0.1 -0.1)">
       <defs>
        <path id="DejaVuSans-32" d="M 1228 531 
L 3431 531 
L 3431 0 
L 469 0 
L 469 531 
Q 828 903 1448 1529 
Q 2069 2156 2228 2338 
Q 2531 2678 2651 2914 
Q 2772 3150 2772 3378 
Q 2772 3750 2511 3984 
Q 2250 4219 1831 4219 
Q 1534 4219 1204 4116 
Q 875 4013 500 3803 
L 500 4441 
Q 881 4594 1212 4672 
Q 1544 4750 1819 4750 
Q 2544 4750 2975 4387 
Q 3406 4025 3406 3419 
Q 3406 3131 3298 2873 
Q 3191 2616 2906 2266 
Q 2828 2175 2409 1742 
Q 1991 1309 1228 531 
z
" transform="scale(0.015625)"/>
       </defs>
       <use xlink:href="#DejaVuSans-32"/>
       <use xlink:href="#DejaVuSans-30" x="63.623047"/>
       <use xlink:href="#DejaVuSans-30" x="127.246094"/>
      </g>
     </g>
    </g>
    <g id="xtick_4">
     <g id="line2d_4">
      <g>
       <use xlink:href="#m670c3dd76e" x="413.175414" y="256.32" style="stroke: #000000; stroke-width: 0.8"/>
      </g>
     </g>
     <g id="text_4">
      <!-- 300 -->
      <g transform="translate(403.631664 270.918437) scale(0.1 -0.1)">
       <defs>
        <path id="DejaVuSans-33" d="M 2597 2516 
Q 3050 2419 3304 2112 
Q 3559 1806 3559 1356 
Q 3559 666 3084 287 
Q 2609 -91 1734 -91 
Q 1441 -91 1130 -33 
Q 819 25 488 141 
L 488 750 
Q 750 597 1062 519 
Q 1375 441 1716 441 
Q 2309 441 2620 675 
Q 2931 909 2931 1356 
Q 2931 1769 2642 2001 
Q 2353 2234 1838 2234 
L 1294 2234 
L 1294 2753 
L 1863 2753 
Q 2328 2753 2575 2939 
Q 2822 3125 2822 3475 
Q 2822 3834 2567 4026 
Q 2313 4219 1838 4219 
Q 1578 4219 1281 4162 
Q 984 4106 628 3988 
L 628 4550 
Q 988 4650 1302 4700 
Q 1616 4750 1894 4750 
Q 2613 4750 3031 4423 
Q 3450 4097 3450 3541 
Q 3450 3153 3228 2886 
Q 3006 2619 2597 2516 
z
" transform="scale(0.015625)"/>
       </defs>
       <use xlink:href="#DejaVuSans-33"/>
       <use xlink:href="#DejaVuSans-30" x="63.623047"/>
       <use xlink:href="#DejaVuSans-30" x="127.246094"/>
      </g>
     </g>
    </g>
    <g id="xtick_5">
     <g id="line2d_5">
      <g>
       <use xlink:href="#m670c3dd76e" x="512.446006" y="256.32" style="stroke: #000000; stroke-width: 0.8"/>
      </g>
     </g>
     <g id="text_5">
      <!-- 400 -->
      <g transform="translate(502.902256 270.918437) scale(0.1 -0.1)">
       <defs>
        <path id="DejaVuSans-34" d="M 2419 4116 
L 825 1625 
L 2419 1625 
L 2419 4116 
z
M 2253 4666 
L 3047 4666 
L 3047 1625 
L 3713 1625 
L 3713 1100 
L 3047 1100 
L 3047 0 
L 2419 0 
L 2419 1100 
L 313 1100 
L 313 1709 
L 2253 4666 
z
" transform="scale(0.015625)"/>
       </defs>
       <use xlink:href="#DejaVuSans-34"/>
       <use xlink:href="#DejaVuSans-30" x="63.623047"/>
       <use xlink:href="#DejaVuSans-30" x="127.246094"/>
      </g>
     </g>
    </g>
    <g id="xtick_6">
     <g id="line2d_6">
      <g>
       <use xlink:href="#m670c3dd76e" x="611.716598" y="256.32" style="stroke: #000000; stroke-width: 0.8"/>
      </g>
     </g>
     <g id="text_6">
      <!-- 500 -->
      <g transform="translate(602.172848 270.918437) scale(0.1 -0.1)">
       <defs>
        <path id="DejaVuSans-35" d="M 691 4666 
L 3169 4666 
L 3169 4134 
L 1269 4134 
L 1269 2991 
Q 1406 3038 1543 3061 
Q 1681 3084 1819 3084 
Q 2600 3084 3056 2656 
Q 3513 2228 3513 1497 
Q 3513 744 3044 326 
Q 2575 -91 1722 -91 
Q 1428 -91 1123 -41 
Q 819 9 494 109 
L 494 744 
Q 775 591 1075 516 
Q 1375 441 1709 441 
Q 2250 441 2565 725 
Q 2881 1009 2881 1497 
Q 2881 1984 2565 2268 
Q 2250 2553 1709 2553 
Q 1456 2553 1204 2497 
Q 953 2441 691 2322 
L 691 4666 
z
" transform="scale(0.015625)"/>
       </defs>
       <use xlink:href="#DejaVuSans-35"/>
       <use xlink:href="#DejaVuSans-30" x="63.623047"/>
       <use xlink:href="#DejaVuSans-30" x="127.246094"/>
      </g>
     </g>
    </g>
   </g>
   <g id="matplotlib.axis_2">
    <g id="ytick_1">
     <g id="line2d_7">
      <defs>
       <path id="ma1da40de1e" d="M 0 0 
L -3.5 0 
" style="stroke: #000000; stroke-width: 0.8"/>
      </defs>
      <g>
       <use xlink:href="#ma1da40de1e" x="90" y="211.237312" style="stroke: #000000; stroke-width: 0.8"/>
      </g>
     </g>
     <g id="text_7">
      <!-- −0.00082 -->
      <g transform="translate(33.267187 215.036531) scale(0.1 -0.1)">
       <defs>
        <path id="DejaVuSans-2212" d="M 678 2272 
L 4684 2272 
L 4684 1741 
L 678 1741 
L 678 2272 
z
" transform="scale(0.015625)"/>
        <path id="DejaVuSans-2e" d="M 684 794 
L 1344 794 
L 1344 0 
L 684 0 
L 684 794 
z
" transform="scale(0.015625)"/>
        <path id="DejaVuSans-38" d="M 2034 2216 
Q 1584 2216 1326 1975 
Q 1069 1734 1069 1313 
Q 1069 891 1326 650 
Q 1584 409 2034 409 
Q 2484 409 2743 651 
Q 3003 894 3003 1313 
Q 3003 1734 2745 1975 
Q 2488 2216 2034 2216 
z
M 1403 2484 
Q 997 2584 770 2862 
Q 544 3141 544 3541 
Q 544 4100 942 4425 
Q 1341 4750 2034 4750 
Q 2731 4750 3128 4425 
Q 3525 4100 3525 3541 
Q 3525 3141 3298 2862 
Q 3072 2584 2669 2484 
Q 3125 2378 3379 2068 
Q 3634 1759 3634 1313 
Q 3634 634 3220 271 
Q 2806 -91 2034 -91 
Q 1263 -91 848 271 
Q 434 634 434 1313 
Q 434 1759 690 2068 
Q 947 2378 1403 2484 
z
M 1172 3481 
Q 1172 3119 1398 2916 
Q 1625 2713 2034 2713 
Q 2441 2713 2670 2916 
Q 2900 3119 2900 3481 
Q 2900 3844 2670 4047 
Q 2441 4250 2034 4250 
Q 1625 4250 1398 4047 
Q 1172 3844 1172 3481 
z
" transform="scale(0.015625)"/>
       </defs>
       <use xlink:href="#DejaVuSans-2212"/>
       <use xlink:href="#DejaVuSans-30" x="83.789062"/>
       <use xlink:href="#DejaVuSans-2e" x="147.412109"/>
       <use xlink:href="#DejaVuSans-30" x="179.199219"/>
       <use xlink:href="#DejaVuSans-30" x="242.822266"/>
       <use xlink:href="#DejaVuSans-30" x="306.445312"/>
       <use xlink:href="#DejaVuSans-38" x="370.068359"/>
       <use xlink:href="#DejaVuSans-32" x="433.691406"/>
      </g>
     </g>
    </g>
    <g id="ytick_2">
     <g id="line2d_8">
      <g>
       <use xlink:href="#ma1da40de1e" x="90" y="165.854453" style="stroke: #000000; stroke-width: 0.8"/>
      </g>
     </g>
     <g id="text_8">
      <!-- −0.00080 -->
      <g transform="translate(33.267187 169.653671) scale(0.1 -0.1)">
       <use xlink:href="#DejaVuSans-2212"/>
       <use xlink:href="#DejaVuSans-30" x="83.789062"/>
       <use xlink:href="#DejaVuSans-2e" x="147.412109"/>
       <use xlink:href="#DejaVuSans-30" x="179.199219"/>
       <use xlink:href="#DejaVuSans-30" x="242.822266"/>
       <use xlink:href="#DejaVuSans-30" x="306.445312"/>
       <use xlink:href="#DejaVuSans-38" x="370.068359"/>
       <use xlink:href="#DejaVuSans-30" x="433.691406"/>
      </g>
     </g>
    </g>
    <g id="ytick_3">
     <g id="line2d_9">
      <g>
       <use xlink:href="#ma1da40de1e" x="90" y="120.471593" style="stroke: #000000; stroke-width: 0.8"/>
      </g>
     </g>
     <g id="text_9">
      <!-- −0.00078 -->
      <g transform="translate(33.267187 124.270812) scale(0.1 -0.1)">
       <defs>
        <path id="DejaVuSans-37" d="M 525 4666 
L 3525 4666 
L 3525 4397 
L 1831 0 
L 1172 0 
L 2766 4134 
L 525 4134 
L 525 4666 
z
" transform="scale(0.015625)"/>
       </defs>
       <use xlink:href="#DejaVuSans-2212"/>
       <use xlink:href="#DejaVuSans-30" x="83.789062"/>
       <use xlink:href="#DejaVuSans-2e" x="147.412109"/>
       <use xlink:href="#DejaVuSans-30" x="179.199219"/>
       <use xlink:href="#DejaVuSans-30" x="242.822266"/>
       <use xlink:href="#DejaVuSans-30" x="306.445312"/>
       <use xlink:href="#DejaVuSans-37" x="370.068359"/>
       <use xlink:href="#DejaVuSans-38" x="433.691406"/>
      </g>
     </g>
    </g>
    <g id="ytick_4">
     <g id="line2d_10">
      <g>
       <use xlink:href="#ma1da40de1e" x="90" y="75.088734" style="stroke: #000000; stroke-width: 0.8"/>
      </g>
     </g>
     <g id="text_10">
      <!-- −0.00076 -->
      <g transform="translate(33.267187 78.887953) scale(0.1 -0.1)">
       <defs>
        <path id="DejaVuSans-36" d="M 2113 2584 
Q 1688 2584 1439 2293 
Q 1191 2003 1191 1497 
Q 1191 994 1439 701 
Q 1688 409 2113 409 
Q 2538 409 2786 701 
Q 3034 994 3034 1497 
Q 3034 2003 2786 2293 
Q 2538 2584 2113 2584 
z
M 3366 4563 
L 3366 3988 
Q 3128 4100 2886 4159 
Q 2644 4219 2406 4219 
Q 1781 4219 1451 3797 
Q 1122 3375 1075 2522 
Q 1259 2794 1537 2939 
Q 1816 3084 2150 3084 
Q 2853 3084 3261 2657 
Q 3669 2231 3669 1497 
Q 3669 778 3244 343 
Q 2819 -91 2113 -91 
Q 1303 -91 875 529 
Q 447 1150 447 2328 
Q 447 3434 972 4092 
Q 1497 4750 2381 4750 
Q 2619 4750 2861 4703 
Q 3103 4656 3366 4563 
z
" transform="scale(0.015625)"/>
       </defs>
       <use xlink:href="#DejaVuSans-2212"/>
       <use xlink:href="#DejaVuSans-30" x="83.789062"/>
       <use xlink:href="#DejaVuSans-2e" x="147.412109"/>
       <use xlink:href="#DejaVuSans-30" x="179.199219"/>
       <use xlink:href="#DejaVuSans-30" x="242.822266"/>
       <use xlink:href="#DejaVuSans-30" x="306.445312"/>
       <use xlink:href="#DejaVuSans-37" x="370.068359"/>
       <use xlink:href="#DejaVuSans-36" x="433.691406"/>
      </g>
     </g>
    </g>
   </g>
   <g id="line2d_11">
    <path d="M 115.363636 146.420646 
L 117.349048 146.423603 
L 120.327166 146.834433 
L 127.276107 148.962843 
L 128.268813 148.905911 
L 129.261519 148.349097 
L 131.246931 146.761133 
L 133.232343 144.358364 
L 134.225049 143.429307 
L 136.210461 142.964201 
L 137.203167 143.08336 
L 138.195873 144.072611 
L 139.188579 145.304975 
L 140.181284 146.304238 
L 141.17399 147.04171 
L 142.166696 147.224851 
L 143.159402 146.528153 
L 144.152108 144.387526 
L 145.144814 141.200714 
L 146.13752 137.108625 
L 148.122932 127.10826 
L 150.108344 119.61608 
L 154.079167 107.234341 
L 156.064579 98.211384 
L 157.057285 94.814739 
L 158.049991 92.59423 
L 159.042697 91.610038 
L 160.035403 92.269981 
L 161.028109 93.878721 
L 162.020815 96.137537 
L 164.006227 99.992945 
L 164.998933 101.809539 
L 165.991638 103.300119 
L 166.984344 104.533834 
L 167.97705 105.062049 
L 168.969756 104.923897 
L 169.962462 104.08687 
L 170.955168 102.672822 
L 172.94058 97.875681 
L 174.925992 92.840404 
L 175.918698 90.670222 
L 176.911404 89.003727 
L 177.90411 88.287392 
L 178.896816 88.103327 
L 179.889521 88.10731 
L 180.882227 88.421088 
L 181.874933 88.562175 
L 182.867639 88.970581 
L 185.845757 88.952129 
L 186.838463 89.227576 
L 188.823875 90.585617 
L 189.816581 92.312956 
L 190.809287 94.76776 
L 191.801993 97.884101 
L 195.772816 111.729881 
L 199.74364 123.654192 
L 202.721758 132.315423 
L 204.70717 137.092221 
L 205.699875 138.998714 
L 206.692581 140.370218 
L 207.685287 140.70887 
L 208.677993 139.517141 
L 209.670699 136.779145 
L 210.663405 132.562772 
L 211.656111 127.329521 
L 215.626935 104.158321 
L 216.619641 99.654118 
L 217.612347 95.89807 
L 218.605052 92.944031 
L 219.597758 90.711635 
L 220.590464 89.216735 
L 221.58317 88.2072 
L 222.575876 87.648604 
L 223.568582 87.36153 
L 224.561288 87.767212 
L 225.553994 89.03392 
L 226.5467 90.547262 
L 227.539406 92.511802 
L 228.532112 95.414648 
L 229.524818 99.091443 
L 230.517524 103.695356 
L 231.510229 108.835652 
L 233.495641 120.785835 
L 236.473759 138.969492 
L 238.459171 148.645215 
L 239.451877 152.536278 
L 240.444583 155.796158 
L 241.437289 158.117674 
L 242.429995 159.164606 
L 243.422701 158.780045 
L 244.415407 156.849997 
L 245.408112 153.382294 
L 246.400818 148.432237 
L 247.393524 142.09171 
L 250.371642 120.508342 
L 251.364348 114.463968 
L 254.342466 99.05301 
L 255.335172 94.935253 
L 256.327878 91.570659 
L 257.320584 88.667973 
L 258.313289 86.772668 
L 259.305995 86.343808 
L 260.298701 87.491917 
L 261.291407 89.840359 
L 262.284113 93.195981 
L 263.276819 97.533591 
L 264.269525 102.563862 
L 266.254937 114.233314 
L 268.240349 125.68271 
L 269.233055 130.650085 
L 270.225761 135.003403 
L 271.218466 138.385597 
L 272.211172 140.668172 
L 273.203878 141.848709 
L 274.196584 142.425114 
L 275.18929 142.134209 
L 276.181996 140.698245 
L 277.174702 138.178817 
L 278.167408 135.207957 
L 279.160114 131.56874 
L 281.145526 122.641265 
L 283.130938 113.929136 
L 284.123643 109.73704 
L 286.109055 103.087082 
L 290.079879 91.645395 
L 292.065291 86.501968 
L 295.043409 79.103056 
L 298.021526 70.653456 
L 301.99235 58.020372 
L 303.977762 52.360366 
L 304.970468 49.982337 
L 305.963174 48.437688 
L 306.95588 47.464605 
L 309.933998 45.706769 
L 312.912115 44.64 
L 313.904821 44.939206 
L 315.890233 46.292235 
L 316.882939 47.538496 
L 321.846469 55.379372 
L 322.839175 57.474363 
L 323.83188 59.874941 
L 324.824586 62.593448 
L 326.809998 69.175389 
L 330.780822 84.082707 
L 333.75894 94.535439 
L 338.722469 110.747067 
L 341.700587 121.570214 
L 344.678705 134.894189 
L 346.664117 144.035844 
L 348.649529 153.213377 
L 349.642234 156.881678 
L 350.63494 159.582291 
L 351.627646 161.355839 
L 352.620352 162.288232 
L 353.613058 162.493635 
L 354.605764 161.450152 
L 355.59847 158.89204 
L 356.591176 155.442631 
L 357.583882 150.825783 
L 358.576588 145.246651 
L 360.562 132.339122 
L 361.554706 127.257251 
L 362.547411 124.104227 
L 363.540117 122.956502 
L 364.532823 123.217791 
L 365.525529 124.195417 
L 366.518235 124.758467 
L 367.510941 125.172845 
L 368.503647 124.33629 
L 369.496353 122.487987 
L 372.474471 113.251105 
L 373.467177 111.071712 
L 374.459883 110.18467 
L 375.452589 110.477761 
L 376.445294 111.345971 
L 378.430706 114.674548 
L 379.423412 116.313446 
L 381.408824 118.529488 
L 382.40153 119.997902 
L 385.379648 126.045929 
L 386.372354 126.405469 
L 387.36506 126.324347 
L 388.357766 125.958402 
L 390.343177 125.917199 
L 391.335883 125.378401 
L 393.321295 124.66634 
L 394.314001 123.550662 
L 395.306707 120.869285 
L 396.299413 117.749169 
L 399.277531 109.668512 
L 400.270237 106.838803 
L 401.262943 104.977005 
L 404.24106 101.41319 
L 405.233766 101.328168 
L 406.226472 102.052798 
L 408.211884 103.833282 
L 409.20459 105.495377 
L 412.182708 112.179681 
L 413.175414 114.939418 
L 414.16812 118.608565 
L 416.153531 124.747154 
L 417.146237 127.946858 
L 418.138943 131.816292 
L 420.124355 137.828948 
L 425.087885 150.905133 
L 430.051414 166.050056 
L 431.04412 167.530362 
L 432.036826 168.694973 
L 433.029532 169.676443 
L 434.022238 170.140938 
L 435.014944 169.58459 
L 437.000356 168.195859 
L 437.993062 166.081844 
L 438.985768 163.600005 
L 441.963885 157.428845 
L 442.956591 154.828484 
L 443.949297 152.84682 
L 444.942003 151.19128 
L 445.934709 150.09353 
L 446.927415 148.383441 
L 447.920121 147.377325 
L 448.912827 147.06333 
L 449.905533 147.50761 
L 450.898239 148.415637 
L 451.890945 149.7862 
L 452.883651 151.630703 
L 457.84718 159.642368 
L 458.839886 161.667881 
L 459.832592 164.962062 
L 461.818004 173.175646 
L 463.803416 178.847648 
L 464.796122 181.399064 
L 465.788828 182.377959 
L 466.781534 182.510515 
L 469.759651 186.489336 
L 472.737769 189.596001 
L 473.730475 190.594384 
L 474.723181 191.921254 
L 475.715887 192.873386 
L 478.694005 196.837102 
L 479.686711 197.433555 
L 480.679416 197.696011 
L 482.664828 199.349553 
L 483.657534 199.837072 
L 484.65024 200.700977 
L 485.642946 201.94655 
L 487.628358 205.713493 
L 490.606476 213.578542 
L 491.599182 215.976051 
L 493.584593 218.668289 
L 494.577299 219.289905 
L 497.555417 225.213592 
L 499.540829 232.854593 
L 500.533535 236.064429 
L 501.526241 238.7206 
L 503.511653 242.994338 
L 505.497065 243.643152 
L 507.482476 245.238523 
L 508.475182 246.24 
L 509.467888 245.851125 
L 510.460594 245.866109 
L 511.4533 245.283203 
L 512.446006 242.900865 
L 516.41683 228.668732 
L 517.409536 226.219334 
L 518.402242 225.250805 
L 519.394948 224.5326 
L 520.387653 225.21629 
L 522.373065 227.559572 
L 523.365771 227.131753 
L 525.351183 226.992756 
L 526.343889 225.866707 
L 527.336595 223.562987 
L 528.329301 220.75382 
L 531.307419 215.104711 
L 534.285536 208.050571 
L 535.278242 205.954761 
L 536.270948 202.782956 
L 537.263654 200.494449 
L 538.25636 197.704718 
L 539.249066 195.936401 
L 540.241772 195.464612 
L 541.234478 194.752757 
L 542.227184 194.840803 
L 543.21989 195.513294 
L 545.205302 198.231787 
L 546.198007 198.6723 
L 547.190713 199.481708 
L 548.183419 199.950351 
L 550.168831 198.57486 
L 551.161537 198.270191 
L 552.154243 197.063894 
L 554.139655 193.984533 
L 555.132361 192.371091 
L 558.110479 185.119924 
L 559.103184 183.849237 
L 560.09589 183.090984 
L 561.088596 181.538137 
L 562.081302 181.063206 
L 563.074008 181.123813 
L 564.066714 181.669301 
L 566.052126 181.870512 
L 567.044832 182.814904 
L 568.037538 184.40511 
L 569.030244 185.420604 
L 570.02295 186.110499 
L 571.015656 187.177048 
L 572.008362 187.982117 
L 573.001067 188.458275 
L 573.993773 189.079063 
L 574.986479 190.559394 
L 576.971891 196.667895 
L 577.964597 200.837215 
L 579.950009 211.839191 
L 580.942715 216.277837 
L 582.928127 222.616849 
L 583.920833 225.004567 
L 584.913539 226.652542 
L 585.906244 227.952049 
L 587.891656 229.360645 
L 588.884362 230.177747 
L 589.877068 230.3237 
L 590.869774 229.25373 
L 591.86248 227.515185 
L 592.855186 226.007124 
L 593.847892 223.720844 
L 596.82601 215.571063 
L 597.818716 213.688213 
L 599.804127 210.729678 
L 600.796833 210.26778 
L 601.789539 210.02438 
L 602.782245 210.7552 
L 605.760363 209.099254 
L 606.753069 208.358808 
L 607.745775 208.101524 
L 608.738481 208.020129 
L 609.731187 209.007527 
L 611.716598 212.859173 
L 614.694716 219.540728 
L 615.687422 222.021184 
L 618.66554 228.135925 
L 619.658246 229.249522 
L 620.650952 230.139352 
L 621.643658 230.142279 
L 622.636364 230.617539 
L 622.636364 230.617539 
" clip-path="url(#p4cd64ca660)" style="fill: none; stroke: #1f77b4; stroke-width: 1.5; stroke-linecap: square"/>
   </g>
   <g id="patch_3">
    <path d="M 90 256.32 
L 90 34.56 
" style="fill: none; stroke: #000000; stroke-width: 0.8; stroke-linejoin: miter; stroke-linecap: square"/>
   </g>
   <g id="patch_4">
    <path d="M 648 256.32 
L 648 34.56 
" style="fill: none; stroke: #000000; stroke-width: 0.8; stroke-linejoin: miter; stroke-linecap: square"/>
   </g>
   <g id="patch_5">
    <path d="M 90 256.32 
L 648 256.32 
" style="fill: none; stroke: #000000; stroke-width: 0.8; stroke-linejoin: miter; stroke-linecap: square"/>
   </g>
   <g id="patch_6">
    <path d="M 90 34.56 
L 648 34.56 
" style="fill: none; stroke: #000000; stroke-width: 0.8; stroke-linejoin: miter; stroke-linecap: square"/>
   </g>
   <g id="text_11">
    <!-- K is now at 1 -->
    <g transform="translate(330.418125 28.56) scale(0.12 -0.12)">
     <defs>
      <path id="DejaVuSans-4b" d="M 628 4666 
L 1259 4666 
L 1259 2694 
L 3353 4666 
L 4166 4666 
L 1850 2491 
L 4331 0 
L 3500 0 
L 1259 2247 
L 1259 0 
L 628 0 
L 628 4666 
z
" transform="scale(0.015625)"/>
      <path id="DejaVuSans-20" transform="scale(0.015625)"/>
      <path id="DejaVuSans-69" d="M 603 3500 
L 1178 3500 
L 1178 0 
L 603 0 
L 603 3500 
z
M 603 4863 
L 1178 4863 
L 1178 4134 
L 603 4134 
L 603 4863 
z
" transform="scale(0.015625)"/>
      <path id="DejaVuSans-73" d="M 2834 3397 
L 2834 2853 
Q 2591 2978 2328 3040 
Q 2066 3103 1784 3103 
Q 1356 3103 1142 2972 
Q 928 2841 928 2578 
Q 928 2378 1081 2264 
Q 1234 2150 1697 2047 
L 1894 2003 
Q 2506 1872 2764 1633 
Q 3022 1394 3022 966 
Q 3022 478 2636 193 
Q 2250 -91 1575 -91 
Q 1294 -91 989 -36 
Q 684 19 347 128 
L 347 722 
Q 666 556 975 473 
Q 1284 391 1588 391 
Q 1994 391 2212 530 
Q 2431 669 2431 922 
Q 2431 1156 2273 1281 
Q 2116 1406 1581 1522 
L 1381 1569 
Q 847 1681 609 1914 
Q 372 2147 372 2553 
Q 372 3047 722 3315 
Q 1072 3584 1716 3584 
Q 2034 3584 2315 3537 
Q 2597 3491 2834 3397 
z
" transform="scale(0.015625)"/>
      <path id="DejaVuSans-6e" d="M 3513 2113 
L 3513 0 
L 2938 0 
L 2938 2094 
Q 2938 2591 2744 2837 
Q 2550 3084 2163 3084 
Q 1697 3084 1428 2787 
Q 1159 2491 1159 1978 
L 1159 0 
L 581 0 
L 581 3500 
L 1159 3500 
L 1159 2956 
Q 1366 3272 1645 3428 
Q 1925 3584 2291 3584 
Q 2894 3584 3203 3211 
Q 3513 2838 3513 2113 
z
" transform="scale(0.015625)"/>
      <path id="DejaVuSans-6f" d="M 1959 3097 
Q 1497 3097 1228 2736 
Q 959 2375 959 1747 
Q 959 1119 1226 758 
Q 1494 397 1959 397 
Q 2419 397 2687 759 
Q 2956 1122 2956 1747 
Q 2956 2369 2687 2733 
Q 2419 3097 1959 3097 
z
M 1959 3584 
Q 2709 3584 3137 3096 
Q 3566 2609 3566 1747 
Q 3566 888 3137 398 
Q 2709 -91 1959 -91 
Q 1206 -91 779 398 
Q 353 888 353 1747 
Q 353 2609 779 3096 
Q 1206 3584 1959 3584 
z
" transform="scale(0.015625)"/>
      <path id="DejaVuSans-77" d="M 269 3500 
L 844 3500 
L 1563 769 
L 2278 3500 
L 2956 3500 
L 3675 769 
L 4391 3500 
L 4966 3500 
L 4050 0 
L 3372 0 
L 2619 2869 
L 1863 0 
L 1184 0 
L 269 3500 
z
" transform="scale(0.015625)"/>
      <path id="DejaVuSans-61" d="M 2194 1759 
Q 1497 1759 1228 1600 
Q 959 1441 959 1056 
Q 959 750 1161 570 
Q 1363 391 1709 391 
Q 2188 391 2477 730 
Q 2766 1069 2766 1631 
L 2766 1759 
L 2194 1759 
z
M 3341 1997 
L 3341 0 
L 2766 0 
L 2766 531 
Q 2569 213 2275 61 
Q 1981 -91 1556 -91 
Q 1019 -91 701 211 
Q 384 513 384 1019 
Q 384 1609 779 1909 
Q 1175 2209 1959 2209 
L 2766 2209 
L 2766 2266 
Q 2766 2663 2505 2880 
Q 2244 3097 1772 3097 
Q 1472 3097 1187 3025 
Q 903 2953 641 2809 
L 641 3341 
Q 956 3463 1253 3523 
Q 1550 3584 1831 3584 
Q 2591 3584 2966 3190 
Q 3341 2797 3341 1997 
z
" transform="scale(0.015625)"/>
      <path id="DejaVuSans-74" d="M 1172 4494 
L 1172 3500 
L 2356 3500 
L 2356 3053 
L 1172 3053 
L 1172 1153 
Q 1172 725 1289 603 
Q 1406 481 1766 481 
L 2356 481 
L 2356 0 
L 1766 0 
Q 1100 0 847 248 
Q 594 497 594 1153 
L 594 3053 
L 172 3053 
L 172 3500 
L 594 3500 
L 594 4494 
L 1172 4494 
z
" transform="scale(0.015625)"/>
     </defs>
     <use xlink:href="#DejaVuSans-4b"/>
     <use xlink:href="#DejaVuSans-20" x="65.576172"/>
     <use xlink:href="#DejaVuSans-69" x="97.363281"/>
     <use xlink:href="#DejaVuSans-73" x="125.146484"/>
     <use xlink:href="#DejaVuSans-20" x="177.246094"/>
     <use xlink:href="#DejaVuSans-6e" x="209.033203"/>
     <use xlink:href="#DejaVuSans-6f" x="272.412109"/>
     <use xlink:href="#DejaVuSans-77" x="333.59375"/>
     <use xlink:href="#DejaVuSans-20" x="415.380859"/>
     <use xlink:href="#DejaVuSans-61" x="447.167969"/>
     <use xlink:href="#DejaVuSans-74" x="508.447266"/>
     <use xlink:href="#DejaVuSans-20" x="547.65625"/>
     <use xlink:href="#DejaVuSans-31" x="579.443359"/>
    </g>
   </g>
  </g>
 </g>
 <defs>
  <clipPath id="p4cd64ca660">
   <rect x="90" y="34.56" width="558" height="221.76"/>
  </clipPath>
 </defs>
</svg>
