<?xml version="1.0" encoding="utf-8" standalone="no"?>
<!DOCTYPE svg PUBLIC "-//W3C//DTD SVG 1.1//EN"
  "http://www.w3.org/Graphics/SVG/1.1/DTD/svg11.dtd">
<svg xmlns:xlink="http://www.w3.org/1999/xlink" width="720pt" height="288pt" viewBox="0 0 720 288" xmlns="http://www.w3.org/2000/svg" version="1.1">
 <metadata>
  <rdf:RDF xmlns:dc="http://purl.org/dc/elements/1.1/" xmlns:cc="http://creativecommons.org/ns#" xmlns:rdf="http://www.w3.org/1999/02/22-rdf-syntax-ns#">
   <cc:Work>
    <dc:type rdf:resource="http://purl.org/dc/dcmitype/StillImage"/>
    <dc:date>2023-12-05T23:15:45.111281</dc:date>
    <dc:format>image/svg+xml</dc:format>
    <dc:creator>
     <cc:Agent>
      <dc:title>Matplotlib v3.6.2, https://matplotlib.org/</dc:title>
     </cc:Agent>
    </dc:creator>
   </cc:Work>
  </rdf:RDF>
 </metadata>
 <defs>
  <style type="text/css">*{stroke-linejoin: round; stroke-linecap: butt}</style>
 </defs>
 <g id="figure_1">
  <g id="patch_1">
   <path d="M 0 288 
L 720 288 
L 720 0 
L 0 0 
z
" style="fill: #ffffff"/>
  </g>
  <g id="axes_1">
   <g id="patch_2">
    <path d="M 90 256.32 
L 648 256.32 
L 648 34.56 
L 90 34.56 
z
" style="fill: #ffffff"/>
   </g>
   <g id="matplotlib.axis_1">
    <g id="xtick_1">
     <g id="line2d_1">
      <defs>
       <path id="mcdab124ad7" d="M 0 0 
L 0 3.5 
" style="stroke: #000000; stroke-width: 0.8"/>
      </defs>
      <g>
       <use xlink:href="#mcdab124ad7" x="115.363636" y="256.32" style="stroke: #000000; stroke-width: 0.8"/>
      </g>
     </g>
     <g id="text_1">
      <!-- 0 -->
      <g transform="translate(112.182386 270.918437) scale(0.1 -0.1)">
       <defs>
        <path id="DejaVuSans-30" d="M 2034 4250 
Q 1547 4250 1301 3770 
Q 1056 3291 1056 2328 
Q 1056 1369 1301 889 
Q 1547 409 2034 409 
Q 2525 409 2770 889 
Q 3016 1369 3016 2328 
Q 3016 3291 2770 3770 
Q 2525 4250 2034 4250 
z
M 2034 4750 
Q 2819 4750 3233 4129 
Q 3647 3509 3647 2328 
Q 3647 1150 3233 529 
Q 2819 -91 2034 -91 
Q 1250 -91 836 529 
Q 422 1150 422 2328 
Q 422 3509 836 4129 
Q 1250 4750 2034 4750 
z
" transform="scale(0.015625)"/>
       </defs>
       <use xlink:href="#DejaVuSans-30"/>
      </g>
     </g>
    </g>
    <g id="xtick_2">
     <g id="line2d_2">
      <g>
       <use xlink:href="#mcdab124ad7" x="214.634229" y="256.32" style="stroke: #000000; stroke-width: 0.8"/>
      </g>
     </g>
     <g id="text_2">
      <!-- 100 -->
      <g transform="translate(205.090479 270.918437) scale(0.1 -0.1)">
       <defs>
        <path id="DejaVuSans-31" d="M 794 531 
L 1825 531 
L 1825 4091 
L 703 3866 
L 703 4441 
L 1819 4666 
L 2450 4666 
L 2450 531 
L 3481 531 
L 3481 0 
L 794 0 
L 794 531 
z
" transform="scale(0.015625)"/>
       </defs>
       <use xlink:href="#DejaVuSans-31"/>
       <use xlink:href="#DejaVuSans-30" x="63.623047"/>
       <use xlink:href="#DejaVuSans-30" x="127.246094"/>
      </g>
     </g>
    </g>
    <g id="xtick_3">
     <g id="line2d_3">
      <g>
       <use xlink:href="#mcdab124ad7" x="313.904821" y="256.32" style="stroke: #000000; stroke-width: 0.8"/>
      </g>
     </g>
     <g id="text_3">
      <!-- 200 -->
      <g transform="translate(304.361071 270.918437) scale(0.1 -0.1)">
       <defs>
        <path id="DejaVuSans-32" d="M 1228 531 
L 3431 531 
L 3431 0 
L 469 0 
L 469 531 
Q 828 903 1448 1529 
Q 2069 2156 2228 2338 
Q 2531 2678 2651 2914 
Q 2772 3150 2772 3378 
Q 2772 3750 2511 3984 
Q 2250 4219 1831 4219 
Q 1534 4219 1204 4116 
Q 875 4013 500 3803 
L 500 4441 
Q 881 4594 1212 4672 
Q 1544 4750 1819 4750 
Q 2544 4750 2975 4387 
Q 3406 4025 3406 3419 
Q 3406 3131 3298 2873 
Q 3191 2616 2906 2266 
Q 2828 2175 2409 1742 
Q 1991 1309 1228 531 
z
" transform="scale(0.015625)"/>
       </defs>
       <use xlink:href="#DejaVuSans-32"/>
       <use xlink:href="#DejaVuSans-30" x="63.623047"/>
       <use xlink:href="#DejaVuSans-30" x="127.246094"/>
      </g>
     </g>
    </g>
    <g id="xtick_4">
     <g id="line2d_4">
      <g>
       <use xlink:href="#mcdab124ad7" x="413.175414" y="256.32" style="stroke: #000000; stroke-width: 0.8"/>
      </g>
     </g>
     <g id="text_4">
      <!-- 300 -->
      <g transform="translate(403.631664 270.918437) scale(0.1 -0.1)">
       <defs>
        <path id="DejaVuSans-33" d="M 2597 2516 
Q 3050 2419 3304 2112 
Q 3559 1806 3559 1356 
Q 3559 666 3084 287 
Q 2609 -91 1734 -91 
Q 1441 -91 1130 -33 
Q 819 25 488 141 
L 488 750 
Q 750 597 1062 519 
Q 1375 441 1716 441 
Q 2309 441 2620 675 
Q 2931 909 2931 1356 
Q 2931 1769 2642 2001 
Q 2353 2234 1838 2234 
L 1294 2234 
L 1294 2753 
L 1863 2753 
Q 2328 2753 2575 2939 
Q 2822 3125 2822 3475 
Q 2822 3834 2567 4026 
Q 2313 4219 1838 4219 
Q 1578 4219 1281 4162 
Q 984 4106 628 3988 
L 628 4550 
Q 988 4650 1302 4700 
Q 1616 4750 1894 4750 
Q 2613 4750 3031 4423 
Q 3450 4097 3450 3541 
Q 3450 3153 3228 2886 
Q 3006 2619 2597 2516 
z
" transform="scale(0.015625)"/>
       </defs>
       <use xlink:href="#DejaVuSans-33"/>
       <use xlink:href="#DejaVuSans-30" x="63.623047"/>
       <use xlink:href="#DejaVuSans-30" x="127.246094"/>
      </g>
     </g>
    </g>
    <g id="xtick_5">
     <g id="line2d_5">
      <g>
       <use xlink:href="#mcdab124ad7" x="512.446006" y="256.32" style="stroke: #000000; stroke-width: 0.8"/>
      </g>
     </g>
     <g id="text_5">
      <!-- 400 -->
      <g transform="translate(502.902256 270.918437) scale(0.1 -0.1)">
       <defs>
        <path id="DejaVuSans-34" d="M 2419 4116 
L 825 1625 
L 2419 1625 
L 2419 4116 
z
M 2253 4666 
L 3047 4666 
L 3047 1625 
L 3713 1625 
L 3713 1100 
L 3047 1100 
L 3047 0 
L 2419 0 
L 2419 1100 
L 313 1100 
L 313 1709 
L 2253 4666 
z
" transform="scale(0.015625)"/>
       </defs>
       <use xlink:href="#DejaVuSans-34"/>
       <use xlink:href="#DejaVuSans-30" x="63.623047"/>
       <use xlink:href="#DejaVuSans-30" x="127.246094"/>
      </g>
     </g>
    </g>
    <g id="xtick_6">
     <g id="line2d_6">
      <g>
       <use xlink:href="#mcdab124ad7" x="611.716598" y="256.32" style="stroke: #000000; stroke-width: 0.8"/>
      </g>
     </g>
     <g id="text_6">
      <!-- 500 -->
      <g transform="translate(602.172848 270.918437) scale(0.1 -0.1)">
       <defs>
        <path id="DejaVuSans-35" d="M 691 4666 
L 3169 4666 
L 3169 4134 
L 1269 4134 
L 1269 2991 
Q 1406 3038 1543 3061 
Q 1681 3084 1819 3084 
Q 2600 3084 3056 2656 
Q 3513 2228 3513 1497 
Q 3513 744 3044 326 
Q 2575 -91 1722 -91 
Q 1428 -91 1123 -41 
Q 819 9 494 109 
L 494 744 
Q 775 591 1075 516 
Q 1375 441 1709 441 
Q 2250 441 2565 725 
Q 2881 1009 2881 1497 
Q 2881 1984 2565 2268 
Q 2250 2553 1709 2553 
Q 1456 2553 1204 2497 
Q 953 2441 691 2322 
L 691 4666 
z
" transform="scale(0.015625)"/>
       </defs>
       <use xlink:href="#DejaVuSans-35"/>
       <use xlink:href="#DejaVuSans-30" x="63.623047"/>
       <use xlink:href="#DejaVuSans-30" x="127.246094"/>
      </g>
     </g>
    </g>
   </g>
   <g id="matplotlib.axis_2">
    <g id="ytick_1">
     <g id="line2d_7">
      <defs>
       <path id="me6b38c2276" d="M 0 0 
L -3.5 0 
" style="stroke: #000000; stroke-width: 0.8"/>
      </defs>
      <g>
       <use xlink:href="#me6b38c2276" x="90" y="230.545219" style="stroke: #000000; stroke-width: 0.8"/>
      </g>
     </g>
     <g id="text_7">
      <!-- −2 -->
      <g transform="translate(68.257812 234.344437) scale(0.1 -0.1)">
       <defs>
        <path id="DejaVuSans-2212" d="M 678 2272 
L 4684 2272 
L 4684 1741 
L 678 1741 
L 678 2272 
z
" transform="scale(0.015625)"/>
       </defs>
       <use xlink:href="#DejaVuSans-2212"/>
       <use xlink:href="#DejaVuSans-32" x="83.789062"/>
      </g>
     </g>
    </g>
    <g id="ytick_2">
     <g id="line2d_8">
      <g>
       <use xlink:href="#me6b38c2276" x="90" y="187.302793" style="stroke: #000000; stroke-width: 0.8"/>
      </g>
     </g>
     <g id="text_8">
      <!-- −1 -->
      <g transform="translate(68.257812 191.102012) scale(0.1 -0.1)">
       <use xlink:href="#DejaVuSans-2212"/>
       <use xlink:href="#DejaVuSans-31" x="83.789062"/>
      </g>
     </g>
    </g>
    <g id="ytick_3">
     <g id="line2d_9">
      <g>
       <use xlink:href="#me6b38c2276" x="90" y="144.060368" style="stroke: #000000; stroke-width: 0.8"/>
      </g>
     </g>
     <g id="text_9">
      <!-- 0 -->
      <g transform="translate(76.6375 147.859586) scale(0.1 -0.1)">
       <use xlink:href="#DejaVuSans-30"/>
      </g>
     </g>
    </g>
    <g id="ytick_4">
     <g id="line2d_10">
      <g>
       <use xlink:href="#me6b38c2276" x="90" y="100.817942" style="stroke: #000000; stroke-width: 0.8"/>
      </g>
     </g>
     <g id="text_10">
      <!-- 1 -->
      <g transform="translate(76.6375 104.617161) scale(0.1 -0.1)">
       <use xlink:href="#DejaVuSans-31"/>
      </g>
     </g>
    </g>
    <g id="ytick_5">
     <g id="line2d_11">
      <g>
       <use xlink:href="#me6b38c2276" x="90" y="57.575517" style="stroke: #000000; stroke-width: 0.8"/>
      </g>
     </g>
     <g id="text_11">
      <!-- 2 -->
      <g transform="translate(76.6375 61.374736) scale(0.1 -0.1)">
       <use xlink:href="#DejaVuSans-32"/>
      </g>
     </g>
    </g>
    <g id="text_12">
     <!-- 1e−5 -->
     <g transform="translate(90 31.56) scale(0.1 -0.1)">
      <defs>
       <path id="DejaVuSans-65" d="M 3597 1894 
L 3597 1613 
L 953 1613 
Q 991 1019 1311 708 
Q 1631 397 2203 397 
Q 2534 397 2845 478 
Q 3156 559 3463 722 
L 3463 178 
Q 3153 47 2828 -22 
Q 2503 -91 2169 -91 
Q 1331 -91 842 396 
Q 353 884 353 1716 
Q 353 2575 817 3079 
Q 1281 3584 2069 3584 
Q 2775 3584 3186 3129 
Q 3597 2675 3597 1894 
z
M 3022 2063 
Q 3016 2534 2758 2815 
Q 2500 3097 2075 3097 
Q 1594 3097 1305 2825 
Q 1016 2553 972 2059 
L 3022 2063 
z
" transform="scale(0.015625)"/>
      </defs>
      <use xlink:href="#DejaVuSans-31"/>
      <use xlink:href="#DejaVuSans-65" x="63.623047"/>
      <use xlink:href="#DejaVuSans-2212" x="125.146484"/>
      <use xlink:href="#DejaVuSans-35" x="208.935547"/>
     </g>
    </g>
   </g>
   <g id="line2d_12">
    <path d="M 115.363636 144.51375 
L 116.356342 145.837742 
L 117.349048 145.422864 
L 118.341754 142.259734 
L 119.33446 138.386271 
L 120.327166 139.584209 
L 121.319872 147.408663 
L 122.312578 153.450644 
L 123.305284 148.937498 
L 124.29799 138.655821 
L 125.290696 131.877021 
L 126.283402 138.629089 
L 127.276107 151.210417 
L 128.268813 157.425485 
L 129.261519 150.677172 
L 130.254225 139.697156 
L 131.246931 135.346982 
L 132.239637 138.557611 
L 133.232343 146.343589 
L 134.225049 152.819088 
L 135.217755 151.129314 
L 136.210461 137.675409 
L 137.203167 127.43921 
L 138.195873 135.087799 
L 139.188579 150.389858 
L 140.181284 156.13534 
L 141.17399 149.589355 
L 142.166696 140.497627 
L 143.159402 139.123511 
L 144.152108 145.829942 
L 145.144814 156.090799 
L 146.13752 158.91931 
L 147.130226 148.288332 
L 148.122932 135.468285 
L 149.115638 131.402887 
L 150.108344 130.566173 
L 151.10105 133.590573 
L 152.093756 144.293189 
L 153.086461 162.739364 
L 154.079167 169.456694 
L 155.071873 155.601704 
L 156.064579 134.3168 
L 157.057285 122.685173 
L 158.049991 122.570594 
L 159.042697 130.785017 
L 160.035403 146.233192 
L 161.028109 159.44092 
L 162.020815 161.190053 
L 163.013521 147.121693 
L 164.006227 131.300344 
L 164.998933 128.572334 
L 165.991638 139.805665 
L 166.984344 154.869447 
L 167.97705 159.71379 
L 168.969756 152.8147 
L 169.962462 142.330371 
L 170.955168 136.756161 
L 171.947874 137.29908 
L 173.933286 152.671273 
L 174.925992 152.382609 
L 176.911404 132.897846 
L 177.90411 131.704558 
L 178.896816 137.539677 
L 180.882227 153.609326 
L 181.874933 156.440519 
L 182.867639 152.029043 
L 183.860345 137.709943 
L 184.853051 126.208174 
L 185.845757 130.936905 
L 186.838463 151.261947 
L 187.831169 167.283427 
L 188.823875 159.140762 
L 189.816581 134.78947 
L 190.809287 114.039493 
L 191.801993 116.905677 
L 193.787404 173.387204 
L 194.78011 178.815305 
L 195.772816 151.546437 
L 196.765522 118.849799 
L 197.758228 110.565695 
L 198.750934 133.465669 
L 199.74364 162.592087 
L 200.736346 172.364282 
L 201.729052 157.257262 
L 202.721758 133.642418 
L 203.714464 120.614352 
L 204.70717 127.668611 
L 205.699875 147.949744 
L 206.692581 164.418585 
L 207.685287 163.843537 
L 208.677993 149.18229 
L 209.670699 137.060295 
L 210.663405 138.451845 
L 211.656111 149.228639 
L 212.648817 154.4671 
L 213.641523 147.027063 
L 214.634229 135.858956 
L 215.626935 131.958183 
L 216.619641 138.230186 
L 217.612347 146.833858 
L 218.605052 149.221741 
L 219.597758 144.254307 
L 220.590464 138.718677 
L 221.58317 138.100287 
L 223.568582 147.876191 
L 224.561288 149.90481 
L 225.553994 145.569944 
L 226.5467 134.329996 
L 227.539406 129.910819 
L 228.532112 142.173055 
L 229.524818 157.961162 
L 230.517524 157.499434 
L 231.510229 136.06973 
L 232.502935 117.157414 
L 233.495641 125.23894 
L 234.488347 155.422911 
L 235.481053 179.50077 
L 236.473759 167.963691 
L 237.466465 128.404748 
L 238.459171 104.806658 
L 239.451877 123.53631 
L 240.444583 168.250422 
L 241.437289 191.340825 
L 242.429995 165.960777 
L 243.422701 118.334597 
L 244.415407 100.830326 
L 245.408112 135.42942 
L 246.400818 187.026538 
L 247.393524 199.19066 
L 248.38623 156.302664 
L 249.378936 99.373147 
L 250.371642 86.543277 
L 251.364348 130.524461 
L 252.357054 182.427091 
L 253.34976 187.796564 
L 255.335172 114.37685 
L 256.327878 114.353413 
L 257.320584 138.560754 
L 258.313289 159.01787 
L 259.305995 158.502211 
L 261.291407 126.5731 
L 262.284113 126.88184 
L 264.269525 155.176214 
L 265.262231 155.262531 
L 267.247643 132.744385 
L 268.240349 133.629243 
L 270.225761 162.022653 
L 271.218466 159.077972 
L 272.211172 141.641208 
L 273.203878 129.411872 
L 274.196584 137.782985 
L 275.18929 154.825288 
L 276.181996 159.171711 
L 277.174702 148.051161 
L 278.167408 138.459578 
L 279.160114 139.171056 
L 280.15282 145.894676 
L 281.145526 149.155692 
L 282.138232 146.978022 
L 283.130938 140.716391 
L 284.123643 135.473809 
L 285.116349 139.561656 
L 286.109055 145.943029 
L 287.101761 148.122183 
L 288.094467 144.648411 
L 289.087173 143.505545 
L 290.079879 144.892412 
L 291.072585 145.574674 
L 292.065291 143.078893 
L 293.057997 138.116285 
L 294.050703 137.706607 
L 295.043409 145.622135 
L 296.036115 155.439369 
L 297.02882 156.643567 
L 298.021526 144.451732 
L 299.014232 128.231158 
L 300.006938 127.30316 
L 300.999644 145.186523 
L 301.99235 165.400412 
L 302.985056 164.546312 
L 304.970468 116.710075 
L 305.963174 119.87873 
L 306.95588 145.828983 
L 307.948586 167.369648 
L 308.941292 163.118305 
L 309.933998 142.389861 
L 310.926703 127.186428 
L 311.919409 129.808033 
L 312.912115 145.916956 
L 313.904821 157.678104 
L 314.897527 151.445589 
L 315.890233 135.275477 
L 316.882939 131.018875 
L 318.868351 154.630583 
L 319.861057 151.944217 
L 320.853763 141.444332 
L 321.846469 137.014013 
L 322.839175 141.227562 
L 323.83188 146.316305 
L 324.824586 144.888918 
L 325.817292 139.764426 
L 326.809998 138.568702 
L 328.79541 151.634359 
L 329.788116 148.384768 
L 330.780822 139.981706 
L 331.773528 137.839662 
L 333.75894 149.697421 
L 334.751646 148.96428 
L 335.744352 143.105539 
L 336.737057 138.114375 
L 337.729763 141.424251 
L 338.722469 148.97681 
L 339.715175 148.274536 
L 340.707881 138.110399 
L 341.700587 134.804385 
L 342.693293 146.10272 
L 343.685999 156.02181 
L 344.678705 148.181942 
L 345.671411 131.460066 
L 346.664117 129.23382 
L 348.649529 161.363026 
L 349.642234 157.642127 
L 350.63494 139.541997 
L 351.627646 130.601628 
L 352.620352 142.917856 
L 353.613058 161.188265 
L 354.605764 159.009761 
L 355.59847 137.603114 
L 356.591176 127.674575 
L 357.583882 143.541182 
L 358.576588 168.114886 
L 359.569294 170.122122 
L 360.562 145.958653 
L 361.554706 116.735908 
L 362.547411 107.359933 
L 363.540117 122.686754 
L 364.532823 147.070848 
L 365.525529 163.472221 
L 366.518235 165.370798 
L 367.510941 160.316321 
L 368.503647 146.412698 
L 369.496353 129.80797 
L 370.489059 122.830007 
L 371.481765 138.433627 
L 372.474471 166.547629 
L 373.467177 176.451969 
L 374.459883 148.864185 
L 375.452589 101.45993 
L 376.445294 82.275752 
L 377.438 125.699332 
L 378.430706 199.674643 
L 379.423412 229.199434 
L 380.416118 173.541897 
L 381.408824 80.679677 
L 382.40153 44.64 
L 383.394236 106.722697 
L 384.386942 207.672996 
L 385.379648 246.24 
L 386.372354 183.570146 
L 387.36506 89.793595 
L 388.357766 57.716791 
L 389.350471 112.273639 
L 390.343177 187.087747 
L 391.335883 207.466765 
L 392.328589 168.25257 
L 393.321295 116.657246 
L 394.314001 98.864465 
L 395.306707 123.077837 
L 396.299413 168.49852 
L 397.292119 193.969672 
L 398.284825 168.566723 
L 399.277531 110.213653 
L 400.270237 85.870306 
L 401.262943 127.294137 
L 402.255648 187.007353 
L 403.248354 194.829218 
L 405.233766 97.313349 
L 406.226472 100.570093 
L 407.219178 145.487247 
L 408.211884 183.813922 
L 409.20459 182.352167 
L 411.190002 102.650808 
L 412.182708 104.773533 
L 414.16812 187.648494 
L 415.160825 175.218692 
L 416.153531 130.762114 
L 417.146237 104.680168 
L 418.138943 124.901494 
L 419.131649 159.659557 
L 420.124355 175.098192 
L 421.117061 157.955441 
L 422.109767 132.334095 
L 423.102473 123.591466 
L 424.095179 133.863946 
L 425.087885 153.546579 
L 426.080591 158.177639 
L 427.073297 144.188865 
L 428.066002 128.528892 
L 429.058708 136.171273 
L 430.051414 156.349545 
L 431.04412 161.005499 
L 432.036826 149.649935 
L 433.029532 135.720597 
L 434.022238 130.5 
L 435.014944 137.263365 
L 436.00765 155.093802 
L 437.000356 165.563578 
L 437.993062 149.952412 
L 438.985768 130.468423 
L 439.978474 131.671649 
L 440.97118 145.356717 
L 441.963885 152.426337 
L 442.956591 143.088465 
L 443.949297 138.504576 
L 445.934709 154.696288 
L 446.927415 143.493449 
L 447.920121 129.532559 
L 448.912827 131.168506 
L 449.905533 147.597837 
L 450.898239 158.689071 
L 451.890945 150.985539 
L 452.883651 132.691393 
L 453.876357 123.553955 
L 454.869062 139.774488 
L 455.861768 166.150071 
L 456.854474 173.09597 
L 457.84718 148.797612 
L 458.839886 114.224103 
L 459.832592 107.058187 
L 460.825298 132.888804 
L 461.818004 162.369574 
L 462.81071 172.710461 
L 463.803416 168.51599 
L 464.796122 152.82194 
L 465.788828 124.237539 
L 466.781534 109.010168 
L 467.774239 132.122722 
L 468.766945 165.051185 
L 469.759651 171.338198 
L 471.745063 129.678153 
L 472.737769 127.072763 
L 474.723181 153.165589 
L 475.715887 149.371373 
L 476.708593 142.064506 
L 477.701299 141.876504 
L 478.694005 147.238021 
L 479.686711 147.221347 
L 480.679416 142.907432 
L 481.672122 143.29613 
L 482.664828 143.478707 
L 483.657534 140.474567 
L 484.65024 141.971468 
L 485.642946 147.90336 
L 486.635652 150.330834 
L 488.621064 131.842615 
L 489.61377 131.38708 
L 491.599182 162.939764 
L 492.591888 160.72638 
L 494.577299 131.410092 
L 495.570005 132.59309 
L 496.562711 135.92872 
L 497.555417 139.672331 
L 498.548123 149.620966 
L 499.540829 150.085896 
L 500.533535 142.927545 
L 501.526241 142.07567 
L 502.518947 152.102622 
L 503.511653 158.563363 
L 505.497065 128.538485 
L 506.489771 135.463906 
L 507.482476 151.435207 
L 508.475182 155.320143 
L 509.467888 138.42981 
L 510.460594 133.658383 
L 512.446006 159.546 
L 513.438712 160.434273 
L 514.431418 152.348893 
L 515.424124 138.335423 
L 516.41683 122.240797 
L 517.409536 119.262588 
L 518.402242 137.098669 
L 519.394948 158.432442 
L 520.387653 170.131471 
L 521.380359 155.57925 
L 522.373065 123.067422 
L 523.365771 103.766745 
L 524.358477 136.831247 
L 525.351183 190.309397 
L 526.343889 196.305338 
L 528.329301 87.263988 
L 529.322007 100.39007 
L 530.314713 160.467497 
L 531.307419 199.381156 
L 532.300125 171.567236 
L 533.29283 115.64878 
L 534.285536 97.883828 
L 535.278242 134.584911 
L 536.270948 177.364148 
L 537.263654 185.236136 
L 539.249066 105.354883 
L 540.241772 108.532141 
L 542.227184 172.982287 
L 543.21989 175.402034 
L 544.212596 147.077947 
L 545.205302 113.449768 
L 546.198007 107.180644 
L 548.183419 186.705007 
L 549.176125 183.675745 
L 551.161537 104.573253 
L 552.154243 100.353684 
L 553.146949 139.577092 
L 554.139655 188.584842 
L 555.132361 198.633428 
L 556.125067 152.108449 
L 557.117773 95.73249 
L 558.110479 89.935308 
L 560.09589 186.995481 
L 561.088596 181.746633 
L 562.081302 145.011283 
L 563.074008 115.494404 
L 564.066714 114.967039 
L 565.05942 133.100863 
L 566.052126 156.437979 
L 567.044832 173.712407 
L 568.037538 167.746874 
L 569.030244 133.694574 
L 570.02295 104.924567 
L 571.015656 117.087355 
L 572.008362 158.814706 
L 573.001067 188.962118 
L 573.993773 177.765125 
L 575.979185 94.707755 
L 576.971891 88.495357 
L 577.964597 133.506438 
L 578.957303 196.308933 
L 579.950009 207.53666 
L 580.942715 153.248662 
L 581.935421 91.200108 
L 582.928127 91.290948 
L 583.920833 149.832527 
L 584.913539 201.056298 
L 585.906244 191.079642 
L 586.89895 130.728313 
L 587.891656 88.14129 
L 588.884362 106.896055 
L 589.877068 160.786098 
L 590.869774 192.884754 
L 591.86248 179.76453 
L 593.847892 107.730887 
L 594.840598 105.630987 
L 595.833304 138.819836 
L 596.82601 177.753473 
L 597.818716 185.64569 
L 598.811421 150.397883 
L 599.804127 104.378363 
L 600.796833 96.846809 
L 601.789539 134.157517 
L 602.782245 181.750248 
L 603.774951 185.590356 
L 605.760363 121.029496 
L 606.753069 116.286253 
L 607.745775 136.290007 
L 608.738481 153.789252 
L 609.731187 156.588537 
L 610.723893 146.394002 
L 611.716598 133.729906 
L 612.709304 134.536586 
L 614.694716 157.676551 
L 615.687422 151.386621 
L 616.680128 131.79412 
L 617.672834 126.230143 
L 619.658246 164.738933 
L 620.650952 164.5808 
L 621.643658 142.181407 
L 622.636364 124.860801 
L 622.636364 124.860801 
" clip-path="url(#p988783eecd)" style="fill: none; stroke: #1f77b4; stroke-width: 1.5; stroke-linecap: square"/>
   </g>
   <g id="patch_3">
    <path d="M 90 256.32 
L 90 34.56 
" style="fill: none; stroke: #000000; stroke-width: 0.8; stroke-linejoin: miter; stroke-linecap: square"/>
   </g>
   <g id="patch_4">
    <path d="M 648 256.32 
L 648 34.56 
" style="fill: none; stroke: #000000; stroke-width: 0.8; stroke-linejoin: miter; stroke-linecap: square"/>
   </g>
   <g id="patch_5">
    <path d="M 90 256.32 
L 648 256.32 
" style="fill: none; stroke: #000000; stroke-width: 0.8; stroke-linejoin: miter; stroke-linecap: square"/>
   </g>
   <g id="patch_6">
    <path d="M 90 34.56 
L 648 34.56 
" style="fill: none; stroke: #000000; stroke-width: 0.8; stroke-linejoin: miter; stroke-linecap: square"/>
   </g>
   <g id="text_13">
    <!-- K is now at 2 -->
    <g transform="translate(330.418125 28.56) scale(0.12 -0.12)">
     <defs>
      <path id="DejaVuSans-4b" d="M 628 4666 
L 1259 4666 
L 1259 2694 
L 3353 4666 
L 4166 4666 
L 1850 2491 
L 4331 0 
L 3500 0 
L 1259 2247 
L 1259 0 
L 628 0 
L 628 4666 
z
" transform="scale(0.015625)"/>
      <path id="DejaVuSans-20" transform="scale(0.015625)"/>
      <path id="DejaVuSans-69" d="M 603 3500 
L 1178 3500 
L 1178 0 
L 603 0 
L 603 3500 
z
M 603 4863 
L 1178 4863 
L 1178 4134 
L 603 4134 
L 603 4863 
z
" transform="scale(0.015625)"/>
      <path id="DejaVuSans-73" d="M 2834 3397 
L 2834 2853 
Q 2591 2978 2328 3040 
Q 2066 3103 1784 3103 
Q 1356 3103 1142 2972 
Q 928 2841 928 2578 
Q 928 2378 1081 2264 
Q 1234 2150 1697 2047 
L 1894 2003 
Q 2506 1872 2764 1633 
Q 3022 1394 3022 966 
Q 3022 478 2636 193 
Q 2250 -91 1575 -91 
Q 1294 -91 989 -36 
Q 684 19 347 128 
L 347 722 
Q 666 556 975 473 
Q 1284 391 1588 391 
Q 1994 391 2212 530 
Q 2431 669 2431 922 
Q 2431 1156 2273 1281 
Q 2116 1406 1581 1522 
L 1381 1569 
Q 847 1681 609 1914 
Q 372 2147 372 2553 
Q 372 3047 722 3315 
Q 1072 3584 1716 3584 
Q 2034 3584 2315 3537 
Q 2597 3491 2834 3397 
z
" transform="scale(0.015625)"/>
      <path id="DejaVuSans-6e" d="M 3513 2113 
L 3513 0 
L 2938 0 
L 2938 2094 
Q 2938 2591 2744 2837 
Q 2550 3084 2163 3084 
Q 1697 3084 1428 2787 
Q 1159 2491 1159 1978 
L 1159 0 
L 581 0 
L 581 3500 
L 1159 3500 
L 1159 2956 
Q 1366 3272 1645 3428 
Q 1925 3584 2291 3584 
Q 2894 3584 3203 3211 
Q 3513 2838 3513 2113 
z
" transform="scale(0.015625)"/>
      <path id="DejaVuSans-6f" d="M 1959 3097 
Q 1497 3097 1228 2736 
Q 959 2375 959 1747 
Q 959 1119 1226 758 
Q 1494 397 1959 397 
Q 2419 397 2687 759 
Q 2956 1122 2956 1747 
Q 2956 2369 2687 2733 
Q 2419 3097 1959 3097 
z
M 1959 3584 
Q 2709 3584 3137 3096 
Q 3566 2609 3566 1747 
Q 3566 888 3137 398 
Q 2709 -91 1959 -91 
Q 1206 -91 779 398 
Q 353 888 353 1747 
Q 353 2609 779 3096 
Q 1206 3584 1959 3584 
z
" transform="scale(0.015625)"/>
      <path id="DejaVuSans-77" d="M 269 3500 
L 844 3500 
L 1563 769 
L 2278 3500 
L 2956 3500 
L 3675 769 
L 4391 3500 
L 4966 3500 
L 4050 0 
L 3372 0 
L 2619 2869 
L 1863 0 
L 1184 0 
L 269 3500 
z
" transform="scale(0.015625)"/>
      <path id="DejaVuSans-61" d="M 2194 1759 
Q 1497 1759 1228 1600 
Q 959 1441 959 1056 
Q 959 750 1161 570 
Q 1363 391 1709 391 
Q 2188 391 2477 730 
Q 2766 1069 2766 1631 
L 2766 1759 
L 2194 1759 
z
M 3341 1997 
L 3341 0 
L 2766 0 
L 2766 531 
Q 2569 213 2275 61 
Q 1981 -91 1556 -91 
Q 1019 -91 701 211 
Q 384 513 384 1019 
Q 384 1609 779 1909 
Q 1175 2209 1959 2209 
L 2766 2209 
L 2766 2266 
Q 2766 2663 2505 2880 
Q 2244 3097 1772 3097 
Q 1472 3097 1187 3025 
Q 903 2953 641 2809 
L 641 3341 
Q 956 3463 1253 3523 
Q 1550 3584 1831 3584 
Q 2591 3584 2966 3190 
Q 3341 2797 3341 1997 
z
" transform="scale(0.015625)"/>
      <path id="DejaVuSans-74" d="M 1172 4494 
L 1172 3500 
L 2356 3500 
L 2356 3053 
L 1172 3053 
L 1172 1153 
Q 1172 725 1289 603 
Q 1406 481 1766 481 
L 2356 481 
L 2356 0 
L 1766 0 
Q 1100 0 847 248 
Q 594 497 594 1153 
L 594 3053 
L 172 3053 
L 172 3500 
L 594 3500 
L 594 4494 
L 1172 4494 
z
" transform="scale(0.015625)"/>
     </defs>
     <use xlink:href="#DejaVuSans-4b"/>
     <use xlink:href="#DejaVuSans-20" x="65.576172"/>
     <use xlink:href="#DejaVuSans-69" x="97.363281"/>
     <use xlink:href="#DejaVuSans-73" x="125.146484"/>
     <use xlink:href="#DejaVuSans-20" x="177.246094"/>
     <use xlink:href="#DejaVuSans-6e" x="209.033203"/>
     <use xlink:href="#DejaVuSans-6f" x="272.412109"/>
     <use xlink:href="#DejaVuSans-77" x="333.59375"/>
     <use xlink:href="#DejaVuSans-20" x="415.380859"/>
     <use xlink:href="#DejaVuSans-61" x="447.167969"/>
     <use xlink:href="#DejaVuSans-74" x="508.447266"/>
     <use xlink:href="#DejaVuSans-20" x="547.65625"/>
     <use xlink:href="#DejaVuSans-32" x="579.443359"/>
    </g>
   </g>
  </g>
 </g>
 <defs>
  <clipPath id="p988783eecd">
   <rect x="90" y="34.56" width="558" height="221.76"/>
  </clipPath>
 </defs>
</svg>
