<?xml version="1.0" encoding="utf-8" standalone="no"?>
<!DOCTYPE svg PUBLIC "-//W3C//DTD SVG 1.1//EN"
  "http://www.w3.org/Graphics/SVG/1.1/DTD/svg11.dtd">
<svg xmlns:xlink="http://www.w3.org/1999/xlink" width="720pt" height="288pt" viewBox="0 0 720 288" xmlns="http://www.w3.org/2000/svg" version="1.1">
 <metadata>
  <rdf:RDF xmlns:dc="http://purl.org/dc/elements/1.1/" xmlns:cc="http://creativecommons.org/ns#" xmlns:rdf="http://www.w3.org/1999/02/22-rdf-syntax-ns#">
   <cc:Work>
    <dc:type rdf:resource="http://purl.org/dc/dcmitype/StillImage"/>
    <dc:date>2023-11-20T08:43:13.872903</dc:date>
    <dc:format>image/svg+xml</dc:format>
    <dc:creator>
     <cc:Agent>
      <dc:title>Matplotlib v3.6.2, https://matplotlib.org/</dc:title>
     </cc:Agent>
    </dc:creator>
   </cc:Work>
  </rdf:RDF>
 </metadata>
 <defs>
  <style type="text/css">*{stroke-linejoin: round; stroke-linecap: butt}</style>
 </defs>
 <g id="figure_1">
  <g id="patch_1">
   <path d="M 0 288 
L 720 288 
L 720 0 
L 0 0 
z
" style="fill: #ffffff"/>
  </g>
  <g id="axes_1">
   <g id="patch_2">
    <path d="M 90 256.32 
L 648 256.32 
L 648 34.56 
L 90 34.56 
z
" style="fill: #ffffff"/>
   </g>
   <g id="matplotlib.axis_1">
    <g id="xtick_1">
     <g id="line2d_1">
      <defs>
       <path id="m53750294e9" d="M 0 0 
L 0 3.5 
" style="stroke: #000000; stroke-width: 0.8"/>
      </defs>
      <g>
       <use xlink:href="#m53750294e9" x="115.363636" y="256.32" style="stroke: #000000; stroke-width: 0.8"/>
      </g>
     </g>
     <g id="text_1">
      <!-- 0 -->
      <g transform="translate(112.182386 270.918437) scale(0.1 -0.1)">
       <defs>
        <path id="DejaVuSans-30" d="M 2034 4250 
Q 1547 4250 1301 3770 
Q 1056 3291 1056 2328 
Q 1056 1369 1301 889 
Q 1547 409 2034 409 
Q 2525 409 2770 889 
Q 3016 1369 3016 2328 
Q 3016 3291 2770 3770 
Q 2525 4250 2034 4250 
z
M 2034 4750 
Q 2819 4750 3233 4129 
Q 3647 3509 3647 2328 
Q 3647 1150 3233 529 
Q 2819 -91 2034 -91 
Q 1250 -91 836 529 
Q 422 1150 422 2328 
Q 422 3509 836 4129 
Q 1250 4750 2034 4750 
z
" transform="scale(0.015625)"/>
       </defs>
       <use xlink:href="#DejaVuSans-30"/>
      </g>
     </g>
    </g>
    <g id="xtick_2">
     <g id="line2d_2">
      <g>
       <use xlink:href="#m53750294e9" x="214.634229" y="256.32" style="stroke: #000000; stroke-width: 0.8"/>
      </g>
     </g>
     <g id="text_2">
      <!-- 100 -->
      <g transform="translate(205.090479 270.918437) scale(0.1 -0.1)">
       <defs>
        <path id="DejaVuSans-31" d="M 794 531 
L 1825 531 
L 1825 4091 
L 703 3866 
L 703 4441 
L 1819 4666 
L 2450 4666 
L 2450 531 
L 3481 531 
L 3481 0 
L 794 0 
L 794 531 
z
" transform="scale(0.015625)"/>
       </defs>
       <use xlink:href="#DejaVuSans-31"/>
       <use xlink:href="#DejaVuSans-30" x="63.623047"/>
       <use xlink:href="#DejaVuSans-30" x="127.246094"/>
      </g>
     </g>
    </g>
    <g id="xtick_3">
     <g id="line2d_3">
      <g>
       <use xlink:href="#m53750294e9" x="313.904821" y="256.32" style="stroke: #000000; stroke-width: 0.8"/>
      </g>
     </g>
     <g id="text_3">
      <!-- 200 -->
      <g transform="translate(304.361071 270.918437) scale(0.1 -0.1)">
       <defs>
        <path id="DejaVuSans-32" d="M 1228 531 
L 3431 531 
L 3431 0 
L 469 0 
L 469 531 
Q 828 903 1448 1529 
Q 2069 2156 2228 2338 
Q 2531 2678 2651 2914 
Q 2772 3150 2772 3378 
Q 2772 3750 2511 3984 
Q 2250 4219 1831 4219 
Q 1534 4219 1204 4116 
Q 875 4013 500 3803 
L 500 4441 
Q 881 4594 1212 4672 
Q 1544 4750 1819 4750 
Q 2544 4750 2975 4387 
Q 3406 4025 3406 3419 
Q 3406 3131 3298 2873 
Q 3191 2616 2906 2266 
Q 2828 2175 2409 1742 
Q 1991 1309 1228 531 
z
" transform="scale(0.015625)"/>
       </defs>
       <use xlink:href="#DejaVuSans-32"/>
       <use xlink:href="#DejaVuSans-30" x="63.623047"/>
       <use xlink:href="#DejaVuSans-30" x="127.246094"/>
      </g>
     </g>
    </g>
    <g id="xtick_4">
     <g id="line2d_4">
      <g>
       <use xlink:href="#m53750294e9" x="413.175414" y="256.32" style="stroke: #000000; stroke-width: 0.8"/>
      </g>
     </g>
     <g id="text_4">
      <!-- 300 -->
      <g transform="translate(403.631664 270.918437) scale(0.1 -0.1)">
       <defs>
        <path id="DejaVuSans-33" d="M 2597 2516 
Q 3050 2419 3304 2112 
Q 3559 1806 3559 1356 
Q 3559 666 3084 287 
Q 2609 -91 1734 -91 
Q 1441 -91 1130 -33 
Q 819 25 488 141 
L 488 750 
Q 750 597 1062 519 
Q 1375 441 1716 441 
Q 2309 441 2620 675 
Q 2931 909 2931 1356 
Q 2931 1769 2642 2001 
Q 2353 2234 1838 2234 
L 1294 2234 
L 1294 2753 
L 1863 2753 
Q 2328 2753 2575 2939 
Q 2822 3125 2822 3475 
Q 2822 3834 2567 4026 
Q 2313 4219 1838 4219 
Q 1578 4219 1281 4162 
Q 984 4106 628 3988 
L 628 4550 
Q 988 4650 1302 4700 
Q 1616 4750 1894 4750 
Q 2613 4750 3031 4423 
Q 3450 4097 3450 3541 
Q 3450 3153 3228 2886 
Q 3006 2619 2597 2516 
z
" transform="scale(0.015625)"/>
       </defs>
       <use xlink:href="#DejaVuSans-33"/>
       <use xlink:href="#DejaVuSans-30" x="63.623047"/>
       <use xlink:href="#DejaVuSans-30" x="127.246094"/>
      </g>
     </g>
    </g>
    <g id="xtick_5">
     <g id="line2d_5">
      <g>
       <use xlink:href="#m53750294e9" x="512.446006" y="256.32" style="stroke: #000000; stroke-width: 0.8"/>
      </g>
     </g>
     <g id="text_5">
      <!-- 400 -->
      <g transform="translate(502.902256 270.918437) scale(0.1 -0.1)">
       <defs>
        <path id="DejaVuSans-34" d="M 2419 4116 
L 825 1625 
L 2419 1625 
L 2419 4116 
z
M 2253 4666 
L 3047 4666 
L 3047 1625 
L 3713 1625 
L 3713 1100 
L 3047 1100 
L 3047 0 
L 2419 0 
L 2419 1100 
L 313 1100 
L 313 1709 
L 2253 4666 
z
" transform="scale(0.015625)"/>
       </defs>
       <use xlink:href="#DejaVuSans-34"/>
       <use xlink:href="#DejaVuSans-30" x="63.623047"/>
       <use xlink:href="#DejaVuSans-30" x="127.246094"/>
      </g>
     </g>
    </g>
    <g id="xtick_6">
     <g id="line2d_6">
      <g>
       <use xlink:href="#m53750294e9" x="611.716598" y="256.32" style="stroke: #000000; stroke-width: 0.8"/>
      </g>
     </g>
     <g id="text_6">
      <!-- 500 -->
      <g transform="translate(602.172848 270.918437) scale(0.1 -0.1)">
       <defs>
        <path id="DejaVuSans-35" d="M 691 4666 
L 3169 4666 
L 3169 4134 
L 1269 4134 
L 1269 2991 
Q 1406 3038 1543 3061 
Q 1681 3084 1819 3084 
Q 2600 3084 3056 2656 
Q 3513 2228 3513 1497 
Q 3513 744 3044 326 
Q 2575 -91 1722 -91 
Q 1428 -91 1123 -41 
Q 819 9 494 109 
L 494 744 
Q 775 591 1075 516 
Q 1375 441 1709 441 
Q 2250 441 2565 725 
Q 2881 1009 2881 1497 
Q 2881 1984 2565 2268 
Q 2250 2553 1709 2553 
Q 1456 2553 1204 2497 
Q 953 2441 691 2322 
L 691 4666 
z
" transform="scale(0.015625)"/>
       </defs>
       <use xlink:href="#DejaVuSans-35"/>
       <use xlink:href="#DejaVuSans-30" x="63.623047"/>
       <use xlink:href="#DejaVuSans-30" x="127.246094"/>
      </g>
     </g>
    </g>
   </g>
   <g id="matplotlib.axis_2">
    <g id="ytick_1">
     <g id="line2d_7">
      <defs>
       <path id="m896e75bcdb" d="M 0 0 
L -3.5 0 
" style="stroke: #000000; stroke-width: 0.8"/>
      </defs>
      <g>
       <use xlink:href="#m896e75bcdb" x="90" y="248.192165" style="stroke: #000000; stroke-width: 0.8"/>
      </g>
     </g>
     <g id="text_7">
      <!-- 0.0490 -->
      <g transform="translate(48.009375 251.991383) scale(0.1 -0.1)">
       <defs>
        <path id="DejaVuSans-2e" d="M 684 794 
L 1344 794 
L 1344 0 
L 684 0 
L 684 794 
z
" transform="scale(0.015625)"/>
        <path id="DejaVuSans-39" d="M 703 97 
L 703 672 
Q 941 559 1184 500 
Q 1428 441 1663 441 
Q 2288 441 2617 861 
Q 2947 1281 2994 2138 
Q 2813 1869 2534 1725 
Q 2256 1581 1919 1581 
Q 1219 1581 811 2004 
Q 403 2428 403 3163 
Q 403 3881 828 4315 
Q 1253 4750 1959 4750 
Q 2769 4750 3195 4129 
Q 3622 3509 3622 2328 
Q 3622 1225 3098 567 
Q 2575 -91 1691 -91 
Q 1453 -91 1209 -44 
Q 966 3 703 97 
z
M 1959 2075 
Q 2384 2075 2632 2365 
Q 2881 2656 2881 3163 
Q 2881 3666 2632 3958 
Q 2384 4250 1959 4250 
Q 1534 4250 1286 3958 
Q 1038 3666 1038 3163 
Q 1038 2656 1286 2365 
Q 1534 2075 1959 2075 
z
" transform="scale(0.015625)"/>
       </defs>
       <use xlink:href="#DejaVuSans-30"/>
       <use xlink:href="#DejaVuSans-2e" x="63.623047"/>
       <use xlink:href="#DejaVuSans-30" x="95.410156"/>
       <use xlink:href="#DejaVuSans-34" x="159.033203"/>
       <use xlink:href="#DejaVuSans-39" x="222.65625"/>
       <use xlink:href="#DejaVuSans-30" x="286.279297"/>
      </g>
     </g>
    </g>
    <g id="ytick_2">
     <g id="line2d_8">
      <g>
       <use xlink:href="#m896e75bcdb" x="90" y="219.854423" style="stroke: #000000; stroke-width: 0.8"/>
      </g>
     </g>
     <g id="text_8">
      <!-- 0.0492 -->
      <g transform="translate(48.009375 223.653642) scale(0.1 -0.1)">
       <use xlink:href="#DejaVuSans-30"/>
       <use xlink:href="#DejaVuSans-2e" x="63.623047"/>
       <use xlink:href="#DejaVuSans-30" x="95.410156"/>
       <use xlink:href="#DejaVuSans-34" x="159.033203"/>
       <use xlink:href="#DejaVuSans-39" x="222.65625"/>
       <use xlink:href="#DejaVuSans-32" x="286.279297"/>
      </g>
     </g>
    </g>
    <g id="ytick_3">
     <g id="line2d_9">
      <g>
       <use xlink:href="#m896e75bcdb" x="90" y="191.516682" style="stroke: #000000; stroke-width: 0.8"/>
      </g>
     </g>
     <g id="text_9">
      <!-- 0.0494 -->
      <g transform="translate(48.009375 195.315901) scale(0.1 -0.1)">
       <use xlink:href="#DejaVuSans-30"/>
       <use xlink:href="#DejaVuSans-2e" x="63.623047"/>
       <use xlink:href="#DejaVuSans-30" x="95.410156"/>
       <use xlink:href="#DejaVuSans-34" x="159.033203"/>
       <use xlink:href="#DejaVuSans-39" x="222.65625"/>
       <use xlink:href="#DejaVuSans-34" x="286.279297"/>
      </g>
     </g>
    </g>
    <g id="ytick_4">
     <g id="line2d_10">
      <g>
       <use xlink:href="#m896e75bcdb" x="90" y="163.17894" style="stroke: #000000; stroke-width: 0.8"/>
      </g>
     </g>
     <g id="text_10">
      <!-- 0.0496 -->
      <g transform="translate(48.009375 166.978159) scale(0.1 -0.1)">
       <defs>
        <path id="DejaVuSans-36" d="M 2113 2584 
Q 1688 2584 1439 2293 
Q 1191 2003 1191 1497 
Q 1191 994 1439 701 
Q 1688 409 2113 409 
Q 2538 409 2786 701 
Q 3034 994 3034 1497 
Q 3034 2003 2786 2293 
Q 2538 2584 2113 2584 
z
M 3366 4563 
L 3366 3988 
Q 3128 4100 2886 4159 
Q 2644 4219 2406 4219 
Q 1781 4219 1451 3797 
Q 1122 3375 1075 2522 
Q 1259 2794 1537 2939 
Q 1816 3084 2150 3084 
Q 2853 3084 3261 2657 
Q 3669 2231 3669 1497 
Q 3669 778 3244 343 
Q 2819 -91 2113 -91 
Q 1303 -91 875 529 
Q 447 1150 447 2328 
Q 447 3434 972 4092 
Q 1497 4750 2381 4750 
Q 2619 4750 2861 4703 
Q 3103 4656 3366 4563 
z
" transform="scale(0.015625)"/>
       </defs>
       <use xlink:href="#DejaVuSans-30"/>
       <use xlink:href="#DejaVuSans-2e" x="63.623047"/>
       <use xlink:href="#DejaVuSans-30" x="95.410156"/>
       <use xlink:href="#DejaVuSans-34" x="159.033203"/>
       <use xlink:href="#DejaVuSans-39" x="222.65625"/>
       <use xlink:href="#DejaVuSans-36" x="286.279297"/>
      </g>
     </g>
    </g>
    <g id="ytick_5">
     <g id="line2d_11">
      <g>
       <use xlink:href="#m896e75bcdb" x="90" y="134.841199" style="stroke: #000000; stroke-width: 0.8"/>
      </g>
     </g>
     <g id="text_11">
      <!-- 0.0498 -->
      <g transform="translate(48.009375 138.640418) scale(0.1 -0.1)">
       <defs>
        <path id="DejaVuSans-38" d="M 2034 2216 
Q 1584 2216 1326 1975 
Q 1069 1734 1069 1313 
Q 1069 891 1326 650 
Q 1584 409 2034 409 
Q 2484 409 2743 651 
Q 3003 894 3003 1313 
Q 3003 1734 2745 1975 
Q 2488 2216 2034 2216 
z
M 1403 2484 
Q 997 2584 770 2862 
Q 544 3141 544 3541 
Q 544 4100 942 4425 
Q 1341 4750 2034 4750 
Q 2731 4750 3128 4425 
Q 3525 4100 3525 3541 
Q 3525 3141 3298 2862 
Q 3072 2584 2669 2484 
Q 3125 2378 3379 2068 
Q 3634 1759 3634 1313 
Q 3634 634 3220 271 
Q 2806 -91 2034 -91 
Q 1263 -91 848 271 
Q 434 634 434 1313 
Q 434 1759 690 2068 
Q 947 2378 1403 2484 
z
M 1172 3481 
Q 1172 3119 1398 2916 
Q 1625 2713 2034 2713 
Q 2441 2713 2670 2916 
Q 2900 3119 2900 3481 
Q 2900 3844 2670 4047 
Q 2441 4250 2034 4250 
Q 1625 4250 1398 4047 
Q 1172 3844 1172 3481 
z
" transform="scale(0.015625)"/>
       </defs>
       <use xlink:href="#DejaVuSans-30"/>
       <use xlink:href="#DejaVuSans-2e" x="63.623047"/>
       <use xlink:href="#DejaVuSans-30" x="95.410156"/>
       <use xlink:href="#DejaVuSans-34" x="159.033203"/>
       <use xlink:href="#DejaVuSans-39" x="222.65625"/>
       <use xlink:href="#DejaVuSans-38" x="286.279297"/>
      </g>
     </g>
    </g>
    <g id="ytick_6">
     <g id="line2d_12">
      <g>
       <use xlink:href="#m896e75bcdb" x="90" y="106.503458" style="stroke: #000000; stroke-width: 0.8"/>
      </g>
     </g>
     <g id="text_12">
      <!-- 0.0500 -->
      <g transform="translate(48.009375 110.302677) scale(0.1 -0.1)">
       <use xlink:href="#DejaVuSans-30"/>
       <use xlink:href="#DejaVuSans-2e" x="63.623047"/>
       <use xlink:href="#DejaVuSans-30" x="95.410156"/>
       <use xlink:href="#DejaVuSans-35" x="159.033203"/>
       <use xlink:href="#DejaVuSans-30" x="222.65625"/>
       <use xlink:href="#DejaVuSans-30" x="286.279297"/>
      </g>
     </g>
    </g>
    <g id="ytick_7">
     <g id="line2d_13">
      <g>
       <use xlink:href="#m896e75bcdb" x="90" y="78.165716" style="stroke: #000000; stroke-width: 0.8"/>
      </g>
     </g>
     <g id="text_13">
      <!-- 0.0502 -->
      <g transform="translate(48.009375 81.964935) scale(0.1 -0.1)">
       <use xlink:href="#DejaVuSans-30"/>
       <use xlink:href="#DejaVuSans-2e" x="63.623047"/>
       <use xlink:href="#DejaVuSans-30" x="95.410156"/>
       <use xlink:href="#DejaVuSans-35" x="159.033203"/>
       <use xlink:href="#DejaVuSans-30" x="222.65625"/>
       <use xlink:href="#DejaVuSans-32" x="286.279297"/>
      </g>
     </g>
    </g>
    <g id="ytick_8">
     <g id="line2d_14">
      <g>
       <use xlink:href="#m896e75bcdb" x="90" y="49.827975" style="stroke: #000000; stroke-width: 0.8"/>
      </g>
     </g>
     <g id="text_14">
      <!-- 0.0504 -->
      <g transform="translate(48.009375 53.627194) scale(0.1 -0.1)">
       <use xlink:href="#DejaVuSans-30"/>
       <use xlink:href="#DejaVuSans-2e" x="63.623047"/>
       <use xlink:href="#DejaVuSans-30" x="95.410156"/>
       <use xlink:href="#DejaVuSans-35" x="159.033203"/>
       <use xlink:href="#DejaVuSans-30" x="222.65625"/>
       <use xlink:href="#DejaVuSans-34" x="286.279297"/>
      </g>
     </g>
    </g>
   </g>
   <g id="line2d_15">
    <path d="M 115.363636 193.382374 
L 116.356342 192.964436 
L 117.349048 193.067674 
L 118.341754 193.661563 
L 119.33446 194.751658 
L 120.327166 196.161786 
L 121.319872 197.880658 
L 122.312578 198.757798 
L 123.305284 199.34474 
L 124.29799 200.135764 
L 125.290696 200.716944 
L 126.283402 200.479767 
L 127.276107 200.577706 
L 128.268813 201.382434 
L 129.261519 202.677659 
L 131.246931 204.615424 
L 132.239637 206.145844 
L 133.232343 207.903836 
L 134.225049 209.945183 
L 137.203167 214.535777 
L 138.195873 215.668862 
L 139.188579 217.474659 
L 140.181284 219.599467 
L 142.166696 225.020043 
L 145.144814 235.058086 
L 148.122932 242.748006 
L 149.115638 244.447001 
L 150.108344 245.50151 
L 151.10105 246.24 
L 152.093756 246.037204 
L 153.086461 245.225985 
L 154.079167 243.760615 
L 156.064579 240.204545 
L 157.057285 238.211421 
L 159.042697 235.048732 
L 160.035403 232.897063 
L 164.006227 223.108001 
L 164.998933 219.997366 
L 166.984344 212.34185 
L 167.97705 208.230764 
L 168.969756 202.88349 
L 170.955168 189.654996 
L 173.933286 171.4156 
L 175.918698 158.673128 
L 178.896816 144.496246 
L 179.889521 140.489879 
L 182.867639 131.086701 
L 183.860345 128.722912 
L 185.845757 125.076732 
L 186.838463 124.633568 
L 187.831169 124.489664 
L 188.823875 123.863801 
L 189.816581 122.963926 
L 190.809287 122.553274 
L 191.801993 122.784855 
L 193.787404 122.239166 
L 194.78011 122.241541 
L 195.772816 122.738803 
L 196.765522 123.873915 
L 198.750934 125.515359 
L 199.74364 127.19632 
L 200.736346 129.323198 
L 201.729052 130.954762 
L 207.685287 136.823999 
L 210.663405 141.371798 
L 211.656111 142.233712 
L 213.641523 143.634481 
L 215.626935 146.274455 
L 216.619641 147.764728 
L 218.605052 151.642991 
L 219.597758 153.622662 
L 220.590464 154.168994 
L 222.575876 154.629841 
L 223.568582 153.963089 
L 224.561288 152.838637 
L 225.553994 151.339891 
L 226.5467 150.880842 
L 229.524818 149.154677 
L 230.517524 148.773413 
L 231.510229 148.796075 
L 232.502935 148.57422 
L 233.495641 148.534125 
L 234.488347 147.907018 
L 235.481053 147.064563 
L 236.473759 145.865929 
L 237.466465 143.828803 
L 239.451877 137.919797 
L 241.437289 133.600132 
L 244.415407 126.096877 
L 245.408112 123.001014 
L 246.400818 119.363123 
L 247.393524 116.360123 
L 248.38623 114.647025 
L 249.378936 113.652513 
L 250.371642 113.287817 
L 251.364348 112.76362 
L 252.357054 112.012024 
L 253.34976 110.573614 
L 254.342466 108.709125 
L 255.335172 106.261661 
L 258.313289 97.549365 
L 259.305995 95.471305 
L 263.276819 86.222373 
L 264.269525 84.254043 
L 268.240349 73.556634 
L 270.225761 70.309248 
L 273.203878 67.886716 
L 274.196584 67.310925 
L 275.18929 66.932801 
L 277.174702 66.581748 
L 278.167408 66.960462 
L 279.160114 67.784993 
L 281.145526 70.397515 
L 282.138232 72.038299 
L 283.130938 74.333355 
L 285.116349 80.021197 
L 286.109055 82.329783 
L 288.094467 86.076489 
L 291.072585 89.019223 
L 292.065291 90.266881 
L 294.050703 93.290669 
L 299.014232 102.095456 
L 300.006938 103.632568 
L 300.999644 104.790187 
L 302.985056 106.021546 
L 303.977762 106.391821 
L 304.970468 106.162681 
L 305.963174 106.218536 
L 306.95588 106.823129 
L 307.948586 107.260862 
L 309.933998 107.784251 
L 310.926703 108.347907 
L 311.919409 108.370789 
L 312.912115 107.503065 
L 314.897527 107.565725 
L 315.890233 108.072046 
L 316.882939 108.349416 
L 317.875645 108.83628 
L 320.853763 113.151324 
L 321.846469 114.547462 
L 322.839175 115.709907 
L 324.824586 118.731687 
L 326.809998 121.251316 
L 328.79541 122.463274 
L 330.780822 124.077654 
L 333.75894 125.841917 
L 334.751646 127.287155 
L 335.744352 128.23049 
L 336.737057 128.398586 
L 337.729763 128.373149 
L 338.722469 128.528897 
L 339.715175 128.933528 
L 340.707881 128.934966 
L 341.700587 128.455719 
L 342.693293 128.660755 
L 343.685999 129.274707 
L 345.671411 129.651782 
L 346.664117 129.897168 
L 347.656823 130.678476 
L 348.649529 131.609643 
L 350.63494 133.00858 
L 352.620352 133.762149 
L 354.605764 135.26278 
L 355.59847 136.023097 
L 357.583882 138.464177 
L 358.576588 140.02817 
L 359.569294 140.908696 
L 360.562 141.622056 
L 361.554706 142.806184 
L 364.532823 148.659337 
L 365.525529 150.830838 
L 366.518235 153.860833 
L 367.510941 155.9991 
L 368.503647 156.633509 
L 369.496353 156.793239 
L 370.489059 156.673868 
L 371.481765 156.803008 
L 372.474471 156.631376 
L 373.467177 156.264968 
L 374.459883 156.181422 
L 376.445294 157.624821 
L 377.438 158.351892 
L 379.423412 157.879439 
L 380.416118 158.040297 
L 381.408824 157.774902 
L 382.40153 157.155329 
L 384.386942 155.062014 
L 385.379648 154.126748 
L 386.372354 153.62725 
L 387.36506 152.738116 
L 388.357766 152.502809 
L 389.350471 151.912102 
L 390.343177 151.821521 
L 391.335883 152.072365 
L 392.328589 152.651395 
L 393.321295 153.427881 
L 394.314001 153.88784 
L 395.306707 154.949935 
L 396.299413 155.546433 
L 397.292119 154.91952 
L 398.284825 153.525907 
L 399.277531 151.807046 
L 400.270237 149.821354 
L 402.255648 144.210781 
L 406.226472 135.188199 
L 408.211884 132.50796 
L 409.20459 131.605188 
L 410.197296 130.969594 
L 412.182708 128.871197 
L 413.175414 126.985807 
L 414.16812 125.536293 
L 415.160825 123.774385 
L 416.153531 121.393481 
L 420.124355 107.830973 
L 421.117061 103.462067 
L 423.102473 96.32799 
L 424.095179 93.403625 
L 426.080591 88.579624 
L 427.073297 86.415408 
L 429.058708 80.483916 
L 430.051414 77.099273 
L 433.029532 64.249408 
L 434.022238 61.337012 
L 435.014944 59.495284 
L 436.00765 58.30228 
L 437.000356 57.853839 
L 437.993062 58.180346 
L 438.985768 58.987068 
L 439.978474 59.166442 
L 440.97118 58.745891 
L 441.963885 57.597646 
L 442.956591 55.94097 
L 445.934709 49.470857 
L 446.927415 47.761645 
L 448.912827 45.114949 
L 449.905533 44.64 
L 451.890945 45.24119 
L 452.883651 45.124783 
L 453.876357 45.424959 
L 454.869062 46.469687 
L 456.854474 49.347119 
L 457.84718 51.338631 
L 459.832592 56.871581 
L 461.818004 62.533181 
L 462.81071 64.827477 
L 464.796122 68.929699 
L 468.766945 73.875576 
L 469.759651 74.926042 
L 470.752357 76.499971 
L 472.737769 80.239821 
L 474.723181 83.363263 
L 475.715887 85.113346 
L 476.708593 85.800181 
L 477.701299 86.157433 
L 478.694005 86.763404 
L 479.686711 86.883414 
L 482.664828 86.311272 
L 483.657534 86.432938 
L 486.635652 87.448905 
L 487.628358 87.465879 
L 488.621064 87.942481 
L 489.61377 88.112771 
L 490.606476 88.105857 
L 493.584593 89.988847 
L 494.577299 90.970688 
L 495.570005 91.72065 
L 497.555417 92.807144 
L 499.540829 96.665904 
L 500.533535 98.652122 
L 501.526241 101.403234 
L 502.518947 104.896009 
L 505.497065 114.048304 
L 512.446006 137.1739 
L 515.424124 145.694052 
L 517.409536 148.729904 
L 518.402242 149.90853 
L 519.394948 149.96406 
L 520.387653 148.78332 
L 521.380359 148.13006 
L 522.373065 148.106294 
L 524.358477 148.59746 
L 525.351183 149.41464 
L 526.343889 150.389457 
L 529.322007 152.134418 
L 532.300125 154.565868 
L 533.29283 155.375556 
L 534.285536 155.304871 
L 535.278242 154.977096 
L 536.270948 153.54589 
L 538.25636 149.988448 
L 540.241772 146.287861 
L 541.234478 144.669566 
L 544.212596 141.275851 
L 546.198007 138.636872 
L 547.190713 137.322522 
L 548.183419 135.785129 
L 550.168831 133.809047 
L 551.161537 133.680074 
L 552.154243 133.786197 
L 553.146949 134.461648 
L 557.117773 137.675657 
L 558.110479 138.087144 
L 559.103184 138.314289 
L 560.09589 138.289078 
L 561.088596 138.873717 
L 562.081302 139.091191 
L 563.074008 139.12144 
L 564.066714 138.60579 
L 565.05942 137.44522 
L 566.052126 135.500822 
L 570.02295 123.200082 
L 571.015656 120.615697 
L 572.008362 118.430171 
L 573.001067 116.778341 
L 573.993773 115.569002 
L 574.986479 113.897794 
L 575.979185 110.898634 
L 577.964597 103.858122 
L 578.957303 99.833651 
L 579.950009 95.015276 
L 580.942715 91.05617 
L 581.935421 87.939619 
L 582.928127 85.24054 
L 583.920833 82.19403 
L 587.891656 72.236598 
L 588.884362 69.951973 
L 590.869774 66.210987 
L 593.847892 60.016198 
L 594.840598 57.582887 
L 595.833304 55.907912 
L 596.82601 54.589748 
L 597.818716 53.624588 
L 598.811421 52.303151 
L 599.804127 51.692302 
L 600.796833 51.948688 
L 601.789539 51.677068 
L 602.782245 50.798835 
L 603.774951 49.331602 
L 604.767657 48.4501 
L 605.760363 47.901383 
L 606.753069 47.20311 
L 607.745775 46.715582 
L 608.738481 46.469975 
L 609.731187 47.714667 
L 610.723893 49.24895 
L 611.716598 51.070827 
L 612.709304 53.170856 
L 613.70201 55.901985 
L 615.687422 62.006928 
L 616.680128 64.548479 
L 617.672834 66.588787 
L 618.66554 68.113912 
L 619.658246 68.55311 
L 620.650952 69.130636 
L 621.643658 68.95005 
L 622.636364 69.231525 
L 622.636364 69.231525 
" clip-path="url(#p6d70c3e18f)" style="fill: none; stroke: #1f77b4; stroke-width: 1.5; stroke-linecap: square"/>
   </g>
   <g id="patch_3">
    <path d="M 90 256.32 
L 90 34.56 
" style="fill: none; stroke: #000000; stroke-width: 0.8; stroke-linejoin: miter; stroke-linecap: square"/>
   </g>
   <g id="patch_4">
    <path d="M 648 256.32 
L 648 34.56 
" style="fill: none; stroke: #000000; stroke-width: 0.8; stroke-linejoin: miter; stroke-linecap: square"/>
   </g>
   <g id="patch_5">
    <path d="M 90 256.32 
L 648 256.32 
" style="fill: none; stroke: #000000; stroke-width: 0.8; stroke-linejoin: miter; stroke-linecap: square"/>
   </g>
   <g id="patch_6">
    <path d="M 90 34.56 
L 648 34.56 
" style="fill: none; stroke: #000000; stroke-width: 0.8; stroke-linejoin: miter; stroke-linecap: square"/>
   </g>
   <g id="text_15">
    <!-- K is now at 1 -->
    <g transform="translate(330.418125 28.56) scale(0.12 -0.12)">
     <defs>
      <path id="DejaVuSans-4b" d="M 628 4666 
L 1259 4666 
L 1259 2694 
L 3353 4666 
L 4166 4666 
L 1850 2491 
L 4331 0 
L 3500 0 
L 1259 2247 
L 1259 0 
L 628 0 
L 628 4666 
z
" transform="scale(0.015625)"/>
      <path id="DejaVuSans-20" transform="scale(0.015625)"/>
      <path id="DejaVuSans-69" d="M 603 3500 
L 1178 3500 
L 1178 0 
L 603 0 
L 603 3500 
z
M 603 4863 
L 1178 4863 
L 1178 4134 
L 603 4134 
L 603 4863 
z
" transform="scale(0.015625)"/>
      <path id="DejaVuSans-73" d="M 2834 3397 
L 2834 2853 
Q 2591 2978 2328 3040 
Q 2066 3103 1784 3103 
Q 1356 3103 1142 2972 
Q 928 2841 928 2578 
Q 928 2378 1081 2264 
Q 1234 2150 1697 2047 
L 1894 2003 
Q 2506 1872 2764 1633 
Q 3022 1394 3022 966 
Q 3022 478 2636 193 
Q 2250 -91 1575 -91 
Q 1294 -91 989 -36 
Q 684 19 347 128 
L 347 722 
Q 666 556 975 473 
Q 1284 391 1588 391 
Q 1994 391 2212 530 
Q 2431 669 2431 922 
Q 2431 1156 2273 1281 
Q 2116 1406 1581 1522 
L 1381 1569 
Q 847 1681 609 1914 
Q 372 2147 372 2553 
Q 372 3047 722 3315 
Q 1072 3584 1716 3584 
Q 2034 3584 2315 3537 
Q 2597 3491 2834 3397 
z
" transform="scale(0.015625)"/>
      <path id="DejaVuSans-6e" d="M 3513 2113 
L 3513 0 
L 2938 0 
L 2938 2094 
Q 2938 2591 2744 2837 
Q 2550 3084 2163 3084 
Q 1697 3084 1428 2787 
Q 1159 2491 1159 1978 
L 1159 0 
L 581 0 
L 581 3500 
L 1159 3500 
L 1159 2956 
Q 1366 3272 1645 3428 
Q 1925 3584 2291 3584 
Q 2894 3584 3203 3211 
Q 3513 2838 3513 2113 
z
" transform="scale(0.015625)"/>
      <path id="DejaVuSans-6f" d="M 1959 3097 
Q 1497 3097 1228 2736 
Q 959 2375 959 1747 
Q 959 1119 1226 758 
Q 1494 397 1959 397 
Q 2419 397 2687 759 
Q 2956 1122 2956 1747 
Q 2956 2369 2687 2733 
Q 2419 3097 1959 3097 
z
M 1959 3584 
Q 2709 3584 3137 3096 
Q 3566 2609 3566 1747 
Q 3566 888 3137 398 
Q 2709 -91 1959 -91 
Q 1206 -91 779 398 
Q 353 888 353 1747 
Q 353 2609 779 3096 
Q 1206 3584 1959 3584 
z
" transform="scale(0.015625)"/>
      <path id="DejaVuSans-77" d="M 269 3500 
L 844 3500 
L 1563 769 
L 2278 3500 
L 2956 3500 
L 3675 769 
L 4391 3500 
L 4966 3500 
L 4050 0 
L 3372 0 
L 2619 2869 
L 1863 0 
L 1184 0 
L 269 3500 
z
" transform="scale(0.015625)"/>
      <path id="DejaVuSans-61" d="M 2194 1759 
Q 1497 1759 1228 1600 
Q 959 1441 959 1056 
Q 959 750 1161 570 
Q 1363 391 1709 391 
Q 2188 391 2477 730 
Q 2766 1069 2766 1631 
L 2766 1759 
L 2194 1759 
z
M 3341 1997 
L 3341 0 
L 2766 0 
L 2766 531 
Q 2569 213 2275 61 
Q 1981 -91 1556 -91 
Q 1019 -91 701 211 
Q 384 513 384 1019 
Q 384 1609 779 1909 
Q 1175 2209 1959 2209 
L 2766 2209 
L 2766 2266 
Q 2766 2663 2505 2880 
Q 2244 3097 1772 3097 
Q 1472 3097 1187 3025 
Q 903 2953 641 2809 
L 641 3341 
Q 956 3463 1253 3523 
Q 1550 3584 1831 3584 
Q 2591 3584 2966 3190 
Q 3341 2797 3341 1997 
z
" transform="scale(0.015625)"/>
      <path id="DejaVuSans-74" d="M 1172 4494 
L 1172 3500 
L 2356 3500 
L 2356 3053 
L 1172 3053 
L 1172 1153 
Q 1172 725 1289 603 
Q 1406 481 1766 481 
L 2356 481 
L 2356 0 
L 1766 0 
Q 1100 0 847 248 
Q 594 497 594 1153 
L 594 3053 
L 172 3053 
L 172 3500 
L 594 3500 
L 594 4494 
L 1172 4494 
z
" transform="scale(0.015625)"/>
     </defs>
     <use xlink:href="#DejaVuSans-4b"/>
     <use xlink:href="#DejaVuSans-20" x="65.576172"/>
     <use xlink:href="#DejaVuSans-69" x="97.363281"/>
     <use xlink:href="#DejaVuSans-73" x="125.146484"/>
     <use xlink:href="#DejaVuSans-20" x="177.246094"/>
     <use xlink:href="#DejaVuSans-6e" x="209.033203"/>
     <use xlink:href="#DejaVuSans-6f" x="272.412109"/>
     <use xlink:href="#DejaVuSans-77" x="333.59375"/>
     <use xlink:href="#DejaVuSans-20" x="415.380859"/>
     <use xlink:href="#DejaVuSans-61" x="447.167969"/>
     <use xlink:href="#DejaVuSans-74" x="508.447266"/>
     <use xlink:href="#DejaVuSans-20" x="547.65625"/>
     <use xlink:href="#DejaVuSans-31" x="579.443359"/>
    </g>
   </g>
  </g>
 </g>
 <defs>
  <clipPath id="p6d70c3e18f">
   <rect x="90" y="34.56" width="558" height="221.76"/>
  </clipPath>
 </defs>
</svg>
