<?xml version="1.0" encoding="utf-8" standalone="no"?>
<!DOCTYPE svg PUBLIC "-//W3C//DTD SVG 1.1//EN"
  "http://www.w3.org/Graphics/SVG/1.1/DTD/svg11.dtd">
<svg xmlns:xlink="http://www.w3.org/1999/xlink" width="720pt" height="288pt" viewBox="0 0 720 288" xmlns="http://www.w3.org/2000/svg" version="1.1">
 <metadata>
  <rdf:RDF xmlns:dc="http://purl.org/dc/elements/1.1/" xmlns:cc="http://creativecommons.org/ns#" xmlns:rdf="http://www.w3.org/1999/02/22-rdf-syntax-ns#">
   <cc:Work>
    <dc:type rdf:resource="http://purl.org/dc/dcmitype/StillImage"/>
    <dc:date>2023-12-05T23:15:48.977657</dc:date>
    <dc:format>image/svg+xml</dc:format>
    <dc:creator>
     <cc:Agent>
      <dc:title>Matplotlib v3.6.2, https://matplotlib.org/</dc:title>
     </cc:Agent>
    </dc:creator>
   </cc:Work>
  </rdf:RDF>
 </metadata>
 <defs>
  <style type="text/css">*{stroke-linejoin: round; stroke-linecap: butt}</style>
 </defs>
 <g id="figure_1">
  <g id="patch_1">
   <path d="M 0 288 
L 720 288 
L 720 0 
L 0 0 
z
" style="fill: #ffffff"/>
  </g>
  <g id="axes_1">
   <g id="patch_2">
    <path d="M 90 256.32 
L 648 256.32 
L 648 34.56 
L 90 34.56 
z
" style="fill: #ffffff"/>
   </g>
   <g id="matplotlib.axis_1">
    <g id="xtick_1">
     <g id="line2d_1">
      <defs>
       <path id="m14e57dc23f" d="M 0 0 
L 0 3.5 
" style="stroke: #000000; stroke-width: 0.8"/>
      </defs>
      <g>
       <use xlink:href="#m14e57dc23f" x="115.363636" y="256.32" style="stroke: #000000; stroke-width: 0.8"/>
      </g>
     </g>
     <g id="text_1">
      <!-- 0 -->
      <g transform="translate(112.182386 270.918437) scale(0.1 -0.1)">
       <defs>
        <path id="DejaVuSans-30" d="M 2034 4250 
Q 1547 4250 1301 3770 
Q 1056 3291 1056 2328 
Q 1056 1369 1301 889 
Q 1547 409 2034 409 
Q 2525 409 2770 889 
Q 3016 1369 3016 2328 
Q 3016 3291 2770 3770 
Q 2525 4250 2034 4250 
z
M 2034 4750 
Q 2819 4750 3233 4129 
Q 3647 3509 3647 2328 
Q 3647 1150 3233 529 
Q 2819 -91 2034 -91 
Q 1250 -91 836 529 
Q 422 1150 422 2328 
Q 422 3509 836 4129 
Q 1250 4750 2034 4750 
z
" transform="scale(0.015625)"/>
       </defs>
       <use xlink:href="#DejaVuSans-30"/>
      </g>
     </g>
    </g>
    <g id="xtick_2">
     <g id="line2d_2">
      <g>
       <use xlink:href="#m14e57dc23f" x="214.634229" y="256.32" style="stroke: #000000; stroke-width: 0.8"/>
      </g>
     </g>
     <g id="text_2">
      <!-- 100 -->
      <g transform="translate(205.090479 270.918437) scale(0.1 -0.1)">
       <defs>
        <path id="DejaVuSans-31" d="M 794 531 
L 1825 531 
L 1825 4091 
L 703 3866 
L 703 4441 
L 1819 4666 
L 2450 4666 
L 2450 531 
L 3481 531 
L 3481 0 
L 794 0 
L 794 531 
z
" transform="scale(0.015625)"/>
       </defs>
       <use xlink:href="#DejaVuSans-31"/>
       <use xlink:href="#DejaVuSans-30" x="63.623047"/>
       <use xlink:href="#DejaVuSans-30" x="127.246094"/>
      </g>
     </g>
    </g>
    <g id="xtick_3">
     <g id="line2d_3">
      <g>
       <use xlink:href="#m14e57dc23f" x="313.904821" y="256.32" style="stroke: #000000; stroke-width: 0.8"/>
      </g>
     </g>
     <g id="text_3">
      <!-- 200 -->
      <g transform="translate(304.361071 270.918437) scale(0.1 -0.1)">
       <defs>
        <path id="DejaVuSans-32" d="M 1228 531 
L 3431 531 
L 3431 0 
L 469 0 
L 469 531 
Q 828 903 1448 1529 
Q 2069 2156 2228 2338 
Q 2531 2678 2651 2914 
Q 2772 3150 2772 3378 
Q 2772 3750 2511 3984 
Q 2250 4219 1831 4219 
Q 1534 4219 1204 4116 
Q 875 4013 500 3803 
L 500 4441 
Q 881 4594 1212 4672 
Q 1544 4750 1819 4750 
Q 2544 4750 2975 4387 
Q 3406 4025 3406 3419 
Q 3406 3131 3298 2873 
Q 3191 2616 2906 2266 
Q 2828 2175 2409 1742 
Q 1991 1309 1228 531 
z
" transform="scale(0.015625)"/>
       </defs>
       <use xlink:href="#DejaVuSans-32"/>
       <use xlink:href="#DejaVuSans-30" x="63.623047"/>
       <use xlink:href="#DejaVuSans-30" x="127.246094"/>
      </g>
     </g>
    </g>
    <g id="xtick_4">
     <g id="line2d_4">
      <g>
       <use xlink:href="#m14e57dc23f" x="413.175414" y="256.32" style="stroke: #000000; stroke-width: 0.8"/>
      </g>
     </g>
     <g id="text_4">
      <!-- 300 -->
      <g transform="translate(403.631664 270.918437) scale(0.1 -0.1)">
       <defs>
        <path id="DejaVuSans-33" d="M 2597 2516 
Q 3050 2419 3304 2112 
Q 3559 1806 3559 1356 
Q 3559 666 3084 287 
Q 2609 -91 1734 -91 
Q 1441 -91 1130 -33 
Q 819 25 488 141 
L 488 750 
Q 750 597 1062 519 
Q 1375 441 1716 441 
Q 2309 441 2620 675 
Q 2931 909 2931 1356 
Q 2931 1769 2642 2001 
Q 2353 2234 1838 2234 
L 1294 2234 
L 1294 2753 
L 1863 2753 
Q 2328 2753 2575 2939 
Q 2822 3125 2822 3475 
Q 2822 3834 2567 4026 
Q 2313 4219 1838 4219 
Q 1578 4219 1281 4162 
Q 984 4106 628 3988 
L 628 4550 
Q 988 4650 1302 4700 
Q 1616 4750 1894 4750 
Q 2613 4750 3031 4423 
Q 3450 4097 3450 3541 
Q 3450 3153 3228 2886 
Q 3006 2619 2597 2516 
z
" transform="scale(0.015625)"/>
       </defs>
       <use xlink:href="#DejaVuSans-33"/>
       <use xlink:href="#DejaVuSans-30" x="63.623047"/>
       <use xlink:href="#DejaVuSans-30" x="127.246094"/>
      </g>
     </g>
    </g>
    <g id="xtick_5">
     <g id="line2d_5">
      <g>
       <use xlink:href="#m14e57dc23f" x="512.446006" y="256.32" style="stroke: #000000; stroke-width: 0.8"/>
      </g>
     </g>
     <g id="text_5">
      <!-- 400 -->
      <g transform="translate(502.902256 270.918437) scale(0.1 -0.1)">
       <defs>
        <path id="DejaVuSans-34" d="M 2419 4116 
L 825 1625 
L 2419 1625 
L 2419 4116 
z
M 2253 4666 
L 3047 4666 
L 3047 1625 
L 3713 1625 
L 3713 1100 
L 3047 1100 
L 3047 0 
L 2419 0 
L 2419 1100 
L 313 1100 
L 313 1709 
L 2253 4666 
z
" transform="scale(0.015625)"/>
       </defs>
       <use xlink:href="#DejaVuSans-34"/>
       <use xlink:href="#DejaVuSans-30" x="63.623047"/>
       <use xlink:href="#DejaVuSans-30" x="127.246094"/>
      </g>
     </g>
    </g>
    <g id="xtick_6">
     <g id="line2d_6">
      <g>
       <use xlink:href="#m14e57dc23f" x="611.716598" y="256.32" style="stroke: #000000; stroke-width: 0.8"/>
      </g>
     </g>
     <g id="text_6">
      <!-- 500 -->
      <g transform="translate(602.172848 270.918437) scale(0.1 -0.1)">
       <defs>
        <path id="DejaVuSans-35" d="M 691 4666 
L 3169 4666 
L 3169 4134 
L 1269 4134 
L 1269 2991 
Q 1406 3038 1543 3061 
Q 1681 3084 1819 3084 
Q 2600 3084 3056 2656 
Q 3513 2228 3513 1497 
Q 3513 744 3044 326 
Q 2575 -91 1722 -91 
Q 1428 -91 1123 -41 
Q 819 9 494 109 
L 494 744 
Q 775 591 1075 516 
Q 1375 441 1709 441 
Q 2250 441 2565 725 
Q 2881 1009 2881 1497 
Q 2881 1984 2565 2268 
Q 2250 2553 1709 2553 
Q 1456 2553 1204 2497 
Q 953 2441 691 2322 
L 691 4666 
z
" transform="scale(0.015625)"/>
       </defs>
       <use xlink:href="#DejaVuSans-35"/>
       <use xlink:href="#DejaVuSans-30" x="63.623047"/>
       <use xlink:href="#DejaVuSans-30" x="127.246094"/>
      </g>
     </g>
    </g>
   </g>
   <g id="matplotlib.axis_2">
    <g id="ytick_1">
     <g id="line2d_7">
      <defs>
       <path id="m4506b7b294" d="M 0 0 
L -3.5 0 
" style="stroke: #000000; stroke-width: 0.8"/>
      </defs>
      <g>
       <use xlink:href="#m4506b7b294" x="90" y="226.669932" style="stroke: #000000; stroke-width: 0.8"/>
      </g>
     </g>
     <g id="text_7">
      <!-- −1.0 -->
      <g transform="translate(58.717187 230.469151) scale(0.1 -0.1)">
       <defs>
        <path id="DejaVuSans-2212" d="M 678 2272 
L 4684 2272 
L 4684 1741 
L 678 1741 
L 678 2272 
z
" transform="scale(0.015625)"/>
        <path id="DejaVuSans-2e" d="M 684 794 
L 1344 794 
L 1344 0 
L 684 0 
L 684 794 
z
" transform="scale(0.015625)"/>
       </defs>
       <use xlink:href="#DejaVuSans-2212"/>
       <use xlink:href="#DejaVuSans-31" x="83.789062"/>
       <use xlink:href="#DejaVuSans-2e" x="147.412109"/>
       <use xlink:href="#DejaVuSans-30" x="179.199219"/>
      </g>
     </g>
    </g>
    <g id="ytick_2">
     <g id="line2d_8">
      <g>
       <use xlink:href="#m4506b7b294" x="90" y="184.602972" style="stroke: #000000; stroke-width: 0.8"/>
      </g>
     </g>
     <g id="text_8">
      <!-- −0.5 -->
      <g transform="translate(58.717187 188.40219) scale(0.1 -0.1)">
       <use xlink:href="#DejaVuSans-2212"/>
       <use xlink:href="#DejaVuSans-30" x="83.789062"/>
       <use xlink:href="#DejaVuSans-2e" x="147.412109"/>
       <use xlink:href="#DejaVuSans-35" x="179.199219"/>
      </g>
     </g>
    </g>
    <g id="ytick_3">
     <g id="line2d_9">
      <g>
       <use xlink:href="#m4506b7b294" x="90" y="142.536011" style="stroke: #000000; stroke-width: 0.8"/>
      </g>
     </g>
     <g id="text_9">
      <!-- 0.0 -->
      <g transform="translate(67.096875 146.33523) scale(0.1 -0.1)">
       <use xlink:href="#DejaVuSans-30"/>
       <use xlink:href="#DejaVuSans-2e" x="63.623047"/>
       <use xlink:href="#DejaVuSans-30" x="95.410156"/>
      </g>
     </g>
    </g>
    <g id="ytick_4">
     <g id="line2d_10">
      <g>
       <use xlink:href="#m4506b7b294" x="90" y="100.469051" style="stroke: #000000; stroke-width: 0.8"/>
      </g>
     </g>
     <g id="text_10">
      <!-- 0.5 -->
      <g transform="translate(67.096875 104.268269) scale(0.1 -0.1)">
       <use xlink:href="#DejaVuSans-30"/>
       <use xlink:href="#DejaVuSans-2e" x="63.623047"/>
       <use xlink:href="#DejaVuSans-35" x="95.410156"/>
      </g>
     </g>
    </g>
    <g id="ytick_5">
     <g id="line2d_11">
      <g>
       <use xlink:href="#m4506b7b294" x="90" y="58.40209" style="stroke: #000000; stroke-width: 0.8"/>
      </g>
     </g>
     <g id="text_11">
      <!-- 1.0 -->
      <g transform="translate(67.096875 62.201309) scale(0.1 -0.1)">
       <use xlink:href="#DejaVuSans-31"/>
       <use xlink:href="#DejaVuSans-2e" x="63.623047"/>
       <use xlink:href="#DejaVuSans-30" x="95.410156"/>
      </g>
     </g>
    </g>
    <g id="text_12">
     <!-- 1e−5 -->
     <g transform="translate(90 31.56) scale(0.1 -0.1)">
      <defs>
       <path id="DejaVuSans-65" d="M 3597 1894 
L 3597 1613 
L 953 1613 
Q 991 1019 1311 708 
Q 1631 397 2203 397 
Q 2534 397 2845 478 
Q 3156 559 3463 722 
L 3463 178 
Q 3153 47 2828 -22 
Q 2503 -91 2169 -91 
Q 1331 -91 842 396 
Q 353 884 353 1716 
Q 353 2575 817 3079 
Q 1281 3584 2069 3584 
Q 2775 3584 3186 3129 
Q 3597 2675 3597 1894 
z
M 3022 2063 
Q 3016 2534 2758 2815 
Q 2500 3097 2075 3097 
Q 1594 3097 1305 2825 
Q 1016 2553 972 2059 
L 3022 2063 
z
" transform="scale(0.015625)"/>
      </defs>
      <use xlink:href="#DejaVuSans-31"/>
      <use xlink:href="#DejaVuSans-65" x="63.623047"/>
      <use xlink:href="#DejaVuSans-2212" x="125.146484"/>
      <use xlink:href="#DejaVuSans-35" x="208.935547"/>
     </g>
    </g>
   </g>
   <g id="line2d_12">
    <path d="M 115.363636 172.34771 
L 116.356342 105.211091 
L 117.349048 117.8923 
L 118.341754 201.216657 
L 119.33446 132.059524 
L 120.327166 93.219864 
L 121.319872 196.611224 
L 122.312578 137.795523 
L 123.305284 104.618411 
L 124.29799 193.803902 
L 125.290696 108.899037 
L 126.283402 143.019422 
L 127.276107 185.703449 
L 128.268813 65.178424 
L 129.261519 199.392291 
L 130.254225 164.017739 
L 131.246931 44.64 
L 132.239637 228.28989 
L 133.232343 134.459499 
L 134.225049 77.405804 
L 135.217755 216.190669 
L 136.210461 110.415755 
L 137.203167 123.776188 
L 138.195873 195.808594 
L 139.188579 100.812295 
L 140.181284 134.225069 
L 141.17399 200.165513 
L 142.166696 85.976131 
L 143.159402 151.652248 
L 144.152108 173.822251 
L 145.144814 104.285162 
L 146.13752 162.368166 
L 148.122932 129.824737 
L 149.115638 156.542564 
L 150.108344 139.30668 
L 151.10105 151.369076 
L 152.093756 131.789549 
L 153.086461 139.734888 
L 154.079167 163.490274 
L 155.071873 113.100296 
L 156.064579 148.831047 
L 157.057285 167.119937 
L 158.049991 115.113259 
L 159.042697 129.328752 
L 160.035403 185.604875 
L 162.020815 90.405446 
L 163.013521 181.662121 
L 164.006227 171.016762 
L 164.998933 71.313651 
L 165.991638 165.329669 
L 166.984344 190.200134 
L 167.97705 78.340454 
L 168.969756 160.184029 
L 169.962462 189.790312 
L 170.955168 89.87559 
L 171.947874 141.124196 
L 172.94058 203.70248 
L 173.933286 84.783192 
L 174.925992 130.936804 
L 175.918698 211.600641 
L 176.911404 81.62926 
L 177.90411 152.905461 
L 178.896816 181.053957 
L 179.889521 92.19451 
L 180.882227 155.04458 
L 181.874933 182.931536 
L 182.867639 92.635911 
L 183.860345 145.887843 
L 184.853051 181.638518 
L 185.845757 106.658317 
L 186.838463 146.535322 
L 187.831169 159.122265 
L 188.823875 120.299651 
L 189.816581 174.629777 
L 190.809287 110.627406 
L 191.801993 138.206508 
L 192.794698 191.221389 
L 193.787404 87.782067 
L 194.78011 155.749305 
L 195.772816 175.430746 
L 196.765522 87.059385 
L 197.758228 180.230678 
L 198.750934 159.377391 
L 199.74364 66.038866 
L 200.736346 213.466619 
L 201.729052 155.757557 
L 202.721758 50.903477 
L 203.714464 230.946454 
L 205.699875 56.981017 
L 206.692581 221.924151 
L 207.685287 130.932406 
L 208.677993 86.571211 
L 209.670699 206.219496 
L 210.663405 108.601842 
L 211.656111 132.907264 
L 212.648817 191.353333 
L 213.641523 81.400404 
L 214.634229 168.510702 
L 215.626935 181.073334 
L 216.619641 62.215395 
L 217.612347 180.35023 
L 218.605052 189.04706 
L 219.597758 59.081181 
L 220.590464 185.41711 
L 221.58317 189.654039 
L 222.575876 61.555893 
L 223.568582 191.746524 
L 224.561288 170.137704 
L 225.553994 68.002996 
L 226.5467 189.252362 
L 227.539406 152.063002 
L 228.532112 103.581011 
L 229.524818 174.284908 
L 230.517524 123.081477 
L 231.510229 161.618305 
L 232.502935 144.935016 
L 233.495641 105.310313 
L 234.488347 208.673181 
L 235.481053 113.404716 
L 236.473759 89.32091 
L 237.466465 237.516776 
L 238.459171 96.623223 
L 239.451877 89.082842 
L 240.444583 241.273057 
L 241.437289 97.070766 
L 242.429995 100.717229 
L 243.422701 219.352314 
L 244.415407 108.016822 
L 245.408112 110.379632 
L 246.400818 197.273448 
L 247.393524 111.333137 
L 248.38623 124.33356 
L 249.378936 190.475994 
L 250.371642 113.029913 
L 251.364348 128.358769 
L 252.357054 177.107599 
L 253.34976 115.417727 
L 255.335172 166.111961 
L 256.327878 115.844973 
L 257.320584 148.606462 
L 258.313289 171.171131 
L 259.305995 112.046059 
L 260.298701 149.241943 
L 261.291407 160.597127 
L 262.284113 129.297444 
L 263.276819 134.707846 
L 264.269525 151.008178 
L 265.262231 153.081597 
L 266.254937 123.061714 
L 267.247643 146.251805 
L 268.240349 166.191948 
L 269.233055 111.126895 
L 270.225761 155.754484 
L 271.218466 153.627727 
L 272.211172 106.871505 
L 273.203878 175.560489 
L 274.196584 132.470634 
L 275.18929 118.186239 
L 276.181996 178.88489 
L 277.174702 121.446014 
L 278.167408 133.05862 
L 279.160114 174.397982 
L 280.15282 112.165407 
L 281.145526 144.883716 
L 282.138232 171.589462 
L 283.130938 108.38314 
L 284.123643 152.53018 
L 285.116349 170.237477 
L 286.109055 104.861074 
L 287.101761 149.918116 
L 288.094467 174.771834 
L 289.087173 105.486315 
L 290.079879 146.782711 
L 291.072585 168.318219 
L 292.065291 117.46318 
L 293.057997 144.481974 
L 294.050703 160.270653 
L 295.043409 125.317627 
L 296.036115 145.873678 
L 297.02882 152.086706 
L 298.021526 129.124419 
L 299.014232 152.921485 
L 300.006938 145.375514 
L 300.999644 129.967766 
L 301.99235 155.959251 
L 302.985056 136.093515 
L 303.977762 136.368636 
L 304.970468 153.904926 
L 305.963174 130.57267 
L 306.95588 149.891186 
L 308.941292 132.271928 
L 309.933998 166.355193 
L 310.926703 126.945765 
L 311.919409 127.434924 
L 312.912115 176.093254 
L 313.904821 123.977362 
L 314.897527 126.43944 
L 315.890233 175.27063 
L 316.882939 127.046411 
L 317.875645 127.319305 
L 318.868351 171.552922 
L 319.861057 132.748564 
L 320.853763 121.978984 
L 321.846469 176.214806 
L 322.839175 125.566715 
L 323.83188 127.432627 
L 324.824586 176.144931 
L 325.817292 117.755413 
L 326.809998 136.849782 
L 327.802704 176.672916 
L 328.79541 107.535773 
L 329.788116 142.035103 
L 330.780822 184.107358 
L 331.773528 99.74832 
L 333.75894 182.411699 
L 334.751646 104.837667 
L 336.737057 179.747971 
L 337.729763 102.419808 
L 338.722469 141.879969 
L 339.715175 187.466068 
L 340.707881 99.870656 
L 341.700587 139.452201 
L 342.693293 183.640493 
L 343.685999 108.695729 
L 344.678705 134.692793 
L 345.671411 184.342656 
L 346.664117 110.162415 
L 347.656823 126.176704 
L 348.649529 193.404463 
L 349.642234 114.996043 
L 350.63494 113.250518 
L 351.627646 196.491069 
L 352.620352 124.879851 
L 353.613058 103.098325 
L 354.605764 195.59293 
L 355.59847 132.330399 
L 356.591176 102.973675 
L 357.583882 188.578289 
L 358.576588 136.131798 
L 359.569294 107.91408 
L 360.562 178.874988 
L 361.554706 138.658819 
L 362.547411 115.640222 
L 363.540117 171.619817 
L 364.532823 138.790103 
L 365.525529 119.057379 
L 366.518235 171.327944 
L 367.510941 136.296159 
L 368.503647 122.704322 
L 369.496353 160.097105 
L 370.489059 146.58634 
L 371.481765 126.303662 
L 372.474471 153.712752 
L 373.467177 146.400531 
L 374.459883 127.843261 
L 375.452589 156.918653 
L 376.445294 139.844405 
L 377.438 132.161286 
L 378.430706 148.547262 
L 379.423412 150.156535 
L 380.416118 128.754784 
L 381.408824 150.902725 
L 382.40153 148.766027 
L 383.394236 121.692246 
L 384.386942 165.158693 
L 385.379648 143.483459 
L 386.372354 108.262297 
L 387.36506 178.797502 
L 388.357766 147.101791 
L 389.350471 95.954319 
L 390.343177 190.44146 
L 392.328589 88.232104 
L 393.321295 205.966663 
L 394.314001 130.549291 
L 395.306707 89.494554 
L 396.299413 204.659091 
L 397.292119 137.252248 
L 398.284825 91.096291 
L 399.277531 194.924332 
L 400.270237 147.153929 
L 401.262943 86.114353 
L 402.255648 187.313217 
L 403.248354 159.16273 
L 404.24106 81.805606 
L 405.233766 179.845655 
L 406.226472 171.060405 
L 407.219178 75.428084 
L 408.211884 184.303408 
L 409.20459 165.237597 
L 410.197296 79.352301 
L 411.190002 191.475878 
L 412.182708 141.047212 
L 413.175414 99.66511 
L 414.16812 194.638045 
L 415.160825 119.440467 
L 416.153531 116.501647 
L 417.146237 196.463307 
L 418.138943 108.421902 
L 419.131649 131.99533 
L 420.124355 185.279126 
L 421.117061 106.970692 
L 423.102473 175.191705 
L 424.095179 106.142693 
L 425.087885 152.395473 
L 426.080591 164.879356 
L 427.073297 107.030681 
L 428.066002 162.926933 
L 429.058708 152.269368 
L 430.051414 115.922353 
L 431.04412 158.822604 
L 432.036826 151.301197 
L 433.029532 120.462502 
L 434.022238 154.342433 
L 435.014944 154.671766 
L 436.00765 114.306629 
L 437.000356 158.574303 
L 437.993062 156.442851 
L 438.985768 106.463408 
L 439.978474 169.864434 
L 440.97118 147.95156 
L 441.963885 109.047756 
L 442.956591 178.534161 
L 443.949297 134.792351 
L 444.942003 114.150193 
L 445.934709 180.984177 
L 446.927415 130.450465 
L 447.920121 117.51934 
L 448.912827 178.806344 
L 449.905533 132.850446 
L 450.898239 117.098695 
L 451.890945 172.516406 
L 453.876357 111.8007 
L 454.869062 166.016359 
L 455.861768 151.256619 
L 456.854474 116.353244 
L 457.84718 156.039443 
L 458.839886 151.44904 
L 459.832592 128.07729 
L 460.825298 147.487145 
L 461.818004 146.342385 
L 462.81071 132.317047 
L 463.803416 156.55579 
L 464.796122 134.622999 
L 465.788828 134.206312 
L 466.781534 161.099285 
L 467.774239 130.699118 
L 468.766945 144.332871 
L 469.759651 145.226608 
L 470.752357 137.897726 
L 471.745063 153.229533 
L 472.737769 127.086965 
L 473.730475 152.328272 
L 474.723181 146.871206 
L 475.715887 128.841686 
L 476.708593 150.296713 
L 477.701299 143.348368 
L 478.694005 137.914588 
L 479.686711 146.263859 
L 480.679416 140.721061 
L 481.672122 142.022185 
L 482.664828 148.288897 
L 483.657534 136.9364 
L 484.65024 142.994 
L 485.642946 143.174659 
L 486.635652 142.104836 
L 487.628358 148.102112 
L 488.621064 129.604693 
L 489.61377 147.855518 
L 490.606476 156.904609 
L 491.599182 128.397151 
L 492.591888 136.220607 
L 493.584593 159.341071 
L 494.577299 138.879293 
L 495.570005 129.719313 
L 496.562711 150.277417 
L 497.555417 150.229481 
L 498.548123 130.239674 
L 499.540829 143.950305 
L 500.533535 153.712981 
L 501.526241 126.483444 
L 502.518947 152.766914 
L 503.511653 146.80234 
L 504.504359 118.191665 
L 505.497065 173.656507 
L 506.489771 134.076928 
L 507.482476 114.524798 
L 508.475182 184.517015 
L 509.467888 126.935721 
L 510.460594 117.87615 
L 511.4533 181.223732 
L 512.446006 127.801997 
L 513.438712 126.428659 
L 514.431418 164.600091 
L 515.424124 135.351098 
L 516.41683 136.24484 
L 517.409536 147.146934 
L 518.402242 143.054719 
L 519.394948 151.19726 
L 520.387653 128.74648 
L 521.380359 141.910496 
L 522.373065 160.190631 
L 523.365771 129.231216 
L 524.358477 137.976067 
L 525.351183 152.921103 
L 526.343889 143.113426 
L 527.336595 131.746306 
L 528.329301 153.010583 
L 529.322007 145.304725 
L 530.314713 125.200013 
L 531.307419 157.498604 
L 532.300125 145.318681 
L 533.29283 125.398735 
L 534.285536 161.671814 
L 535.278242 134.695312 
L 536.270948 135.436843 
L 537.263654 156.412527 
L 538.25636 135.118412 
L 539.249066 141.173248 
L 540.241772 150.194608 
L 541.234478 140.222095 
L 542.227184 138.210255 
L 543.21989 147.431611 
L 544.212596 143.837089 
L 545.205302 134.321828 
L 546.198007 146.071402 
L 547.190713 147.012868 
L 548.183419 131.411898 
L 549.176125 146.296135 
L 550.168831 149.208359 
L 551.161537 131.773533 
L 552.154243 142.819691 
L 553.146949 147.99734 
L 554.139655 145.181537 
L 555.132361 132.299736 
L 556.125067 149.504881 
L 557.117773 147.233703 
L 558.110479 126.116201 
L 559.103184 156.976129 
L 560.09589 149.120195 
L 561.088596 112.865715 
L 562.081302 166.676788 
L 563.074008 153.885171 
L 564.066714 109.016516 
L 565.05942 164.781701 
L 566.052126 148.255514 
L 567.044832 119.281445 
L 568.037538 162.311774 
L 569.030244 143.187175 
L 570.02295 121.435588 
L 571.015656 161.517135 
L 572.008362 148.925816 
L 573.001067 113.733931 
L 573.993773 163.104302 
L 574.986479 154.245795 
L 575.979185 104.14854 
L 576.971891 175.132208 
L 577.964597 147.455026 
L 578.957303 98.430558 
L 579.950009 189.569992 
L 581.935421 94.519605 
L 582.928127 192.24152 
L 583.920833 136.76448 
L 584.913539 108.808757 
L 585.906244 175.218281 
L 586.89895 137.525468 
L 587.891656 126.827973 
L 588.884362 151.973646 
L 589.877068 149.838763 
L 590.869774 135.50559 
L 591.86248 136.285079 
L 592.855186 149.407764 
L 593.847892 147.223521 
L 595.833304 133.558837 
L 596.82601 149.138189 
L 597.818716 152.521271 
L 598.811421 124.631496 
L 599.804127 145.591518 
L 600.796833 158.594611 
L 601.789539 126.333371 
L 603.774951 159.15306 
L 604.767657 127.156131 
L 605.760363 143.111054 
L 606.753069 157.220059 
L 607.745775 121.839154 
L 608.738481 147.33091 
L 609.731187 168.307844 
L 610.723893 111.170666 
L 611.716598 141.833046 
L 612.709304 184.657317 
L 613.70201 109.132797 
L 614.694716 123.390086 
L 615.687422 198.666541 
L 616.680128 116.286369 
L 617.672834 93.03584 
L 618.66554 228.349325 
L 619.658246 108.051085 
L 620.650952 79.261279 
L 621.643658 246.24 
L 622.636364 91.72627 
L 622.636364 91.72627 
" clip-path="url(#pd1ffa64028)" style="fill: none; stroke: #1f77b4; stroke-width: 1.5; stroke-linecap: square"/>
   </g>
   <g id="patch_3">
    <path d="M 90 256.32 
L 90 34.56 
" style="fill: none; stroke: #000000; stroke-width: 0.8; stroke-linejoin: miter; stroke-linecap: square"/>
   </g>
   <g id="patch_4">
    <path d="M 648 256.32 
L 648 34.56 
" style="fill: none; stroke: #000000; stroke-width: 0.8; stroke-linejoin: miter; stroke-linecap: square"/>
   </g>
   <g id="patch_5">
    <path d="M 90 256.32 
L 648 256.32 
" style="fill: none; stroke: #000000; stroke-width: 0.8; stroke-linejoin: miter; stroke-linecap: square"/>
   </g>
   <g id="patch_6">
    <path d="M 90 34.56 
L 648 34.56 
" style="fill: none; stroke: #000000; stroke-width: 0.8; stroke-linejoin: miter; stroke-linecap: square"/>
   </g>
   <g id="text_13">
    <!-- K is now at 3 -->
    <g transform="translate(330.418125 28.56) scale(0.12 -0.12)">
     <defs>
      <path id="DejaVuSans-4b" d="M 628 4666 
L 1259 4666 
L 1259 2694 
L 3353 4666 
L 4166 4666 
L 1850 2491 
L 4331 0 
L 3500 0 
L 1259 2247 
L 1259 0 
L 628 0 
L 628 4666 
z
" transform="scale(0.015625)"/>
      <path id="DejaVuSans-20" transform="scale(0.015625)"/>
      <path id="DejaVuSans-69" d="M 603 3500 
L 1178 3500 
L 1178 0 
L 603 0 
L 603 3500 
z
M 603 4863 
L 1178 4863 
L 1178 4134 
L 603 4134 
L 603 4863 
z
" transform="scale(0.015625)"/>
      <path id="DejaVuSans-73" d="M 2834 3397 
L 2834 2853 
Q 2591 2978 2328 3040 
Q 2066 3103 1784 3103 
Q 1356 3103 1142 2972 
Q 928 2841 928 2578 
Q 928 2378 1081 2264 
Q 1234 2150 1697 2047 
L 1894 2003 
Q 2506 1872 2764 1633 
Q 3022 1394 3022 966 
Q 3022 478 2636 193 
Q 2250 -91 1575 -91 
Q 1294 -91 989 -36 
Q 684 19 347 128 
L 347 722 
Q 666 556 975 473 
Q 1284 391 1588 391 
Q 1994 391 2212 530 
Q 2431 669 2431 922 
Q 2431 1156 2273 1281 
Q 2116 1406 1581 1522 
L 1381 1569 
Q 847 1681 609 1914 
Q 372 2147 372 2553 
Q 372 3047 722 3315 
Q 1072 3584 1716 3584 
Q 2034 3584 2315 3537 
Q 2597 3491 2834 3397 
z
" transform="scale(0.015625)"/>
      <path id="DejaVuSans-6e" d="M 3513 2113 
L 3513 0 
L 2938 0 
L 2938 2094 
Q 2938 2591 2744 2837 
Q 2550 3084 2163 3084 
Q 1697 3084 1428 2787 
Q 1159 2491 1159 1978 
L 1159 0 
L 581 0 
L 581 3500 
L 1159 3500 
L 1159 2956 
Q 1366 3272 1645 3428 
Q 1925 3584 2291 3584 
Q 2894 3584 3203 3211 
Q 3513 2838 3513 2113 
z
" transform="scale(0.015625)"/>
      <path id="DejaVuSans-6f" d="M 1959 3097 
Q 1497 3097 1228 2736 
Q 959 2375 959 1747 
Q 959 1119 1226 758 
Q 1494 397 1959 397 
Q 2419 397 2687 759 
Q 2956 1122 2956 1747 
Q 2956 2369 2687 2733 
Q 2419 3097 1959 3097 
z
M 1959 3584 
Q 2709 3584 3137 3096 
Q 3566 2609 3566 1747 
Q 3566 888 3137 398 
Q 2709 -91 1959 -91 
Q 1206 -91 779 398 
Q 353 888 353 1747 
Q 353 2609 779 3096 
Q 1206 3584 1959 3584 
z
" transform="scale(0.015625)"/>
      <path id="DejaVuSans-77" d="M 269 3500 
L 844 3500 
L 1563 769 
L 2278 3500 
L 2956 3500 
L 3675 769 
L 4391 3500 
L 4966 3500 
L 4050 0 
L 3372 0 
L 2619 2869 
L 1863 0 
L 1184 0 
L 269 3500 
z
" transform="scale(0.015625)"/>
      <path id="DejaVuSans-61" d="M 2194 1759 
Q 1497 1759 1228 1600 
Q 959 1441 959 1056 
Q 959 750 1161 570 
Q 1363 391 1709 391 
Q 2188 391 2477 730 
Q 2766 1069 2766 1631 
L 2766 1759 
L 2194 1759 
z
M 3341 1997 
L 3341 0 
L 2766 0 
L 2766 531 
Q 2569 213 2275 61 
Q 1981 -91 1556 -91 
Q 1019 -91 701 211 
Q 384 513 384 1019 
Q 384 1609 779 1909 
Q 1175 2209 1959 2209 
L 2766 2209 
L 2766 2266 
Q 2766 2663 2505 2880 
Q 2244 3097 1772 3097 
Q 1472 3097 1187 3025 
Q 903 2953 641 2809 
L 641 3341 
Q 956 3463 1253 3523 
Q 1550 3584 1831 3584 
Q 2591 3584 2966 3190 
Q 3341 2797 3341 1997 
z
" transform="scale(0.015625)"/>
      <path id="DejaVuSans-74" d="M 1172 4494 
L 1172 3500 
L 2356 3500 
L 2356 3053 
L 1172 3053 
L 1172 1153 
Q 1172 725 1289 603 
Q 1406 481 1766 481 
L 2356 481 
L 2356 0 
L 1766 0 
Q 1100 0 847 248 
Q 594 497 594 1153 
L 594 3053 
L 172 3053 
L 172 3500 
L 594 3500 
L 594 4494 
L 1172 4494 
z
" transform="scale(0.015625)"/>
     </defs>
     <use xlink:href="#DejaVuSans-4b"/>
     <use xlink:href="#DejaVuSans-20" x="65.576172"/>
     <use xlink:href="#DejaVuSans-69" x="97.363281"/>
     <use xlink:href="#DejaVuSans-73" x="125.146484"/>
     <use xlink:href="#DejaVuSans-20" x="177.246094"/>
     <use xlink:href="#DejaVuSans-6e" x="209.033203"/>
     <use xlink:href="#DejaVuSans-6f" x="272.412109"/>
     <use xlink:href="#DejaVuSans-77" x="333.59375"/>
     <use xlink:href="#DejaVuSans-20" x="415.380859"/>
     <use xlink:href="#DejaVuSans-61" x="447.167969"/>
     <use xlink:href="#DejaVuSans-74" x="508.447266"/>
     <use xlink:href="#DejaVuSans-20" x="547.65625"/>
     <use xlink:href="#DejaVuSans-33" x="579.443359"/>
    </g>
   </g>
  </g>
 </g>
 <defs>
  <clipPath id="pd1ffa64028">
   <rect x="90" y="34.56" width="558" height="221.76"/>
  </clipPath>
 </defs>
</svg>
