<?xml version="1.0" encoding="utf-8" standalone="no"?>
<!DOCTYPE svg PUBLIC "-//W3C//DTD SVG 1.1//EN"
  "http://www.w3.org/Graphics/SVG/1.1/DTD/svg11.dtd">
<svg xmlns:xlink="http://www.w3.org/1999/xlink" width="720pt" height="288pt" viewBox="0 0 720 288" xmlns="http://www.w3.org/2000/svg" version="1.1">
 <metadata>
  <rdf:RDF xmlns:dc="http://purl.org/dc/elements/1.1/" xmlns:cc="http://creativecommons.org/ns#" xmlns:rdf="http://www.w3.org/1999/02/22-rdf-syntax-ns#">
   <cc:Work>
    <dc:type rdf:resource="http://purl.org/dc/dcmitype/StillImage"/>
    <dc:date>2023-12-05T23:15:48.859561</dc:date>
    <dc:format>image/svg+xml</dc:format>
    <dc:creator>
     <cc:Agent>
      <dc:title>Matplotlib v3.6.2, https://matplotlib.org/</dc:title>
     </cc:Agent>
    </dc:creator>
   </cc:Work>
  </rdf:RDF>
 </metadata>
 <defs>
  <style type="text/css">*{stroke-linejoin: round; stroke-linecap: butt}</style>
 </defs>
 <g id="figure_1">
  <g id="patch_1">
   <path d="M 0 288 
L 720 288 
L 720 0 
L 0 0 
z
" style="fill: #ffffff"/>
  </g>
  <g id="axes_1">
   <g id="patch_2">
    <path d="M 90 256.32 
L 648 256.32 
L 648 34.56 
L 90 34.56 
z
" style="fill: #ffffff"/>
   </g>
   <g id="matplotlib.axis_1">
    <g id="xtick_1">
     <g id="line2d_1">
      <defs>
       <path id="m50ed60175b" d="M 0 0 
L 0 3.5 
" style="stroke: #000000; stroke-width: 0.8"/>
      </defs>
      <g>
       <use xlink:href="#m50ed60175b" x="115.363636" y="256.32" style="stroke: #000000; stroke-width: 0.8"/>
      </g>
     </g>
     <g id="text_1">
      <!-- 0 -->
      <g transform="translate(112.182386 270.918437) scale(0.1 -0.1)">
       <defs>
        <path id="DejaVuSans-30" d="M 2034 4250 
Q 1547 4250 1301 3770 
Q 1056 3291 1056 2328 
Q 1056 1369 1301 889 
Q 1547 409 2034 409 
Q 2525 409 2770 889 
Q 3016 1369 3016 2328 
Q 3016 3291 2770 3770 
Q 2525 4250 2034 4250 
z
M 2034 4750 
Q 2819 4750 3233 4129 
Q 3647 3509 3647 2328 
Q 3647 1150 3233 529 
Q 2819 -91 2034 -91 
Q 1250 -91 836 529 
Q 422 1150 422 2328 
Q 422 3509 836 4129 
Q 1250 4750 2034 4750 
z
" transform="scale(0.015625)"/>
       </defs>
       <use xlink:href="#DejaVuSans-30"/>
      </g>
     </g>
    </g>
    <g id="xtick_2">
     <g id="line2d_2">
      <g>
       <use xlink:href="#m50ed60175b" x="214.634229" y="256.32" style="stroke: #000000; stroke-width: 0.8"/>
      </g>
     </g>
     <g id="text_2">
      <!-- 100 -->
      <g transform="translate(205.090479 270.918437) scale(0.1 -0.1)">
       <defs>
        <path id="DejaVuSans-31" d="M 794 531 
L 1825 531 
L 1825 4091 
L 703 3866 
L 703 4441 
L 1819 4666 
L 2450 4666 
L 2450 531 
L 3481 531 
L 3481 0 
L 794 0 
L 794 531 
z
" transform="scale(0.015625)"/>
       </defs>
       <use xlink:href="#DejaVuSans-31"/>
       <use xlink:href="#DejaVuSans-30" x="63.623047"/>
       <use xlink:href="#DejaVuSans-30" x="127.246094"/>
      </g>
     </g>
    </g>
    <g id="xtick_3">
     <g id="line2d_3">
      <g>
       <use xlink:href="#m50ed60175b" x="313.904821" y="256.32" style="stroke: #000000; stroke-width: 0.8"/>
      </g>
     </g>
     <g id="text_3">
      <!-- 200 -->
      <g transform="translate(304.361071 270.918437) scale(0.1 -0.1)">
       <defs>
        <path id="DejaVuSans-32" d="M 1228 531 
L 3431 531 
L 3431 0 
L 469 0 
L 469 531 
Q 828 903 1448 1529 
Q 2069 2156 2228 2338 
Q 2531 2678 2651 2914 
Q 2772 3150 2772 3378 
Q 2772 3750 2511 3984 
Q 2250 4219 1831 4219 
Q 1534 4219 1204 4116 
Q 875 4013 500 3803 
L 500 4441 
Q 881 4594 1212 4672 
Q 1544 4750 1819 4750 
Q 2544 4750 2975 4387 
Q 3406 4025 3406 3419 
Q 3406 3131 3298 2873 
Q 3191 2616 2906 2266 
Q 2828 2175 2409 1742 
Q 1991 1309 1228 531 
z
" transform="scale(0.015625)"/>
       </defs>
       <use xlink:href="#DejaVuSans-32"/>
       <use xlink:href="#DejaVuSans-30" x="63.623047"/>
       <use xlink:href="#DejaVuSans-30" x="127.246094"/>
      </g>
     </g>
    </g>
    <g id="xtick_4">
     <g id="line2d_4">
      <g>
       <use xlink:href="#m50ed60175b" x="413.175414" y="256.32" style="stroke: #000000; stroke-width: 0.8"/>
      </g>
     </g>
     <g id="text_4">
      <!-- 300 -->
      <g transform="translate(403.631664 270.918437) scale(0.1 -0.1)">
       <defs>
        <path id="DejaVuSans-33" d="M 2597 2516 
Q 3050 2419 3304 2112 
Q 3559 1806 3559 1356 
Q 3559 666 3084 287 
Q 2609 -91 1734 -91 
Q 1441 -91 1130 -33 
Q 819 25 488 141 
L 488 750 
Q 750 597 1062 519 
Q 1375 441 1716 441 
Q 2309 441 2620 675 
Q 2931 909 2931 1356 
Q 2931 1769 2642 2001 
Q 2353 2234 1838 2234 
L 1294 2234 
L 1294 2753 
L 1863 2753 
Q 2328 2753 2575 2939 
Q 2822 3125 2822 3475 
Q 2822 3834 2567 4026 
Q 2313 4219 1838 4219 
Q 1578 4219 1281 4162 
Q 984 4106 628 3988 
L 628 4550 
Q 988 4650 1302 4700 
Q 1616 4750 1894 4750 
Q 2613 4750 3031 4423 
Q 3450 4097 3450 3541 
Q 3450 3153 3228 2886 
Q 3006 2619 2597 2516 
z
" transform="scale(0.015625)"/>
       </defs>
       <use xlink:href="#DejaVuSans-33"/>
       <use xlink:href="#DejaVuSans-30" x="63.623047"/>
       <use xlink:href="#DejaVuSans-30" x="127.246094"/>
      </g>
     </g>
    </g>
    <g id="xtick_5">
     <g id="line2d_5">
      <g>
       <use xlink:href="#m50ed60175b" x="512.446006" y="256.32" style="stroke: #000000; stroke-width: 0.8"/>
      </g>
     </g>
     <g id="text_5">
      <!-- 400 -->
      <g transform="translate(502.902256 270.918437) scale(0.1 -0.1)">
       <defs>
        <path id="DejaVuSans-34" d="M 2419 4116 
L 825 1625 
L 2419 1625 
L 2419 4116 
z
M 2253 4666 
L 3047 4666 
L 3047 1625 
L 3713 1625 
L 3713 1100 
L 3047 1100 
L 3047 0 
L 2419 0 
L 2419 1100 
L 313 1100 
L 313 1709 
L 2253 4666 
z
" transform="scale(0.015625)"/>
       </defs>
       <use xlink:href="#DejaVuSans-34"/>
       <use xlink:href="#DejaVuSans-30" x="63.623047"/>
       <use xlink:href="#DejaVuSans-30" x="127.246094"/>
      </g>
     </g>
    </g>
    <g id="xtick_6">
     <g id="line2d_6">
      <g>
       <use xlink:href="#m50ed60175b" x="611.716598" y="256.32" style="stroke: #000000; stroke-width: 0.8"/>
      </g>
     </g>
     <g id="text_6">
      <!-- 500 -->
      <g transform="translate(602.172848 270.918437) scale(0.1 -0.1)">
       <defs>
        <path id="DejaVuSans-35" d="M 691 4666 
L 3169 4666 
L 3169 4134 
L 1269 4134 
L 1269 2991 
Q 1406 3038 1543 3061 
Q 1681 3084 1819 3084 
Q 2600 3084 3056 2656 
Q 3513 2228 3513 1497 
Q 3513 744 3044 326 
Q 2575 -91 1722 -91 
Q 1428 -91 1123 -41 
Q 819 9 494 109 
L 494 744 
Q 775 591 1075 516 
Q 1375 441 1709 441 
Q 2250 441 2565 725 
Q 2881 1009 2881 1497 
Q 2881 1984 2565 2268 
Q 2250 2553 1709 2553 
Q 1456 2553 1204 2497 
Q 953 2441 691 2322 
L 691 4666 
z
" transform="scale(0.015625)"/>
       </defs>
       <use xlink:href="#DejaVuSans-35"/>
       <use xlink:href="#DejaVuSans-30" x="63.623047"/>
       <use xlink:href="#DejaVuSans-30" x="127.246094"/>
      </g>
     </g>
    </g>
   </g>
   <g id="matplotlib.axis_2">
    <g id="ytick_1">
     <g id="line2d_7">
      <defs>
       <path id="md6446257c5" d="M 0 0 
L -3.5 0 
" style="stroke: #000000; stroke-width: 0.8"/>
      </defs>
      <g>
       <use xlink:href="#md6446257c5" x="90" y="234.043542" style="stroke: #000000; stroke-width: 0.8"/>
      </g>
     </g>
     <g id="text_7">
      <!-- −0.00082 -->
      <g transform="translate(33.267187 237.84276) scale(0.1 -0.1)">
       <defs>
        <path id="DejaVuSans-2212" d="M 678 2272 
L 4684 2272 
L 4684 1741 
L 678 1741 
L 678 2272 
z
" transform="scale(0.015625)"/>
        <path id="DejaVuSans-2e" d="M 684 794 
L 1344 794 
L 1344 0 
L 684 0 
L 684 794 
z
" transform="scale(0.015625)"/>
        <path id="DejaVuSans-38" d="M 2034 2216 
Q 1584 2216 1326 1975 
Q 1069 1734 1069 1313 
Q 1069 891 1326 650 
Q 1584 409 2034 409 
Q 2484 409 2743 651 
Q 3003 894 3003 1313 
Q 3003 1734 2745 1975 
Q 2488 2216 2034 2216 
z
M 1403 2484 
Q 997 2584 770 2862 
Q 544 3141 544 3541 
Q 544 4100 942 4425 
Q 1341 4750 2034 4750 
Q 2731 4750 3128 4425 
Q 3525 4100 3525 3541 
Q 3525 3141 3298 2862 
Q 3072 2584 2669 2484 
Q 3125 2378 3379 2068 
Q 3634 1759 3634 1313 
Q 3634 634 3220 271 
Q 2806 -91 2034 -91 
Q 1263 -91 848 271 
Q 434 634 434 1313 
Q 434 1759 690 2068 
Q 947 2378 1403 2484 
z
M 1172 3481 
Q 1172 3119 1398 2916 
Q 1625 2713 2034 2713 
Q 2441 2713 2670 2916 
Q 2900 3119 2900 3481 
Q 2900 3844 2670 4047 
Q 2441 4250 2034 4250 
Q 1625 4250 1398 4047 
Q 1172 3844 1172 3481 
z
" transform="scale(0.015625)"/>
       </defs>
       <use xlink:href="#DejaVuSans-2212"/>
       <use xlink:href="#DejaVuSans-30" x="83.789062"/>
       <use xlink:href="#DejaVuSans-2e" x="147.412109"/>
       <use xlink:href="#DejaVuSans-30" x="179.199219"/>
       <use xlink:href="#DejaVuSans-30" x="242.822266"/>
       <use xlink:href="#DejaVuSans-30" x="306.445312"/>
       <use xlink:href="#DejaVuSans-38" x="370.068359"/>
       <use xlink:href="#DejaVuSans-32" x="433.691406"/>
      </g>
     </g>
    </g>
    <g id="ytick_2">
     <g id="line2d_8">
      <g>
       <use xlink:href="#md6446257c5" x="90" y="191.334354" style="stroke: #000000; stroke-width: 0.8"/>
      </g>
     </g>
     <g id="text_8">
      <!-- −0.00080 -->
      <g transform="translate(33.267187 195.133573) scale(0.1 -0.1)">
       <use xlink:href="#DejaVuSans-2212"/>
       <use xlink:href="#DejaVuSans-30" x="83.789062"/>
       <use xlink:href="#DejaVuSans-2e" x="147.412109"/>
       <use xlink:href="#DejaVuSans-30" x="179.199219"/>
       <use xlink:href="#DejaVuSans-30" x="242.822266"/>
       <use xlink:href="#DejaVuSans-30" x="306.445312"/>
       <use xlink:href="#DejaVuSans-38" x="370.068359"/>
       <use xlink:href="#DejaVuSans-30" x="433.691406"/>
      </g>
     </g>
    </g>
    <g id="ytick_3">
     <g id="line2d_9">
      <g>
       <use xlink:href="#md6446257c5" x="90" y="148.625166" style="stroke: #000000; stroke-width: 0.8"/>
      </g>
     </g>
     <g id="text_9">
      <!-- −0.00078 -->
      <g transform="translate(33.267187 152.424385) scale(0.1 -0.1)">
       <defs>
        <path id="DejaVuSans-37" d="M 525 4666 
L 3525 4666 
L 3525 4397 
L 1831 0 
L 1172 0 
L 2766 4134 
L 525 4134 
L 525 4666 
z
" transform="scale(0.015625)"/>
       </defs>
       <use xlink:href="#DejaVuSans-2212"/>
       <use xlink:href="#DejaVuSans-30" x="83.789062"/>
       <use xlink:href="#DejaVuSans-2e" x="147.412109"/>
       <use xlink:href="#DejaVuSans-30" x="179.199219"/>
       <use xlink:href="#DejaVuSans-30" x="242.822266"/>
       <use xlink:href="#DejaVuSans-30" x="306.445312"/>
       <use xlink:href="#DejaVuSans-37" x="370.068359"/>
       <use xlink:href="#DejaVuSans-38" x="433.691406"/>
      </g>
     </g>
    </g>
    <g id="ytick_4">
     <g id="line2d_10">
      <g>
       <use xlink:href="#md6446257c5" x="90" y="105.915978" style="stroke: #000000; stroke-width: 0.8"/>
      </g>
     </g>
     <g id="text_10">
      <!-- −0.00076 -->
      <g transform="translate(33.267187 109.715197) scale(0.1 -0.1)">
       <defs>
        <path id="DejaVuSans-36" d="M 2113 2584 
Q 1688 2584 1439 2293 
Q 1191 2003 1191 1497 
Q 1191 994 1439 701 
Q 1688 409 2113 409 
Q 2538 409 2786 701 
Q 3034 994 3034 1497 
Q 3034 2003 2786 2293 
Q 2538 2584 2113 2584 
z
M 3366 4563 
L 3366 3988 
Q 3128 4100 2886 4159 
Q 2644 4219 2406 4219 
Q 1781 4219 1451 3797 
Q 1122 3375 1075 2522 
Q 1259 2794 1537 2939 
Q 1816 3084 2150 3084 
Q 2853 3084 3261 2657 
Q 3669 2231 3669 1497 
Q 3669 778 3244 343 
Q 2819 -91 2113 -91 
Q 1303 -91 875 529 
Q 447 1150 447 2328 
Q 447 3434 972 4092 
Q 1497 4750 2381 4750 
Q 2619 4750 2861 4703 
Q 3103 4656 3366 4563 
z
" transform="scale(0.015625)"/>
       </defs>
       <use xlink:href="#DejaVuSans-2212"/>
       <use xlink:href="#DejaVuSans-30" x="83.789062"/>
       <use xlink:href="#DejaVuSans-2e" x="147.412109"/>
       <use xlink:href="#DejaVuSans-30" x="179.199219"/>
       <use xlink:href="#DejaVuSans-30" x="242.822266"/>
       <use xlink:href="#DejaVuSans-30" x="306.445312"/>
       <use xlink:href="#DejaVuSans-37" x="370.068359"/>
       <use xlink:href="#DejaVuSans-36" x="433.691406"/>
      </g>
     </g>
    </g>
    <g id="ytick_5">
     <g id="line2d_11">
      <g>
       <use xlink:href="#md6446257c5" x="90" y="63.206791" style="stroke: #000000; stroke-width: 0.8"/>
      </g>
     </g>
     <g id="text_11">
      <!-- −0.00074 -->
      <g transform="translate(33.267187 67.006009) scale(0.1 -0.1)">
       <use xlink:href="#DejaVuSans-2212"/>
       <use xlink:href="#DejaVuSans-30" x="83.789062"/>
       <use xlink:href="#DejaVuSans-2e" x="147.412109"/>
       <use xlink:href="#DejaVuSans-30" x="179.199219"/>
       <use xlink:href="#DejaVuSans-30" x="242.822266"/>
       <use xlink:href="#DejaVuSans-30" x="306.445312"/>
       <use xlink:href="#DejaVuSans-37" x="370.068359"/>
       <use xlink:href="#DejaVuSans-34" x="433.691406"/>
      </g>
     </g>
    </g>
   </g>
   <g id="line2d_12">
    <path d="M 115.363636 179.571132 
L 116.356342 178.729729 
L 117.349048 178.561314 
L 118.341754 178.901739 
L 119.33446 177.835575 
L 121.319872 173.256605 
L 122.312578 170.360491 
L 124.29799 161.249988 
L 125.290696 155.982939 
L 127.276107 144.547005 
L 128.268813 139.197796 
L 130.254225 130.180471 
L 131.246931 126.603913 
L 132.239637 125.211881 
L 133.232343 124.116132 
L 134.225049 123.799409 
L 137.203167 125.451504 
L 139.188579 123.794885 
L 141.17399 121.051885 
L 142.166696 118.842055 
L 144.152108 116.247626 
L 146.13752 113.897447 
L 148.122932 110.16619 
L 149.115638 107.074067 
L 150.108344 102.236633 
L 151.10105 96.211578 
L 153.086461 82.614964 
L 155.071873 70.998905 
L 157.057285 61.972063 
L 158.049991 58.343807 
L 160.035403 52.243641 
L 161.028109 48.621145 
L 162.020815 45.985677 
L 163.013521 44.863693 
L 164.006227 44.64 
L 164.998933 45.428461 
L 165.991638 48.163958 
L 167.97705 55.72173 
L 168.969756 58.74647 
L 169.962462 60.584063 
L 170.955168 61.792212 
L 171.947874 62.030476 
L 173.933286 61.986549 
L 174.925992 62.235063 
L 175.918698 63.242953 
L 177.90411 63.067783 
L 178.896816 62.482523 
L 179.889521 62.796948 
L 180.882227 62.955026 
L 182.867639 62.899271 
L 183.860345 63.662431 
L 184.853051 64.905569 
L 186.838463 67.12572 
L 187.831169 69.026083 
L 189.816581 71.533123 
L 190.809287 72.742473 
L 191.801993 74.940561 
L 193.787404 79.662753 
L 194.78011 82.801756 
L 196.765522 91.002363 
L 197.758228 95.156112 
L 198.750934 99.998024 
L 201.729052 116.559773 
L 202.721758 120.725428 
L 203.714464 124.377872 
L 204.70717 126.703821 
L 205.699875 128.55569 
L 206.692581 131.217384 
L 207.685287 134.624443 
L 208.677993 138.954845 
L 209.670699 144.758794 
L 212.648817 165.621652 
L 214.634229 180.828598 
L 215.626935 188.756386 
L 216.619641 197.903523 
L 218.605052 218.158603 
L 219.597758 227.252577 
L 220.590464 234.924422 
L 221.58317 240.546294 
L 222.575876 243.505163 
L 223.568582 244.57992 
L 224.561288 244.368971 
L 225.553994 244.032341 
L 228.532112 245.566421 
L 229.524818 246.24 
L 230.517524 246.158847 
L 231.510229 245.253985 
L 232.502935 242.763798 
L 233.495641 238.741105 
L 234.488347 233.2337 
L 238.459171 206.434055 
L 242.429995 181.680583 
L 245.408112 162.182112 
L 246.400818 156.835529 
L 248.38623 148.857878 
L 250.371642 141.212504 
L 251.364348 137.867633 
L 252.357054 135.487377 
L 253.34976 133.883796 
L 254.342466 132.800054 
L 255.335172 131.904849 
L 256.327878 131.357201 
L 257.320584 130.136022 
L 258.313289 127.759786 
L 259.305995 123.923432 
L 260.298701 119.600781 
L 268.240349 77.075099 
L 270.225761 65.88656 
L 271.218466 61.707973 
L 272.211172 58.565306 
L 273.203878 56.843127 
L 274.196584 55.885022 
L 275.18929 56.065355 
L 276.181996 57.044062 
L 277.174702 58.396352 
L 279.160114 61.921932 
L 283.130938 70.385158 
L 284.123643 71.822042 
L 285.116349 72.589716 
L 287.101761 73.669269 
L 288.094467 74.035718 
L 289.087173 74.138181 
L 290.079879 74.583177 
L 292.065291 75.694161 
L 295.043409 76.653869 
L 297.02882 76.790376 
L 298.021526 76.629797 
L 299.014232 75.979632 
L 300.006938 74.798755 
L 301.99235 71.822562 
L 302.985056 70.495806 
L 303.977762 69.655529 
L 304.970468 69.423801 
L 305.963174 69.429265 
L 306.95588 69.926185 
L 308.941292 71.437727 
L 309.933998 71.831334 
L 310.926703 72.059049 
L 311.919409 72.685093 
L 313.904821 74.522241 
L 317.875645 79.155046 
L 319.861057 80.385531 
L 322.839175 80.803796 
L 323.83188 80.980009 
L 324.824586 81.364114 
L 327.802704 83.088073 
L 331.773528 86.609732 
L 333.75894 89.042316 
L 334.751646 90.231013 
L 336.737057 91.862101 
L 339.715175 95.24841 
L 340.707881 96.027463 
L 345.671411 101.153431 
L 346.664117 102.415898 
L 348.649529 105.261896 
L 350.63494 107.737449 
L 356.591176 116.251509 
L 358.576588 118.588058 
L 360.562 120.842146 
L 362.547411 123.235444 
L 365.525529 126.015531 
L 366.518235 126.707223 
L 367.510941 127.172951 
L 368.503647 128.092798 
L 370.489059 130.520591 
L 371.481765 131.389741 
L 374.459883 133.137565 
L 376.445294 133.92556 
L 377.438 134.92004 
L 378.430706 136.076086 
L 379.423412 137.543171 
L 380.416118 138.649279 
L 383.394236 141.489579 
L 385.379648 142.57687 
L 387.36506 144.223631 
L 388.357766 144.783492 
L 389.350471 144.891907 
L 392.328589 144.865046 
L 393.321295 144.990211 
L 394.314001 144.883213 
L 396.299413 145.542002 
L 397.292119 145.379589 
L 398.284825 144.777915 
L 399.277531 143.652098 
L 402.255648 139.739513 
L 404.24106 137.543671 
L 405.233766 136.54158 
L 406.226472 135.699337 
L 409.20459 131.601258 
L 410.197296 129.696932 
L 411.190002 128.185735 
L 412.182708 126.87856 
L 413.175414 125.903064 
L 414.16812 125.095874 
L 415.160825 124.607497 
L 417.146237 124.291133 
L 419.131649 122.649542 
L 423.102473 117.889194 
L 424.095179 117.067705 
L 425.087885 116.455538 
L 427.073297 115.551553 
L 428.066002 115.229413 
L 429.058708 114.556012 
L 431.04412 113.392994 
L 433.029532 112.015246 
L 434.022238 111.162946 
L 435.014944 110.597683 
L 436.00765 110.263222 
L 437.000356 110.171471 
L 438.985768 110.746179 
L 440.97118 111.877409 
L 441.963885 112.147765 
L 442.956591 112.246587 
L 443.949297 112.148224 
L 445.934709 112.269277 
L 448.912827 112.132572 
L 449.905533 111.846765 
L 451.890945 111.461671 
L 453.876357 111.011858 
L 455.861768 111.064321 
L 457.84718 110.664202 
L 458.839886 110.473303 
L 459.832592 110.085795 
L 460.825298 109.559193 
L 462.81071 109.47346 
L 465.788828 109.137794 
L 466.781534 109.185559 
L 468.766945 107.991311 
L 470.752357 106.419669 
L 471.745063 105.624253 
L 472.737769 104.522129 
L 473.730475 103.814054 
L 474.723181 102.853924 
L 475.715887 102.154017 
L 476.708593 101.887698 
L 477.701299 101.895584 
L 480.679416 102.313203 
L 481.672122 102.293332 
L 482.664828 101.974889 
L 483.657534 101.41875 
L 484.65024 101.123717 
L 487.628358 100.894467 
L 488.621064 101.09266 
L 489.61377 101.478333 
L 490.606476 101.186756 
L 491.599182 100.490918 
L 492.591888 99.973038 
L 493.584593 99.64015 
L 494.577299 99.126527 
L 495.570005 98.80103 
L 496.562711 98.914112 
L 498.548123 99.533362 
L 499.540829 99.821821 
L 502.518947 101.957163 
L 507.482476 107.644229 
L 508.475182 108.770748 
L 511.4533 111.167575 
L 513.438712 112.131044 
L 515.424124 113.55209 
L 517.409536 115.305828 
L 518.402242 115.905572 
L 519.394948 115.914564 
L 520.387653 115.618166 
L 522.373065 115.645485 
L 523.365771 115.192663 
L 526.343889 114.53125 
L 527.336595 113.795137 
L 530.314713 111.164909 
L 532.300125 109.69708 
L 534.285536 107.194026 
L 537.263654 102.422111 
L 538.25636 100.375913 
L 539.249066 97.963479 
L 540.241772 94.90366 
L 542.227184 87.706685 
L 544.212596 80.272979 
L 545.205302 77.024163 
L 546.198007 74.311783 
L 547.190713 72.218782 
L 548.183419 70.757984 
L 549.176125 69.951512 
L 550.168831 69.671077 
L 551.161537 69.889786 
L 553.146949 71.945838 
L 554.139655 73.041899 
L 556.125067 74.687439 
L 560.09589 79.294147 
L 562.081302 81.991228 
L 563.074008 82.753305 
L 564.066714 82.948888 
L 566.052126 83.581249 
L 567.044832 83.782601 
L 569.030244 83.765309 
L 571.015656 84.341207 
L 572.008362 84.65027 
L 573.001067 85.085175 
L 573.993773 85.672927 
L 574.986479 86.584931 
L 576.971891 88.128766 
L 578.957303 89.873692 
L 579.950009 90.559531 
L 581.935421 91.278697 
L 582.928127 92.118976 
L 584.913539 93.223613 
L 586.89895 94.944168 
L 589.877068 98.637218 
L 591.86248 100.661964 
L 592.855186 102.11565 
L 593.847892 103.009435 
L 595.833304 103.733273 
L 597.818716 104.687772 
L 598.811421 105.006478 
L 600.796833 106.240205 
L 601.789539 106.523579 
L 602.782245 106.441163 
L 603.774951 106.062643 
L 604.767657 105.311536 
L 605.760363 104.296668 
L 606.753069 103.469195 
L 607.745775 103.009386 
L 608.738481 102.268806 
L 609.731187 100.899151 
L 610.723893 99.132402 
L 611.716598 96.933389 
L 612.709304 93.816521 
L 614.694716 86.080689 
L 616.680128 77.875361 
L 617.672834 73.954233 
L 619.658246 67.652196 
L 620.650952 65.16756 
L 621.643658 63.954692 
L 622.636364 63.233621 
L 622.636364 63.233621 
" clip-path="url(#p49d87c7ba9)" style="fill: none; stroke: #1f77b4; stroke-width: 1.5; stroke-linecap: square"/>
   </g>
   <g id="patch_3">
    <path d="M 90 256.32 
L 90 34.56 
" style="fill: none; stroke: #000000; stroke-width: 0.8; stroke-linejoin: miter; stroke-linecap: square"/>
   </g>
   <g id="patch_4">
    <path d="M 648 256.32 
L 648 34.56 
" style="fill: none; stroke: #000000; stroke-width: 0.8; stroke-linejoin: miter; stroke-linecap: square"/>
   </g>
   <g id="patch_5">
    <path d="M 90 256.32 
L 648 256.32 
" style="fill: none; stroke: #000000; stroke-width: 0.8; stroke-linejoin: miter; stroke-linecap: square"/>
   </g>
   <g id="patch_6">
    <path d="M 90 34.56 
L 648 34.56 
" style="fill: none; stroke: #000000; stroke-width: 0.8; stroke-linejoin: miter; stroke-linecap: square"/>
   </g>
   <g id="text_12">
    <!-- K is now at 1 -->
    <g transform="translate(330.418125 28.56) scale(0.12 -0.12)">
     <defs>
      <path id="DejaVuSans-4b" d="M 628 4666 
L 1259 4666 
L 1259 2694 
L 3353 4666 
L 4166 4666 
L 1850 2491 
L 4331 0 
L 3500 0 
L 1259 2247 
L 1259 0 
L 628 0 
L 628 4666 
z
" transform="scale(0.015625)"/>
      <path id="DejaVuSans-20" transform="scale(0.015625)"/>
      <path id="DejaVuSans-69" d="M 603 3500 
L 1178 3500 
L 1178 0 
L 603 0 
L 603 3500 
z
M 603 4863 
L 1178 4863 
L 1178 4134 
L 603 4134 
L 603 4863 
z
" transform="scale(0.015625)"/>
      <path id="DejaVuSans-73" d="M 2834 3397 
L 2834 2853 
Q 2591 2978 2328 3040 
Q 2066 3103 1784 3103 
Q 1356 3103 1142 2972 
Q 928 2841 928 2578 
Q 928 2378 1081 2264 
Q 1234 2150 1697 2047 
L 1894 2003 
Q 2506 1872 2764 1633 
Q 3022 1394 3022 966 
Q 3022 478 2636 193 
Q 2250 -91 1575 -91 
Q 1294 -91 989 -36 
Q 684 19 347 128 
L 347 722 
Q 666 556 975 473 
Q 1284 391 1588 391 
Q 1994 391 2212 530 
Q 2431 669 2431 922 
Q 2431 1156 2273 1281 
Q 2116 1406 1581 1522 
L 1381 1569 
Q 847 1681 609 1914 
Q 372 2147 372 2553 
Q 372 3047 722 3315 
Q 1072 3584 1716 3584 
Q 2034 3584 2315 3537 
Q 2597 3491 2834 3397 
z
" transform="scale(0.015625)"/>
      <path id="DejaVuSans-6e" d="M 3513 2113 
L 3513 0 
L 2938 0 
L 2938 2094 
Q 2938 2591 2744 2837 
Q 2550 3084 2163 3084 
Q 1697 3084 1428 2787 
Q 1159 2491 1159 1978 
L 1159 0 
L 581 0 
L 581 3500 
L 1159 3500 
L 1159 2956 
Q 1366 3272 1645 3428 
Q 1925 3584 2291 3584 
Q 2894 3584 3203 3211 
Q 3513 2838 3513 2113 
z
" transform="scale(0.015625)"/>
      <path id="DejaVuSans-6f" d="M 1959 3097 
Q 1497 3097 1228 2736 
Q 959 2375 959 1747 
Q 959 1119 1226 758 
Q 1494 397 1959 397 
Q 2419 397 2687 759 
Q 2956 1122 2956 1747 
Q 2956 2369 2687 2733 
Q 2419 3097 1959 3097 
z
M 1959 3584 
Q 2709 3584 3137 3096 
Q 3566 2609 3566 1747 
Q 3566 888 3137 398 
Q 2709 -91 1959 -91 
Q 1206 -91 779 398 
Q 353 888 353 1747 
Q 353 2609 779 3096 
Q 1206 3584 1959 3584 
z
" transform="scale(0.015625)"/>
      <path id="DejaVuSans-77" d="M 269 3500 
L 844 3500 
L 1563 769 
L 2278 3500 
L 2956 3500 
L 3675 769 
L 4391 3500 
L 4966 3500 
L 4050 0 
L 3372 0 
L 2619 2869 
L 1863 0 
L 1184 0 
L 269 3500 
z
" transform="scale(0.015625)"/>
      <path id="DejaVuSans-61" d="M 2194 1759 
Q 1497 1759 1228 1600 
Q 959 1441 959 1056 
Q 959 750 1161 570 
Q 1363 391 1709 391 
Q 2188 391 2477 730 
Q 2766 1069 2766 1631 
L 2766 1759 
L 2194 1759 
z
M 3341 1997 
L 3341 0 
L 2766 0 
L 2766 531 
Q 2569 213 2275 61 
Q 1981 -91 1556 -91 
Q 1019 -91 701 211 
Q 384 513 384 1019 
Q 384 1609 779 1909 
Q 1175 2209 1959 2209 
L 2766 2209 
L 2766 2266 
Q 2766 2663 2505 2880 
Q 2244 3097 1772 3097 
Q 1472 3097 1187 3025 
Q 903 2953 641 2809 
L 641 3341 
Q 956 3463 1253 3523 
Q 1550 3584 1831 3584 
Q 2591 3584 2966 3190 
Q 3341 2797 3341 1997 
z
" transform="scale(0.015625)"/>
      <path id="DejaVuSans-74" d="M 1172 4494 
L 1172 3500 
L 2356 3500 
L 2356 3053 
L 1172 3053 
L 1172 1153 
Q 1172 725 1289 603 
Q 1406 481 1766 481 
L 2356 481 
L 2356 0 
L 1766 0 
Q 1100 0 847 248 
Q 594 497 594 1153 
L 594 3053 
L 172 3053 
L 172 3500 
L 594 3500 
L 594 4494 
L 1172 4494 
z
" transform="scale(0.015625)"/>
     </defs>
     <use xlink:href="#DejaVuSans-4b"/>
     <use xlink:href="#DejaVuSans-20" x="65.576172"/>
     <use xlink:href="#DejaVuSans-69" x="97.363281"/>
     <use xlink:href="#DejaVuSans-73" x="125.146484"/>
     <use xlink:href="#DejaVuSans-20" x="177.246094"/>
     <use xlink:href="#DejaVuSans-6e" x="209.033203"/>
     <use xlink:href="#DejaVuSans-6f" x="272.412109"/>
     <use xlink:href="#DejaVuSans-77" x="333.59375"/>
     <use xlink:href="#DejaVuSans-20" x="415.380859"/>
     <use xlink:href="#DejaVuSans-61" x="447.167969"/>
     <use xlink:href="#DejaVuSans-74" x="508.447266"/>
     <use xlink:href="#DejaVuSans-20" x="547.65625"/>
     <use xlink:href="#DejaVuSans-31" x="579.443359"/>
    </g>
   </g>
  </g>
 </g>
 <defs>
  <clipPath id="p49d87c7ba9">
   <rect x="90" y="34.56" width="558" height="221.76"/>
  </clipPath>
 </defs>
</svg>
