<?xml version="1.0" encoding="utf-8" standalone="no"?>
<!DOCTYPE svg PUBLIC "-//W3C//DTD SVG 1.1//EN"
  "http://www.w3.org/Graphics/SVG/1.1/DTD/svg11.dtd">
<svg xmlns:xlink="http://www.w3.org/1999/xlink" width="720pt" height="288pt" viewBox="0 0 720 288" xmlns="http://www.w3.org/2000/svg" version="1.1">
 <metadata>
  <rdf:RDF xmlns:dc="http://purl.org/dc/elements/1.1/" xmlns:cc="http://creativecommons.org/ns#" xmlns:rdf="http://www.w3.org/1999/02/22-rdf-syntax-ns#">
   <cc:Work>
    <dc:type rdf:resource="http://purl.org/dc/dcmitype/StillImage"/>
    <dc:date>2023-12-05T23:15:48.905443</dc:date>
    <dc:format>image/svg+xml</dc:format>
    <dc:creator>
     <cc:Agent>
      <dc:title>Matplotlib v3.6.2, https://matplotlib.org/</dc:title>
     </cc:Agent>
    </dc:creator>
   </cc:Work>
  </rdf:RDF>
 </metadata>
 <defs>
  <style type="text/css">*{stroke-linejoin: round; stroke-linecap: butt}</style>
 </defs>
 <g id="figure_1">
  <g id="patch_1">
   <path d="M 0 288 
L 720 288 
L 720 0 
L 0 0 
z
" style="fill: #ffffff"/>
  </g>
  <g id="axes_1">
   <g id="patch_2">
    <path d="M 90 256.32 
L 648 256.32 
L 648 34.56 
L 90 34.56 
z
" style="fill: #ffffff"/>
   </g>
   <g id="matplotlib.axis_1">
    <g id="xtick_1">
     <g id="line2d_1">
      <defs>
       <path id="m0126b5e687" d="M 0 0 
L 0 3.5 
" style="stroke: #000000; stroke-width: 0.8"/>
      </defs>
      <g>
       <use xlink:href="#m0126b5e687" x="115.363636" y="256.32" style="stroke: #000000; stroke-width: 0.8"/>
      </g>
     </g>
     <g id="text_1">
      <!-- 0 -->
      <g transform="translate(112.182386 270.918437) scale(0.1 -0.1)">
       <defs>
        <path id="DejaVuSans-30" d="M 2034 4250 
Q 1547 4250 1301 3770 
Q 1056 3291 1056 2328 
Q 1056 1369 1301 889 
Q 1547 409 2034 409 
Q 2525 409 2770 889 
Q 3016 1369 3016 2328 
Q 3016 3291 2770 3770 
Q 2525 4250 2034 4250 
z
M 2034 4750 
Q 2819 4750 3233 4129 
Q 3647 3509 3647 2328 
Q 3647 1150 3233 529 
Q 2819 -91 2034 -91 
Q 1250 -91 836 529 
Q 422 1150 422 2328 
Q 422 3509 836 4129 
Q 1250 4750 2034 4750 
z
" transform="scale(0.015625)"/>
       </defs>
       <use xlink:href="#DejaVuSans-30"/>
      </g>
     </g>
    </g>
    <g id="xtick_2">
     <g id="line2d_2">
      <g>
       <use xlink:href="#m0126b5e687" x="214.634229" y="256.32" style="stroke: #000000; stroke-width: 0.8"/>
      </g>
     </g>
     <g id="text_2">
      <!-- 100 -->
      <g transform="translate(205.090479 270.918437) scale(0.1 -0.1)">
       <defs>
        <path id="DejaVuSans-31" d="M 794 531 
L 1825 531 
L 1825 4091 
L 703 3866 
L 703 4441 
L 1819 4666 
L 2450 4666 
L 2450 531 
L 3481 531 
L 3481 0 
L 794 0 
L 794 531 
z
" transform="scale(0.015625)"/>
       </defs>
       <use xlink:href="#DejaVuSans-31"/>
       <use xlink:href="#DejaVuSans-30" x="63.623047"/>
       <use xlink:href="#DejaVuSans-30" x="127.246094"/>
      </g>
     </g>
    </g>
    <g id="xtick_3">
     <g id="line2d_3">
      <g>
       <use xlink:href="#m0126b5e687" x="313.904821" y="256.32" style="stroke: #000000; stroke-width: 0.8"/>
      </g>
     </g>
     <g id="text_3">
      <!-- 200 -->
      <g transform="translate(304.361071 270.918437) scale(0.1 -0.1)">
       <defs>
        <path id="DejaVuSans-32" d="M 1228 531 
L 3431 531 
L 3431 0 
L 469 0 
L 469 531 
Q 828 903 1448 1529 
Q 2069 2156 2228 2338 
Q 2531 2678 2651 2914 
Q 2772 3150 2772 3378 
Q 2772 3750 2511 3984 
Q 2250 4219 1831 4219 
Q 1534 4219 1204 4116 
Q 875 4013 500 3803 
L 500 4441 
Q 881 4594 1212 4672 
Q 1544 4750 1819 4750 
Q 2544 4750 2975 4387 
Q 3406 4025 3406 3419 
Q 3406 3131 3298 2873 
Q 3191 2616 2906 2266 
Q 2828 2175 2409 1742 
Q 1991 1309 1228 531 
z
" transform="scale(0.015625)"/>
       </defs>
       <use xlink:href="#DejaVuSans-32"/>
       <use xlink:href="#DejaVuSans-30" x="63.623047"/>
       <use xlink:href="#DejaVuSans-30" x="127.246094"/>
      </g>
     </g>
    </g>
    <g id="xtick_4">
     <g id="line2d_4">
      <g>
       <use xlink:href="#m0126b5e687" x="413.175414" y="256.32" style="stroke: #000000; stroke-width: 0.8"/>
      </g>
     </g>
     <g id="text_4">
      <!-- 300 -->
      <g transform="translate(403.631664 270.918437) scale(0.1 -0.1)">
       <defs>
        <path id="DejaVuSans-33" d="M 2597 2516 
Q 3050 2419 3304 2112 
Q 3559 1806 3559 1356 
Q 3559 666 3084 287 
Q 2609 -91 1734 -91 
Q 1441 -91 1130 -33 
Q 819 25 488 141 
L 488 750 
Q 750 597 1062 519 
Q 1375 441 1716 441 
Q 2309 441 2620 675 
Q 2931 909 2931 1356 
Q 2931 1769 2642 2001 
Q 2353 2234 1838 2234 
L 1294 2234 
L 1294 2753 
L 1863 2753 
Q 2328 2753 2575 2939 
Q 2822 3125 2822 3475 
Q 2822 3834 2567 4026 
Q 2313 4219 1838 4219 
Q 1578 4219 1281 4162 
Q 984 4106 628 3988 
L 628 4550 
Q 988 4650 1302 4700 
Q 1616 4750 1894 4750 
Q 2613 4750 3031 4423 
Q 3450 4097 3450 3541 
Q 3450 3153 3228 2886 
Q 3006 2619 2597 2516 
z
" transform="scale(0.015625)"/>
       </defs>
       <use xlink:href="#DejaVuSans-33"/>
       <use xlink:href="#DejaVuSans-30" x="63.623047"/>
       <use xlink:href="#DejaVuSans-30" x="127.246094"/>
      </g>
     </g>
    </g>
    <g id="xtick_5">
     <g id="line2d_5">
      <g>
       <use xlink:href="#m0126b5e687" x="512.446006" y="256.32" style="stroke: #000000; stroke-width: 0.8"/>
      </g>
     </g>
     <g id="text_5">
      <!-- 400 -->
      <g transform="translate(502.902256 270.918437) scale(0.1 -0.1)">
       <defs>
        <path id="DejaVuSans-34" d="M 2419 4116 
L 825 1625 
L 2419 1625 
L 2419 4116 
z
M 2253 4666 
L 3047 4666 
L 3047 1625 
L 3713 1625 
L 3713 1100 
L 3047 1100 
L 3047 0 
L 2419 0 
L 2419 1100 
L 313 1100 
L 313 1709 
L 2253 4666 
z
" transform="scale(0.015625)"/>
       </defs>
       <use xlink:href="#DejaVuSans-34"/>
       <use xlink:href="#DejaVuSans-30" x="63.623047"/>
       <use xlink:href="#DejaVuSans-30" x="127.246094"/>
      </g>
     </g>
    </g>
    <g id="xtick_6">
     <g id="line2d_6">
      <g>
       <use xlink:href="#m0126b5e687" x="611.716598" y="256.32" style="stroke: #000000; stroke-width: 0.8"/>
      </g>
     </g>
     <g id="text_6">
      <!-- 500 -->
      <g transform="translate(602.172848 270.918437) scale(0.1 -0.1)">
       <defs>
        <path id="DejaVuSans-35" d="M 691 4666 
L 3169 4666 
L 3169 4134 
L 1269 4134 
L 1269 2991 
Q 1406 3038 1543 3061 
Q 1681 3084 1819 3084 
Q 2600 3084 3056 2656 
Q 3513 2228 3513 1497 
Q 3513 744 3044 326 
Q 2575 -91 1722 -91 
Q 1428 -91 1123 -41 
Q 819 9 494 109 
L 494 744 
Q 775 591 1075 516 
Q 1375 441 1709 441 
Q 2250 441 2565 725 
Q 2881 1009 2881 1497 
Q 2881 1984 2565 2268 
Q 2250 2553 1709 2553 
Q 1456 2553 1204 2497 
Q 953 2441 691 2322 
L 691 4666 
z
" transform="scale(0.015625)"/>
       </defs>
       <use xlink:href="#DejaVuSans-35"/>
       <use xlink:href="#DejaVuSans-30" x="63.623047"/>
       <use xlink:href="#DejaVuSans-30" x="127.246094"/>
      </g>
     </g>
    </g>
   </g>
   <g id="matplotlib.axis_2">
    <g id="ytick_1">
     <g id="line2d_7">
      <defs>
       <path id="m25daebf856" d="M 0 0 
L -3.5 0 
" style="stroke: #000000; stroke-width: 0.8"/>
      </defs>
      <g>
       <use xlink:href="#m25daebf856" x="90" y="248.22439" style="stroke: #000000; stroke-width: 0.8"/>
      </g>
     </g>
     <g id="text_7">
      <!-- −2.0 -->
      <g transform="translate(58.717187 252.023609) scale(0.1 -0.1)">
       <defs>
        <path id="DejaVuSans-2212" d="M 678 2272 
L 4684 2272 
L 4684 1741 
L 678 1741 
L 678 2272 
z
" transform="scale(0.015625)"/>
        <path id="DejaVuSans-2e" d="M 684 794 
L 1344 794 
L 1344 0 
L 684 0 
L 684 794 
z
" transform="scale(0.015625)"/>
       </defs>
       <use xlink:href="#DejaVuSans-2212"/>
       <use xlink:href="#DejaVuSans-32" x="83.789062"/>
       <use xlink:href="#DejaVuSans-2e" x="147.412109"/>
       <use xlink:href="#DejaVuSans-30" x="179.199219"/>
      </g>
     </g>
    </g>
    <g id="ytick_2">
     <g id="line2d_8">
      <g>
       <use xlink:href="#m25daebf856" x="90" y="221.697445" style="stroke: #000000; stroke-width: 0.8"/>
      </g>
     </g>
     <g id="text_8">
      <!-- −1.5 -->
      <g transform="translate(58.717187 225.496664) scale(0.1 -0.1)">
       <use xlink:href="#DejaVuSans-2212"/>
       <use xlink:href="#DejaVuSans-31" x="83.789062"/>
       <use xlink:href="#DejaVuSans-2e" x="147.412109"/>
       <use xlink:href="#DejaVuSans-35" x="179.199219"/>
      </g>
     </g>
    </g>
    <g id="ytick_3">
     <g id="line2d_9">
      <g>
       <use xlink:href="#m25daebf856" x="90" y="195.170501" style="stroke: #000000; stroke-width: 0.8"/>
      </g>
     </g>
     <g id="text_9">
      <!-- −1.0 -->
      <g transform="translate(58.717187 198.96972) scale(0.1 -0.1)">
       <use xlink:href="#DejaVuSans-2212"/>
       <use xlink:href="#DejaVuSans-31" x="83.789062"/>
       <use xlink:href="#DejaVuSans-2e" x="147.412109"/>
       <use xlink:href="#DejaVuSans-30" x="179.199219"/>
      </g>
     </g>
    </g>
    <g id="ytick_4">
     <g id="line2d_10">
      <g>
       <use xlink:href="#m25daebf856" x="90" y="168.643556" style="stroke: #000000; stroke-width: 0.8"/>
      </g>
     </g>
     <g id="text_10">
      <!-- −0.5 -->
      <g transform="translate(58.717187 172.442775) scale(0.1 -0.1)">
       <use xlink:href="#DejaVuSans-2212"/>
       <use xlink:href="#DejaVuSans-30" x="83.789062"/>
       <use xlink:href="#DejaVuSans-2e" x="147.412109"/>
       <use xlink:href="#DejaVuSans-35" x="179.199219"/>
      </g>
     </g>
    </g>
    <g id="ytick_5">
     <g id="line2d_11">
      <g>
       <use xlink:href="#m25daebf856" x="90" y="142.116611" style="stroke: #000000; stroke-width: 0.8"/>
      </g>
     </g>
     <g id="text_11">
      <!-- 0.0 -->
      <g transform="translate(67.096875 145.91583) scale(0.1 -0.1)">
       <use xlink:href="#DejaVuSans-30"/>
       <use xlink:href="#DejaVuSans-2e" x="63.623047"/>
       <use xlink:href="#DejaVuSans-30" x="95.410156"/>
      </g>
     </g>
    </g>
    <g id="ytick_6">
     <g id="line2d_12">
      <g>
       <use xlink:href="#m25daebf856" x="90" y="115.589667" style="stroke: #000000; stroke-width: 0.8"/>
      </g>
     </g>
     <g id="text_12">
      <!-- 0.5 -->
      <g transform="translate(67.096875 119.388886) scale(0.1 -0.1)">
       <use xlink:href="#DejaVuSans-30"/>
       <use xlink:href="#DejaVuSans-2e" x="63.623047"/>
       <use xlink:href="#DejaVuSans-35" x="95.410156"/>
      </g>
     </g>
    </g>
    <g id="ytick_7">
     <g id="line2d_13">
      <g>
       <use xlink:href="#m25daebf856" x="90" y="89.062722" style="stroke: #000000; stroke-width: 0.8"/>
      </g>
     </g>
     <g id="text_13">
      <!-- 1.0 -->
      <g transform="translate(67.096875 92.861941) scale(0.1 -0.1)">
       <use xlink:href="#DejaVuSans-31"/>
       <use xlink:href="#DejaVuSans-2e" x="63.623047"/>
       <use xlink:href="#DejaVuSans-30" x="95.410156"/>
      </g>
     </g>
    </g>
    <g id="ytick_8">
     <g id="line2d_14">
      <g>
       <use xlink:href="#m25daebf856" x="90" y="62.535778" style="stroke: #000000; stroke-width: 0.8"/>
      </g>
     </g>
     <g id="text_14">
      <!-- 1.5 -->
      <g transform="translate(67.096875 66.334996) scale(0.1 -0.1)">
       <use xlink:href="#DejaVuSans-31"/>
       <use xlink:href="#DejaVuSans-2e" x="63.623047"/>
       <use xlink:href="#DejaVuSans-35" x="95.410156"/>
      </g>
     </g>
    </g>
    <g id="ytick_9">
     <g id="line2d_15">
      <g>
       <use xlink:href="#m25daebf856" x="90" y="36.008833" style="stroke: #000000; stroke-width: 0.8"/>
      </g>
     </g>
     <g id="text_15">
      <!-- 2.0 -->
      <g transform="translate(67.096875 39.808052) scale(0.1 -0.1)">
       <use xlink:href="#DejaVuSans-32"/>
       <use xlink:href="#DejaVuSans-2e" x="63.623047"/>
       <use xlink:href="#DejaVuSans-30" x="95.410156"/>
      </g>
     </g>
    </g>
    <g id="text_16">
     <!-- 1e−5 -->
     <g transform="translate(90 31.56) scale(0.1 -0.1)">
      <defs>
       <path id="DejaVuSans-65" d="M 3597 1894 
L 3597 1613 
L 953 1613 
Q 991 1019 1311 708 
Q 1631 397 2203 397 
Q 2534 397 2845 478 
Q 3156 559 3463 722 
L 3463 178 
Q 3153 47 2828 -22 
Q 2503 -91 2169 -91 
Q 1331 -91 842 396 
Q 353 884 353 1716 
Q 353 2575 817 3079 
Q 1281 3584 2069 3584 
Q 2775 3584 3186 3129 
Q 3597 2675 3597 1894 
z
M 3022 2063 
Q 3016 2534 2758 2815 
Q 2500 3097 2075 3097 
Q 1594 3097 1305 2825 
Q 1016 2553 972 2059 
L 3022 2063 
z
" transform="scale(0.015625)"/>
      </defs>
      <use xlink:href="#DejaVuSans-31"/>
      <use xlink:href="#DejaVuSans-65" x="63.623047"/>
      <use xlink:href="#DejaVuSans-2212" x="125.146484"/>
      <use xlink:href="#DejaVuSans-35" x="208.935547"/>
     </g>
    </g>
   </g>
   <g id="line2d_16">
    <path d="M 115.363636 129.705417 
L 116.356342 129.083197 
L 117.349048 149.156143 
L 118.341754 173.898556 
L 119.33446 162.759012 
L 120.327166 126.867311 
L 121.319872 114.433453 
L 122.312578 134.911485 
L 123.305284 161.306036 
L 124.29799 174.042721 
L 125.290696 158.209981 
L 126.283402 126.674009 
L 127.276107 112.98997 
L 128.268813 126.104057 
L 129.261519 151.441576 
L 130.254225 159.439755 
L 131.246931 151.036473 
L 132.239637 140.288248 
L 133.232343 119.22135 
L 134.225049 107.812104 
L 135.217755 125.874438 
L 136.210461 162.537995 
L 137.203167 187.272188 
L 138.195873 171.8644 
L 139.188579 136.12614 
L 140.181284 105.96483 
L 141.17399 105.495723 
L 142.166696 134.384708 
L 143.159402 178.765397 
L 144.152108 191.76102 
L 145.144814 152.518779 
L 146.13752 94.181178 
L 147.130226 76.135496 
L 148.122932 128.938867 
L 149.115638 204.160653 
L 150.108344 227.055693 
L 151.10105 176.41114 
L 152.093756 97.915421 
L 153.086461 63.413427 
L 154.079167 99.304359 
L 155.071873 164.916834 
L 156.064579 201.229883 
L 157.057285 177.031679 
L 158.049991 128.504487 
L 159.042697 99.825137 
L 160.035403 103.631949 
L 161.028109 135.776795 
L 162.020815 181.398902 
L 163.013521 199.423849 
L 164.006227 155.577153 
L 164.998933 81.224754 
L 165.991638 53.664431 
L 166.984344 104.069475 
L 167.97705 188.657129 
L 168.969756 238.921327 
L 169.962462 211.215478 
L 170.955168 129.70661 
L 171.947874 58.13516 
L 172.94058 59.500334 
L 173.933286 133.933729 
L 174.925992 218.266752 
L 175.918698 235.38145 
L 176.911404 157.171567 
L 177.90411 64.481245 
L 178.896816 50.4811 
L 180.882227 221.390986 
L 181.874933 220.942042 
L 182.867639 140.85801 
L 183.860345 70.245858 
L 184.853051 74.65903 
L 186.838463 198.848932 
L 187.831169 203.842956 
L 189.816581 92.149699 
L 190.809287 94.447333 
L 191.801993 147.635666 
L 192.794698 182.444264 
L 193.787404 159.902465 
L 194.78011 122.317091 
L 195.772816 117.077083 
L 196.765522 142.926068 
L 197.758228 160.519779 
L 198.750934 151.073922 
L 199.74364 126.703572 
L 200.736346 113.808147 
L 201.729052 129.12671 
L 202.721758 167.815083 
L 203.714464 196.321667 
L 204.70717 175.289989 
L 205.699875 121.380808 
L 206.692581 87.717293 
L 207.685287 100.207336 
L 208.677993 144.270313 
L 209.670699 181.168394 
L 210.663405 175.014895 
L 211.656111 132.760291 
L 212.648817 101.543905 
L 213.641523 119.026101 
L 214.634229 164.916534 
L 215.626935 182.914266 
L 216.619641 153.422888 
L 217.612347 101.457308 
L 218.605052 76.700636 
L 219.597758 115.271734 
L 220.590464 196.586384 
L 221.58317 246.24 
L 222.575876 207.392962 
L 223.568582 110.947886 
L 224.561288 44.64 
L 225.553994 72.801272 
L 226.5467 166.507864 
L 227.539406 224.500322 
L 228.532112 192.074098 
L 229.524818 114.614924 
L 230.517524 71.467443 
L 231.510229 105.288754 
L 232.502935 176.639088 
L 233.495641 215.869479 
L 234.488347 189.010792 
L 235.481053 126.787253 
L 236.473759 91.824453 
L 237.466465 104.327433 
L 238.459171 134.534738 
L 239.451877 158.468616 
L 240.444583 165.608236 
L 241.437289 158.80514 
L 242.429995 153.557936 
L 243.422701 145.667393 
L 245.408112 105.439121 
L 246.400818 112.17791 
L 247.393524 151.606274 
L 248.38623 186.091129 
L 249.378936 177.375587 
L 250.371642 132.891057 
L 251.364348 98.574933 
L 252.357054 108.03446 
L 253.34976 145.147234 
L 254.342466 168.693937 
L 255.335172 159.114255 
L 256.327878 136.399467 
L 257.320584 125.029367 
L 258.313289 136.450473 
L 259.305995 159.87279 
L 260.298701 175.593826 
L 261.291407 159.802556 
L 262.284113 124.488079 
L 263.276819 103.376494 
L 264.269525 116.872458 
L 265.262231 151.932536 
L 266.254937 176.569845 
L 267.247643 172.995135 
L 268.240349 146.86028 
L 269.233055 116.328963 
L 270.225761 110.851798 
L 272.211172 154.647146 
L 273.203878 155.632419 
L 274.196584 136.088229 
L 275.18929 124.104853 
L 276.181996 133.024001 
L 277.174702 149.623413 
L 278.167408 154.937801 
L 279.160114 144.332573 
L 280.15282 132.295367 
L 281.145526 132.658082 
L 282.138232 142.6769 
L 283.130938 151.058252 
L 284.123643 150.190696 
L 285.116349 143.966172 
L 286.109055 143.781778 
L 287.101761 146.862612 
L 288.094467 141.809402 
L 289.087173 128.993679 
L 290.079879 127.401276 
L 291.072585 142.779824 
L 292.065291 160.795434 
L 293.057997 161.670087 
L 294.050703 142.836029 
L 295.043409 120.731151 
L 296.036115 117.871586 
L 297.02882 140.732209 
L 298.021526 167.43187 
L 299.014232 170.184238 
L 300.999644 121.881735 
L 301.99235 121.437863 
L 302.985056 141.258606 
L 303.977762 157.823197 
L 304.970468 152.065886 
L 305.963174 129.788794 
L 306.95588 120.5651 
L 307.948586 137.11926 
L 308.941292 160.755204 
L 309.933998 164.544974 
L 311.919409 126.775786 
L 312.912115 122.700412 
L 313.904821 132.427122 
L 314.897527 148.251792 
L 315.890233 157.875429 
L 316.882939 154.076294 
L 317.875645 141.965819 
L 318.868351 131.464754 
L 319.861057 132.210502 
L 320.853763 140.971034 
L 321.846469 152.637884 
L 322.839175 154.989179 
L 323.83188 145.298378 
L 324.824586 131.67894 
L 325.817292 125.343391 
L 326.809998 132.392032 
L 327.802704 149.374683 
L 328.79541 163.536616 
L 329.788116 158.10206 
L 330.780822 133.30582 
L 331.773528 113.660059 
L 332.766234 124.505928 
L 333.75894 154.578005 
L 334.751646 170.914477 
L 335.744352 156.347626 
L 336.737057 129.604472 
L 337.729763 120.480907 
L 338.722469 132.749606 
L 339.715175 148.655703 
L 340.707881 152.910687 
L 341.700587 150.502764 
L 342.693293 145.854523 
L 343.685999 139.901876 
L 344.678705 131.462077 
L 345.671411 128.842449 
L 346.664117 139.900387 
L 347.656823 155.519198 
L 348.649529 157.99693 
L 350.63494 129.388783 
L 351.627646 127.977389 
L 352.620352 138.883671 
L 353.613058 151.62446 
L 354.605764 155.465955 
L 355.59847 145.050871 
L 356.591176 132.095895 
L 357.583882 132.064438 
L 358.576588 143.933883 
L 359.569294 153.869842 
L 360.562 150.496333 
L 361.554706 135.943796 
L 362.547411 125.357388 
L 363.540117 132.877281 
L 364.532823 154.874956 
L 365.525529 166.571966 
L 366.518235 152.561904 
L 367.510941 124.891696 
L 368.503647 115.328137 
L 369.496353 132.165271 
L 370.489059 156.237603 
L 371.481765 162.392374 
L 373.467177 138.54503 
L 374.459883 133.551879 
L 375.452589 135.334129 
L 376.445294 137.829756 
L 377.438 142.742864 
L 378.430706 145.0461 
L 379.423412 144.660388 
L 380.416118 140.66554 
L 381.408824 140.70968 
L 382.40153 147.295494 
L 383.394236 148.932723 
L 385.379648 131.870696 
L 386.372354 136.045174 
L 387.36506 146.657725 
L 388.357766 150.314224 
L 389.350471 144.596798 
L 390.343177 141.101978 
L 391.335883 144.507608 
L 392.328589 145.742821 
L 393.321295 138.821492 
L 394.314001 127.784801 
L 395.306707 131.588761 
L 396.299413 148.350343 
L 397.292119 160.662176 
L 398.284825 157.24212 
L 399.277531 141.407621 
L 400.270237 129.467942 
L 401.262943 131.2511 
L 402.255648 141.317871 
L 403.248354 147.258074 
L 404.24106 145.228118 
L 405.233766 141.319297 
L 406.226472 142.231856 
L 408.211884 144.542242 
L 409.20459 142.804381 
L 410.197296 138.769331 
L 411.190002 142.193609 
L 412.182708 147.017622 
L 413.175414 144.00041 
L 414.16812 132.676563 
L 415.160825 127.277139 
L 416.153531 137.986879 
L 417.146237 154.25353 
L 418.138943 159.261898 
L 419.131649 151.490094 
L 420.124355 137.131905 
L 421.117061 128.794594 
L 422.109767 132.104516 
L 423.102473 142.397749 
L 424.095179 149.686941 
L 425.087885 148.698867 
L 426.080591 142.02215 
L 427.073297 136.35213 
L 428.066002 137.065702 
L 429.058708 140.744697 
L 430.051414 147.166472 
L 431.04412 149.483838 
L 432.036826 145.24975 
L 433.029532 138.05208 
L 434.022238 133.878099 
L 435.014944 139.287608 
L 436.00765 147.518789 
L 437.000356 148.265584 
L 437.993062 139.973918 
L 438.985768 130.231502 
L 439.978474 133.201586 
L 440.97118 146.512915 
L 441.963885 156.988348 
L 442.956591 154.848344 
L 443.949297 141.308963 
L 444.942003 129.472426 
L 445.934709 127.452061 
L 446.927415 136.561669 
L 447.920121 151.431739 
L 448.912827 159.36607 
L 449.905533 153.484115 
L 451.890945 124.802307 
L 452.883651 123.646197 
L 453.876357 139.365193 
L 454.869062 160.853055 
L 455.861768 165.100585 
L 456.854474 145.942493 
L 457.84718 123.455009 
L 458.839886 118.763423 
L 459.832592 136.099038 
L 460.825298 160.844023 
L 461.818004 171.588389 
L 462.81071 150.78635 
L 463.803416 115.605594 
L 464.796122 104.000483 
L 465.788828 134.206416 
L 466.781534 176.56542 
L 467.774239 183.568063 
L 468.766945 150.089829 
L 469.759651 108.986532 
L 470.752357 100.66789 
L 471.745063 134.071602 
L 472.737769 174.717664 
L 473.730475 185.580504 
L 474.723181 151.635223 
L 475.715887 108.117656 
L 476.708593 98.242682 
L 477.701299 128.910543 
L 478.694005 168.674735 
L 479.686711 180.410451 
L 480.679416 157.585578 
L 481.672122 123.206987 
L 482.664828 109.273736 
L 483.657534 127.991047 
L 484.65024 161.507748 
L 485.642946 173.794651 
L 486.635652 149.814698 
L 487.628358 117.08692 
L 488.621064 112.170877 
L 490.606476 165.536798 
L 491.599182 169.028261 
L 492.591888 152.989915 
L 493.584593 130.242856 
L 494.577299 114.341468 
L 495.570005 119.892206 
L 497.555417 168.136213 
L 498.548123 166.656987 
L 500.533535 121.914981 
L 501.526241 115.121064 
L 502.518947 129.763749 
L 503.511653 156.83106 
L 504.504359 170.839118 
L 505.497065 158.427618 
L 506.489771 129.745081 
L 507.482476 114.162377 
L 508.475182 125.690476 
L 509.467888 150.743578 
L 510.460594 168.819835 
L 511.4533 163.25357 
L 512.446006 137.081429 
L 513.438712 117.386925 
L 514.431418 121.929007 
L 515.424124 143.631427 
L 516.41683 160.480319 
L 517.409536 158.10802 
L 518.402242 140.541299 
L 519.394948 127.845144 
L 520.387653 136.457842 
L 521.380359 156.817831 
L 522.373065 156.592668 
L 523.365771 130.155492 
L 524.358477 114.056275 
L 525.351183 132.388713 
L 526.343889 168.746079 
L 527.336595 179.339821 
L 528.329301 149.715983 
L 529.322007 109.187033 
L 530.314713 100.207445 
L 531.307419 134.412614 
L 532.300125 177.094437 
L 533.29283 184.568693 
L 534.285536 152.419645 
L 535.278242 111.308926 
L 536.270948 102.138839 
L 537.263654 129.933676 
L 538.25636 167.181229 
L 539.249066 180.547019 
L 540.241772 160.101722 
L 541.234478 129.352094 
L 542.227184 115.841873 
L 543.21989 127.112431 
L 544.212596 147.856089 
L 545.205302 157.757262 
L 546.198007 150.949077 
L 547.190713 137.171098 
L 548.183419 128.968373 
L 549.176125 130.650759 
L 552.154243 149.789138 
L 553.146949 148.023637 
L 554.139655 140.903607 
L 555.132361 135.483452 
L 556.125067 140.771866 
L 557.117773 149.893425 
L 558.110479 147.898959 
L 559.103184 133.565626 
L 560.09589 126.330872 
L 561.088596 138.98495 
L 562.081302 159.02677 
L 563.074008 160.531388 
L 564.066714 142.571762 
L 565.05942 129.063808 
L 566.052126 131.480601 
L 567.044832 142.369015 
L 568.037538 148.303148 
L 569.030244 147.882749 
L 570.02295 145.464121 
L 571.015656 140.560702 
L 572.008362 136.447231 
L 573.001067 135.940767 
L 573.993773 139.795337 
L 574.986479 145.783997 
L 575.979185 146.635726 
L 576.971891 144.504161 
L 579.950009 137.448269 
L 580.942715 138.381853 
L 582.928127 156.390252 
L 583.920833 146.721883 
L 584.913539 127.6982 
L 585.906244 121.648044 
L 586.89895 137.623355 
L 587.891656 161.767345 
L 588.884362 165.110459 
L 589.877068 142.4398 
L 590.869774 116.003337 
L 591.86248 118.910768 
L 592.855186 150.174447 
L 593.847892 170.233578 
L 594.840598 158.903517 
L 595.833304 134.904561 
L 596.82601 123.922123 
L 597.818716 130.77765 
L 598.811421 144.199153 
L 599.804127 152.180242 
L 600.796833 147.748339 
L 601.789539 138.108521 
L 602.782245 137.571116 
L 603.774951 148.137731 
L 604.767657 155.006507 
L 605.760363 146.792751 
L 606.753069 131.195458 
L 607.745775 123.672211 
L 608.738481 129.699335 
L 609.731187 147.582021 
L 610.723893 168.459506 
L 611.716598 172.664091 
L 612.709304 147.811357 
L 613.70201 115.038369 
L 614.694716 109.053627 
L 615.687422 136.494855 
L 616.680128 173.806412 
L 617.672834 179.245557 
L 618.66554 145.756979 
L 619.658246 101.788899 
L 620.650952 94.856755 
L 622.636364 182.546219 
L 622.636364 182.546219 
" clip-path="url(#p5e8a6a464a)" style="fill: none; stroke: #1f77b4; stroke-width: 1.5; stroke-linecap: square"/>
   </g>
   <g id="patch_3">
    <path d="M 90 256.32 
L 90 34.56 
" style="fill: none; stroke: #000000; stroke-width: 0.8; stroke-linejoin: miter; stroke-linecap: square"/>
   </g>
   <g id="patch_4">
    <path d="M 648 256.32 
L 648 34.56 
" style="fill: none; stroke: #000000; stroke-width: 0.8; stroke-linejoin: miter; stroke-linecap: square"/>
   </g>
   <g id="patch_5">
    <path d="M 90 256.32 
L 648 256.32 
" style="fill: none; stroke: #000000; stroke-width: 0.8; stroke-linejoin: miter; stroke-linecap: square"/>
   </g>
   <g id="patch_6">
    <path d="M 90 34.56 
L 648 34.56 
" style="fill: none; stroke: #000000; stroke-width: 0.8; stroke-linejoin: miter; stroke-linecap: square"/>
   </g>
   <g id="text_17">
    <!-- K is now at 2 -->
    <g transform="translate(330.418125 28.56) scale(0.12 -0.12)">
     <defs>
      <path id="DejaVuSans-4b" d="M 628 4666 
L 1259 4666 
L 1259 2694 
L 3353 4666 
L 4166 4666 
L 1850 2491 
L 4331 0 
L 3500 0 
L 1259 2247 
L 1259 0 
L 628 0 
L 628 4666 
z
" transform="scale(0.015625)"/>
      <path id="DejaVuSans-20" transform="scale(0.015625)"/>
      <path id="DejaVuSans-69" d="M 603 3500 
L 1178 3500 
L 1178 0 
L 603 0 
L 603 3500 
z
M 603 4863 
L 1178 4863 
L 1178 4134 
L 603 4134 
L 603 4863 
z
" transform="scale(0.015625)"/>
      <path id="DejaVuSans-73" d="M 2834 3397 
L 2834 2853 
Q 2591 2978 2328 3040 
Q 2066 3103 1784 3103 
Q 1356 3103 1142 2972 
Q 928 2841 928 2578 
Q 928 2378 1081 2264 
Q 1234 2150 1697 2047 
L 1894 2003 
Q 2506 1872 2764 1633 
Q 3022 1394 3022 966 
Q 3022 478 2636 193 
Q 2250 -91 1575 -91 
Q 1294 -91 989 -36 
Q 684 19 347 128 
L 347 722 
Q 666 556 975 473 
Q 1284 391 1588 391 
Q 1994 391 2212 530 
Q 2431 669 2431 922 
Q 2431 1156 2273 1281 
Q 2116 1406 1581 1522 
L 1381 1569 
Q 847 1681 609 1914 
Q 372 2147 372 2553 
Q 372 3047 722 3315 
Q 1072 3584 1716 3584 
Q 2034 3584 2315 3537 
Q 2597 3491 2834 3397 
z
" transform="scale(0.015625)"/>
      <path id="DejaVuSans-6e" d="M 3513 2113 
L 3513 0 
L 2938 0 
L 2938 2094 
Q 2938 2591 2744 2837 
Q 2550 3084 2163 3084 
Q 1697 3084 1428 2787 
Q 1159 2491 1159 1978 
L 1159 0 
L 581 0 
L 581 3500 
L 1159 3500 
L 1159 2956 
Q 1366 3272 1645 3428 
Q 1925 3584 2291 3584 
Q 2894 3584 3203 3211 
Q 3513 2838 3513 2113 
z
" transform="scale(0.015625)"/>
      <path id="DejaVuSans-6f" d="M 1959 3097 
Q 1497 3097 1228 2736 
Q 959 2375 959 1747 
Q 959 1119 1226 758 
Q 1494 397 1959 397 
Q 2419 397 2687 759 
Q 2956 1122 2956 1747 
Q 2956 2369 2687 2733 
Q 2419 3097 1959 3097 
z
M 1959 3584 
Q 2709 3584 3137 3096 
Q 3566 2609 3566 1747 
Q 3566 888 3137 398 
Q 2709 -91 1959 -91 
Q 1206 -91 779 398 
Q 353 888 353 1747 
Q 353 2609 779 3096 
Q 1206 3584 1959 3584 
z
" transform="scale(0.015625)"/>
      <path id="DejaVuSans-77" d="M 269 3500 
L 844 3500 
L 1563 769 
L 2278 3500 
L 2956 3500 
L 3675 769 
L 4391 3500 
L 4966 3500 
L 4050 0 
L 3372 0 
L 2619 2869 
L 1863 0 
L 1184 0 
L 269 3500 
z
" transform="scale(0.015625)"/>
      <path id="DejaVuSans-61" d="M 2194 1759 
Q 1497 1759 1228 1600 
Q 959 1441 959 1056 
Q 959 750 1161 570 
Q 1363 391 1709 391 
Q 2188 391 2477 730 
Q 2766 1069 2766 1631 
L 2766 1759 
L 2194 1759 
z
M 3341 1997 
L 3341 0 
L 2766 0 
L 2766 531 
Q 2569 213 2275 61 
Q 1981 -91 1556 -91 
Q 1019 -91 701 211 
Q 384 513 384 1019 
Q 384 1609 779 1909 
Q 1175 2209 1959 2209 
L 2766 2209 
L 2766 2266 
Q 2766 2663 2505 2880 
Q 2244 3097 1772 3097 
Q 1472 3097 1187 3025 
Q 903 2953 641 2809 
L 641 3341 
Q 956 3463 1253 3523 
Q 1550 3584 1831 3584 
Q 2591 3584 2966 3190 
Q 3341 2797 3341 1997 
z
" transform="scale(0.015625)"/>
      <path id="DejaVuSans-74" d="M 1172 4494 
L 1172 3500 
L 2356 3500 
L 2356 3053 
L 1172 3053 
L 1172 1153 
Q 1172 725 1289 603 
Q 1406 481 1766 481 
L 2356 481 
L 2356 0 
L 1766 0 
Q 1100 0 847 248 
Q 594 497 594 1153 
L 594 3053 
L 172 3053 
L 172 3500 
L 594 3500 
L 594 4494 
L 1172 4494 
z
" transform="scale(0.015625)"/>
     </defs>
     <use xlink:href="#DejaVuSans-4b"/>
     <use xlink:href="#DejaVuSans-20" x="65.576172"/>
     <use xlink:href="#DejaVuSans-69" x="97.363281"/>
     <use xlink:href="#DejaVuSans-73" x="125.146484"/>
     <use xlink:href="#DejaVuSans-20" x="177.246094"/>
     <use xlink:href="#DejaVuSans-6e" x="209.033203"/>
     <use xlink:href="#DejaVuSans-6f" x="272.412109"/>
     <use xlink:href="#DejaVuSans-77" x="333.59375"/>
     <use xlink:href="#DejaVuSans-20" x="415.380859"/>
     <use xlink:href="#DejaVuSans-61" x="447.167969"/>
     <use xlink:href="#DejaVuSans-74" x="508.447266"/>
     <use xlink:href="#DejaVuSans-20" x="547.65625"/>
     <use xlink:href="#DejaVuSans-32" x="579.443359"/>
    </g>
   </g>
  </g>
 </g>
 <defs>
  <clipPath id="p5e8a6a464a">
   <rect x="90" y="34.56" width="558" height="221.76"/>
  </clipPath>
 </defs>
</svg>
