<?xml version="1.0" encoding="utf-8" standalone="no"?>
<!DOCTYPE svg PUBLIC "-//W3C//DTD SVG 1.1//EN"
  "http://www.w3.org/Graphics/SVG/1.1/DTD/svg11.dtd">
<svg xmlns:xlink="http://www.w3.org/1999/xlink" width="720pt" height="288pt" viewBox="0 0 720 288" xmlns="http://www.w3.org/2000/svg" version="1.1">
 <metadata>
  <rdf:RDF xmlns:dc="http://purl.org/dc/elements/1.1/" xmlns:cc="http://creativecommons.org/ns#" xmlns:rdf="http://www.w3.org/1999/02/22-rdf-syntax-ns#">
   <cc:Work>
    <dc:type rdf:resource="http://purl.org/dc/dcmitype/StillImage"/>
    <dc:date>2023-11-20T08:43:13.390518</dc:date>
    <dc:format>image/svg+xml</dc:format>
    <dc:creator>
     <cc:Agent>
      <dc:title>Matplotlib v3.6.2, https://matplotlib.org/</dc:title>
     </cc:Agent>
    </dc:creator>
   </cc:Work>
  </rdf:RDF>
 </metadata>
 <defs>
  <style type="text/css">*{stroke-linejoin: round; stroke-linecap: butt}</style>
 </defs>
 <g id="figure_1">
  <g id="patch_1">
   <path d="M 0 288 
L 720 288 
L 720 0 
L 0 0 
z
" style="fill: #ffffff"/>
  </g>
  <g id="axes_1">
   <g id="patch_2">
    <path d="M 90 256.32 
L 648 256.32 
L 648 34.56 
L 90 34.56 
z
" style="fill: #ffffff"/>
   </g>
   <g id="matplotlib.axis_1">
    <g id="xtick_1">
     <g id="line2d_1">
      <defs>
       <path id="m51125e2766" d="M 0 0 
L 0 3.5 
" style="stroke: #000000; stroke-width: 0.8"/>
      </defs>
      <g>
       <use xlink:href="#m51125e2766" x="115.363636" y="256.32" style="stroke: #000000; stroke-width: 0.8"/>
      </g>
     </g>
     <g id="text_1">
      <!-- 0 -->
      <g transform="translate(112.182386 270.918437) scale(0.1 -0.1)">
       <defs>
        <path id="DejaVuSans-30" d="M 2034 4250 
Q 1547 4250 1301 3770 
Q 1056 3291 1056 2328 
Q 1056 1369 1301 889 
Q 1547 409 2034 409 
Q 2525 409 2770 889 
Q 3016 1369 3016 2328 
Q 3016 3291 2770 3770 
Q 2525 4250 2034 4250 
z
M 2034 4750 
Q 2819 4750 3233 4129 
Q 3647 3509 3647 2328 
Q 3647 1150 3233 529 
Q 2819 -91 2034 -91 
Q 1250 -91 836 529 
Q 422 1150 422 2328 
Q 422 3509 836 4129 
Q 1250 4750 2034 4750 
z
" transform="scale(0.015625)"/>
       </defs>
       <use xlink:href="#DejaVuSans-30"/>
      </g>
     </g>
    </g>
    <g id="xtick_2">
     <g id="line2d_2">
      <g>
       <use xlink:href="#m51125e2766" x="214.634229" y="256.32" style="stroke: #000000; stroke-width: 0.8"/>
      </g>
     </g>
     <g id="text_2">
      <!-- 100 -->
      <g transform="translate(205.090479 270.918437) scale(0.1 -0.1)">
       <defs>
        <path id="DejaVuSans-31" d="M 794 531 
L 1825 531 
L 1825 4091 
L 703 3866 
L 703 4441 
L 1819 4666 
L 2450 4666 
L 2450 531 
L 3481 531 
L 3481 0 
L 794 0 
L 794 531 
z
" transform="scale(0.015625)"/>
       </defs>
       <use xlink:href="#DejaVuSans-31"/>
       <use xlink:href="#DejaVuSans-30" x="63.623047"/>
       <use xlink:href="#DejaVuSans-30" x="127.246094"/>
      </g>
     </g>
    </g>
    <g id="xtick_3">
     <g id="line2d_3">
      <g>
       <use xlink:href="#m51125e2766" x="313.904821" y="256.32" style="stroke: #000000; stroke-width: 0.8"/>
      </g>
     </g>
     <g id="text_3">
      <!-- 200 -->
      <g transform="translate(304.361071 270.918437) scale(0.1 -0.1)">
       <defs>
        <path id="DejaVuSans-32" d="M 1228 531 
L 3431 531 
L 3431 0 
L 469 0 
L 469 531 
Q 828 903 1448 1529 
Q 2069 2156 2228 2338 
Q 2531 2678 2651 2914 
Q 2772 3150 2772 3378 
Q 2772 3750 2511 3984 
Q 2250 4219 1831 4219 
Q 1534 4219 1204 4116 
Q 875 4013 500 3803 
L 500 4441 
Q 881 4594 1212 4672 
Q 1544 4750 1819 4750 
Q 2544 4750 2975 4387 
Q 3406 4025 3406 3419 
Q 3406 3131 3298 2873 
Q 3191 2616 2906 2266 
Q 2828 2175 2409 1742 
Q 1991 1309 1228 531 
z
" transform="scale(0.015625)"/>
       </defs>
       <use xlink:href="#DejaVuSans-32"/>
       <use xlink:href="#DejaVuSans-30" x="63.623047"/>
       <use xlink:href="#DejaVuSans-30" x="127.246094"/>
      </g>
     </g>
    </g>
    <g id="xtick_4">
     <g id="line2d_4">
      <g>
       <use xlink:href="#m51125e2766" x="413.175414" y="256.32" style="stroke: #000000; stroke-width: 0.8"/>
      </g>
     </g>
     <g id="text_4">
      <!-- 300 -->
      <g transform="translate(403.631664 270.918437) scale(0.1 -0.1)">
       <defs>
        <path id="DejaVuSans-33" d="M 2597 2516 
Q 3050 2419 3304 2112 
Q 3559 1806 3559 1356 
Q 3559 666 3084 287 
Q 2609 -91 1734 -91 
Q 1441 -91 1130 -33 
Q 819 25 488 141 
L 488 750 
Q 750 597 1062 519 
Q 1375 441 1716 441 
Q 2309 441 2620 675 
Q 2931 909 2931 1356 
Q 2931 1769 2642 2001 
Q 2353 2234 1838 2234 
L 1294 2234 
L 1294 2753 
L 1863 2753 
Q 2328 2753 2575 2939 
Q 2822 3125 2822 3475 
Q 2822 3834 2567 4026 
Q 2313 4219 1838 4219 
Q 1578 4219 1281 4162 
Q 984 4106 628 3988 
L 628 4550 
Q 988 4650 1302 4700 
Q 1616 4750 1894 4750 
Q 2613 4750 3031 4423 
Q 3450 4097 3450 3541 
Q 3450 3153 3228 2886 
Q 3006 2619 2597 2516 
z
" transform="scale(0.015625)"/>
       </defs>
       <use xlink:href="#DejaVuSans-33"/>
       <use xlink:href="#DejaVuSans-30" x="63.623047"/>
       <use xlink:href="#DejaVuSans-30" x="127.246094"/>
      </g>
     </g>
    </g>
    <g id="xtick_5">
     <g id="line2d_5">
      <g>
       <use xlink:href="#m51125e2766" x="512.446006" y="256.32" style="stroke: #000000; stroke-width: 0.8"/>
      </g>
     </g>
     <g id="text_5">
      <!-- 400 -->
      <g transform="translate(502.902256 270.918437) scale(0.1 -0.1)">
       <defs>
        <path id="DejaVuSans-34" d="M 2419 4116 
L 825 1625 
L 2419 1625 
L 2419 4116 
z
M 2253 4666 
L 3047 4666 
L 3047 1625 
L 3713 1625 
L 3713 1100 
L 3047 1100 
L 3047 0 
L 2419 0 
L 2419 1100 
L 313 1100 
L 313 1709 
L 2253 4666 
z
" transform="scale(0.015625)"/>
       </defs>
       <use xlink:href="#DejaVuSans-34"/>
       <use xlink:href="#DejaVuSans-30" x="63.623047"/>
       <use xlink:href="#DejaVuSans-30" x="127.246094"/>
      </g>
     </g>
    </g>
    <g id="xtick_6">
     <g id="line2d_6">
      <g>
       <use xlink:href="#m51125e2766" x="611.716598" y="256.32" style="stroke: #000000; stroke-width: 0.8"/>
      </g>
     </g>
     <g id="text_6">
      <!-- 500 -->
      <g transform="translate(602.172848 270.918437) scale(0.1 -0.1)">
       <defs>
        <path id="DejaVuSans-35" d="M 691 4666 
L 3169 4666 
L 3169 4134 
L 1269 4134 
L 1269 2991 
Q 1406 3038 1543 3061 
Q 1681 3084 1819 3084 
Q 2600 3084 3056 2656 
Q 3513 2228 3513 1497 
Q 3513 744 3044 326 
Q 2575 -91 1722 -91 
Q 1428 -91 1123 -41 
Q 819 9 494 109 
L 494 744 
Q 775 591 1075 516 
Q 1375 441 1709 441 
Q 2250 441 2565 725 
Q 2881 1009 2881 1497 
Q 2881 1984 2565 2268 
Q 2250 2553 1709 2553 
Q 1456 2553 1204 2497 
Q 953 2441 691 2322 
L 691 4666 
z
" transform="scale(0.015625)"/>
       </defs>
       <use xlink:href="#DejaVuSans-35"/>
       <use xlink:href="#DejaVuSans-30" x="63.623047"/>
       <use xlink:href="#DejaVuSans-30" x="127.246094"/>
      </g>
     </g>
    </g>
   </g>
   <g id="matplotlib.axis_2">
    <g id="ytick_1">
     <g id="line2d_7">
      <defs>
       <path id="m85585fe063" d="M 0 0 
L -3.5 0 
" style="stroke: #000000; stroke-width: 0.8"/>
      </defs>
      <g>
       <use xlink:href="#m85585fe063" x="90" y="245.332394" style="stroke: #000000; stroke-width: 0.8"/>
      </g>
     </g>
     <g id="text_7">
      <!-- 0.0485 -->
      <g transform="translate(48.009375 249.131612) scale(0.1 -0.1)">
       <defs>
        <path id="DejaVuSans-2e" d="M 684 794 
L 1344 794 
L 1344 0 
L 684 0 
L 684 794 
z
" transform="scale(0.015625)"/>
        <path id="DejaVuSans-38" d="M 2034 2216 
Q 1584 2216 1326 1975 
Q 1069 1734 1069 1313 
Q 1069 891 1326 650 
Q 1584 409 2034 409 
Q 2484 409 2743 651 
Q 3003 894 3003 1313 
Q 3003 1734 2745 1975 
Q 2488 2216 2034 2216 
z
M 1403 2484 
Q 997 2584 770 2862 
Q 544 3141 544 3541 
Q 544 4100 942 4425 
Q 1341 4750 2034 4750 
Q 2731 4750 3128 4425 
Q 3525 4100 3525 3541 
Q 3525 3141 3298 2862 
Q 3072 2584 2669 2484 
Q 3125 2378 3379 2068 
Q 3634 1759 3634 1313 
Q 3634 634 3220 271 
Q 2806 -91 2034 -91 
Q 1263 -91 848 271 
Q 434 634 434 1313 
Q 434 1759 690 2068 
Q 947 2378 1403 2484 
z
M 1172 3481 
Q 1172 3119 1398 2916 
Q 1625 2713 2034 2713 
Q 2441 2713 2670 2916 
Q 2900 3119 2900 3481 
Q 2900 3844 2670 4047 
Q 2441 4250 2034 4250 
Q 1625 4250 1398 4047 
Q 1172 3844 1172 3481 
z
" transform="scale(0.015625)"/>
       </defs>
       <use xlink:href="#DejaVuSans-30"/>
       <use xlink:href="#DejaVuSans-2e" x="63.623047"/>
       <use xlink:href="#DejaVuSans-30" x="95.410156"/>
       <use xlink:href="#DejaVuSans-34" x="159.033203"/>
       <use xlink:href="#DejaVuSans-38" x="222.65625"/>
       <use xlink:href="#DejaVuSans-35" x="286.279297"/>
      </g>
     </g>
    </g>
    <g id="ytick_2">
     <g id="line2d_8">
      <g>
       <use xlink:href="#m85585fe063" x="90" y="209.041902" style="stroke: #000000; stroke-width: 0.8"/>
      </g>
     </g>
     <g id="text_8">
      <!-- 0.0490 -->
      <g transform="translate(48.009375 212.84112) scale(0.1 -0.1)">
       <defs>
        <path id="DejaVuSans-39" d="M 703 97 
L 703 672 
Q 941 559 1184 500 
Q 1428 441 1663 441 
Q 2288 441 2617 861 
Q 2947 1281 2994 2138 
Q 2813 1869 2534 1725 
Q 2256 1581 1919 1581 
Q 1219 1581 811 2004 
Q 403 2428 403 3163 
Q 403 3881 828 4315 
Q 1253 4750 1959 4750 
Q 2769 4750 3195 4129 
Q 3622 3509 3622 2328 
Q 3622 1225 3098 567 
Q 2575 -91 1691 -91 
Q 1453 -91 1209 -44 
Q 966 3 703 97 
z
M 1959 2075 
Q 2384 2075 2632 2365 
Q 2881 2656 2881 3163 
Q 2881 3666 2632 3958 
Q 2384 4250 1959 4250 
Q 1534 4250 1286 3958 
Q 1038 3666 1038 3163 
Q 1038 2656 1286 2365 
Q 1534 2075 1959 2075 
z
" transform="scale(0.015625)"/>
       </defs>
       <use xlink:href="#DejaVuSans-30"/>
       <use xlink:href="#DejaVuSans-2e" x="63.623047"/>
       <use xlink:href="#DejaVuSans-30" x="95.410156"/>
       <use xlink:href="#DejaVuSans-34" x="159.033203"/>
       <use xlink:href="#DejaVuSans-39" x="222.65625"/>
       <use xlink:href="#DejaVuSans-30" x="286.279297"/>
      </g>
     </g>
    </g>
    <g id="ytick_3">
     <g id="line2d_9">
      <g>
       <use xlink:href="#m85585fe063" x="90" y="172.75141" style="stroke: #000000; stroke-width: 0.8"/>
      </g>
     </g>
     <g id="text_9">
      <!-- 0.0495 -->
      <g transform="translate(48.009375 176.550629) scale(0.1 -0.1)">
       <use xlink:href="#DejaVuSans-30"/>
       <use xlink:href="#DejaVuSans-2e" x="63.623047"/>
       <use xlink:href="#DejaVuSans-30" x="95.410156"/>
       <use xlink:href="#DejaVuSans-34" x="159.033203"/>
       <use xlink:href="#DejaVuSans-39" x="222.65625"/>
       <use xlink:href="#DejaVuSans-35" x="286.279297"/>
      </g>
     </g>
    </g>
    <g id="ytick_4">
     <g id="line2d_10">
      <g>
       <use xlink:href="#m85585fe063" x="90" y="136.460918" style="stroke: #000000; stroke-width: 0.8"/>
      </g>
     </g>
     <g id="text_10">
      <!-- 0.0500 -->
      <g transform="translate(48.009375 140.260137) scale(0.1 -0.1)">
       <use xlink:href="#DejaVuSans-30"/>
       <use xlink:href="#DejaVuSans-2e" x="63.623047"/>
       <use xlink:href="#DejaVuSans-30" x="95.410156"/>
       <use xlink:href="#DejaVuSans-35" x="159.033203"/>
       <use xlink:href="#DejaVuSans-30" x="222.65625"/>
       <use xlink:href="#DejaVuSans-30" x="286.279297"/>
      </g>
     </g>
    </g>
    <g id="ytick_5">
     <g id="line2d_11">
      <g>
       <use xlink:href="#m85585fe063" x="90" y="100.170426" style="stroke: #000000; stroke-width: 0.8"/>
      </g>
     </g>
     <g id="text_11">
      <!-- 0.0505 -->
      <g transform="translate(48.009375 103.969645) scale(0.1 -0.1)">
       <use xlink:href="#DejaVuSans-30"/>
       <use xlink:href="#DejaVuSans-2e" x="63.623047"/>
       <use xlink:href="#DejaVuSans-30" x="95.410156"/>
       <use xlink:href="#DejaVuSans-35" x="159.033203"/>
       <use xlink:href="#DejaVuSans-30" x="222.65625"/>
       <use xlink:href="#DejaVuSans-35" x="286.279297"/>
      </g>
     </g>
    </g>
    <g id="ytick_6">
     <g id="line2d_12">
      <g>
       <use xlink:href="#m85585fe063" x="90" y="63.879934" style="stroke: #000000; stroke-width: 0.8"/>
      </g>
     </g>
     <g id="text_12">
      <!-- 0.0510 -->
      <g transform="translate(48.009375 67.679153) scale(0.1 -0.1)">
       <use xlink:href="#DejaVuSans-30"/>
       <use xlink:href="#DejaVuSans-2e" x="63.623047"/>
       <use xlink:href="#DejaVuSans-30" x="95.410156"/>
       <use xlink:href="#DejaVuSans-35" x="159.033203"/>
       <use xlink:href="#DejaVuSans-31" x="222.65625"/>
       <use xlink:href="#DejaVuSans-30" x="286.279297"/>
      </g>
     </g>
    </g>
   </g>
   <g id="line2d_13">
    <path d="M 115.363636 210.641815 
L 116.356342 165.920541 
L 117.349048 149.11484 
L 118.341754 152.584071 
L 119.33446 181.133784 
L 120.327166 173.306965 
L 121.319872 226.487268 
L 122.312578 195.169227 
L 123.305284 157.532776 
L 124.29799 183.241767 
L 125.290696 226.621205 
L 126.283402 169.926699 
L 127.276107 164.646336 
L 128.268813 173.281102 
L 129.261519 187.053506 
L 130.254225 192.055381 
L 131.246931 173.572336 
L 132.239637 182.999827 
L 133.232343 169.716959 
L 134.225049 217.522346 
L 135.217755 173.564361 
L 136.210461 198.46245 
L 137.203167 214.161769 
L 138.195873 167.721144 
L 139.188579 185.750534 
L 140.181284 169.823069 
L 141.17399 202.980059 
L 142.166696 167.250821 
L 143.159402 194.940827 
L 144.152108 235.379132 
L 145.144814 205.268705 
L 146.13752 204.121435 
L 147.130226 197.195116 
L 148.122932 231.251619 
L 149.115638 226.487207 
L 150.108344 219.744425 
L 151.10105 236.135977 
L 152.093756 216.16767 
L 153.086461 229.924231 
L 154.079167 210.386463 
L 155.071873 205.749609 
L 156.064579 224.038221 
L 157.057285 179.249356 
L 159.042697 222.682916 
L 160.035403 206.134046 
L 161.028109 202.111877 
L 162.020815 205.980425 
L 163.013521 188.688322 
L 164.006227 215.321937 
L 164.998933 209.743029 
L 165.991638 187.225282 
L 166.984344 193.017197 
L 167.97705 246.24 
L 168.969756 233.359385 
L 169.962462 163.074927 
L 170.955168 142.347479 
L 171.947874 173.910519 
L 172.94058 196.523691 
L 173.933286 196.14916 
L 175.918698 108.432028 
L 176.911404 149.2104 
L 177.90411 167.554037 
L 178.896816 134.486189 
L 179.889521 135.918176 
L 180.882227 162.261185 
L 181.874933 147.245499 
L 182.867639 121.082596 
L 183.860345 124.579689 
L 184.853051 158.744953 
L 185.845757 99.878036 
L 186.838463 143.765972 
L 187.831169 168.120257 
L 188.823875 152.59892 
L 189.816581 116.626726 
L 190.809287 120.758661 
L 191.801993 177.874595 
L 192.794698 143.923957 
L 193.787404 137.060946 
L 194.78011 132.663147 
L 195.772816 107.281361 
L 196.765522 162.451357 
L 197.758228 162.959608 
L 198.750934 112.671513 
L 199.74364 130.241864 
L 200.736346 167.940768 
L 202.721758 148.539463 
L 203.714464 157.264452 
L 204.70717 162.303333 
L 205.699875 140.531225 
L 206.692581 156.126741 
L 207.685287 121.992621 
L 208.677993 145.177832 
L 209.670699 172.583101 
L 210.663405 177.067358 
L 211.656111 159.712157 
L 212.648817 152.886834 
L 213.641523 127.135654 
L 214.634229 154.128022 
L 215.626935 159.397608 
L 216.619641 149.761301 
L 217.612347 159.074469 
L 218.605052 146.074209 
L 219.597758 209.374812 
L 220.590464 167.662459 
L 221.58317 150.926425 
L 222.575876 200.709274 
L 223.568582 173.526299 
L 224.561288 172.494041 
L 225.553994 110.790374 
L 226.5467 173.91414 
L 227.539406 162.654653 
L 228.532112 149.814808 
L 229.524818 166.241062 
L 230.517524 133.95077 
L 231.510229 169.654005 
L 232.502935 151.557773 
L 233.495641 178.99135 
L 234.488347 155.619049 
L 235.481053 170.082942 
L 236.473759 176.603413 
L 237.466465 179.203978 
L 238.459171 178.02442 
L 239.451877 109.854572 
L 240.444583 151.476148 
L 241.437289 161.235613 
L 242.429995 143.387138 
L 243.422701 139.076345 
L 244.415407 184.883305 
L 245.408112 167.030024 
L 246.400818 117.231245 
L 247.393524 99.452006 
L 248.38623 115.699224 
L 249.378936 114.462937 
L 250.371642 160.180961 
L 251.364348 145.507307 
L 252.357054 160.300917 
L 253.34976 151.725176 
L 254.342466 149.018453 
L 255.335172 149.574908 
L 256.327878 136.546386 
L 257.320584 121.367002 
L 258.313289 112.189961 
L 259.305995 153.498049 
L 260.298701 127.28932 
L 261.291407 125.430474 
L 262.284113 102.998216 
L 263.276819 124.726689 
L 264.269525 160.545367 
L 265.262231 142.337005 
L 266.254937 107.544989 
L 267.247643 92.477971 
L 268.240349 102.827095 
L 269.233055 122.02361 
L 270.225761 100.077473 
L 271.218466 126.433439 
L 272.211172 107.87901 
L 273.203878 106.005512 
L 274.196584 111.4921 
L 275.18929 111.95561 
L 276.181996 132.528975 
L 277.174702 90.896878 
L 278.167408 96.945141 
L 279.160114 100.046373 
L 280.15282 124.500633 
L 281.145526 115.188445 
L 282.138232 106.975902 
L 283.130938 91.600293 
L 285.116349 140.269288 
L 286.109055 136.192689 
L 287.101761 133.548994 
L 288.094467 164.060852 
L 289.087173 116.342395 
L 290.079879 111.060621 
L 291.072585 123.557387 
L 292.065291 122.799564 
L 293.057997 135.109549 
L 294.050703 125.102484 
L 295.043409 136.242833 
L 296.036115 115.159495 
L 297.02882 134.890236 
L 298.021526 129.525267 
L 299.014232 152.132468 
L 300.006938 143.004629 
L 300.999644 149.943297 
L 301.99235 132.62477 
L 302.985056 137.421161 
L 303.977762 162.425701 
L 304.970468 134.248689 
L 305.963174 110.907312 
L 306.95588 138.051668 
L 307.948586 148.1317 
L 308.941292 131.263355 
L 309.933998 126.917257 
L 310.926703 164.894948 
L 311.919409 166.089779 
L 312.912115 86.899052 
L 313.904821 155.952645 
L 314.897527 115.606382 
L 315.890233 149.545249 
L 316.882939 141.600345 
L 317.875645 90.578072 
L 318.868351 131.548279 
L 319.861057 165.840927 
L 320.853763 134.000974 
L 321.846469 150.046099 
L 322.839175 122.211187 
L 323.83188 141.793588 
L 324.824586 148.697188 
L 325.817292 143.141403 
L 326.809998 181.910202 
L 327.802704 125.72819 
L 328.79541 141.117877 
L 329.788116 139.45026 
L 330.780822 154.863422 
L 331.773528 150.248983 
L 332.766234 162.164193 
L 333.75894 90.31305 
L 334.751646 174.061313 
L 335.744352 169.150725 
L 336.737057 148.095565 
L 337.729763 158.514317 
L 338.722469 136.609472 
L 339.715175 147.228576 
L 340.707881 174.672129 
L 341.700587 112.5808 
L 342.693293 131.559252 
L 343.685999 188.161134 
L 344.678705 140.397825 
L 345.671411 142.112473 
L 346.664117 130.784077 
L 347.656823 134.367243 
L 348.649529 160.458061 
L 349.642234 163.548192 
L 350.63494 162.594979 
L 351.627646 139.013736 
L 352.620352 141.241462 
L 353.613058 140.305534 
L 354.605764 159.618174 
L 355.59847 148.472367 
L 356.591176 149.537874 
L 357.583882 128.280188 
L 358.576588 184.259906 
L 359.569294 151.870973 
L 360.562 147.432139 
L 361.554706 141.413522 
L 362.547411 159.561018 
L 363.540117 134.50383 
L 364.532823 163.772717 
L 365.525529 115.083398 
L 366.518235 203.239408 
L 367.510941 221.264471 
L 368.503647 162.251328 
L 369.496353 164.386083 
L 370.489059 146.208513 
L 371.481765 176.774961 
L 372.474471 180.018033 
L 374.459883 127.317153 
L 375.452589 157.402448 
L 376.445294 158.626845 
L 377.438 210.235348 
L 378.430706 166.734233 
L 379.423412 134.184864 
L 380.416118 177.26682 
L 381.408824 166.551269 
L 382.40153 182.391666 
L 383.394236 166.622231 
L 384.386942 162.79832 
L 385.379648 130.127519 
L 386.372354 184.125072 
L 387.36506 127.964466 
L 388.357766 185.956098 
L 389.350471 141.535814 
L 390.343177 153.933838 
L 391.335883 145.190072 
L 392.328589 150.539147 
L 393.321295 179.484443 
L 394.314001 135.225553 
L 395.306707 172.253042 
L 396.299413 202.183507 
L 397.292119 181.718605 
L 398.284825 167.221282 
L 399.277531 165.354413 
L 400.270237 198.553892 
L 401.262943 135.905295 
L 402.255648 138.06248 
L 403.248354 170.147735 
L 404.24106 133.810697 
L 405.233766 173.054346 
L 406.226472 123.966561 
L 407.219178 144.116088 
L 408.211884 129.341657 
L 409.20459 139.316785 
L 410.197296 177.405833 
L 411.190002 139.663745 
L 412.182708 186.715954 
L 413.175414 121.551229 
L 414.16812 148.203231 
L 415.160825 157.618574 
L 416.153531 188.590302 
L 417.146237 133.07612 
L 418.138943 130.073574 
L 419.131649 177.223345 
L 420.124355 142.605931 
L 421.117061 103.683927 
L 422.109767 136.498621 
L 423.102473 111.628096 
L 424.095179 121.429448 
L 425.087885 141.116027 
L 426.080591 99.348332 
L 427.073297 150.395629 
L 428.066002 121.574761 
L 429.058708 134.783419 
L 430.051414 161.797673 
L 432.036826 100.822178 
L 433.029532 60.948867 
L 434.022238 85.707645 
L 435.014944 101.846525 
L 436.00765 109.230338 
L 437.000356 89.310892 
L 437.993062 74.367306 
L 438.985768 130.017453 
L 439.978474 130.407492 
L 440.97118 141.43712 
L 441.963885 140.779238 
L 442.956591 125.062748 
L 443.949297 87.204263 
L 444.942003 98.124693 
L 445.934709 104.934458 
L 446.927415 96.894551 
L 447.920121 131.980477 
L 448.912827 66.39306 
L 449.905533 69.571057 
L 450.898239 101.575272 
L 451.890945 126.475603 
L 452.883651 99.515535 
L 453.876357 89.964515 
L 454.869062 88.557687 
L 455.861768 109.328441 
L 456.854474 82.951159 
L 457.84718 84.285194 
L 458.839886 114.370748 
L 459.832592 112.814181 
L 460.825298 115.667329 
L 461.818004 132.848942 
L 462.81071 117.169118 
L 463.803416 92.369464 
L 464.796122 165.859999 
L 465.788828 110.863304 
L 466.781534 119.523017 
L 467.774239 131.950999 
L 468.766945 110.828432 
L 469.759651 97.69767 
L 471.745063 131.604541 
L 472.737769 137.528646 
L 474.723181 101.792282 
L 475.715887 165.211363 
L 477.701299 111.55489 
L 478.694005 151.015119 
L 480.679416 117.756328 
L 481.672122 121.214882 
L 482.664828 123.151425 
L 483.657534 121.574631 
L 484.65024 131.418358 
L 485.642946 123.606515 
L 486.635652 134.018476 
L 487.628358 100.928245 
L 488.621064 145.939699 
L 489.61377 146.827335 
L 490.606476 100.854139 
L 491.599182 123.91889 
L 492.591888 122.818857 
L 493.584593 111.156548 
L 494.577299 142.69133 
L 495.570005 146.425163 
L 496.562711 142.874598 
L 497.555417 66.307431 
L 498.548123 123.452125 
L 499.540829 139.420067 
L 500.533535 107.838705 
L 501.526241 116.843367 
L 502.518947 167.646575 
L 503.511653 130.075489 
L 504.504359 111.869094 
L 505.497065 145.680512 
L 506.489771 134.490353 
L 507.482476 163.744926 
L 508.475182 137.620766 
L 509.467888 147.247775 
L 510.460594 144.627587 
L 511.4533 162.099195 
L 512.446006 161.326829 
L 513.438712 150.354987 
L 514.431418 160.492207 
L 515.424124 192.429596 
L 516.41683 142.294925 
L 517.409536 160.832 
L 518.402242 201.679163 
L 519.394948 216.617707 
L 520.387653 130.612047 
L 521.380359 132.249055 
L 522.373065 139.945834 
L 523.365771 161.55815 
L 524.358477 142.272501 
L 525.351183 166.827558 
L 526.343889 174.196955 
L 527.336595 147.038766 
L 528.329301 161.978974 
L 529.322007 144.755261 
L 530.314713 165.711578 
L 531.307419 169.786666 
L 532.300125 151.503139 
L 533.29283 192.332585 
L 534.285536 156.62672 
L 535.278242 201.886217 
L 536.270948 161.524528 
L 537.263654 173.199937 
L 538.25636 154.532353 
L 539.249066 154.660786 
L 540.241772 152.188911 
L 541.234478 139.032022 
L 542.227184 146.168382 
L 543.21989 177.062504 
L 544.212596 154.334691 
L 545.205302 142.577617 
L 546.198007 159.691212 
L 547.190713 164.05642 
L 548.183419 121.052665 
L 549.176125 169.270209 
L 550.168831 113.310563 
L 551.161537 148.728388 
L 552.154243 135.588607 
L 553.146949 149.948882 
L 554.139655 139.480465 
L 555.132361 162.060509 
L 556.125067 148.717025 
L 557.117773 165.606305 
L 558.110479 160.218343 
L 559.103184 167.200931 
L 560.09589 117.956677 
L 561.088596 167.792706 
L 562.081302 152.348568 
L 563.074008 176.233781 
L 564.066714 171.924245 
L 565.05942 172.413252 
L 566.052126 191.180596 
L 567.044832 129.411101 
L 568.037538 160.941047 
L 569.030244 144.30435 
L 570.02295 133.58269 
L 571.015656 131.353737 
L 572.008362 126.915214 
L 573.001067 119.321438 
L 573.993773 153.770203 
L 574.986479 197.954159 
L 575.979185 137.158166 
L 576.971891 144.891381 
L 577.964597 141.501876 
L 578.957303 165.994066 
L 579.950009 96.71639 
L 580.942715 112.579556 
L 581.935421 104.469142 
L 582.928127 141.038226 
L 583.920833 106.055022 
L 584.913539 119.998543 
L 585.906244 131.543854 
L 586.89895 130.349289 
L 587.891656 100.118979 
L 588.884362 93.416531 
L 589.877068 127.927294 
L 590.869774 121.198933 
L 591.86248 115.290427 
L 592.855186 127.277729 
L 593.847892 114.534435 
L 594.840598 76.572441 
L 595.833304 111.365425 
L 596.82601 96.643691 
L 597.818716 130.460744 
L 598.811421 87.02807 
L 599.804127 68.110556 
L 600.796833 130.471639 
L 601.789539 130.536071 
L 602.782245 129.378925 
L 603.774951 80.248916 
L 604.767657 100.867326 
L 605.760363 114.258432 
L 606.753069 97.751533 
L 607.745775 109.679373 
L 608.738481 44.64 
L 609.731187 101.846747 
L 610.723893 106.721576 
L 611.716598 110.14847 
L 612.709304 88.229398 
L 613.70201 86.491802 
L 614.694716 122.56384 
L 615.687422 113.536663 
L 616.680128 142.198334 
L 617.672834 136.804138 
L 618.66554 153.477509 
L 619.658246 91.379034 
L 620.650952 148.066713 
L 621.643658 83.858155 
L 622.636364 142.231877 
L 622.636364 142.231877 
" clip-path="url(#p48d47d2be0)" style="fill: none; stroke: #1f77b4; stroke-width: 1.5; stroke-linecap: square"/>
   </g>
   <g id="patch_3">
    <path d="M 90 256.32 
L 90 34.56 
" style="fill: none; stroke: #000000; stroke-width: 0.8; stroke-linejoin: miter; stroke-linecap: square"/>
   </g>
   <g id="patch_4">
    <path d="M 648 256.32 
L 648 34.56 
" style="fill: none; stroke: #000000; stroke-width: 0.8; stroke-linejoin: miter; stroke-linecap: square"/>
   </g>
   <g id="patch_5">
    <path d="M 90 256.32 
L 648 256.32 
" style="fill: none; stroke: #000000; stroke-width: 0.8; stroke-linejoin: miter; stroke-linecap: square"/>
   </g>
   <g id="patch_6">
    <path d="M 90 34.56 
L 648 34.56 
" style="fill: none; stroke: #000000; stroke-width: 0.8; stroke-linejoin: miter; stroke-linecap: square"/>
   </g>
  </g>
 </g>
 <defs>
  <clipPath id="p48d47d2be0">
   <rect x="90" y="34.56" width="558" height="221.76"/>
  </clipPath>
 </defs>
</svg>
