<?xml version="1.0" encoding="utf-8" standalone="no"?>
<!DOCTYPE svg PUBLIC "-//W3C//DTD SVG 1.1//EN"
  "http://www.w3.org/Graphics/SVG/1.1/DTD/svg11.dtd">
<svg xmlns:xlink="http://www.w3.org/1999/xlink" width="720pt" height="288pt" viewBox="0 0 720 288" xmlns="http://www.w3.org/2000/svg" version="1.1">
 <metadata>
  <rdf:RDF xmlns:dc="http://purl.org/dc/elements/1.1/" xmlns:cc="http://creativecommons.org/ns#" xmlns:rdf="http://www.w3.org/1999/02/22-rdf-syntax-ns#">
   <cc:Work>
    <dc:type rdf:resource="http://purl.org/dc/dcmitype/StillImage"/>
    <dc:date>2023-12-05T23:15:48.609161</dc:date>
    <dc:format>image/svg+xml</dc:format>
    <dc:creator>
     <cc:Agent>
      <dc:title>Matplotlib v3.6.2, https://matplotlib.org/</dc:title>
     </cc:Agent>
    </dc:creator>
   </cc:Work>
  </rdf:RDF>
 </metadata>
 <defs>
  <style type="text/css">*{stroke-linejoin: round; stroke-linecap: butt}</style>
 </defs>
 <g id="figure_1">
  <g id="patch_1">
   <path d="M 0 288 
L 720 288 
L 720 0 
L 0 0 
z
" style="fill: #ffffff"/>
  </g>
  <g id="axes_1">
   <g id="patch_2">
    <path d="M 90 256.32 
L 648 256.32 
L 648 34.56 
L 90 34.56 
z
" style="fill: #ffffff"/>
   </g>
   <g id="matplotlib.axis_1">
    <g id="xtick_1">
     <g id="line2d_1">
      <defs>
       <path id="m97a935360f" d="M 0 0 
L 0 3.5 
" style="stroke: #000000; stroke-width: 0.8"/>
      </defs>
      <g>
       <use xlink:href="#m97a935360f" x="115.363636" y="256.32" style="stroke: #000000; stroke-width: 0.8"/>
      </g>
     </g>
     <g id="text_1">
      <!-- 0 -->
      <g transform="translate(112.182386 270.918437) scale(0.1 -0.1)">
       <defs>
        <path id="DejaVuSans-30" d="M 2034 4250 
Q 1547 4250 1301 3770 
Q 1056 3291 1056 2328 
Q 1056 1369 1301 889 
Q 1547 409 2034 409 
Q 2525 409 2770 889 
Q 3016 1369 3016 2328 
Q 3016 3291 2770 3770 
Q 2525 4250 2034 4250 
z
M 2034 4750 
Q 2819 4750 3233 4129 
Q 3647 3509 3647 2328 
Q 3647 1150 3233 529 
Q 2819 -91 2034 -91 
Q 1250 -91 836 529 
Q 422 1150 422 2328 
Q 422 3509 836 4129 
Q 1250 4750 2034 4750 
z
" transform="scale(0.015625)"/>
       </defs>
       <use xlink:href="#DejaVuSans-30"/>
      </g>
     </g>
    </g>
    <g id="xtick_2">
     <g id="line2d_2">
      <g>
       <use xlink:href="#m97a935360f" x="214.634229" y="256.32" style="stroke: #000000; stroke-width: 0.8"/>
      </g>
     </g>
     <g id="text_2">
      <!-- 100 -->
      <g transform="translate(205.090479 270.918437) scale(0.1 -0.1)">
       <defs>
        <path id="DejaVuSans-31" d="M 794 531 
L 1825 531 
L 1825 4091 
L 703 3866 
L 703 4441 
L 1819 4666 
L 2450 4666 
L 2450 531 
L 3481 531 
L 3481 0 
L 794 0 
L 794 531 
z
" transform="scale(0.015625)"/>
       </defs>
       <use xlink:href="#DejaVuSans-31"/>
       <use xlink:href="#DejaVuSans-30" x="63.623047"/>
       <use xlink:href="#DejaVuSans-30" x="127.246094"/>
      </g>
     </g>
    </g>
    <g id="xtick_3">
     <g id="line2d_3">
      <g>
       <use xlink:href="#m97a935360f" x="313.904821" y="256.32" style="stroke: #000000; stroke-width: 0.8"/>
      </g>
     </g>
     <g id="text_3">
      <!-- 200 -->
      <g transform="translate(304.361071 270.918437) scale(0.1 -0.1)">
       <defs>
        <path id="DejaVuSans-32" d="M 1228 531 
L 3431 531 
L 3431 0 
L 469 0 
L 469 531 
Q 828 903 1448 1529 
Q 2069 2156 2228 2338 
Q 2531 2678 2651 2914 
Q 2772 3150 2772 3378 
Q 2772 3750 2511 3984 
Q 2250 4219 1831 4219 
Q 1534 4219 1204 4116 
Q 875 4013 500 3803 
L 500 4441 
Q 881 4594 1212 4672 
Q 1544 4750 1819 4750 
Q 2544 4750 2975 4387 
Q 3406 4025 3406 3419 
Q 3406 3131 3298 2873 
Q 3191 2616 2906 2266 
Q 2828 2175 2409 1742 
Q 1991 1309 1228 531 
z
" transform="scale(0.015625)"/>
       </defs>
       <use xlink:href="#DejaVuSans-32"/>
       <use xlink:href="#DejaVuSans-30" x="63.623047"/>
       <use xlink:href="#DejaVuSans-30" x="127.246094"/>
      </g>
     </g>
    </g>
    <g id="xtick_4">
     <g id="line2d_4">
      <g>
       <use xlink:href="#m97a935360f" x="413.175414" y="256.32" style="stroke: #000000; stroke-width: 0.8"/>
      </g>
     </g>
     <g id="text_4">
      <!-- 300 -->
      <g transform="translate(403.631664 270.918437) scale(0.1 -0.1)">
       <defs>
        <path id="DejaVuSans-33" d="M 2597 2516 
Q 3050 2419 3304 2112 
Q 3559 1806 3559 1356 
Q 3559 666 3084 287 
Q 2609 -91 1734 -91 
Q 1441 -91 1130 -33 
Q 819 25 488 141 
L 488 750 
Q 750 597 1062 519 
Q 1375 441 1716 441 
Q 2309 441 2620 675 
Q 2931 909 2931 1356 
Q 2931 1769 2642 2001 
Q 2353 2234 1838 2234 
L 1294 2234 
L 1294 2753 
L 1863 2753 
Q 2328 2753 2575 2939 
Q 2822 3125 2822 3475 
Q 2822 3834 2567 4026 
Q 2313 4219 1838 4219 
Q 1578 4219 1281 4162 
Q 984 4106 628 3988 
L 628 4550 
Q 988 4650 1302 4700 
Q 1616 4750 1894 4750 
Q 2613 4750 3031 4423 
Q 3450 4097 3450 3541 
Q 3450 3153 3228 2886 
Q 3006 2619 2597 2516 
z
" transform="scale(0.015625)"/>
       </defs>
       <use xlink:href="#DejaVuSans-33"/>
       <use xlink:href="#DejaVuSans-30" x="63.623047"/>
       <use xlink:href="#DejaVuSans-30" x="127.246094"/>
      </g>
     </g>
    </g>
    <g id="xtick_5">
     <g id="line2d_5">
      <g>
       <use xlink:href="#m97a935360f" x="512.446006" y="256.32" style="stroke: #000000; stroke-width: 0.8"/>
      </g>
     </g>
     <g id="text_5">
      <!-- 400 -->
      <g transform="translate(502.902256 270.918437) scale(0.1 -0.1)">
       <defs>
        <path id="DejaVuSans-34" d="M 2419 4116 
L 825 1625 
L 2419 1625 
L 2419 4116 
z
M 2253 4666 
L 3047 4666 
L 3047 1625 
L 3713 1625 
L 3713 1100 
L 3047 1100 
L 3047 0 
L 2419 0 
L 2419 1100 
L 313 1100 
L 313 1709 
L 2253 4666 
z
" transform="scale(0.015625)"/>
       </defs>
       <use xlink:href="#DejaVuSans-34"/>
       <use xlink:href="#DejaVuSans-30" x="63.623047"/>
       <use xlink:href="#DejaVuSans-30" x="127.246094"/>
      </g>
     </g>
    </g>
    <g id="xtick_6">
     <g id="line2d_6">
      <g>
       <use xlink:href="#m97a935360f" x="611.716598" y="256.32" style="stroke: #000000; stroke-width: 0.8"/>
      </g>
     </g>
     <g id="text_6">
      <!-- 500 -->
      <g transform="translate(602.172848 270.918437) scale(0.1 -0.1)">
       <defs>
        <path id="DejaVuSans-35" d="M 691 4666 
L 3169 4666 
L 3169 4134 
L 1269 4134 
L 1269 2991 
Q 1406 3038 1543 3061 
Q 1681 3084 1819 3084 
Q 2600 3084 3056 2656 
Q 3513 2228 3513 1497 
Q 3513 744 3044 326 
Q 2575 -91 1722 -91 
Q 1428 -91 1123 -41 
Q 819 9 494 109 
L 494 744 
Q 775 591 1075 516 
Q 1375 441 1709 441 
Q 2250 441 2565 725 
Q 2881 1009 2881 1497 
Q 2881 1984 2565 2268 
Q 2250 2553 1709 2553 
Q 1456 2553 1204 2497 
Q 953 2441 691 2322 
L 691 4666 
z
" transform="scale(0.015625)"/>
       </defs>
       <use xlink:href="#DejaVuSans-35"/>
       <use xlink:href="#DejaVuSans-30" x="63.623047"/>
       <use xlink:href="#DejaVuSans-30" x="127.246094"/>
      </g>
     </g>
    </g>
   </g>
   <g id="matplotlib.axis_2">
    <g id="ytick_1">
     <g id="line2d_7">
      <defs>
       <path id="m0ead1f3c90" d="M 0 0 
L -3.5 0 
" style="stroke: #000000; stroke-width: 0.8"/>
      </defs>
      <g>
       <use xlink:href="#m0ead1f3c90" x="90" y="233.77946" style="stroke: #000000; stroke-width: 0.8"/>
      </g>
     </g>
     <g id="text_7">
      <!-- −0.00090 -->
      <g transform="translate(33.267187 237.578678) scale(0.1 -0.1)">
       <defs>
        <path id="DejaVuSans-2212" d="M 678 2272 
L 4684 2272 
L 4684 1741 
L 678 1741 
L 678 2272 
z
" transform="scale(0.015625)"/>
        <path id="DejaVuSans-2e" d="M 684 794 
L 1344 794 
L 1344 0 
L 684 0 
L 684 794 
z
" transform="scale(0.015625)"/>
        <path id="DejaVuSans-39" d="M 703 97 
L 703 672 
Q 941 559 1184 500 
Q 1428 441 1663 441 
Q 2288 441 2617 861 
Q 2947 1281 2994 2138 
Q 2813 1869 2534 1725 
Q 2256 1581 1919 1581 
Q 1219 1581 811 2004 
Q 403 2428 403 3163 
Q 403 3881 828 4315 
Q 1253 4750 1959 4750 
Q 2769 4750 3195 4129 
Q 3622 3509 3622 2328 
Q 3622 1225 3098 567 
Q 2575 -91 1691 -91 
Q 1453 -91 1209 -44 
Q 966 3 703 97 
z
M 1959 2075 
Q 2384 2075 2632 2365 
Q 2881 2656 2881 3163 
Q 2881 3666 2632 3958 
Q 2384 4250 1959 4250 
Q 1534 4250 1286 3958 
Q 1038 3666 1038 3163 
Q 1038 2656 1286 2365 
Q 1534 2075 1959 2075 
z
" transform="scale(0.015625)"/>
       </defs>
       <use xlink:href="#DejaVuSans-2212"/>
       <use xlink:href="#DejaVuSans-30" x="83.789062"/>
       <use xlink:href="#DejaVuSans-2e" x="147.412109"/>
       <use xlink:href="#DejaVuSans-30" x="179.199219"/>
       <use xlink:href="#DejaVuSans-30" x="242.822266"/>
       <use xlink:href="#DejaVuSans-30" x="306.445312"/>
       <use xlink:href="#DejaVuSans-39" x="370.068359"/>
       <use xlink:href="#DejaVuSans-30" x="433.691406"/>
      </g>
     </g>
    </g>
    <g id="ytick_2">
     <g id="line2d_8">
      <g>
       <use xlink:href="#m0ead1f3c90" x="90" y="193.983022" style="stroke: #000000; stroke-width: 0.8"/>
      </g>
     </g>
     <g id="text_8">
      <!-- −0.00085 -->
      <g transform="translate(33.267187 197.782241) scale(0.1 -0.1)">
       <defs>
        <path id="DejaVuSans-38" d="M 2034 2216 
Q 1584 2216 1326 1975 
Q 1069 1734 1069 1313 
Q 1069 891 1326 650 
Q 1584 409 2034 409 
Q 2484 409 2743 651 
Q 3003 894 3003 1313 
Q 3003 1734 2745 1975 
Q 2488 2216 2034 2216 
z
M 1403 2484 
Q 997 2584 770 2862 
Q 544 3141 544 3541 
Q 544 4100 942 4425 
Q 1341 4750 2034 4750 
Q 2731 4750 3128 4425 
Q 3525 4100 3525 3541 
Q 3525 3141 3298 2862 
Q 3072 2584 2669 2484 
Q 3125 2378 3379 2068 
Q 3634 1759 3634 1313 
Q 3634 634 3220 271 
Q 2806 -91 2034 -91 
Q 1263 -91 848 271 
Q 434 634 434 1313 
Q 434 1759 690 2068 
Q 947 2378 1403 2484 
z
M 1172 3481 
Q 1172 3119 1398 2916 
Q 1625 2713 2034 2713 
Q 2441 2713 2670 2916 
Q 2900 3119 2900 3481 
Q 2900 3844 2670 4047 
Q 2441 4250 2034 4250 
Q 1625 4250 1398 4047 
Q 1172 3844 1172 3481 
z
" transform="scale(0.015625)"/>
       </defs>
       <use xlink:href="#DejaVuSans-2212"/>
       <use xlink:href="#DejaVuSans-30" x="83.789062"/>
       <use xlink:href="#DejaVuSans-2e" x="147.412109"/>
       <use xlink:href="#DejaVuSans-30" x="179.199219"/>
       <use xlink:href="#DejaVuSans-30" x="242.822266"/>
       <use xlink:href="#DejaVuSans-30" x="306.445312"/>
       <use xlink:href="#DejaVuSans-38" x="370.068359"/>
       <use xlink:href="#DejaVuSans-35" x="433.691406"/>
      </g>
     </g>
    </g>
    <g id="ytick_3">
     <g id="line2d_9">
      <g>
       <use xlink:href="#m0ead1f3c90" x="90" y="154.186585" style="stroke: #000000; stroke-width: 0.8"/>
      </g>
     </g>
     <g id="text_9">
      <!-- −0.00080 -->
      <g transform="translate(33.267187 157.985804) scale(0.1 -0.1)">
       <use xlink:href="#DejaVuSans-2212"/>
       <use xlink:href="#DejaVuSans-30" x="83.789062"/>
       <use xlink:href="#DejaVuSans-2e" x="147.412109"/>
       <use xlink:href="#DejaVuSans-30" x="179.199219"/>
       <use xlink:href="#DejaVuSans-30" x="242.822266"/>
       <use xlink:href="#DejaVuSans-30" x="306.445312"/>
       <use xlink:href="#DejaVuSans-38" x="370.068359"/>
       <use xlink:href="#DejaVuSans-30" x="433.691406"/>
      </g>
     </g>
    </g>
    <g id="ytick_4">
     <g id="line2d_10">
      <g>
       <use xlink:href="#m0ead1f3c90" x="90" y="114.390148" style="stroke: #000000; stroke-width: 0.8"/>
      </g>
     </g>
     <g id="text_10">
      <!-- −0.00075 -->
      <g transform="translate(33.267187 118.189367) scale(0.1 -0.1)">
       <defs>
        <path id="DejaVuSans-37" d="M 525 4666 
L 3525 4666 
L 3525 4397 
L 1831 0 
L 1172 0 
L 2766 4134 
L 525 4134 
L 525 4666 
z
" transform="scale(0.015625)"/>
       </defs>
       <use xlink:href="#DejaVuSans-2212"/>
       <use xlink:href="#DejaVuSans-30" x="83.789062"/>
       <use xlink:href="#DejaVuSans-2e" x="147.412109"/>
       <use xlink:href="#DejaVuSans-30" x="179.199219"/>
       <use xlink:href="#DejaVuSans-30" x="242.822266"/>
       <use xlink:href="#DejaVuSans-30" x="306.445312"/>
       <use xlink:href="#DejaVuSans-37" x="370.068359"/>
       <use xlink:href="#DejaVuSans-35" x="433.691406"/>
      </g>
     </g>
    </g>
    <g id="ytick_5">
     <g id="line2d_11">
      <g>
       <use xlink:href="#m0ead1f3c90" x="90" y="74.593711" style="stroke: #000000; stroke-width: 0.8"/>
      </g>
     </g>
     <g id="text_11">
      <!-- −0.00070 -->
      <g transform="translate(33.267187 78.39293) scale(0.1 -0.1)">
       <use xlink:href="#DejaVuSans-2212"/>
       <use xlink:href="#DejaVuSans-30" x="83.789062"/>
       <use xlink:href="#DejaVuSans-2e" x="147.412109"/>
       <use xlink:href="#DejaVuSans-30" x="179.199219"/>
       <use xlink:href="#DejaVuSans-30" x="242.822266"/>
       <use xlink:href="#DejaVuSans-30" x="306.445312"/>
       <use xlink:href="#DejaVuSans-37" x="370.068359"/>
       <use xlink:href="#DejaVuSans-30" x="433.691406"/>
      </g>
     </g>
    </g>
    <g id="ytick_6">
     <g id="line2d_12">
      <g>
       <use xlink:href="#m0ead1f3c90" x="90" y="34.797274" style="stroke: #000000; stroke-width: 0.8"/>
      </g>
     </g>
     <g id="text_12">
      <!-- −0.00065 -->
      <g transform="translate(33.267187 38.596493) scale(0.1 -0.1)">
       <defs>
        <path id="DejaVuSans-36" d="M 2113 2584 
Q 1688 2584 1439 2293 
Q 1191 2003 1191 1497 
Q 1191 994 1439 701 
Q 1688 409 2113 409 
Q 2538 409 2786 701 
Q 3034 994 3034 1497 
Q 3034 2003 2786 2293 
Q 2538 2584 2113 2584 
z
M 3366 4563 
L 3366 3988 
Q 3128 4100 2886 4159 
Q 2644 4219 2406 4219 
Q 1781 4219 1451 3797 
Q 1122 3375 1075 2522 
Q 1259 2794 1537 2939 
Q 1816 3084 2150 3084 
Q 2853 3084 3261 2657 
Q 3669 2231 3669 1497 
Q 3669 778 3244 343 
Q 2819 -91 2113 -91 
Q 1303 -91 875 529 
Q 447 1150 447 2328 
Q 447 3434 972 4092 
Q 1497 4750 2381 4750 
Q 2619 4750 2861 4703 
Q 3103 4656 3366 4563 
z
" transform="scale(0.015625)"/>
       </defs>
       <use xlink:href="#DejaVuSans-2212"/>
       <use xlink:href="#DejaVuSans-30" x="83.789062"/>
       <use xlink:href="#DejaVuSans-2e" x="147.412109"/>
       <use xlink:href="#DejaVuSans-30" x="179.199219"/>
       <use xlink:href="#DejaVuSans-30" x="242.822266"/>
       <use xlink:href="#DejaVuSans-30" x="306.445312"/>
       <use xlink:href="#DejaVuSans-36" x="370.068359"/>
       <use xlink:href="#DejaVuSans-35" x="433.691406"/>
      </g>
     </g>
    </g>
   </g>
   <g id="line2d_13">
    <path d="M 115.363636 171.063499 
L 116.356342 126.780856 
L 117.349048 134.2574 
L 118.341754 191.137107 
L 119.33446 177.481156 
L 120.327166 135.463536 
L 121.319872 159.974954 
L 122.312578 179.684615 
L 123.305284 144.483302 
L 124.29799 163.057268 
L 125.290696 156.150599 
L 126.283402 124.755522 
L 127.276107 137.620448 
L 128.268813 104.889776 
L 129.261519 143.560835 
L 130.254225 119.822407 
L 131.246931 71.608209 
L 132.239637 139.133027 
L 133.232343 109.488363 
L 134.225049 99.058014 
L 135.217755 136.882661 
L 136.210461 123.976721 
L 137.203167 171.00902 
L 138.195873 126.430471 
L 139.188579 142.595657 
L 140.181284 117.680801 
L 141.17399 153.155697 
L 142.166696 94.717067 
L 143.159402 134.143349 
L 144.152108 132.838491 
L 145.144814 125.33139 
L 146.13752 133.133545 
L 147.130226 116.29999 
L 149.115638 168.488957 
L 150.108344 153.618082 
L 151.10105 141.848905 
L 152.093756 106.156105 
L 153.086461 87.7952 
L 154.079167 100.655767 
L 155.071873 84.290128 
L 156.064579 123.314459 
L 157.057285 92.502116 
L 158.049991 83.980138 
L 159.042697 105.06534 
L 160.035403 113.16966 
L 161.028109 78.196248 
L 162.020815 68.175311 
L 163.013521 96.666094 
L 164.006227 87.1219 
L 164.998933 44.64 
L 165.991638 65.615227 
L 166.984344 112.724287 
L 167.97705 110.446911 
L 168.969756 147.659909 
L 169.962462 127.012473 
L 170.955168 122.271258 
L 171.947874 96.154586 
L 172.94058 101.305246 
L 173.933286 95.929824 
L 174.925992 92.252534 
L 175.918698 157.82712 
L 176.911404 96.252092 
L 177.90411 113.223248 
L 178.896816 69.478911 
L 179.889521 109.646537 
L 180.882227 121.374157 
L 181.874933 123.598477 
L 182.867639 83.47101 
L 183.860345 85.986355 
L 184.853051 106.302133 
L 185.845757 104.543364 
L 186.838463 95.931573 
L 187.831169 137.912608 
L 188.823875 105.309829 
L 189.816581 107.648417 
L 190.809287 76.73173 
L 192.794698 134.020756 
L 193.787404 87.538933 
L 194.78011 98.73373 
L 195.772816 102.995004 
L 196.765522 119.866213 
L 197.758228 109.362054 
L 198.750934 107.450335 
L 199.74364 108.269422 
L 200.736346 144.39997 
L 201.729052 142.16023 
L 202.721758 128.971957 
L 203.714464 174.887059 
L 204.70717 145.965304 
L 205.699875 101.117668 
L 206.692581 117.76966 
L 207.685287 109.310699 
L 208.677993 99.542684 
L 209.670699 129.925912 
L 210.663405 137.277127 
L 211.656111 141.173684 
L 212.648817 136.14054 
L 213.641523 126.835845 
L 214.634229 159.503285 
L 215.626935 135.176424 
L 216.619641 131.229675 
L 217.612347 160.95567 
L 218.605052 178.303802 
L 219.597758 181.633623 
L 220.590464 219.924493 
L 221.58317 246.24 
L 222.575876 210.114369 
L 223.568582 199.275672 
L 224.561288 165.276687 
L 225.553994 136.343426 
L 226.5467 181.278096 
L 227.539406 194.742456 
L 228.532112 167.727717 
L 229.524818 190.440589 
L 230.517524 175.22419 
L 231.510229 204.078321 
L 232.502935 206.89603 
L 233.495641 208.009488 
L 234.488347 209.558372 
L 235.481053 159.119316 
L 236.473759 143.446572 
L 237.466465 173.946343 
L 238.459171 141.218454 
L 239.451877 146.292868 
L 240.444583 186.651842 
L 241.437289 148.567616 
L 242.429995 152.772187 
L 243.422701 151.781042 
L 244.415407 138.845342 
L 245.408112 115.785439 
L 246.400818 119.124743 
L 247.393524 128.523146 
L 248.38623 146.358709 
L 249.378936 146.092084 
L 251.364348 105.16952 
L 252.357054 118.347206 
L 253.34976 119.007816 
L 254.342466 136.123628 
L 255.335172 125.047184 
L 256.327878 145.353626 
L 257.320584 148.02524 
L 258.313289 166.048574 
L 259.305995 131.122699 
L 260.298701 156.032941 
L 261.291407 132.548322 
L 262.284113 117.809881 
L 263.276819 107.339868 
L 265.262231 126.001673 
L 266.254937 123.977258 
L 267.247643 112.542347 
L 268.240349 128.554031 
L 269.233055 89.698978 
L 270.225761 81.486645 
L 271.218466 88.416725 
L 272.211172 73.085678 
L 273.203878 98.236694 
L 274.196584 77.533623 
L 275.18929 83.71757 
L 276.181996 100.255619 
L 277.174702 97.447558 
L 278.167408 104.027669 
L 279.160114 103.129688 
L 280.15282 98.375248 
L 281.145526 109.43226 
L 282.138232 117.091161 
L 283.130938 114.797958 
L 284.123643 127.249474 
L 285.116349 113.268248 
L 286.109055 109.637333 
L 287.101761 112.291151 
L 288.094467 122.560422 
L 289.087173 95.297795 
L 290.079879 107.805466 
L 291.072585 112.569591 
L 292.065291 116.757268 
L 293.057997 112.562432 
L 294.050703 116.217097 
L 295.043409 110.144414 
L 296.036115 108.026417 
L 297.02882 115.51511 
L 298.021526 124.435937 
L 299.014232 125.871654 
L 300.006938 119.405267 
L 300.999644 103.183884 
L 301.99235 106.366546 
L 302.985056 98.755315 
L 303.977762 98.237015 
L 304.970468 108.451754 
L 305.963174 95.487184 
L 306.95588 100.510507 
L 308.941292 118.389528 
L 309.933998 119.936676 
L 310.926703 98.772333 
L 311.919409 100.744588 
L 312.912115 112.168734 
L 313.904821 102.61634 
L 314.897527 106.796958 
L 315.890233 121.105691 
L 316.882939 111.985954 
L 317.875645 121.392373 
L 318.868351 111.666495 
L 319.861057 124.061026 
L 320.853763 104.618003 
L 321.846469 122.414034 
L 322.839175 110.15053 
L 323.83188 108.957127 
L 324.824586 110.90311 
L 325.817292 108.96032 
L 326.809998 111.771994 
L 327.802704 111.222212 
L 328.79541 111.500642 
L 329.788116 119.900482 
L 330.780822 122.133533 
L 331.773528 96.862241 
L 333.75894 123.848122 
L 334.751646 123.682874 
L 335.744352 121.948253 
L 336.737057 109.551887 
L 337.729763 110.943098 
L 338.722469 116.252953 
L 339.715175 133.949554 
L 340.707881 107.081901 
L 341.700587 121.675838 
L 342.693293 119.794977 
L 343.685999 122.73859 
L 344.678705 117.903621 
L 345.671411 116.211229 
L 346.664117 112.208449 
L 347.656823 124.883598 
L 348.649529 133.849335 
L 349.642234 116.957855 
L 350.63494 115.651708 
L 351.627646 128.106857 
L 353.613058 116.0603 
L 354.605764 137.011915 
L 355.59847 129.752226 
L 356.591176 119.870752 
L 357.583882 132.31999 
L 358.576588 127.602546 
L 359.569294 123.432457 
L 360.562 131.196715 
L 361.554706 129.499792 
L 362.547411 128.225712 
L 363.540117 127.425792 
L 364.532823 136.325455 
L 365.525529 132.181553 
L 366.518235 141.577554 
L 367.510941 115.586882 
L 368.503647 121.160795 
L 369.496353 128.057277 
L 370.489059 143.157763 
L 371.481765 139.0765 
L 372.474471 129.845941 
L 373.467177 140.056987 
L 374.459883 126.083178 
L 375.452589 140.473874 
L 376.445294 113.713112 
L 377.438 133.949249 
L 378.430706 124.095276 
L 379.423412 145.623406 
L 380.416118 135.472346 
L 381.408824 132.57748 
L 382.40153 139.917279 
L 383.394236 141.81211 
L 384.386942 138.300212 
L 385.379648 127.659376 
L 386.372354 131.683589 
L 387.36506 146.828752 
L 388.357766 147.402872 
L 389.350471 135.478835 
L 390.343177 138.15701 
L 391.335883 141.506566 
L 392.328589 125.079767 
L 393.321295 152.398723 
L 394.314001 119.987127 
L 395.306707 132.794992 
L 396.299413 153.141862 
L 397.292119 147.354626 
L 398.284825 144.715453 
L 399.277531 145.040386 
L 400.270237 134.475275 
L 401.262943 125.991696 
L 402.255648 138.217682 
L 403.248354 134.284596 
L 404.24106 129.058798 
L 405.233766 131.167176 
L 406.226472 148.549233 
L 407.219178 125.477203 
L 408.211884 137.977776 
L 409.20459 147.206164 
L 410.197296 112.715351 
L 411.190002 133.662214 
L 412.182708 122.429797 
L 413.175414 125.289127 
L 414.16812 125.571043 
L 415.160825 118.006489 
L 416.153531 126.70912 
L 417.146237 149.410336 
L 418.138943 127.82721 
L 419.131649 137.881277 
L 421.117061 122.963221 
L 422.109767 120.785231 
L 423.102473 126.322021 
L 424.095179 120.204447 
L 426.080591 129.042917 
L 427.073297 117.258016 
L 428.066002 137.089869 
L 429.058708 120.382631 
L 430.051414 127.394486 
L 431.04412 128.568045 
L 432.036826 124.888736 
L 433.029532 127.654574 
L 434.022238 116.599413 
L 435.014944 121.044611 
L 436.00765 117.933869 
L 437.000356 117.794619 
L 437.993062 126.867802 
L 438.985768 111.408682 
L 439.978474 127.562279 
L 440.97118 131.422484 
L 441.963885 125.73965 
L 442.956591 135.486003 
L 443.949297 118.294349 
L 444.942003 121.986526 
L 445.934709 128.022942 
L 446.927415 121.203184 
L 447.920121 126.016933 
L 448.912827 135.088741 
L 449.905533 120.289553 
L 450.898239 125.555567 
L 451.890945 123.60538 
L 452.883651 123.146443 
L 453.876357 112.647649 
L 454.869062 131.895297 
L 455.861768 133.98734 
L 456.854474 119.168793 
L 457.84718 123.882728 
L 458.839886 125.218111 
L 459.832592 126.125899 
L 460.825298 113.381488 
L 461.818004 131.432056 
L 462.81071 125.266733 
L 463.803416 123.109304 
L 464.796122 112.732111 
L 465.788828 118.212646 
L 466.781534 146.213079 
L 467.774239 126.738432 
L 468.766945 126.949981 
L 469.759651 121.713374 
L 470.752357 112.373838 
L 471.745063 132.150612 
L 472.737769 112.373487 
L 473.730475 138.254014 
L 474.723181 116.161946 
L 475.715887 105.989977 
L 476.708593 110.405776 
L 477.701299 115.700857 
L 478.694005 127.096855 
L 479.686711 123.529053 
L 480.679416 127.865267 
L 481.672122 123.037939 
L 482.664828 122.814158 
L 483.657534 111.716365 
L 484.65024 118.623365 
L 485.642946 128.241435 
L 486.635652 118.591456 
L 488.621064 108.659892 
L 489.61377 137.110042 
L 490.606476 133.423924 
L 491.599182 117.977966 
L 492.591888 116.376699 
L 493.584593 125.275219 
L 494.577299 111.76398 
L 495.570005 106.128827 
L 497.555417 126.325278 
L 498.548123 123.088229 
L 499.540829 109.288142 
L 500.533535 121.362734 
L 501.526241 115.149942 
L 502.518947 109.652528 
L 503.511653 124.474236 
L 504.504359 121.382838 
L 505.497065 134.417269 
L 506.489771 117.298624 
L 507.482476 114.132688 
L 508.475182 134.278356 
L 509.467888 121.275091 
L 510.460594 124.868765 
L 511.4533 140.179256 
L 512.446006 119.439269 
L 513.438712 116.889057 
L 514.431418 121.610781 
L 515.424124 124.219395 
L 516.41683 125.564995 
L 517.409536 134.49433 
L 518.402242 138.290413 
L 519.394948 130.619165 
L 520.387653 114.783533 
L 521.380359 129.567224 
L 522.373065 142.474629 
L 523.365771 113.897443 
L 524.358477 124.087043 
L 525.351183 121.245329 
L 526.343889 142.735117 
L 527.336595 131.882399 
L 528.329301 127.679855 
L 529.322007 117.643971 
L 530.314713 114.171244 
L 531.307419 124.47984 
L 532.300125 141.547147 
L 533.29283 124.320682 
L 534.285536 135.884027 
L 535.278242 111.063072 
L 536.270948 122.739132 
L 537.263654 125.540002 
L 538.25636 130.348695 
L 539.249066 137.974458 
L 540.241772 128.286431 
L 542.227184 113.039145 
L 543.21989 108.376965 
L 544.212596 107.809195 
L 545.205302 101.993407 
L 546.198007 100.702088 
L 547.190713 96.838347 
L 548.183419 94.238159 
L 549.176125 97.091216 
L 550.168831 102.022897 
L 551.161537 89.672618 
L 552.154243 111.86319 
L 553.146949 107.959505 
L 554.139655 120.139316 
L 555.132361 103.214204 
L 556.125067 108.152087 
L 557.117773 109.047896 
L 558.110479 116.15896 
L 559.103184 108.542929 
L 560.09589 108.78455 
L 561.088596 106.272562 
L 562.081302 132.202975 
L 563.074008 129.364357 
L 564.066714 105.971831 
L 565.05942 114.923688 
L 566.052126 114.677067 
L 567.044832 117.810725 
L 568.037538 115.789277 
L 569.030244 106.596832 
L 570.02295 116.908868 
L 571.015656 113.398475 
L 572.008362 112.090181 
L 573.001067 108.994157 
L 573.993773 108.209593 
L 574.986479 122.352444 
L 575.979185 109.654443 
L 576.971891 117.914881 
L 577.964597 116.929746 
L 578.957303 115.014852 
L 579.950009 128.786649 
L 581.935421 101.212109 
L 582.928127 133.948634 
L 583.920833 115.416314 
L 584.913539 106.91183 
L 585.906244 118.25968 
L 586.89895 106.933416 
L 587.891656 125.252392 
L 588.884362 118.796329 
L 589.877068 130.079726 
L 590.869774 111.244078 
L 591.86248 106.479195 
L 592.855186 135.767874 
L 593.847892 138.007552 
L 594.840598 121.33637 
L 595.833304 116.054633 
L 596.82601 122.034235 
L 597.818716 124.490983 
L 598.811421 112.708083 
L 599.804127 125.296184 
L 600.796833 131.184606 
L 601.789539 127.767604 
L 602.782245 126.396205 
L 603.774951 132.497938 
L 604.767657 127.64314 
L 606.753069 112.11821 
L 607.745775 123.012053 
L 608.738481 132.467982 
L 609.731187 130.582503 
L 610.723893 126.715401 
L 611.716598 143.085085 
L 612.709304 137.228062 
L 613.70201 108.338019 
L 614.694716 119.34315 
L 615.687422 105.642762 
L 616.680128 118.416673 
L 617.672834 95.025418 
L 618.66554 116.557289 
L 620.650952 65.228267 
L 621.643658 110.561808 
L 622.636364 92.847487 
L 622.636364 92.847487 
" clip-path="url(#p004916267a)" style="fill: none; stroke: #1f77b4; stroke-width: 1.5; stroke-linecap: square"/>
   </g>
   <g id="patch_3">
    <path d="M 90 256.32 
L 90 34.56 
" style="fill: none; stroke: #000000; stroke-width: 0.8; stroke-linejoin: miter; stroke-linecap: square"/>
   </g>
   <g id="patch_4">
    <path d="M 648 256.32 
L 648 34.56 
" style="fill: none; stroke: #000000; stroke-width: 0.8; stroke-linejoin: miter; stroke-linecap: square"/>
   </g>
   <g id="patch_5">
    <path d="M 90 256.32 
L 648 256.32 
" style="fill: none; stroke: #000000; stroke-width: 0.8; stroke-linejoin: miter; stroke-linecap: square"/>
   </g>
   <g id="patch_6">
    <path d="M 90 34.56 
L 648 34.56 
" style="fill: none; stroke: #000000; stroke-width: 0.8; stroke-linejoin: miter; stroke-linecap: square"/>
   </g>
  </g>
 </g>
 <defs>
  <clipPath id="p004916267a">
   <rect x="90" y="34.56" width="558" height="221.76"/>
  </clipPath>
 </defs>
</svg>
